  0
SECTION
  2
HEADER
  9
$ANGBASE
  50
0.0
  9
$ANGDIR
  70
1
  9
$MEASUREMENT
  70
1
  0
ENDSEC
  0
SECTION
  2
TABLES
  0
TABLE
  2
LTYPE
  70
4
  0
LTYPE
  5
40F
  2
CONTINUOUS
  70
0
  3
Solid line
  72
65
  73
0
  40
0.0
  0
LTYPE
  5
410
  2
DASHDOT
 70
0
  3
Dash Dot ____ _ ____ _
 72
65
 73
4
 40
2.0
 49
1.25
 49
-0.25
 49
0.25
 49
-0.25
  0
LTYPE
  5
411
  2
DASHED
 70
0
  3
Dashed __ __ __ __ __
 72
65
 73
2
 40
0.75
 49
0.5
 49
-0.25
  0
LTYPE
  5
43B
  2
DOTTED
 70
0
  3
Dotted .  .  .  .
 72
65
 73
2
 40
0.2
 49
0.0
 49
-0.2
  0
ENDTAB
  0
TABLE
  2
STYLE
  70
4
  0
STYLE
  2
KICAD
  70
0
  40
0
  41
1
  42
1
  50
0
  71
0
  3
isocp.shx
  0
STYLE
  2
KICADB
  70
0
  40
0
  41
1
  42
1
  50
0
  71
0
  3
isocp.shx
  0
STYLE
  2
KICADI
  70
0
  40
0
  41
1
  42
1
  50
15
  71
0
  3
isocp.shx
  0
STYLE
  2
KICADBI
  70
0
  40
0
  41
1
  42
1
  50
15
  71
0
  3
isocp.shx
  0
ENDTAB
  0
TABLE
  2
LAYER
  70
1
  0
LAYER
  2
BLACK
  70
0
  62
7
  6
CONTINUOUS
  0
ENDTAB
  0
ENDSEC
  0
SECTION
  2
ENTITIES
0
LINE
8
BLACK
6
CONTINUOUS
10
171.676
20
-35.625
11
171.677
21
-35.625
0
LINE
8
BLACK
6
CONTINUOUS
10
171.677
20
-35.625
11
171.679
21
-35.6251
0
LINE
8
BLACK
6
CONTINUOUS
10
171.679
20
-35.6251
11
171.68
21
-35.6252
0
LINE
8
BLACK
6
CONTINUOUS
10
171.68
20
-35.6252
11
171.681
21
-35.6254
0
LINE
8
BLACK
6
CONTINUOUS
10
171.681
20
-35.6254
11
171.685
21
-35.6257
0
LINE
8
BLACK
6
CONTINUOUS
10
171.685
20
-35.6257
11
171.686
21
-35.6261
0
LINE
8
BLACK
6
CONTINUOUS
10
171.686
20
-35.6261
11
225.209
21
-44.0708
0
LINE
8
BLACK
6
CONTINUOUS
10
225.209
20
-44.0708
11
225.21
21
-44.0711
0
LINE
8
BLACK
6
CONTINUOUS
10
225.21
20
-44.0711
11
225.211
21
-44.0711
0
LINE
8
BLACK
6
CONTINUOUS
10
225.211
20
-44.0711
11
225.211
21
-44.0711
0
LINE
8
BLACK
6
CONTINUOUS
10
225.211
20
-44.0711
11
225.213
21
-44.0718
0
LINE
8
BLACK
6
CONTINUOUS
10
225.213
20
-44.0718
11
225.412
21
-44.1226
0
LINE
8
BLACK
6
CONTINUOUS
10
225.412
20
-44.1226
11
225.414
21
-44.1229
0
LINE
8
BLACK
6
CONTINUOUS
10
225.414
20
-44.1229
11
225.416
21
-44.1238
0
LINE
8
BLACK
6
CONTINUOUS
10
225.416
20
-44.1238
11
225.417
21
-44.1239
0
LINE
8
BLACK
6
CONTINUOUS
10
225.417
20
-44.1239
11
225.419
21
-44.1247
0
LINE
8
BLACK
6
CONTINUOUS
10
225.419
20
-44.1247
11
225.421
21
-44.1253
0
LINE
8
BLACK
6
CONTINUOUS
10
225.421
20
-44.1253
11
225.421
21
-44.1255
0
LINE
8
BLACK
6
CONTINUOUS
10
225.421
20
-44.1255
11
225.424
21
-44.1265
0
LINE
8
BLACK
6
CONTINUOUS
10
225.424
20
-44.1265
11
225.426
21
-44.1275
0
LINE
8
BLACK
6
CONTINUOUS
10
225.426
20
-44.1275
11
225.605
21
-44.2098
0
LINE
8
BLACK
6
CONTINUOUS
10
225.605
20
-44.2098
11
225.607
21
-44.2104
0
LINE
8
BLACK
6
CONTINUOUS
10
225.607
20
-44.2104
11
225.609
21
-44.2118
0
LINE
8
BLACK
6
CONTINUOUS
10
225.609
20
-44.2118
11
225.61
21
-44.212
0
LINE
8
BLACK
6
CONTINUOUS
10
225.61
20
-44.212
11
225.612
21
-44.213
0
LINE
8
BLACK
6
CONTINUOUS
10
225.612
20
-44.213
11
225.613
21
-44.214
0
LINE
8
BLACK
6
CONTINUOUS
10
225.613
20
-44.214
11
225.614
21
-44.2143
0
LINE
8
BLACK
6
CONTINUOUS
10
225.614
20
-44.2143
11
225.616
21
-44.2158
0
LINE
8
BLACK
6
CONTINUOUS
10
225.616
20
-44.2158
11
225.618
21
-44.2171
0
LINE
8
BLACK
6
CONTINUOUS
10
225.618
20
-44.2171
11
225.778
21
-44.3278
0
LINE
8
BLACK
6
CONTINUOUS
10
225.778
20
-44.3278
11
225.779
21
-44.3287
0
LINE
8
BLACK
6
CONTINUOUS
10
225.779
20
-44.3287
11
225.782
21
-44.3306
0
LINE
8
BLACK
6
CONTINUOUS
10
225.782
20
-44.3306
11
225.782
21
-44.3309
0
LINE
8
BLACK
6
CONTINUOUS
10
225.782
20
-44.3309
11
225.784
21
-44.3321
0
LINE
8
BLACK
6
CONTINUOUS
10
225.784
20
-44.3321
11
225.785
21
-44.3333
0
LINE
8
BLACK
6
CONTINUOUS
10
225.785
20
-44.3333
11
225.785
21
-44.3337
0
LINE
8
BLACK
6
CONTINUOUS
10
225.785
20
-44.3337
11
225.788
21
-44.3357
0
LINE
8
BLACK
6
CONTINUOUS
10
225.788
20
-44.3357
11
225.789
21
-44.3372
0
LINE
8
BLACK
6
CONTINUOUS
10
225.789
20
-44.3372
11
225.926
21
-44.4729
0
LINE
8
BLACK
6
CONTINUOUS
10
225.926
20
-44.4729
11
225.928
21
-44.474
0
LINE
8
BLACK
6
CONTINUOUS
10
225.928
20
-44.474
11
225.93
21
-44.4763
0
LINE
8
BLACK
6
CONTINUOUS
10
225.93
20
-44.4763
11
225.93
21
-44.4767
0
LINE
8
BLACK
6
CONTINUOUS
10
225.93
20
-44.4767
11
225.931
21
-44.4782
0
LINE
8
BLACK
6
CONTINUOUS
10
225.931
20
-44.4782
11
225.933
21
-44.4796
0
LINE
8
BLACK
6
CONTINUOUS
10
225.933
20
-44.4796
11
225.933
21
-44.4801
0
LINE
8
BLACK
6
CONTINUOUS
10
225.933
20
-44.4801
11
225.935
21
-44.4824
0
LINE
8
BLACK
6
CONTINUOUS
10
225.935
20
-44.4824
11
225.936
21
-44.4841
0
LINE
8
BLACK
6
CONTINUOUS
10
225.936
20
-44.4841
11
226.048
21
-44.6413
0
LINE
8
BLACK
6
CONTINUOUS
10
226.048
20
-44.6413
11
226.049
21
-44.6427
0
LINE
8
BLACK
6
CONTINUOUS
10
226.049
20
-44.6427
11
226.051
21
-44.6453
0
LINE
8
BLACK
6
CONTINUOUS
10
226.051
20
-44.6453
11
226.051
21
-44.6458
0
LINE
8
BLACK
6
CONTINUOUS
10
226.051
20
-44.6458
11
226.052
21
-44.6474
0
LINE
8
BLACK
6
CONTINUOUS
10
226.052
20
-44.6474
11
226.053
21
-44.649
0
LINE
8
BLACK
6
CONTINUOUS
10
226.053
20
-44.649
11
226.053
21
-44.6496
0
LINE
8
BLACK
6
CONTINUOUS
10
226.053
20
-44.6496
11
226.055
21
-44.6522
0
LINE
8
BLACK
6
CONTINUOUS
10
226.055
20
-44.6522
11
226.055
21
-44.654
0
LINE
8
BLACK
6
CONTINUOUS
10
226.055
20
-44.654
11
226.139
21
-44.8295
0
LINE
8
BLACK
6
CONTINUOUS
10
226.139
20
-44.8295
11
226.14
21
-44.8311
0
LINE
8
BLACK
6
CONTINUOUS
10
226.14
20
-44.8311
11
226.141
21
-44.8339
0
LINE
8
BLACK
6
CONTINUOUS
10
226.141
20
-44.8339
11
226.141
21
-44.8343
0
LINE
8
BLACK
6
CONTINUOUS
10
226.141
20
-44.8343
11
226.142
21
-44.8362
0
LINE
8
BLACK
6
CONTINUOUS
10
226.142
20
-44.8362
11
226.143
21
-44.838
0
LINE
8
BLACK
6
CONTINUOUS
10
226.143
20
-44.838
11
226.143
21
-44.8385
0
LINE
8
BLACK
6
CONTINUOUS
10
226.143
20
-44.8385
11
226.144
21
-44.8413
0
LINE
8
BLACK
6
CONTINUOUS
10
226.144
20
-44.8413
11
226.144
21
-44.8432
0
LINE
8
BLACK
6
CONTINUOUS
10
226.144
20
-44.8432
11
226.197
21
-45.0335
0
LINE
8
BLACK
6
CONTINUOUS
10
226.197
20
-45.0335
11
226.198
21
-45.0354
0
LINE
8
BLACK
6
CONTINUOUS
10
226.198
20
-45.0354
11
226.198
21
-45.0382
0
LINE
8
BLACK
6
CONTINUOUS
10
226.198
20
-45.0382
11
226.198
21
-45.0386
0
LINE
8
BLACK
6
CONTINUOUS
10
226.198
20
-45.0386
11
226.199
21
-45.0406
0
LINE
8
BLACK
6
CONTINUOUS
10
226.199
20
-45.0406
11
226.199
21
-45.0426
0
LINE
8
BLACK
6
CONTINUOUS
10
226.199
20
-45.0426
11
226.199
21
-45.043
0
LINE
8
BLACK
6
CONTINUOUS
10
226.199
20
-45.043
11
226.199
21
-45.0459
0
LINE
8
BLACK
6
CONTINUOUS
10
226.199
20
-45.0459
11
226.199
21
-45.0479
0
LINE
8
BLACK
6
CONTINUOUS
10
226.199
20
-45.0479
11
226.218
21
-45.2522
0
LINE
8
BLACK
6
CONTINUOUS
10
226.218
20
-45.2522
11
226.218
21
-45.2544
0
LINE
8
BLACK
6
CONTINUOUS
10
226.218
20
-45.2544
11
226.218
21
-45.2546
0
LINE
8
BLACK
6
CONTINUOUS
10
226.218
20
-45.2546
11
226.218
21
-45.2548
0
LINE
8
BLACK
6
CONTINUOUS
10
226.218
20
-45.2548
11
226.218
21
-45.2569
0
LINE
8
BLACK
6
CONTINUOUS
10
226.218
20
-45.2569
11
226.245
21
-120.119
0
LINE
8
BLACK
6
CONTINUOUS
10
226.245
20
-120.119
11
226.25
21
-120.123
0
LINE
8
BLACK
6
CONTINUOUS
10
226.25
20
-120.123
11
226.259
21
-120.135
0
LINE
8
BLACK
6
CONTINUOUS
10
226.259
20
-120.135
11
226.266
21
-120.148
0
LINE
8
BLACK
6
CONTINUOUS
10
226.266
20
-120.148
11
226.269
21
-120.162
0
LINE
8
BLACK
6
CONTINUOUS
10
226.269
20
-120.162
11
226.271
21
-120.177
0
LINE
8
BLACK
6
CONTINUOUS
10
226.271
20
-120.177
11
226.269
21
-120.192
0
LINE
8
BLACK
6
CONTINUOUS
10
226.269
20
-120.192
11
226.264
21
-120.206
0
LINE
8
BLACK
6
CONTINUOUS
10
226.264
20
-120.206
11
226.257
21
-120.219
0
LINE
8
BLACK
6
CONTINUOUS
10
226.257
20
-120.219
11
226.247
21
-120.23
0
LINE
8
BLACK
6
CONTINUOUS
10
226.247
20
-120.23
11
226.235
21
-120.239
0
LINE
8
BLACK
6
CONTINUOUS
10
226.235
20
-120.239
11
226.225
21
-120.244
0
LINE
8
BLACK
6
CONTINUOUS
10
226.225
20
-120.244
11
188.248
21
-134.746
0
LINE
8
BLACK
6
CONTINUOUS
10
188.248
20
-134.746
11
188.238
21
-134.749
0
LINE
8
BLACK
6
CONTINUOUS
10
188.238
20
-134.749
11
188.223
21
-134.75
0
LINE
8
BLACK
6
CONTINUOUS
10
188.223
20
-134.75
11
188.208
21
-134.748
0
LINE
8
BLACK
6
CONTINUOUS
10
188.208
20
-134.748
11
188.194
21
-134.744
0
LINE
8
BLACK
6
CONTINUOUS
10
188.194
20
-134.744
11
188.181
21
-134.736
0
LINE
8
BLACK
6
CONTINUOUS
10
188.181
20
-134.736
11
188.17
21
-134.727
0
LINE
8
BLACK
6
CONTINUOUS
10
188.17
20
-134.727
11
188.169
21
-134.725
0
LINE
8
BLACK
6
CONTINUOUS
10
188.169
20
-134.725
11
138.886
21
-134.725
0
LINE
8
BLACK
6
CONTINUOUS
10
138.886
20
-134.725
11
94.6395
21
-147.473
0
LINE
8
BLACK
6
CONTINUOUS
10
94.6395
20
-147.473
11
94.6356
21
-147.474
0
LINE
8
BLACK
6
CONTINUOUS
10
94.6356
20
-147.474
11
94.6324
21
-147.474
0
LINE
8
BLACK
6
CONTINUOUS
10
94.6324
20
-147.474
11
94.6292
21
-147.475
0
LINE
8
BLACK
6
CONTINUOUS
10
94.6292
20
-147.475
11
94.6275
21
-147.475
0
LINE
8
BLACK
6
CONTINUOUS
10
94.6275
20
-147.475
11
94.6258
21
-147.475
0
LINE
8
BLACK
6
CONTINUOUS
10
94.6258
20
-147.475
11
94.6226
21
-147.475
0
LINE
8
BLACK
6
CONTINUOUS
10
94.6226
20
-147.475
11
94.6194
21
-147.475
0
LINE
8
BLACK
6
CONTINUOUS
10
94.6194
20
-147.475
11
94.6153
21
-147.474
0
LINE
8
BLACK
6
CONTINUOUS
10
94.6153
20
-147.474
11
94.0698
21
-147.375
0
LINE
8
BLACK
6
CONTINUOUS
10
94.0698
20
-147.375
11
94.0687
21
-147.375
0
LINE
8
BLACK
6
CONTINUOUS
10
94.0687
20
-147.375
11
94.065
21
-147.374
0
LINE
8
BLACK
6
CONTINUOUS
10
94.065
20
-147.374
11
94.0636
21
-147.374
0
LINE
8
BLACK
6
CONTINUOUS
10
94.0636
20
-147.374
11
94.0626
21
-147.373
0
LINE
8
BLACK
6
CONTINUOUS
10
94.0626
20
-147.373
11
94.0615
21
-147.373
0
LINE
8
BLACK
6
CONTINUOUS
10
94.0615
20
-147.373
11
94.0602
21
-147.373
0
LINE
8
BLACK
6
CONTINUOUS
10
94.0602
20
-147.373
11
94.0565
21
-147.372
0
LINE
8
BLACK
6
CONTINUOUS
10
94.0565
20
-147.372
11
94.0556
21
-147.371
0
LINE
8
BLACK
6
CONTINUOUS
10
94.0556
20
-147.371
11
93.6116
21
-147.223
0
LINE
8
BLACK
6
CONTINUOUS
10
93.6116
20
-147.223
11
93.6094
21
-147.223
0
LINE
8
BLACK
6
CONTINUOUS
10
93.6094
20
-147.223
11
93.607
21
-147.222
0
LINE
8
BLACK
6
CONTINUOUS
10
93.607
20
-147.222
11
93.6069
21
-147.222
0
LINE
8
BLACK
6
CONTINUOUS
10
93.6069
20
-147.222
11
93.6048
21
-147.221
0
LINE
8
BLACK
6
CONTINUOUS
10
93.6048
20
-147.221
11
93.6004
21
-147.219
0
LINE
8
BLACK
6
CONTINUOUS
10
93.6004
20
-147.219
11
93.6002
21
-147.219
0
LINE
8
BLACK
6
CONTINUOUS
10
93.6002
20
-147.219
11
93.6001
21
-147.219
0
LINE
8
BLACK
6
CONTINUOUS
10
93.6001
20
-147.219
11
93.5963
21
-147.216
0
LINE
8
BLACK
6
CONTINUOUS
10
93.5963
20
-147.216
11
93.5943
21
-147.215
0
LINE
8
BLACK
6
CONTINUOUS
10
93.5943
20
-147.215
11
93.5942
21
-147.214
0
LINE
8
BLACK
6
CONTINUOUS
10
93.5942
20
-147.214
11
93.5921
21
-147.213
0
LINE
8
BLACK
6
CONTINUOUS
10
93.5921
20
-147.213
11
93.5905
21
-147.211
0
LINE
8
BLACK
6
CONTINUOUS
10
93.5905
20
-147.211
11
93.2453
21
-146.915
0
LINE
8
BLACK
6
CONTINUOUS
10
93.2453
20
-146.915
11
93.2444
21
-146.915
0
LINE
8
BLACK
6
CONTINUOUS
10
93.2444
20
-146.915
11
93.2416
21
-146.912
0
LINE
8
BLACK
6
CONTINUOUS
10
93.2416
20
-146.912
11
93.2406
21
-146.911
0
LINE
8
BLACK
6
CONTINUOUS
10
93.2406
20
-146.911
11
93.2398
21
-146.911
0
LINE
8
BLACK
6
CONTINUOUS
10
93.2398
20
-146.911
11
93.2372
21
-146.908
0
LINE
8
BLACK
6
CONTINUOUS
10
93.2372
20
-146.908
11
93.2364
21
-146.907
0
LINE
8
BLACK
6
CONTINUOUS
10
93.2364
20
-146.907
11
93.2355
21
-146.906
0
LINE
8
BLACK
6
CONTINUOUS
10
93.2355
20
-146.906
11
93.2336
21
-146.903
0
LINE
8
BLACK
6
CONTINUOUS
10
93.2336
20
-146.903
11
93.2329
21
-146.902
0
LINE
8
BLACK
6
CONTINUOUS
10
93.2329
20
-146.902
11
93.2322
21
-146.901
0
LINE
8
BLACK
6
CONTINUOUS
10
93.2322
20
-146.901
11
93.2302
21
-146.898
0
LINE
8
BLACK
6
CONTINUOUS
10
93.2302
20
-146.898
11
93.2298
21
-146.897
0
LINE
8
BLACK
6
CONTINUOUS
10
93.2298
20
-146.897
11
82.9825
21
-129.101
0
LINE
8
BLACK
6
CONTINUOUS
10
82.9825
20
-129.101
11
82.9806
21
-129.099
0
LINE
8
BLACK
6
CONTINUOUS
10
82.9806
20
-129.099
11
82.9791
21
-129.095
0
LINE
8
BLACK
6
CONTINUOUS
10
82.9791
20
-129.095
11
82.9774
21
-129.091
0
LINE
8
BLACK
6
CONTINUOUS
10
82.9774
20
-129.091
11
82.9767
21
-129.088
0
LINE
8
BLACK
6
CONTINUOUS
10
82.9767
20
-129.088
11
82.8277
21
-128.591
0
LINE
8
BLACK
6
CONTINUOUS
10
82.8277
20
-128.591
11
82.8267
21
-128.589
0
LINE
8
BLACK
6
CONTINUOUS
10
82.8267
20
-128.589
11
82.8259
21
-128.584
0
LINE
8
BLACK
6
CONTINUOUS
10
82.8259
20
-128.584
11
82.825
21
-128.58
0
LINE
8
BLACK
6
CONTINUOUS
10
82.825
20
-128.58
11
82.825
21
-128.577
0
LINE
8
BLACK
6
CONTINUOUS
10
82.825
20
-128.577
11
82.7752
21
-127.98
0
LINE
8
BLACK
6
CONTINUOUS
10
82.7752
20
-127.98
11
82.775
21
-127.977
0
LINE
8
BLACK
6
CONTINUOUS
10
82.775
20
-127.977
11
82.775
21
-127.977
0
LINE
8
BLACK
6
CONTINUOUS
10
82.775
20
-127.977
11
82.775
21
-127.977
0
LINE
8
BLACK
6
CONTINUOUS
10
82.775
20
-127.977
11
82.775
21
-127.975
0
LINE
8
BLACK
6
CONTINUOUS
10
82.775
20
-127.975
11
82.775
21
-127.577
0
LINE
8
BLACK
6
CONTINUOUS
10
82.775
20
-127.577
11
82.7748
21
-127.575
0
LINE
8
BLACK
6
CONTINUOUS
10
82.7748
20
-127.575
11
82.7753
21
-127.569
0
LINE
8
BLACK
6
CONTINUOUS
10
82.7753
20
-127.569
11
82.7757
21
-127.565
0
LINE
8
BLACK
6
CONTINUOUS
10
82.7757
20
-127.565
11
82.7764
21
-127.563
0
LINE
8
BLACK
6
CONTINUOUS
10
82.7764
20
-127.563
11
82.875
21
-127.07
0
LINE
8
BLACK
6
CONTINUOUS
10
82.875
20
-127.07
11
82.875
21
-127.07
0
LINE
8
BLACK
6
CONTINUOUS
10
82.875
20
-127.07
11
82.8759
21
-127.066
0
LINE
8
BLACK
6
CONTINUOUS
10
82.8759
20
-127.066
11
82.8765
21
-127.063
0
LINE
8
BLACK
6
CONTINUOUS
10
82.8765
20
-127.063
11
82.8765
21
-127.063
0
LINE
8
BLACK
6
CONTINUOUS
10
82.8765
20
-127.063
11
82.877
21
-127.06
0
LINE
8
BLACK
6
CONTINUOUS
10
82.877
20
-127.06
11
82.8779
21
-127.058
0
LINE
8
BLACK
6
CONTINUOUS
10
82.8779
20
-127.058
11
82.8786
21
-127.056
0
LINE
8
BLACK
6
CONTINUOUS
10
82.8786
20
-127.056
11
82.8798
21
-127.053
0
LINE
8
BLACK
6
CONTINUOUS
10
82.8798
20
-127.053
11
82.8798
21
-127.053
0
LINE
8
BLACK
6
CONTINUOUS
10
82.8798
20
-127.053
11
82.881
21
-127.051
0
LINE
8
BLACK
6
CONTINUOUS
10
82.881
20
-127.051
11
82.8833
21
-127.047
0
LINE
8
BLACK
6
CONTINUOUS
10
82.8833
20
-127.047
11
82.8833
21
-127.047
0
LINE
8
BLACK
6
CONTINUOUS
10
82.8833
20
-127.047
11
88.6789
21
-116.305
0
LINE
8
BLACK
6
CONTINUOUS
10
88.6789
20
-116.305
11
88.8759
21
-115.714
0
LINE
8
BLACK
6
CONTINUOUS
10
88.8759
20
-115.714
11
88.9503
21
-115.072
0
LINE
8
BLACK
6
CONTINUOUS
10
88.9503
20
-115.072
11
88.9489
21
-39.1573
0
LINE
8
BLACK
6
CONTINUOUS
10
88.9489
20
-39.1573
11
88.9488
21
-39.1572
0
LINE
8
BLACK
6
CONTINUOUS
10
88.9488
20
-39.1572
11
88.9489
21
-39.1529
0
LINE
8
BLACK
6
CONTINUOUS
10
88.9489
20
-39.1529
11
88.9489
21
-39.15
0
LINE
8
BLACK
6
CONTINUOUS
10
88.9489
20
-39.15
11
88.9489
21
-39.1499
0
LINE
8
BLACK
6
CONTINUOUS
10
88.9489
20
-39.1499
11
88.9489
21
-39.1499
0
LINE
8
BLACK
6
CONTINUOUS
10
88.9489
20
-39.1499
11
88.9491
21
-39.1473
0
LINE
8
BLACK
6
CONTINUOUS
10
88.9491
20
-39.1473
11
88.9496
21
-39.1426
0
LINE
8
BLACK
6
CONTINUOUS
10
88.9496
20
-39.1426
11
88.9496
21
-39.1426
0
LINE
8
BLACK
6
CONTINUOUS
10
88.9496
20
-39.1426
11
88.9723
21
-38.9176
0
LINE
8
BLACK
6
CONTINUOUS
10
88.9723
20
-38.9176
11
88.9723
21
-38.915
0
LINE
8
BLACK
6
CONTINUOUS
10
88.9723
20
-38.915
11
88.9733
21
-38.9103
0
LINE
8
BLACK
6
CONTINUOUS
10
88.9733
20
-38.9103
11
88.9742
21
-38.9056
0
LINE
8
BLACK
6
CONTINUOUS
10
88.9742
20
-38.9056
11
88.9752
21
-38.9032
0
LINE
8
BLACK
6
CONTINUOUS
10
88.9752
20
-38.9032
11
89.0409
21
-38.6915
0
LINE
8
BLACK
6
CONTINUOUS
10
89.0409
20
-38.6915
11
89.0414
21
-38.6891
0
LINE
8
BLACK
6
CONTINUOUS
10
89.0414
20
-38.6891
11
89.0423
21
-38.6869
0
LINE
8
BLACK
6
CONTINUOUS
10
89.0423
20
-38.6869
11
89.0423
21
-38.6869
0
LINE
8
BLACK
6
CONTINUOUS
10
89.0423
20
-38.6869
11
89.0452
21
-38.68
0
LINE
8
BLACK
6
CONTINUOUS
10
89.0452
20
-38.68
11
89.0466
21
-38.678
0
LINE
8
BLACK
6
CONTINUOUS
10
89.0466
20
-38.678
11
89.1504
21
-38.4867
0
LINE
8
BLACK
6
CONTINUOUS
10
89.1504
20
-38.4867
11
89.1513
21
-38.4845
0
LINE
8
BLACK
6
CONTINUOUS
10
89.1513
20
-38.4845
11
89.1528
21
-38.4824
0
LINE
8
BLACK
6
CONTINUOUS
10
89.1528
20
-38.4824
11
89.1528
21
-38.4823
0
LINE
8
BLACK
6
CONTINUOUS
10
89.1528
20
-38.4823
11
89.1543
21
-38.4802
0
LINE
8
BLACK
6
CONTINUOUS
10
89.1543
20
-38.4802
11
89.1555
21
-38.4784
0
LINE
8
BLACK
6
CONTINUOUS
10
89.1555
20
-38.4784
11
89.1555
21
-38.4783
0
LINE
8
BLACK
6
CONTINUOUS
10
89.1555
20
-38.4783
11
89.157
21
-38.4762
0
LINE
8
BLACK
6
CONTINUOUS
10
89.157
20
-38.4762
11
89.1586
21
-38.4745
0
LINE
8
BLACK
6
CONTINUOUS
10
89.1586
20
-38.4745
11
89.2961
21
-38.308
0
LINE
8
BLACK
6
CONTINUOUS
10
89.2961
20
-38.308
11
89.2973
21
-38.3061
0
LINE
8
BLACK
6
CONTINUOUS
10
89.2973
20
-38.3061
11
89.2992
21
-38.3042
0
LINE
8
BLACK
6
CONTINUOUS
10
89.2992
20
-38.3042
11
89.2992
21
-38.3041
0
LINE
8
BLACK
6
CONTINUOUS
10
89.2992
20
-38.3041
11
89.301
21
-38.3024
0
LINE
8
BLACK
6
CONTINUOUS
10
89.301
20
-38.3024
11
89.3025
21
-38.3008
0
LINE
8
BLACK
6
CONTINUOUS
10
89.3025
20
-38.3008
11
89.3026
21
-38.3007
0
LINE
8
BLACK
6
CONTINUOUS
10
89.3026
20
-38.3007
11
89.3045
21
-38.2989
0
LINE
8
BLACK
6
CONTINUOUS
10
89.3045
20
-38.2989
11
89.3064
21
-38.2976
0
LINE
8
BLACK
6
CONTINUOUS
10
89.3064
20
-38.2976
11
89.473
21
-38.1602
0
LINE
8
BLACK
6
CONTINUOUS
10
89.473
20
-38.1602
11
89.4746
21
-38.1585
0
LINE
8
BLACK
6
CONTINUOUS
10
89.4746
20
-38.1585
11
89.4767
21
-38.1571
0
LINE
8
BLACK
6
CONTINUOUS
10
89.4767
20
-38.1571
11
89.4768
21
-38.157
0
LINE
8
BLACK
6
CONTINUOUS
10
89.4768
20
-38.157
11
89.4789
21
-38.1557
0
LINE
8
BLACK
6
CONTINUOUS
10
89.4789
20
-38.1557
11
89.4807
21
-38.1544
0
LINE
8
BLACK
6
CONTINUOUS
10
89.4807
20
-38.1544
11
89.4808
21
-38.1543
0
LINE
8
BLACK
6
CONTINUOUS
10
89.4808
20
-38.1543
11
89.483
21
-38.1529
0
LINE
8
BLACK
6
CONTINUOUS
10
89.483
20
-38.1529
11
89.4851
21
-38.152
0
LINE
8
BLACK
6
CONTINUOUS
10
89.4851
20
-38.152
11
89.6764
21
-38.0482
0
LINE
8
BLACK
6
CONTINUOUS
10
89.6764
20
-38.0482
11
89.6785
21
-38.0468
0
LINE
8
BLACK
6
CONTINUOUS
10
89.6785
20
-38.0468
11
89.6853
21
-38.0439
0
LINE
8
BLACK
6
CONTINUOUS
10
89.6853
20
-38.0439
11
89.6875
21
-38.043
0
LINE
8
BLACK
6
CONTINUOUS
10
89.6875
20
-38.043
11
89.69
21
-38.0425
0
LINE
8
BLACK
6
CONTINUOUS
10
89.69
20
-38.0425
11
89.9016
21
-37.9768
0
LINE
8
BLACK
6
CONTINUOUS
10
89.9016
20
-37.9768
11
89.904
21
-37.9758
0
LINE
8
BLACK
6
CONTINUOUS
10
89.904
20
-37.9758
11
89.9088
21
-37.9748
0
LINE
8
BLACK
6
CONTINUOUS
10
89.9088
20
-37.9748
11
89.9134
21
-37.9738
0
LINE
8
BLACK
6
CONTINUOUS
10
89.9134
20
-37.9738
11
89.916
21
-37.9738
0
LINE
8
BLACK
6
CONTINUOUS
10
89.916
20
-37.9738
11
90.1449
21
-37.9507
0
LINE
8
BLACK
6
CONTINUOUS
10
90.1449
20
-37.9507
11
90.1465
21
-37.9505
0
LINE
8
BLACK
6
CONTINUOUS
10
90.1465
20
-37.9505
11
90.1474
21
-37.9505
0
LINE
8
BLACK
6
CONTINUOUS
10
90.1474
20
-37.9505
11
90.1483
21
-37.9504
0
LINE
8
BLACK
6
CONTINUOUS
10
90.1483
20
-37.9504
11
90.1498
21
-37.9504
0
LINE
8
BLACK
6
CONTINUOUS
10
90.1498
20
-37.9504
11
149.722
21
-35.6251
0
LINE
8
BLACK
6
CONTINUOUS
10
149.722
20
-35.6251
11
149.723
21
-35.625
0
LINE
8
BLACK
6
CONTINUOUS
10
149.723
20
-35.625
11
149.724
21
-35.625
0
LINE
8
BLACK
6
CONTINUOUS
10
149.724
20
-35.625
11
149.725
21
-35.6249
0
LINE
8
BLACK
6
CONTINUOUS
10
149.725
20
-35.6249
11
149.726
21
-35.625
0
LINE
8
BLACK
6
CONTINUOUS
10
149.726
20
-35.625
11
171.672
21
-35.625
0
LINE
8
BLACK
6
CONTINUOUS
10
171.672
20
-35.625
11
171.673
21
-35.6248
0
LINE
8
BLACK
6
CONTINUOUS
10
171.673
20
-35.6248
11
171.676
21
-35.625
0
LINE
8
BLACK
6
CONTINUOUS
10
149.726
20
-35.725
11
90.1543
21
-38.0503
0
LINE
8
BLACK
6
CONTINUOUS
10
90.1543
20
-38.0503
11
89.9287
21
-38.0731
0
LINE
8
BLACK
6
CONTINUOUS
10
89.9287
20
-38.0731
11
89.722
21
-38.1372
0
LINE
8
BLACK
6
CONTINUOUS
10
89.722
20
-38.1372
11
89.5349
21
-38.2388
0
LINE
8
BLACK
6
CONTINUOUS
10
89.5349
20
-38.2388
11
89.3718
21
-38.3733
0
LINE
8
BLACK
6
CONTINUOUS
10
89.3718
20
-38.3733
11
89.2372
21
-38.5364
0
LINE
8
BLACK
6
CONTINUOUS
10
89.2372
20
-38.5364
11
89.1357
21
-38.7235
0
LINE
8
BLACK
6
CONTINUOUS
10
89.1357
20
-38.7235
11
89.0715
21
-38.9303
0
LINE
8
BLACK
6
CONTINUOUS
10
89.0715
20
-38.9303
11
89.0489
21
-39.155
0
LINE
8
BLACK
6
CONTINUOUS
10
89.0489
20
-39.155
11
89.0503
21
-115.071
0
LINE
8
BLACK
6
CONTINUOUS
10
89.0503
20
-115.071
11
89.0503
21
-115.071
0
LINE
8
BLACK
6
CONTINUOUS
10
89.0503
20
-115.071
11
89.0503
21
-115.075
0
LINE
8
BLACK
6
CONTINUOUS
10
89.0503
20
-115.075
11
89.0503
21
-115.077
0
LINE
8
BLACK
6
CONTINUOUS
10
89.0503
20
-115.077
11
89.0502
21
-115.078
0
LINE
8
BLACK
6
CONTINUOUS
10
89.0502
20
-115.078
11
89.0502
21
-115.078
0
LINE
8
BLACK
6
CONTINUOUS
10
89.0502
20
-115.078
11
89.05
21
-115.08
0
LINE
8
BLACK
6
CONTINUOUS
10
89.05
20
-115.08
11
89.0495
21
-115.085
0
LINE
8
BLACK
6
CONTINUOUS
10
89.0495
20
-115.085
11
89.0494
21
-115.085
0
LINE
8
BLACK
6
CONTINUOUS
10
89.0494
20
-115.085
11
88.9749
21
-115.729
0
LINE
8
BLACK
6
CONTINUOUS
10
88.9749
20
-115.729
11
88.9748
21
-115.731
0
LINE
8
BLACK
6
CONTINUOUS
10
88.9748
20
-115.731
11
88.9738
21
-115.736
0
LINE
8
BLACK
6
CONTINUOUS
10
88.9738
20
-115.736
11
88.9728
21
-115.74
0
LINE
8
BLACK
6
CONTINUOUS
10
88.9728
20
-115.74
11
88.9717
21
-115.743
0
LINE
8
BLACK
6
CONTINUOUS
10
88.9717
20
-115.743
11
88.7734
21
-116.338
0
LINE
8
BLACK
6
CONTINUOUS
10
88.7734
20
-116.338
11
88.773
21
-116.34
0
LINE
8
BLACK
6
CONTINUOUS
10
88.773
20
-116.34
11
88.7718
21
-116.343
0
LINE
8
BLACK
6
CONTINUOUS
10
88.7718
20
-116.343
11
88.7717
21
-116.343
0
LINE
8
BLACK
6
CONTINUOUS
10
88.7717
20
-116.343
11
88.7709
21
-116.345
0
LINE
8
BLACK
6
CONTINUOUS
10
88.7709
20
-116.345
11
88.7702
21
-116.347
0
LINE
8
BLACK
6
CONTINUOUS
10
88.7702
20
-116.347
11
88.7699
21
-116.347
0
LINE
8
BLACK
6
CONTINUOUS
10
88.7699
20
-116.347
11
88.7686
21
-116.35
0
LINE
8
BLACK
6
CONTINUOUS
10
88.7686
20
-116.35
11
88.7676
21
-116.351
0
LINE
8
BLACK
6
CONTINUOUS
10
88.7676
20
-116.351
11
82.9726
21
-127.092
0
LINE
8
BLACK
6
CONTINUOUS
10
82.9726
20
-127.092
11
82.875
21
-127.58
0
LINE
8
BLACK
6
CONTINUOUS
10
82.875
20
-127.58
11
82.875
21
-127.973
0
LINE
8
BLACK
6
CONTINUOUS
10
82.875
20
-127.973
11
82.9244
21
-128.566
0
LINE
8
BLACK
6
CONTINUOUS
10
82.9244
20
-128.566
11
83.0712
21
-129.055
0
LINE
8
BLACK
6
CONTINUOUS
10
83.0712
20
-129.055
11
93.3141
21
-146.843
0
LINE
8
BLACK
6
CONTINUOUS
10
93.3141
20
-146.843
11
93.6501
21
-147.131
0
LINE
8
BLACK
6
CONTINUOUS
10
93.6501
20
-147.131
11
94.0874
21
-147.276
0
LINE
8
BLACK
6
CONTINUOUS
10
94.0874
20
-147.276
11
94.6224
21
-147.374
0
LINE
8
BLACK
6
CONTINUOUS
10
94.6224
20
-147.374
11
138.865
21
-134.627
0
LINE
8
BLACK
6
CONTINUOUS
10
138.865
20
-134.627
11
138.869
21
-134.626
0
LINE
8
BLACK
6
CONTINUOUS
10
138.869
20
-134.626
11
138.872
21
-134.625
0
LINE
8
BLACK
6
CONTINUOUS
10
138.872
20
-134.625
11
138.875
21
-134.625
0
LINE
8
BLACK
6
CONTINUOUS
10
138.875
20
-134.625
11
138.879
21
-134.625
0
LINE
8
BLACK
6
CONTINUOUS
10
138.879
20
-134.625
11
188.169
21
-134.625
0
LINE
8
BLACK
6
CONTINUOUS
10
188.169
20
-134.625
11
188.173
21
-134.62
0
LINE
8
BLACK
6
CONTINUOUS
10
188.173
20
-134.62
11
188.185
21
-134.611
0
LINE
8
BLACK
6
CONTINUOUS
10
188.185
20
-134.611
11
188.195
21
-134.606
0
LINE
8
BLACK
6
CONTINUOUS
10
188.195
20
-134.606
11
226.145
21
-120.114
0
LINE
8
BLACK
6
CONTINUOUS
10
226.145
20
-120.114
11
226.118
21
-45.2592
0
LINE
8
BLACK
6
CONTINUOUS
10
226.118
20
-45.2592
11
226.1
21
-45.0586
0
LINE
8
BLACK
6
CONTINUOUS
10
226.1
20
-45.0586
11
226.048
21
-44.8712
0
LINE
8
BLACK
6
CONTINUOUS
10
226.048
20
-44.8712
11
225.966
21
-44.6983
0
LINE
8
BLACK
6
CONTINUOUS
10
225.966
20
-44.6983
11
225.855
21
-44.5431
0
LINE
8
BLACK
6
CONTINUOUS
10
225.855
20
-44.5431
11
225.72
21
-44.4092
0
LINE
8
BLACK
6
CONTINUOUS
10
225.72
20
-44.4092
11
225.562
21
-44.3001
0
LINE
8
BLACK
6
CONTINUOUS
10
225.562
20
-44.3001
11
225.385
21
-44.2191
0
LINE
8
BLACK
6
CONTINUOUS
10
225.385
20
-44.2191
11
225.19
21
-44.1692
0
LINE
8
BLACK
6
CONTINUOUS
10
225.19
20
-44.1692
11
171.671
21
-35.725
0
LINE
8
BLACK
6
CONTINUOUS
10
171.671
20
-35.725
11
149.726
21
-35.725
0
LINE
8
BLACK
6
CONTINUOUS
10
95.5471
20
-132.587
11
95.7248
21
-132.158
0
LINE
8
BLACK
6
CONTINUOUS
10
95.7248
20
-132.158
11
95.983
21
-131.771
0
LINE
8
BLACK
6
CONTINUOUS
10
95.983
20
-131.771
11
96.3115
21
-131.443
0
LINE
8
BLACK
6
CONTINUOUS
10
96.3115
20
-131.443
11
96.6978
21
-131.185
0
LINE
8
BLACK
6
CONTINUOUS
10
96.6978
20
-131.185
11
97.127
21
-131.007
0
LINE
8
BLACK
6
CONTINUOUS
10
97.127
20
-131.007
11
97.5827
21
-130.916
0
LINE
8
BLACK
6
CONTINUOUS
10
97.5827
20
-130.916
11
98.0473
21
-130.916
0
LINE
8
BLACK
6
CONTINUOUS
10
98.0473
20
-130.916
11
98.503
21
-131.007
0
LINE
8
BLACK
6
CONTINUOUS
10
98.503
20
-131.007
11
98.9322
21
-131.185
0
LINE
8
BLACK
6
CONTINUOUS
10
98.9322
20
-131.185
11
99.3185
21
-131.443
0
LINE
8
BLACK
6
CONTINUOUS
10
99.3185
20
-131.443
11
99.647
21
-131.771
0
LINE
8
BLACK
6
CONTINUOUS
10
99.647
20
-131.771
11
99.9052
21
-132.158
0
LINE
8
BLACK
6
CONTINUOUS
10
99.9052
20
-132.158
11
100.083
21
-132.587
0
LINE
8
BLACK
6
CONTINUOUS
10
100.083
20
-132.587
11
100.174
21
-133.043
0
LINE
8
BLACK
6
CONTINUOUS
10
100.174
20
-133.043
11
100.174
21
-133.507
0
LINE
8
BLACK
6
CONTINUOUS
10
100.174
20
-133.507
11
100.083
21
-133.963
0
LINE
8
BLACK
6
CONTINUOUS
10
100.083
20
-133.963
11
99.9052
21
-134.392
0
LINE
8
BLACK
6
CONTINUOUS
10
99.9052
20
-134.392
11
99.647
21
-134.779
0
LINE
8
BLACK
6
CONTINUOUS
10
99.647
20
-134.779
11
99.3185
21
-135.107
0
LINE
8
BLACK
6
CONTINUOUS
10
99.3185
20
-135.107
11
98.9322
21
-135.365
0
LINE
8
BLACK
6
CONTINUOUS
10
98.9322
20
-135.365
11
98.503
21
-135.543
0
LINE
8
BLACK
6
CONTINUOUS
10
98.503
20
-135.543
11
98.0473
21
-135.634
0
LINE
8
BLACK
6
CONTINUOUS
10
98.0473
20
-135.634
11
97.5827
21
-135.634
0
LINE
8
BLACK
6
CONTINUOUS
10
97.5827
20
-135.634
11
97.127
21
-135.543
0
LINE
8
BLACK
6
CONTINUOUS
10
97.127
20
-135.543
11
96.6978
21
-135.365
0
LINE
8
BLACK
6
CONTINUOUS
10
96.6978
20
-135.365
11
96.3115
21
-135.107
0
LINE
8
BLACK
6
CONTINUOUS
10
96.3115
20
-135.107
11
95.983
21
-134.779
0
LINE
8
BLACK
6
CONTINUOUS
10
95.983
20
-134.779
11
95.7248
21
-134.392
0
LINE
8
BLACK
6
CONTINUOUS
10
95.7248
20
-134.392
11
95.5471
21
-133.963
0
LINE
8
BLACK
6
CONTINUOUS
10
95.5471
20
-133.963
11
95.4564
21
-133.507
0
LINE
8
BLACK
6
CONTINUOUS
10
95.4564
20
-133.507
11
95.4564
21
-133.043
0
LINE
8
BLACK
6
CONTINUOUS
10
95.4564
20
-133.043
11
95.5471
21
-132.587
0
LINE
8
BLACK
6
CONTINUOUS
10
95.8533
20
-133.87
11
96.0071
21
-134.241
0
LINE
8
BLACK
6
CONTINUOUS
10
96.0071
20
-134.241
11
96.2303
21
-134.576
0
LINE
8
BLACK
6
CONTINUOUS
10
96.2303
20
-134.576
11
96.5145
21
-134.86
0
LINE
8
BLACK
6
CONTINUOUS
10
96.5145
20
-134.86
11
96.8486
21
-135.083
0
LINE
8
BLACK
6
CONTINUOUS
10
96.8486
20
-135.083
11
97.2199
21
-135.237
0
LINE
8
BLACK
6
CONTINUOUS
10
97.2199
20
-135.237
11
97.6141
21
-135.315
0
LINE
8
BLACK
6
CONTINUOUS
10
97.6141
20
-135.315
11
98.0159
21
-135.315
0
LINE
8
BLACK
6
CONTINUOUS
10
98.0159
20
-135.315
11
98.4101
21
-135.237
0
LINE
8
BLACK
6
CONTINUOUS
10
98.4101
20
-135.237
11
98.7814
21
-135.083
0
LINE
8
BLACK
6
CONTINUOUS
10
98.7814
20
-135.083
11
99.1155
21
-134.86
0
LINE
8
BLACK
6
CONTINUOUS
10
99.1155
20
-134.86
11
99.3997
21
-134.576
0
LINE
8
BLACK
6
CONTINUOUS
10
99.3997
20
-134.576
11
99.6229
21
-134.241
0
LINE
8
BLACK
6
CONTINUOUS
10
99.6229
20
-134.241
11
99.7767
21
-133.87
0
LINE
8
BLACK
6
CONTINUOUS
10
99.7767
20
-133.87
11
99.8551
21
-133.476
0
LINE
8
BLACK
6
CONTINUOUS
10
99.8551
20
-133.476
11
99.8551
21
-133.074
0
LINE
8
BLACK
6
CONTINUOUS
10
99.8551
20
-133.074
11
99.7767
21
-132.68
0
LINE
8
BLACK
6
CONTINUOUS
10
99.7767
20
-132.68
11
99.6229
21
-132.309
0
LINE
8
BLACK
6
CONTINUOUS
10
99.6229
20
-132.309
11
99.3997
21
-131.974
0
LINE
8
BLACK
6
CONTINUOUS
10
99.3997
20
-131.974
11
99.1155
21
-131.69
0
LINE
8
BLACK
6
CONTINUOUS
10
99.1155
20
-131.69
11
98.7814
21
-131.467
0
LINE
8
BLACK
6
CONTINUOUS
10
98.7814
20
-131.467
11
98.4101
21
-131.313
0
LINE
8
BLACK
6
CONTINUOUS
10
98.4101
20
-131.313
11
98.0159
21
-131.235
0
LINE
8
BLACK
6
CONTINUOUS
10
98.0159
20
-131.235
11
97.6141
21
-131.235
0
LINE
8
BLACK
6
CONTINUOUS
10
97.6141
20
-131.235
11
97.2199
21
-131.313
0
LINE
8
BLACK
6
CONTINUOUS
10
97.2199
20
-131.313
11
96.8486
21
-131.467
0
LINE
8
BLACK
6
CONTINUOUS
10
96.8486
20
-131.467
11
96.5145
21
-131.69
0
LINE
8
BLACK
6
CONTINUOUS
10
96.5145
20
-131.69
11
96.2303
21
-131.974
0
LINE
8
BLACK
6
CONTINUOUS
10
96.2303
20
-131.974
11
96.0071
21
-132.309
0
LINE
8
BLACK
6
CONTINUOUS
10
96.0071
20
-132.309
11
95.8533
21
-132.68
0
LINE
8
BLACK
6
CONTINUOUS
10
95.8533
20
-132.68
11
95.7749
21
-133.074
0
LINE
8
BLACK
6
CONTINUOUS
10
95.7749
20
-133.074
11
95.7749
21
-133.476
0
LINE
8
BLACK
6
CONTINUOUS
10
95.7749
20
-133.476
11
95.8533
21
-133.87
0
LINE
8
BLACK
6
CONTINUOUS
10
101.457
20
-118.987
11
101.635
21
-118.558
0
LINE
8
BLACK
6
CONTINUOUS
10
101.635
20
-118.558
11
101.893
21
-118.171
0
LINE
8
BLACK
6
CONTINUOUS
10
101.893
20
-118.171
11
102.221
21
-117.843
0
LINE
8
BLACK
6
CONTINUOUS
10
102.221
20
-117.843
11
102.608
21
-117.585
0
LINE
8
BLACK
6
CONTINUOUS
10
102.608
20
-117.585
11
103.037
21
-117.407
0
LINE
8
BLACK
6
CONTINUOUS
10
103.037
20
-117.407
11
103.493
21
-117.316
0
LINE
8
BLACK
6
CONTINUOUS
10
103.493
20
-117.316
11
103.957
21
-117.316
0
LINE
8
BLACK
6
CONTINUOUS
10
103.957
20
-117.316
11
104.413
21
-117.407
0
LINE
8
BLACK
6
CONTINUOUS
10
104.413
20
-117.407
11
104.842
21
-117.585
0
LINE
8
BLACK
6
CONTINUOUS
10
104.842
20
-117.585
11
105.229
21
-117.843
0
LINE
8
BLACK
6
CONTINUOUS
10
105.229
20
-117.843
11
105.557
21
-118.171
0
LINE
8
BLACK
6
CONTINUOUS
10
105.557
20
-118.171
11
105.815
21
-118.558
0
LINE
8
BLACK
6
CONTINUOUS
10
105.815
20
-118.558
11
105.993
21
-118.987
0
LINE
8
BLACK
6
CONTINUOUS
10
105.993
20
-118.987
11
106.084
21
-119.443
0
LINE
8
BLACK
6
CONTINUOUS
10
106.084
20
-119.443
11
106.084
21
-119.907
0
LINE
8
BLACK
6
CONTINUOUS
10
106.084
20
-119.907
11
105.993
21
-120.363
0
LINE
8
BLACK
6
CONTINUOUS
10
105.993
20
-120.363
11
105.815
21
-120.792
0
LINE
8
BLACK
6
CONTINUOUS
10
105.815
20
-120.792
11
105.557
21
-121.179
0
LINE
8
BLACK
6
CONTINUOUS
10
105.557
20
-121.179
11
105.229
21
-121.507
0
LINE
8
BLACK
6
CONTINUOUS
10
105.229
20
-121.507
11
104.842
21
-121.765
0
LINE
8
BLACK
6
CONTINUOUS
10
104.842
20
-121.765
11
104.413
21
-121.943
0
LINE
8
BLACK
6
CONTINUOUS
10
104.413
20
-121.943
11
103.957
21
-122.034
0
LINE
8
BLACK
6
CONTINUOUS
10
103.957
20
-122.034
11
103.493
21
-122.034
0
LINE
8
BLACK
6
CONTINUOUS
10
103.493
20
-122.034
11
103.037
21
-121.943
0
LINE
8
BLACK
6
CONTINUOUS
10
103.037
20
-121.943
11
102.608
21
-121.765
0
LINE
8
BLACK
6
CONTINUOUS
10
102.608
20
-121.765
11
102.221
21
-121.507
0
LINE
8
BLACK
6
CONTINUOUS
10
102.221
20
-121.507
11
101.893
21
-121.179
0
LINE
8
BLACK
6
CONTINUOUS
10
101.893
20
-121.179
11
101.635
21
-120.792
0
LINE
8
BLACK
6
CONTINUOUS
10
101.635
20
-120.792
11
101.457
21
-120.363
0
LINE
8
BLACK
6
CONTINUOUS
10
101.457
20
-120.363
11
101.366
21
-119.907
0
LINE
8
BLACK
6
CONTINUOUS
10
101.366
20
-119.907
11
101.366
21
-119.443
0
LINE
8
BLACK
6
CONTINUOUS
10
101.366
20
-119.443
11
101.457
21
-118.987
0
LINE
8
BLACK
6
CONTINUOUS
10
101.763
20
-120.27
11
101.917
21
-120.641
0
LINE
8
BLACK
6
CONTINUOUS
10
101.917
20
-120.641
11
102.14
21
-120.976
0
LINE
8
BLACK
6
CONTINUOUS
10
102.14
20
-120.976
11
102.424
21
-121.26
0
LINE
8
BLACK
6
CONTINUOUS
10
102.424
20
-121.26
11
102.759
21
-121.483
0
LINE
8
BLACK
6
CONTINUOUS
10
102.759
20
-121.483
11
103.13
21
-121.637
0
LINE
8
BLACK
6
CONTINUOUS
10
103.13
20
-121.637
11
103.524
21
-121.715
0
LINE
8
BLACK
6
CONTINUOUS
10
103.524
20
-121.715
11
103.926
21
-121.715
0
LINE
8
BLACK
6
CONTINUOUS
10
103.926
20
-121.715
11
104.32
21
-121.637
0
LINE
8
BLACK
6
CONTINUOUS
10
104.32
20
-121.637
11
104.691
21
-121.483
0
LINE
8
BLACK
6
CONTINUOUS
10
104.691
20
-121.483
11
105.026
21
-121.26
0
LINE
8
BLACK
6
CONTINUOUS
10
105.026
20
-121.26
11
105.31
21
-120.976
0
LINE
8
BLACK
6
CONTINUOUS
10
105.31
20
-120.976
11
105.533
21
-120.641
0
LINE
8
BLACK
6
CONTINUOUS
10
105.533
20
-120.641
11
105.687
21
-120.27
0
LINE
8
BLACK
6
CONTINUOUS
10
105.687
20
-120.27
11
105.765
21
-119.876
0
LINE
8
BLACK
6
CONTINUOUS
10
105.765
20
-119.876
11
105.765
21
-119.474
0
LINE
8
BLACK
6
CONTINUOUS
10
105.765
20
-119.474
11
105.687
21
-119.08
0
LINE
8
BLACK
6
CONTINUOUS
10
105.687
20
-119.08
11
105.533
21
-118.709
0
LINE
8
BLACK
6
CONTINUOUS
10
105.533
20
-118.709
11
105.31
21
-118.374
0
LINE
8
BLACK
6
CONTINUOUS
10
105.31
20
-118.374
11
105.026
21
-118.09
0
LINE
8
BLACK
6
CONTINUOUS
10
105.026
20
-118.09
11
104.691
21
-117.867
0
LINE
8
BLACK
6
CONTINUOUS
10
104.691
20
-117.867
11
104.32
21
-117.713
0
LINE
8
BLACK
6
CONTINUOUS
10
104.32
20
-117.713
11
103.926
21
-117.635
0
LINE
8
BLACK
6
CONTINUOUS
10
103.926
20
-117.635
11
103.524
21
-117.635
0
LINE
8
BLACK
6
CONTINUOUS
10
103.524
20
-117.635
11
103.13
21
-117.713
0
LINE
8
BLACK
6
CONTINUOUS
10
103.13
20
-117.713
11
102.759
21
-117.867
0
LINE
8
BLACK
6
CONTINUOUS
10
102.759
20
-117.867
11
102.424
21
-118.09
0
LINE
8
BLACK
6
CONTINUOUS
10
102.424
20
-118.09
11
102.14
21
-118.374
0
LINE
8
BLACK
6
CONTINUOUS
10
102.14
20
-118.374
11
101.917
21
-118.709
0
LINE
8
BLACK
6
CONTINUOUS
10
101.917
20
-118.709
11
101.763
21
-119.08
0
LINE
8
BLACK
6
CONTINUOUS
10
101.763
20
-119.08
11
101.685
21
-119.474
0
LINE
8
BLACK
6
CONTINUOUS
10
101.685
20
-119.474
11
101.685
21
-119.876
0
LINE
8
BLACK
6
CONTINUOUS
10
101.685
20
-119.876
11
101.763
21
-120.27
0
LINE
8
BLACK
6
CONTINUOUS
10
213.657
20
-113.537
11
213.835
21
-113.108
0
LINE
8
BLACK
6
CONTINUOUS
10
213.835
20
-113.108
11
214.093
21
-112.721
0
LINE
8
BLACK
6
CONTINUOUS
10
214.093
20
-112.721
11
214.421
21
-112.393
0
LINE
8
BLACK
6
CONTINUOUS
10
214.421
20
-112.393
11
214.808
21
-112.135
0
LINE
8
BLACK
6
CONTINUOUS
10
214.808
20
-112.135
11
215.237
21
-111.957
0
LINE
8
BLACK
6
CONTINUOUS
10
215.237
20
-111.957
11
215.693
21
-111.866
0
LINE
8
BLACK
6
CONTINUOUS
10
215.693
20
-111.866
11
216.157
21
-111.866
0
LINE
8
BLACK
6
CONTINUOUS
10
216.157
20
-111.866
11
216.613
21
-111.957
0
LINE
8
BLACK
6
CONTINUOUS
10
216.613
20
-111.957
11
217.042
21
-112.135
0
LINE
8
BLACK
6
CONTINUOUS
10
217.042
20
-112.135
11
217.429
21
-112.393
0
LINE
8
BLACK
6
CONTINUOUS
10
217.429
20
-112.393
11
217.757
21
-112.721
0
LINE
8
BLACK
6
CONTINUOUS
10
217.757
20
-112.721
11
218.015
21
-113.108
0
LINE
8
BLACK
6
CONTINUOUS
10
218.015
20
-113.108
11
218.193
21
-113.537
0
LINE
8
BLACK
6
CONTINUOUS
10
218.193
20
-113.537
11
218.284
21
-113.993
0
LINE
8
BLACK
6
CONTINUOUS
10
218.284
20
-113.993
11
218.284
21
-114.457
0
LINE
8
BLACK
6
CONTINUOUS
10
218.284
20
-114.457
11
218.193
21
-114.913
0
LINE
8
BLACK
6
CONTINUOUS
10
218.193
20
-114.913
11
218.015
21
-115.342
0
LINE
8
BLACK
6
CONTINUOUS
10
218.015
20
-115.342
11
217.757
21
-115.729
0
LINE
8
BLACK
6
CONTINUOUS
10
217.757
20
-115.729
11
217.429
21
-116.057
0
LINE
8
BLACK
6
CONTINUOUS
10
217.429
20
-116.057
11
217.042
21
-116.315
0
LINE
8
BLACK
6
CONTINUOUS
10
217.042
20
-116.315
11
216.613
21
-116.493
0
LINE
8
BLACK
6
CONTINUOUS
10
216.613
20
-116.493
11
216.157
21
-116.584
0
LINE
8
BLACK
6
CONTINUOUS
10
216.157
20
-116.584
11
215.693
21
-116.584
0
LINE
8
BLACK
6
CONTINUOUS
10
215.693
20
-116.584
11
215.237
21
-116.493
0
LINE
8
BLACK
6
CONTINUOUS
10
215.237
20
-116.493
11
214.808
21
-116.315
0
LINE
8
BLACK
6
CONTINUOUS
10
214.808
20
-116.315
11
214.421
21
-116.057
0
LINE
8
BLACK
6
CONTINUOUS
10
214.421
20
-116.057
11
214.093
21
-115.729
0
LINE
8
BLACK
6
CONTINUOUS
10
214.093
20
-115.729
11
213.835
21
-115.342
0
LINE
8
BLACK
6
CONTINUOUS
10
213.835
20
-115.342
11
213.657
21
-114.913
0
LINE
8
BLACK
6
CONTINUOUS
10
213.657
20
-114.913
11
213.566
21
-114.457
0
LINE
8
BLACK
6
CONTINUOUS
10
213.566
20
-114.457
11
213.566
21
-113.993
0
LINE
8
BLACK
6
CONTINUOUS
10
213.566
20
-113.993
11
213.657
21
-113.537
0
LINE
8
BLACK
6
CONTINUOUS
10
213.963
20
-114.82
11
214.117
21
-115.191
0
LINE
8
BLACK
6
CONTINUOUS
10
214.117
20
-115.191
11
214.34
21
-115.526
0
LINE
8
BLACK
6
CONTINUOUS
10
214.34
20
-115.526
11
214.624
21
-115.81
0
LINE
8
BLACK
6
CONTINUOUS
10
214.624
20
-115.81
11
214.959
21
-116.033
0
LINE
8
BLACK
6
CONTINUOUS
10
214.959
20
-116.033
11
215.33
21
-116.187
0
LINE
8
BLACK
6
CONTINUOUS
10
215.33
20
-116.187
11
215.724
21
-116.265
0
LINE
8
BLACK
6
CONTINUOUS
10
215.724
20
-116.265
11
216.126
21
-116.265
0
LINE
8
BLACK
6
CONTINUOUS
10
216.126
20
-116.265
11
216.52
21
-116.187
0
LINE
8
BLACK
6
CONTINUOUS
10
216.52
20
-116.187
11
216.891
21
-116.033
0
LINE
8
BLACK
6
CONTINUOUS
10
216.891
20
-116.033
11
217.226
21
-115.81
0
LINE
8
BLACK
6
CONTINUOUS
10
217.226
20
-115.81
11
217.51
21
-115.526
0
LINE
8
BLACK
6
CONTINUOUS
10
217.51
20
-115.526
11
217.733
21
-115.191
0
LINE
8
BLACK
6
CONTINUOUS
10
217.733
20
-115.191
11
217.887
21
-114.82
0
LINE
8
BLACK
6
CONTINUOUS
10
217.887
20
-114.82
11
217.965
21
-114.426
0
LINE
8
BLACK
6
CONTINUOUS
10
217.965
20
-114.426
11
217.965
21
-114.024
0
LINE
8
BLACK
6
CONTINUOUS
10
217.965
20
-114.024
11
217.887
21
-113.63
0
LINE
8
BLACK
6
CONTINUOUS
10
217.887
20
-113.63
11
217.733
21
-113.259
0
LINE
8
BLACK
6
CONTINUOUS
10
217.733
20
-113.259
11
217.51
21
-112.924
0
LINE
8
BLACK
6
CONTINUOUS
10
217.51
20
-112.924
11
217.226
21
-112.64
0
LINE
8
BLACK
6
CONTINUOUS
10
217.226
20
-112.64
11
216.891
21
-112.417
0
LINE
8
BLACK
6
CONTINUOUS
10
216.891
20
-112.417
11
216.52
21
-112.263
0
LINE
8
BLACK
6
CONTINUOUS
10
216.52
20
-112.263
11
216.126
21
-112.185
0
LINE
8
BLACK
6
CONTINUOUS
10
216.126
20
-112.185
11
215.724
21
-112.185
0
LINE
8
BLACK
6
CONTINUOUS
10
215.724
20
-112.185
11
215.33
21
-112.263
0
LINE
8
BLACK
6
CONTINUOUS
10
215.33
20
-112.263
11
214.959
21
-112.417
0
LINE
8
BLACK
6
CONTINUOUS
10
214.959
20
-112.417
11
214.624
21
-112.64
0
LINE
8
BLACK
6
CONTINUOUS
10
214.624
20
-112.64
11
214.34
21
-112.924
0
LINE
8
BLACK
6
CONTINUOUS
10
214.34
20
-112.924
11
214.117
21
-113.259
0
LINE
8
BLACK
6
CONTINUOUS
10
214.117
20
-113.259
11
213.963
21
-113.63
0
LINE
8
BLACK
6
CONTINUOUS
10
213.963
20
-113.63
11
213.885
21
-114.024
0
LINE
8
BLACK
6
CONTINUOUS
10
213.885
20
-114.024
11
213.885
21
-114.426
0
LINE
8
BLACK
6
CONTINUOUS
10
213.885
20
-114.426
11
213.963
21
-114.82
0
LINE
8
BLACK
6
CONTINUOUS
10
204.457
20
-99.987
11
204.635
21
-99.5578
0
LINE
8
BLACK
6
CONTINUOUS
10
204.635
20
-99.5578
11
204.893
21
-99.1715
0
LINE
8
BLACK
6
CONTINUOUS
10
204.893
20
-99.1715
11
205.221
21
-98.843
0
LINE
8
BLACK
6
CONTINUOUS
10
205.221
20
-98.843
11
205.608
21
-98.5848
0
LINE
8
BLACK
6
CONTINUOUS
10
205.608
20
-98.5848
11
206.037
21
-98.4071
0
LINE
8
BLACK
6
CONTINUOUS
10
206.037
20
-98.4071
11
206.493
21
-98.3164
0
LINE
8
BLACK
6
CONTINUOUS
10
206.493
20
-98.3164
11
206.957
21
-98.3164
0
LINE
8
BLACK
6
CONTINUOUS
10
206.957
20
-98.3164
11
207.413
21
-98.4071
0
LINE
8
BLACK
6
CONTINUOUS
10
207.413
20
-98.4071
11
207.842
21
-98.5848
0
LINE
8
BLACK
6
CONTINUOUS
10
207.842
20
-98.5848
11
208.229
21
-98.843
0
LINE
8
BLACK
6
CONTINUOUS
10
208.229
20
-98.843
11
208.557
21
-99.1715
0
LINE
8
BLACK
6
CONTINUOUS
10
208.557
20
-99.1715
11
208.815
21
-99.5578
0
LINE
8
BLACK
6
CONTINUOUS
10
208.815
20
-99.5578
11
208.993
21
-99.987
0
LINE
8
BLACK
6
CONTINUOUS
10
208.993
20
-99.987
11
209.084
21
-100.443
0
LINE
8
BLACK
6
CONTINUOUS
10
209.084
20
-100.443
11
209.084
21
-100.907
0
LINE
8
BLACK
6
CONTINUOUS
10
209.084
20
-100.907
11
208.993
21
-101.363
0
LINE
8
BLACK
6
CONTINUOUS
10
208.993
20
-101.363
11
208.815
21
-101.792
0
LINE
8
BLACK
6
CONTINUOUS
10
208.815
20
-101.792
11
208.557
21
-102.179
0
LINE
8
BLACK
6
CONTINUOUS
10
208.557
20
-102.179
11
208.229
21
-102.507
0
LINE
8
BLACK
6
CONTINUOUS
10
208.229
20
-102.507
11
207.842
21
-102.765
0
LINE
8
BLACK
6
CONTINUOUS
10
207.842
20
-102.765
11
207.413
21
-102.943
0
LINE
8
BLACK
6
CONTINUOUS
10
207.413
20
-102.943
11
206.957
21
-103.034
0
LINE
8
BLACK
6
CONTINUOUS
10
206.957
20
-103.034
11
206.493
21
-103.034
0
LINE
8
BLACK
6
CONTINUOUS
10
206.493
20
-103.034
11
206.037
21
-102.943
0
LINE
8
BLACK
6
CONTINUOUS
10
206.037
20
-102.943
11
205.608
21
-102.765
0
LINE
8
BLACK
6
CONTINUOUS
10
205.608
20
-102.765
11
205.221
21
-102.507
0
LINE
8
BLACK
6
CONTINUOUS
10
205.221
20
-102.507
11
204.893
21
-102.179
0
LINE
8
BLACK
6
CONTINUOUS
10
204.893
20
-102.179
11
204.635
21
-101.792
0
LINE
8
BLACK
6
CONTINUOUS
10
204.635
20
-101.792
11
204.457
21
-101.363
0
LINE
8
BLACK
6
CONTINUOUS
10
204.457
20
-101.363
11
204.366
21
-100.907
0
LINE
8
BLACK
6
CONTINUOUS
10
204.366
20
-100.907
11
204.366
21
-100.443
0
LINE
8
BLACK
6
CONTINUOUS
10
204.366
20
-100.443
11
204.457
21
-99.987
0
LINE
8
BLACK
6
CONTINUOUS
10
204.763
20
-101.27
11
204.917
21
-101.641
0
LINE
8
BLACK
6
CONTINUOUS
10
204.917
20
-101.641
11
205.14
21
-101.976
0
LINE
8
BLACK
6
CONTINUOUS
10
205.14
20
-101.976
11
205.424
21
-102.26
0
LINE
8
BLACK
6
CONTINUOUS
10
205.424
20
-102.26
11
205.759
21
-102.483
0
LINE
8
BLACK
6
CONTINUOUS
10
205.759
20
-102.483
11
206.13
21
-102.637
0
LINE
8
BLACK
6
CONTINUOUS
10
206.13
20
-102.637
11
206.524
21
-102.715
0
LINE
8
BLACK
6
CONTINUOUS
10
206.524
20
-102.715
11
206.926
21
-102.715
0
LINE
8
BLACK
6
CONTINUOUS
10
206.926
20
-102.715
11
207.32
21
-102.637
0
LINE
8
BLACK
6
CONTINUOUS
10
207.32
20
-102.637
11
207.691
21
-102.483
0
LINE
8
BLACK
6
CONTINUOUS
10
207.691
20
-102.483
11
208.026
21
-102.26
0
LINE
8
BLACK
6
CONTINUOUS
10
208.026
20
-102.26
11
208.31
21
-101.976
0
LINE
8
BLACK
6
CONTINUOUS
10
208.31
20
-101.976
11
208.533
21
-101.641
0
LINE
8
BLACK
6
CONTINUOUS
10
208.533
20
-101.641
11
208.687
21
-101.27
0
LINE
8
BLACK
6
CONTINUOUS
10
208.687
20
-101.27
11
208.765
21
-100.876
0
LINE
8
BLACK
6
CONTINUOUS
10
208.765
20
-100.876
11
208.765
21
-100.474
0
LINE
8
BLACK
6
CONTINUOUS
10
208.765
20
-100.474
11
208.687
21
-100.08
0
LINE
8
BLACK
6
CONTINUOUS
10
208.687
20
-100.08
11
208.533
21
-99.7086
0
LINE
8
BLACK
6
CONTINUOUS
10
208.533
20
-99.7086
11
208.31
21
-99.3745
0
LINE
8
BLACK
6
CONTINUOUS
10
208.31
20
-99.3745
11
208.026
21
-99.0903
0
LINE
8
BLACK
6
CONTINUOUS
10
208.026
20
-99.0903
11
207.691
21
-98.8671
0
LINE
8
BLACK
6
CONTINUOUS
10
207.691
20
-98.8671
11
207.32
21
-98.7133
0
LINE
8
BLACK
6
CONTINUOUS
10
207.32
20
-98.7133
11
206.926
21
-98.6349
0
LINE
8
BLACK
6
CONTINUOUS
10
206.926
20
-98.6349
11
206.524
21
-98.6349
0
LINE
8
BLACK
6
CONTINUOUS
10
206.524
20
-98.6349
11
206.13
21
-98.7133
0
LINE
8
BLACK
6
CONTINUOUS
10
206.13
20
-98.7133
11
205.759
21
-98.8671
0
LINE
8
BLACK
6
CONTINUOUS
10
205.759
20
-98.8671
11
205.424
21
-99.0903
0
LINE
8
BLACK
6
CONTINUOUS
10
205.424
20
-99.0903
11
205.14
21
-99.3745
0
LINE
8
BLACK
6
CONTINUOUS
10
205.14
20
-99.3745
11
204.917
21
-99.7086
0
LINE
8
BLACK
6
CONTINUOUS
10
204.917
20
-99.7086
11
204.763
21
-100.08
0
LINE
8
BLACK
6
CONTINUOUS
10
204.763
20
-100.08
11
204.685
21
-100.474
0
LINE
8
BLACK
6
CONTINUOUS
10
204.685
20
-100.474
11
204.685
21
-100.876
0
LINE
8
BLACK
6
CONTINUOUS
10
204.685
20
-100.876
11
204.763
21
-101.27
0
LINE
8
BLACK
6
CONTINUOUS
10
128.457
20
-97.487
11
128.635
21
-97.0578
0
LINE
8
BLACK
6
CONTINUOUS
10
128.635
20
-97.0578
11
128.893
21
-96.6715
0
LINE
8
BLACK
6
CONTINUOUS
10
128.893
20
-96.6715
11
129.221
21
-96.343
0
LINE
8
BLACK
6
CONTINUOUS
10
129.221
20
-96.343
11
129.608
21
-96.0848
0
LINE
8
BLACK
6
CONTINUOUS
10
129.608
20
-96.0848
11
130.037
21
-95.9071
0
LINE
8
BLACK
6
CONTINUOUS
10
130.037
20
-95.9071
11
130.493
21
-95.8164
0
LINE
8
BLACK
6
CONTINUOUS
10
130.493
20
-95.8164
11
130.957
21
-95.8164
0
LINE
8
BLACK
6
CONTINUOUS
10
130.957
20
-95.8164
11
131.413
21
-95.9071
0
LINE
8
BLACK
6
CONTINUOUS
10
131.413
20
-95.9071
11
131.842
21
-96.0848
0
LINE
8
BLACK
6
CONTINUOUS
10
131.842
20
-96.0848
11
132.229
21
-96.343
0
LINE
8
BLACK
6
CONTINUOUS
10
132.229
20
-96.343
11
132.557
21
-96.6715
0
LINE
8
BLACK
6
CONTINUOUS
10
132.557
20
-96.6715
11
132.815
21
-97.0578
0
LINE
8
BLACK
6
CONTINUOUS
10
132.815
20
-97.0578
11
132.993
21
-97.487
0
LINE
8
BLACK
6
CONTINUOUS
10
132.993
20
-97.487
11
133.084
21
-97.9427
0
LINE
8
BLACK
6
CONTINUOUS
10
133.084
20
-97.9427
11
133.084
21
-98.4073
0
LINE
8
BLACK
6
CONTINUOUS
10
133.084
20
-98.4073
11
132.993
21
-98.863
0
LINE
8
BLACK
6
CONTINUOUS
10
132.993
20
-98.863
11
132.815
21
-99.2922
0
LINE
8
BLACK
6
CONTINUOUS
10
132.815
20
-99.2922
11
132.557
21
-99.6785
0
LINE
8
BLACK
6
CONTINUOUS
10
132.557
20
-99.6785
11
132.229
21
-100.007
0
LINE
8
BLACK
6
CONTINUOUS
10
132.229
20
-100.007
11
131.842
21
-100.265
0
LINE
8
BLACK
6
CONTINUOUS
10
131.842
20
-100.265
11
131.413
21
-100.443
0
LINE
8
BLACK
6
CONTINUOUS
10
131.413
20
-100.443
11
130.957
21
-100.534
0
LINE
8
BLACK
6
CONTINUOUS
10
130.957
20
-100.534
11
130.493
21
-100.534
0
LINE
8
BLACK
6
CONTINUOUS
10
130.493
20
-100.534
11
130.037
21
-100.443
0
LINE
8
BLACK
6
CONTINUOUS
10
130.037
20
-100.443
11
129.608
21
-100.265
0
LINE
8
BLACK
6
CONTINUOUS
10
129.608
20
-100.265
11
129.221
21
-100.007
0
LINE
8
BLACK
6
CONTINUOUS
10
129.221
20
-100.007
11
128.893
21
-99.6785
0
LINE
8
BLACK
6
CONTINUOUS
10
128.893
20
-99.6785
11
128.635
21
-99.2922
0
LINE
8
BLACK
6
CONTINUOUS
10
128.635
20
-99.2922
11
128.457
21
-98.863
0
LINE
8
BLACK
6
CONTINUOUS
10
128.457
20
-98.863
11
128.366
21
-98.4073
0
LINE
8
BLACK
6
CONTINUOUS
10
128.366
20
-98.4073
11
128.366
21
-97.9427
0
LINE
8
BLACK
6
CONTINUOUS
10
128.366
20
-97.9427
11
128.457
21
-97.487
0
LINE
8
BLACK
6
CONTINUOUS
10
128.763
20
-98.7701
11
128.917
21
-99.1414
0
LINE
8
BLACK
6
CONTINUOUS
10
128.917
20
-99.1414
11
129.14
21
-99.4755
0
LINE
8
BLACK
6
CONTINUOUS
10
129.14
20
-99.4755
11
129.424
21
-99.7597
0
LINE
8
BLACK
6
CONTINUOUS
10
129.424
20
-99.7597
11
129.759
21
-99.9829
0
LINE
8
BLACK
6
CONTINUOUS
10
129.759
20
-99.9829
11
130.13
21
-100.137
0
LINE
8
BLACK
6
CONTINUOUS
10
130.13
20
-100.137
11
130.524
21
-100.215
0
LINE
8
BLACK
6
CONTINUOUS
10
130.524
20
-100.215
11
130.926
21
-100.215
0
LINE
8
BLACK
6
CONTINUOUS
10
130.926
20
-100.215
11
131.32
21
-100.137
0
LINE
8
BLACK
6
CONTINUOUS
10
131.32
20
-100.137
11
131.691
21
-99.9829
0
LINE
8
BLACK
6
CONTINUOUS
10
131.691
20
-99.9829
11
132.026
21
-99.7597
0
LINE
8
BLACK
6
CONTINUOUS
10
132.026
20
-99.7597
11
132.31
21
-99.4755
0
LINE
8
BLACK
6
CONTINUOUS
10
132.31
20
-99.4755
11
132.533
21
-99.1414
0
LINE
8
BLACK
6
CONTINUOUS
10
132.533
20
-99.1414
11
132.687
21
-98.7701
0
LINE
8
BLACK
6
CONTINUOUS
10
132.687
20
-98.7701
11
132.765
21
-98.3759
0
LINE
8
BLACK
6
CONTINUOUS
10
132.765
20
-98.3759
11
132.765
21
-97.9741
0
LINE
8
BLACK
6
CONTINUOUS
10
132.765
20
-97.9741
11
132.687
21
-97.5799
0
LINE
8
BLACK
6
CONTINUOUS
10
132.687
20
-97.5799
11
132.533
21
-97.2086
0
LINE
8
BLACK
6
CONTINUOUS
10
132.533
20
-97.2086
11
132.31
21
-96.8745
0
LINE
8
BLACK
6
CONTINUOUS
10
132.31
20
-96.8745
11
132.026
21
-96.5903
0
LINE
8
BLACK
6
CONTINUOUS
10
132.026
20
-96.5903
11
131.691
21
-96.3671
0
LINE
8
BLACK
6
CONTINUOUS
10
131.691
20
-96.3671
11
131.32
21
-96.2133
0
LINE
8
BLACK
6
CONTINUOUS
10
131.32
20
-96.2133
11
130.926
21
-96.1349
0
LINE
8
BLACK
6
CONTINUOUS
10
130.926
20
-96.1349
11
130.524
21
-96.1349
0
LINE
8
BLACK
6
CONTINUOUS
10
130.524
20
-96.1349
11
130.13
21
-96.2133
0
LINE
8
BLACK
6
CONTINUOUS
10
130.13
20
-96.2133
11
129.759
21
-96.3671
0
LINE
8
BLACK
6
CONTINUOUS
10
129.759
20
-96.3671
11
129.424
21
-96.5903
0
LINE
8
BLACK
6
CONTINUOUS
10
129.424
20
-96.5903
11
129.14
21
-96.8745
0
LINE
8
BLACK
6
CONTINUOUS
10
129.14
20
-96.8745
11
128.917
21
-97.2086
0
LINE
8
BLACK
6
CONTINUOUS
10
128.917
20
-97.2086
11
128.763
21
-97.5799
0
LINE
8
BLACK
6
CONTINUOUS
10
128.763
20
-97.5799
11
128.685
21
-97.9741
0
LINE
8
BLACK
6
CONTINUOUS
10
128.685
20
-97.9741
11
128.685
21
-98.3759
0
LINE
8
BLACK
6
CONTINUOUS
10
128.685
20
-98.3759
11
128.763
21
-98.7701
0
LINE
8
BLACK
6
CONTINUOUS
10
90.2968
20
-93.5901
11
90.4479
21
-93.2251
0
LINE
8
BLACK
6
CONTINUOUS
10
90.4479
20
-93.2251
11
90.6674
21
-92.8967
0
LINE
8
BLACK
6
CONTINUOUS
10
90.6674
20
-92.8967
11
90.9467
21
-92.6174
0
LINE
8
BLACK
6
CONTINUOUS
10
90.9467
20
-92.6174
11
91.2751
21
-92.3979
0
LINE
8
BLACK
6
CONTINUOUS
10
91.2751
20
-92.3979
11
91.6401
21
-92.2468
0
LINE
8
BLACK
6
CONTINUOUS
10
91.6401
20
-92.2468
11
92.0275
21
-92.1697
0
LINE
8
BLACK
6
CONTINUOUS
10
92.0275
20
-92.1697
11
92.4225
21
-92.1697
0
LINE
8
BLACK
6
CONTINUOUS
10
92.4225
20
-92.1697
11
92.8099
21
-92.2468
0
LINE
8
BLACK
6
CONTINUOUS
10
92.8099
20
-92.2468
11
93.1749
21
-92.3979
0
LINE
8
BLACK
6
CONTINUOUS
10
93.1749
20
-92.3979
11
93.5033
21
-92.6174
0
LINE
8
BLACK
6
CONTINUOUS
10
93.5033
20
-92.6174
11
93.7826
21
-92.8967
0
LINE
8
BLACK
6
CONTINUOUS
10
93.7826
20
-92.8967
11
94.0021
21
-93.2251
0
LINE
8
BLACK
6
CONTINUOUS
10
94.0021
20
-93.2251
11
94.1532
21
-93.5901
0
LINE
8
BLACK
6
CONTINUOUS
10
94.1532
20
-93.5901
11
94.2303
21
-93.9775
0
LINE
8
BLACK
6
CONTINUOUS
10
94.2303
20
-93.9775
11
94.2303
21
-94.3725
0
LINE
8
BLACK
6
CONTINUOUS
10
94.2303
20
-94.3725
11
94.1532
21
-94.7599
0
LINE
8
BLACK
6
CONTINUOUS
10
94.1532
20
-94.7599
11
94.0021
21
-95.1249
0
LINE
8
BLACK
6
CONTINUOUS
10
94.0021
20
-95.1249
11
93.7826
21
-95.4533
0
LINE
8
BLACK
6
CONTINUOUS
10
93.7826
20
-95.4533
11
93.5033
21
-95.7326
0
LINE
8
BLACK
6
CONTINUOUS
10
93.5033
20
-95.7326
11
93.1749
21
-95.9521
0
LINE
8
BLACK
6
CONTINUOUS
10
93.1749
20
-95.9521
11
92.8099
21
-96.1032
0
LINE
8
BLACK
6
CONTINUOUS
10
92.8099
20
-96.1032
11
92.4225
21
-96.1803
0
LINE
8
BLACK
6
CONTINUOUS
10
92.4225
20
-96.1803
11
92.0275
21
-96.1803
0
LINE
8
BLACK
6
CONTINUOUS
10
92.0275
20
-96.1803
11
91.6401
21
-96.1032
0
LINE
8
BLACK
6
CONTINUOUS
10
91.6401
20
-96.1032
11
91.2751
21
-95.9521
0
LINE
8
BLACK
6
CONTINUOUS
10
91.2751
20
-95.9521
11
90.9467
21
-95.7326
0
LINE
8
BLACK
6
CONTINUOUS
10
90.9467
20
-95.7326
11
90.6674
21
-95.4533
0
LINE
8
BLACK
6
CONTINUOUS
10
90.6674
20
-95.4533
11
90.4479
21
-95.1249
0
LINE
8
BLACK
6
CONTINUOUS
10
90.4479
20
-95.1249
11
90.2968
21
-94.7599
0
LINE
8
BLACK
6
CONTINUOUS
10
90.2968
20
-94.7599
11
90.2197
21
-94.3725
0
LINE
8
BLACK
6
CONTINUOUS
10
90.2197
20
-94.3725
11
90.2197
21
-93.9775
0
LINE
8
BLACK
6
CONTINUOUS
10
90.2197
20
-93.9775
11
90.2968
21
-93.5901
0
LINE
8
BLACK
6
CONTINUOUS
10
91.1771
20
-94.4929
11
91.2593
21
-94.6912
0
LINE
8
BLACK
6
CONTINUOUS
10
91.2593
20
-94.6912
11
91.3786
21
-94.8697
0
LINE
8
BLACK
6
CONTINUOUS
10
91.3786
20
-94.8697
11
91.5303
21
-95.0214
0
LINE
8
BLACK
6
CONTINUOUS
10
91.5303
20
-95.0214
11
91.7088
21
-95.1407
0
LINE
8
BLACK
6
CONTINUOUS
10
91.7088
20
-95.1407
11
91.9071
21
-95.2228
0
LINE
8
BLACK
6
CONTINUOUS
10
91.9071
20
-95.2228
11
92.1177
21
-95.2647
0
LINE
8
BLACK
6
CONTINUOUS
10
92.1177
20
-95.2647
11
92.3323
21
-95.2647
0
LINE
8
BLACK
6
CONTINUOUS
10
92.3323
20
-95.2647
11
92.5429
21
-95.2228
0
LINE
8
BLACK
6
CONTINUOUS
10
92.5429
20
-95.2228
11
92.7412
21
-95.1407
0
LINE
8
BLACK
6
CONTINUOUS
10
92.7412
20
-95.1407
11
92.9197
21
-95.0214
0
LINE
8
BLACK
6
CONTINUOUS
10
92.9197
20
-95.0214
11
93.0714
21
-94.8697
0
LINE
8
BLACK
6
CONTINUOUS
10
93.0714
20
-94.8697
11
93.1907
21
-94.6912
0
LINE
8
BLACK
6
CONTINUOUS
10
93.1907
20
-94.6912
11
93.2728
21
-94.4929
0
LINE
8
BLACK
6
CONTINUOUS
10
93.2728
20
-94.4929
11
93.3147
21
-94.2823
0
LINE
8
BLACK
6
CONTINUOUS
10
93.3147
20
-94.2823
11
93.3147
21
-94.0677
0
LINE
8
BLACK
6
CONTINUOUS
10
93.3147
20
-94.0677
11
93.2728
21
-93.8571
0
LINE
8
BLACK
6
CONTINUOUS
10
93.2728
20
-93.8571
11
93.1907
21
-93.6588
0
LINE
8
BLACK
6
CONTINUOUS
10
93.1907
20
-93.6588
11
93.0714
21
-93.4803
0
LINE
8
BLACK
6
CONTINUOUS
10
93.0714
20
-93.4803
11
92.9197
21
-93.3286
0
LINE
8
BLACK
6
CONTINUOUS
10
92.9197
20
-93.3286
11
92.7412
21
-93.2093
0
LINE
8
BLACK
6
CONTINUOUS
10
92.7412
20
-93.2093
11
92.5429
21
-93.1272
0
LINE
8
BLACK
6
CONTINUOUS
10
92.5429
20
-93.1272
11
92.3323
21
-93.0853
0
LINE
8
BLACK
6
CONTINUOUS
10
92.3323
20
-93.0853
11
92.1177
21
-93.0853
0
LINE
8
BLACK
6
CONTINUOUS
10
92.1177
20
-93.0853
11
91.9071
21
-93.1272
0
LINE
8
BLACK
6
CONTINUOUS
10
91.9071
20
-93.1272
11
91.7088
21
-93.2093
0
LINE
8
BLACK
6
CONTINUOUS
10
91.7088
20
-93.2093
11
91.5303
21
-93.3286
0
LINE
8
BLACK
6
CONTINUOUS
10
91.5303
20
-93.3286
11
91.3786
21
-93.4803
0
LINE
8
BLACK
6
CONTINUOUS
10
91.3786
20
-93.4803
11
91.2593
21
-93.6588
0
LINE
8
BLACK
6
CONTINUOUS
10
91.2593
20
-93.6588
11
91.1771
21
-93.8571
0
LINE
8
BLACK
6
CONTINUOUS
10
91.1771
20
-93.8571
11
91.1353
21
-94.0677
0
LINE
8
BLACK
6
CONTINUOUS
10
91.1353
20
-94.0677
11
91.1353
21
-94.2823
0
LINE
8
BLACK
6
CONTINUOUS
10
91.1353
20
-94.2823
11
91.1771
21
-94.4929
0
LINE
8
BLACK
6
CONTINUOUS
10
105.797
20
-93.5901
11
105.948
21
-93.2251
0
LINE
8
BLACK
6
CONTINUOUS
10
105.948
20
-93.2251
11
106.167
21
-92.8967
0
LINE
8
BLACK
6
CONTINUOUS
10
106.167
20
-92.8967
11
106.447
21
-92.6174
0
LINE
8
BLACK
6
CONTINUOUS
10
106.447
20
-92.6174
11
106.775
21
-92.3979
0
LINE
8
BLACK
6
CONTINUOUS
10
106.775
20
-92.3979
11
107.14
21
-92.2468
0
LINE
8
BLACK
6
CONTINUOUS
10
107.14
20
-92.2468
11
107.527
21
-92.1697
0
LINE
8
BLACK
6
CONTINUOUS
10
107.527
20
-92.1697
11
107.923
21
-92.1697
0
LINE
8
BLACK
6
CONTINUOUS
10
107.923
20
-92.1697
11
108.31
21
-92.2468
0
LINE
8
BLACK
6
CONTINUOUS
10
108.31
20
-92.2468
11
108.675
21
-92.3979
0
LINE
8
BLACK
6
CONTINUOUS
10
108.675
20
-92.3979
11
109.003
21
-92.6174
0
LINE
8
BLACK
6
CONTINUOUS
10
109.003
20
-92.6174
11
109.283
21
-92.8967
0
LINE
8
BLACK
6
CONTINUOUS
10
109.283
20
-92.8967
11
109.502
21
-93.2251
0
LINE
8
BLACK
6
CONTINUOUS
10
109.502
20
-93.2251
11
109.653
21
-93.5901
0
LINE
8
BLACK
6
CONTINUOUS
10
109.653
20
-93.5901
11
109.73
21
-93.9775
0
LINE
8
BLACK
6
CONTINUOUS
10
109.73
20
-93.9775
11
109.73
21
-94.3725
0
LINE
8
BLACK
6
CONTINUOUS
10
109.73
20
-94.3725
11
109.653
21
-94.7599
0
LINE
8
BLACK
6
CONTINUOUS
10
109.653
20
-94.7599
11
109.502
21
-95.1249
0
LINE
8
BLACK
6
CONTINUOUS
10
109.502
20
-95.1249
11
109.283
21
-95.4533
0
LINE
8
BLACK
6
CONTINUOUS
10
109.283
20
-95.4533
11
109.003
21
-95.7326
0
LINE
8
BLACK
6
CONTINUOUS
10
109.003
20
-95.7326
11
108.675
21
-95.9521
0
LINE
8
BLACK
6
CONTINUOUS
10
108.675
20
-95.9521
11
108.31
21
-96.1032
0
LINE
8
BLACK
6
CONTINUOUS
10
108.31
20
-96.1032
11
107.923
21
-96.1803
0
LINE
8
BLACK
6
CONTINUOUS
10
107.923
20
-96.1803
11
107.527
21
-96.1803
0
LINE
8
BLACK
6
CONTINUOUS
10
107.527
20
-96.1803
11
107.14
21
-96.1032
0
LINE
8
BLACK
6
CONTINUOUS
10
107.14
20
-96.1032
11
106.775
21
-95.9521
0
LINE
8
BLACK
6
CONTINUOUS
10
106.775
20
-95.9521
11
106.447
21
-95.7326
0
LINE
8
BLACK
6
CONTINUOUS
10
106.447
20
-95.7326
11
106.167
21
-95.4533
0
LINE
8
BLACK
6
CONTINUOUS
10
106.167
20
-95.4533
11
105.948
21
-95.1249
0
LINE
8
BLACK
6
CONTINUOUS
10
105.948
20
-95.1249
11
105.797
21
-94.7599
0
LINE
8
BLACK
6
CONTINUOUS
10
105.797
20
-94.7599
11
105.72
21
-94.3725
0
LINE
8
BLACK
6
CONTINUOUS
10
105.72
20
-94.3725
11
105.72
21
-93.9775
0
LINE
8
BLACK
6
CONTINUOUS
10
105.72
20
-93.9775
11
105.797
21
-93.5901
0
LINE
8
BLACK
6
CONTINUOUS
10
106.677
20
-94.4929
11
106.759
21
-94.6912
0
LINE
8
BLACK
6
CONTINUOUS
10
106.759
20
-94.6912
11
106.879
21
-94.8697
0
LINE
8
BLACK
6
CONTINUOUS
10
106.879
20
-94.8697
11
107.03
21
-95.0214
0
LINE
8
BLACK
6
CONTINUOUS
10
107.03
20
-95.0214
11
107.209
21
-95.1407
0
LINE
8
BLACK
6
CONTINUOUS
10
107.209
20
-95.1407
11
107.407
21
-95.2228
0
LINE
8
BLACK
6
CONTINUOUS
10
107.407
20
-95.2228
11
107.618
21
-95.2647
0
LINE
8
BLACK
6
CONTINUOUS
10
107.618
20
-95.2647
11
107.832
21
-95.2647
0
LINE
8
BLACK
6
CONTINUOUS
10
107.832
20
-95.2647
11
108.043
21
-95.2228
0
LINE
8
BLACK
6
CONTINUOUS
10
108.043
20
-95.2228
11
108.241
21
-95.1407
0
LINE
8
BLACK
6
CONTINUOUS
10
108.241
20
-95.1407
11
108.42
21
-95.0214
0
LINE
8
BLACK
6
CONTINUOUS
10
108.42
20
-95.0214
11
108.571
21
-94.8697
0
LINE
8
BLACK
6
CONTINUOUS
10
108.571
20
-94.8697
11
108.691
21
-94.6912
0
LINE
8
BLACK
6
CONTINUOUS
10
108.691
20
-94.6912
11
108.773
21
-94.4929
0
LINE
8
BLACK
6
CONTINUOUS
10
108.773
20
-94.4929
11
108.815
21
-94.2823
0
LINE
8
BLACK
6
CONTINUOUS
10
108.815
20
-94.2823
11
108.815
21
-94.0677
0
LINE
8
BLACK
6
CONTINUOUS
10
108.815
20
-94.0677
11
108.773
21
-93.8571
0
LINE
8
BLACK
6
CONTINUOUS
10
108.773
20
-93.8571
11
108.691
21
-93.6588
0
LINE
8
BLACK
6
CONTINUOUS
10
108.691
20
-93.6588
11
108.571
21
-93.4803
0
LINE
8
BLACK
6
CONTINUOUS
10
108.571
20
-93.4803
11
108.42
21
-93.3286
0
LINE
8
BLACK
6
CONTINUOUS
10
108.42
20
-93.3286
11
108.241
21
-93.2093
0
LINE
8
BLACK
6
CONTINUOUS
10
108.241
20
-93.2093
11
108.043
21
-93.1272
0
LINE
8
BLACK
6
CONTINUOUS
10
108.043
20
-93.1272
11
107.832
21
-93.0853
0
LINE
8
BLACK
6
CONTINUOUS
10
107.832
20
-93.0853
11
107.618
21
-93.0853
0
LINE
8
BLACK
6
CONTINUOUS
10
107.618
20
-93.0853
11
107.407
21
-93.1272
0
LINE
8
BLACK
6
CONTINUOUS
10
107.407
20
-93.1272
11
107.209
21
-93.2093
0
LINE
8
BLACK
6
CONTINUOUS
10
107.209
20
-93.2093
11
107.03
21
-93.3286
0
LINE
8
BLACK
6
CONTINUOUS
10
107.03
20
-93.3286
11
106.879
21
-93.4803
0
LINE
8
BLACK
6
CONTINUOUS
10
106.879
20
-93.4803
11
106.759
21
-93.6588
0
LINE
8
BLACK
6
CONTINUOUS
10
106.759
20
-93.6588
11
106.677
21
-93.8571
0
LINE
8
BLACK
6
CONTINUOUS
10
106.677
20
-93.8571
11
106.635
21
-94.0677
0
LINE
8
BLACK
6
CONTINUOUS
10
106.635
20
-94.0677
11
106.635
21
-94.2823
0
LINE
8
BLACK
6
CONTINUOUS
10
106.635
20
-94.2823
11
106.677
21
-94.4929
0
LINE
8
BLACK
6
CONTINUOUS
10
204.457
20
-61.487
11
204.635
21
-61.0578
0
LINE
8
BLACK
6
CONTINUOUS
10
204.635
20
-61.0578
11
204.893
21
-60.6715
0
LINE
8
BLACK
6
CONTINUOUS
10
204.893
20
-60.6715
11
205.221
21
-60.343
0
LINE
8
BLACK
6
CONTINUOUS
10
205.221
20
-60.343
11
205.608
21
-60.0848
0
LINE
8
BLACK
6
CONTINUOUS
10
205.608
20
-60.0848
11
206.037
21
-59.9071
0
LINE
8
BLACK
6
CONTINUOUS
10
206.037
20
-59.9071
11
206.493
21
-59.8164
0
LINE
8
BLACK
6
CONTINUOUS
10
206.493
20
-59.8164
11
206.957
21
-59.8164
0
LINE
8
BLACK
6
CONTINUOUS
10
206.957
20
-59.8164
11
207.413
21
-59.9071
0
LINE
8
BLACK
6
CONTINUOUS
10
207.413
20
-59.9071
11
207.842
21
-60.0848
0
LINE
8
BLACK
6
CONTINUOUS
10
207.842
20
-60.0848
11
208.229
21
-60.343
0
LINE
8
BLACK
6
CONTINUOUS
10
208.229
20
-60.343
11
208.557
21
-60.6715
0
LINE
8
BLACK
6
CONTINUOUS
10
208.557
20
-60.6715
11
208.815
21
-61.0578
0
LINE
8
BLACK
6
CONTINUOUS
10
208.815
20
-61.0578
11
208.993
21
-61.487
0
LINE
8
BLACK
6
CONTINUOUS
10
208.993
20
-61.487
11
209.084
21
-61.9427
0
LINE
8
BLACK
6
CONTINUOUS
10
209.084
20
-61.9427
11
209.084
21
-62.4073
0
LINE
8
BLACK
6
CONTINUOUS
10
209.084
20
-62.4073
11
208.993
21
-62.863
0
LINE
8
BLACK
6
CONTINUOUS
10
208.993
20
-62.863
11
208.815
21
-63.2922
0
LINE
8
BLACK
6
CONTINUOUS
10
208.815
20
-63.2922
11
208.557
21
-63.6785
0
LINE
8
BLACK
6
CONTINUOUS
10
208.557
20
-63.6785
11
208.229
21
-64.007
0
LINE
8
BLACK
6
CONTINUOUS
10
208.229
20
-64.007
11
207.842
21
-64.2652
0
LINE
8
BLACK
6
CONTINUOUS
10
207.842
20
-64.2652
11
207.413
21
-64.4429
0
LINE
8
BLACK
6
CONTINUOUS
10
207.413
20
-64.4429
11
206.957
21
-64.5336
0
LINE
8
BLACK
6
CONTINUOUS
10
206.957
20
-64.5336
11
206.493
21
-64.5336
0
LINE
8
BLACK
6
CONTINUOUS
10
206.493
20
-64.5336
11
206.037
21
-64.4429
0
LINE
8
BLACK
6
CONTINUOUS
10
206.037
20
-64.4429
11
205.608
21
-64.2652
0
LINE
8
BLACK
6
CONTINUOUS
10
205.608
20
-64.2652
11
205.221
21
-64.007
0
LINE
8
BLACK
6
CONTINUOUS
10
205.221
20
-64.007
11
204.893
21
-63.6785
0
LINE
8
BLACK
6
CONTINUOUS
10
204.893
20
-63.6785
11
204.635
21
-63.2922
0
LINE
8
BLACK
6
CONTINUOUS
10
204.635
20
-63.2922
11
204.457
21
-62.863
0
LINE
8
BLACK
6
CONTINUOUS
10
204.457
20
-62.863
11
204.366
21
-62.4073
0
LINE
8
BLACK
6
CONTINUOUS
10
204.366
20
-62.4073
11
204.366
21
-61.9427
0
LINE
8
BLACK
6
CONTINUOUS
10
204.366
20
-61.9427
11
204.457
21
-61.487
0
LINE
8
BLACK
6
CONTINUOUS
10
204.763
20
-62.7701
11
204.917
21
-63.1414
0
LINE
8
BLACK
6
CONTINUOUS
10
204.917
20
-63.1414
11
205.14
21
-63.4755
0
LINE
8
BLACK
6
CONTINUOUS
10
205.14
20
-63.4755
11
205.424
21
-63.7597
0
LINE
8
BLACK
6
CONTINUOUS
10
205.424
20
-63.7597
11
205.759
21
-63.9829
0
LINE
8
BLACK
6
CONTINUOUS
10
205.759
20
-63.9829
11
206.13
21
-64.1367
0
LINE
8
BLACK
6
CONTINUOUS
10
206.13
20
-64.1367
11
206.524
21
-64.2151
0
LINE
8
BLACK
6
CONTINUOUS
10
206.524
20
-64.2151
11
206.926
21
-64.2151
0
LINE
8
BLACK
6
CONTINUOUS
10
206.926
20
-64.2151
11
207.32
21
-64.1367
0
LINE
8
BLACK
6
CONTINUOUS
10
207.32
20
-64.1367
11
207.691
21
-63.9829
0
LINE
8
BLACK
6
CONTINUOUS
10
207.691
20
-63.9829
11
208.026
21
-63.7597
0
LINE
8
BLACK
6
CONTINUOUS
10
208.026
20
-63.7597
11
208.31
21
-63.4755
0
LINE
8
BLACK
6
CONTINUOUS
10
208.31
20
-63.4755
11
208.533
21
-63.1414
0
LINE
8
BLACK
6
CONTINUOUS
10
208.533
20
-63.1414
11
208.687
21
-62.7701
0
LINE
8
BLACK
6
CONTINUOUS
10
208.687
20
-62.7701
11
208.765
21
-62.3759
0
LINE
8
BLACK
6
CONTINUOUS
10
208.765
20
-62.3759
11
208.765
21
-61.9741
0
LINE
8
BLACK
6
CONTINUOUS
10
208.765
20
-61.9741
11
208.687
21
-61.5799
0
LINE
8
BLACK
6
CONTINUOUS
10
208.687
20
-61.5799
11
208.533
21
-61.2086
0
LINE
8
BLACK
6
CONTINUOUS
10
208.533
20
-61.2086
11
208.31
21
-60.8745
0
LINE
8
BLACK
6
CONTINUOUS
10
208.31
20
-60.8745
11
208.026
21
-60.5903
0
LINE
8
BLACK
6
CONTINUOUS
10
208.026
20
-60.5903
11
207.691
21
-60.3671
0
LINE
8
BLACK
6
CONTINUOUS
10
207.691
20
-60.3671
11
207.32
21
-60.2133
0
LINE
8
BLACK
6
CONTINUOUS
10
207.32
20
-60.2133
11
206.926
21
-60.1349
0
LINE
8
BLACK
6
CONTINUOUS
10
206.926
20
-60.1349
11
206.524
21
-60.1349
0
LINE
8
BLACK
6
CONTINUOUS
10
206.524
20
-60.1349
11
206.13
21
-60.2133
0
LINE
8
BLACK
6
CONTINUOUS
10
206.13
20
-60.2133
11
205.759
21
-60.3671
0
LINE
8
BLACK
6
CONTINUOUS
10
205.759
20
-60.3671
11
205.424
21
-60.5903
0
LINE
8
BLACK
6
CONTINUOUS
10
205.424
20
-60.5903
11
205.14
21
-60.8745
0
LINE
8
BLACK
6
CONTINUOUS
10
205.14
20
-60.8745
11
204.917
21
-61.2086
0
LINE
8
BLACK
6
CONTINUOUS
10
204.917
20
-61.2086
11
204.763
21
-61.5799
0
LINE
8
BLACK
6
CONTINUOUS
10
204.763
20
-61.5799
11
204.685
21
-61.9741
0
LINE
8
BLACK
6
CONTINUOUS
10
204.685
20
-61.9741
11
204.685
21
-62.3759
0
LINE
8
BLACK
6
CONTINUOUS
10
204.685
20
-62.3759
11
204.763
21
-62.7701
0
LINE
8
BLACK
6
CONTINUOUS
10
128.457
20
-56.987
11
128.635
21
-56.5578
0
LINE
8
BLACK
6
CONTINUOUS
10
128.635
20
-56.5578
11
128.893
21
-56.1715
0
LINE
8
BLACK
6
CONTINUOUS
10
128.893
20
-56.1715
11
129.221
21
-55.843
0
LINE
8
BLACK
6
CONTINUOUS
10
129.221
20
-55.843
11
129.608
21
-55.5848
0
LINE
8
BLACK
6
CONTINUOUS
10
129.608
20
-55.5848
11
130.037
21
-55.4071
0
LINE
8
BLACK
6
CONTINUOUS
10
130.037
20
-55.4071
11
130.493
21
-55.3164
0
LINE
8
BLACK
6
CONTINUOUS
10
130.493
20
-55.3164
11
130.957
21
-55.3164
0
LINE
8
BLACK
6
CONTINUOUS
10
130.957
20
-55.3164
11
131.413
21
-55.4071
0
LINE
8
BLACK
6
CONTINUOUS
10
131.413
20
-55.4071
11
131.842
21
-55.5848
0
LINE
8
BLACK
6
CONTINUOUS
10
131.842
20
-55.5848
11
132.229
21
-55.843
0
LINE
8
BLACK
6
CONTINUOUS
10
132.229
20
-55.843
11
132.557
21
-56.1715
0
LINE
8
BLACK
6
CONTINUOUS
10
132.557
20
-56.1715
11
132.815
21
-56.5578
0
LINE
8
BLACK
6
CONTINUOUS
10
132.815
20
-56.5578
11
132.993
21
-56.987
0
LINE
8
BLACK
6
CONTINUOUS
10
132.993
20
-56.987
11
133.084
21
-57.4427
0
LINE
8
BLACK
6
CONTINUOUS
10
133.084
20
-57.4427
11
133.084
21
-57.9073
0
LINE
8
BLACK
6
CONTINUOUS
10
133.084
20
-57.9073
11
132.993
21
-58.363
0
LINE
8
BLACK
6
CONTINUOUS
10
132.993
20
-58.363
11
132.815
21
-58.7922
0
LINE
8
BLACK
6
CONTINUOUS
10
132.815
20
-58.7922
11
132.557
21
-59.1785
0
LINE
8
BLACK
6
CONTINUOUS
10
132.557
20
-59.1785
11
132.229
21
-59.507
0
LINE
8
BLACK
6
CONTINUOUS
10
132.229
20
-59.507
11
131.842
21
-59.7652
0
LINE
8
BLACK
6
CONTINUOUS
10
131.842
20
-59.7652
11
131.413
21
-59.9429
0
LINE
8
BLACK
6
CONTINUOUS
10
131.413
20
-59.9429
11
130.957
21
-60.0336
0
LINE
8
BLACK
6
CONTINUOUS
10
130.957
20
-60.0336
11
130.493
21
-60.0336
0
LINE
8
BLACK
6
CONTINUOUS
10
130.493
20
-60.0336
11
130.037
21
-59.9429
0
LINE
8
BLACK
6
CONTINUOUS
10
130.037
20
-59.9429
11
129.608
21
-59.7652
0
LINE
8
BLACK
6
CONTINUOUS
10
129.608
20
-59.7652
11
129.221
21
-59.507
0
LINE
8
BLACK
6
CONTINUOUS
10
129.221
20
-59.507
11
128.893
21
-59.1785
0
LINE
8
BLACK
6
CONTINUOUS
10
128.893
20
-59.1785
11
128.635
21
-58.7922
0
LINE
8
BLACK
6
CONTINUOUS
10
128.635
20
-58.7922
11
128.457
21
-58.363
0
LINE
8
BLACK
6
CONTINUOUS
10
128.457
20
-58.363
11
128.366
21
-57.9073
0
LINE
8
BLACK
6
CONTINUOUS
10
128.366
20
-57.9073
11
128.366
21
-57.4427
0
LINE
8
BLACK
6
CONTINUOUS
10
128.366
20
-57.4427
11
128.457
21
-56.987
0
LINE
8
BLACK
6
CONTINUOUS
10
128.763
20
-58.2701
11
128.917
21
-58.6414
0
LINE
8
BLACK
6
CONTINUOUS
10
128.917
20
-58.6414
11
129.14
21
-58.9755
0
LINE
8
BLACK
6
CONTINUOUS
10
129.14
20
-58.9755
11
129.424
21
-59.2597
0
LINE
8
BLACK
6
CONTINUOUS
10
129.424
20
-59.2597
11
129.759
21
-59.4829
0
LINE
8
BLACK
6
CONTINUOUS
10
129.759
20
-59.4829
11
130.13
21
-59.6367
0
LINE
8
BLACK
6
CONTINUOUS
10
130.13
20
-59.6367
11
130.524
21
-59.7151
0
LINE
8
BLACK
6
CONTINUOUS
10
130.524
20
-59.7151
11
130.926
21
-59.7151
0
LINE
8
BLACK
6
CONTINUOUS
10
130.926
20
-59.7151
11
131.32
21
-59.6367
0
LINE
8
BLACK
6
CONTINUOUS
10
131.32
20
-59.6367
11
131.691
21
-59.4829
0
LINE
8
BLACK
6
CONTINUOUS
10
131.691
20
-59.4829
11
132.026
21
-59.2597
0
LINE
8
BLACK
6
CONTINUOUS
10
132.026
20
-59.2597
11
132.31
21
-58.9755
0
LINE
8
BLACK
6
CONTINUOUS
10
132.31
20
-58.9755
11
132.533
21
-58.6414
0
LINE
8
BLACK
6
CONTINUOUS
10
132.533
20
-58.6414
11
132.687
21
-58.2701
0
LINE
8
BLACK
6
CONTINUOUS
10
132.687
20
-58.2701
11
132.765
21
-57.8759
0
LINE
8
BLACK
6
CONTINUOUS
10
132.765
20
-57.8759
11
132.765
21
-57.4741
0
LINE
8
BLACK
6
CONTINUOUS
10
132.765
20
-57.4741
11
132.687
21
-57.0799
0
LINE
8
BLACK
6
CONTINUOUS
10
132.687
20
-57.0799
11
132.533
21
-56.7086
0
LINE
8
BLACK
6
CONTINUOUS
10
132.533
20
-56.7086
11
132.31
21
-56.3745
0
LINE
8
BLACK
6
CONTINUOUS
10
132.31
20
-56.3745
11
132.026
21
-56.0903
0
LINE
8
BLACK
6
CONTINUOUS
10
132.026
20
-56.0903
11
131.691
21
-55.8671
0
LINE
8
BLACK
6
CONTINUOUS
10
131.691
20
-55.8671
11
131.32
21
-55.7133
0
LINE
8
BLACK
6
CONTINUOUS
10
131.32
20
-55.7133
11
130.926
21
-55.6349
0
LINE
8
BLACK
6
CONTINUOUS
10
130.926
20
-55.6349
11
130.524
21
-55.6349
0
LINE
8
BLACK
6
CONTINUOUS
10
130.524
20
-55.6349
11
130.13
21
-55.7133
0
LINE
8
BLACK
6
CONTINUOUS
10
130.13
20
-55.7133
11
129.759
21
-55.8671
0
LINE
8
BLACK
6
CONTINUOUS
10
129.759
20
-55.8671
11
129.424
21
-56.0903
0
LINE
8
BLACK
6
CONTINUOUS
10
129.424
20
-56.0903
11
129.14
21
-56.3745
0
LINE
8
BLACK
6
CONTINUOUS
10
129.14
20
-56.3745
11
128.917
21
-56.7086
0
LINE
8
BLACK
6
CONTINUOUS
10
128.917
20
-56.7086
11
128.763
21
-57.0799
0
LINE
8
BLACK
6
CONTINUOUS
10
128.763
20
-57.0799
11
128.685
21
-57.4741
0
LINE
8
BLACK
6
CONTINUOUS
10
128.685
20
-57.4741
11
128.685
21
-57.8759
0
LINE
8
BLACK
6
CONTINUOUS
10
128.685
20
-57.8759
11
128.763
21
-58.2701
0
LINE
8
BLACK
6
CONTINUOUS
10
211.117
20
-51.307
11
211.295
21
-50.8778
0
LINE
8
BLACK
6
CONTINUOUS
10
211.295
20
-50.8778
11
211.553
21
-50.4915
0
LINE
8
BLACK
6
CONTINUOUS
10
211.553
20
-50.4915
11
211.881
21
-50.163
0
LINE
8
BLACK
6
CONTINUOUS
10
211.881
20
-50.163
11
212.268
21
-49.9048
0
LINE
8
BLACK
6
CONTINUOUS
10
212.268
20
-49.9048
11
212.697
21
-49.7271
0
LINE
8
BLACK
6
CONTINUOUS
10
212.697
20
-49.7271
11
213.153
21
-49.6364
0
LINE
8
BLACK
6
CONTINUOUS
10
213.153
20
-49.6364
11
213.617
21
-49.6364
0
LINE
8
BLACK
6
CONTINUOUS
10
213.617
20
-49.6364
11
214.073
21
-49.7271
0
LINE
8
BLACK
6
CONTINUOUS
10
214.073
20
-49.7271
11
214.502
21
-49.9048
0
LINE
8
BLACK
6
CONTINUOUS
10
214.502
20
-49.9048
11
214.889
21
-50.163
0
LINE
8
BLACK
6
CONTINUOUS
10
214.889
20
-50.163
11
215.217
21
-50.4915
0
LINE
8
BLACK
6
CONTINUOUS
10
215.217
20
-50.4915
11
215.475
21
-50.8778
0
LINE
8
BLACK
6
CONTINUOUS
10
215.475
20
-50.8778
11
215.653
21
-51.307
0
LINE
8
BLACK
6
CONTINUOUS
10
215.653
20
-51.307
11
215.744
21
-51.7627
0
LINE
8
BLACK
6
CONTINUOUS
10
215.744
20
-51.7627
11
215.744
21
-52.2273
0
LINE
8
BLACK
6
CONTINUOUS
10
215.744
20
-52.2273
11
215.653
21
-52.683
0
LINE
8
BLACK
6
CONTINUOUS
10
215.653
20
-52.683
11
215.475
21
-53.1122
0
LINE
8
BLACK
6
CONTINUOUS
10
215.475
20
-53.1122
11
215.217
21
-53.4985
0
LINE
8
BLACK
6
CONTINUOUS
10
215.217
20
-53.4985
11
214.889
21
-53.827
0
LINE
8
BLACK
6
CONTINUOUS
10
214.889
20
-53.827
11
214.502
21
-54.0852
0
LINE
8
BLACK
6
CONTINUOUS
10
214.502
20
-54.0852
11
214.073
21
-54.2629
0
LINE
8
BLACK
6
CONTINUOUS
10
214.073
20
-54.2629
11
213.617
21
-54.3536
0
LINE
8
BLACK
6
CONTINUOUS
10
213.617
20
-54.3536
11
213.153
21
-54.3536
0
LINE
8
BLACK
6
CONTINUOUS
10
213.153
20
-54.3536
11
212.697
21
-54.2629
0
LINE
8
BLACK
6
CONTINUOUS
10
212.697
20
-54.2629
11
212.268
21
-54.0852
0
LINE
8
BLACK
6
CONTINUOUS
10
212.268
20
-54.0852
11
211.881
21
-53.827
0
LINE
8
BLACK
6
CONTINUOUS
10
211.881
20
-53.827
11
211.553
21
-53.4985
0
LINE
8
BLACK
6
CONTINUOUS
10
211.553
20
-53.4985
11
211.295
21
-53.1122
0
LINE
8
BLACK
6
CONTINUOUS
10
211.295
20
-53.1122
11
211.117
21
-52.683
0
LINE
8
BLACK
6
CONTINUOUS
10
211.117
20
-52.683
11
211.026
21
-52.2273
0
LINE
8
BLACK
6
CONTINUOUS
10
211.026
20
-52.2273
11
211.026
21
-51.7627
0
LINE
8
BLACK
6
CONTINUOUS
10
211.026
20
-51.7627
11
211.117
21
-51.307
0
LINE
8
BLACK
6
CONTINUOUS
10
211.423
20
-52.5901
11
211.577
21
-52.9614
0
LINE
8
BLACK
6
CONTINUOUS
10
211.577
20
-52.9614
11
211.8
21
-53.2955
0
LINE
8
BLACK
6
CONTINUOUS
10
211.8
20
-53.2955
11
212.084
21
-53.5797
0
LINE
8
BLACK
6
CONTINUOUS
10
212.084
20
-53.5797
11
212.419
21
-53.8029
0
LINE
8
BLACK
6
CONTINUOUS
10
212.419
20
-53.8029
11
212.79
21
-53.9567
0
LINE
8
BLACK
6
CONTINUOUS
10
212.79
20
-53.9567
11
213.184
21
-54.0351
0
LINE
8
BLACK
6
CONTINUOUS
10
213.184
20
-54.0351
11
213.586
21
-54.0351
0
LINE
8
BLACK
6
CONTINUOUS
10
213.586
20
-54.0351
11
213.98
21
-53.9567
0
LINE
8
BLACK
6
CONTINUOUS
10
213.98
20
-53.9567
11
214.351
21
-53.8029
0
LINE
8
BLACK
6
CONTINUOUS
10
214.351
20
-53.8029
11
214.686
21
-53.5797
0
LINE
8
BLACK
6
CONTINUOUS
10
214.686
20
-53.5797
11
214.97
21
-53.2955
0
LINE
8
BLACK
6
CONTINUOUS
10
214.97
20
-53.2955
11
215.193
21
-52.9614
0
LINE
8
BLACK
6
CONTINUOUS
10
215.193
20
-52.9614
11
215.347
21
-52.5901
0
LINE
8
BLACK
6
CONTINUOUS
10
215.347
20
-52.5901
11
215.425
21
-52.1959
0
LINE
8
BLACK
6
CONTINUOUS
10
215.425
20
-52.1959
11
215.425
21
-51.7941
0
LINE
8
BLACK
6
CONTINUOUS
10
215.425
20
-51.7941
11
215.347
21
-51.3999
0
LINE
8
BLACK
6
CONTINUOUS
10
215.347
20
-51.3999
11
215.193
21
-51.0286
0
LINE
8
BLACK
6
CONTINUOUS
10
215.193
20
-51.0286
11
214.97
21
-50.6945
0
LINE
8
BLACK
6
CONTINUOUS
10
214.97
20
-50.6945
11
214.686
21
-50.4103
0
LINE
8
BLACK
6
CONTINUOUS
10
214.686
20
-50.4103
11
214.351
21
-50.1871
0
LINE
8
BLACK
6
CONTINUOUS
10
214.351
20
-50.1871
11
213.98
21
-50.0333
0
LINE
8
BLACK
6
CONTINUOUS
10
213.98
20
-50.0333
11
213.586
21
-49.9549
0
LINE
8
BLACK
6
CONTINUOUS
10
213.586
20
-49.9549
11
213.184
21
-49.9549
0
LINE
8
BLACK
6
CONTINUOUS
10
213.184
20
-49.9549
11
212.79
21
-50.0333
0
LINE
8
BLACK
6
CONTINUOUS
10
212.79
20
-50.0333
11
212.419
21
-50.1871
0
LINE
8
BLACK
6
CONTINUOUS
10
212.419
20
-50.1871
11
212.084
21
-50.4103
0
LINE
8
BLACK
6
CONTINUOUS
10
212.084
20
-50.4103
11
211.8
21
-50.6945
0
LINE
8
BLACK
6
CONTINUOUS
10
211.8
20
-50.6945
11
211.577
21
-51.0286
0
LINE
8
BLACK
6
CONTINUOUS
10
211.577
20
-51.0286
11
211.423
21
-51.3999
0
LINE
8
BLACK
6
CONTINUOUS
10
211.423
20
-51.3999
11
211.345
21
-51.7941
0
LINE
8
BLACK
6
CONTINUOUS
10
211.345
20
-51.7941
11
211.345
21
-52.1959
0
LINE
8
BLACK
6
CONTINUOUS
10
211.345
20
-52.1959
11
211.423
21
-52.5901
0
LINE
8
BLACK
6
CONTINUOUS
10
96.8171
20
-46.227
11
96.9948
21
-45.7978
0
LINE
8
BLACK
6
CONTINUOUS
10
96.9948
20
-45.7978
11
97.253
21
-45.4115
0
LINE
8
BLACK
6
CONTINUOUS
10
97.253
20
-45.4115
11
97.5815
21
-45.083
0
LINE
8
BLACK
6
CONTINUOUS
10
97.5815
20
-45.083
11
97.9678
21
-44.8248
0
LINE
8
BLACK
6
CONTINUOUS
10
97.9678
20
-44.8248
11
98.397
21
-44.6471
0
LINE
8
BLACK
6
CONTINUOUS
10
98.397
20
-44.6471
11
98.8527
21
-44.5564
0
LINE
8
BLACK
6
CONTINUOUS
10
98.8527
20
-44.5564
11
99.3173
21
-44.5564
0
LINE
8
BLACK
6
CONTINUOUS
10
99.3173
20
-44.5564
11
99.773
21
-44.6471
0
LINE
8
BLACK
6
CONTINUOUS
10
99.773
20
-44.6471
11
100.202
21
-44.8248
0
LINE
8
BLACK
6
CONTINUOUS
10
100.202
20
-44.8248
11
100.589
21
-45.083
0
LINE
8
BLACK
6
CONTINUOUS
10
100.589
20
-45.083
11
100.917
21
-45.4115
0
LINE
8
BLACK
6
CONTINUOUS
10
100.917
20
-45.4115
11
101.175
21
-45.7978
0
LINE
8
BLACK
6
CONTINUOUS
10
101.175
20
-45.7978
11
101.353
21
-46.227
0
LINE
8
BLACK
6
CONTINUOUS
10
101.353
20
-46.227
11
101.444
21
-46.6827
0
LINE
8
BLACK
6
CONTINUOUS
10
101.444
20
-46.6827
11
101.444
21
-47.1473
0
LINE
8
BLACK
6
CONTINUOUS
10
101.444
20
-47.1473
11
101.353
21
-47.603
0
LINE
8
BLACK
6
CONTINUOUS
10
101.353
20
-47.603
11
101.175
21
-48.0322
0
LINE
8
BLACK
6
CONTINUOUS
10
101.175
20
-48.0322
11
100.917
21
-48.4185
0
LINE
8
BLACK
6
CONTINUOUS
10
100.917
20
-48.4185
11
100.589
21
-48.747
0
LINE
8
BLACK
6
CONTINUOUS
10
100.589
20
-48.747
11
100.202
21
-49.0052
0
LINE
8
BLACK
6
CONTINUOUS
10
100.202
20
-49.0052
11
99.773
21
-49.1829
0
LINE
8
BLACK
6
CONTINUOUS
10
99.773
20
-49.1829
11
99.3173
21
-49.2736
0
LINE
8
BLACK
6
CONTINUOUS
10
99.3173
20
-49.2736
11
98.8527
21
-49.2736
0
LINE
8
BLACK
6
CONTINUOUS
10
98.8527
20
-49.2736
11
98.397
21
-49.1829
0
LINE
8
BLACK
6
CONTINUOUS
10
98.397
20
-49.1829
11
97.9678
21
-49.0052
0
LINE
8
BLACK
6
CONTINUOUS
10
97.9678
20
-49.0052
11
97.5815
21
-48.747
0
LINE
8
BLACK
6
CONTINUOUS
10
97.5815
20
-48.747
11
97.253
21
-48.4185
0
LINE
8
BLACK
6
CONTINUOUS
10
97.253
20
-48.4185
11
96.9948
21
-48.0322
0
LINE
8
BLACK
6
CONTINUOUS
10
96.9948
20
-48.0322
11
96.8171
21
-47.603
0
LINE
8
BLACK
6
CONTINUOUS
10
96.8171
20
-47.603
11
96.7264
21
-47.1473
0
LINE
8
BLACK
6
CONTINUOUS
10
96.7264
20
-47.1473
11
96.7264
21
-46.6827
0
LINE
8
BLACK
6
CONTINUOUS
10
96.7264
20
-46.6827
11
96.8171
21
-46.227
0
LINE
8
BLACK
6
CONTINUOUS
10
97.1233
20
-47.5101
11
97.2771
21
-47.8814
0
LINE
8
BLACK
6
CONTINUOUS
10
97.2771
20
-47.8814
11
97.5003
21
-48.2155
0
LINE
8
BLACK
6
CONTINUOUS
10
97.5003
20
-48.2155
11
97.7845
21
-48.4997
0
LINE
8
BLACK
6
CONTINUOUS
10
97.7845
20
-48.4997
11
98.1186
21
-48.7229
0
LINE
8
BLACK
6
CONTINUOUS
10
98.1186
20
-48.7229
11
98.4899
21
-48.8767
0
LINE
8
BLACK
6
CONTINUOUS
10
98.4899
20
-48.8767
11
98.8841
21
-48.9551
0
LINE
8
BLACK
6
CONTINUOUS
10
98.8841
20
-48.9551
11
99.2859
21
-48.9551
0
LINE
8
BLACK
6
CONTINUOUS
10
99.2859
20
-48.9551
11
99.6801
21
-48.8767
0
LINE
8
BLACK
6
CONTINUOUS
10
99.6801
20
-48.8767
11
100.051
21
-48.7229
0
LINE
8
BLACK
6
CONTINUOUS
10
100.051
20
-48.7229
11
100.386
21
-48.4997
0
LINE
8
BLACK
6
CONTINUOUS
10
100.386
20
-48.4997
11
100.67
21
-48.2155
0
LINE
8
BLACK
6
CONTINUOUS
10
100.67
20
-48.2155
11
100.893
21
-47.8814
0
LINE
8
BLACK
6
CONTINUOUS
10
100.893
20
-47.8814
11
101.047
21
-47.5101
0
LINE
8
BLACK
6
CONTINUOUS
10
101.047
20
-47.5101
11
101.125
21
-47.1159
0
LINE
8
BLACK
6
CONTINUOUS
10
101.125
20
-47.1159
11
101.125
21
-46.7141
0
LINE
8
BLACK
6
CONTINUOUS
10
101.125
20
-46.7141
11
101.047
21
-46.3199
0
LINE
8
BLACK
6
CONTINUOUS
10
101.047
20
-46.3199
11
100.893
21
-45.9486
0
LINE
8
BLACK
6
CONTINUOUS
10
100.893
20
-45.9486
11
100.67
21
-45.6145
0
LINE
8
BLACK
6
CONTINUOUS
10
100.67
20
-45.6145
11
100.386
21
-45.3303
0
LINE
8
BLACK
6
CONTINUOUS
10
100.386
20
-45.3303
11
100.051
21
-45.1071
0
LINE
8
BLACK
6
CONTINUOUS
10
100.051
20
-45.1071
11
99.6801
21
-44.9533
0
LINE
8
BLACK
6
CONTINUOUS
10
99.6801
20
-44.9533
11
99.2859
21
-44.8749
0
LINE
8
BLACK
6
CONTINUOUS
10
99.2859
20
-44.8749
11
98.8841
21
-44.8749
0
LINE
8
BLACK
6
CONTINUOUS
10
98.8841
20
-44.8749
11
98.4899
21
-44.9533
0
LINE
8
BLACK
6
CONTINUOUS
10
98.4899
20
-44.9533
11
98.1186
21
-45.1071
0
LINE
8
BLACK
6
CONTINUOUS
10
98.1186
20
-45.1071
11
97.7845
21
-45.3303
0
LINE
8
BLACK
6
CONTINUOUS
10
97.7845
20
-45.3303
11
97.5003
21
-45.6145
0
LINE
8
BLACK
6
CONTINUOUS
10
97.5003
20
-45.6145
11
97.2771
21
-45.9486
0
LINE
8
BLACK
6
CONTINUOUS
10
97.2771
20
-45.9486
11
97.1233
21
-46.3199
0
LINE
8
BLACK
6
CONTINUOUS
10
97.1233
20
-46.3199
11
97.0449
21
-46.7141
0
LINE
8
BLACK
6
CONTINUOUS
10
97.0449
20
-46.7141
11
97.0449
21
-47.1159
0
LINE
8
BLACK
6
CONTINUOUS
10
97.0449
20
-47.1159
11
97.1233
21
-47.5101
  0
ENDSEC
  0
EOF
