G04 #@! TF.GenerationSoftware,KiCad,Pcbnew,(5.1.10-1-10_14)*
G04 #@! TF.CreationDate,2021-06-06T18:52:18-07:00*
G04 #@! TF.ProjectId,Soflyria,536f666c-7972-4696-912e-6b696361645f,rev?*
G04 #@! TF.SameCoordinates,Original*
G04 #@! TF.FileFunction,Legend,Bot*
G04 #@! TF.FilePolarity,Positive*
%FSLAX46Y46*%
G04 Gerber Fmt 4.6, Leading zero omitted, Abs format (unit mm)*
G04 Created by KiCad (PCBNEW (5.1.10-1-10_14)) date 2021-06-06 18:52:18*
%MOMM*%
%LPD*%
G01*
G04 APERTURE LIST*
%ADD10C,0.150000*%
%ADD11C,0.200000*%
%ADD12C,0.010000*%
%ADD13C,0.300000*%
%ADD14C,3.500000*%
%ADD15C,0.500000*%
%ADD16C,0.400000*%
%ADD17C,1.000000*%
%ADD18C,3.000000*%
%ADD19C,0.800000*%
%ADD20C,0.120000*%
G04 APERTURE END LIST*
D10*
X188771904Y-96989047D02*
X188771904Y-96950952D01*
X188733809Y-96874761D01*
X188619523Y-96760476D01*
X188390952Y-96570000D01*
X188276666Y-96493809D01*
X188162380Y-96455714D01*
X188086190Y-96455714D01*
X188010000Y-96493809D01*
X187971904Y-96570000D01*
X187971904Y-96608095D01*
X188010000Y-96684285D01*
X188086190Y-96722380D01*
X188124285Y-96722380D01*
X188200476Y-96684285D01*
X188238571Y-96646190D01*
X188390952Y-96417619D01*
X188429047Y-96379523D01*
X188505238Y-96341428D01*
X188619523Y-96341428D01*
X188695714Y-96379523D01*
X188733809Y-96417619D01*
X188771904Y-96493809D01*
X188771904Y-96608095D01*
X188733809Y-96684285D01*
X188695714Y-96722380D01*
X188543333Y-96836666D01*
X188429047Y-96874761D01*
X188352857Y-96874761D01*
X188352857Y-97598571D02*
X188390952Y-97712857D01*
X188429047Y-97750952D01*
X188505238Y-97789047D01*
X188619523Y-97789047D01*
X188695714Y-97750952D01*
X188733809Y-97712857D01*
X188771904Y-97636666D01*
X188771904Y-97331904D01*
X187971904Y-97331904D01*
X187971904Y-97598571D01*
X188010000Y-97674761D01*
X188048095Y-97712857D01*
X188124285Y-97750952D01*
X188200476Y-97750952D01*
X188276666Y-97712857D01*
X188314761Y-97674761D01*
X188352857Y-97598571D01*
X188352857Y-97331904D01*
X188771904Y-98512857D02*
X188771904Y-98131904D01*
X187971904Y-98131904D01*
X174632485Y-132854480D02*
X174632485Y-131854480D01*
X174203914Y-132854480D02*
X174203914Y-132330671D01*
X174251533Y-132235433D01*
X174346771Y-132187814D01*
X174489628Y-132187814D01*
X174584866Y-132235433D01*
X174632485Y-132283052D01*
X173870580Y-132187814D02*
X173489628Y-132187814D01*
X173727723Y-131854480D02*
X173727723Y-132711623D01*
X173680104Y-132806861D01*
X173584866Y-132854480D01*
X173489628Y-132854480D01*
X173299152Y-132187814D02*
X172918200Y-132187814D01*
X173156295Y-131854480D02*
X173156295Y-132711623D01*
X173108676Y-132806861D01*
X173013438Y-132854480D01*
X172918200Y-132854480D01*
X172584866Y-132187814D02*
X172584866Y-133187814D01*
X172584866Y-132235433D02*
X172489628Y-132187814D01*
X172299152Y-132187814D01*
X172203914Y-132235433D01*
X172156295Y-132283052D01*
X172108676Y-132378290D01*
X172108676Y-132664004D01*
X172156295Y-132759242D01*
X172203914Y-132806861D01*
X172299152Y-132854480D01*
X172489628Y-132854480D01*
X172584866Y-132806861D01*
X171727723Y-132806861D02*
X171632485Y-132854480D01*
X171442009Y-132854480D01*
X171346771Y-132806861D01*
X171299152Y-132711623D01*
X171299152Y-132664004D01*
X171346771Y-132568766D01*
X171442009Y-132521147D01*
X171584866Y-132521147D01*
X171680104Y-132473528D01*
X171727723Y-132378290D01*
X171727723Y-132330671D01*
X171680104Y-132235433D01*
X171584866Y-132187814D01*
X171442009Y-132187814D01*
X171346771Y-132235433D01*
X170870580Y-132759242D02*
X170822961Y-132806861D01*
X170870580Y-132854480D01*
X170918200Y-132806861D01*
X170870580Y-132759242D01*
X170870580Y-132854480D01*
X170870580Y-132235433D02*
X170822961Y-132283052D01*
X170870580Y-132330671D01*
X170918200Y-132283052D01*
X170870580Y-132235433D01*
X170870580Y-132330671D01*
X169680104Y-131806861D02*
X170537247Y-133092576D01*
X168632485Y-131806861D02*
X169489628Y-133092576D01*
X168299152Y-132187814D02*
X168299152Y-133044957D01*
X168346771Y-133140195D01*
X168442009Y-133187814D01*
X168489628Y-133187814D01*
X168299152Y-131854480D02*
X168346771Y-131902100D01*
X168299152Y-131949719D01*
X168251533Y-131902100D01*
X168299152Y-131854480D01*
X168299152Y-131949719D01*
X167680104Y-132854480D02*
X167775342Y-132806861D01*
X167822961Y-132759242D01*
X167870580Y-132664004D01*
X167870580Y-132378290D01*
X167822961Y-132283052D01*
X167775342Y-132235433D01*
X167680104Y-132187814D01*
X167537247Y-132187814D01*
X167442009Y-132235433D01*
X167394390Y-132283052D01*
X167346771Y-132378290D01*
X167346771Y-132664004D01*
X167394390Y-132759242D01*
X167442009Y-132806861D01*
X167537247Y-132854480D01*
X167680104Y-132854480D01*
X166965819Y-132806861D02*
X166870580Y-132854480D01*
X166680104Y-132854480D01*
X166584866Y-132806861D01*
X166537247Y-132711623D01*
X166537247Y-132664004D01*
X166584866Y-132568766D01*
X166680104Y-132521147D01*
X166822961Y-132521147D01*
X166918200Y-132473528D01*
X166965819Y-132378290D01*
X166965819Y-132330671D01*
X166918200Y-132235433D01*
X166822961Y-132187814D01*
X166680104Y-132187814D01*
X166584866Y-132235433D01*
X165727723Y-132806861D02*
X165822961Y-132854480D01*
X166013438Y-132854480D01*
X166108676Y-132806861D01*
X166156295Y-132711623D01*
X166156295Y-132330671D01*
X166108676Y-132235433D01*
X166013438Y-132187814D01*
X165822961Y-132187814D01*
X165727723Y-132235433D01*
X165680104Y-132330671D01*
X165680104Y-132425909D01*
X166156295Y-132521147D01*
X165394390Y-132187814D02*
X165013438Y-132187814D01*
X165251533Y-132854480D02*
X165251533Y-131997338D01*
X165203914Y-131902100D01*
X165108676Y-131854480D01*
X165013438Y-131854480D01*
X164251533Y-132854480D02*
X164251533Y-132330671D01*
X164299152Y-132235433D01*
X164394390Y-132187814D01*
X164584866Y-132187814D01*
X164680104Y-132235433D01*
X164251533Y-132806861D02*
X164346771Y-132854480D01*
X164584866Y-132854480D01*
X164680104Y-132806861D01*
X164727723Y-132711623D01*
X164727723Y-132616385D01*
X164680104Y-132521147D01*
X164584866Y-132473528D01*
X164346771Y-132473528D01*
X164251533Y-132425909D01*
X163346771Y-132854480D02*
X163346771Y-131854480D01*
X163346771Y-132806861D02*
X163442009Y-132854480D01*
X163632485Y-132854480D01*
X163727723Y-132806861D01*
X163775342Y-132759242D01*
X163822961Y-132664004D01*
X163822961Y-132378290D01*
X163775342Y-132283052D01*
X163727723Y-132235433D01*
X163632485Y-132187814D01*
X163442009Y-132187814D01*
X163346771Y-132235433D01*
X162442009Y-132854480D02*
X162442009Y-132330671D01*
X162489628Y-132235433D01*
X162584866Y-132187814D01*
X162775342Y-132187814D01*
X162870580Y-132235433D01*
X162442009Y-132806861D02*
X162537247Y-132854480D01*
X162775342Y-132854480D01*
X162870580Y-132806861D01*
X162918200Y-132711623D01*
X162918200Y-132616385D01*
X162870580Y-132521147D01*
X162775342Y-132473528D01*
X162537247Y-132473528D01*
X162442009Y-132425909D01*
X161965819Y-132854480D02*
X161965819Y-132187814D01*
X161965819Y-132283052D02*
X161918200Y-132235433D01*
X161822961Y-132187814D01*
X161680104Y-132187814D01*
X161584866Y-132235433D01*
X161537247Y-132330671D01*
X161537247Y-132854480D01*
X161537247Y-132330671D02*
X161489628Y-132235433D01*
X161394390Y-132187814D01*
X161251533Y-132187814D01*
X161156295Y-132235433D01*
X161108676Y-132330671D01*
X161108676Y-132854480D01*
X160203914Y-132806861D02*
X160299152Y-132854480D01*
X160489628Y-132854480D01*
X160584866Y-132806861D01*
X160632485Y-132759242D01*
X160680104Y-132664004D01*
X160680104Y-132378290D01*
X160632485Y-132283052D01*
X160584866Y-132235433D01*
X160489628Y-132187814D01*
X160299152Y-132187814D01*
X160203914Y-132235433D01*
X159775342Y-132854480D02*
X159775342Y-132187814D01*
X159775342Y-131854480D02*
X159822961Y-131902100D01*
X159775342Y-131949719D01*
X159727723Y-131902100D01*
X159775342Y-131854480D01*
X159775342Y-131949719D01*
X159299152Y-132854480D02*
X159299152Y-131854480D01*
X159203914Y-132473528D02*
X158918200Y-132854480D01*
X158918200Y-132187814D02*
X159299152Y-132568766D01*
X158489628Y-132759242D02*
X158442009Y-132806861D01*
X158489628Y-132854480D01*
X158537247Y-132806861D01*
X158489628Y-132759242D01*
X158489628Y-132854480D01*
X157584866Y-132187814D02*
X157584866Y-132997338D01*
X157632485Y-133092576D01*
X157680104Y-133140195D01*
X157775342Y-133187814D01*
X157918200Y-133187814D01*
X158013438Y-133140195D01*
X157584866Y-132806861D02*
X157680104Y-132854480D01*
X157870580Y-132854480D01*
X157965819Y-132806861D01*
X158013438Y-132759242D01*
X158061057Y-132664004D01*
X158061057Y-132378290D01*
X158013438Y-132283052D01*
X157965819Y-132235433D01*
X157870580Y-132187814D01*
X157680104Y-132187814D01*
X157584866Y-132235433D01*
X157108676Y-132854480D02*
X157108676Y-132187814D01*
X157108676Y-131854480D02*
X157156295Y-131902100D01*
X157108676Y-131949719D01*
X157061057Y-131902100D01*
X157108676Y-131854480D01*
X157108676Y-131949719D01*
X156775342Y-132187814D02*
X156394390Y-132187814D01*
X156632485Y-131854480D02*
X156632485Y-132711623D01*
X156584866Y-132806861D01*
X156489628Y-132854480D01*
X156394390Y-132854480D01*
X156061057Y-132854480D02*
X156061057Y-131854480D01*
X155632485Y-132854480D02*
X155632485Y-132330671D01*
X155680104Y-132235433D01*
X155775342Y-132187814D01*
X155918200Y-132187814D01*
X156013438Y-132235433D01*
X156061057Y-132283052D01*
X154727723Y-132187814D02*
X154727723Y-132854480D01*
X155156295Y-132187814D02*
X155156295Y-132711623D01*
X155108676Y-132806861D01*
X155013438Y-132854480D01*
X154870580Y-132854480D01*
X154775342Y-132806861D01*
X154727723Y-132759242D01*
X154251533Y-132854480D02*
X154251533Y-131854480D01*
X154251533Y-132235433D02*
X154156295Y-132187814D01*
X153965819Y-132187814D01*
X153870580Y-132235433D01*
X153822961Y-132283052D01*
X153775342Y-132378290D01*
X153775342Y-132664004D01*
X153822961Y-132759242D01*
X153870580Y-132806861D01*
X153965819Y-132854480D01*
X154156295Y-132854480D01*
X154251533Y-132806861D01*
X153346771Y-132759242D02*
X153299152Y-132806861D01*
X153346771Y-132854480D01*
X153394390Y-132806861D01*
X153346771Y-132759242D01*
X153346771Y-132854480D01*
X152870580Y-132854480D02*
X152870580Y-132187814D01*
X152870580Y-131854480D02*
X152918200Y-131902100D01*
X152870580Y-131949719D01*
X152822961Y-131902100D01*
X152870580Y-131854480D01*
X152870580Y-131949719D01*
X152251533Y-132854480D02*
X152346771Y-132806861D01*
X152394390Y-132759242D01*
X152442009Y-132664004D01*
X152442009Y-132378290D01*
X152394390Y-132283052D01*
X152346771Y-132235433D01*
X152251533Y-132187814D01*
X152108676Y-132187814D01*
X152013438Y-132235433D01*
X151965819Y-132283052D01*
X151918200Y-132378290D01*
X151918200Y-132664004D01*
X151965819Y-132759242D01*
X152013438Y-132806861D01*
X152108676Y-132854480D01*
X152251533Y-132854480D01*
X150775342Y-131806861D02*
X151632485Y-133092576D01*
X150489628Y-132806861D02*
X150346771Y-132854480D01*
X150108676Y-132854480D01*
X150013438Y-132806861D01*
X149965819Y-132759242D01*
X149918200Y-132664004D01*
X149918200Y-132568766D01*
X149965819Y-132473528D01*
X150013438Y-132425909D01*
X150108676Y-132378290D01*
X150299152Y-132330671D01*
X150394390Y-132283052D01*
X150442009Y-132235433D01*
X150489628Y-132140195D01*
X150489628Y-132044957D01*
X150442009Y-131949719D01*
X150394390Y-131902100D01*
X150299152Y-131854480D01*
X150061057Y-131854480D01*
X149918200Y-131902100D01*
X149346771Y-132854480D02*
X149442009Y-132806861D01*
X149489628Y-132759242D01*
X149537247Y-132664004D01*
X149537247Y-132378290D01*
X149489628Y-132283052D01*
X149442009Y-132235433D01*
X149346771Y-132187814D01*
X149203914Y-132187814D01*
X149108676Y-132235433D01*
X149061057Y-132283052D01*
X149013438Y-132378290D01*
X149013438Y-132664004D01*
X149061057Y-132759242D01*
X149108676Y-132806861D01*
X149203914Y-132854480D01*
X149346771Y-132854480D01*
X148727723Y-132187814D02*
X148346771Y-132187814D01*
X148584866Y-132854480D02*
X148584866Y-131997338D01*
X148537247Y-131902100D01*
X148442009Y-131854480D01*
X148346771Y-131854480D01*
X147870580Y-132854480D02*
X147965819Y-132806861D01*
X148013438Y-132711623D01*
X148013438Y-131854480D01*
X147108676Y-132806861D02*
X147203914Y-132854480D01*
X147394390Y-132854480D01*
X147489628Y-132806861D01*
X147537247Y-132711623D01*
X147537247Y-132330671D01*
X147489628Y-132235433D01*
X147394390Y-132187814D01*
X147203914Y-132187814D01*
X147108676Y-132235433D01*
X147061057Y-132330671D01*
X147061057Y-132425909D01*
X147537247Y-132521147D01*
X146632485Y-132854480D02*
X146632485Y-131854480D01*
X146061057Y-132854480D02*
X146489628Y-132283052D01*
X146061057Y-131854480D02*
X146632485Y-132425909D01*
X145251533Y-132806861D02*
X145346771Y-132854480D01*
X145537247Y-132854480D01*
X145632485Y-132806861D01*
X145680104Y-132711623D01*
X145680104Y-132330671D01*
X145632485Y-132235433D01*
X145537247Y-132187814D01*
X145346771Y-132187814D01*
X145251533Y-132235433D01*
X145203914Y-132330671D01*
X145203914Y-132425909D01*
X145680104Y-132521147D01*
X144870580Y-132187814D02*
X144632485Y-132854480D01*
X144394390Y-132187814D02*
X144632485Y-132854480D01*
X144727723Y-133092576D01*
X144775342Y-133140195D01*
X144870580Y-133187814D01*
X144013438Y-132854480D02*
X144013438Y-131854480D01*
X144013438Y-132235433D02*
X143918200Y-132187814D01*
X143727723Y-132187814D01*
X143632485Y-132235433D01*
X143584866Y-132283052D01*
X143537247Y-132378290D01*
X143537247Y-132664004D01*
X143584866Y-132759242D01*
X143632485Y-132806861D01*
X143727723Y-132854480D01*
X143918200Y-132854480D01*
X144013438Y-132806861D01*
X142965819Y-132854480D02*
X143061057Y-132806861D01*
X143108676Y-132759242D01*
X143156295Y-132664004D01*
X143156295Y-132378290D01*
X143108676Y-132283052D01*
X143061057Y-132235433D01*
X142965819Y-132187814D01*
X142822961Y-132187814D01*
X142727723Y-132235433D01*
X142680104Y-132283052D01*
X142632485Y-132378290D01*
X142632485Y-132664004D01*
X142680104Y-132759242D01*
X142727723Y-132806861D01*
X142822961Y-132854480D01*
X142965819Y-132854480D01*
X141775342Y-132854480D02*
X141775342Y-132330671D01*
X141822961Y-132235433D01*
X141918200Y-132187814D01*
X142108676Y-132187814D01*
X142203914Y-132235433D01*
X141775342Y-132806861D02*
X141870580Y-132854480D01*
X142108676Y-132854480D01*
X142203914Y-132806861D01*
X142251533Y-132711623D01*
X142251533Y-132616385D01*
X142203914Y-132521147D01*
X142108676Y-132473528D01*
X141870580Y-132473528D01*
X141775342Y-132425909D01*
X141299152Y-132854480D02*
X141299152Y-132187814D01*
X141299152Y-132378290D02*
X141251533Y-132283052D01*
X141203914Y-132235433D01*
X141108676Y-132187814D01*
X141013438Y-132187814D01*
X140251533Y-132854480D02*
X140251533Y-131854480D01*
X140251533Y-132806861D02*
X140346771Y-132854480D01*
X140537247Y-132854480D01*
X140632485Y-132806861D01*
X140680104Y-132759242D01*
X140727723Y-132664004D01*
X140727723Y-132378290D01*
X140680104Y-132283052D01*
X140632485Y-132235433D01*
X140537247Y-132187814D01*
X140346771Y-132187814D01*
X140251533Y-132235433D01*
X139061057Y-131806861D02*
X139918200Y-133092576D01*
D11*
X136678571Y-39452380D02*
X136678571Y-38452380D01*
X136297619Y-38452380D01*
X136202380Y-38500000D01*
X136154761Y-38547619D01*
X136107142Y-38642857D01*
X136107142Y-38785714D01*
X136154761Y-38880952D01*
X136202380Y-38928571D01*
X136297619Y-38976190D01*
X136678571Y-38976190D01*
X135678571Y-39452380D02*
X135678571Y-38785714D01*
X135678571Y-38452380D02*
X135726190Y-38500000D01*
X135678571Y-38547619D01*
X135630952Y-38500000D01*
X135678571Y-38452380D01*
X135678571Y-38547619D01*
X135202380Y-38785714D02*
X135202380Y-39452380D01*
X135202380Y-38880952D02*
X135154761Y-38833333D01*
X135059523Y-38785714D01*
X134916666Y-38785714D01*
X134821428Y-38833333D01*
X134773809Y-38928571D01*
X134773809Y-39452380D01*
X133869047Y-38785714D02*
X133869047Y-39595238D01*
X133916666Y-39690476D01*
X133964285Y-39738095D01*
X134059523Y-39785714D01*
X134202380Y-39785714D01*
X134297619Y-39738095D01*
X133869047Y-39404761D02*
X133964285Y-39452380D01*
X134154761Y-39452380D01*
X134250000Y-39404761D01*
X134297619Y-39357142D01*
X134345238Y-39261904D01*
X134345238Y-38976190D01*
X134297619Y-38880952D01*
X134250000Y-38833333D01*
X134154761Y-38785714D01*
X133964285Y-38785714D01*
X133869047Y-38833333D01*
X132964285Y-38785714D02*
X132964285Y-39452380D01*
X133392857Y-38785714D02*
X133392857Y-39309523D01*
X133345238Y-39404761D01*
X133250000Y-39452380D01*
X133107142Y-39452380D01*
X133011904Y-39404761D01*
X132964285Y-39357142D01*
X131154761Y-39452380D02*
X131488095Y-38976190D01*
X131726190Y-39452380D02*
X131726190Y-38452380D01*
X131345238Y-38452380D01*
X131250000Y-38500000D01*
X131202380Y-38547619D01*
X131154761Y-38642857D01*
X131154761Y-38785714D01*
X131202380Y-38880952D01*
X131250000Y-38928571D01*
X131345238Y-38976190D01*
X131726190Y-38976190D01*
X130202380Y-38500000D02*
X130297619Y-38452380D01*
X130440476Y-38452380D01*
X130583333Y-38500000D01*
X130678571Y-38595238D01*
X130726190Y-38690476D01*
X130773809Y-38880952D01*
X130773809Y-39023809D01*
X130726190Y-39214285D01*
X130678571Y-39309523D01*
X130583333Y-39404761D01*
X130440476Y-39452380D01*
X130345238Y-39452380D01*
X130202380Y-39404761D01*
X130154761Y-39357142D01*
X130154761Y-39023809D01*
X130345238Y-39023809D01*
X129392857Y-38928571D02*
X129250000Y-38976190D01*
X129202380Y-39023809D01*
X129154761Y-39119047D01*
X129154761Y-39261904D01*
X129202380Y-39357142D01*
X129250000Y-39404761D01*
X129345238Y-39452380D01*
X129726190Y-39452380D01*
X129726190Y-38452380D01*
X129392857Y-38452380D01*
X129297619Y-38500000D01*
X129250000Y-38547619D01*
X129202380Y-38642857D01*
X129202380Y-38738095D01*
X129250000Y-38833333D01*
X129297619Y-38880952D01*
X129392857Y-38928571D01*
X129726190Y-38928571D01*
X128678571Y-39404761D02*
X128678571Y-39452380D01*
X128726190Y-39547619D01*
X128773809Y-39595238D01*
X127488095Y-39452380D02*
X127488095Y-38452380D01*
X127488095Y-38833333D02*
X127392857Y-38785714D01*
X127202380Y-38785714D01*
X127107142Y-38833333D01*
X127059523Y-38880952D01*
X127011904Y-38976190D01*
X127011904Y-39261904D01*
X127059523Y-39357142D01*
X127107142Y-39404761D01*
X127202380Y-39452380D01*
X127392857Y-39452380D01*
X127488095Y-39404761D01*
X126154761Y-39452380D02*
X126154761Y-38928571D01*
X126202380Y-38833333D01*
X126297619Y-38785714D01*
X126488095Y-38785714D01*
X126583333Y-38833333D01*
X126154761Y-39404761D02*
X126250000Y-39452380D01*
X126488095Y-39452380D01*
X126583333Y-39404761D01*
X126630952Y-39309523D01*
X126630952Y-39214285D01*
X126583333Y-39119047D01*
X126488095Y-39071428D01*
X126250000Y-39071428D01*
X126154761Y-39023809D01*
X125726190Y-39404761D02*
X125630952Y-39452380D01*
X125440476Y-39452380D01*
X125345238Y-39404761D01*
X125297619Y-39309523D01*
X125297619Y-39261904D01*
X125345238Y-39166666D01*
X125440476Y-39119047D01*
X125583333Y-39119047D01*
X125678571Y-39071428D01*
X125726190Y-38976190D01*
X125726190Y-38928571D01*
X125678571Y-38833333D01*
X125583333Y-38785714D01*
X125440476Y-38785714D01*
X125345238Y-38833333D01*
X124488095Y-39404761D02*
X124583333Y-39452380D01*
X124773809Y-39452380D01*
X124869047Y-39404761D01*
X124916666Y-39309523D01*
X124916666Y-38928571D01*
X124869047Y-38833333D01*
X124773809Y-38785714D01*
X124583333Y-38785714D01*
X124488095Y-38833333D01*
X124440476Y-38928571D01*
X124440476Y-39023809D01*
X124916666Y-39119047D01*
X123583333Y-39452380D02*
X123583333Y-38452380D01*
X123583333Y-39404761D02*
X123678571Y-39452380D01*
X123869047Y-39452380D01*
X123964285Y-39404761D01*
X124011904Y-39357142D01*
X124059523Y-39261904D01*
X124059523Y-38976190D01*
X124011904Y-38880952D01*
X123964285Y-38833333D01*
X123869047Y-38785714D01*
X123678571Y-38785714D01*
X123583333Y-38833333D01*
X122202380Y-39452380D02*
X122297619Y-39404761D01*
X122345238Y-39357142D01*
X122392857Y-39261904D01*
X122392857Y-38976190D01*
X122345238Y-38880952D01*
X122297619Y-38833333D01*
X122202380Y-38785714D01*
X122059523Y-38785714D01*
X121964285Y-38833333D01*
X121916666Y-38880952D01*
X121869047Y-38976190D01*
X121869047Y-39261904D01*
X121916666Y-39357142D01*
X121964285Y-39404761D01*
X122059523Y-39452380D01*
X122202380Y-39452380D01*
X121440476Y-38785714D02*
X121440476Y-39452380D01*
X121440476Y-38880952D02*
X121392857Y-38833333D01*
X121297619Y-38785714D01*
X121154761Y-38785714D01*
X121059523Y-38833333D01*
X121011904Y-38928571D01*
X121011904Y-39452380D01*
X119821428Y-39404761D02*
X119678571Y-39452380D01*
X119440476Y-39452380D01*
X119345238Y-39404761D01*
X119297619Y-39357142D01*
X119250000Y-39261904D01*
X119250000Y-39166666D01*
X119297619Y-39071428D01*
X119345238Y-39023809D01*
X119440476Y-38976190D01*
X119630952Y-38928571D01*
X119726190Y-38880952D01*
X119773809Y-38833333D01*
X119821428Y-38738095D01*
X119821428Y-38642857D01*
X119773809Y-38547619D01*
X119726190Y-38500000D01*
X119630952Y-38452380D01*
X119392857Y-38452380D01*
X119250000Y-38500000D01*
X118678571Y-39452380D02*
X118773809Y-39404761D01*
X118821428Y-39357142D01*
X118869047Y-39261904D01*
X118869047Y-38976190D01*
X118821428Y-38880952D01*
X118773809Y-38833333D01*
X118678571Y-38785714D01*
X118535714Y-38785714D01*
X118440476Y-38833333D01*
X118392857Y-38880952D01*
X118345238Y-38976190D01*
X118345238Y-39261904D01*
X118392857Y-39357142D01*
X118440476Y-39404761D01*
X118535714Y-39452380D01*
X118678571Y-39452380D01*
X118059523Y-38785714D02*
X117678571Y-38785714D01*
X117916666Y-39452380D02*
X117916666Y-38595238D01*
X117869047Y-38500000D01*
X117773809Y-38452380D01*
X117678571Y-38452380D01*
X117202380Y-39452380D02*
X117297619Y-39404761D01*
X117345238Y-39309523D01*
X117345238Y-38452380D01*
X116440476Y-39404761D02*
X116535714Y-39452380D01*
X116726190Y-39452380D01*
X116821428Y-39404761D01*
X116869047Y-39309523D01*
X116869047Y-38928571D01*
X116821428Y-38833333D01*
X116726190Y-38785714D01*
X116535714Y-38785714D01*
X116440476Y-38833333D01*
X116392857Y-38928571D01*
X116392857Y-39023809D01*
X116869047Y-39119047D01*
X114630952Y-39452380D02*
X114964285Y-38976190D01*
X115202380Y-39452380D02*
X115202380Y-38452380D01*
X114821428Y-38452380D01*
X114726190Y-38500000D01*
X114678571Y-38547619D01*
X114630952Y-38642857D01*
X114630952Y-38785714D01*
X114678571Y-38880952D01*
X114726190Y-38928571D01*
X114821428Y-38976190D01*
X115202380Y-38976190D01*
X113678571Y-38500000D02*
X113773809Y-38452380D01*
X113916666Y-38452380D01*
X114059523Y-38500000D01*
X114154761Y-38595238D01*
X114202380Y-38690476D01*
X114250000Y-38880952D01*
X114250000Y-39023809D01*
X114202380Y-39214285D01*
X114154761Y-39309523D01*
X114059523Y-39404761D01*
X113916666Y-39452380D01*
X113821428Y-39452380D01*
X113678571Y-39404761D01*
X113630952Y-39357142D01*
X113630952Y-39023809D01*
X113821428Y-39023809D01*
X112869047Y-38928571D02*
X112726190Y-38976190D01*
X112678571Y-39023809D01*
X112630952Y-39119047D01*
X112630952Y-39261904D01*
X112678571Y-39357142D01*
X112726190Y-39404761D01*
X112821428Y-39452380D01*
X113202380Y-39452380D01*
X113202380Y-38452380D01*
X112869047Y-38452380D01*
X112773809Y-38500000D01*
X112726190Y-38547619D01*
X112678571Y-38642857D01*
X112678571Y-38738095D01*
X112726190Y-38833333D01*
X112773809Y-38880952D01*
X112869047Y-38928571D01*
X113202380Y-38928571D01*
X112154761Y-39404761D02*
X112154761Y-39452380D01*
X112202380Y-39547619D01*
X112250000Y-39595238D01*
X110821428Y-39452380D02*
X110916666Y-39404761D01*
X110964285Y-39357142D01*
X111011904Y-39261904D01*
X111011904Y-38976190D01*
X110964285Y-38880952D01*
X110916666Y-38833333D01*
X110821428Y-38785714D01*
X110678571Y-38785714D01*
X110583333Y-38833333D01*
X110535714Y-38880952D01*
X110488095Y-38976190D01*
X110488095Y-39261904D01*
X110535714Y-39357142D01*
X110583333Y-39404761D01*
X110678571Y-39452380D01*
X110821428Y-39452380D01*
X110059523Y-39452380D02*
X110059523Y-38785714D01*
X110059523Y-38976190D02*
X110011904Y-38880952D01*
X109964285Y-38833333D01*
X109869047Y-38785714D01*
X109773809Y-38785714D01*
X109440476Y-39452380D02*
X109440476Y-38785714D01*
X109440476Y-38452380D02*
X109488095Y-38500000D01*
X109440476Y-38547619D01*
X109392857Y-38500000D01*
X109440476Y-38452380D01*
X109440476Y-38547619D01*
X108535714Y-38785714D02*
X108535714Y-39595238D01*
X108583333Y-39690476D01*
X108630952Y-39738095D01*
X108726190Y-39785714D01*
X108869047Y-39785714D01*
X108964285Y-39738095D01*
X108535714Y-39404761D02*
X108630952Y-39452380D01*
X108821428Y-39452380D01*
X108916666Y-39404761D01*
X108964285Y-39357142D01*
X109011904Y-39261904D01*
X109011904Y-38976190D01*
X108964285Y-38880952D01*
X108916666Y-38833333D01*
X108821428Y-38785714D01*
X108630952Y-38785714D01*
X108535714Y-38833333D01*
X108059523Y-39452380D02*
X108059523Y-38785714D01*
X108059523Y-38452380D02*
X108107142Y-38500000D01*
X108059523Y-38547619D01*
X108011904Y-38500000D01*
X108059523Y-38452380D01*
X108059523Y-38547619D01*
X107583333Y-38785714D02*
X107583333Y-39452380D01*
X107583333Y-38880952D02*
X107535714Y-38833333D01*
X107440476Y-38785714D01*
X107297619Y-38785714D01*
X107202380Y-38833333D01*
X107154761Y-38928571D01*
X107154761Y-39452380D01*
X106250000Y-39452380D02*
X106250000Y-38928571D01*
X106297619Y-38833333D01*
X106392857Y-38785714D01*
X106583333Y-38785714D01*
X106678571Y-38833333D01*
X106250000Y-39404761D02*
X106345238Y-39452380D01*
X106583333Y-39452380D01*
X106678571Y-39404761D01*
X106726190Y-39309523D01*
X106726190Y-39214285D01*
X106678571Y-39119047D01*
X106583333Y-39071428D01*
X106345238Y-39071428D01*
X106250000Y-39023809D01*
X105630952Y-39452380D02*
X105726190Y-39404761D01*
X105773809Y-39309523D01*
X105773809Y-38452380D01*
X104488095Y-39452380D02*
X104488095Y-38452380D01*
X104488095Y-38833333D02*
X104392857Y-38785714D01*
X104202380Y-38785714D01*
X104107142Y-38833333D01*
X104059523Y-38880952D01*
X104011904Y-38976190D01*
X104011904Y-39261904D01*
X104059523Y-39357142D01*
X104107142Y-39404761D01*
X104202380Y-39452380D01*
X104392857Y-39452380D01*
X104488095Y-39404761D01*
X103678571Y-38785714D02*
X103440476Y-39452380D01*
X103202380Y-38785714D02*
X103440476Y-39452380D01*
X103535714Y-39690476D01*
X103583333Y-39738095D01*
X103678571Y-39785714D01*
X101773809Y-38452380D02*
X101773809Y-39166666D01*
X101821428Y-39309523D01*
X101916666Y-39404761D01*
X102059523Y-39452380D01*
X102154761Y-39452380D01*
X101154761Y-39452380D02*
X101250000Y-39404761D01*
X101297619Y-39357142D01*
X101345238Y-39261904D01*
X101345238Y-38976190D01*
X101297619Y-38880952D01*
X101250000Y-38833333D01*
X101154761Y-38785714D01*
X101011904Y-38785714D01*
X100916666Y-38833333D01*
X100869047Y-38880952D01*
X100821428Y-38976190D01*
X100821428Y-39261904D01*
X100869047Y-39357142D01*
X100916666Y-39404761D01*
X101011904Y-39452380D01*
X101154761Y-39452380D01*
X100440476Y-39404761D02*
X100345238Y-39452380D01*
X100154761Y-39452380D01*
X100059523Y-39404761D01*
X100011904Y-39309523D01*
X100011904Y-39261904D01*
X100059523Y-39166666D01*
X100154761Y-39119047D01*
X100297619Y-39119047D01*
X100392857Y-39071428D01*
X100440476Y-38976190D01*
X100440476Y-38928571D01*
X100392857Y-38833333D01*
X100297619Y-38785714D01*
X100154761Y-38785714D01*
X100059523Y-38833333D01*
X99202380Y-39404761D02*
X99297619Y-39452380D01*
X99488095Y-39452380D01*
X99583333Y-39404761D01*
X99630952Y-39309523D01*
X99630952Y-38928571D01*
X99583333Y-38833333D01*
X99488095Y-38785714D01*
X99297619Y-38785714D01*
X99202380Y-38833333D01*
X99154761Y-38928571D01*
X99154761Y-39023809D01*
X99630952Y-39119047D01*
X98869047Y-38785714D02*
X98488095Y-38785714D01*
X98726190Y-39452380D02*
X98726190Y-38595238D01*
X98678571Y-38500000D01*
X98583333Y-38452380D01*
X98488095Y-38452380D01*
X97440476Y-39166666D02*
X96964285Y-39166666D01*
X97535714Y-39452380D02*
X97202380Y-38452380D01*
X96869047Y-39452380D01*
X96107142Y-39452380D02*
X96107142Y-38452380D01*
X96107142Y-39404761D02*
X96202380Y-39452380D01*
X96392857Y-39452380D01*
X96488095Y-39404761D01*
X96535714Y-39357142D01*
X96583333Y-39261904D01*
X96583333Y-38976190D01*
X96535714Y-38880952D01*
X96488095Y-38833333D01*
X96392857Y-38785714D01*
X96202380Y-38785714D01*
X96107142Y-38833333D01*
X95202380Y-39452380D02*
X95202380Y-38928571D01*
X95250000Y-38833333D01*
X95345238Y-38785714D01*
X95535714Y-38785714D01*
X95630952Y-38833333D01*
X95202380Y-39404761D02*
X95297619Y-39452380D01*
X95535714Y-39452380D01*
X95630952Y-39404761D01*
X95678571Y-39309523D01*
X95678571Y-39214285D01*
X95630952Y-39119047D01*
X95535714Y-39071428D01*
X95297619Y-39071428D01*
X95202380Y-39023809D01*
X94726190Y-39452380D02*
X94726190Y-38785714D01*
X94726190Y-38880952D02*
X94678571Y-38833333D01*
X94583333Y-38785714D01*
X94440476Y-38785714D01*
X94345238Y-38833333D01*
X94297619Y-38928571D01*
X94297619Y-39452380D01*
X94297619Y-38928571D02*
X94250000Y-38833333D01*
X94154761Y-38785714D01*
X94011904Y-38785714D01*
X93916666Y-38833333D01*
X93869047Y-38928571D01*
X93869047Y-39452380D01*
X92964285Y-39452380D02*
X92964285Y-38928571D01*
X93011904Y-38833333D01*
X93107142Y-38785714D01*
X93297619Y-38785714D01*
X93392857Y-38833333D01*
X92964285Y-39404761D02*
X93059523Y-39452380D01*
X93297619Y-39452380D01*
X93392857Y-39404761D01*
X93440476Y-39309523D01*
X93440476Y-39214285D01*
X93392857Y-39119047D01*
X93297619Y-39071428D01*
X93059523Y-39071428D01*
X92964285Y-39023809D01*
X92059523Y-39404761D02*
X92154761Y-39452380D01*
X92345238Y-39452380D01*
X92440476Y-39404761D01*
X92488095Y-39357142D01*
X92535714Y-39261904D01*
X92535714Y-38976190D01*
X92488095Y-38880952D01*
X92440476Y-38833333D01*
X92345238Y-38785714D01*
X92154761Y-38785714D01*
X92059523Y-38833333D01*
X91630952Y-39452380D02*
X91630952Y-38785714D01*
X91630952Y-38452380D02*
X91678571Y-38500000D01*
X91630952Y-38547619D01*
X91583333Y-38500000D01*
X91630952Y-38452380D01*
X91630952Y-38547619D01*
X91154761Y-39452380D02*
X91154761Y-38452380D01*
X91059523Y-39071428D02*
X90773809Y-39452380D01*
X90773809Y-38785714D02*
X91154761Y-39166666D01*
D10*
X184151904Y-96566666D02*
X184151904Y-96185714D01*
X183351904Y-96185714D01*
X184151904Y-96833333D02*
X183618571Y-96833333D01*
X183351904Y-96833333D02*
X183390000Y-96795238D01*
X183428095Y-96833333D01*
X183390000Y-96871428D01*
X183351904Y-96833333D01*
X183428095Y-96833333D01*
X183618571Y-97557142D02*
X184266190Y-97557142D01*
X184342380Y-97519047D01*
X184380476Y-97480952D01*
X184418571Y-97404761D01*
X184418571Y-97290476D01*
X184380476Y-97214285D01*
X184113809Y-97557142D02*
X184151904Y-97480952D01*
X184151904Y-97328571D01*
X184113809Y-97252380D01*
X184075714Y-97214285D01*
X183999523Y-97176190D01*
X183770952Y-97176190D01*
X183694761Y-97214285D01*
X183656666Y-97252380D01*
X183618571Y-97328571D01*
X183618571Y-97480952D01*
X183656666Y-97557142D01*
X184151904Y-97938095D02*
X183351904Y-97938095D01*
X184151904Y-98280952D02*
X183732857Y-98280952D01*
X183656666Y-98242857D01*
X183618571Y-98166666D01*
X183618571Y-98052380D01*
X183656666Y-97976190D01*
X183694761Y-97938095D01*
X183618571Y-98547619D02*
X183618571Y-98852380D01*
X183351904Y-98661904D02*
X184037619Y-98661904D01*
X184113809Y-98700000D01*
X184151904Y-98776190D01*
X184151904Y-98852380D01*
X184113809Y-99690476D02*
X184151904Y-99804761D01*
X184151904Y-99995238D01*
X184113809Y-100071428D01*
X184075714Y-100109523D01*
X183999523Y-100147619D01*
X183923333Y-100147619D01*
X183847142Y-100109523D01*
X183809047Y-100071428D01*
X183770952Y-99995238D01*
X183732857Y-99842857D01*
X183694761Y-99766666D01*
X183656666Y-99728571D01*
X183580476Y-99690476D01*
X183504285Y-99690476D01*
X183428095Y-99728571D01*
X183390000Y-99766666D01*
X183351904Y-99842857D01*
X183351904Y-100033333D01*
X183390000Y-100147619D01*
X184113809Y-100795238D02*
X184151904Y-100719047D01*
X184151904Y-100566666D01*
X184113809Y-100490476D01*
X184037619Y-100452380D01*
X183732857Y-100452380D01*
X183656666Y-100490476D01*
X183618571Y-100566666D01*
X183618571Y-100719047D01*
X183656666Y-100795238D01*
X183732857Y-100833333D01*
X183809047Y-100833333D01*
X183885238Y-100452380D01*
X184151904Y-101290476D02*
X184113809Y-101214285D01*
X184037619Y-101176190D01*
X183351904Y-101176190D01*
X187152857Y-99903333D02*
X187190952Y-100017619D01*
X187229047Y-100055714D01*
X187305238Y-100093809D01*
X187419523Y-100093809D01*
X187495714Y-100055714D01*
X187533809Y-100017619D01*
X187571904Y-99941428D01*
X187571904Y-99636666D01*
X186771904Y-99636666D01*
X186771904Y-99903333D01*
X186810000Y-99979523D01*
X186848095Y-100017619D01*
X186924285Y-100055714D01*
X187000476Y-100055714D01*
X187076666Y-100017619D01*
X187114761Y-99979523D01*
X187152857Y-99903333D01*
X187152857Y-99636666D01*
X187571904Y-100817619D02*
X187571904Y-100436666D01*
X186771904Y-100436666D01*
X186831904Y-96372380D02*
X187479523Y-96372380D01*
X187555714Y-96410476D01*
X187593809Y-96448571D01*
X187631904Y-96524761D01*
X187631904Y-96677142D01*
X187593809Y-96753333D01*
X187555714Y-96791428D01*
X187479523Y-96829523D01*
X186831904Y-96829523D01*
X187631904Y-97210476D02*
X186831904Y-97210476D01*
X187631904Y-97667619D01*
X186831904Y-97667619D01*
X187631904Y-98048571D02*
X186831904Y-98048571D01*
X186831904Y-98239047D01*
X186870000Y-98353333D01*
X186946190Y-98429523D01*
X187022380Y-98467619D01*
X187174761Y-98505714D01*
X187289047Y-98505714D01*
X187441428Y-98467619D01*
X187517619Y-98429523D01*
X187593809Y-98353333D01*
X187631904Y-98239047D01*
X187631904Y-98048571D01*
X183609523Y-111942857D02*
X183495238Y-111980952D01*
X183457142Y-112019047D01*
X183419047Y-112095238D01*
X183419047Y-112209523D01*
X183457142Y-112285714D01*
X183495238Y-112323809D01*
X183571428Y-112361904D01*
X183876190Y-112361904D01*
X183876190Y-111561904D01*
X183609523Y-111561904D01*
X183533333Y-111600000D01*
X183495238Y-111638095D01*
X183457142Y-111714285D01*
X183457142Y-111790476D01*
X183495238Y-111866666D01*
X183533333Y-111904761D01*
X183609523Y-111942857D01*
X183876190Y-111942857D01*
X182733333Y-112361904D02*
X182733333Y-111942857D01*
X182771428Y-111866666D01*
X182847619Y-111828571D01*
X183000000Y-111828571D01*
X183076190Y-111866666D01*
X182733333Y-112323809D02*
X182809523Y-112361904D01*
X183000000Y-112361904D01*
X183076190Y-112323809D01*
X183114285Y-112247619D01*
X183114285Y-112171428D01*
X183076190Y-112095238D01*
X183000000Y-112057142D01*
X182809523Y-112057142D01*
X182733333Y-112019047D01*
X182009523Y-112323809D02*
X182085714Y-112361904D01*
X182238095Y-112361904D01*
X182314285Y-112323809D01*
X182352380Y-112285714D01*
X182390476Y-112209523D01*
X182390476Y-111980952D01*
X182352380Y-111904761D01*
X182314285Y-111866666D01*
X182238095Y-111828571D01*
X182085714Y-111828571D01*
X182009523Y-111866666D01*
X181666666Y-112361904D02*
X181666666Y-111561904D01*
X181590476Y-112057142D02*
X181361904Y-112361904D01*
X181361904Y-111828571D02*
X181666666Y-112133333D01*
X180904761Y-112361904D02*
X180980952Y-112323809D01*
X181019047Y-112247619D01*
X181019047Y-111561904D01*
X180600000Y-112361904D02*
X180600000Y-111828571D01*
X180600000Y-111561904D02*
X180638095Y-111600000D01*
X180600000Y-111638095D01*
X180561904Y-111600000D01*
X180600000Y-111561904D01*
X180600000Y-111638095D01*
X179876190Y-111828571D02*
X179876190Y-112476190D01*
X179914285Y-112552380D01*
X179952380Y-112590476D01*
X180028571Y-112628571D01*
X180142857Y-112628571D01*
X180219047Y-112590476D01*
X179876190Y-112323809D02*
X179952380Y-112361904D01*
X180104761Y-112361904D01*
X180180952Y-112323809D01*
X180219047Y-112285714D01*
X180257142Y-112209523D01*
X180257142Y-111980952D01*
X180219047Y-111904761D01*
X180180952Y-111866666D01*
X180104761Y-111828571D01*
X179952380Y-111828571D01*
X179876190Y-111866666D01*
X179495238Y-112361904D02*
X179495238Y-111561904D01*
X179152380Y-112361904D02*
X179152380Y-111942857D01*
X179190476Y-111866666D01*
X179266666Y-111828571D01*
X179380952Y-111828571D01*
X179457142Y-111866666D01*
X179495238Y-111904761D01*
X178885714Y-111828571D02*
X178580952Y-111828571D01*
X178771428Y-111561904D02*
X178771428Y-112247619D01*
X178733333Y-112323809D01*
X178657142Y-112361904D01*
X178580952Y-112361904D01*
X177400000Y-112323809D02*
X177476190Y-112361904D01*
X177628571Y-112361904D01*
X177704761Y-112323809D01*
X177742857Y-112247619D01*
X177742857Y-111942857D01*
X177704761Y-111866666D01*
X177628571Y-111828571D01*
X177476190Y-111828571D01*
X177400000Y-111866666D01*
X177361904Y-111942857D01*
X177361904Y-112019047D01*
X177742857Y-112095238D01*
X177019047Y-111828571D02*
X177019047Y-112361904D01*
X177019047Y-111904761D02*
X176980952Y-111866666D01*
X176904761Y-111828571D01*
X176790476Y-111828571D01*
X176714285Y-111866666D01*
X176676190Y-111942857D01*
X176676190Y-112361904D01*
X175952380Y-112361904D02*
X175952380Y-111942857D01*
X175990476Y-111866666D01*
X176066666Y-111828571D01*
X176219047Y-111828571D01*
X176295238Y-111866666D01*
X175952380Y-112323809D02*
X176028571Y-112361904D01*
X176219047Y-112361904D01*
X176295238Y-112323809D01*
X176333333Y-112247619D01*
X176333333Y-112171428D01*
X176295238Y-112095238D01*
X176219047Y-112057142D01*
X176028571Y-112057142D01*
X175952380Y-112019047D01*
X175571428Y-112361904D02*
X175571428Y-111561904D01*
X175571428Y-111866666D02*
X175495238Y-111828571D01*
X175342857Y-111828571D01*
X175266666Y-111866666D01*
X175228571Y-111904761D01*
X175190476Y-111980952D01*
X175190476Y-112209523D01*
X175228571Y-112285714D01*
X175266666Y-112323809D01*
X175342857Y-112361904D01*
X175495238Y-112361904D01*
X175571428Y-112323809D01*
X174733333Y-112361904D02*
X174809523Y-112323809D01*
X174847619Y-112247619D01*
X174847619Y-111561904D01*
X174123809Y-112323809D02*
X174200000Y-112361904D01*
X174352380Y-112361904D01*
X174428571Y-112323809D01*
X174466666Y-112247619D01*
X174466666Y-111942857D01*
X174428571Y-111866666D01*
X174352380Y-111828571D01*
X174200000Y-111828571D01*
X174123809Y-111866666D01*
X174085714Y-111942857D01*
X174085714Y-112019047D01*
X174466666Y-112095238D01*
X178533333Y-113142857D02*
X178266666Y-113142857D01*
X178152380Y-113561904D02*
X178533333Y-113561904D01*
X178533333Y-112761904D01*
X178152380Y-112761904D01*
X177809523Y-113561904D02*
X177809523Y-112761904D01*
X177352380Y-113561904D01*
X177352380Y-112761904D01*
X177009523Y-113333333D02*
X176628571Y-113333333D01*
X177085714Y-113561904D02*
X176819047Y-112761904D01*
X176552380Y-113561904D01*
X114431904Y-83580952D02*
X113631904Y-83580952D01*
X114431904Y-83961904D02*
X113631904Y-83961904D01*
X114431904Y-84419047D01*
X113631904Y-84419047D01*
X114431904Y-84800000D02*
X113631904Y-84800000D01*
X113631904Y-84990476D01*
X113670000Y-85104761D01*
X113746190Y-85180952D01*
X113822380Y-85219047D01*
X113974761Y-85257142D01*
X114089047Y-85257142D01*
X114241428Y-85219047D01*
X114317619Y-85180952D01*
X114393809Y-85104761D01*
X114431904Y-84990476D01*
X114431904Y-84800000D01*
X114092857Y-81044285D02*
X114130952Y-81158571D01*
X114169047Y-81196666D01*
X114245238Y-81234761D01*
X114359523Y-81234761D01*
X114435714Y-81196666D01*
X114473809Y-81158571D01*
X114511904Y-81082380D01*
X114511904Y-80777619D01*
X113711904Y-80777619D01*
X113711904Y-81044285D01*
X113750000Y-81120476D01*
X113788095Y-81158571D01*
X113864285Y-81196666D01*
X113940476Y-81196666D01*
X114016666Y-81158571D01*
X114054761Y-81120476D01*
X114092857Y-81044285D01*
X114092857Y-80777619D01*
X114130952Y-81730000D02*
X114511904Y-81730000D01*
X113711904Y-81463333D02*
X114130952Y-81730000D01*
X113711904Y-81996666D01*
X114511904Y-82263333D02*
X113711904Y-82263333D01*
X113711904Y-82568095D01*
X113750000Y-82644285D01*
X113788095Y-82682380D01*
X113864285Y-82720476D01*
X113978571Y-82720476D01*
X114054761Y-82682380D01*
X114092857Y-82644285D01*
X114130952Y-82568095D01*
X114130952Y-82263333D01*
X115561904Y-79533333D02*
X114761904Y-79533333D01*
X115028571Y-79914285D02*
X115561904Y-79914285D01*
X115104761Y-79914285D02*
X115066666Y-79952380D01*
X115028571Y-80028571D01*
X115028571Y-80142857D01*
X115066666Y-80219047D01*
X115142857Y-80257142D01*
X115561904Y-80257142D01*
X115561904Y-80980952D02*
X114761904Y-80980952D01*
X115523809Y-80980952D02*
X115561904Y-80904761D01*
X115561904Y-80752380D01*
X115523809Y-80676190D01*
X115485714Y-80638095D01*
X115409523Y-80600000D01*
X115180952Y-80600000D01*
X115104761Y-80638095D01*
X115066666Y-80676190D01*
X115028571Y-80752380D01*
X115028571Y-80904761D01*
X115066666Y-80980952D01*
X115561904Y-81971428D02*
X114761904Y-81971428D01*
X115066666Y-81971428D02*
X115028571Y-82047619D01*
X115028571Y-82200000D01*
X115066666Y-82276190D01*
X115104761Y-82314285D01*
X115180952Y-82352380D01*
X115409523Y-82352380D01*
X115485714Y-82314285D01*
X115523809Y-82276190D01*
X115561904Y-82200000D01*
X115561904Y-82047619D01*
X115523809Y-81971428D01*
X115028571Y-82619047D02*
X115561904Y-82809523D01*
X115028571Y-83000000D02*
X115561904Y-82809523D01*
X115752380Y-82733333D01*
X115790476Y-82695238D01*
X115828571Y-82619047D01*
X115028571Y-83304761D02*
X115828571Y-83304761D01*
X115066666Y-83304761D02*
X115028571Y-83380952D01*
X115028571Y-83533333D01*
X115066666Y-83609523D01*
X115104761Y-83647619D01*
X115180952Y-83685714D01*
X115409523Y-83685714D01*
X115485714Y-83647619D01*
X115523809Y-83609523D01*
X115561904Y-83533333D01*
X115561904Y-83380952D01*
X115523809Y-83304761D01*
X115561904Y-84371428D02*
X115142857Y-84371428D01*
X115066666Y-84333333D01*
X115028571Y-84257142D01*
X115028571Y-84104761D01*
X115066666Y-84028571D01*
X115523809Y-84371428D02*
X115561904Y-84295238D01*
X115561904Y-84104761D01*
X115523809Y-84028571D01*
X115447619Y-83990476D01*
X115371428Y-83990476D01*
X115295238Y-84028571D01*
X115257142Y-84104761D01*
X115257142Y-84295238D01*
X115219047Y-84371428D01*
X115523809Y-84714285D02*
X115561904Y-84790476D01*
X115561904Y-84942857D01*
X115523809Y-85019047D01*
X115447619Y-85057142D01*
X115409523Y-85057142D01*
X115333333Y-85019047D01*
X115295238Y-84942857D01*
X115295238Y-84828571D01*
X115257142Y-84752380D01*
X115180952Y-84714285D01*
X115142857Y-84714285D01*
X115066666Y-84752380D01*
X115028571Y-84828571D01*
X115028571Y-84942857D01*
X115066666Y-85019047D01*
X115523809Y-85361904D02*
X115561904Y-85438095D01*
X115561904Y-85590476D01*
X115523809Y-85666666D01*
X115447619Y-85704761D01*
X115409523Y-85704761D01*
X115333333Y-85666666D01*
X115295238Y-85590476D01*
X115295238Y-85476190D01*
X115257142Y-85400000D01*
X115180952Y-85361904D01*
X115142857Y-85361904D01*
X115066666Y-85400000D01*
X115028571Y-85476190D01*
X115028571Y-85590476D01*
X115066666Y-85666666D01*
D12*
G36*
X83991755Y-51055468D02*
G01*
X83854857Y-51057010D01*
X83749716Y-51059833D01*
X83672676Y-51064143D01*
X83620082Y-51070147D01*
X83588278Y-51078051D01*
X83573609Y-51088063D01*
X83573398Y-51088393D01*
X83548738Y-51100030D01*
X83513044Y-51103846D01*
X83461950Y-51110932D01*
X83383065Y-51130363D01*
X83284645Y-51159398D01*
X83174946Y-51195295D01*
X83062223Y-51235313D01*
X82954734Y-51276710D01*
X82860734Y-51316746D01*
X82833462Y-51329490D01*
X82619321Y-51454083D01*
X82418706Y-51615188D01*
X82231842Y-51812574D01*
X82058953Y-52046008D01*
X81926824Y-52265882D01*
X81883824Y-52343288D01*
X81839029Y-52422358D01*
X81810863Y-52471036D01*
X81774504Y-52540717D01*
X81736931Y-52624691D01*
X81716616Y-52676692D01*
X81690961Y-52747907D01*
X81657596Y-52840662D01*
X81622003Y-52939710D01*
X81605288Y-52986265D01*
X81571262Y-53087704D01*
X81538885Y-53195668D01*
X81513307Y-53292550D01*
X81505563Y-53326999D01*
X81481668Y-53420615D01*
X81449529Y-53518785D01*
X81418947Y-53593810D01*
X81349606Y-53750440D01*
X81302020Y-53882421D01*
X81274380Y-53996275D01*
X81264876Y-54098527D01*
X81266171Y-54144602D01*
X81275742Y-54241113D01*
X81290132Y-54329087D01*
X81307492Y-54400783D01*
X81325971Y-54448461D01*
X81342628Y-54464461D01*
X81356223Y-54481640D01*
X81359868Y-54527019D01*
X81354810Y-54591357D01*
X81342299Y-54665416D01*
X81323582Y-54739956D01*
X81299907Y-54805740D01*
X81295113Y-54816154D01*
X81260503Y-54876267D01*
X81205721Y-54957729D01*
X81136690Y-55052801D01*
X81059334Y-55153746D01*
X80979578Y-55252825D01*
X80903345Y-55342301D01*
X80838881Y-55412077D01*
X80734225Y-55533971D01*
X80640222Y-55671802D01*
X80580380Y-55783308D01*
X80551936Y-55844037D01*
X80528097Y-55893503D01*
X80518704Y-55912084D01*
X80509134Y-55944158D01*
X80496983Y-56004839D01*
X80484163Y-56083920D01*
X80477286Y-56133340D01*
X80465448Y-56240590D01*
X80462254Y-56326400D01*
X80467697Y-56407439D01*
X80477175Y-56473486D01*
X80504970Y-56612512D01*
X80539397Y-56738656D01*
X80577243Y-56840712D01*
X80590194Y-56867692D01*
X80608866Y-56907786D01*
X80615726Y-56929829D01*
X80626264Y-56970666D01*
X80654288Y-57035391D01*
X80695128Y-57115704D01*
X80744112Y-57203306D01*
X80796567Y-57289897D01*
X80847822Y-57367178D01*
X80893206Y-57426849D01*
X80899699Y-57434308D01*
X80929016Y-57481515D01*
X80956112Y-57548643D01*
X80967890Y-57590615D01*
X80987902Y-57669630D01*
X81010878Y-57748426D01*
X81021400Y-57780271D01*
X81050357Y-57862464D01*
X80969755Y-57944691D01*
X80926604Y-57993055D01*
X80895959Y-58041452D01*
X80872349Y-58101627D01*
X80850300Y-58185321D01*
X80843377Y-58215846D01*
X80834001Y-58244030D01*
X80815050Y-58257596D01*
X80775761Y-58260521D01*
X80728548Y-58258252D01*
X80667706Y-58255831D01*
X80632854Y-58262284D01*
X80611007Y-58283665D01*
X80590899Y-58322415D01*
X80571457Y-58380225D01*
X80560228Y-58447444D01*
X80557915Y-58511441D01*
X80565216Y-58559584D01*
X80576770Y-58577308D01*
X80591604Y-58604097D01*
X80596308Y-58639592D01*
X80605429Y-58672344D01*
X80634896Y-58718013D01*
X80687865Y-58780756D01*
X80765921Y-58863131D01*
X80832857Y-58929515D01*
X80891709Y-58984150D01*
X80936345Y-59021595D01*
X80960631Y-59036411D01*
X80961305Y-59036461D01*
X80984951Y-59048250D01*
X80987077Y-59056000D01*
X81002723Y-59073732D01*
X81013993Y-59075538D01*
X81048566Y-59089311D01*
X81064189Y-59103590D01*
X81099674Y-59128200D01*
X81144735Y-59144219D01*
X81185134Y-59157060D01*
X81202000Y-59170308D01*
X81202000Y-59170340D01*
X81218733Y-59186918D01*
X81263192Y-59213791D01*
X81326767Y-59246874D01*
X81400848Y-59282087D01*
X81476824Y-59315344D01*
X81546085Y-59342565D01*
X81600022Y-59359665D01*
X81602539Y-59360270D01*
X81650657Y-59374491D01*
X81680693Y-59388195D01*
X81708880Y-59396675D01*
X81764255Y-59405407D01*
X81834981Y-59412537D01*
X81837000Y-59412691D01*
X81942547Y-59413961D01*
X82040825Y-59403068D01*
X82122549Y-59381933D01*
X82178436Y-59352477D01*
X82191008Y-59339446D01*
X82210680Y-59318630D01*
X82231194Y-59322937D01*
X82259621Y-59347253D01*
X82319770Y-59390871D01*
X82411588Y-59441402D01*
X82528809Y-59496378D01*
X82665168Y-59553334D01*
X82814397Y-59609802D01*
X82970233Y-59663315D01*
X83126408Y-59711407D01*
X83276657Y-59751611D01*
X83302385Y-59757772D01*
X83402170Y-59775369D01*
X83534361Y-59789778D01*
X83692397Y-59800748D01*
X83869718Y-59808026D01*
X84059764Y-59811360D01*
X84255974Y-59810497D01*
X84451787Y-59805187D01*
X84492012Y-59803493D01*
X84627012Y-59798369D01*
X84727108Y-59796852D01*
X84796314Y-59799033D01*
X84838644Y-59804998D01*
X84854471Y-59811501D01*
X84895221Y-59830367D01*
X84951977Y-59846414D01*
X84959483Y-59847908D01*
X85009383Y-59861001D01*
X85040147Y-59875986D01*
X85042677Y-59878830D01*
X85066308Y-59887194D01*
X85117575Y-59892748D01*
X85185148Y-59895480D01*
X85257694Y-59895380D01*
X85323882Y-59892436D01*
X85372380Y-59886637D01*
X85391414Y-59879182D01*
X85415749Y-59865703D01*
X85463755Y-59852704D01*
X85481800Y-59849434D01*
X85536486Y-59834938D01*
X85612169Y-59807527D01*
X85695173Y-59772305D01*
X85721579Y-59759962D01*
X85799846Y-59719819D01*
X85863755Y-59679205D01*
X85924146Y-59629685D01*
X85991859Y-59562819D01*
X86037770Y-59513837D01*
X86100710Y-59444790D01*
X86154381Y-59384380D01*
X86192840Y-59339396D01*
X86209757Y-59317335D01*
X86234566Y-59295678D01*
X86284335Y-59265192D01*
X86346527Y-59233340D01*
X86415773Y-59197799D01*
X86476042Y-59161676D01*
X86510760Y-59135747D01*
X86544883Y-59106926D01*
X86565887Y-59095077D01*
X86588547Y-59083290D01*
X86603600Y-59070654D01*
X86639982Y-59038533D01*
X86666273Y-59016923D01*
X86701972Y-58988379D01*
X86754228Y-58946350D01*
X86791711Y-58916104D01*
X86874613Y-58861499D01*
X86959519Y-58834272D01*
X86976758Y-58831595D01*
X87073202Y-58813432D01*
X87202203Y-58780818D01*
X87360379Y-58734641D01*
X87434770Y-58711393D01*
X87522084Y-58678603D01*
X87619992Y-58633968D01*
X87716857Y-58583573D01*
X87801039Y-58533503D01*
X87860900Y-58489840D01*
X87864196Y-58486892D01*
X87905673Y-58452173D01*
X87935935Y-58432464D01*
X87941702Y-58430769D01*
X87966910Y-58415999D01*
X88005325Y-58378154D01*
X88048871Y-58326929D01*
X88089471Y-58272022D01*
X88119049Y-58223127D01*
X88124436Y-58211397D01*
X88154332Y-58092836D01*
X88149418Y-57975878D01*
X88141768Y-57953900D01*
X87932237Y-57953900D01*
X87932109Y-57970932D01*
X87921200Y-58029555D01*
X87903456Y-58088162D01*
X87883374Y-58134609D01*
X87865452Y-58156754D01*
X87863101Y-58157231D01*
X87845996Y-58172733D01*
X87844552Y-58181654D01*
X87829719Y-58215786D01*
X87791739Y-58264156D01*
X87738837Y-58317708D01*
X87679242Y-58367385D01*
X87669231Y-58374655D01*
X87606059Y-58414932D01*
X87529989Y-58456644D01*
X87448171Y-58496750D01*
X87367753Y-58532207D01*
X87295881Y-58559972D01*
X87239705Y-58577005D01*
X87206371Y-58580262D01*
X87200308Y-58574228D01*
X87211285Y-58553159D01*
X87239925Y-58510880D01*
X87276019Y-58461882D01*
X87331742Y-58383267D01*
X87384205Y-58299770D01*
X87428568Y-58220158D01*
X87459990Y-58153197D01*
X87473631Y-58107655D01*
X87473847Y-58103579D01*
X87482199Y-58062970D01*
X87490561Y-58048792D01*
X87507348Y-58016596D01*
X87529681Y-57954881D01*
X87554812Y-57872317D01*
X87579995Y-57777572D01*
X87590844Y-57732269D01*
X87611711Y-57667887D01*
X87635655Y-57633823D01*
X87659130Y-57632792D01*
X87677994Y-57665597D01*
X87705286Y-57713582D01*
X87756822Y-57773652D01*
X87824100Y-57836576D01*
X87866786Y-57870593D01*
X87914730Y-57914174D01*
X87932237Y-57953900D01*
X88141768Y-57953900D01*
X88111799Y-57867806D01*
X88043581Y-57775906D01*
X87985021Y-57729061D01*
X87920554Y-57677665D01*
X87861618Y-57614860D01*
X87841137Y-57586467D01*
X87795396Y-57520362D01*
X87744452Y-57455758D01*
X87728791Y-57437986D01*
X87693284Y-57393708D01*
X87675300Y-57350032D01*
X87669101Y-57290174D01*
X87668653Y-57262140D01*
X87665815Y-57187947D01*
X87658626Y-57088026D01*
X87649767Y-56990141D01*
X87450098Y-56990141D01*
X87449952Y-57089761D01*
X87447750Y-57199023D01*
X87443666Y-57310595D01*
X87437874Y-57417141D01*
X87430550Y-57511327D01*
X87421866Y-57585820D01*
X87417722Y-57610154D01*
X87361560Y-57826366D01*
X87281044Y-58036661D01*
X87179951Y-58234652D01*
X87062054Y-58413952D01*
X86931128Y-58568172D01*
X86790948Y-58690926D01*
X86770462Y-58705469D01*
X86717610Y-58742700D01*
X86669639Y-58778914D01*
X86613506Y-58824196D01*
X86567404Y-58862485D01*
X86523120Y-58897905D01*
X86468449Y-58939506D01*
X86412636Y-58980546D01*
X86364921Y-59014284D01*
X86334548Y-59033976D01*
X86328912Y-59036461D01*
X86331791Y-59020611D01*
X86346231Y-58981275D01*
X86351382Y-58968704D01*
X86369689Y-58904087D01*
X86376026Y-58854887D01*
X86208192Y-58854887D01*
X86152323Y-58940790D01*
X86115482Y-58995250D01*
X86083750Y-59038471D01*
X86071996Y-59052511D01*
X86055757Y-59088252D01*
X86047724Y-59142399D01*
X86047539Y-59151599D01*
X86043993Y-59191248D01*
X86029731Y-59227946D01*
X85999314Y-59270561D01*
X85947302Y-59327957D01*
X85925423Y-59350673D01*
X85827108Y-59448117D01*
X85742415Y-59521293D01*
X85661135Y-59576902D01*
X85573059Y-59621643D01*
X85467976Y-59662217D01*
X85432077Y-59674423D01*
X85351252Y-59690087D01*
X85248240Y-59694520D01*
X85138038Y-59688514D01*
X85035639Y-59672863D01*
X84958286Y-59649364D01*
X84905588Y-59619605D01*
X84869797Y-59587273D01*
X84863132Y-59575409D01*
X84841063Y-59537240D01*
X84802994Y-59493054D01*
X84797219Y-59487486D01*
X84748105Y-59432804D01*
X84691982Y-59357580D01*
X84637191Y-59274434D01*
X84592077Y-59195984D01*
X84565848Y-59137510D01*
X84553907Y-59072598D01*
X84562416Y-58997147D01*
X84566061Y-58981203D01*
X84583817Y-58907266D01*
X84601154Y-58834588D01*
X84605386Y-58816733D01*
X84642686Y-58732511D01*
X84709359Y-58673541D01*
X84781502Y-58644625D01*
X84860614Y-58637042D01*
X84926354Y-58662503D01*
X84982071Y-58723111D01*
X85019993Y-58794471D01*
X85060062Y-58848666D01*
X85102808Y-58874826D01*
X85158631Y-58883736D01*
X85209063Y-58875023D01*
X85241225Y-58852232D01*
X85246462Y-58835287D01*
X85257925Y-58801356D01*
X85287538Y-58748329D01*
X85328137Y-58686879D01*
X85372558Y-58627679D01*
X85413636Y-58581403D01*
X85422308Y-58573311D01*
X85498922Y-58517825D01*
X85566415Y-58496950D01*
X85630604Y-58509187D01*
X85644604Y-58516035D01*
X85694397Y-58554476D01*
X85746471Y-58612553D01*
X85792390Y-58678457D01*
X85823721Y-58740380D01*
X85832616Y-58779265D01*
X85845247Y-58849635D01*
X85878114Y-58902317D01*
X85923672Y-58932075D01*
X85974380Y-58933673D01*
X86017371Y-58907530D01*
X86056408Y-58884861D01*
X86113865Y-58867962D01*
X86128401Y-58865589D01*
X86208192Y-58854887D01*
X86376026Y-58854887D01*
X86379279Y-58829642D01*
X86379693Y-58813815D01*
X86374778Y-58752273D01*
X86355278Y-58711866D01*
X86326186Y-58684594D01*
X86262823Y-58652582D01*
X86213840Y-58651685D01*
X86134365Y-58666469D01*
X86074893Y-58682209D01*
X86051417Y-58692141D01*
X86026525Y-58693102D01*
X85997730Y-58663842D01*
X85961601Y-58600797D01*
X85959616Y-58596846D01*
X85926403Y-58543430D01*
X85879088Y-58482916D01*
X85825463Y-58423523D01*
X85773323Y-58373471D01*
X85730460Y-58340982D01*
X85709535Y-58333077D01*
X85698015Y-58326004D01*
X85690298Y-58301106D01*
X85685821Y-58252867D01*
X85684025Y-58175770D01*
X85684182Y-58083961D01*
X85682065Y-57977110D01*
X85674878Y-57861789D01*
X85663654Y-57745763D01*
X85649423Y-57636794D01*
X85633215Y-57542646D01*
X85616063Y-57471083D01*
X85598996Y-57429867D01*
X85596972Y-57427294D01*
X85605120Y-57409671D01*
X85637771Y-57376027D01*
X85687318Y-57332607D01*
X85746153Y-57285659D01*
X85806668Y-57241429D01*
X85861255Y-57206162D01*
X85877009Y-57197377D01*
X85914052Y-57175118D01*
X85930308Y-57161726D01*
X85952890Y-57148047D01*
X85999738Y-57127198D01*
X86032922Y-57114174D01*
X86097831Y-57083228D01*
X86131229Y-57048844D01*
X86137681Y-57031885D01*
X86138669Y-56975510D01*
X86110422Y-56941108D01*
X86056620Y-56929586D01*
X85980937Y-56941849D01*
X85899043Y-56973090D01*
X85842821Y-57003681D01*
X85764584Y-57052046D01*
X85673250Y-57112081D01*
X85577736Y-57177681D01*
X85486961Y-57242741D01*
X85409841Y-57301157D01*
X85362125Y-57340637D01*
X85320552Y-57377834D01*
X85263679Y-57429004D01*
X85214534Y-57473384D01*
X85156738Y-57523822D01*
X85103640Y-57567035D01*
X85071226Y-57590615D01*
X85040560Y-57612976D01*
X84989704Y-57652848D01*
X84927359Y-57703096D01*
X84862223Y-57756587D01*
X84802995Y-57806186D01*
X84758375Y-57844759D01*
X84738462Y-57863514D01*
X84698736Y-57895286D01*
X84636541Y-57933073D01*
X84566025Y-57969248D01*
X84501336Y-57996184D01*
X84480437Y-58002617D01*
X84368728Y-58028137D01*
X84285846Y-58035751D01*
X84224445Y-58022332D01*
X84177179Y-57984757D01*
X84136704Y-57919900D01*
X84102494Y-57841847D01*
X84075507Y-57770095D01*
X84058519Y-57709083D01*
X84049328Y-57645349D01*
X84045728Y-57565433D01*
X84045354Y-57492923D01*
X84047761Y-57382795D01*
X84055602Y-57297922D01*
X84070751Y-57224644D01*
X84090954Y-57160769D01*
X84165476Y-56965640D01*
X84238149Y-56806197D01*
X84310630Y-56679208D01*
X84384575Y-56581441D01*
X84392058Y-56573207D01*
X84449283Y-56510270D01*
X84506630Y-56445520D01*
X84535730Y-56411749D01*
X84578315Y-56366894D01*
X84632966Y-56316560D01*
X84690728Y-56268100D01*
X84742648Y-56228867D01*
X84779772Y-56206213D01*
X84789482Y-56203384D01*
X84814180Y-56191827D01*
X84834616Y-56176059D01*
X84901645Y-56128831D01*
X84992388Y-56081158D01*
X85092261Y-56040357D01*
X85129231Y-56028278D01*
X85189971Y-56008451D01*
X85222066Y-55990525D01*
X85234608Y-55966255D01*
X85236693Y-55930812D01*
X85225824Y-55870410D01*
X85191615Y-55839344D01*
X85131660Y-55836193D01*
X85090852Y-55844755D01*
X85011728Y-55865874D01*
X84915374Y-55735899D01*
X84864961Y-55670038D01*
X84818235Y-55612682D01*
X84783795Y-55574309D01*
X84778740Y-55569472D01*
X84749145Y-55537855D01*
X84738462Y-55518080D01*
X84755400Y-55504282D01*
X84799076Y-55484415D01*
X84841039Y-55469226D01*
X84916005Y-55440199D01*
X84988892Y-55405347D01*
X85016497Y-55389502D01*
X85064972Y-55361456D01*
X85100415Y-55345269D01*
X85107676Y-55343692D01*
X85131462Y-55330982D01*
X85132488Y-55329038D01*
X85153449Y-55306921D01*
X85193764Y-55276216D01*
X85238965Y-55246779D01*
X85274582Y-55228466D01*
X85283077Y-55226461D01*
X85304640Y-55213770D01*
X85346638Y-55179801D01*
X85401679Y-55130707D01*
X85429755Y-55104346D01*
X85505976Y-55021775D01*
X85580811Y-54923517D01*
X85647421Y-54820170D01*
X85698969Y-54722329D01*
X85728413Y-54641459D01*
X85742673Y-54596112D01*
X85754608Y-54571923D01*
X85767054Y-54541327D01*
X85780199Y-54489605D01*
X85783213Y-54474231D01*
X85795801Y-54410193D01*
X85808183Y-54354165D01*
X85809894Y-54347231D01*
X85817225Y-54293811D01*
X85820994Y-54214450D01*
X85821217Y-54150367D01*
X85655221Y-54150367D01*
X85650953Y-54220062D01*
X85635693Y-54298604D01*
X85634657Y-54302989D01*
X85594621Y-54461651D01*
X85556502Y-54588494D01*
X85517236Y-54690455D01*
X85473755Y-54774472D01*
X85422994Y-54847483D01*
X85364945Y-54913269D01*
X85305313Y-54968440D01*
X85227928Y-55030588D01*
X85139985Y-55094965D01*
X85048677Y-55156823D01*
X84961197Y-55211415D01*
X84884740Y-55253994D01*
X84826500Y-55279812D01*
X84801102Y-55285371D01*
X84762196Y-55291967D01*
X84706381Y-55308031D01*
X84689616Y-55313821D01*
X84621527Y-55332571D01*
X84554622Y-55342445D01*
X84544616Y-55342835D01*
X84469053Y-55356337D01*
X84423541Y-55390490D01*
X84409611Y-55439223D01*
X84428800Y-55496468D01*
X84482638Y-55556158D01*
X84489347Y-55561529D01*
X84568264Y-55626484D01*
X84635357Y-55690872D01*
X84702914Y-55767193D01*
X84755179Y-55832024D01*
X84839662Y-55939356D01*
X84775146Y-55993216D01*
X84731903Y-56026419D01*
X84700484Y-56045375D01*
X84694404Y-56047077D01*
X84664369Y-56059699D01*
X84614922Y-56093026D01*
X84554398Y-56140249D01*
X84491135Y-56194560D01*
X84433469Y-56249149D01*
X84392850Y-56293370D01*
X84335100Y-56361663D01*
X84269631Y-56436373D01*
X84235347Y-56474326D01*
X84192083Y-56523405D01*
X84162045Y-56561228D01*
X84152308Y-56578062D01*
X84140192Y-56601583D01*
X84126721Y-56617181D01*
X84107920Y-56646476D01*
X84080164Y-56701976D01*
X84048475Y-56773396D01*
X84037767Y-56799308D01*
X84006526Y-56875749D01*
X83978998Y-56942001D01*
X83959876Y-56986807D01*
X83956337Y-56994692D01*
X83920861Y-57079120D01*
X83896282Y-57159702D01*
X83880781Y-57246929D01*
X83872543Y-57351293D01*
X83869749Y-57483284D01*
X83869708Y-57494812D01*
X83871303Y-57621764D01*
X83876645Y-57719884D01*
X83885454Y-57785288D01*
X83892392Y-57807427D01*
X83910829Y-57847770D01*
X83938358Y-57911850D01*
X83969603Y-57987106D01*
X83975523Y-58001649D01*
X84018142Y-58095183D01*
X84061827Y-58157152D01*
X84115875Y-58193773D01*
X84189584Y-58211264D01*
X84292251Y-58215843D01*
X84295823Y-58215846D01*
X84367848Y-58213755D01*
X84423422Y-58208227D01*
X84452102Y-58200384D01*
X84453525Y-58198944D01*
X84477990Y-58185736D01*
X84525689Y-58174038D01*
X84540111Y-58171829D01*
X84606500Y-58152070D01*
X84690347Y-58111482D01*
X84780954Y-58056336D01*
X84867623Y-57992901D01*
X84914308Y-57952515D01*
X84961977Y-57911191D01*
X85029327Y-57856852D01*
X85104237Y-57799194D01*
X85129231Y-57780589D01*
X85205217Y-57722708D01*
X85278860Y-57663434D01*
X85337406Y-57613122D01*
X85350737Y-57600735D01*
X85393230Y-57561913D01*
X85422633Y-57538635D01*
X85430708Y-57535326D01*
X85438609Y-57558920D01*
X85451405Y-57610696D01*
X85466921Y-57680403D01*
X85482983Y-57757793D01*
X85497414Y-57832614D01*
X85508039Y-57894616D01*
X85510337Y-57910502D01*
X85514797Y-57976894D01*
X85514829Y-58064688D01*
X85510490Y-58156468D01*
X85509475Y-58169387D01*
X85501642Y-58250301D01*
X85493174Y-58299572D01*
X85481829Y-58324602D01*
X85465363Y-58332792D01*
X85459870Y-58333077D01*
X85407439Y-58347130D01*
X85341320Y-58384312D01*
X85272131Y-58437154D01*
X85210492Y-58498186D01*
X85191204Y-58522044D01*
X85126176Y-58609025D01*
X85079338Y-58558485D01*
X85033632Y-58521478D01*
X84969248Y-58483348D01*
X84900700Y-58451367D01*
X84842499Y-58432811D01*
X84824500Y-58430769D01*
X84783856Y-58439573D01*
X84762620Y-58448736D01*
X84725247Y-58467756D01*
X84669383Y-58495386D01*
X84640770Y-58509333D01*
X84561484Y-58556247D01*
X84499723Y-58614527D01*
X84452482Y-58690015D01*
X84416754Y-58788553D01*
X84389534Y-58915983D01*
X84373538Y-59028731D01*
X84377592Y-59126753D01*
X84408996Y-59238158D01*
X84464505Y-59352024D01*
X84474476Y-59368272D01*
X84503474Y-59416260D01*
X84521083Y-59449360D01*
X84523539Y-59456538D01*
X84533085Y-59477921D01*
X84557266Y-59520005D01*
X84572094Y-59544000D01*
X84620648Y-59620915D01*
X84479286Y-59628599D01*
X84417681Y-59630646D01*
X84324996Y-59632044D01*
X84209223Y-59632753D01*
X84078354Y-59632735D01*
X83940381Y-59631951D01*
X83888539Y-59631453D01*
X83737916Y-59629437D01*
X83619694Y-59626672D01*
X83527201Y-59622634D01*
X83453761Y-59616795D01*
X83392701Y-59608630D01*
X83337346Y-59597613D01*
X83282847Y-59583720D01*
X83197875Y-59560721D01*
X83116791Y-59539319D01*
X83055245Y-59523638D01*
X83048385Y-59521966D01*
X82981697Y-59500051D01*
X82908108Y-59467688D01*
X82884732Y-59455403D01*
X82831461Y-59427737D01*
X82791198Y-59410519D01*
X82779434Y-59407692D01*
X82754999Y-59396921D01*
X82704574Y-59367203D01*
X82633879Y-59322428D01*
X82548633Y-59266487D01*
X82454553Y-59203272D01*
X82452013Y-59201531D01*
X82046558Y-59201531D01*
X82046226Y-59202258D01*
X82017662Y-59210298D01*
X81960960Y-59212043D01*
X81886383Y-59208439D01*
X81804192Y-59200432D01*
X81724651Y-59188968D01*
X81658022Y-59174992D01*
X81622077Y-59163162D01*
X81563727Y-59138316D01*
X81514608Y-59118811D01*
X81504847Y-59115289D01*
X81388463Y-59066164D01*
X81256332Y-58995527D01*
X81119543Y-58910276D01*
X80989180Y-58817306D01*
X80879087Y-58726030D01*
X80821273Y-58662599D01*
X80781817Y-58597808D01*
X80761947Y-58538135D01*
X80762889Y-58490062D01*
X80785872Y-58460067D01*
X80827575Y-58454015D01*
X80882788Y-58471786D01*
X80917492Y-58494269D01*
X80968476Y-58522166D01*
X81024006Y-58526453D01*
X81073961Y-58510805D01*
X81108217Y-58478894D01*
X81116651Y-58434396D01*
X81113940Y-58422972D01*
X81084709Y-58319536D01*
X81071300Y-58240748D01*
X81072356Y-58176160D01*
X81077959Y-58145612D01*
X81100619Y-58086634D01*
X81130064Y-58065080D01*
X81163478Y-58081538D01*
X81190995Y-58122118D01*
X81220199Y-58177114D01*
X81245933Y-58223503D01*
X81247388Y-58226013D01*
X81304065Y-58322988D01*
X81344300Y-58390965D01*
X81371086Y-58434849D01*
X81387415Y-58459544D01*
X81396145Y-58469846D01*
X81413836Y-58491597D01*
X81441364Y-58531884D01*
X81445116Y-58537723D01*
X81466415Y-58570616D01*
X81486679Y-58599549D01*
X81510190Y-58629234D01*
X81541231Y-58664383D01*
X81584083Y-58709710D01*
X81643028Y-58769926D01*
X81722349Y-58849745D01*
X81792226Y-58919742D01*
X81874149Y-59003138D01*
X81944525Y-59077443D01*
X81999373Y-59138229D01*
X82034711Y-59181068D01*
X82046558Y-59201531D01*
X82452013Y-59201531D01*
X82357359Y-59136674D01*
X82262770Y-59070583D01*
X82176505Y-59008890D01*
X82104282Y-58955488D01*
X82051820Y-58914266D01*
X82042154Y-58906051D01*
X81810597Y-58685290D01*
X81615605Y-58458081D01*
X81454828Y-58221513D01*
X81379918Y-58085934D01*
X81328959Y-57982341D01*
X81284794Y-57885573D01*
X81251641Y-57805222D01*
X81235186Y-57756692D01*
X81220798Y-57704655D01*
X81212003Y-57673654D01*
X81209289Y-57639109D01*
X81229991Y-57629692D01*
X81256932Y-57637343D01*
X81260739Y-57644346D01*
X81278235Y-57668359D01*
X81322317Y-57693281D01*
X81380932Y-57714196D01*
X81442025Y-57726188D01*
X81464325Y-57727384D01*
X81521476Y-57722373D01*
X81564592Y-57702823D01*
X81601441Y-57661965D01*
X81639794Y-57593028D01*
X81654873Y-57561308D01*
X81669687Y-57527529D01*
X81680872Y-57494582D01*
X81688937Y-57456518D01*
X81694389Y-57407387D01*
X81697736Y-57341239D01*
X81699485Y-57252124D01*
X81700146Y-57134093D01*
X81700231Y-57029849D01*
X81699586Y-56875862D01*
X81697524Y-56757431D01*
X81693860Y-56671056D01*
X81688408Y-56613234D01*
X81680979Y-56580465D01*
X81675808Y-56571672D01*
X81655495Y-56532774D01*
X81651385Y-56505613D01*
X81645536Y-56465729D01*
X81630218Y-56400764D01*
X81608775Y-56322556D01*
X81584550Y-56242941D01*
X81560886Y-56173757D01*
X81549462Y-56144769D01*
X81504332Y-56035715D01*
X81472214Y-55949433D01*
X81449000Y-55873568D01*
X81430581Y-55795765D01*
X81426040Y-55773538D01*
X81411240Y-55720093D01*
X81393523Y-55681868D01*
X81391999Y-55679842D01*
X81387070Y-55644603D01*
X81405824Y-55587870D01*
X81444094Y-55515556D01*
X81497711Y-55433577D01*
X81562509Y-55347848D01*
X81634318Y-55264283D01*
X81708971Y-55188798D01*
X81780324Y-55128769D01*
X81854801Y-55073800D01*
X81904338Y-55039269D01*
X81935290Y-55022214D01*
X81954013Y-55019671D01*
X81966860Y-55028678D01*
X81974330Y-55038308D01*
X82022829Y-55102917D01*
X82056727Y-55141678D01*
X82083419Y-55161042D01*
X82110300Y-55167459D01*
X82122855Y-55167846D01*
X82171050Y-55153646D01*
X82195062Y-55109882D01*
X82198462Y-55072405D01*
X82185842Y-55034701D01*
X82150905Y-54975045D01*
X82098033Y-54900021D01*
X82060141Y-54852209D01*
X81797343Y-54852209D01*
X81795153Y-54865128D01*
X81794601Y-54866612D01*
X81768822Y-54894730D01*
X81750532Y-54903615D01*
X81715163Y-54924972D01*
X81659481Y-54970823D01*
X81588796Y-55036161D01*
X81508420Y-55115977D01*
X81423663Y-55205263D01*
X81381867Y-55251261D01*
X81285786Y-55374979D01*
X81201718Y-55514185D01*
X81139861Y-55651788D01*
X81135504Y-55664174D01*
X81132710Y-55703736D01*
X81141459Y-55754261D01*
X81157503Y-55801027D01*
X81176593Y-55829311D01*
X81183977Y-55832154D01*
X81199541Y-55848188D01*
X81202000Y-55864399D01*
X81209926Y-55899337D01*
X81230298Y-55954706D01*
X81248491Y-55996283D01*
X81368789Y-56294323D01*
X81451788Y-56594134D01*
X81486091Y-56789538D01*
X81506271Y-56978252D01*
X81511898Y-57142039D01*
X81503166Y-57278034D01*
X81480270Y-57383374D01*
X81443406Y-57455196D01*
X81440449Y-57458731D01*
X81402574Y-57487541D01*
X81359085Y-57486354D01*
X81302137Y-57454415D01*
X81288187Y-57444077D01*
X81243368Y-57413296D01*
X81210039Y-57396363D01*
X81204311Y-57395231D01*
X81178006Y-57382990D01*
X81138958Y-57352883D01*
X81131769Y-57346384D01*
X81087568Y-57313697D01*
X81048566Y-57297825D01*
X81044516Y-57297538D01*
X81010827Y-57280801D01*
X80968727Y-57229987D01*
X80917672Y-57144191D01*
X80857118Y-57022507D01*
X80792285Y-56877461D01*
X80724405Y-56682493D01*
X80680654Y-56474990D01*
X80663907Y-56270311D01*
X80665130Y-56198396D01*
X80671115Y-56103038D01*
X80680005Y-56035791D01*
X80694171Y-55985693D01*
X80715981Y-55941780D01*
X80723129Y-55930130D01*
X80752074Y-55882530D01*
X80769676Y-55850215D01*
X80772154Y-55843471D01*
X80783182Y-55820732D01*
X80812678Y-55774543D01*
X80855260Y-55712409D01*
X80905544Y-55641835D01*
X80958150Y-55570327D01*
X81007695Y-55505388D01*
X81048796Y-55454524D01*
X81061598Y-55439877D01*
X81117397Y-55377856D01*
X81173425Y-55314799D01*
X81199499Y-55285077D01*
X81233491Y-55240347D01*
X81275906Y-55176523D01*
X81321660Y-55102340D01*
X81365668Y-55026531D01*
X81402846Y-54957831D01*
X81428111Y-54904975D01*
X81436462Y-54877978D01*
X81447543Y-54856481D01*
X81452907Y-54855231D01*
X81466564Y-54837888D01*
X81484886Y-54793018D01*
X81504613Y-54731358D01*
X81522485Y-54663648D01*
X81535244Y-54600625D01*
X81538895Y-54571923D01*
X81543923Y-54513308D01*
X81631847Y-54622767D01*
X81700197Y-54708202D01*
X81747404Y-54768594D01*
X81776986Y-54809212D01*
X81792459Y-54835327D01*
X81797343Y-54852209D01*
X82060141Y-54852209D01*
X82031608Y-54816208D01*
X82013891Y-54795229D01*
X81901277Y-54662605D01*
X81813859Y-54557531D01*
X81750550Y-54478640D01*
X81710262Y-54424564D01*
X81691911Y-54393934D01*
X81690462Y-54388212D01*
X81677682Y-54364495D01*
X81675808Y-54363513D01*
X81651606Y-54337731D01*
X81623814Y-54287186D01*
X81598612Y-54224953D01*
X81582578Y-54166284D01*
X81569476Y-54116042D01*
X81554522Y-54084863D01*
X81551478Y-54082092D01*
X81539485Y-54056952D01*
X81534386Y-54010950D01*
X81534385Y-54009039D01*
X81540114Y-53951682D01*
X81555145Y-53871899D01*
X81576717Y-53779952D01*
X81602071Y-53686105D01*
X81628446Y-53600622D01*
X81653082Y-53533766D01*
X81672010Y-53497308D01*
X81685200Y-53466386D01*
X81698533Y-53415218D01*
X81700698Y-53404284D01*
X81713772Y-53354040D01*
X81728711Y-53322862D01*
X81731754Y-53320092D01*
X81746685Y-53293632D01*
X81749077Y-53274535D01*
X81758430Y-53236778D01*
X81781910Y-53183497D01*
X81793039Y-53162928D01*
X81853547Y-53061308D01*
X81903957Y-52989783D01*
X81951019Y-52943192D01*
X82001482Y-52916371D01*
X82062097Y-52904158D01*
X82134975Y-52901384D01*
X82259669Y-52916108D01*
X82364283Y-52958791D01*
X82415912Y-52998029D01*
X82447694Y-53041361D01*
X82484198Y-53110591D01*
X82520261Y-53193807D01*
X82550720Y-53279100D01*
X82570371Y-53354348D01*
X82578407Y-53429054D01*
X82579502Y-53517803D01*
X82576193Y-53571278D01*
X82566373Y-53642959D01*
X82550117Y-53691237D01*
X82520317Y-53731780D01*
X82489683Y-53762000D01*
X82441751Y-53815830D01*
X82392145Y-53886034D01*
X82347220Y-53961692D01*
X82313328Y-54031881D01*
X82296823Y-54085681D01*
X82296154Y-54094681D01*
X82304758Y-54135248D01*
X82326710Y-54193065D01*
X82356225Y-54256297D01*
X82387516Y-54313107D01*
X82414797Y-54351657D01*
X82426304Y-54360912D01*
X82450486Y-54383377D01*
X82452927Y-54393283D01*
X82469284Y-54416647D01*
X82512111Y-54452216D01*
X82573004Y-54494562D01*
X82643562Y-54538254D01*
X82715381Y-54577864D01*
X82780059Y-54607964D01*
X82792808Y-54612885D01*
X82863009Y-54632291D01*
X82950373Y-54643697D01*
X83064552Y-54648235D01*
X83095654Y-54648426D01*
X83195086Y-54647339D01*
X83268207Y-54642392D01*
X83327743Y-54631541D01*
X83386417Y-54612740D01*
X83432550Y-54594273D01*
X83518052Y-54551383D01*
X83597251Y-54498990D01*
X83662688Y-54443400D01*
X83706904Y-54390919D01*
X83722462Y-54349166D01*
X83723432Y-54345004D01*
X83488000Y-54345004D01*
X83470948Y-54362282D01*
X83424960Y-54389111D01*
X83357792Y-54421597D01*
X83277203Y-54455846D01*
X83234000Y-54472525D01*
X83188442Y-54478967D01*
X83116934Y-54477815D01*
X83031605Y-54470267D01*
X82944581Y-54457517D01*
X82867990Y-54440761D01*
X82846273Y-54434296D01*
X82787589Y-54411046D01*
X82753247Y-54389852D01*
X82745982Y-54374918D01*
X82768527Y-54370449D01*
X82809039Y-54377040D01*
X82909000Y-54391055D01*
X83032187Y-54394861D01*
X83164307Y-54389183D01*
X83291070Y-54374740D01*
X83398183Y-54352255D01*
X83417647Y-54346315D01*
X83463495Y-54331901D01*
X83483255Y-54329653D01*
X83487909Y-54339365D01*
X83488000Y-54345004D01*
X83723432Y-54345004D01*
X83731260Y-54311437D01*
X83742000Y-54298384D01*
X83751999Y-54274016D01*
X83759043Y-54222114D01*
X83761539Y-54158041D01*
X83760141Y-54110288D01*
X83581050Y-54110288D01*
X83567410Y-54155675D01*
X83517895Y-54186704D01*
X83486136Y-54195978D01*
X83428826Y-54209237D01*
X83355254Y-54225936D01*
X83274981Y-54243946D01*
X83197565Y-54261143D01*
X83132568Y-54275397D01*
X83089549Y-54284584D01*
X83077693Y-54286853D01*
X83054876Y-54284822D01*
X83004065Y-54278548D01*
X82935946Y-54269356D01*
X82931154Y-54268687D01*
X82793346Y-54244200D01*
X82672681Y-54212587D01*
X82576746Y-54176186D01*
X82518298Y-54141641D01*
X82465083Y-54099209D01*
X82510719Y-54032720D01*
X82589717Y-53927538D01*
X82664759Y-53853956D01*
X82745486Y-53806935D01*
X82841537Y-53781439D01*
X82962553Y-53772432D01*
X83009308Y-53772217D01*
X83105035Y-53774168D01*
X83174447Y-53779985D01*
X83230277Y-53791992D01*
X83285259Y-53812515D01*
X83321923Y-53829307D01*
X83420079Y-53884361D01*
X83491809Y-53947366D01*
X83549604Y-54029820D01*
X83559900Y-54048374D01*
X83581050Y-54110288D01*
X83760141Y-54110288D01*
X83759434Y-54086173D01*
X83749658Y-54032933D01*
X83727018Y-53982022D01*
X83686320Y-53917139D01*
X83683385Y-53912737D01*
X83633378Y-53828217D01*
X83610013Y-53758117D01*
X83611345Y-53690217D01*
X83635429Y-53612296D01*
X83635532Y-53612040D01*
X83665820Y-53540312D01*
X83697047Y-53472580D01*
X83724163Y-53419276D01*
X83742119Y-53390828D01*
X83743110Y-53389846D01*
X83757024Y-53366767D01*
X83777189Y-53322625D01*
X83780880Y-53313661D01*
X83820705Y-53247394D01*
X83885604Y-53173257D01*
X83965616Y-53100684D01*
X84050776Y-53039104D01*
X84100232Y-53011341D01*
X84168527Y-52981280D01*
X84257031Y-52946808D01*
X84348477Y-52914593D01*
X84363554Y-52909665D01*
X84458136Y-52881871D01*
X84534329Y-52867452D01*
X84609458Y-52863932D01*
X84666401Y-52866343D01*
X84804099Y-52890914D01*
X84948727Y-52943864D01*
X85088692Y-53019160D01*
X85212402Y-53110773D01*
X85291852Y-53191729D01*
X85388273Y-53330657D01*
X85476186Y-53500635D01*
X85552281Y-53693986D01*
X85613250Y-53903032D01*
X85629876Y-53975993D01*
X85648270Y-54074137D01*
X85655221Y-54150367D01*
X85821217Y-54150367D01*
X85821316Y-54122111D01*
X85818304Y-54029756D01*
X85812075Y-53950347D01*
X85806019Y-53910165D01*
X85791277Y-53850896D01*
X85768458Y-53772862D01*
X85740520Y-53684752D01*
X85710425Y-53595252D01*
X85681132Y-53513050D01*
X85655601Y-53446833D01*
X85636792Y-53405288D01*
X85631083Y-53396724D01*
X85618362Y-53366616D01*
X85617693Y-53358080D01*
X85606000Y-53322684D01*
X85574644Y-53265603D01*
X85529205Y-53194977D01*
X85475263Y-53118948D01*
X85418402Y-53045657D01*
X85364200Y-52983246D01*
X85352187Y-52970770D01*
X85269083Y-52893856D01*
X85181916Y-52825324D01*
X85099629Y-52771430D01*
X85031165Y-52738430D01*
X85012396Y-52733033D01*
X84954363Y-52715481D01*
X84916235Y-52699595D01*
X84872640Y-52688689D01*
X84801343Y-52681377D01*
X84713556Y-52677683D01*
X84620492Y-52677633D01*
X84533361Y-52681252D01*
X84463376Y-52688563D01*
X84423920Y-52698504D01*
X84376917Y-52715984D01*
X84311528Y-52735310D01*
X84279308Y-52743460D01*
X84131110Y-52793054D01*
X83984545Y-52868389D01*
X83848424Y-52963116D01*
X83731559Y-53070890D01*
X83642760Y-53185363D01*
X83626132Y-53214000D01*
X83561152Y-53336672D01*
X83509262Y-53439508D01*
X83472326Y-53518600D01*
X83452211Y-53570039D01*
X83448990Y-53585231D01*
X83438333Y-53635570D01*
X83407475Y-53653681D01*
X83353530Y-53641118D01*
X83348794Y-53639121D01*
X83225927Y-53590176D01*
X83125481Y-53560960D01*
X83037009Y-53550061D01*
X82950066Y-53556070D01*
X82867072Y-53574078D01*
X82763913Y-53601539D01*
X82775321Y-53539654D01*
X82776332Y-53482935D01*
X82765962Y-53400284D01*
X82746320Y-53302444D01*
X82719516Y-53200157D01*
X82692159Y-53116308D01*
X82621548Y-52972432D01*
X82524765Y-52857455D01*
X82401562Y-52771179D01*
X82251692Y-52713409D01*
X82160221Y-52694098D01*
X82103039Y-52690532D01*
X82062194Y-52698061D01*
X82056914Y-52701263D01*
X82025399Y-52717453D01*
X81980647Y-52731454D01*
X81937067Y-52739985D01*
X81909066Y-52739762D01*
X81905385Y-52735788D01*
X81913623Y-52711769D01*
X81934523Y-52665166D01*
X81962361Y-52607874D01*
X81991415Y-52551791D01*
X82009197Y-52519987D01*
X82031957Y-52481203D01*
X82065550Y-52423920D01*
X82089410Y-52383218D01*
X82140299Y-52302200D01*
X82203680Y-52210163D01*
X82275361Y-52112276D01*
X82351149Y-52013710D01*
X82426852Y-51919635D01*
X82498279Y-51835222D01*
X82561237Y-51765639D01*
X82611533Y-51716059D01*
X82644975Y-51691650D01*
X82651498Y-51690000D01*
X82677642Y-51677909D01*
X82706967Y-51654646D01*
X82741627Y-51629641D01*
X82800555Y-51594130D01*
X82872821Y-51554583D01*
X82896650Y-51542300D01*
X82966132Y-51506190D01*
X83021358Y-51475890D01*
X83053665Y-51456216D01*
X83058211Y-51452427D01*
X83080970Y-51438553D01*
X83127571Y-51417969D01*
X83155904Y-51406994D01*
X83215845Y-51383683D01*
X83264397Y-51362913D01*
X83277302Y-51356621D01*
X83357735Y-51324915D01*
X83469401Y-51296381D01*
X83604539Y-51271680D01*
X83755385Y-51251474D01*
X83914178Y-51236427D01*
X84073154Y-51227200D01*
X84224551Y-51224456D01*
X84360606Y-51228857D01*
X84473557Y-51241065D01*
X84520091Y-51250593D01*
X84592495Y-51269881D01*
X84654066Y-51287922D01*
X84689616Y-51300112D01*
X84733743Y-51313513D01*
X84794855Y-51326389D01*
X84811629Y-51329131D01*
X84865219Y-51340732D01*
X84900316Y-51354766D01*
X84905590Y-51359546D01*
X84932657Y-51375633D01*
X84946701Y-51377384D01*
X84983966Y-51384947D01*
X85035763Y-51403475D01*
X85043240Y-51406692D01*
X85108325Y-51435026D01*
X85177464Y-51464616D01*
X85182962Y-51466941D01*
X85263483Y-51502737D01*
X85343014Y-51541133D01*
X85413715Y-51577969D01*
X85467744Y-51609086D01*
X85497259Y-51630324D01*
X85500462Y-51635385D01*
X85515777Y-51650114D01*
X85522913Y-51650923D01*
X85543956Y-51664330D01*
X85586343Y-51701008D01*
X85644774Y-51755644D01*
X85713949Y-51822926D01*
X85788568Y-51897540D01*
X85863329Y-51974172D01*
X85932934Y-52047510D01*
X85992081Y-52112241D01*
X86035471Y-52163051D01*
X86041750Y-52171021D01*
X86082625Y-52228389D01*
X86134556Y-52307512D01*
X86191398Y-52398308D01*
X86247005Y-52490692D01*
X86295231Y-52574582D01*
X86329931Y-52639892D01*
X86338034Y-52657154D01*
X86368702Y-52735603D01*
X86397254Y-52824171D01*
X86421506Y-52913793D01*
X86439274Y-52995405D01*
X86448372Y-53059942D01*
X86446617Y-53098339D01*
X86445125Y-53101546D01*
X86449992Y-53115765D01*
X86454662Y-53116307D01*
X86463143Y-53135312D01*
X86471371Y-53190187D01*
X86479176Y-53277726D01*
X86486389Y-53394725D01*
X86492840Y-53537977D01*
X86498360Y-53704275D01*
X86502779Y-53890415D01*
X86505813Y-54083461D01*
X86510130Y-54286369D01*
X86518257Y-54455976D01*
X86530963Y-54597941D01*
X86549014Y-54717921D01*
X86573180Y-54821575D01*
X86604228Y-54914560D01*
X86625609Y-54965645D01*
X86644425Y-55012885D01*
X86653156Y-55045254D01*
X86653231Y-55046880D01*
X86661345Y-55074322D01*
X86682167Y-55123561D01*
X86700021Y-55161158D01*
X86732866Y-55228187D01*
X86773552Y-55312067D01*
X86812263Y-55392538D01*
X86845020Y-55458800D01*
X86872446Y-55510321D01*
X86889487Y-55537695D01*
X86891212Y-55539451D01*
X86905068Y-55559994D01*
X86932340Y-55607963D01*
X86968891Y-55675875D01*
X87004632Y-55744604D01*
X87047333Y-55827291D01*
X87085550Y-55900125D01*
X87114569Y-55954186D01*
X87128009Y-55977952D01*
X87181001Y-56066979D01*
X87218595Y-56137665D01*
X87247451Y-56203924D01*
X87274233Y-56279669D01*
X87278033Y-56291320D01*
X87308679Y-56385402D01*
X87343254Y-56490802D01*
X87368786Y-56568128D01*
X87391607Y-56642988D01*
X87408180Y-56708881D01*
X87415184Y-56752463D01*
X87415231Y-56754720D01*
X87423584Y-56800019D01*
X87436452Y-56822482D01*
X87443522Y-56849168D01*
X87448013Y-56907499D01*
X87450098Y-56990141D01*
X87649767Y-56990141D01*
X87648170Y-56972499D01*
X87635531Y-56851485D01*
X87621791Y-56735108D01*
X87608035Y-56633487D01*
X87595345Y-56556745D01*
X87590871Y-56535538D01*
X87556611Y-56410268D01*
X87510314Y-56278756D01*
X87449383Y-56134971D01*
X87371221Y-55972879D01*
X87273232Y-55786451D01*
X87250214Y-55744231D01*
X87210483Y-55671418D01*
X87176987Y-55609444D01*
X87154900Y-55567906D01*
X87150149Y-55558615D01*
X87124970Y-55518341D01*
X87110210Y-55499339D01*
X87089320Y-55467379D01*
X87055761Y-55407754D01*
X87013431Y-55328189D01*
X86966229Y-55236409D01*
X86918054Y-55140139D01*
X86872804Y-55047105D01*
X86834378Y-54965033D01*
X86806674Y-54901646D01*
X86799945Y-54884538D01*
X86775309Y-54813060D01*
X86754720Y-54743974D01*
X86748379Y-54718461D01*
X86734714Y-54656832D01*
X86717980Y-54581775D01*
X86711403Y-54552384D01*
X86704189Y-54498491D01*
X86698437Y-54410505D01*
X86694318Y-54293389D01*
X86692006Y-54152107D01*
X86691672Y-53991620D01*
X86691698Y-53985769D01*
X86691389Y-53841943D01*
X86689306Y-53699969D01*
X86685704Y-53568210D01*
X86680838Y-53455031D01*
X86674963Y-53368795D01*
X86672057Y-53341000D01*
X86649468Y-53173310D01*
X86625394Y-53020227D01*
X86601004Y-52888200D01*
X86577466Y-52783676D01*
X86560502Y-52725538D01*
X86534013Y-52656711D01*
X86498792Y-52575837D01*
X86459410Y-52492232D01*
X86420439Y-52415211D01*
X86386451Y-52354086D01*
X86362016Y-52318175D01*
X86359123Y-52315231D01*
X86343455Y-52293824D01*
X86316281Y-52250945D01*
X86302063Y-52227308D01*
X86230269Y-52120075D01*
X86134978Y-51998151D01*
X86024058Y-51870148D01*
X85905380Y-51744683D01*
X85786810Y-51630370D01*
X85676218Y-51535823D01*
X85656770Y-51520815D01*
X85539875Y-51442022D01*
X85400049Y-51362802D01*
X85252505Y-51291214D01*
X85129231Y-51241247D01*
X85062631Y-51215892D01*
X85010307Y-51193496D01*
X84983670Y-51178964D01*
X84951692Y-51166676D01*
X84910796Y-51162461D01*
X84849752Y-51153435D01*
X84767507Y-51129041D01*
X84676782Y-51093307D01*
X84642756Y-51077606D01*
X84602356Y-51068630D01*
X84523159Y-51061905D01*
X84405382Y-51057439D01*
X84249240Y-51055244D01*
X84164064Y-51055000D01*
X83991755Y-51055468D01*
G37*
X83991755Y-51055468D02*
X83854857Y-51057010D01*
X83749716Y-51059833D01*
X83672676Y-51064143D01*
X83620082Y-51070147D01*
X83588278Y-51078051D01*
X83573609Y-51088063D01*
X83573398Y-51088393D01*
X83548738Y-51100030D01*
X83513044Y-51103846D01*
X83461950Y-51110932D01*
X83383065Y-51130363D01*
X83284645Y-51159398D01*
X83174946Y-51195295D01*
X83062223Y-51235313D01*
X82954734Y-51276710D01*
X82860734Y-51316746D01*
X82833462Y-51329490D01*
X82619321Y-51454083D01*
X82418706Y-51615188D01*
X82231842Y-51812574D01*
X82058953Y-52046008D01*
X81926824Y-52265882D01*
X81883824Y-52343288D01*
X81839029Y-52422358D01*
X81810863Y-52471036D01*
X81774504Y-52540717D01*
X81736931Y-52624691D01*
X81716616Y-52676692D01*
X81690961Y-52747907D01*
X81657596Y-52840662D01*
X81622003Y-52939710D01*
X81605288Y-52986265D01*
X81571262Y-53087704D01*
X81538885Y-53195668D01*
X81513307Y-53292550D01*
X81505563Y-53326999D01*
X81481668Y-53420615D01*
X81449529Y-53518785D01*
X81418947Y-53593810D01*
X81349606Y-53750440D01*
X81302020Y-53882421D01*
X81274380Y-53996275D01*
X81264876Y-54098527D01*
X81266171Y-54144602D01*
X81275742Y-54241113D01*
X81290132Y-54329087D01*
X81307492Y-54400783D01*
X81325971Y-54448461D01*
X81342628Y-54464461D01*
X81356223Y-54481640D01*
X81359868Y-54527019D01*
X81354810Y-54591357D01*
X81342299Y-54665416D01*
X81323582Y-54739956D01*
X81299907Y-54805740D01*
X81295113Y-54816154D01*
X81260503Y-54876267D01*
X81205721Y-54957729D01*
X81136690Y-55052801D01*
X81059334Y-55153746D01*
X80979578Y-55252825D01*
X80903345Y-55342301D01*
X80838881Y-55412077D01*
X80734225Y-55533971D01*
X80640222Y-55671802D01*
X80580380Y-55783308D01*
X80551936Y-55844037D01*
X80528097Y-55893503D01*
X80518704Y-55912084D01*
X80509134Y-55944158D01*
X80496983Y-56004839D01*
X80484163Y-56083920D01*
X80477286Y-56133340D01*
X80465448Y-56240590D01*
X80462254Y-56326400D01*
X80467697Y-56407439D01*
X80477175Y-56473486D01*
X80504970Y-56612512D01*
X80539397Y-56738656D01*
X80577243Y-56840712D01*
X80590194Y-56867692D01*
X80608866Y-56907786D01*
X80615726Y-56929829D01*
X80626264Y-56970666D01*
X80654288Y-57035391D01*
X80695128Y-57115704D01*
X80744112Y-57203306D01*
X80796567Y-57289897D01*
X80847822Y-57367178D01*
X80893206Y-57426849D01*
X80899699Y-57434308D01*
X80929016Y-57481515D01*
X80956112Y-57548643D01*
X80967890Y-57590615D01*
X80987902Y-57669630D01*
X81010878Y-57748426D01*
X81021400Y-57780271D01*
X81050357Y-57862464D01*
X80969755Y-57944691D01*
X80926604Y-57993055D01*
X80895959Y-58041452D01*
X80872349Y-58101627D01*
X80850300Y-58185321D01*
X80843377Y-58215846D01*
X80834001Y-58244030D01*
X80815050Y-58257596D01*
X80775761Y-58260521D01*
X80728548Y-58258252D01*
X80667706Y-58255831D01*
X80632854Y-58262284D01*
X80611007Y-58283665D01*
X80590899Y-58322415D01*
X80571457Y-58380225D01*
X80560228Y-58447444D01*
X80557915Y-58511441D01*
X80565216Y-58559584D01*
X80576770Y-58577308D01*
X80591604Y-58604097D01*
X80596308Y-58639592D01*
X80605429Y-58672344D01*
X80634896Y-58718013D01*
X80687865Y-58780756D01*
X80765921Y-58863131D01*
X80832857Y-58929515D01*
X80891709Y-58984150D01*
X80936345Y-59021595D01*
X80960631Y-59036411D01*
X80961305Y-59036461D01*
X80984951Y-59048250D01*
X80987077Y-59056000D01*
X81002723Y-59073732D01*
X81013993Y-59075538D01*
X81048566Y-59089311D01*
X81064189Y-59103590D01*
X81099674Y-59128200D01*
X81144735Y-59144219D01*
X81185134Y-59157060D01*
X81202000Y-59170308D01*
X81202000Y-59170340D01*
X81218733Y-59186918D01*
X81263192Y-59213791D01*
X81326767Y-59246874D01*
X81400848Y-59282087D01*
X81476824Y-59315344D01*
X81546085Y-59342565D01*
X81600022Y-59359665D01*
X81602539Y-59360270D01*
X81650657Y-59374491D01*
X81680693Y-59388195D01*
X81708880Y-59396675D01*
X81764255Y-59405407D01*
X81834981Y-59412537D01*
X81837000Y-59412691D01*
X81942547Y-59413961D01*
X82040825Y-59403068D01*
X82122549Y-59381933D01*
X82178436Y-59352477D01*
X82191008Y-59339446D01*
X82210680Y-59318630D01*
X82231194Y-59322937D01*
X82259621Y-59347253D01*
X82319770Y-59390871D01*
X82411588Y-59441402D01*
X82528809Y-59496378D01*
X82665168Y-59553334D01*
X82814397Y-59609802D01*
X82970233Y-59663315D01*
X83126408Y-59711407D01*
X83276657Y-59751611D01*
X83302385Y-59757772D01*
X83402170Y-59775369D01*
X83534361Y-59789778D01*
X83692397Y-59800748D01*
X83869718Y-59808026D01*
X84059764Y-59811360D01*
X84255974Y-59810497D01*
X84451787Y-59805187D01*
X84492012Y-59803493D01*
X84627012Y-59798369D01*
X84727108Y-59796852D01*
X84796314Y-59799033D01*
X84838644Y-59804998D01*
X84854471Y-59811501D01*
X84895221Y-59830367D01*
X84951977Y-59846414D01*
X84959483Y-59847908D01*
X85009383Y-59861001D01*
X85040147Y-59875986D01*
X85042677Y-59878830D01*
X85066308Y-59887194D01*
X85117575Y-59892748D01*
X85185148Y-59895480D01*
X85257694Y-59895380D01*
X85323882Y-59892436D01*
X85372380Y-59886637D01*
X85391414Y-59879182D01*
X85415749Y-59865703D01*
X85463755Y-59852704D01*
X85481800Y-59849434D01*
X85536486Y-59834938D01*
X85612169Y-59807527D01*
X85695173Y-59772305D01*
X85721579Y-59759962D01*
X85799846Y-59719819D01*
X85863755Y-59679205D01*
X85924146Y-59629685D01*
X85991859Y-59562819D01*
X86037770Y-59513837D01*
X86100710Y-59444790D01*
X86154381Y-59384380D01*
X86192840Y-59339396D01*
X86209757Y-59317335D01*
X86234566Y-59295678D01*
X86284335Y-59265192D01*
X86346527Y-59233340D01*
X86415773Y-59197799D01*
X86476042Y-59161676D01*
X86510760Y-59135747D01*
X86544883Y-59106926D01*
X86565887Y-59095077D01*
X86588547Y-59083290D01*
X86603600Y-59070654D01*
X86639982Y-59038533D01*
X86666273Y-59016923D01*
X86701972Y-58988379D01*
X86754228Y-58946350D01*
X86791711Y-58916104D01*
X86874613Y-58861499D01*
X86959519Y-58834272D01*
X86976758Y-58831595D01*
X87073202Y-58813432D01*
X87202203Y-58780818D01*
X87360379Y-58734641D01*
X87434770Y-58711393D01*
X87522084Y-58678603D01*
X87619992Y-58633968D01*
X87716857Y-58583573D01*
X87801039Y-58533503D01*
X87860900Y-58489840D01*
X87864196Y-58486892D01*
X87905673Y-58452173D01*
X87935935Y-58432464D01*
X87941702Y-58430769D01*
X87966910Y-58415999D01*
X88005325Y-58378154D01*
X88048871Y-58326929D01*
X88089471Y-58272022D01*
X88119049Y-58223127D01*
X88124436Y-58211397D01*
X88154332Y-58092836D01*
X88149418Y-57975878D01*
X88141768Y-57953900D01*
X87932237Y-57953900D01*
X87932109Y-57970932D01*
X87921200Y-58029555D01*
X87903456Y-58088162D01*
X87883374Y-58134609D01*
X87865452Y-58156754D01*
X87863101Y-58157231D01*
X87845996Y-58172733D01*
X87844552Y-58181654D01*
X87829719Y-58215786D01*
X87791739Y-58264156D01*
X87738837Y-58317708D01*
X87679242Y-58367385D01*
X87669231Y-58374655D01*
X87606059Y-58414932D01*
X87529989Y-58456644D01*
X87448171Y-58496750D01*
X87367753Y-58532207D01*
X87295881Y-58559972D01*
X87239705Y-58577005D01*
X87206371Y-58580262D01*
X87200308Y-58574228D01*
X87211285Y-58553159D01*
X87239925Y-58510880D01*
X87276019Y-58461882D01*
X87331742Y-58383267D01*
X87384205Y-58299770D01*
X87428568Y-58220158D01*
X87459990Y-58153197D01*
X87473631Y-58107655D01*
X87473847Y-58103579D01*
X87482199Y-58062970D01*
X87490561Y-58048792D01*
X87507348Y-58016596D01*
X87529681Y-57954881D01*
X87554812Y-57872317D01*
X87579995Y-57777572D01*
X87590844Y-57732269D01*
X87611711Y-57667887D01*
X87635655Y-57633823D01*
X87659130Y-57632792D01*
X87677994Y-57665597D01*
X87705286Y-57713582D01*
X87756822Y-57773652D01*
X87824100Y-57836576D01*
X87866786Y-57870593D01*
X87914730Y-57914174D01*
X87932237Y-57953900D01*
X88141768Y-57953900D01*
X88111799Y-57867806D01*
X88043581Y-57775906D01*
X87985021Y-57729061D01*
X87920554Y-57677665D01*
X87861618Y-57614860D01*
X87841137Y-57586467D01*
X87795396Y-57520362D01*
X87744452Y-57455758D01*
X87728791Y-57437986D01*
X87693284Y-57393708D01*
X87675300Y-57350032D01*
X87669101Y-57290174D01*
X87668653Y-57262140D01*
X87665815Y-57187947D01*
X87658626Y-57088026D01*
X87649767Y-56990141D01*
X87450098Y-56990141D01*
X87449952Y-57089761D01*
X87447750Y-57199023D01*
X87443666Y-57310595D01*
X87437874Y-57417141D01*
X87430550Y-57511327D01*
X87421866Y-57585820D01*
X87417722Y-57610154D01*
X87361560Y-57826366D01*
X87281044Y-58036661D01*
X87179951Y-58234652D01*
X87062054Y-58413952D01*
X86931128Y-58568172D01*
X86790948Y-58690926D01*
X86770462Y-58705469D01*
X86717610Y-58742700D01*
X86669639Y-58778914D01*
X86613506Y-58824196D01*
X86567404Y-58862485D01*
X86523120Y-58897905D01*
X86468449Y-58939506D01*
X86412636Y-58980546D01*
X86364921Y-59014284D01*
X86334548Y-59033976D01*
X86328912Y-59036461D01*
X86331791Y-59020611D01*
X86346231Y-58981275D01*
X86351382Y-58968704D01*
X86369689Y-58904087D01*
X86376026Y-58854887D01*
X86208192Y-58854887D01*
X86152323Y-58940790D01*
X86115482Y-58995250D01*
X86083750Y-59038471D01*
X86071996Y-59052511D01*
X86055757Y-59088252D01*
X86047724Y-59142399D01*
X86047539Y-59151599D01*
X86043993Y-59191248D01*
X86029731Y-59227946D01*
X85999314Y-59270561D01*
X85947302Y-59327957D01*
X85925423Y-59350673D01*
X85827108Y-59448117D01*
X85742415Y-59521293D01*
X85661135Y-59576902D01*
X85573059Y-59621643D01*
X85467976Y-59662217D01*
X85432077Y-59674423D01*
X85351252Y-59690087D01*
X85248240Y-59694520D01*
X85138038Y-59688514D01*
X85035639Y-59672863D01*
X84958286Y-59649364D01*
X84905588Y-59619605D01*
X84869797Y-59587273D01*
X84863132Y-59575409D01*
X84841063Y-59537240D01*
X84802994Y-59493054D01*
X84797219Y-59487486D01*
X84748105Y-59432804D01*
X84691982Y-59357580D01*
X84637191Y-59274434D01*
X84592077Y-59195984D01*
X84565848Y-59137510D01*
X84553907Y-59072598D01*
X84562416Y-58997147D01*
X84566061Y-58981203D01*
X84583817Y-58907266D01*
X84601154Y-58834588D01*
X84605386Y-58816733D01*
X84642686Y-58732511D01*
X84709359Y-58673541D01*
X84781502Y-58644625D01*
X84860614Y-58637042D01*
X84926354Y-58662503D01*
X84982071Y-58723111D01*
X85019993Y-58794471D01*
X85060062Y-58848666D01*
X85102808Y-58874826D01*
X85158631Y-58883736D01*
X85209063Y-58875023D01*
X85241225Y-58852232D01*
X85246462Y-58835287D01*
X85257925Y-58801356D01*
X85287538Y-58748329D01*
X85328137Y-58686879D01*
X85372558Y-58627679D01*
X85413636Y-58581403D01*
X85422308Y-58573311D01*
X85498922Y-58517825D01*
X85566415Y-58496950D01*
X85630604Y-58509187D01*
X85644604Y-58516035D01*
X85694397Y-58554476D01*
X85746471Y-58612553D01*
X85792390Y-58678457D01*
X85823721Y-58740380D01*
X85832616Y-58779265D01*
X85845247Y-58849635D01*
X85878114Y-58902317D01*
X85923672Y-58932075D01*
X85974380Y-58933673D01*
X86017371Y-58907530D01*
X86056408Y-58884861D01*
X86113865Y-58867962D01*
X86128401Y-58865589D01*
X86208192Y-58854887D01*
X86376026Y-58854887D01*
X86379279Y-58829642D01*
X86379693Y-58813815D01*
X86374778Y-58752273D01*
X86355278Y-58711866D01*
X86326186Y-58684594D01*
X86262823Y-58652582D01*
X86213840Y-58651685D01*
X86134365Y-58666469D01*
X86074893Y-58682209D01*
X86051417Y-58692141D01*
X86026525Y-58693102D01*
X85997730Y-58663842D01*
X85961601Y-58600797D01*
X85959616Y-58596846D01*
X85926403Y-58543430D01*
X85879088Y-58482916D01*
X85825463Y-58423523D01*
X85773323Y-58373471D01*
X85730460Y-58340982D01*
X85709535Y-58333077D01*
X85698015Y-58326004D01*
X85690298Y-58301106D01*
X85685821Y-58252867D01*
X85684025Y-58175770D01*
X85684182Y-58083961D01*
X85682065Y-57977110D01*
X85674878Y-57861789D01*
X85663654Y-57745763D01*
X85649423Y-57636794D01*
X85633215Y-57542646D01*
X85616063Y-57471083D01*
X85598996Y-57429867D01*
X85596972Y-57427294D01*
X85605120Y-57409671D01*
X85637771Y-57376027D01*
X85687318Y-57332607D01*
X85746153Y-57285659D01*
X85806668Y-57241429D01*
X85861255Y-57206162D01*
X85877009Y-57197377D01*
X85914052Y-57175118D01*
X85930308Y-57161726D01*
X85952890Y-57148047D01*
X85999738Y-57127198D01*
X86032922Y-57114174D01*
X86097831Y-57083228D01*
X86131229Y-57048844D01*
X86137681Y-57031885D01*
X86138669Y-56975510D01*
X86110422Y-56941108D01*
X86056620Y-56929586D01*
X85980937Y-56941849D01*
X85899043Y-56973090D01*
X85842821Y-57003681D01*
X85764584Y-57052046D01*
X85673250Y-57112081D01*
X85577736Y-57177681D01*
X85486961Y-57242741D01*
X85409841Y-57301157D01*
X85362125Y-57340637D01*
X85320552Y-57377834D01*
X85263679Y-57429004D01*
X85214534Y-57473384D01*
X85156738Y-57523822D01*
X85103640Y-57567035D01*
X85071226Y-57590615D01*
X85040560Y-57612976D01*
X84989704Y-57652848D01*
X84927359Y-57703096D01*
X84862223Y-57756587D01*
X84802995Y-57806186D01*
X84758375Y-57844759D01*
X84738462Y-57863514D01*
X84698736Y-57895286D01*
X84636541Y-57933073D01*
X84566025Y-57969248D01*
X84501336Y-57996184D01*
X84480437Y-58002617D01*
X84368728Y-58028137D01*
X84285846Y-58035751D01*
X84224445Y-58022332D01*
X84177179Y-57984757D01*
X84136704Y-57919900D01*
X84102494Y-57841847D01*
X84075507Y-57770095D01*
X84058519Y-57709083D01*
X84049328Y-57645349D01*
X84045728Y-57565433D01*
X84045354Y-57492923D01*
X84047761Y-57382795D01*
X84055602Y-57297922D01*
X84070751Y-57224644D01*
X84090954Y-57160769D01*
X84165476Y-56965640D01*
X84238149Y-56806197D01*
X84310630Y-56679208D01*
X84384575Y-56581441D01*
X84392058Y-56573207D01*
X84449283Y-56510270D01*
X84506630Y-56445520D01*
X84535730Y-56411749D01*
X84578315Y-56366894D01*
X84632966Y-56316560D01*
X84690728Y-56268100D01*
X84742648Y-56228867D01*
X84779772Y-56206213D01*
X84789482Y-56203384D01*
X84814180Y-56191827D01*
X84834616Y-56176059D01*
X84901645Y-56128831D01*
X84992388Y-56081158D01*
X85092261Y-56040357D01*
X85129231Y-56028278D01*
X85189971Y-56008451D01*
X85222066Y-55990525D01*
X85234608Y-55966255D01*
X85236693Y-55930812D01*
X85225824Y-55870410D01*
X85191615Y-55839344D01*
X85131660Y-55836193D01*
X85090852Y-55844755D01*
X85011728Y-55865874D01*
X84915374Y-55735899D01*
X84864961Y-55670038D01*
X84818235Y-55612682D01*
X84783795Y-55574309D01*
X84778740Y-55569472D01*
X84749145Y-55537855D01*
X84738462Y-55518080D01*
X84755400Y-55504282D01*
X84799076Y-55484415D01*
X84841039Y-55469226D01*
X84916005Y-55440199D01*
X84988892Y-55405347D01*
X85016497Y-55389502D01*
X85064972Y-55361456D01*
X85100415Y-55345269D01*
X85107676Y-55343692D01*
X85131462Y-55330982D01*
X85132488Y-55329038D01*
X85153449Y-55306921D01*
X85193764Y-55276216D01*
X85238965Y-55246779D01*
X85274582Y-55228466D01*
X85283077Y-55226461D01*
X85304640Y-55213770D01*
X85346638Y-55179801D01*
X85401679Y-55130707D01*
X85429755Y-55104346D01*
X85505976Y-55021775D01*
X85580811Y-54923517D01*
X85647421Y-54820170D01*
X85698969Y-54722329D01*
X85728413Y-54641459D01*
X85742673Y-54596112D01*
X85754608Y-54571923D01*
X85767054Y-54541327D01*
X85780199Y-54489605D01*
X85783213Y-54474231D01*
X85795801Y-54410193D01*
X85808183Y-54354165D01*
X85809894Y-54347231D01*
X85817225Y-54293811D01*
X85820994Y-54214450D01*
X85821217Y-54150367D01*
X85655221Y-54150367D01*
X85650953Y-54220062D01*
X85635693Y-54298604D01*
X85634657Y-54302989D01*
X85594621Y-54461651D01*
X85556502Y-54588494D01*
X85517236Y-54690455D01*
X85473755Y-54774472D01*
X85422994Y-54847483D01*
X85364945Y-54913269D01*
X85305313Y-54968440D01*
X85227928Y-55030588D01*
X85139985Y-55094965D01*
X85048677Y-55156823D01*
X84961197Y-55211415D01*
X84884740Y-55253994D01*
X84826500Y-55279812D01*
X84801102Y-55285371D01*
X84762196Y-55291967D01*
X84706381Y-55308031D01*
X84689616Y-55313821D01*
X84621527Y-55332571D01*
X84554622Y-55342445D01*
X84544616Y-55342835D01*
X84469053Y-55356337D01*
X84423541Y-55390490D01*
X84409611Y-55439223D01*
X84428800Y-55496468D01*
X84482638Y-55556158D01*
X84489347Y-55561529D01*
X84568264Y-55626484D01*
X84635357Y-55690872D01*
X84702914Y-55767193D01*
X84755179Y-55832024D01*
X84839662Y-55939356D01*
X84775146Y-55993216D01*
X84731903Y-56026419D01*
X84700484Y-56045375D01*
X84694404Y-56047077D01*
X84664369Y-56059699D01*
X84614922Y-56093026D01*
X84554398Y-56140249D01*
X84491135Y-56194560D01*
X84433469Y-56249149D01*
X84392850Y-56293370D01*
X84335100Y-56361663D01*
X84269631Y-56436373D01*
X84235347Y-56474326D01*
X84192083Y-56523405D01*
X84162045Y-56561228D01*
X84152308Y-56578062D01*
X84140192Y-56601583D01*
X84126721Y-56617181D01*
X84107920Y-56646476D01*
X84080164Y-56701976D01*
X84048475Y-56773396D01*
X84037767Y-56799308D01*
X84006526Y-56875749D01*
X83978998Y-56942001D01*
X83959876Y-56986807D01*
X83956337Y-56994692D01*
X83920861Y-57079120D01*
X83896282Y-57159702D01*
X83880781Y-57246929D01*
X83872543Y-57351293D01*
X83869749Y-57483284D01*
X83869708Y-57494812D01*
X83871303Y-57621764D01*
X83876645Y-57719884D01*
X83885454Y-57785288D01*
X83892392Y-57807427D01*
X83910829Y-57847770D01*
X83938358Y-57911850D01*
X83969603Y-57987106D01*
X83975523Y-58001649D01*
X84018142Y-58095183D01*
X84061827Y-58157152D01*
X84115875Y-58193773D01*
X84189584Y-58211264D01*
X84292251Y-58215843D01*
X84295823Y-58215846D01*
X84367848Y-58213755D01*
X84423422Y-58208227D01*
X84452102Y-58200384D01*
X84453525Y-58198944D01*
X84477990Y-58185736D01*
X84525689Y-58174038D01*
X84540111Y-58171829D01*
X84606500Y-58152070D01*
X84690347Y-58111482D01*
X84780954Y-58056336D01*
X84867623Y-57992901D01*
X84914308Y-57952515D01*
X84961977Y-57911191D01*
X85029327Y-57856852D01*
X85104237Y-57799194D01*
X85129231Y-57780589D01*
X85205217Y-57722708D01*
X85278860Y-57663434D01*
X85337406Y-57613122D01*
X85350737Y-57600735D01*
X85393230Y-57561913D01*
X85422633Y-57538635D01*
X85430708Y-57535326D01*
X85438609Y-57558920D01*
X85451405Y-57610696D01*
X85466921Y-57680403D01*
X85482983Y-57757793D01*
X85497414Y-57832614D01*
X85508039Y-57894616D01*
X85510337Y-57910502D01*
X85514797Y-57976894D01*
X85514829Y-58064688D01*
X85510490Y-58156468D01*
X85509475Y-58169387D01*
X85501642Y-58250301D01*
X85493174Y-58299572D01*
X85481829Y-58324602D01*
X85465363Y-58332792D01*
X85459870Y-58333077D01*
X85407439Y-58347130D01*
X85341320Y-58384312D01*
X85272131Y-58437154D01*
X85210492Y-58498186D01*
X85191204Y-58522044D01*
X85126176Y-58609025D01*
X85079338Y-58558485D01*
X85033632Y-58521478D01*
X84969248Y-58483348D01*
X84900700Y-58451367D01*
X84842499Y-58432811D01*
X84824500Y-58430769D01*
X84783856Y-58439573D01*
X84762620Y-58448736D01*
X84725247Y-58467756D01*
X84669383Y-58495386D01*
X84640770Y-58509333D01*
X84561484Y-58556247D01*
X84499723Y-58614527D01*
X84452482Y-58690015D01*
X84416754Y-58788553D01*
X84389534Y-58915983D01*
X84373538Y-59028731D01*
X84377592Y-59126753D01*
X84408996Y-59238158D01*
X84464505Y-59352024D01*
X84474476Y-59368272D01*
X84503474Y-59416260D01*
X84521083Y-59449360D01*
X84523539Y-59456538D01*
X84533085Y-59477921D01*
X84557266Y-59520005D01*
X84572094Y-59544000D01*
X84620648Y-59620915D01*
X84479286Y-59628599D01*
X84417681Y-59630646D01*
X84324996Y-59632044D01*
X84209223Y-59632753D01*
X84078354Y-59632735D01*
X83940381Y-59631951D01*
X83888539Y-59631453D01*
X83737916Y-59629437D01*
X83619694Y-59626672D01*
X83527201Y-59622634D01*
X83453761Y-59616795D01*
X83392701Y-59608630D01*
X83337346Y-59597613D01*
X83282847Y-59583720D01*
X83197875Y-59560721D01*
X83116791Y-59539319D01*
X83055245Y-59523638D01*
X83048385Y-59521966D01*
X82981697Y-59500051D01*
X82908108Y-59467688D01*
X82884732Y-59455403D01*
X82831461Y-59427737D01*
X82791198Y-59410519D01*
X82779434Y-59407692D01*
X82754999Y-59396921D01*
X82704574Y-59367203D01*
X82633879Y-59322428D01*
X82548633Y-59266487D01*
X82454553Y-59203272D01*
X82452013Y-59201531D01*
X82046558Y-59201531D01*
X82046226Y-59202258D01*
X82017662Y-59210298D01*
X81960960Y-59212043D01*
X81886383Y-59208439D01*
X81804192Y-59200432D01*
X81724651Y-59188968D01*
X81658022Y-59174992D01*
X81622077Y-59163162D01*
X81563727Y-59138316D01*
X81514608Y-59118811D01*
X81504847Y-59115289D01*
X81388463Y-59066164D01*
X81256332Y-58995527D01*
X81119543Y-58910276D01*
X80989180Y-58817306D01*
X80879087Y-58726030D01*
X80821273Y-58662599D01*
X80781817Y-58597808D01*
X80761947Y-58538135D01*
X80762889Y-58490062D01*
X80785872Y-58460067D01*
X80827575Y-58454015D01*
X80882788Y-58471786D01*
X80917492Y-58494269D01*
X80968476Y-58522166D01*
X81024006Y-58526453D01*
X81073961Y-58510805D01*
X81108217Y-58478894D01*
X81116651Y-58434396D01*
X81113940Y-58422972D01*
X81084709Y-58319536D01*
X81071300Y-58240748D01*
X81072356Y-58176160D01*
X81077959Y-58145612D01*
X81100619Y-58086634D01*
X81130064Y-58065080D01*
X81163478Y-58081538D01*
X81190995Y-58122118D01*
X81220199Y-58177114D01*
X81245933Y-58223503D01*
X81247388Y-58226013D01*
X81304065Y-58322988D01*
X81344300Y-58390965D01*
X81371086Y-58434849D01*
X81387415Y-58459544D01*
X81396145Y-58469846D01*
X81413836Y-58491597D01*
X81441364Y-58531884D01*
X81445116Y-58537723D01*
X81466415Y-58570616D01*
X81486679Y-58599549D01*
X81510190Y-58629234D01*
X81541231Y-58664383D01*
X81584083Y-58709710D01*
X81643028Y-58769926D01*
X81722349Y-58849745D01*
X81792226Y-58919742D01*
X81874149Y-59003138D01*
X81944525Y-59077443D01*
X81999373Y-59138229D01*
X82034711Y-59181068D01*
X82046558Y-59201531D01*
X82452013Y-59201531D01*
X82357359Y-59136674D01*
X82262770Y-59070583D01*
X82176505Y-59008890D01*
X82104282Y-58955488D01*
X82051820Y-58914266D01*
X82042154Y-58906051D01*
X81810597Y-58685290D01*
X81615605Y-58458081D01*
X81454828Y-58221513D01*
X81379918Y-58085934D01*
X81328959Y-57982341D01*
X81284794Y-57885573D01*
X81251641Y-57805222D01*
X81235186Y-57756692D01*
X81220798Y-57704655D01*
X81212003Y-57673654D01*
X81209289Y-57639109D01*
X81229991Y-57629692D01*
X81256932Y-57637343D01*
X81260739Y-57644346D01*
X81278235Y-57668359D01*
X81322317Y-57693281D01*
X81380932Y-57714196D01*
X81442025Y-57726188D01*
X81464325Y-57727384D01*
X81521476Y-57722373D01*
X81564592Y-57702823D01*
X81601441Y-57661965D01*
X81639794Y-57593028D01*
X81654873Y-57561308D01*
X81669687Y-57527529D01*
X81680872Y-57494582D01*
X81688937Y-57456518D01*
X81694389Y-57407387D01*
X81697736Y-57341239D01*
X81699485Y-57252124D01*
X81700146Y-57134093D01*
X81700231Y-57029849D01*
X81699586Y-56875862D01*
X81697524Y-56757431D01*
X81693860Y-56671056D01*
X81688408Y-56613234D01*
X81680979Y-56580465D01*
X81675808Y-56571672D01*
X81655495Y-56532774D01*
X81651385Y-56505613D01*
X81645536Y-56465729D01*
X81630218Y-56400764D01*
X81608775Y-56322556D01*
X81584550Y-56242941D01*
X81560886Y-56173757D01*
X81549462Y-56144769D01*
X81504332Y-56035715D01*
X81472214Y-55949433D01*
X81449000Y-55873568D01*
X81430581Y-55795765D01*
X81426040Y-55773538D01*
X81411240Y-55720093D01*
X81393523Y-55681868D01*
X81391999Y-55679842D01*
X81387070Y-55644603D01*
X81405824Y-55587870D01*
X81444094Y-55515556D01*
X81497711Y-55433577D01*
X81562509Y-55347848D01*
X81634318Y-55264283D01*
X81708971Y-55188798D01*
X81780324Y-55128769D01*
X81854801Y-55073800D01*
X81904338Y-55039269D01*
X81935290Y-55022214D01*
X81954013Y-55019671D01*
X81966860Y-55028678D01*
X81974330Y-55038308D01*
X82022829Y-55102917D01*
X82056727Y-55141678D01*
X82083419Y-55161042D01*
X82110300Y-55167459D01*
X82122855Y-55167846D01*
X82171050Y-55153646D01*
X82195062Y-55109882D01*
X82198462Y-55072405D01*
X82185842Y-55034701D01*
X82150905Y-54975045D01*
X82098033Y-54900021D01*
X82060141Y-54852209D01*
X81797343Y-54852209D01*
X81795153Y-54865128D01*
X81794601Y-54866612D01*
X81768822Y-54894730D01*
X81750532Y-54903615D01*
X81715163Y-54924972D01*
X81659481Y-54970823D01*
X81588796Y-55036161D01*
X81508420Y-55115977D01*
X81423663Y-55205263D01*
X81381867Y-55251261D01*
X81285786Y-55374979D01*
X81201718Y-55514185D01*
X81139861Y-55651788D01*
X81135504Y-55664174D01*
X81132710Y-55703736D01*
X81141459Y-55754261D01*
X81157503Y-55801027D01*
X81176593Y-55829311D01*
X81183977Y-55832154D01*
X81199541Y-55848188D01*
X81202000Y-55864399D01*
X81209926Y-55899337D01*
X81230298Y-55954706D01*
X81248491Y-55996283D01*
X81368789Y-56294323D01*
X81451788Y-56594134D01*
X81486091Y-56789538D01*
X81506271Y-56978252D01*
X81511898Y-57142039D01*
X81503166Y-57278034D01*
X81480270Y-57383374D01*
X81443406Y-57455196D01*
X81440449Y-57458731D01*
X81402574Y-57487541D01*
X81359085Y-57486354D01*
X81302137Y-57454415D01*
X81288187Y-57444077D01*
X81243368Y-57413296D01*
X81210039Y-57396363D01*
X81204311Y-57395231D01*
X81178006Y-57382990D01*
X81138958Y-57352883D01*
X81131769Y-57346384D01*
X81087568Y-57313697D01*
X81048566Y-57297825D01*
X81044516Y-57297538D01*
X81010827Y-57280801D01*
X80968727Y-57229987D01*
X80917672Y-57144191D01*
X80857118Y-57022507D01*
X80792285Y-56877461D01*
X80724405Y-56682493D01*
X80680654Y-56474990D01*
X80663907Y-56270311D01*
X80665130Y-56198396D01*
X80671115Y-56103038D01*
X80680005Y-56035791D01*
X80694171Y-55985693D01*
X80715981Y-55941780D01*
X80723129Y-55930130D01*
X80752074Y-55882530D01*
X80769676Y-55850215D01*
X80772154Y-55843471D01*
X80783182Y-55820732D01*
X80812678Y-55774543D01*
X80855260Y-55712409D01*
X80905544Y-55641835D01*
X80958150Y-55570327D01*
X81007695Y-55505388D01*
X81048796Y-55454524D01*
X81061598Y-55439877D01*
X81117397Y-55377856D01*
X81173425Y-55314799D01*
X81199499Y-55285077D01*
X81233491Y-55240347D01*
X81275906Y-55176523D01*
X81321660Y-55102340D01*
X81365668Y-55026531D01*
X81402846Y-54957831D01*
X81428111Y-54904975D01*
X81436462Y-54877978D01*
X81447543Y-54856481D01*
X81452907Y-54855231D01*
X81466564Y-54837888D01*
X81484886Y-54793018D01*
X81504613Y-54731358D01*
X81522485Y-54663648D01*
X81535244Y-54600625D01*
X81538895Y-54571923D01*
X81543923Y-54513308D01*
X81631847Y-54622767D01*
X81700197Y-54708202D01*
X81747404Y-54768594D01*
X81776986Y-54809212D01*
X81792459Y-54835327D01*
X81797343Y-54852209D01*
X82060141Y-54852209D01*
X82031608Y-54816208D01*
X82013891Y-54795229D01*
X81901277Y-54662605D01*
X81813859Y-54557531D01*
X81750550Y-54478640D01*
X81710262Y-54424564D01*
X81691911Y-54393934D01*
X81690462Y-54388212D01*
X81677682Y-54364495D01*
X81675808Y-54363513D01*
X81651606Y-54337731D01*
X81623814Y-54287186D01*
X81598612Y-54224953D01*
X81582578Y-54166284D01*
X81569476Y-54116042D01*
X81554522Y-54084863D01*
X81551478Y-54082092D01*
X81539485Y-54056952D01*
X81534386Y-54010950D01*
X81534385Y-54009039D01*
X81540114Y-53951682D01*
X81555145Y-53871899D01*
X81576717Y-53779952D01*
X81602071Y-53686105D01*
X81628446Y-53600622D01*
X81653082Y-53533766D01*
X81672010Y-53497308D01*
X81685200Y-53466386D01*
X81698533Y-53415218D01*
X81700698Y-53404284D01*
X81713772Y-53354040D01*
X81728711Y-53322862D01*
X81731754Y-53320092D01*
X81746685Y-53293632D01*
X81749077Y-53274535D01*
X81758430Y-53236778D01*
X81781910Y-53183497D01*
X81793039Y-53162928D01*
X81853547Y-53061308D01*
X81903957Y-52989783D01*
X81951019Y-52943192D01*
X82001482Y-52916371D01*
X82062097Y-52904158D01*
X82134975Y-52901384D01*
X82259669Y-52916108D01*
X82364283Y-52958791D01*
X82415912Y-52998029D01*
X82447694Y-53041361D01*
X82484198Y-53110591D01*
X82520261Y-53193807D01*
X82550720Y-53279100D01*
X82570371Y-53354348D01*
X82578407Y-53429054D01*
X82579502Y-53517803D01*
X82576193Y-53571278D01*
X82566373Y-53642959D01*
X82550117Y-53691237D01*
X82520317Y-53731780D01*
X82489683Y-53762000D01*
X82441751Y-53815830D01*
X82392145Y-53886034D01*
X82347220Y-53961692D01*
X82313328Y-54031881D01*
X82296823Y-54085681D01*
X82296154Y-54094681D01*
X82304758Y-54135248D01*
X82326710Y-54193065D01*
X82356225Y-54256297D01*
X82387516Y-54313107D01*
X82414797Y-54351657D01*
X82426304Y-54360912D01*
X82450486Y-54383377D01*
X82452927Y-54393283D01*
X82469284Y-54416647D01*
X82512111Y-54452216D01*
X82573004Y-54494562D01*
X82643562Y-54538254D01*
X82715381Y-54577864D01*
X82780059Y-54607964D01*
X82792808Y-54612885D01*
X82863009Y-54632291D01*
X82950373Y-54643697D01*
X83064552Y-54648235D01*
X83095654Y-54648426D01*
X83195086Y-54647339D01*
X83268207Y-54642392D01*
X83327743Y-54631541D01*
X83386417Y-54612740D01*
X83432550Y-54594273D01*
X83518052Y-54551383D01*
X83597251Y-54498990D01*
X83662688Y-54443400D01*
X83706904Y-54390919D01*
X83722462Y-54349166D01*
X83723432Y-54345004D01*
X83488000Y-54345004D01*
X83470948Y-54362282D01*
X83424960Y-54389111D01*
X83357792Y-54421597D01*
X83277203Y-54455846D01*
X83234000Y-54472525D01*
X83188442Y-54478967D01*
X83116934Y-54477815D01*
X83031605Y-54470267D01*
X82944581Y-54457517D01*
X82867990Y-54440761D01*
X82846273Y-54434296D01*
X82787589Y-54411046D01*
X82753247Y-54389852D01*
X82745982Y-54374918D01*
X82768527Y-54370449D01*
X82809039Y-54377040D01*
X82909000Y-54391055D01*
X83032187Y-54394861D01*
X83164307Y-54389183D01*
X83291070Y-54374740D01*
X83398183Y-54352255D01*
X83417647Y-54346315D01*
X83463495Y-54331901D01*
X83483255Y-54329653D01*
X83487909Y-54339365D01*
X83488000Y-54345004D01*
X83723432Y-54345004D01*
X83731260Y-54311437D01*
X83742000Y-54298384D01*
X83751999Y-54274016D01*
X83759043Y-54222114D01*
X83761539Y-54158041D01*
X83760141Y-54110288D01*
X83581050Y-54110288D01*
X83567410Y-54155675D01*
X83517895Y-54186704D01*
X83486136Y-54195978D01*
X83428826Y-54209237D01*
X83355254Y-54225936D01*
X83274981Y-54243946D01*
X83197565Y-54261143D01*
X83132568Y-54275397D01*
X83089549Y-54284584D01*
X83077693Y-54286853D01*
X83054876Y-54284822D01*
X83004065Y-54278548D01*
X82935946Y-54269356D01*
X82931154Y-54268687D01*
X82793346Y-54244200D01*
X82672681Y-54212587D01*
X82576746Y-54176186D01*
X82518298Y-54141641D01*
X82465083Y-54099209D01*
X82510719Y-54032720D01*
X82589717Y-53927538D01*
X82664759Y-53853956D01*
X82745486Y-53806935D01*
X82841537Y-53781439D01*
X82962553Y-53772432D01*
X83009308Y-53772217D01*
X83105035Y-53774168D01*
X83174447Y-53779985D01*
X83230277Y-53791992D01*
X83285259Y-53812515D01*
X83321923Y-53829307D01*
X83420079Y-53884361D01*
X83491809Y-53947366D01*
X83549604Y-54029820D01*
X83559900Y-54048374D01*
X83581050Y-54110288D01*
X83760141Y-54110288D01*
X83759434Y-54086173D01*
X83749658Y-54032933D01*
X83727018Y-53982022D01*
X83686320Y-53917139D01*
X83683385Y-53912737D01*
X83633378Y-53828217D01*
X83610013Y-53758117D01*
X83611345Y-53690217D01*
X83635429Y-53612296D01*
X83635532Y-53612040D01*
X83665820Y-53540312D01*
X83697047Y-53472580D01*
X83724163Y-53419276D01*
X83742119Y-53390828D01*
X83743110Y-53389846D01*
X83757024Y-53366767D01*
X83777189Y-53322625D01*
X83780880Y-53313661D01*
X83820705Y-53247394D01*
X83885604Y-53173257D01*
X83965616Y-53100684D01*
X84050776Y-53039104D01*
X84100232Y-53011341D01*
X84168527Y-52981280D01*
X84257031Y-52946808D01*
X84348477Y-52914593D01*
X84363554Y-52909665D01*
X84458136Y-52881871D01*
X84534329Y-52867452D01*
X84609458Y-52863932D01*
X84666401Y-52866343D01*
X84804099Y-52890914D01*
X84948727Y-52943864D01*
X85088692Y-53019160D01*
X85212402Y-53110773D01*
X85291852Y-53191729D01*
X85388273Y-53330657D01*
X85476186Y-53500635D01*
X85552281Y-53693986D01*
X85613250Y-53903032D01*
X85629876Y-53975993D01*
X85648270Y-54074137D01*
X85655221Y-54150367D01*
X85821217Y-54150367D01*
X85821316Y-54122111D01*
X85818304Y-54029756D01*
X85812075Y-53950347D01*
X85806019Y-53910165D01*
X85791277Y-53850896D01*
X85768458Y-53772862D01*
X85740520Y-53684752D01*
X85710425Y-53595252D01*
X85681132Y-53513050D01*
X85655601Y-53446833D01*
X85636792Y-53405288D01*
X85631083Y-53396724D01*
X85618362Y-53366616D01*
X85617693Y-53358080D01*
X85606000Y-53322684D01*
X85574644Y-53265603D01*
X85529205Y-53194977D01*
X85475263Y-53118948D01*
X85418402Y-53045657D01*
X85364200Y-52983246D01*
X85352187Y-52970770D01*
X85269083Y-52893856D01*
X85181916Y-52825324D01*
X85099629Y-52771430D01*
X85031165Y-52738430D01*
X85012396Y-52733033D01*
X84954363Y-52715481D01*
X84916235Y-52699595D01*
X84872640Y-52688689D01*
X84801343Y-52681377D01*
X84713556Y-52677683D01*
X84620492Y-52677633D01*
X84533361Y-52681252D01*
X84463376Y-52688563D01*
X84423920Y-52698504D01*
X84376917Y-52715984D01*
X84311528Y-52735310D01*
X84279308Y-52743460D01*
X84131110Y-52793054D01*
X83984545Y-52868389D01*
X83848424Y-52963116D01*
X83731559Y-53070890D01*
X83642760Y-53185363D01*
X83626132Y-53214000D01*
X83561152Y-53336672D01*
X83509262Y-53439508D01*
X83472326Y-53518600D01*
X83452211Y-53570039D01*
X83448990Y-53585231D01*
X83438333Y-53635570D01*
X83407475Y-53653681D01*
X83353530Y-53641118D01*
X83348794Y-53639121D01*
X83225927Y-53590176D01*
X83125481Y-53560960D01*
X83037009Y-53550061D01*
X82950066Y-53556070D01*
X82867072Y-53574078D01*
X82763913Y-53601539D01*
X82775321Y-53539654D01*
X82776332Y-53482935D01*
X82765962Y-53400284D01*
X82746320Y-53302444D01*
X82719516Y-53200157D01*
X82692159Y-53116308D01*
X82621548Y-52972432D01*
X82524765Y-52857455D01*
X82401562Y-52771179D01*
X82251692Y-52713409D01*
X82160221Y-52694098D01*
X82103039Y-52690532D01*
X82062194Y-52698061D01*
X82056914Y-52701263D01*
X82025399Y-52717453D01*
X81980647Y-52731454D01*
X81937067Y-52739985D01*
X81909066Y-52739762D01*
X81905385Y-52735788D01*
X81913623Y-52711769D01*
X81934523Y-52665166D01*
X81962361Y-52607874D01*
X81991415Y-52551791D01*
X82009197Y-52519987D01*
X82031957Y-52481203D01*
X82065550Y-52423920D01*
X82089410Y-52383218D01*
X82140299Y-52302200D01*
X82203680Y-52210163D01*
X82275361Y-52112276D01*
X82351149Y-52013710D01*
X82426852Y-51919635D01*
X82498279Y-51835222D01*
X82561237Y-51765639D01*
X82611533Y-51716059D01*
X82644975Y-51691650D01*
X82651498Y-51690000D01*
X82677642Y-51677909D01*
X82706967Y-51654646D01*
X82741627Y-51629641D01*
X82800555Y-51594130D01*
X82872821Y-51554583D01*
X82896650Y-51542300D01*
X82966132Y-51506190D01*
X83021358Y-51475890D01*
X83053665Y-51456216D01*
X83058211Y-51452427D01*
X83080970Y-51438553D01*
X83127571Y-51417969D01*
X83155904Y-51406994D01*
X83215845Y-51383683D01*
X83264397Y-51362913D01*
X83277302Y-51356621D01*
X83357735Y-51324915D01*
X83469401Y-51296381D01*
X83604539Y-51271680D01*
X83755385Y-51251474D01*
X83914178Y-51236427D01*
X84073154Y-51227200D01*
X84224551Y-51224456D01*
X84360606Y-51228857D01*
X84473557Y-51241065D01*
X84520091Y-51250593D01*
X84592495Y-51269881D01*
X84654066Y-51287922D01*
X84689616Y-51300112D01*
X84733743Y-51313513D01*
X84794855Y-51326389D01*
X84811629Y-51329131D01*
X84865219Y-51340732D01*
X84900316Y-51354766D01*
X84905590Y-51359546D01*
X84932657Y-51375633D01*
X84946701Y-51377384D01*
X84983966Y-51384947D01*
X85035763Y-51403475D01*
X85043240Y-51406692D01*
X85108325Y-51435026D01*
X85177464Y-51464616D01*
X85182962Y-51466941D01*
X85263483Y-51502737D01*
X85343014Y-51541133D01*
X85413715Y-51577969D01*
X85467744Y-51609086D01*
X85497259Y-51630324D01*
X85500462Y-51635385D01*
X85515777Y-51650114D01*
X85522913Y-51650923D01*
X85543956Y-51664330D01*
X85586343Y-51701008D01*
X85644774Y-51755644D01*
X85713949Y-51822926D01*
X85788568Y-51897540D01*
X85863329Y-51974172D01*
X85932934Y-52047510D01*
X85992081Y-52112241D01*
X86035471Y-52163051D01*
X86041750Y-52171021D01*
X86082625Y-52228389D01*
X86134556Y-52307512D01*
X86191398Y-52398308D01*
X86247005Y-52490692D01*
X86295231Y-52574582D01*
X86329931Y-52639892D01*
X86338034Y-52657154D01*
X86368702Y-52735603D01*
X86397254Y-52824171D01*
X86421506Y-52913793D01*
X86439274Y-52995405D01*
X86448372Y-53059942D01*
X86446617Y-53098339D01*
X86445125Y-53101546D01*
X86449992Y-53115765D01*
X86454662Y-53116307D01*
X86463143Y-53135312D01*
X86471371Y-53190187D01*
X86479176Y-53277726D01*
X86486389Y-53394725D01*
X86492840Y-53537977D01*
X86498360Y-53704275D01*
X86502779Y-53890415D01*
X86505813Y-54083461D01*
X86510130Y-54286369D01*
X86518257Y-54455976D01*
X86530963Y-54597941D01*
X86549014Y-54717921D01*
X86573180Y-54821575D01*
X86604228Y-54914560D01*
X86625609Y-54965645D01*
X86644425Y-55012885D01*
X86653156Y-55045254D01*
X86653231Y-55046880D01*
X86661345Y-55074322D01*
X86682167Y-55123561D01*
X86700021Y-55161158D01*
X86732866Y-55228187D01*
X86773552Y-55312067D01*
X86812263Y-55392538D01*
X86845020Y-55458800D01*
X86872446Y-55510321D01*
X86889487Y-55537695D01*
X86891212Y-55539451D01*
X86905068Y-55559994D01*
X86932340Y-55607963D01*
X86968891Y-55675875D01*
X87004632Y-55744604D01*
X87047333Y-55827291D01*
X87085550Y-55900125D01*
X87114569Y-55954186D01*
X87128009Y-55977952D01*
X87181001Y-56066979D01*
X87218595Y-56137665D01*
X87247451Y-56203924D01*
X87274233Y-56279669D01*
X87278033Y-56291320D01*
X87308679Y-56385402D01*
X87343254Y-56490802D01*
X87368786Y-56568128D01*
X87391607Y-56642988D01*
X87408180Y-56708881D01*
X87415184Y-56752463D01*
X87415231Y-56754720D01*
X87423584Y-56800019D01*
X87436452Y-56822482D01*
X87443522Y-56849168D01*
X87448013Y-56907499D01*
X87450098Y-56990141D01*
X87649767Y-56990141D01*
X87648170Y-56972499D01*
X87635531Y-56851485D01*
X87621791Y-56735108D01*
X87608035Y-56633487D01*
X87595345Y-56556745D01*
X87590871Y-56535538D01*
X87556611Y-56410268D01*
X87510314Y-56278756D01*
X87449383Y-56134971D01*
X87371221Y-55972879D01*
X87273232Y-55786451D01*
X87250214Y-55744231D01*
X87210483Y-55671418D01*
X87176987Y-55609444D01*
X87154900Y-55567906D01*
X87150149Y-55558615D01*
X87124970Y-55518341D01*
X87110210Y-55499339D01*
X87089320Y-55467379D01*
X87055761Y-55407754D01*
X87013431Y-55328189D01*
X86966229Y-55236409D01*
X86918054Y-55140139D01*
X86872804Y-55047105D01*
X86834378Y-54965033D01*
X86806674Y-54901646D01*
X86799945Y-54884538D01*
X86775309Y-54813060D01*
X86754720Y-54743974D01*
X86748379Y-54718461D01*
X86734714Y-54656832D01*
X86717980Y-54581775D01*
X86711403Y-54552384D01*
X86704189Y-54498491D01*
X86698437Y-54410505D01*
X86694318Y-54293389D01*
X86692006Y-54152107D01*
X86691672Y-53991620D01*
X86691698Y-53985769D01*
X86691389Y-53841943D01*
X86689306Y-53699969D01*
X86685704Y-53568210D01*
X86680838Y-53455031D01*
X86674963Y-53368795D01*
X86672057Y-53341000D01*
X86649468Y-53173310D01*
X86625394Y-53020227D01*
X86601004Y-52888200D01*
X86577466Y-52783676D01*
X86560502Y-52725538D01*
X86534013Y-52656711D01*
X86498792Y-52575837D01*
X86459410Y-52492232D01*
X86420439Y-52415211D01*
X86386451Y-52354086D01*
X86362016Y-52318175D01*
X86359123Y-52315231D01*
X86343455Y-52293824D01*
X86316281Y-52250945D01*
X86302063Y-52227308D01*
X86230269Y-52120075D01*
X86134978Y-51998151D01*
X86024058Y-51870148D01*
X85905380Y-51744683D01*
X85786810Y-51630370D01*
X85676218Y-51535823D01*
X85656770Y-51520815D01*
X85539875Y-51442022D01*
X85400049Y-51362802D01*
X85252505Y-51291214D01*
X85129231Y-51241247D01*
X85062631Y-51215892D01*
X85010307Y-51193496D01*
X84983670Y-51178964D01*
X84951692Y-51166676D01*
X84910796Y-51162461D01*
X84849752Y-51153435D01*
X84767507Y-51129041D01*
X84676782Y-51093307D01*
X84642756Y-51077606D01*
X84602356Y-51068630D01*
X84523159Y-51061905D01*
X84405382Y-51057439D01*
X84249240Y-51055244D01*
X84164064Y-51055000D01*
X83991755Y-51055468D01*
G36*
X84157352Y-53686686D02*
G01*
X84071787Y-53737721D01*
X84026226Y-53783087D01*
X83997055Y-53824820D01*
X83981953Y-53870657D01*
X83976788Y-53935559D01*
X83976559Y-53962845D01*
X83979921Y-54039050D01*
X83992214Y-54090402D01*
X84016975Y-54130750D01*
X84020521Y-54135003D01*
X84090400Y-54189470D01*
X84180809Y-54221554D01*
X84279212Y-54229700D01*
X84373076Y-54212357D01*
X84427557Y-54185452D01*
X84492561Y-54128257D01*
X84529180Y-54058723D01*
X84542483Y-53966404D01*
X84542789Y-53947901D01*
X84529977Y-53867105D01*
X84458763Y-53867105D01*
X84458405Y-53889323D01*
X84436240Y-53916695D01*
X84401803Y-53948701D01*
X84371026Y-53954272D01*
X84339522Y-53944602D01*
X84315710Y-53916925D01*
X84308616Y-53877534D01*
X84322320Y-53827938D01*
X84356880Y-53805812D01*
X84402464Y-53814431D01*
X84431795Y-53836495D01*
X84458763Y-53867105D01*
X84529977Y-53867105D01*
X84526846Y-53847364D01*
X84482767Y-53766814D01*
X84417165Y-53708362D01*
X84336654Y-53674116D01*
X84247846Y-53666188D01*
X84157352Y-53686686D01*
G37*
X84157352Y-53686686D02*
X84071787Y-53737721D01*
X84026226Y-53783087D01*
X83997055Y-53824820D01*
X83981953Y-53870657D01*
X83976788Y-53935559D01*
X83976559Y-53962845D01*
X83979921Y-54039050D01*
X83992214Y-54090402D01*
X84016975Y-54130750D01*
X84020521Y-54135003D01*
X84090400Y-54189470D01*
X84180809Y-54221554D01*
X84279212Y-54229700D01*
X84373076Y-54212357D01*
X84427557Y-54185452D01*
X84492561Y-54128257D01*
X84529180Y-54058723D01*
X84542483Y-53966404D01*
X84542789Y-53947901D01*
X84529977Y-53867105D01*
X84458763Y-53867105D01*
X84458405Y-53889323D01*
X84436240Y-53916695D01*
X84401803Y-53948701D01*
X84371026Y-53954272D01*
X84339522Y-53944602D01*
X84315710Y-53916925D01*
X84308616Y-53877534D01*
X84322320Y-53827938D01*
X84356880Y-53805812D01*
X84402464Y-53814431D01*
X84431795Y-53836495D01*
X84458763Y-53867105D01*
X84529977Y-53867105D01*
X84526846Y-53847364D01*
X84482767Y-53766814D01*
X84417165Y-53708362D01*
X84336654Y-53674116D01*
X84247846Y-53666188D01*
X84157352Y-53686686D01*
G36*
X81976584Y-53521228D02*
G01*
X81956990Y-53528913D01*
X81898858Y-53575616D01*
X81861541Y-53648254D01*
X81849234Y-53737395D01*
X81851141Y-53766793D01*
X81867223Y-53842582D01*
X81900470Y-53893941D01*
X81958235Y-53933837D01*
X82015050Y-53950146D01*
X82089131Y-53954424D01*
X82160460Y-53946341D01*
X82188693Y-53937622D01*
X82265162Y-53887811D01*
X82311687Y-53820017D01*
X82327635Y-53742105D01*
X82316877Y-53685604D01*
X82252724Y-53685604D01*
X82248633Y-53738048D01*
X82226374Y-53769450D01*
X82195049Y-53794905D01*
X82166539Y-53794957D01*
X82124656Y-53769738D01*
X82087870Y-53728134D01*
X82089641Y-53683603D01*
X82129831Y-53638662D01*
X82131967Y-53637087D01*
X82168405Y-53613720D01*
X82192567Y-53614285D01*
X82219276Y-53635231D01*
X82252724Y-53685604D01*
X82316877Y-53685604D01*
X82312370Y-53661937D01*
X82265257Y-53587379D01*
X82220164Y-53547694D01*
X82148209Y-53516636D01*
X82061012Y-53507385D01*
X81976584Y-53521228D01*
G37*
X81976584Y-53521228D02*
X81956990Y-53528913D01*
X81898858Y-53575616D01*
X81861541Y-53648254D01*
X81849234Y-53737395D01*
X81851141Y-53766793D01*
X81867223Y-53842582D01*
X81900470Y-53893941D01*
X81958235Y-53933837D01*
X82015050Y-53950146D01*
X82089131Y-53954424D01*
X82160460Y-53946341D01*
X82188693Y-53937622D01*
X82265162Y-53887811D01*
X82311687Y-53820017D01*
X82327635Y-53742105D01*
X82316877Y-53685604D01*
X82252724Y-53685604D01*
X82248633Y-53738048D01*
X82226374Y-53769450D01*
X82195049Y-53794905D01*
X82166539Y-53794957D01*
X82124656Y-53769738D01*
X82087870Y-53728134D01*
X82089641Y-53683603D01*
X82129831Y-53638662D01*
X82131967Y-53637087D01*
X82168405Y-53613720D01*
X82192567Y-53614285D01*
X82219276Y-53635231D01*
X82252724Y-53685604D01*
X82316877Y-53685604D01*
X82312370Y-53661937D01*
X82265257Y-53587379D01*
X82220164Y-53547694D01*
X82148209Y-53516636D01*
X82061012Y-53507385D01*
X81976584Y-53521228D01*
D13*
X107885800Y-125730000D02*
X105435800Y-125730000D01*
X107885800Y-124280000D02*
X107885800Y-125730000D01*
X105435800Y-125730000D02*
X105435800Y-124280000D01*
X105435800Y-124280000D02*
X107855800Y-124280000D01*
X121464200Y-57900000D02*
X123914200Y-57900000D01*
X121464200Y-59350000D02*
X121464200Y-57900000D01*
X123914200Y-57900000D02*
X123914200Y-59350000D01*
X123914200Y-59350000D02*
X121494200Y-59350000D01*
X157535800Y-55390000D02*
X155085800Y-55390000D01*
X157535800Y-53940000D02*
X157535800Y-55390000D01*
X155085800Y-55390000D02*
X155085800Y-53940000D01*
X155085800Y-53940000D02*
X157505800Y-53940000D01*
X198464200Y-59650000D02*
X200914200Y-59650000D01*
X198464200Y-61100000D02*
X198464200Y-59650000D01*
X200914200Y-59650000D02*
X200914200Y-61100000D01*
X200914200Y-61100000D02*
X198494200Y-61100000D01*
X148119400Y-119862600D02*
X145669400Y-119862600D01*
X148119400Y-118412600D02*
X148119400Y-119862600D01*
X145669400Y-119862600D02*
X145669400Y-118412600D01*
X145669400Y-118412600D02*
X148089400Y-118412600D01*
X184085800Y-121920000D02*
X181635800Y-121920000D01*
X184085800Y-120470000D02*
X184085800Y-121920000D01*
X181635800Y-121920000D02*
X181635800Y-120470000D01*
X181635800Y-120470000D02*
X184055800Y-120470000D01*
X104785800Y-88100000D02*
X102335800Y-88100000D01*
X104785800Y-86650000D02*
X104785800Y-88100000D01*
X102335800Y-88100000D02*
X102335800Y-86650000D01*
X102335800Y-86650000D02*
X104755800Y-86650000D01*
D10*
X108800000Y-75100000D02*
X108800000Y-76900000D01*
X107000000Y-75100000D02*
X108800000Y-75100000D01*
X107000000Y-76900000D02*
X107000000Y-75100000D01*
X108800000Y-76900000D02*
X107000000Y-76900000D01*
X108800000Y-80200000D02*
X108800000Y-82000000D01*
X107000000Y-80200000D02*
X108800000Y-80200000D01*
X107000000Y-82000000D02*
X107000000Y-80200000D01*
X108800000Y-82000000D02*
X107000000Y-82000000D01*
X108800000Y-77700000D02*
X108800000Y-79500000D01*
X107000000Y-77700000D02*
X108800000Y-77700000D01*
X107000000Y-79500000D02*
X107000000Y-77700000D01*
X108800000Y-79500000D02*
X107000000Y-79500000D01*
X111600000Y-86500000D02*
X111600000Y-84700000D01*
X113400000Y-86500000D02*
X111600000Y-86500000D01*
X113400000Y-84700000D02*
X113400000Y-86500000D01*
X111600000Y-84700000D02*
X113400000Y-84700000D01*
X111600000Y-81400000D02*
X111600000Y-79600000D01*
X113400000Y-81400000D02*
X111600000Y-81400000D01*
X113400000Y-79600000D02*
X113400000Y-81400000D01*
X111600000Y-79600000D02*
X113400000Y-79600000D01*
X111600000Y-83900000D02*
X111600000Y-82100000D01*
X113400000Y-83900000D02*
X111600000Y-83900000D01*
X113400000Y-82100000D02*
X113400000Y-83900000D01*
X111600000Y-82100000D02*
X113400000Y-82100000D01*
X221470000Y-56100000D02*
X221470000Y-53860000D01*
X211200000Y-59000000D02*
X219600001Y-59000000D01*
D14*
X213200000Y-57200000D02*
X219900000Y-57200000D01*
D10*
X211200000Y-58650000D02*
X211200000Y-59000000D01*
D15*
X211500000Y-55700000D02*
X212900000Y-55700000D01*
D10*
X211200000Y-55400000D02*
X211200000Y-56400000D01*
D13*
X221600000Y-56200001D02*
X221600000Y-57100000D01*
D10*
X211420000Y-56400000D02*
X211420000Y-58650000D01*
X221700000Y-53500000D02*
X221700000Y-53860000D01*
D16*
X211400000Y-58800000D02*
X212800000Y-58800000D01*
D10*
X221500000Y-53860000D02*
X221700000Y-53860000D01*
X221700000Y-53500000D02*
X218420000Y-53500000D01*
X211200000Y-56400000D02*
X211400000Y-56400000D01*
X221700000Y-57100000D02*
X221700000Y-56100000D01*
X211400000Y-58650000D02*
X211200000Y-58650000D01*
X221700000Y-56100000D02*
X221500000Y-56100000D01*
X216200000Y-55400000D02*
X211200000Y-55400000D01*
D15*
X221500000Y-53700000D02*
X218800000Y-53700000D01*
D17*
X211900000Y-58400000D02*
X211900000Y-55900000D01*
D16*
X211400000Y-56300000D02*
X211400000Y-55600000D01*
D18*
X219970000Y-57500000D02*
X219970000Y-55260000D01*
D19*
X221100000Y-54000000D02*
X221100000Y-55799999D01*
D13*
X217170600Y-47050000D02*
X219220600Y-47050000D01*
X217170600Y-48500000D02*
X217170600Y-47050000D01*
X219220600Y-48500000D02*
X217170600Y-48500000D01*
X219220600Y-47050000D02*
X219220600Y-48500000D01*
D10*
X218416318Y-53521471D02*
G75*
G02*
X216200000Y-55400000I-2151318J291471D01*
G01*
X221700000Y-57099999D02*
G75*
G02*
X219600001Y-59000000I-2000000J99999D01*
G01*
D17*
X218816318Y-53921471D02*
G75*
G02*
X216600000Y-55800000I-2151318J291471D01*
G01*
D10*
X164270000Y-105890000D02*
X164270000Y-103650000D01*
X154000000Y-108790000D02*
X162400001Y-108790000D01*
D14*
X156000000Y-106990000D02*
X162700000Y-106990000D01*
D10*
X154000000Y-108440000D02*
X154000000Y-108790000D01*
D15*
X154300000Y-105490000D02*
X155700000Y-105490000D01*
D10*
X154000000Y-105190000D02*
X154000000Y-106190000D01*
D13*
X164400000Y-105990001D02*
X164400000Y-106890000D01*
D10*
X154220000Y-106190000D02*
X154220000Y-108440000D01*
X164500000Y-103290000D02*
X164500000Y-103650000D01*
D16*
X154200000Y-108590000D02*
X155600000Y-108590000D01*
D10*
X164300000Y-103650000D02*
X164500000Y-103650000D01*
X164500000Y-103290000D02*
X161220000Y-103290000D01*
X154000000Y-106190000D02*
X154200000Y-106190000D01*
X164500000Y-106890000D02*
X164500000Y-105890000D01*
X154200000Y-108440000D02*
X154000000Y-108440000D01*
X164500000Y-105890000D02*
X164300000Y-105890000D01*
X159000000Y-105190000D02*
X154000000Y-105190000D01*
D15*
X164300000Y-103490000D02*
X161600000Y-103490000D01*
D17*
X154700000Y-108190000D02*
X154700000Y-105690000D01*
D16*
X154200000Y-106090000D02*
X154200000Y-105390000D01*
D18*
X162770000Y-107290000D02*
X162770000Y-105050000D01*
D19*
X163900000Y-103790000D02*
X163900000Y-105589999D01*
D13*
X159970600Y-96840000D02*
X162020600Y-96840000D01*
X159970600Y-98290000D02*
X159970600Y-96840000D01*
X162020600Y-98290000D02*
X159970600Y-98290000D01*
X162020600Y-96840000D02*
X162020600Y-98290000D01*
D17*
X161616318Y-103711471D02*
G75*
G02*
X159400000Y-105590000I-2151318J291471D01*
G01*
D10*
X164500000Y-106889999D02*
G75*
G02*
X162400001Y-108790000I-2000000J99999D01*
G01*
X161216318Y-103311471D02*
G75*
G02*
X159000000Y-105190000I-2151318J291471D01*
G01*
X202370000Y-113200000D02*
X202370000Y-110960000D01*
X192100000Y-116100000D02*
X200500001Y-116100000D01*
D14*
X194100000Y-114300000D02*
X200800000Y-114300000D01*
D10*
X192100000Y-115750000D02*
X192100000Y-116100000D01*
D15*
X192400000Y-112800000D02*
X193800000Y-112800000D01*
D10*
X192100000Y-112500000D02*
X192100000Y-113500000D01*
D13*
X202500000Y-113300001D02*
X202500000Y-114200000D01*
D10*
X192320000Y-113500000D02*
X192320000Y-115750000D01*
X202600000Y-110600000D02*
X202600000Y-110960000D01*
D16*
X192300000Y-115900000D02*
X193700000Y-115900000D01*
D10*
X202400000Y-110960000D02*
X202600000Y-110960000D01*
X202600000Y-110600000D02*
X199320000Y-110600000D01*
X192100000Y-113500000D02*
X192300000Y-113500000D01*
X202600000Y-114200000D02*
X202600000Y-113200000D01*
X192300000Y-115750000D02*
X192100000Y-115750000D01*
X202600000Y-113200000D02*
X202400000Y-113200000D01*
X197100000Y-112500000D02*
X192100000Y-112500000D01*
D15*
X202400000Y-110800000D02*
X199700000Y-110800000D01*
D17*
X192800000Y-115500000D02*
X192800000Y-113000000D01*
D16*
X192300000Y-113400000D02*
X192300000Y-112700000D01*
D18*
X200870000Y-114600000D02*
X200870000Y-112360000D01*
D19*
X202000000Y-111100000D02*
X202000000Y-112899999D01*
D13*
X198070600Y-104150000D02*
X200120600Y-104150000D01*
X198070600Y-105600000D02*
X198070600Y-104150000D01*
X200120600Y-105600000D02*
X198070600Y-105600000D01*
X200120600Y-104150000D02*
X200120600Y-105600000D01*
D17*
X199716318Y-111021471D02*
G75*
G02*
X197500000Y-112900000I-2151318J291471D01*
G01*
D10*
X202600000Y-114199999D02*
G75*
G02*
X200500001Y-116100000I-2000000J99999D01*
G01*
X199316318Y-110621471D02*
G75*
G02*
X197100000Y-112500000I-2151318J291471D01*
G01*
X221370000Y-75000000D02*
X221370000Y-72760000D01*
X211100000Y-77900000D02*
X219500001Y-77900000D01*
D14*
X213100000Y-76100000D02*
X219800000Y-76100000D01*
D10*
X211100000Y-77550000D02*
X211100000Y-77900000D01*
D15*
X211400000Y-74600000D02*
X212800000Y-74600000D01*
D10*
X211100000Y-74300000D02*
X211100000Y-75300000D01*
D13*
X221500000Y-75100001D02*
X221500000Y-76000000D01*
D10*
X211320000Y-75300000D02*
X211320000Y-77550000D01*
X221600000Y-72400000D02*
X221600000Y-72760000D01*
D16*
X211300000Y-77700000D02*
X212700000Y-77700000D01*
D10*
X221400000Y-72760000D02*
X221600000Y-72760000D01*
X221600000Y-72400000D02*
X218320000Y-72400000D01*
X211100000Y-75300000D02*
X211300000Y-75300000D01*
X221600000Y-76000000D02*
X221600000Y-75000000D01*
X211300000Y-77550000D02*
X211100000Y-77550000D01*
X221600000Y-75000000D02*
X221400000Y-75000000D01*
X216100000Y-74300000D02*
X211100000Y-74300000D01*
D15*
X221400000Y-72600000D02*
X218700000Y-72600000D01*
D17*
X211800000Y-77300000D02*
X211800000Y-74800000D01*
D16*
X211300000Y-75200000D02*
X211300000Y-74500000D01*
D18*
X219870000Y-76400000D02*
X219870000Y-74160000D01*
D19*
X221000000Y-72900000D02*
X221000000Y-74699999D01*
D13*
X217070600Y-65950000D02*
X219120600Y-65950000D01*
X217070600Y-67400000D02*
X217070600Y-65950000D01*
X219120600Y-67400000D02*
X217070600Y-67400000D01*
X219120600Y-65950000D02*
X219120600Y-67400000D01*
D17*
X218716318Y-72821471D02*
G75*
G02*
X216500000Y-74700000I-2151318J291471D01*
G01*
D10*
X221600000Y-75999999D02*
G75*
G02*
X219500001Y-77900000I-2000000J99999D01*
G01*
X218316318Y-72421471D02*
G75*
G02*
X216100000Y-74300000I-2151318J291471D01*
G01*
X202370000Y-75000000D02*
X202370000Y-72760000D01*
X192100000Y-77900000D02*
X200500001Y-77900000D01*
D14*
X194100000Y-76100000D02*
X200800000Y-76100000D01*
D10*
X192100000Y-77550000D02*
X192100000Y-77900000D01*
D15*
X192400000Y-74600000D02*
X193800000Y-74600000D01*
D10*
X192100000Y-74300000D02*
X192100000Y-75300000D01*
D13*
X202500000Y-75100001D02*
X202500000Y-76000000D01*
D10*
X192320000Y-75300000D02*
X192320000Y-77550000D01*
X202600000Y-72400000D02*
X202600000Y-72760000D01*
D16*
X192300000Y-77700000D02*
X193700000Y-77700000D01*
D10*
X202400000Y-72760000D02*
X202600000Y-72760000D01*
X202600000Y-72400000D02*
X199320000Y-72400000D01*
X192100000Y-75300000D02*
X192300000Y-75300000D01*
X202600000Y-76000000D02*
X202600000Y-75000000D01*
X192300000Y-77550000D02*
X192100000Y-77550000D01*
X202600000Y-75000000D02*
X202400000Y-75000000D01*
X197100000Y-74300000D02*
X192100000Y-74300000D01*
D15*
X202400000Y-72600000D02*
X199700000Y-72600000D01*
D17*
X192800000Y-77300000D02*
X192800000Y-74800000D01*
D16*
X192300000Y-75200000D02*
X192300000Y-74500000D01*
D18*
X200870000Y-76400000D02*
X200870000Y-74160000D01*
D19*
X202000000Y-72900000D02*
X202000000Y-74699999D01*
D13*
X198070600Y-65950000D02*
X200120600Y-65950000D01*
X198070600Y-67400000D02*
X198070600Y-65950000D01*
X200120600Y-67400000D02*
X198070600Y-67400000D01*
X200120600Y-65950000D02*
X200120600Y-67400000D01*
D17*
X199716318Y-72821471D02*
G75*
G02*
X197500000Y-74700000I-2151318J291471D01*
G01*
D10*
X202600000Y-75999999D02*
G75*
G02*
X200500001Y-77900000I-2000000J99999D01*
G01*
X199316318Y-72421471D02*
G75*
G02*
X197100000Y-74300000I-2151318J291471D01*
G01*
X202370000Y-94200000D02*
X202370000Y-91960000D01*
X192100000Y-97100000D02*
X200500001Y-97100000D01*
D14*
X194100000Y-95300000D02*
X200800000Y-95300000D01*
D10*
X192100000Y-96750000D02*
X192100000Y-97100000D01*
D15*
X192400000Y-93800000D02*
X193800000Y-93800000D01*
D10*
X192100000Y-93500000D02*
X192100000Y-94500000D01*
D13*
X202500000Y-94300001D02*
X202500000Y-95200000D01*
D10*
X192320000Y-94500000D02*
X192320000Y-96750000D01*
X202600000Y-91600000D02*
X202600000Y-91960000D01*
D16*
X192300000Y-96900000D02*
X193700000Y-96900000D01*
D10*
X202400000Y-91960000D02*
X202600000Y-91960000D01*
X202600000Y-91600000D02*
X199320000Y-91600000D01*
X192100000Y-94500000D02*
X192300000Y-94500000D01*
X202600000Y-95200000D02*
X202600000Y-94200000D01*
X192300000Y-96750000D02*
X192100000Y-96750000D01*
X202600000Y-94200000D02*
X202400000Y-94200000D01*
X197100000Y-93500000D02*
X192100000Y-93500000D01*
D15*
X202400000Y-91800000D02*
X199700000Y-91800000D01*
D17*
X192800000Y-96500000D02*
X192800000Y-94000000D01*
D16*
X192300000Y-94400000D02*
X192300000Y-93700000D01*
D18*
X200870000Y-95600000D02*
X200870000Y-93360000D01*
D19*
X202000000Y-92100000D02*
X202000000Y-93899999D01*
D13*
X198070600Y-85150000D02*
X200120600Y-85150000D01*
X198070600Y-86600000D02*
X198070600Y-85150000D01*
X200120600Y-86600000D02*
X198070600Y-86600000D01*
X200120600Y-85150000D02*
X200120600Y-86600000D01*
D17*
X199716318Y-92021471D02*
G75*
G02*
X197500000Y-93900000I-2151318J291471D01*
G01*
D10*
X202600000Y-95199999D02*
G75*
G02*
X200500001Y-97100000I-2000000J99999D01*
G01*
X199316318Y-91621471D02*
G75*
G02*
X197100000Y-93500000I-2151318J291471D01*
G01*
X145170000Y-51200000D02*
X145170000Y-48960000D01*
X134900000Y-54100000D02*
X143300001Y-54100000D01*
D14*
X136900000Y-52300000D02*
X143600000Y-52300000D01*
D10*
X134900000Y-53750000D02*
X134900000Y-54100000D01*
D15*
X135200000Y-50800000D02*
X136600000Y-50800000D01*
D10*
X134900000Y-50500000D02*
X134900000Y-51500000D01*
D13*
X145300000Y-51300001D02*
X145300000Y-52200000D01*
D10*
X135120000Y-51500000D02*
X135120000Y-53750000D01*
X145400000Y-48600000D02*
X145400000Y-48960000D01*
D16*
X135100000Y-53900000D02*
X136500000Y-53900000D01*
D10*
X145200000Y-48960000D02*
X145400000Y-48960000D01*
X145400000Y-48600000D02*
X142120000Y-48600000D01*
X134900000Y-51500000D02*
X135100000Y-51500000D01*
X145400000Y-52200000D02*
X145400000Y-51200000D01*
X135100000Y-53750000D02*
X134900000Y-53750000D01*
X145400000Y-51200000D02*
X145200000Y-51200000D01*
X139900000Y-50500000D02*
X134900000Y-50500000D01*
D15*
X145200000Y-48800000D02*
X142500000Y-48800000D01*
D17*
X135600000Y-53500000D02*
X135600000Y-51000000D01*
D16*
X135100000Y-51400000D02*
X135100000Y-50700000D01*
D18*
X143670000Y-52600000D02*
X143670000Y-50360000D01*
D19*
X144800000Y-49100000D02*
X144800000Y-50899999D01*
D13*
X140870600Y-42150000D02*
X142920600Y-42150000D01*
X140870600Y-43600000D02*
X140870600Y-42150000D01*
X142920600Y-43600000D02*
X140870600Y-43600000D01*
X142920600Y-42150000D02*
X142920600Y-43600000D01*
D17*
X142516318Y-49021471D02*
G75*
G02*
X140300000Y-50900000I-2151318J291471D01*
G01*
D10*
X145400000Y-52199999D02*
G75*
G02*
X143300001Y-54100000I-2000000J99999D01*
G01*
X142116318Y-48621471D02*
G75*
G02*
X139900000Y-50500000I-2151318J291471D01*
G01*
X128505000Y-119770000D02*
X128505000Y-118270000D01*
X123105000Y-119770000D02*
X128505000Y-119770000D01*
X123105000Y-118270000D02*
X123105000Y-119770000D01*
X128505000Y-118270000D02*
X123105000Y-118270000D01*
X126305000Y-119520000D02*
X125405000Y-119020000D01*
X126305000Y-118520000D02*
X126305000Y-119520000D01*
X125405000Y-119020000D02*
X126305000Y-118520000D01*
X125305000Y-118520000D02*
X125305000Y-119520000D01*
X125275000Y-121100000D02*
X125275000Y-122100000D01*
X125375000Y-121600000D02*
X126275000Y-121100000D01*
X126275000Y-121100000D02*
X126275000Y-122100000D01*
X126275000Y-122100000D02*
X125375000Y-121600000D01*
X128475000Y-120850000D02*
X123075000Y-120850000D01*
X123075000Y-120850000D02*
X123075000Y-122350000D01*
X123075000Y-122350000D02*
X128475000Y-122350000D01*
X128475000Y-122350000D02*
X128475000Y-120850000D01*
X128475000Y-124950000D02*
X128475000Y-123450000D01*
X123075000Y-124950000D02*
X128475000Y-124950000D01*
X123075000Y-123450000D02*
X123075000Y-124950000D01*
X128475000Y-123450000D02*
X123075000Y-123450000D01*
X126275000Y-124700000D02*
X125375000Y-124200000D01*
X126275000Y-123700000D02*
X126275000Y-124700000D01*
X125375000Y-124200000D02*
X126275000Y-123700000D01*
X125275000Y-123700000D02*
X125275000Y-124700000D01*
X113124800Y-121374800D02*
X113124800Y-119874800D01*
X107724800Y-121374800D02*
X113124800Y-121374800D01*
X107724800Y-119874800D02*
X107724800Y-121374800D01*
X113124800Y-119874800D02*
X107724800Y-119874800D01*
X110924800Y-121124800D02*
X110024800Y-120624800D01*
X110924800Y-120124800D02*
X110924800Y-121124800D01*
X110024800Y-120624800D02*
X110924800Y-120124800D01*
X109924800Y-120124800D02*
X109924800Y-121124800D01*
X103500000Y-124350000D02*
X103500000Y-122850000D01*
X98100000Y-124350000D02*
X103500000Y-124350000D01*
X98100000Y-122850000D02*
X98100000Y-124350000D01*
X103500000Y-122850000D02*
X98100000Y-122850000D01*
X101300000Y-124100000D02*
X100400000Y-123600000D01*
X101300000Y-123100000D02*
X101300000Y-124100000D01*
X100400000Y-123600000D02*
X101300000Y-123100000D01*
X100300000Y-123100000D02*
X100300000Y-124100000D01*
X109700000Y-97750000D02*
X109700000Y-96250000D01*
X104300000Y-97750000D02*
X109700000Y-97750000D01*
X104300000Y-96250000D02*
X104300000Y-97750000D01*
X109700000Y-96250000D02*
X104300000Y-96250000D01*
X107500000Y-97500000D02*
X106600000Y-97000000D01*
X107500000Y-96500000D02*
X107500000Y-97500000D01*
X106600000Y-97000000D02*
X107500000Y-96500000D01*
X106500000Y-96500000D02*
X106500000Y-97500000D01*
X207450000Y-107875000D02*
X208950000Y-107875000D01*
X207450000Y-102475000D02*
X207450000Y-107875000D01*
X208950000Y-102475000D02*
X207450000Y-102475000D01*
X208950000Y-107875000D02*
X208950000Y-102475000D01*
X207700000Y-105675000D02*
X208200000Y-104775000D01*
X208700000Y-105675000D02*
X207700000Y-105675000D01*
X208200000Y-104775000D02*
X208700000Y-105675000D01*
X208700000Y-104675000D02*
X207700000Y-104675000D01*
X187750000Y-109450000D02*
X189250000Y-109450000D01*
X187750000Y-104050000D02*
X187750000Y-109450000D01*
X189250000Y-104050000D02*
X187750000Y-104050000D01*
X189250000Y-109450000D02*
X189250000Y-104050000D01*
X188000000Y-107250000D02*
X188500000Y-106350000D01*
X189000000Y-107250000D02*
X188000000Y-107250000D01*
X188500000Y-106350000D02*
X189000000Y-107250000D01*
X189000000Y-106250000D02*
X188000000Y-106250000D01*
X168500000Y-104850000D02*
X170000000Y-104850000D01*
X168500000Y-99450000D02*
X168500000Y-104850000D01*
X170000000Y-99450000D02*
X168500000Y-99450000D01*
X170000000Y-104850000D02*
X170000000Y-99450000D01*
X168750000Y-102650000D02*
X169250000Y-101750000D01*
X169750000Y-102650000D02*
X168750000Y-102650000D01*
X169250000Y-101750000D02*
X169750000Y-102650000D01*
X169750000Y-101650000D02*
X168750000Y-101650000D01*
X149250000Y-101265000D02*
X150750000Y-101265000D01*
X149250000Y-95865000D02*
X149250000Y-101265000D01*
X150750000Y-95865000D02*
X149250000Y-95865000D01*
X150750000Y-101265000D02*
X150750000Y-95865000D01*
X149500000Y-99065000D02*
X150000000Y-98165000D01*
X150500000Y-99065000D02*
X149500000Y-99065000D01*
X150000000Y-98165000D02*
X150500000Y-99065000D01*
X150500000Y-98065000D02*
X149500000Y-98065000D01*
X130250000Y-105875000D02*
X131750000Y-105875000D01*
X130250000Y-100475000D02*
X130250000Y-105875000D01*
X131750000Y-100475000D02*
X130250000Y-100475000D01*
X131750000Y-105875000D02*
X131750000Y-100475000D01*
X130500000Y-103675000D02*
X131000000Y-102775000D01*
X131500000Y-103675000D02*
X130500000Y-103675000D01*
X131000000Y-102775000D02*
X131500000Y-103675000D01*
X131500000Y-102675000D02*
X130500000Y-102675000D01*
X111250000Y-105450000D02*
X112750000Y-105450000D01*
X111250000Y-100050000D02*
X111250000Y-105450000D01*
X112750000Y-100050000D02*
X111250000Y-100050000D01*
X112750000Y-105450000D02*
X112750000Y-100050000D01*
X111500000Y-103250000D02*
X112000000Y-102350000D01*
X112500000Y-103250000D02*
X111500000Y-103250000D01*
X112000000Y-102350000D02*
X112500000Y-103250000D01*
X112500000Y-102250000D02*
X111500000Y-102250000D01*
X207000000Y-88975000D02*
X208500000Y-88975000D01*
X207000000Y-83575000D02*
X207000000Y-88975000D01*
X208500000Y-83575000D02*
X207000000Y-83575000D01*
X208500000Y-88975000D02*
X208500000Y-83575000D01*
X207250000Y-86775000D02*
X207750000Y-85875000D01*
X208250000Y-86775000D02*
X207250000Y-86775000D01*
X207750000Y-85875000D02*
X208250000Y-86775000D01*
X208250000Y-85775000D02*
X207250000Y-85775000D01*
X187750000Y-91475000D02*
X189250000Y-91475000D01*
X187750000Y-86075000D02*
X187750000Y-91475000D01*
X189250000Y-86075000D02*
X187750000Y-86075000D01*
X189250000Y-91475000D02*
X189250000Y-86075000D01*
X188000000Y-89275000D02*
X188500000Y-88375000D01*
X189000000Y-89275000D02*
X188000000Y-89275000D01*
X188500000Y-88375000D02*
X189000000Y-89275000D01*
X189000000Y-88275000D02*
X188000000Y-88275000D01*
X168975000Y-86125000D02*
X170475000Y-86125000D01*
X168975000Y-80725000D02*
X168975000Y-86125000D01*
X170475000Y-80725000D02*
X168975000Y-80725000D01*
X170475000Y-86125000D02*
X170475000Y-80725000D01*
X169225000Y-83925000D02*
X169725000Y-83025000D01*
X170225000Y-83925000D02*
X169225000Y-83925000D01*
X169725000Y-83025000D02*
X170225000Y-83925000D01*
X170225000Y-82925000D02*
X169225000Y-82925000D01*
X149000000Y-84265000D02*
X150500000Y-84265000D01*
X149000000Y-78865000D02*
X149000000Y-84265000D01*
X150500000Y-78865000D02*
X149000000Y-78865000D01*
X150500000Y-84265000D02*
X150500000Y-78865000D01*
X149250000Y-82065000D02*
X149750000Y-81165000D01*
X150250000Y-82065000D02*
X149250000Y-82065000D01*
X149750000Y-81165000D02*
X150250000Y-82065000D01*
X150250000Y-81065000D02*
X149250000Y-81065000D01*
X130500000Y-86375000D02*
X132000000Y-86375000D01*
X130500000Y-80975000D02*
X130500000Y-86375000D01*
X132000000Y-80975000D02*
X130500000Y-80975000D01*
X132000000Y-86375000D02*
X132000000Y-80975000D01*
X130750000Y-84175000D02*
X131250000Y-83275000D01*
X131750000Y-84175000D02*
X130750000Y-84175000D01*
X131250000Y-83275000D02*
X131750000Y-84175000D01*
X131750000Y-83175000D02*
X130750000Y-83175000D01*
X127750000Y-86475000D02*
X129250000Y-86475000D01*
X127750000Y-81075000D02*
X127750000Y-86475000D01*
X129250000Y-81075000D02*
X127750000Y-81075000D01*
X129250000Y-86475000D02*
X129250000Y-81075000D01*
X128000000Y-84275000D02*
X128500000Y-83375000D01*
X129000000Y-84275000D02*
X128000000Y-84275000D01*
X128500000Y-83375000D02*
X129000000Y-84275000D01*
X129000000Y-83275000D02*
X128000000Y-83275000D01*
X207000000Y-69975000D02*
X208500000Y-69975000D01*
X207000000Y-64575000D02*
X207000000Y-69975000D01*
X208500000Y-64575000D02*
X207000000Y-64575000D01*
X208500000Y-69975000D02*
X208500000Y-64575000D01*
X207250000Y-67775000D02*
X207750000Y-66875000D01*
X208250000Y-67775000D02*
X207250000Y-67775000D01*
X207750000Y-66875000D02*
X208250000Y-67775000D01*
X208250000Y-66775000D02*
X207250000Y-66775000D01*
X187500000Y-69475000D02*
X189000000Y-69475000D01*
X187500000Y-64075000D02*
X187500000Y-69475000D01*
X189000000Y-64075000D02*
X187500000Y-64075000D01*
X189000000Y-69475000D02*
X189000000Y-64075000D01*
X187750000Y-67275000D02*
X188250000Y-66375000D01*
X188750000Y-67275000D02*
X187750000Y-67275000D01*
X188250000Y-66375000D02*
X188750000Y-67275000D01*
X188750000Y-66275000D02*
X187750000Y-66275000D01*
X168750000Y-66350000D02*
X170250000Y-66350000D01*
X168750000Y-60950000D02*
X168750000Y-66350000D01*
X170250000Y-60950000D02*
X168750000Y-60950000D01*
X170250000Y-66350000D02*
X170250000Y-60950000D01*
X169000000Y-64150000D02*
X169500000Y-63250000D01*
X170000000Y-64150000D02*
X169000000Y-64150000D01*
X169500000Y-63250000D02*
X170000000Y-64150000D01*
X170000000Y-63150000D02*
X169000000Y-63150000D01*
X149500000Y-63765000D02*
X151000000Y-63765000D01*
X149500000Y-58365000D02*
X149500000Y-63765000D01*
X151000000Y-58365000D02*
X149500000Y-58365000D01*
X151000000Y-63765000D02*
X151000000Y-58365000D01*
X149750000Y-61565000D02*
X150250000Y-60665000D01*
X150750000Y-61565000D02*
X149750000Y-61565000D01*
X150250000Y-60665000D02*
X150750000Y-61565000D01*
X150750000Y-60565000D02*
X149750000Y-60565000D01*
X129050000Y-66500000D02*
X130550000Y-66500000D01*
X129050000Y-61100000D02*
X129050000Y-66500000D01*
X130550000Y-61100000D02*
X129050000Y-61100000D01*
X130550000Y-66500000D02*
X130550000Y-61100000D01*
X129300000Y-64300000D02*
X129800000Y-63400000D01*
X130300000Y-64300000D02*
X129300000Y-64300000D01*
X129800000Y-63400000D02*
X130300000Y-64300000D01*
X130300000Y-63300000D02*
X129300000Y-63300000D01*
X126050000Y-66475000D02*
X127550000Y-66475000D01*
X126050000Y-61075000D02*
X126050000Y-66475000D01*
X127550000Y-61075000D02*
X126050000Y-61075000D01*
X127550000Y-66475000D02*
X127550000Y-61075000D01*
X126300000Y-64275000D02*
X126800000Y-63375000D01*
X127300000Y-64275000D02*
X126300000Y-64275000D01*
X126800000Y-63375000D02*
X127300000Y-64275000D01*
X127300000Y-63275000D02*
X126300000Y-63275000D01*
X207000000Y-52725000D02*
X208500000Y-52725000D01*
X207000000Y-47325000D02*
X207000000Y-52725000D01*
X208500000Y-47325000D02*
X207000000Y-47325000D01*
X208500000Y-52725000D02*
X208500000Y-47325000D01*
X207250000Y-50525000D02*
X207750000Y-49625000D01*
X208250000Y-50525000D02*
X207250000Y-50525000D01*
X207750000Y-49625000D02*
X208250000Y-50525000D01*
X208250000Y-49525000D02*
X207250000Y-49525000D01*
X187250000Y-52950000D02*
X188750000Y-52950000D01*
X187250000Y-47550000D02*
X187250000Y-52950000D01*
X188750000Y-47550000D02*
X187250000Y-47550000D01*
X188750000Y-52950000D02*
X188750000Y-47550000D01*
X187500000Y-50750000D02*
X188000000Y-49850000D01*
X188500000Y-50750000D02*
X187500000Y-50750000D01*
X188000000Y-49850000D02*
X188500000Y-50750000D01*
X188500000Y-49750000D02*
X187500000Y-49750000D01*
X168500000Y-48125000D02*
X170000000Y-48125000D01*
X168500000Y-42725000D02*
X168500000Y-48125000D01*
X170000000Y-42725000D02*
X168500000Y-42725000D01*
X170000000Y-48125000D02*
X170000000Y-42725000D01*
X168750000Y-45925000D02*
X169250000Y-45025000D01*
X169750000Y-45925000D02*
X168750000Y-45925000D01*
X169250000Y-45025000D02*
X169750000Y-45925000D01*
X169750000Y-44925000D02*
X168750000Y-44925000D01*
X149750000Y-45740000D02*
X151250000Y-45740000D01*
X149750000Y-40340000D02*
X149750000Y-45740000D01*
X151250000Y-40340000D02*
X149750000Y-40340000D01*
X151250000Y-45740000D02*
X151250000Y-40340000D01*
X150000000Y-43540000D02*
X150500000Y-42640000D01*
X151000000Y-43540000D02*
X150000000Y-43540000D01*
X150500000Y-42640000D02*
X151000000Y-43540000D01*
X151000000Y-42540000D02*
X150000000Y-42540000D01*
X130250000Y-48480500D02*
X131750000Y-48480500D01*
X130250000Y-43080500D02*
X130250000Y-48480500D01*
X131750000Y-43080500D02*
X130250000Y-43080500D01*
X131750000Y-48480500D02*
X131750000Y-43080500D01*
X130500000Y-46280500D02*
X131000000Y-45380500D01*
X131500000Y-46280500D02*
X130500000Y-46280500D01*
X131000000Y-45380500D02*
X131500000Y-46280500D01*
X131500000Y-45280500D02*
X130500000Y-45280500D01*
X128000000Y-48475000D02*
X129500000Y-48475000D01*
X128000000Y-43075000D02*
X128000000Y-48475000D01*
X129500000Y-43075000D02*
X128000000Y-43075000D01*
X129500000Y-48475000D02*
X129500000Y-43075000D01*
X128250000Y-46275000D02*
X128750000Y-45375000D01*
X129250000Y-46275000D02*
X128250000Y-46275000D01*
X128750000Y-45375000D02*
X129250000Y-46275000D01*
X129250000Y-45275000D02*
X128250000Y-45275000D01*
X183270000Y-127500000D02*
X183270000Y-125260000D01*
X173000000Y-130400000D02*
X181400001Y-130400000D01*
D14*
X175000000Y-128600000D02*
X181700000Y-128600000D01*
D10*
X173000000Y-130050000D02*
X173000000Y-130400000D01*
D15*
X173300000Y-127100000D02*
X174700000Y-127100000D01*
D10*
X173000000Y-126800000D02*
X173000000Y-127800000D01*
D13*
X183400000Y-127600001D02*
X183400000Y-128500000D01*
D10*
X173220000Y-127800000D02*
X173220000Y-130050000D01*
X183500000Y-124900000D02*
X183500000Y-125260000D01*
D16*
X173200000Y-130200000D02*
X174600000Y-130200000D01*
D10*
X183300000Y-125260000D02*
X183500000Y-125260000D01*
X183500000Y-124900000D02*
X180220000Y-124900000D01*
X173000000Y-127800000D02*
X173200000Y-127800000D01*
X183500000Y-128500000D02*
X183500000Y-127500000D01*
X173200000Y-130050000D02*
X173000000Y-130050000D01*
X183500000Y-127500000D02*
X183300000Y-127500000D01*
X178000000Y-126800000D02*
X173000000Y-126800000D01*
D15*
X183300000Y-125100000D02*
X180600000Y-125100000D01*
D17*
X173700000Y-129800000D02*
X173700000Y-127300000D01*
D16*
X173200000Y-127700000D02*
X173200000Y-127000000D01*
D18*
X181770000Y-128900000D02*
X181770000Y-126660000D01*
D19*
X182900000Y-125400000D02*
X182900000Y-127199999D01*
D13*
X178970600Y-118450000D02*
X181020600Y-118450000D01*
X178970600Y-119900000D02*
X178970600Y-118450000D01*
X181020600Y-119900000D02*
X178970600Y-119900000D01*
X181020600Y-118450000D02*
X181020600Y-119900000D01*
D17*
X180616318Y-125321471D02*
G75*
G02*
X178400000Y-127200000I-2151318J291471D01*
G01*
D10*
X183500000Y-128499999D02*
G75*
G02*
X181400001Y-130400000I-2000000J99999D01*
G01*
X180216318Y-124921471D02*
G75*
G02*
X178000000Y-126800000I-2151318J291471D01*
G01*
X164270000Y-124990000D02*
X164270000Y-122750000D01*
X154000000Y-127890000D02*
X162400001Y-127890000D01*
D14*
X156000000Y-126090000D02*
X162700000Y-126090000D01*
D10*
X154000000Y-127540000D02*
X154000000Y-127890000D01*
D15*
X154300000Y-124590000D02*
X155700000Y-124590000D01*
D10*
X154000000Y-124290000D02*
X154000000Y-125290000D01*
D13*
X164400000Y-125090001D02*
X164400000Y-125990000D01*
D10*
X154220000Y-125290000D02*
X154220000Y-127540000D01*
X164500000Y-122390000D02*
X164500000Y-122750000D01*
D16*
X154200000Y-127690000D02*
X155600000Y-127690000D01*
D10*
X164300000Y-122750000D02*
X164500000Y-122750000D01*
X164500000Y-122390000D02*
X161220000Y-122390000D01*
X154000000Y-125290000D02*
X154200000Y-125290000D01*
X164500000Y-125990000D02*
X164500000Y-124990000D01*
X154200000Y-127540000D02*
X154000000Y-127540000D01*
X164500000Y-124990000D02*
X164300000Y-124990000D01*
X159000000Y-124290000D02*
X154000000Y-124290000D01*
D15*
X164300000Y-122590000D02*
X161600000Y-122590000D01*
D17*
X154700000Y-127290000D02*
X154700000Y-124790000D01*
D16*
X154200000Y-125190000D02*
X154200000Y-124490000D01*
D18*
X162770000Y-126390000D02*
X162770000Y-124150000D01*
D19*
X163900000Y-122890000D02*
X163900000Y-124689999D01*
D13*
X159970600Y-115940000D02*
X162020600Y-115940000D01*
X159970600Y-117390000D02*
X159970600Y-115940000D01*
X162020600Y-117390000D02*
X159970600Y-117390000D01*
X162020600Y-115940000D02*
X162020600Y-117390000D01*
D17*
X161616318Y-122811471D02*
G75*
G02*
X159400000Y-124690000I-2151318J291471D01*
G01*
D10*
X164500000Y-125989999D02*
G75*
G02*
X162400001Y-127890000I-2000000J99999D01*
G01*
X161216318Y-122411471D02*
G75*
G02*
X159000000Y-124290000I-2151318J291471D01*
G01*
X145170000Y-127400000D02*
X145170000Y-125160000D01*
X134900000Y-130300000D02*
X143300001Y-130300000D01*
D14*
X136900000Y-128500000D02*
X143600000Y-128500000D01*
D10*
X134900000Y-129950000D02*
X134900000Y-130300000D01*
D15*
X135200000Y-127000000D02*
X136600000Y-127000000D01*
D10*
X134900000Y-126700000D02*
X134900000Y-127700000D01*
D13*
X145300000Y-127500001D02*
X145300000Y-128400000D01*
D10*
X135120000Y-127700000D02*
X135120000Y-129950000D01*
X145400000Y-124800000D02*
X145400000Y-125160000D01*
D16*
X135100000Y-130100000D02*
X136500000Y-130100000D01*
D10*
X145200000Y-125160000D02*
X145400000Y-125160000D01*
X145400000Y-124800000D02*
X142120000Y-124800000D01*
X134900000Y-127700000D02*
X135100000Y-127700000D01*
X145400000Y-128400000D02*
X145400000Y-127400000D01*
X135100000Y-129950000D02*
X134900000Y-129950000D01*
X145400000Y-127400000D02*
X145200000Y-127400000D01*
X139900000Y-126700000D02*
X134900000Y-126700000D01*
D15*
X145200000Y-125000000D02*
X142500000Y-125000000D01*
D17*
X135600000Y-129700000D02*
X135600000Y-127200000D01*
D16*
X135100000Y-127600000D02*
X135100000Y-126900000D01*
D18*
X143670000Y-128800000D02*
X143670000Y-126560000D01*
D19*
X144800000Y-125300000D02*
X144800000Y-127099999D01*
D13*
X140870600Y-118350000D02*
X142920600Y-118350000D01*
X140870600Y-119800000D02*
X140870600Y-118350000D01*
X142920600Y-119800000D02*
X140870600Y-119800000D01*
X142920600Y-118350000D02*
X142920600Y-119800000D01*
D17*
X142516318Y-125221471D02*
G75*
G02*
X140300000Y-127100000I-2151318J291471D01*
G01*
D10*
X145400000Y-128399999D02*
G75*
G02*
X143300001Y-130300000I-2000000J99999D01*
G01*
X142116318Y-124821471D02*
G75*
G02*
X139900000Y-126700000I-2151318J291471D01*
G01*
X124034430Y-130506422D02*
X123454675Y-128342748D01*
X114864947Y-135965678D02*
X122978725Y-133791598D01*
D14*
X116330924Y-133709373D02*
X122802627Y-131975286D01*
D10*
X114774360Y-135627604D02*
X114864947Y-135965678D01*
D15*
X114300622Y-132700477D02*
X115652918Y-132338130D01*
D10*
X113933198Y-132488345D02*
X114192017Y-133454271D01*
D13*
X124185882Y-130569369D02*
X124418819Y-131438701D01*
D10*
X114404521Y-133397331D02*
X114986864Y-135570664D01*
X123583663Y-127935486D02*
X123676838Y-128283219D01*
D16*
X115006368Y-135720729D02*
X116358664Y-135358382D01*
D10*
X123483653Y-128334983D02*
X123676838Y-128283219D01*
X123583663Y-127935486D02*
X120415427Y-128784413D01*
X114192017Y-133454271D02*
X114385203Y-133402507D01*
X124515412Y-131412819D02*
X124256593Y-130446893D01*
X114967545Y-135575840D02*
X114774360Y-135627604D01*
X124256593Y-130446893D02*
X124063408Y-130498657D01*
X118762827Y-131194250D02*
X113933198Y-132488345D01*
D15*
X123442242Y-128180435D02*
X120834242Y-128879246D01*
D17*
X115385804Y-135204949D02*
X114738756Y-132790135D01*
D16*
X114359321Y-133305915D02*
X114178147Y-132629766D01*
D18*
X122947888Y-132246946D02*
X122368133Y-130083272D01*
D19*
X123133517Y-128573740D02*
X123599391Y-130312406D01*
D13*
X117539216Y-122877559D02*
X119519364Y-122346980D01*
X117914504Y-124278152D02*
X117539216Y-122877559D01*
X119894652Y-123747573D02*
X117914504Y-124278152D01*
X119519364Y-122346980D02*
X119894652Y-123747573D01*
D17*
X120907326Y-129088947D02*
G75*
G02*
X119252725Y-131477093I-2153453J-275263D01*
G01*
D10*
X124515411Y-131412818D02*
G75*
G02*
X122978725Y-133791598I-1957733J-421047D01*
G01*
X120417427Y-128806105D02*
G75*
G02*
X118762827Y-131194250I-2153452J-275263D01*
G01*
X96340706Y-140160364D02*
X98280603Y-139040364D01*
X88694232Y-132716283D02*
X92894233Y-139990897D01*
D14*
X91253078Y-133548334D02*
X94603078Y-139350704D01*
D10*
X88997341Y-132541283D02*
X88694232Y-132716283D01*
D15*
X91702116Y-131326091D02*
X92402116Y-132538526D01*
D10*
X91811924Y-130916283D02*
X90945898Y-131416283D01*
D13*
X96319103Y-140322948D02*
X95539681Y-140772947D01*
D10*
X91055898Y-131606809D02*
X89107341Y-132731809D01*
X98707372Y-139059550D02*
X98395603Y-139239550D01*
D16*
X88967437Y-132789488D02*
X89667437Y-134001924D01*
D10*
X98295603Y-139066345D02*
X98395603Y-139239550D01*
X98707372Y-139059550D02*
X97067372Y-136218987D01*
X90945898Y-131416283D02*
X91045898Y-131589488D01*
X95589681Y-140859550D02*
X96455706Y-140359550D01*
X89097341Y-132714488D02*
X88997341Y-132541283D01*
X96455706Y-140359550D02*
X96355706Y-140186345D01*
X94311924Y-135246410D02*
X91811924Y-130916283D01*
D15*
X98434167Y-138986345D02*
X97084167Y-136648076D01*
D17*
X89563848Y-133022501D02*
X91728911Y-131772501D01*
D16*
X91132501Y-131539488D02*
X91738719Y-131189488D01*
D18*
X94378270Y-139561326D02*
X96318167Y-138441326D01*
D19*
X97974359Y-138789935D02*
X96415514Y-139689934D01*
D13*
X102028536Y-131911974D02*
X103053536Y-133687326D01*
X100772799Y-132636974D02*
X102028536Y-131911974D01*
X101797799Y-134412326D02*
X100772799Y-132636974D01*
X103053536Y-133687326D02*
X101797799Y-134412326D01*
D17*
X96900527Y-136772943D02*
G75*
G02*
X94165514Y-135792820I-823238J2008831D01*
G01*
D10*
X95589681Y-140859549D02*
G75*
G02*
X92894233Y-139990897I-913398J1782050D01*
G01*
X97046937Y-136226533D02*
G75*
G02*
X94311924Y-135246410I-823238J2008831D01*
G01*
X221420000Y-113200000D02*
X221420000Y-110960000D01*
X211150000Y-116100000D02*
X219550001Y-116100000D01*
D14*
X213150000Y-114300000D02*
X219850000Y-114300000D01*
D10*
X211150000Y-115750000D02*
X211150000Y-116100000D01*
D15*
X211450000Y-112800000D02*
X212850000Y-112800000D01*
D10*
X211150000Y-112500000D02*
X211150000Y-113500000D01*
D13*
X221550000Y-113300001D02*
X221550000Y-114200000D01*
D10*
X211370000Y-113500000D02*
X211370000Y-115750000D01*
X221650000Y-110600000D02*
X221650000Y-110960000D01*
D16*
X211350000Y-115900000D02*
X212750000Y-115900000D01*
D10*
X221450000Y-110960000D02*
X221650000Y-110960000D01*
X221650000Y-110600000D02*
X218370000Y-110600000D01*
X211150000Y-113500000D02*
X211350000Y-113500000D01*
X221650000Y-114200000D02*
X221650000Y-113200000D01*
X211350000Y-115750000D02*
X211150000Y-115750000D01*
X221650000Y-113200000D02*
X221450000Y-113200000D01*
X216150000Y-112500000D02*
X211150000Y-112500000D01*
D15*
X221450000Y-110800000D02*
X218750000Y-110800000D01*
D17*
X211850000Y-115500000D02*
X211850000Y-113000000D01*
D16*
X211350000Y-113400000D02*
X211350000Y-112700000D01*
D18*
X219920000Y-114600000D02*
X219920000Y-112360000D01*
D19*
X221050000Y-111100000D02*
X221050000Y-112899999D01*
D13*
X217120600Y-104150000D02*
X219170600Y-104150000D01*
X217120600Y-105600000D02*
X217120600Y-104150000D01*
X219170600Y-105600000D02*
X217120600Y-105600000D01*
X219170600Y-104150000D02*
X219170600Y-105600000D01*
D17*
X218766318Y-111021471D02*
G75*
G02*
X216550000Y-112900000I-2151318J291471D01*
G01*
D10*
X221650000Y-114199999D02*
G75*
G02*
X219550001Y-116100000I-2000000J99999D01*
G01*
X218366318Y-110621471D02*
G75*
G02*
X216150000Y-112500000I-2151318J291471D01*
G01*
X183270000Y-108400000D02*
X183270000Y-106160000D01*
X173000000Y-111300000D02*
X181400001Y-111300000D01*
D14*
X175000000Y-109500000D02*
X181700000Y-109500000D01*
D10*
X173000000Y-110950000D02*
X173000000Y-111300000D01*
D15*
X173300000Y-108000000D02*
X174700000Y-108000000D01*
D10*
X173000000Y-107700000D02*
X173000000Y-108700000D01*
D13*
X183400000Y-108500001D02*
X183400000Y-109400000D01*
D10*
X173220000Y-108700000D02*
X173220000Y-110950000D01*
X183500000Y-105800000D02*
X183500000Y-106160000D01*
D16*
X173200000Y-111100000D02*
X174600000Y-111100000D01*
D10*
X183300000Y-106160000D02*
X183500000Y-106160000D01*
X183500000Y-105800000D02*
X180220000Y-105800000D01*
X173000000Y-108700000D02*
X173200000Y-108700000D01*
X183500000Y-109400000D02*
X183500000Y-108400000D01*
X173200000Y-110950000D02*
X173000000Y-110950000D01*
X183500000Y-108400000D02*
X183300000Y-108400000D01*
X178000000Y-107700000D02*
X173000000Y-107700000D01*
D15*
X183300000Y-106000000D02*
X180600000Y-106000000D01*
D17*
X173700000Y-110700000D02*
X173700000Y-108200000D01*
D16*
X173200000Y-108600000D02*
X173200000Y-107900000D01*
D18*
X181770000Y-109800000D02*
X181770000Y-107560000D01*
D19*
X182900000Y-106300000D02*
X182900000Y-108099999D01*
D13*
X178970600Y-99350000D02*
X181020600Y-99350000D01*
X178970600Y-100800000D02*
X178970600Y-99350000D01*
X181020600Y-100800000D02*
X178970600Y-100800000D01*
X181020600Y-99350000D02*
X181020600Y-100800000D01*
D17*
X180616318Y-106221471D02*
G75*
G02*
X178400000Y-108100000I-2151318J291471D01*
G01*
D10*
X183500000Y-109399999D02*
G75*
G02*
X181400001Y-111300000I-2000000J99999D01*
G01*
X180216318Y-105821471D02*
G75*
G02*
X178000000Y-107700000I-2151318J291471D01*
G01*
X145170000Y-108400000D02*
X145170000Y-106160000D01*
X134900000Y-111300000D02*
X143300001Y-111300000D01*
D14*
X136900000Y-109500000D02*
X143600000Y-109500000D01*
D10*
X134900000Y-110950000D02*
X134900000Y-111300000D01*
D15*
X135200000Y-108000000D02*
X136600000Y-108000000D01*
D10*
X134900000Y-107700000D02*
X134900000Y-108700000D01*
D13*
X145300000Y-108500001D02*
X145300000Y-109400000D01*
D10*
X135120000Y-108700000D02*
X135120000Y-110950000D01*
X145400000Y-105800000D02*
X145400000Y-106160000D01*
D16*
X135100000Y-111100000D02*
X136500000Y-111100000D01*
D10*
X145200000Y-106160000D02*
X145400000Y-106160000D01*
X145400000Y-105800000D02*
X142120000Y-105800000D01*
X134900000Y-108700000D02*
X135100000Y-108700000D01*
X145400000Y-109400000D02*
X145400000Y-108400000D01*
X135100000Y-110950000D02*
X134900000Y-110950000D01*
X145400000Y-108400000D02*
X145200000Y-108400000D01*
X139900000Y-107700000D02*
X134900000Y-107700000D01*
D15*
X145200000Y-106000000D02*
X142500000Y-106000000D01*
D17*
X135600000Y-110700000D02*
X135600000Y-108200000D01*
D16*
X135100000Y-108600000D02*
X135100000Y-107900000D01*
D18*
X143670000Y-109800000D02*
X143670000Y-107560000D01*
D19*
X144800000Y-106300000D02*
X144800000Y-108099999D01*
D13*
X140870600Y-99350000D02*
X142920600Y-99350000D01*
X140870600Y-100800000D02*
X140870600Y-99350000D01*
X142920600Y-100800000D02*
X140870600Y-100800000D01*
X142920600Y-99350000D02*
X142920600Y-100800000D01*
D17*
X142516318Y-106221471D02*
G75*
G02*
X140300000Y-108100000I-2151318J291471D01*
G01*
D10*
X145400000Y-109399999D02*
G75*
G02*
X143300001Y-111300000I-2000000J99999D01*
G01*
X142116318Y-105821471D02*
G75*
G02*
X139900000Y-107700000I-2151318J291471D01*
G01*
X126170000Y-110800000D02*
X126170000Y-108560000D01*
X115900000Y-113700000D02*
X124300001Y-113700000D01*
D14*
X117900000Y-111900000D02*
X124600000Y-111900000D01*
D10*
X115900000Y-113350000D02*
X115900000Y-113700000D01*
D15*
X116200000Y-110400000D02*
X117600000Y-110400000D01*
D10*
X115900000Y-110100000D02*
X115900000Y-111100000D01*
D13*
X126300000Y-110900001D02*
X126300000Y-111800000D01*
D10*
X116120000Y-111100000D02*
X116120000Y-113350000D01*
X126400000Y-108200000D02*
X126400000Y-108560000D01*
D16*
X116100000Y-113500000D02*
X117500000Y-113500000D01*
D10*
X126200000Y-108560000D02*
X126400000Y-108560000D01*
X126400000Y-108200000D02*
X123120000Y-108200000D01*
X115900000Y-111100000D02*
X116100000Y-111100000D01*
X126400000Y-111800000D02*
X126400000Y-110800000D01*
X116100000Y-113350000D02*
X115900000Y-113350000D01*
X126400000Y-110800000D02*
X126200000Y-110800000D01*
X120900000Y-110100000D02*
X115900000Y-110100000D01*
D15*
X126200000Y-108400000D02*
X123500000Y-108400000D01*
D17*
X116600000Y-113100000D02*
X116600000Y-110600000D01*
D16*
X116100000Y-111000000D02*
X116100000Y-110300000D01*
D18*
X124670000Y-112200000D02*
X124670000Y-109960000D01*
D19*
X125800000Y-108700000D02*
X125800000Y-110499999D01*
D13*
X121870600Y-101750000D02*
X123920600Y-101750000D01*
X121870600Y-103200000D02*
X121870600Y-101750000D01*
X123920600Y-103200000D02*
X121870600Y-103200000D01*
X123920600Y-101750000D02*
X123920600Y-103200000D01*
D17*
X123516318Y-108621471D02*
G75*
G02*
X121300000Y-110500000I-2151318J291471D01*
G01*
D10*
X126400000Y-111799999D02*
G75*
G02*
X124300001Y-113700000I-2000000J99999D01*
G01*
X123116318Y-108221471D02*
G75*
G02*
X120900000Y-110100000I-2151318J291471D01*
G01*
X221370000Y-94200000D02*
X221370000Y-91960000D01*
X211100000Y-97100000D02*
X219500001Y-97100000D01*
D14*
X213100000Y-95300000D02*
X219800000Y-95300000D01*
D10*
X211100000Y-96750000D02*
X211100000Y-97100000D01*
D15*
X211400000Y-93800000D02*
X212800000Y-93800000D01*
D10*
X211100000Y-93500000D02*
X211100000Y-94500000D01*
D13*
X221500000Y-94300001D02*
X221500000Y-95200000D01*
D10*
X211320000Y-94500000D02*
X211320000Y-96750000D01*
X221600000Y-91600000D02*
X221600000Y-91960000D01*
D16*
X211300000Y-96900000D02*
X212700000Y-96900000D01*
D10*
X221400000Y-91960000D02*
X221600000Y-91960000D01*
X221600000Y-91600000D02*
X218320000Y-91600000D01*
X211100000Y-94500000D02*
X211300000Y-94500000D01*
X221600000Y-95200000D02*
X221600000Y-94200000D01*
X211300000Y-96750000D02*
X211100000Y-96750000D01*
X221600000Y-94200000D02*
X221400000Y-94200000D01*
X216100000Y-93500000D02*
X211100000Y-93500000D01*
D15*
X221400000Y-91800000D02*
X218700000Y-91800000D01*
D17*
X211800000Y-96500000D02*
X211800000Y-94000000D01*
D16*
X211300000Y-94400000D02*
X211300000Y-93700000D01*
D18*
X219870000Y-95600000D02*
X219870000Y-93360000D01*
D19*
X221000000Y-92100000D02*
X221000000Y-93899999D01*
D13*
X217070600Y-85150000D02*
X219120600Y-85150000D01*
X217070600Y-86600000D02*
X217070600Y-85150000D01*
X219120600Y-86600000D02*
X217070600Y-86600000D01*
X219120600Y-85150000D02*
X219120600Y-86600000D01*
D17*
X218716318Y-92021471D02*
G75*
G02*
X216500000Y-93900000I-2151318J291471D01*
G01*
D10*
X221600000Y-95199999D02*
G75*
G02*
X219500001Y-97100000I-2000000J99999D01*
G01*
X218316318Y-91621471D02*
G75*
G02*
X216100000Y-93500000I-2151318J291471D01*
G01*
X183270000Y-89300000D02*
X183270000Y-87060000D01*
X173000000Y-92200000D02*
X181400001Y-92200000D01*
D14*
X175000000Y-90400000D02*
X181700000Y-90400000D01*
D10*
X173000000Y-91850000D02*
X173000000Y-92200000D01*
D15*
X173300000Y-88900000D02*
X174700000Y-88900000D01*
D10*
X173000000Y-88600000D02*
X173000000Y-89600000D01*
D13*
X183400000Y-89400001D02*
X183400000Y-90300000D01*
D10*
X173220000Y-89600000D02*
X173220000Y-91850000D01*
X183500000Y-86700000D02*
X183500000Y-87060000D01*
D16*
X173200000Y-92000000D02*
X174600000Y-92000000D01*
D10*
X183300000Y-87060000D02*
X183500000Y-87060000D01*
X183500000Y-86700000D02*
X180220000Y-86700000D01*
X173000000Y-89600000D02*
X173200000Y-89600000D01*
X183500000Y-90300000D02*
X183500000Y-89300000D01*
X173200000Y-91850000D02*
X173000000Y-91850000D01*
X183500000Y-89300000D02*
X183300000Y-89300000D01*
X178000000Y-88600000D02*
X173000000Y-88600000D01*
D15*
X183300000Y-86900000D02*
X180600000Y-86900000D01*
D17*
X173700000Y-91600000D02*
X173700000Y-89100000D01*
D16*
X173200000Y-89500000D02*
X173200000Y-88800000D01*
D18*
X181770000Y-90700000D02*
X181770000Y-88460000D01*
D19*
X182900000Y-87200000D02*
X182900000Y-88999999D01*
D13*
X178970600Y-80250000D02*
X181020600Y-80250000D01*
X178970600Y-81700000D02*
X178970600Y-80250000D01*
X181020600Y-81700000D02*
X178970600Y-81700000D01*
X181020600Y-80250000D02*
X181020600Y-81700000D01*
D17*
X180616318Y-87121471D02*
G75*
G02*
X178400000Y-89000000I-2151318J291471D01*
G01*
D10*
X183500000Y-90299999D02*
G75*
G02*
X181400001Y-92200000I-2000000J99999D01*
G01*
X180216318Y-86721471D02*
G75*
G02*
X178000000Y-88600000I-2151318J291471D01*
G01*
X164270000Y-86890000D02*
X164270000Y-84650000D01*
X154000000Y-89790000D02*
X162400001Y-89790000D01*
D14*
X156000000Y-87990000D02*
X162700000Y-87990000D01*
D10*
X154000000Y-89440000D02*
X154000000Y-89790000D01*
D15*
X154300000Y-86490000D02*
X155700000Y-86490000D01*
D10*
X154000000Y-86190000D02*
X154000000Y-87190000D01*
D13*
X164400000Y-86990001D02*
X164400000Y-87890000D01*
D10*
X154220000Y-87190000D02*
X154220000Y-89440000D01*
X164500000Y-84290000D02*
X164500000Y-84650000D01*
D16*
X154200000Y-89590000D02*
X155600000Y-89590000D01*
D10*
X164300000Y-84650000D02*
X164500000Y-84650000D01*
X164500000Y-84290000D02*
X161220000Y-84290000D01*
X154000000Y-87190000D02*
X154200000Y-87190000D01*
X164500000Y-87890000D02*
X164500000Y-86890000D01*
X154200000Y-89440000D02*
X154000000Y-89440000D01*
X164500000Y-86890000D02*
X164300000Y-86890000D01*
X159000000Y-86190000D02*
X154000000Y-86190000D01*
D15*
X164300000Y-84490000D02*
X161600000Y-84490000D01*
D17*
X154700000Y-89190000D02*
X154700000Y-86690000D01*
D16*
X154200000Y-87090000D02*
X154200000Y-86390000D01*
D18*
X162770000Y-88290000D02*
X162770000Y-86050000D01*
D19*
X163900000Y-84790000D02*
X163900000Y-86589999D01*
D13*
X159970600Y-77840000D02*
X162020600Y-77840000D01*
X159970600Y-79290000D02*
X159970600Y-77840000D01*
X162020600Y-79290000D02*
X159970600Y-79290000D01*
X162020600Y-77840000D02*
X162020600Y-79290000D01*
D17*
X161616318Y-84711471D02*
G75*
G02*
X159400000Y-86590000I-2151318J291471D01*
G01*
D10*
X164500000Y-87889999D02*
G75*
G02*
X162400001Y-89790000I-2000000J99999D01*
G01*
X161216318Y-84311471D02*
G75*
G02*
X159000000Y-86190000I-2151318J291471D01*
G01*
X145170000Y-89300000D02*
X145170000Y-87060000D01*
X134900000Y-92200000D02*
X143300001Y-92200000D01*
D14*
X136900000Y-90400000D02*
X143600000Y-90400000D01*
D10*
X134900000Y-91850000D02*
X134900000Y-92200000D01*
D15*
X135200000Y-88900000D02*
X136600000Y-88900000D01*
D10*
X134900000Y-88600000D02*
X134900000Y-89600000D01*
D13*
X145300000Y-89400001D02*
X145300000Y-90300000D01*
D10*
X135120000Y-89600000D02*
X135120000Y-91850000D01*
X145400000Y-86700000D02*
X145400000Y-87060000D01*
D16*
X135100000Y-92000000D02*
X136500000Y-92000000D01*
D10*
X145200000Y-87060000D02*
X145400000Y-87060000D01*
X145400000Y-86700000D02*
X142120000Y-86700000D01*
X134900000Y-89600000D02*
X135100000Y-89600000D01*
X145400000Y-90300000D02*
X145400000Y-89300000D01*
X135100000Y-91850000D02*
X134900000Y-91850000D01*
X145400000Y-89300000D02*
X145200000Y-89300000D01*
X139900000Y-88600000D02*
X134900000Y-88600000D01*
D15*
X145200000Y-86900000D02*
X142500000Y-86900000D01*
D17*
X135600000Y-91600000D02*
X135600000Y-89100000D01*
D16*
X135100000Y-89500000D02*
X135100000Y-88800000D01*
D18*
X143670000Y-90700000D02*
X143670000Y-88460000D01*
D19*
X144800000Y-87200000D02*
X144800000Y-88999999D01*
D13*
X140870600Y-80250000D02*
X142920600Y-80250000D01*
X140870600Y-81700000D02*
X140870600Y-80250000D01*
X142920600Y-81700000D02*
X140870600Y-81700000D01*
X142920600Y-80250000D02*
X142920600Y-81700000D01*
D17*
X142516318Y-87121471D02*
G75*
G02*
X140300000Y-89000000I-2151318J291471D01*
G01*
D10*
X145400000Y-90299999D02*
G75*
G02*
X143300001Y-92200000I-2000000J99999D01*
G01*
X142116318Y-86721471D02*
G75*
G02*
X139900000Y-88600000I-2151318J291471D01*
G01*
X126170000Y-91800000D02*
X126170000Y-89560000D01*
X115900000Y-94700000D02*
X124300001Y-94700000D01*
D14*
X117900000Y-92900000D02*
X124600000Y-92900000D01*
D10*
X115900000Y-94350000D02*
X115900000Y-94700000D01*
D15*
X116200000Y-91400000D02*
X117600000Y-91400000D01*
D10*
X115900000Y-91100000D02*
X115900000Y-92100000D01*
D13*
X126300000Y-91900001D02*
X126300000Y-92800000D01*
D10*
X116120000Y-92100000D02*
X116120000Y-94350000D01*
X126400000Y-89200000D02*
X126400000Y-89560000D01*
D16*
X116100000Y-94500000D02*
X117500000Y-94500000D01*
D10*
X126200000Y-89560000D02*
X126400000Y-89560000D01*
X126400000Y-89200000D02*
X123120000Y-89200000D01*
X115900000Y-92100000D02*
X116100000Y-92100000D01*
X126400000Y-92800000D02*
X126400000Y-91800000D01*
X116100000Y-94350000D02*
X115900000Y-94350000D01*
X126400000Y-91800000D02*
X126200000Y-91800000D01*
X120900000Y-91100000D02*
X115900000Y-91100000D01*
D15*
X126200000Y-89400000D02*
X123500000Y-89400000D01*
D17*
X116600000Y-94100000D02*
X116600000Y-91600000D01*
D16*
X116100000Y-92000000D02*
X116100000Y-91300000D01*
D18*
X124670000Y-93200000D02*
X124670000Y-90960000D01*
D19*
X125800000Y-89700000D02*
X125800000Y-91499999D01*
D13*
X121870600Y-82750000D02*
X123920600Y-82750000D01*
X121870600Y-84200000D02*
X121870600Y-82750000D01*
X123920600Y-84200000D02*
X121870600Y-84200000D01*
X123920600Y-82750000D02*
X123920600Y-84200000D01*
D17*
X123516318Y-89621471D02*
G75*
G02*
X121300000Y-91500000I-2151318J291471D01*
G01*
D10*
X126400000Y-92799999D02*
G75*
G02*
X124300001Y-94700000I-2000000J99999D01*
G01*
X123116318Y-89221471D02*
G75*
G02*
X120900000Y-91100000I-2151318J291471D01*
G01*
X183270000Y-70200000D02*
X183270000Y-67960000D01*
X173000000Y-73100000D02*
X181400001Y-73100000D01*
D14*
X175000000Y-71300000D02*
X181700000Y-71300000D01*
D10*
X173000000Y-72750000D02*
X173000000Y-73100000D01*
D15*
X173300000Y-69800000D02*
X174700000Y-69800000D01*
D10*
X173000000Y-69500000D02*
X173000000Y-70500000D01*
D13*
X183400000Y-70300001D02*
X183400000Y-71200000D01*
D10*
X173220000Y-70500000D02*
X173220000Y-72750000D01*
X183500000Y-67600000D02*
X183500000Y-67960000D01*
D16*
X173200000Y-72900000D02*
X174600000Y-72900000D01*
D10*
X183300000Y-67960000D02*
X183500000Y-67960000D01*
X183500000Y-67600000D02*
X180220000Y-67600000D01*
X173000000Y-70500000D02*
X173200000Y-70500000D01*
X183500000Y-71200000D02*
X183500000Y-70200000D01*
X173200000Y-72750000D02*
X173000000Y-72750000D01*
X183500000Y-70200000D02*
X183300000Y-70200000D01*
X178000000Y-69500000D02*
X173000000Y-69500000D01*
D15*
X183300000Y-67800000D02*
X180600000Y-67800000D01*
D17*
X173700000Y-72500000D02*
X173700000Y-70000000D01*
D16*
X173200000Y-70400000D02*
X173200000Y-69700000D01*
D18*
X181770000Y-71600000D02*
X181770000Y-69360000D01*
D19*
X182900000Y-68100000D02*
X182900000Y-69899999D01*
D13*
X178970600Y-61150000D02*
X181020600Y-61150000D01*
X178970600Y-62600000D02*
X178970600Y-61150000D01*
X181020600Y-62600000D02*
X178970600Y-62600000D01*
X181020600Y-61150000D02*
X181020600Y-62600000D01*
D17*
X180616318Y-68021471D02*
G75*
G02*
X178400000Y-69900000I-2151318J291471D01*
G01*
D10*
X183500000Y-71199999D02*
G75*
G02*
X181400001Y-73100000I-2000000J99999D01*
G01*
X180216318Y-67621471D02*
G75*
G02*
X178000000Y-69500000I-2151318J291471D01*
G01*
X164270000Y-67790000D02*
X164270000Y-65550000D01*
X154000000Y-70690000D02*
X162400001Y-70690000D01*
D14*
X156000000Y-68890000D02*
X162700000Y-68890000D01*
D10*
X154000000Y-70340000D02*
X154000000Y-70690000D01*
D15*
X154300000Y-67390000D02*
X155700000Y-67390000D01*
D10*
X154000000Y-67090000D02*
X154000000Y-68090000D01*
D13*
X164400000Y-67890001D02*
X164400000Y-68790000D01*
D10*
X154220000Y-68090000D02*
X154220000Y-70340000D01*
X164500000Y-65190000D02*
X164500000Y-65550000D01*
D16*
X154200000Y-70490000D02*
X155600000Y-70490000D01*
D10*
X164300000Y-65550000D02*
X164500000Y-65550000D01*
X164500000Y-65190000D02*
X161220000Y-65190000D01*
X154000000Y-68090000D02*
X154200000Y-68090000D01*
X164500000Y-68790000D02*
X164500000Y-67790000D01*
X154200000Y-70340000D02*
X154000000Y-70340000D01*
X164500000Y-67790000D02*
X164300000Y-67790000D01*
X159000000Y-67090000D02*
X154000000Y-67090000D01*
D15*
X164300000Y-65390000D02*
X161600000Y-65390000D01*
D17*
X154700000Y-70090000D02*
X154700000Y-67590000D01*
D16*
X154200000Y-67990000D02*
X154200000Y-67290000D01*
D18*
X162770000Y-69190000D02*
X162770000Y-66950000D01*
D19*
X163900000Y-65690000D02*
X163900000Y-67489999D01*
D13*
X159970600Y-58740000D02*
X162020600Y-58740000D01*
X159970600Y-60190000D02*
X159970600Y-58740000D01*
X162020600Y-60190000D02*
X159970600Y-60190000D01*
X162020600Y-58740000D02*
X162020600Y-60190000D01*
D17*
X161616318Y-65611471D02*
G75*
G02*
X159400000Y-67490000I-2151318J291471D01*
G01*
D10*
X164500000Y-68789999D02*
G75*
G02*
X162400001Y-70690000I-2000000J99999D01*
G01*
X161216318Y-65211471D02*
G75*
G02*
X159000000Y-67090000I-2151318J291471D01*
G01*
X145170000Y-70300000D02*
X145170000Y-68060000D01*
X134900000Y-73200000D02*
X143300001Y-73200000D01*
D14*
X136900000Y-71400000D02*
X143600000Y-71400000D01*
D10*
X134900000Y-72850000D02*
X134900000Y-73200000D01*
D15*
X135200000Y-69900000D02*
X136600000Y-69900000D01*
D10*
X134900000Y-69600000D02*
X134900000Y-70600000D01*
D13*
X145300000Y-70400001D02*
X145300000Y-71300000D01*
D10*
X135120000Y-70600000D02*
X135120000Y-72850000D01*
X145400000Y-67700000D02*
X145400000Y-68060000D01*
D16*
X135100000Y-73000000D02*
X136500000Y-73000000D01*
D10*
X145200000Y-68060000D02*
X145400000Y-68060000D01*
X145400000Y-67700000D02*
X142120000Y-67700000D01*
X134900000Y-70600000D02*
X135100000Y-70600000D01*
X145400000Y-71300000D02*
X145400000Y-70300000D01*
X135100000Y-72850000D02*
X134900000Y-72850000D01*
X145400000Y-70300000D02*
X145200000Y-70300000D01*
X139900000Y-69600000D02*
X134900000Y-69600000D01*
D15*
X145200000Y-67900000D02*
X142500000Y-67900000D01*
D17*
X135600000Y-72600000D02*
X135600000Y-70100000D01*
D16*
X135100000Y-70500000D02*
X135100000Y-69800000D01*
D18*
X143670000Y-71700000D02*
X143670000Y-69460000D01*
D19*
X144800000Y-68200000D02*
X144800000Y-69999999D01*
D13*
X140870600Y-61250000D02*
X142920600Y-61250000D01*
X140870600Y-62700000D02*
X140870600Y-61250000D01*
X142920600Y-62700000D02*
X140870600Y-62700000D01*
X142920600Y-61250000D02*
X142920600Y-62700000D01*
D17*
X142516318Y-68121471D02*
G75*
G02*
X140300000Y-70000000I-2151318J291471D01*
G01*
D10*
X145400000Y-71299999D02*
G75*
G02*
X143300001Y-73200000I-2000000J99999D01*
G01*
X142116318Y-67721471D02*
G75*
G02*
X139900000Y-69600000I-2151318J291471D01*
G01*
X126170000Y-72800000D02*
X126170000Y-70560000D01*
X115900000Y-75700000D02*
X124300001Y-75700000D01*
D14*
X117900000Y-73900000D02*
X124600000Y-73900000D01*
D10*
X115900000Y-75350000D02*
X115900000Y-75700000D01*
D15*
X116200000Y-72400000D02*
X117600000Y-72400000D01*
D10*
X115900000Y-72100000D02*
X115900000Y-73100000D01*
D13*
X126300000Y-72900001D02*
X126300000Y-73800000D01*
D10*
X116120000Y-73100000D02*
X116120000Y-75350000D01*
X126400000Y-70200000D02*
X126400000Y-70560000D01*
D16*
X116100000Y-75500000D02*
X117500000Y-75500000D01*
D10*
X126200000Y-70560000D02*
X126400000Y-70560000D01*
X126400000Y-70200000D02*
X123120000Y-70200000D01*
X115900000Y-73100000D02*
X116100000Y-73100000D01*
X126400000Y-73800000D02*
X126400000Y-72800000D01*
X116100000Y-75350000D02*
X115900000Y-75350000D01*
X126400000Y-72800000D02*
X126200000Y-72800000D01*
X120900000Y-72100000D02*
X115900000Y-72100000D01*
D15*
X126200000Y-70400000D02*
X123500000Y-70400000D01*
D17*
X116600000Y-75100000D02*
X116600000Y-72600000D01*
D16*
X116100000Y-73000000D02*
X116100000Y-72300000D01*
D18*
X124670000Y-74200000D02*
X124670000Y-71960000D01*
D19*
X125800000Y-70700000D02*
X125800000Y-72499999D01*
D13*
X121870600Y-63750000D02*
X123920600Y-63750000D01*
X121870600Y-65200000D02*
X121870600Y-63750000D01*
X123920600Y-65200000D02*
X121870600Y-65200000D01*
X123920600Y-63750000D02*
X123920600Y-65200000D01*
D17*
X123516318Y-70621471D02*
G75*
G02*
X121300000Y-72500000I-2151318J291471D01*
G01*
D10*
X126400000Y-73799999D02*
G75*
G02*
X124300001Y-75700000I-2000000J99999D01*
G01*
X123116318Y-70221471D02*
G75*
G02*
X120900000Y-72100000I-2151318J291471D01*
G01*
X202370000Y-56100000D02*
X202370000Y-53860000D01*
X192100000Y-59000000D02*
X200500001Y-59000000D01*
D14*
X194100000Y-57200000D02*
X200800000Y-57200000D01*
D10*
X192100000Y-58650000D02*
X192100000Y-59000000D01*
D15*
X192400000Y-55700000D02*
X193800000Y-55700000D01*
D10*
X192100000Y-55400000D02*
X192100000Y-56400000D01*
D13*
X202500000Y-56200001D02*
X202500000Y-57100000D01*
D10*
X192320000Y-56400000D02*
X192320000Y-58650000D01*
X202600000Y-53500000D02*
X202600000Y-53860000D01*
D16*
X192300000Y-58800000D02*
X193700000Y-58800000D01*
D10*
X202400000Y-53860000D02*
X202600000Y-53860000D01*
X202600000Y-53500000D02*
X199320000Y-53500000D01*
X192100000Y-56400000D02*
X192300000Y-56400000D01*
X202600000Y-57100000D02*
X202600000Y-56100000D01*
X192300000Y-58650000D02*
X192100000Y-58650000D01*
X202600000Y-56100000D02*
X202400000Y-56100000D01*
X197100000Y-55400000D02*
X192100000Y-55400000D01*
D15*
X202400000Y-53700000D02*
X199700000Y-53700000D01*
D17*
X192800000Y-58400000D02*
X192800000Y-55900000D01*
D16*
X192300000Y-56300000D02*
X192300000Y-55600000D01*
D18*
X200870000Y-57500000D02*
X200870000Y-55260000D01*
D19*
X202000000Y-54000000D02*
X202000000Y-55799999D01*
D13*
X198070600Y-47050000D02*
X200120600Y-47050000D01*
X198070600Y-48500000D02*
X198070600Y-47050000D01*
X200120600Y-48500000D02*
X198070600Y-48500000D01*
X200120600Y-47050000D02*
X200120600Y-48500000D01*
D17*
X199716318Y-53921471D02*
G75*
G02*
X197500000Y-55800000I-2151318J291471D01*
G01*
D10*
X202600000Y-57099999D02*
G75*
G02*
X200500001Y-59000000I-2000000J99999D01*
G01*
X199316318Y-53521471D02*
G75*
G02*
X197100000Y-55400000I-2151318J291471D01*
G01*
X183270000Y-51200000D02*
X183270000Y-48960000D01*
X173000000Y-54100000D02*
X181400001Y-54100000D01*
D14*
X175000000Y-52300000D02*
X181700000Y-52300000D01*
D10*
X173000000Y-53750000D02*
X173000000Y-54100000D01*
D15*
X173300000Y-50800000D02*
X174700000Y-50800000D01*
D10*
X173000000Y-50500000D02*
X173000000Y-51500000D01*
D13*
X183400000Y-51300001D02*
X183400000Y-52200000D01*
D10*
X173220000Y-51500000D02*
X173220000Y-53750000D01*
X183500000Y-48600000D02*
X183500000Y-48960000D01*
D16*
X173200000Y-53900000D02*
X174600000Y-53900000D01*
D10*
X183300000Y-48960000D02*
X183500000Y-48960000D01*
X183500000Y-48600000D02*
X180220000Y-48600000D01*
X173000000Y-51500000D02*
X173200000Y-51500000D01*
X183500000Y-52200000D02*
X183500000Y-51200000D01*
X173200000Y-53750000D02*
X173000000Y-53750000D01*
X183500000Y-51200000D02*
X183300000Y-51200000D01*
X178000000Y-50500000D02*
X173000000Y-50500000D01*
D15*
X183300000Y-48800000D02*
X180600000Y-48800000D01*
D17*
X173700000Y-53500000D02*
X173700000Y-51000000D01*
D16*
X173200000Y-51400000D02*
X173200000Y-50700000D01*
D18*
X181770000Y-52600000D02*
X181770000Y-50360000D01*
D19*
X182900000Y-49100000D02*
X182900000Y-50899999D01*
D13*
X178970600Y-42150000D02*
X181020600Y-42150000D01*
X178970600Y-43600000D02*
X178970600Y-42150000D01*
X181020600Y-43600000D02*
X178970600Y-43600000D01*
X181020600Y-42150000D02*
X181020600Y-43600000D01*
D17*
X180616318Y-49021471D02*
G75*
G02*
X178400000Y-50900000I-2151318J291471D01*
G01*
D10*
X183500000Y-52199999D02*
G75*
G02*
X181400001Y-54100000I-2000000J99999D01*
G01*
X180216318Y-48621471D02*
G75*
G02*
X178000000Y-50500000I-2151318J291471D01*
G01*
X164270000Y-48700000D02*
X164270000Y-46460000D01*
X154000000Y-51600000D02*
X162400001Y-51600000D01*
D14*
X156000000Y-49800000D02*
X162700000Y-49800000D01*
D10*
X154000000Y-51250000D02*
X154000000Y-51600000D01*
D15*
X154300000Y-48300000D02*
X155700000Y-48300000D01*
D10*
X154000000Y-48000000D02*
X154000000Y-49000000D01*
D13*
X164400000Y-48800001D02*
X164400000Y-49700000D01*
D10*
X154220000Y-49000000D02*
X154220000Y-51250000D01*
X164500000Y-46100000D02*
X164500000Y-46460000D01*
D16*
X154200000Y-51400000D02*
X155600000Y-51400000D01*
D10*
X164300000Y-46460000D02*
X164500000Y-46460000D01*
X164500000Y-46100000D02*
X161220000Y-46100000D01*
X154000000Y-49000000D02*
X154200000Y-49000000D01*
X164500000Y-49700000D02*
X164500000Y-48700000D01*
X154200000Y-51250000D02*
X154000000Y-51250000D01*
X164500000Y-48700000D02*
X164300000Y-48700000D01*
X159000000Y-48000000D02*
X154000000Y-48000000D01*
D15*
X164300000Y-46300000D02*
X161600000Y-46300000D01*
D17*
X154700000Y-51000000D02*
X154700000Y-48500000D01*
D16*
X154200000Y-48900000D02*
X154200000Y-48200000D01*
D18*
X162770000Y-50100000D02*
X162770000Y-47860000D01*
D19*
X163900000Y-46600000D02*
X163900000Y-48399999D01*
D13*
X159970600Y-39650000D02*
X162020600Y-39650000D01*
X159970600Y-41100000D02*
X159970600Y-39650000D01*
X162020600Y-41100000D02*
X159970600Y-41100000D01*
X162020600Y-39650000D02*
X162020600Y-41100000D01*
D17*
X161616318Y-46521471D02*
G75*
G02*
X159400000Y-48400000I-2151318J291471D01*
G01*
D10*
X164500000Y-49699999D02*
G75*
G02*
X162400001Y-51600000I-2000000J99999D01*
G01*
X161216318Y-46121471D02*
G75*
G02*
X159000000Y-48000000I-2151318J291471D01*
G01*
X126170000Y-53700000D02*
X126170000Y-51460000D01*
X115900000Y-56600000D02*
X124300001Y-56600000D01*
D14*
X117900000Y-54800000D02*
X124600000Y-54800000D01*
D10*
X115900000Y-56250000D02*
X115900000Y-56600000D01*
D15*
X116200000Y-53300000D02*
X117600000Y-53300000D01*
D10*
X115900000Y-53000000D02*
X115900000Y-54000000D01*
D13*
X126300000Y-53800001D02*
X126300000Y-54700000D01*
D10*
X116120000Y-54000000D02*
X116120000Y-56250000D01*
X126400000Y-51100000D02*
X126400000Y-51460000D01*
D16*
X116100000Y-56400000D02*
X117500000Y-56400000D01*
D10*
X126200000Y-51460000D02*
X126400000Y-51460000D01*
X126400000Y-51100000D02*
X123120000Y-51100000D01*
X115900000Y-54000000D02*
X116100000Y-54000000D01*
X126400000Y-54700000D02*
X126400000Y-53700000D01*
X116100000Y-56250000D02*
X115900000Y-56250000D01*
X126400000Y-53700000D02*
X126200000Y-53700000D01*
X120900000Y-53000000D02*
X115900000Y-53000000D01*
D15*
X126200000Y-51300000D02*
X123500000Y-51300000D01*
D17*
X116600000Y-56000000D02*
X116600000Y-53500000D01*
D16*
X116100000Y-53900000D02*
X116100000Y-53200000D01*
D18*
X124670000Y-55100000D02*
X124670000Y-52860000D01*
D19*
X125800000Y-51600000D02*
X125800000Y-53399999D01*
D13*
X121870600Y-44650000D02*
X123920600Y-44650000D01*
X121870600Y-46100000D02*
X121870600Y-44650000D01*
X123920600Y-46100000D02*
X121870600Y-46100000D01*
X123920600Y-44650000D02*
X123920600Y-46100000D01*
D17*
X123516318Y-51521471D02*
G75*
G02*
X121300000Y-53400000I-2151318J291471D01*
G01*
D10*
X126400000Y-54699999D02*
G75*
G02*
X124300001Y-56600000I-2000000J99999D01*
G01*
X123116318Y-51121471D02*
G75*
G02*
X120900000Y-53000000I-2151318J291471D01*
G01*
X182327000Y-115606600D02*
X180527000Y-115606600D01*
X182327000Y-113806600D02*
X182327000Y-115606600D01*
X180527000Y-113806600D02*
X182327000Y-113806600D01*
X180527000Y-115606600D02*
X180527000Y-113806600D01*
X177227000Y-115606600D02*
X175427000Y-115606600D01*
X177227000Y-113806600D02*
X177227000Y-115606600D01*
X175427000Y-113806600D02*
X177227000Y-113806600D01*
X175427000Y-115606600D02*
X175427000Y-113806600D01*
X179727000Y-115606600D02*
X177927000Y-115606600D01*
X179727000Y-113806600D02*
X179727000Y-115606600D01*
X177927000Y-113806600D02*
X179727000Y-113806600D01*
X177927000Y-115606600D02*
X177927000Y-113806600D01*
X186400000Y-95150000D02*
X186400000Y-96950000D01*
X184600000Y-95150000D02*
X186400000Y-95150000D01*
X184600000Y-96950000D02*
X184600000Y-95150000D01*
X186400000Y-96950000D02*
X184600000Y-96950000D01*
X186400000Y-100250000D02*
X186400000Y-102050000D01*
X184600000Y-100250000D02*
X186400000Y-100250000D01*
X184600000Y-102050000D02*
X184600000Y-100250000D01*
X186400000Y-102050000D02*
X184600000Y-102050000D01*
X186400000Y-97750000D02*
X186400000Y-99550000D01*
X184600000Y-97750000D02*
X186400000Y-97750000D01*
X184600000Y-99550000D02*
X184600000Y-97750000D01*
X186400000Y-99550000D02*
X184600000Y-99550000D01*
X90910000Y-70440000D02*
X90910000Y-39960000D01*
X93450000Y-70440000D02*
X90910000Y-70440000D01*
X93450000Y-39960000D02*
X93450000Y-70440000D01*
X90910000Y-39960000D02*
X93450000Y-39960000D01*
X106150000Y-70440000D02*
X106150000Y-39960000D01*
X108690000Y-70440000D02*
X106150000Y-70440000D01*
X108690000Y-39960000D02*
X108690000Y-70440000D01*
X106150000Y-39960000D02*
X108690000Y-39960000D01*
X90910000Y-70440000D02*
X90910000Y-37420000D01*
X108690000Y-37420000D02*
X108690000Y-70440000D01*
X90910000Y-37420000D02*
X108690000Y-37420000D01*
X87430000Y-73330000D02*
X97590000Y-73330000D01*
X97590000Y-73330000D02*
X97590000Y-75870000D01*
X97590000Y-75870000D02*
X87430000Y-75870000D01*
X87430000Y-75870000D02*
X87430000Y-73330000D01*
X80200000Y-78500000D02*
X80200000Y-72600000D01*
X80200000Y-78500000D02*
X80200000Y-72500000D01*
X83700000Y-72500000D02*
X83700000Y-78500000D01*
X80200000Y-72500000D02*
X80900000Y-72500000D01*
X83700000Y-72500000D02*
X83100000Y-72500000D01*
X83700000Y-78500000D02*
X83100000Y-78500000D01*
X80200000Y-78500000D02*
X80900000Y-78500000D01*
X97589000Y-70443000D02*
X97589000Y-68157000D01*
X97589000Y-68157000D02*
X95811000Y-68157000D01*
X95811000Y-68157000D02*
X95811000Y-70443000D01*
X95811000Y-70443000D02*
X97589000Y-70443000D01*
X100089000Y-70443000D02*
X100089000Y-68157000D01*
X100089000Y-68157000D02*
X98311000Y-68157000D01*
X98311000Y-68157000D02*
X98311000Y-70443000D01*
X98311000Y-70443000D02*
X100089000Y-70443000D01*
X102589000Y-70443000D02*
X102589000Y-68157000D01*
X102589000Y-68157000D02*
X100811000Y-68157000D01*
X100811000Y-68157000D02*
X100811000Y-70443000D01*
X100811000Y-70443000D02*
X102589000Y-70443000D01*
X105189000Y-70443000D02*
X105189000Y-68157000D01*
X105189000Y-68157000D02*
X103411000Y-68157000D01*
X103411000Y-68157000D02*
X103411000Y-70443000D01*
X103411000Y-70443000D02*
X105189000Y-70443000D01*
X94539272Y-79311965D02*
X97539272Y-79311965D01*
X97539272Y-79311965D02*
X97539272Y-81311965D01*
X97539272Y-81311965D02*
X94539272Y-81311965D01*
X94539272Y-81311965D02*
X94539272Y-79311965D01*
X94539272Y-77061965D02*
X97539272Y-77061965D01*
X97539272Y-77061965D02*
X97539272Y-79061965D01*
X97539272Y-79061965D02*
X94539272Y-79061965D01*
X94539272Y-79061965D02*
X94539272Y-77061965D01*
X103700000Y-77100000D02*
X103700000Y-79100000D01*
X103700000Y-79100000D02*
X101700000Y-79100000D01*
X101700000Y-79100000D02*
X101700000Y-77100000D01*
X101700000Y-77100000D02*
X103700000Y-77100000D01*
X103700000Y-79300000D02*
X103700000Y-81300000D01*
X103700000Y-81300000D02*
X101700000Y-81300000D01*
X101700000Y-81300000D02*
X101700000Y-79300000D01*
X101700000Y-79300000D02*
X103700000Y-79300000D01*
D20*
X98000000Y-98600000D02*
X93900000Y-98600000D01*
X93900000Y-98600000D02*
X93900000Y-110400000D01*
X98000000Y-110400000D02*
X93900000Y-110400000D01*
X106100000Y-110400000D02*
X102000000Y-110400000D01*
X106100000Y-108000000D02*
X106100000Y-110400000D01*
X106100000Y-103200000D02*
X106100000Y-105800000D01*
X106100000Y-98600000D02*
X106100000Y-101000000D01*
X102000000Y-98600000D02*
X106100000Y-98600000D01*
X103000000Y-104500000D02*
G75*
G03*
X103000000Y-104500000I-3000000J0D01*
G01*
X100000000Y-104000000D02*
X100000000Y-105000000D01*
X99500000Y-104500000D02*
X100500000Y-104500000D01*
D10*
X78000000Y-90050000D02*
X78000000Y-84050000D01*
X78000000Y-84050000D02*
X90000000Y-84050000D01*
X90000000Y-84050000D02*
X90000000Y-90050000D01*
X90000000Y-90050000D02*
X78000000Y-90050000D01*
X110614285Y-78961904D02*
X110995238Y-78961904D01*
X110995238Y-78161904D01*
X110347619Y-78542857D02*
X110080952Y-78542857D01*
X109966666Y-78961904D02*
X110347619Y-78961904D01*
X110347619Y-78161904D01*
X109966666Y-78161904D01*
X109623809Y-78961904D02*
X109623809Y-78161904D01*
X109433333Y-78161904D01*
X109319047Y-78200000D01*
X109242857Y-78276190D01*
X109204761Y-78352380D01*
X109166666Y-78504761D01*
X109166666Y-78619047D01*
X109204761Y-78771428D01*
X109242857Y-78847619D01*
X109319047Y-78923809D01*
X109433333Y-78961904D01*
X109623809Y-78961904D01*
X110609523Y-75600000D02*
X110685714Y-75561904D01*
X110800000Y-75561904D01*
X110914285Y-75600000D01*
X110990476Y-75676190D01*
X111028571Y-75752380D01*
X111066666Y-75904761D01*
X111066666Y-76019047D01*
X111028571Y-76171428D01*
X110990476Y-76247619D01*
X110914285Y-76323809D01*
X110800000Y-76361904D01*
X110723809Y-76361904D01*
X110609523Y-76323809D01*
X110571428Y-76285714D01*
X110571428Y-76019047D01*
X110723809Y-76019047D01*
X110228571Y-76361904D02*
X110228571Y-75561904D01*
X109771428Y-76361904D01*
X109771428Y-75561904D01*
X109390476Y-76361904D02*
X109390476Y-75561904D01*
X109200000Y-75561904D01*
X109085714Y-75600000D01*
X109009523Y-75676190D01*
X108971428Y-75752380D01*
X108933333Y-75904761D01*
X108933333Y-76019047D01*
X108971428Y-76171428D01*
X109009523Y-76247619D01*
X109085714Y-76323809D01*
X109200000Y-76361904D01*
X109390476Y-76361904D01*
X111166666Y-80561904D02*
X110900000Y-81361904D01*
X110633333Y-80561904D01*
X109909523Y-81285714D02*
X109947619Y-81323809D01*
X110061904Y-81361904D01*
X110138095Y-81361904D01*
X110252380Y-81323809D01*
X110328571Y-81247619D01*
X110366666Y-81171428D01*
X110404761Y-81019047D01*
X110404761Y-80904761D01*
X110366666Y-80752380D01*
X110328571Y-80676190D01*
X110252380Y-80600000D01*
X110138095Y-80561904D01*
X110061904Y-80561904D01*
X109947619Y-80600000D01*
X109909523Y-80638095D01*
X109109523Y-81285714D02*
X109147619Y-81323809D01*
X109261904Y-81361904D01*
X109338095Y-81361904D01*
X109452380Y-81323809D01*
X109528571Y-81247619D01*
X109566666Y-81171428D01*
X109604761Y-81019047D01*
X109604761Y-80904761D01*
X109566666Y-80752380D01*
X109528571Y-80676190D01*
X109452380Y-80600000D01*
X109338095Y-80561904D01*
X109261904Y-80561904D01*
X109147619Y-80600000D01*
X109109523Y-80638095D01*
X108233333Y-73652380D02*
X108233333Y-74366666D01*
X108280952Y-74509523D01*
X108376190Y-74604761D01*
X108519047Y-74652380D01*
X108614285Y-74652380D01*
X107233333Y-74652380D02*
X107804761Y-74652380D01*
X107519047Y-74652380D02*
X107519047Y-73652380D01*
X107614285Y-73795238D01*
X107709523Y-73890476D01*
X107804761Y-73938095D01*
X112833333Y-78252380D02*
X112833333Y-78966666D01*
X112880952Y-79109523D01*
X112976190Y-79204761D01*
X113119047Y-79252380D01*
X113214285Y-79252380D01*
X111928571Y-78252380D02*
X112119047Y-78252380D01*
X112214285Y-78300000D01*
X112261904Y-78347619D01*
X112357142Y-78490476D01*
X112404761Y-78680952D01*
X112404761Y-79061904D01*
X112357142Y-79157142D01*
X112309523Y-79204761D01*
X112214285Y-79252380D01*
X112023809Y-79252380D01*
X111928571Y-79204761D01*
X111880952Y-79157142D01*
X111833333Y-79061904D01*
X111833333Y-78823809D01*
X111880952Y-78728571D01*
X111928571Y-78680952D01*
X112023809Y-78633333D01*
X112214285Y-78633333D01*
X112309523Y-78680952D01*
X112357142Y-78728571D01*
X112404761Y-78823809D01*
X96172605Y-80661904D02*
X96439272Y-80280952D01*
X96629748Y-80661904D02*
X96629748Y-79861904D01*
X96324986Y-79861904D01*
X96248795Y-79900000D01*
X96210700Y-79938095D01*
X96172605Y-80014285D01*
X96172605Y-80128571D01*
X96210700Y-80204761D01*
X96248795Y-80242857D01*
X96324986Y-80280952D01*
X96629748Y-80280952D01*
X95410700Y-80661904D02*
X95867843Y-80661904D01*
X95639272Y-80661904D02*
X95639272Y-79861904D01*
X95715462Y-79976190D01*
X95791652Y-80052380D01*
X95867843Y-80090476D01*
X96172605Y-78423869D02*
X96439272Y-78042917D01*
X96629748Y-78423869D02*
X96629748Y-77623869D01*
X96324986Y-77623869D01*
X96248795Y-77661965D01*
X96210700Y-77700060D01*
X96172605Y-77776250D01*
X96172605Y-77890536D01*
X96210700Y-77966726D01*
X96248795Y-78004822D01*
X96324986Y-78042917D01*
X96629748Y-78042917D01*
X95867843Y-77700060D02*
X95829748Y-77661965D01*
X95753557Y-77623869D01*
X95563081Y-77623869D01*
X95486891Y-77661965D01*
X95448795Y-77700060D01*
X95410700Y-77776250D01*
X95410700Y-77852441D01*
X95448795Y-77966726D01*
X95905938Y-78423869D01*
X95410700Y-78423869D01*
X104761904Y-77509523D02*
X103961904Y-77509523D01*
X103961904Y-77814285D01*
X104000000Y-77890476D01*
X104038095Y-77928571D01*
X104114285Y-77966666D01*
X104228571Y-77966666D01*
X104304761Y-77928571D01*
X104342857Y-77890476D01*
X104380952Y-77814285D01*
X104380952Y-77509523D01*
X104038095Y-78271428D02*
X104000000Y-78309523D01*
X103961904Y-78385714D01*
X103961904Y-78576190D01*
X104000000Y-78652380D01*
X104038095Y-78690476D01*
X104114285Y-78728571D01*
X104190476Y-78728571D01*
X104304761Y-78690476D01*
X104761904Y-78233333D01*
X104761904Y-78728571D01*
X104761904Y-79909523D02*
X103961904Y-79909523D01*
X103961904Y-80214285D01*
X104000000Y-80290476D01*
X104038095Y-80328571D01*
X104114285Y-80366666D01*
X104228571Y-80366666D01*
X104304761Y-80328571D01*
X104342857Y-80290476D01*
X104380952Y-80214285D01*
X104380952Y-79909523D01*
X104761904Y-81128571D02*
X104761904Y-80671428D01*
X104761904Y-80900000D02*
X103961904Y-80900000D01*
X104076190Y-80823809D01*
X104152380Y-80747619D01*
X104190476Y-80671428D01*
M02*
