G04 #@! TF.GenerationSoftware,KiCad,Pcbnew,(5.1.10-1-10_14)*
G04 #@! TF.CreationDate,2021-06-06T18:52:18-07:00*
G04 #@! TF.ProjectId,Soflyria,536f666c-7972-4696-912e-6b696361645f,rev?*
G04 #@! TF.SameCoordinates,Original*
G04 #@! TF.FileFunction,Soldermask,Top*
G04 #@! TF.FilePolarity,Negative*
%FSLAX46Y46*%
G04 Gerber Fmt 4.6, Leading zero omitted, Abs format (unit mm)*
G04 Created by KiCad (PCBNEW (5.1.10-1-10_14)) date 2021-06-06 18:52:18*
%MOMM*%
%LPD*%
G01*
G04 APERTURE LIST*
%ADD10C,0.010000*%
%ADD11C,1.924000*%
%ADD12C,3.400000*%
%ADD13C,4.500000*%
%ADD14C,2.100000*%
%ADD15C,2.300000*%
%ADD16C,4.400000*%
%ADD17C,1.797000*%
%ADD18C,2.400000*%
%ADD19C,5.100000*%
%ADD20C,1.600000*%
%ADD21O,2.900000X2.100000*%
G04 APERTURE END LIST*
D10*
G36*
X200851318Y-120904032D02*
G01*
X200879566Y-120948878D01*
X200910606Y-121018368D01*
X200924278Y-121053363D01*
X200946844Y-121109544D01*
X200967741Y-121155842D01*
X200984739Y-121187691D01*
X200995612Y-121200526D01*
X200996125Y-121200595D01*
X201007513Y-121212147D01*
X201011992Y-121243160D01*
X201012000Y-121244792D01*
X201016997Y-121286612D01*
X201029270Y-121331809D01*
X201031708Y-121338243D01*
X201040080Y-121362436D01*
X201044426Y-121387074D01*
X201044778Y-121418171D01*
X201041165Y-121461743D01*
X201033616Y-121523805D01*
X201032658Y-121531171D01*
X201013898Y-121674841D01*
X201154872Y-121859995D01*
X201199855Y-121919074D01*
X201239325Y-121970909D01*
X201270787Y-122012224D01*
X201291748Y-122039744D01*
X201299674Y-122050143D01*
X201313704Y-122050137D01*
X201345604Y-122043278D01*
X201389384Y-122031427D01*
X201439058Y-122016447D01*
X201488637Y-122000200D01*
X201532132Y-121984549D01*
X201563556Y-121971356D01*
X201575376Y-121964398D01*
X201596102Y-121938792D01*
X201620849Y-121897920D01*
X201645846Y-121849484D01*
X201667324Y-121801187D01*
X201681511Y-121760730D01*
X201685100Y-121740268D01*
X201693261Y-121711887D01*
X201712639Y-121698151D01*
X201735574Y-121703704D01*
X201739610Y-121707230D01*
X201747711Y-121725419D01*
X201738756Y-121746844D01*
X201729490Y-121774125D01*
X201723922Y-121814532D01*
X201723200Y-121834571D01*
X201726946Y-121878386D01*
X201739701Y-121902353D01*
X201763732Y-121906956D01*
X201801311Y-121892678D01*
X201851845Y-121861918D01*
X201896550Y-121832694D01*
X201925006Y-121816692D01*
X201941757Y-121812548D01*
X201951347Y-121818898D01*
X201956832Y-121830396D01*
X201958613Y-121858223D01*
X201939343Y-121872436D01*
X201926717Y-121873700D01*
X201904223Y-121883822D01*
X201876807Y-121909034D01*
X201850696Y-121941604D01*
X201832118Y-121973800D01*
X201827172Y-121997289D01*
X201840575Y-122015955D01*
X201868790Y-122036072D01*
X201903392Y-122053490D01*
X201935955Y-122064061D01*
X201958055Y-122063635D01*
X201959715Y-122062560D01*
X201981588Y-122056743D01*
X202004269Y-122064223D01*
X202015097Y-122080685D01*
X202015105Y-122081433D01*
X202006737Y-122111269D01*
X201985707Y-122121722D01*
X201966950Y-122116311D01*
X201934941Y-122106136D01*
X201894157Y-122101960D01*
X201853043Y-122103474D01*
X201820045Y-122110373D01*
X201803648Y-122122245D01*
X201807824Y-122141525D01*
X201825994Y-122169735D01*
X201852145Y-122200156D01*
X201880265Y-122226069D01*
X201904341Y-122240755D01*
X201910810Y-122242000D01*
X201923501Y-122250785D01*
X201923970Y-122270531D01*
X201914464Y-122291321D01*
X201897228Y-122303239D01*
X201896924Y-122303299D01*
X201874724Y-122297040D01*
X201867287Y-122282805D01*
X201853162Y-122266503D01*
X201821302Y-122244374D01*
X201777773Y-122219464D01*
X201728638Y-122194819D01*
X201679963Y-122173484D01*
X201637813Y-122158507D01*
X201608696Y-122152933D01*
X201585049Y-122154720D01*
X201541811Y-122159741D01*
X201484485Y-122167294D01*
X201418573Y-122176677D01*
X201395794Y-122180069D01*
X201331186Y-122189436D01*
X201276188Y-122196728D01*
X201235344Y-122201395D01*
X201213198Y-122202888D01*
X201210582Y-122202461D01*
X201202850Y-122190453D01*
X201184297Y-122160898D01*
X201157459Y-122117852D01*
X201124868Y-122065373D01*
X201114033Y-122047887D01*
X201080281Y-121994209D01*
X201051348Y-121949739D01*
X201029750Y-121918227D01*
X201018004Y-121903425D01*
X201016718Y-121902847D01*
X201016221Y-121916252D01*
X201017225Y-121951575D01*
X201019569Y-122005393D01*
X201023092Y-122074278D01*
X201027630Y-122154805D01*
X201032195Y-122230310D01*
X201052293Y-122553150D01*
X200924235Y-122798899D01*
X200887146Y-122871453D01*
X200855074Y-122936857D01*
X200829605Y-122991654D01*
X200812321Y-123032389D01*
X200804808Y-123055605D01*
X200804914Y-123059249D01*
X200814650Y-123073371D01*
X200837103Y-123104880D01*
X200870019Y-123150643D01*
X200911142Y-123207531D01*
X200958217Y-123272410D01*
X200982930Y-123306386D01*
X201031738Y-123373707D01*
X201075293Y-123434305D01*
X201111431Y-123485125D01*
X201137987Y-123523114D01*
X201152797Y-123545217D01*
X201155128Y-123549381D01*
X201146186Y-123559580D01*
X201119520Y-123582363D01*
X201078007Y-123615460D01*
X201024525Y-123656601D01*
X200961953Y-123703513D01*
X200929450Y-123727476D01*
X200863158Y-123776368D01*
X200804118Y-123820442D01*
X200755304Y-123857436D01*
X200719686Y-123885088D01*
X200700237Y-123901136D01*
X200697524Y-123904032D01*
X200704771Y-123917292D01*
X200728480Y-123938562D01*
X200762775Y-123963763D01*
X200801777Y-123988821D01*
X200839608Y-124009657D01*
X200865950Y-124020839D01*
X200911836Y-124029922D01*
X200977894Y-124034321D01*
X201043750Y-124034175D01*
X201104907Y-124031721D01*
X201146276Y-124027641D01*
X201173462Y-124020895D01*
X201192070Y-124010443D01*
X201197715Y-124005604D01*
X201218302Y-123989050D01*
X201232568Y-123990003D01*
X201246071Y-124001885D01*
X201260095Y-124025517D01*
X201260380Y-124041726D01*
X201254043Y-124061187D01*
X201253300Y-124065488D01*
X201242231Y-124069205D01*
X201215531Y-124070798D01*
X201214777Y-124070800D01*
X201181477Y-124076577D01*
X201138350Y-124091359D01*
X201112393Y-124103161D01*
X201075523Y-124123540D01*
X201057043Y-124140044D01*
X201051813Y-124158357D01*
X201052490Y-124169379D01*
X201060655Y-124192615D01*
X201082454Y-124214699D01*
X201122752Y-124240414D01*
X201127498Y-124243095D01*
X201170395Y-124265607D01*
X201209172Y-124283330D01*
X201230872Y-124291067D01*
X201261086Y-124307217D01*
X201273480Y-124331960D01*
X201264664Y-124358159D01*
X201239736Y-124373852D01*
X201213588Y-124371340D01*
X201196604Y-124351630D01*
X201196580Y-124351557D01*
X201184439Y-124335989D01*
X201156234Y-124323518D01*
X201107350Y-124312119D01*
X201106189Y-124311899D01*
X201061200Y-124304096D01*
X201034146Y-124302285D01*
X201018149Y-124307023D01*
X201006334Y-124318867D01*
X201005418Y-124320067D01*
X200993412Y-124339540D01*
X200988086Y-124361828D01*
X200988776Y-124394397D01*
X200994529Y-124442609D01*
X201003705Y-124483200D01*
X201018434Y-124503337D01*
X201026307Y-124506700D01*
X201042654Y-124516329D01*
X201041173Y-124537066D01*
X201039220Y-124542693D01*
X201020518Y-124569723D01*
X200996584Y-124577086D01*
X200975108Y-124564570D01*
X200965858Y-124544699D01*
X200955533Y-124512443D01*
X200938996Y-124469388D01*
X200928199Y-124443925D01*
X200906494Y-124402148D01*
X200885400Y-124379869D01*
X200866907Y-124372674D01*
X200848938Y-124371182D01*
X200836424Y-124378440D01*
X200825552Y-124399456D01*
X200812509Y-124439235D01*
X200810077Y-124447305D01*
X200798515Y-124493116D01*
X200792396Y-124532470D01*
X200792781Y-124554780D01*
X200790636Y-124582634D01*
X200772993Y-124599417D01*
X200748441Y-124602110D01*
X200725573Y-124587697D01*
X200720613Y-124580133D01*
X200715358Y-124555782D01*
X200727852Y-124539370D01*
X200736811Y-124528222D01*
X200741885Y-124509795D01*
X200743451Y-124479159D01*
X200741886Y-124431383D01*
X200739369Y-124388811D01*
X200735863Y-124338646D01*
X200731217Y-124298358D01*
X200723348Y-124263756D01*
X200710173Y-124230648D01*
X200689611Y-124194843D01*
X200659578Y-124152149D01*
X200617991Y-124098374D01*
X200562767Y-124029327D01*
X200557478Y-124022744D01*
X200525793Y-123984556D01*
X200501581Y-123955072D01*
X200486060Y-123931175D01*
X200480445Y-123909746D01*
X200485952Y-123887667D01*
X200503798Y-123861818D01*
X200535198Y-123829081D01*
X200581368Y-123786338D01*
X200643525Y-123730471D01*
X200686648Y-123691490D01*
X200862946Y-123531215D01*
X200757883Y-123432707D01*
X200715446Y-123393541D01*
X200679790Y-123361801D01*
X200654922Y-123340976D01*
X200645084Y-123334448D01*
X200635540Y-123344630D01*
X200615898Y-123371920D01*
X200589327Y-123411764D01*
X200567966Y-123445224D01*
X200508908Y-123528294D01*
X200434258Y-123616610D01*
X200350686Y-123703183D01*
X200264860Y-123781026D01*
X200197314Y-123833560D01*
X200127594Y-123877960D01*
X200044176Y-123923371D01*
X199955621Y-123965697D01*
X199870488Y-124000837D01*
X199799150Y-124024214D01*
X199713402Y-124042799D01*
X199616572Y-124056921D01*
X199518518Y-124065588D01*
X199429103Y-124067808D01*
X199385867Y-124065816D01*
X199233972Y-124040813D01*
X199087418Y-123992030D01*
X198948297Y-123920877D01*
X198818702Y-123828765D01*
X198700724Y-123717106D01*
X198596454Y-123587309D01*
X198536483Y-123492950D01*
X198507210Y-123442150D01*
X198542446Y-123486600D01*
X198585444Y-123536400D01*
X198640761Y-123594071D01*
X198702775Y-123654340D01*
X198765862Y-123711931D01*
X198824399Y-123761569D01*
X198872763Y-123797981D01*
X198878400Y-123801721D01*
X199004824Y-123870651D01*
X199137971Y-123918911D01*
X199274051Y-123945852D01*
X199409274Y-123950823D01*
X199539851Y-123933173D01*
X199580955Y-123922369D01*
X199660725Y-123893860D01*
X199750993Y-123853771D01*
X199842584Y-123806592D01*
X199926325Y-123756812D01*
X199946337Y-123743550D01*
X200014796Y-123693689D01*
X200076117Y-123641145D01*
X200133341Y-123582288D01*
X200189512Y-123513490D01*
X200247670Y-123431122D01*
X200310859Y-123331556D01*
X200358154Y-123252344D01*
X200432200Y-123126039D01*
X200312525Y-123014936D01*
X200267749Y-122974694D01*
X200230051Y-122943325D01*
X200202951Y-122923572D01*
X200189967Y-122918175D01*
X200189388Y-122918991D01*
X200186936Y-122936795D01*
X200182714Y-122974592D01*
X200177284Y-123027084D01*
X200171212Y-123088971D01*
X200170338Y-123098129D01*
X200154750Y-123262109D01*
X199950948Y-123065576D01*
X199881935Y-122999500D01*
X199827894Y-122949121D01*
X199785920Y-122912089D01*
X199753107Y-122886058D01*
X199726550Y-122868680D01*
X199703343Y-122857608D01*
X199686751Y-122852132D01*
X199641100Y-122844084D01*
X199584559Y-122840868D01*
X199524141Y-122842064D01*
X199466857Y-122847253D01*
X199419719Y-122856016D01*
X199389737Y-122867934D01*
X199387069Y-122870043D01*
X199366436Y-122882646D01*
X199345959Y-122875093D01*
X199342856Y-122872883D01*
X199325131Y-122848751D01*
X199327941Y-122824377D01*
X199348741Y-122808520D01*
X199362151Y-122806509D01*
X199392008Y-122801155D01*
X199432243Y-122788243D01*
X199474479Y-122771207D01*
X199510340Y-122753477D01*
X199531451Y-122738486D01*
X199532921Y-122736536D01*
X199538294Y-122706468D01*
X199518513Y-122674683D01*
X199473754Y-122641400D01*
X199447154Y-122626828D01*
X199403867Y-122605441D01*
X199367190Y-122588466D01*
X199345125Y-122579602D01*
X199326911Y-122563337D01*
X199324380Y-122536868D01*
X199338140Y-122511239D01*
X199363798Y-122496845D01*
X199384716Y-122505471D01*
X199392285Y-122519935D01*
X199407965Y-122537818D01*
X199444654Y-122554069D01*
X199478866Y-122563859D01*
X199522206Y-122574226D01*
X199548495Y-122577600D01*
X199565190Y-122573658D01*
X199579749Y-122562075D01*
X199582523Y-122559347D01*
X199599271Y-122527710D01*
X199605718Y-122483250D01*
X199602215Y-122436065D01*
X199589112Y-122396249D01*
X199576287Y-122379664D01*
X199554269Y-122350124D01*
X199556407Y-122321306D01*
X199565270Y-122309509D01*
X199587803Y-122300544D01*
X199612280Y-122306461D01*
X199626943Y-122323549D01*
X199627698Y-122329206D01*
X199632561Y-122350947D01*
X199645284Y-122387628D01*
X199662274Y-122429325D01*
X199682313Y-122472297D01*
X199698211Y-122496435D01*
X199714327Y-122506838D01*
X199730115Y-122508700D01*
X199749407Y-122506006D01*
X199763029Y-122494183D01*
X199775163Y-122467615D01*
X199786165Y-122433438D01*
X199797289Y-122388956D01*
X199802745Y-122350878D01*
X199802022Y-122331672D01*
X199804827Y-122304694D01*
X199823511Y-122288385D01*
X199849304Y-122287270D01*
X199867058Y-122298115D01*
X199880503Y-122318616D01*
X199873508Y-122341045D01*
X199871926Y-122343632D01*
X199863985Y-122370301D01*
X199858677Y-122418609D01*
X199856369Y-122484894D01*
X199856300Y-122500131D01*
X199856300Y-122631608D01*
X199954458Y-122767758D01*
X199990263Y-122817889D01*
X200017070Y-122853877D01*
X200036623Y-122874241D01*
X200050662Y-122877498D01*
X200060930Y-122862168D01*
X200069169Y-122826767D01*
X200077120Y-122769814D01*
X200086526Y-122689826D01*
X200091023Y-122651575D01*
X200099427Y-122584901D01*
X200107476Y-122528172D01*
X200114487Y-122485697D01*
X200119776Y-122461783D01*
X200121708Y-122458104D01*
X200133028Y-122466297D01*
X200160170Y-122489038D01*
X200200184Y-122523761D01*
X200250122Y-122567903D01*
X200307035Y-122618897D01*
X200318815Y-122629530D01*
X200376385Y-122681288D01*
X200427192Y-122726453D01*
X200468381Y-122762530D01*
X200497097Y-122787023D01*
X200510485Y-122797436D01*
X200511083Y-122797601D01*
X200511331Y-122784505D01*
X200510091Y-122750703D01*
X200507581Y-122700832D01*
X200504018Y-122639527D01*
X200502589Y-122616650D01*
X200499029Y-122548195D01*
X200497622Y-122483160D01*
X200498542Y-122415824D01*
X200501965Y-122340471D01*
X200508064Y-122251382D01*
X200517016Y-122142839D01*
X200517101Y-122141862D01*
X200524220Y-122057940D01*
X200530255Y-121982878D01*
X200534948Y-121920233D01*
X200538040Y-121873560D01*
X200539273Y-121846417D01*
X200538988Y-121840954D01*
X200527089Y-121845274D01*
X200497466Y-121859906D01*
X200454473Y-121882606D01*
X200402465Y-121911130D01*
X200397917Y-121913667D01*
X200345449Y-121942523D01*
X200301725Y-121965695D01*
X200271069Y-121980956D01*
X200257803Y-121986078D01*
X200257616Y-121985975D01*
X200237327Y-121960222D01*
X200205400Y-121922131D01*
X200165149Y-121875416D01*
X200119886Y-121823791D01*
X200072926Y-121770970D01*
X200027580Y-121720667D01*
X199987163Y-121676596D01*
X199954988Y-121642470D01*
X199934367Y-121622004D01*
X199929372Y-121618026D01*
X199886066Y-121598180D01*
X199835672Y-121580003D01*
X199785080Y-121565384D01*
X199741179Y-121556210D01*
X199710857Y-121554370D01*
X199703858Y-121556222D01*
X199678879Y-121558383D01*
X199660010Y-121543098D01*
X199655677Y-121518218D01*
X199657276Y-121512834D01*
X199666239Y-121503451D01*
X199687184Y-121499194D01*
X199725167Y-121499504D01*
X199758374Y-121501660D01*
X199806577Y-121504864D01*
X199835295Y-121504548D01*
X199850347Y-121499407D01*
X199857553Y-121488136D01*
X199860294Y-121478797D01*
X199861213Y-121450641D01*
X199847785Y-121419205D01*
X199817631Y-121380287D01*
X199785306Y-121346352D01*
X199756490Y-121310940D01*
X199747746Y-121283914D01*
X199759240Y-121267707D01*
X199779701Y-121264100D01*
X199801406Y-121272952D01*
X199805522Y-121286325D01*
X199816272Y-121307368D01*
X199843191Y-121331479D01*
X199878337Y-121353735D01*
X199913765Y-121369215D01*
X199941536Y-121373000D01*
X199944327Y-121372326D01*
X199964459Y-121354677D01*
X199981788Y-121321074D01*
X199993375Y-121280960D01*
X199996278Y-121243780D01*
X199990775Y-121223141D01*
X199984760Y-121198657D01*
X199992289Y-121186530D01*
X200015176Y-121176958D01*
X200035915Y-121186782D01*
X200045483Y-121210944D01*
X200045337Y-121216273D01*
X200044253Y-121245843D01*
X200044328Y-121288178D01*
X200044824Y-121310243D01*
X200047924Y-121350675D01*
X200055669Y-121372301D01*
X200070455Y-121381617D01*
X200071233Y-121381826D01*
X200093788Y-121376149D01*
X200121993Y-121353866D01*
X200150127Y-121321085D01*
X200172466Y-121283913D01*
X200179435Y-121266350D01*
X200194931Y-121243779D01*
X200216036Y-121241134D01*
X200239453Y-121252634D01*
X200247321Y-121272096D01*
X200237543Y-121290056D01*
X200227930Y-121294792D01*
X200213385Y-121309956D01*
X200195517Y-121343496D01*
X200176629Y-121389017D01*
X200159025Y-121440127D01*
X200145009Y-121490432D01*
X200136885Y-121533538D01*
X200135752Y-121550606D01*
X200143653Y-121582520D01*
X200166229Y-121630604D01*
X200201888Y-121691517D01*
X200206230Y-121698371D01*
X200276655Y-121808792D01*
X200412552Y-121737703D01*
X200466038Y-121709472D01*
X200511262Y-121685129D01*
X200543464Y-121667270D01*
X200557881Y-121658489D01*
X200557889Y-121658482D01*
X200560779Y-121643248D01*
X200561334Y-121608246D01*
X200559605Y-121558997D01*
X200556511Y-121511748D01*
X200552100Y-121447974D01*
X200550905Y-121403072D01*
X200553347Y-121370671D01*
X200559844Y-121344398D01*
X200569018Y-121321798D01*
X200583996Y-121279579D01*
X200592144Y-121238687D01*
X200592621Y-121230106D01*
X200598970Y-121196906D01*
X200612930Y-121185656D01*
X200626269Y-121172905D01*
X200646877Y-121141243D01*
X200672088Y-121095136D01*
X200695016Y-121048200D01*
X200733707Y-120970369D01*
X200767056Y-120917000D01*
X200796690Y-120888130D01*
X200824235Y-120883795D01*
X200851318Y-120904032D01*
G37*
X200851318Y-120904032D02*
X200879566Y-120948878D01*
X200910606Y-121018368D01*
X200924278Y-121053363D01*
X200946844Y-121109544D01*
X200967741Y-121155842D01*
X200984739Y-121187691D01*
X200995612Y-121200526D01*
X200996125Y-121200595D01*
X201007513Y-121212147D01*
X201011992Y-121243160D01*
X201012000Y-121244792D01*
X201016997Y-121286612D01*
X201029270Y-121331809D01*
X201031708Y-121338243D01*
X201040080Y-121362436D01*
X201044426Y-121387074D01*
X201044778Y-121418171D01*
X201041165Y-121461743D01*
X201033616Y-121523805D01*
X201032658Y-121531171D01*
X201013898Y-121674841D01*
X201154872Y-121859995D01*
X201199855Y-121919074D01*
X201239325Y-121970909D01*
X201270787Y-122012224D01*
X201291748Y-122039744D01*
X201299674Y-122050143D01*
X201313704Y-122050137D01*
X201345604Y-122043278D01*
X201389384Y-122031427D01*
X201439058Y-122016447D01*
X201488637Y-122000200D01*
X201532132Y-121984549D01*
X201563556Y-121971356D01*
X201575376Y-121964398D01*
X201596102Y-121938792D01*
X201620849Y-121897920D01*
X201645846Y-121849484D01*
X201667324Y-121801187D01*
X201681511Y-121760730D01*
X201685100Y-121740268D01*
X201693261Y-121711887D01*
X201712639Y-121698151D01*
X201735574Y-121703704D01*
X201739610Y-121707230D01*
X201747711Y-121725419D01*
X201738756Y-121746844D01*
X201729490Y-121774125D01*
X201723922Y-121814532D01*
X201723200Y-121834571D01*
X201726946Y-121878386D01*
X201739701Y-121902353D01*
X201763732Y-121906956D01*
X201801311Y-121892678D01*
X201851845Y-121861918D01*
X201896550Y-121832694D01*
X201925006Y-121816692D01*
X201941757Y-121812548D01*
X201951347Y-121818898D01*
X201956832Y-121830396D01*
X201958613Y-121858223D01*
X201939343Y-121872436D01*
X201926717Y-121873700D01*
X201904223Y-121883822D01*
X201876807Y-121909034D01*
X201850696Y-121941604D01*
X201832118Y-121973800D01*
X201827172Y-121997289D01*
X201840575Y-122015955D01*
X201868790Y-122036072D01*
X201903392Y-122053490D01*
X201935955Y-122064061D01*
X201958055Y-122063635D01*
X201959715Y-122062560D01*
X201981588Y-122056743D01*
X202004269Y-122064223D01*
X202015097Y-122080685D01*
X202015105Y-122081433D01*
X202006737Y-122111269D01*
X201985707Y-122121722D01*
X201966950Y-122116311D01*
X201934941Y-122106136D01*
X201894157Y-122101960D01*
X201853043Y-122103474D01*
X201820045Y-122110373D01*
X201803648Y-122122245D01*
X201807824Y-122141525D01*
X201825994Y-122169735D01*
X201852145Y-122200156D01*
X201880265Y-122226069D01*
X201904341Y-122240755D01*
X201910810Y-122242000D01*
X201923501Y-122250785D01*
X201923970Y-122270531D01*
X201914464Y-122291321D01*
X201897228Y-122303239D01*
X201896924Y-122303299D01*
X201874724Y-122297040D01*
X201867287Y-122282805D01*
X201853162Y-122266503D01*
X201821302Y-122244374D01*
X201777773Y-122219464D01*
X201728638Y-122194819D01*
X201679963Y-122173484D01*
X201637813Y-122158507D01*
X201608696Y-122152933D01*
X201585049Y-122154720D01*
X201541811Y-122159741D01*
X201484485Y-122167294D01*
X201418573Y-122176677D01*
X201395794Y-122180069D01*
X201331186Y-122189436D01*
X201276188Y-122196728D01*
X201235344Y-122201395D01*
X201213198Y-122202888D01*
X201210582Y-122202461D01*
X201202850Y-122190453D01*
X201184297Y-122160898D01*
X201157459Y-122117852D01*
X201124868Y-122065373D01*
X201114033Y-122047887D01*
X201080281Y-121994209D01*
X201051348Y-121949739D01*
X201029750Y-121918227D01*
X201018004Y-121903425D01*
X201016718Y-121902847D01*
X201016221Y-121916252D01*
X201017225Y-121951575D01*
X201019569Y-122005393D01*
X201023092Y-122074278D01*
X201027630Y-122154805D01*
X201032195Y-122230310D01*
X201052293Y-122553150D01*
X200924235Y-122798899D01*
X200887146Y-122871453D01*
X200855074Y-122936857D01*
X200829605Y-122991654D01*
X200812321Y-123032389D01*
X200804808Y-123055605D01*
X200804914Y-123059249D01*
X200814650Y-123073371D01*
X200837103Y-123104880D01*
X200870019Y-123150643D01*
X200911142Y-123207531D01*
X200958217Y-123272410D01*
X200982930Y-123306386D01*
X201031738Y-123373707D01*
X201075293Y-123434305D01*
X201111431Y-123485125D01*
X201137987Y-123523114D01*
X201152797Y-123545217D01*
X201155128Y-123549381D01*
X201146186Y-123559580D01*
X201119520Y-123582363D01*
X201078007Y-123615460D01*
X201024525Y-123656601D01*
X200961953Y-123703513D01*
X200929450Y-123727476D01*
X200863158Y-123776368D01*
X200804118Y-123820442D01*
X200755304Y-123857436D01*
X200719686Y-123885088D01*
X200700237Y-123901136D01*
X200697524Y-123904032D01*
X200704771Y-123917292D01*
X200728480Y-123938562D01*
X200762775Y-123963763D01*
X200801777Y-123988821D01*
X200839608Y-124009657D01*
X200865950Y-124020839D01*
X200911836Y-124029922D01*
X200977894Y-124034321D01*
X201043750Y-124034175D01*
X201104907Y-124031721D01*
X201146276Y-124027641D01*
X201173462Y-124020895D01*
X201192070Y-124010443D01*
X201197715Y-124005604D01*
X201218302Y-123989050D01*
X201232568Y-123990003D01*
X201246071Y-124001885D01*
X201260095Y-124025517D01*
X201260380Y-124041726D01*
X201254043Y-124061187D01*
X201253300Y-124065488D01*
X201242231Y-124069205D01*
X201215531Y-124070798D01*
X201214777Y-124070800D01*
X201181477Y-124076577D01*
X201138350Y-124091359D01*
X201112393Y-124103161D01*
X201075523Y-124123540D01*
X201057043Y-124140044D01*
X201051813Y-124158357D01*
X201052490Y-124169379D01*
X201060655Y-124192615D01*
X201082454Y-124214699D01*
X201122752Y-124240414D01*
X201127498Y-124243095D01*
X201170395Y-124265607D01*
X201209172Y-124283330D01*
X201230872Y-124291067D01*
X201261086Y-124307217D01*
X201273480Y-124331960D01*
X201264664Y-124358159D01*
X201239736Y-124373852D01*
X201213588Y-124371340D01*
X201196604Y-124351630D01*
X201196580Y-124351557D01*
X201184439Y-124335989D01*
X201156234Y-124323518D01*
X201107350Y-124312119D01*
X201106189Y-124311899D01*
X201061200Y-124304096D01*
X201034146Y-124302285D01*
X201018149Y-124307023D01*
X201006334Y-124318867D01*
X201005418Y-124320067D01*
X200993412Y-124339540D01*
X200988086Y-124361828D01*
X200988776Y-124394397D01*
X200994529Y-124442609D01*
X201003705Y-124483200D01*
X201018434Y-124503337D01*
X201026307Y-124506700D01*
X201042654Y-124516329D01*
X201041173Y-124537066D01*
X201039220Y-124542693D01*
X201020518Y-124569723D01*
X200996584Y-124577086D01*
X200975108Y-124564570D01*
X200965858Y-124544699D01*
X200955533Y-124512443D01*
X200938996Y-124469388D01*
X200928199Y-124443925D01*
X200906494Y-124402148D01*
X200885400Y-124379869D01*
X200866907Y-124372674D01*
X200848938Y-124371182D01*
X200836424Y-124378440D01*
X200825552Y-124399456D01*
X200812509Y-124439235D01*
X200810077Y-124447305D01*
X200798515Y-124493116D01*
X200792396Y-124532470D01*
X200792781Y-124554780D01*
X200790636Y-124582634D01*
X200772993Y-124599417D01*
X200748441Y-124602110D01*
X200725573Y-124587697D01*
X200720613Y-124580133D01*
X200715358Y-124555782D01*
X200727852Y-124539370D01*
X200736811Y-124528222D01*
X200741885Y-124509795D01*
X200743451Y-124479159D01*
X200741886Y-124431383D01*
X200739369Y-124388811D01*
X200735863Y-124338646D01*
X200731217Y-124298358D01*
X200723348Y-124263756D01*
X200710173Y-124230648D01*
X200689611Y-124194843D01*
X200659578Y-124152149D01*
X200617991Y-124098374D01*
X200562767Y-124029327D01*
X200557478Y-124022744D01*
X200525793Y-123984556D01*
X200501581Y-123955072D01*
X200486060Y-123931175D01*
X200480445Y-123909746D01*
X200485952Y-123887667D01*
X200503798Y-123861818D01*
X200535198Y-123829081D01*
X200581368Y-123786338D01*
X200643525Y-123730471D01*
X200686648Y-123691490D01*
X200862946Y-123531215D01*
X200757883Y-123432707D01*
X200715446Y-123393541D01*
X200679790Y-123361801D01*
X200654922Y-123340976D01*
X200645084Y-123334448D01*
X200635540Y-123344630D01*
X200615898Y-123371920D01*
X200589327Y-123411764D01*
X200567966Y-123445224D01*
X200508908Y-123528294D01*
X200434258Y-123616610D01*
X200350686Y-123703183D01*
X200264860Y-123781026D01*
X200197314Y-123833560D01*
X200127594Y-123877960D01*
X200044176Y-123923371D01*
X199955621Y-123965697D01*
X199870488Y-124000837D01*
X199799150Y-124024214D01*
X199713402Y-124042799D01*
X199616572Y-124056921D01*
X199518518Y-124065588D01*
X199429103Y-124067808D01*
X199385867Y-124065816D01*
X199233972Y-124040813D01*
X199087418Y-123992030D01*
X198948297Y-123920877D01*
X198818702Y-123828765D01*
X198700724Y-123717106D01*
X198596454Y-123587309D01*
X198536483Y-123492950D01*
X198507210Y-123442150D01*
X198542446Y-123486600D01*
X198585444Y-123536400D01*
X198640761Y-123594071D01*
X198702775Y-123654340D01*
X198765862Y-123711931D01*
X198824399Y-123761569D01*
X198872763Y-123797981D01*
X198878400Y-123801721D01*
X199004824Y-123870651D01*
X199137971Y-123918911D01*
X199274051Y-123945852D01*
X199409274Y-123950823D01*
X199539851Y-123933173D01*
X199580955Y-123922369D01*
X199660725Y-123893860D01*
X199750993Y-123853771D01*
X199842584Y-123806592D01*
X199926325Y-123756812D01*
X199946337Y-123743550D01*
X200014796Y-123693689D01*
X200076117Y-123641145D01*
X200133341Y-123582288D01*
X200189512Y-123513490D01*
X200247670Y-123431122D01*
X200310859Y-123331556D01*
X200358154Y-123252344D01*
X200432200Y-123126039D01*
X200312525Y-123014936D01*
X200267749Y-122974694D01*
X200230051Y-122943325D01*
X200202951Y-122923572D01*
X200189967Y-122918175D01*
X200189388Y-122918991D01*
X200186936Y-122936795D01*
X200182714Y-122974592D01*
X200177284Y-123027084D01*
X200171212Y-123088971D01*
X200170338Y-123098129D01*
X200154750Y-123262109D01*
X199950948Y-123065576D01*
X199881935Y-122999500D01*
X199827894Y-122949121D01*
X199785920Y-122912089D01*
X199753107Y-122886058D01*
X199726550Y-122868680D01*
X199703343Y-122857608D01*
X199686751Y-122852132D01*
X199641100Y-122844084D01*
X199584559Y-122840868D01*
X199524141Y-122842064D01*
X199466857Y-122847253D01*
X199419719Y-122856016D01*
X199389737Y-122867934D01*
X199387069Y-122870043D01*
X199366436Y-122882646D01*
X199345959Y-122875093D01*
X199342856Y-122872883D01*
X199325131Y-122848751D01*
X199327941Y-122824377D01*
X199348741Y-122808520D01*
X199362151Y-122806509D01*
X199392008Y-122801155D01*
X199432243Y-122788243D01*
X199474479Y-122771207D01*
X199510340Y-122753477D01*
X199531451Y-122738486D01*
X199532921Y-122736536D01*
X199538294Y-122706468D01*
X199518513Y-122674683D01*
X199473754Y-122641400D01*
X199447154Y-122626828D01*
X199403867Y-122605441D01*
X199367190Y-122588466D01*
X199345125Y-122579602D01*
X199326911Y-122563337D01*
X199324380Y-122536868D01*
X199338140Y-122511239D01*
X199363798Y-122496845D01*
X199384716Y-122505471D01*
X199392285Y-122519935D01*
X199407965Y-122537818D01*
X199444654Y-122554069D01*
X199478866Y-122563859D01*
X199522206Y-122574226D01*
X199548495Y-122577600D01*
X199565190Y-122573658D01*
X199579749Y-122562075D01*
X199582523Y-122559347D01*
X199599271Y-122527710D01*
X199605718Y-122483250D01*
X199602215Y-122436065D01*
X199589112Y-122396249D01*
X199576287Y-122379664D01*
X199554269Y-122350124D01*
X199556407Y-122321306D01*
X199565270Y-122309509D01*
X199587803Y-122300544D01*
X199612280Y-122306461D01*
X199626943Y-122323549D01*
X199627698Y-122329206D01*
X199632561Y-122350947D01*
X199645284Y-122387628D01*
X199662274Y-122429325D01*
X199682313Y-122472297D01*
X199698211Y-122496435D01*
X199714327Y-122506838D01*
X199730115Y-122508700D01*
X199749407Y-122506006D01*
X199763029Y-122494183D01*
X199775163Y-122467615D01*
X199786165Y-122433438D01*
X199797289Y-122388956D01*
X199802745Y-122350878D01*
X199802022Y-122331672D01*
X199804827Y-122304694D01*
X199823511Y-122288385D01*
X199849304Y-122287270D01*
X199867058Y-122298115D01*
X199880503Y-122318616D01*
X199873508Y-122341045D01*
X199871926Y-122343632D01*
X199863985Y-122370301D01*
X199858677Y-122418609D01*
X199856369Y-122484894D01*
X199856300Y-122500131D01*
X199856300Y-122631608D01*
X199954458Y-122767758D01*
X199990263Y-122817889D01*
X200017070Y-122853877D01*
X200036623Y-122874241D01*
X200050662Y-122877498D01*
X200060930Y-122862168D01*
X200069169Y-122826767D01*
X200077120Y-122769814D01*
X200086526Y-122689826D01*
X200091023Y-122651575D01*
X200099427Y-122584901D01*
X200107476Y-122528172D01*
X200114487Y-122485697D01*
X200119776Y-122461783D01*
X200121708Y-122458104D01*
X200133028Y-122466297D01*
X200160170Y-122489038D01*
X200200184Y-122523761D01*
X200250122Y-122567903D01*
X200307035Y-122618897D01*
X200318815Y-122629530D01*
X200376385Y-122681288D01*
X200427192Y-122726453D01*
X200468381Y-122762530D01*
X200497097Y-122787023D01*
X200510485Y-122797436D01*
X200511083Y-122797601D01*
X200511331Y-122784505D01*
X200510091Y-122750703D01*
X200507581Y-122700832D01*
X200504018Y-122639527D01*
X200502589Y-122616650D01*
X200499029Y-122548195D01*
X200497622Y-122483160D01*
X200498542Y-122415824D01*
X200501965Y-122340471D01*
X200508064Y-122251382D01*
X200517016Y-122142839D01*
X200517101Y-122141862D01*
X200524220Y-122057940D01*
X200530255Y-121982878D01*
X200534948Y-121920233D01*
X200538040Y-121873560D01*
X200539273Y-121846417D01*
X200538988Y-121840954D01*
X200527089Y-121845274D01*
X200497466Y-121859906D01*
X200454473Y-121882606D01*
X200402465Y-121911130D01*
X200397917Y-121913667D01*
X200345449Y-121942523D01*
X200301725Y-121965695D01*
X200271069Y-121980956D01*
X200257803Y-121986078D01*
X200257616Y-121985975D01*
X200237327Y-121960222D01*
X200205400Y-121922131D01*
X200165149Y-121875416D01*
X200119886Y-121823791D01*
X200072926Y-121770970D01*
X200027580Y-121720667D01*
X199987163Y-121676596D01*
X199954988Y-121642470D01*
X199934367Y-121622004D01*
X199929372Y-121618026D01*
X199886066Y-121598180D01*
X199835672Y-121580003D01*
X199785080Y-121565384D01*
X199741179Y-121556210D01*
X199710857Y-121554370D01*
X199703858Y-121556222D01*
X199678879Y-121558383D01*
X199660010Y-121543098D01*
X199655677Y-121518218D01*
X199657276Y-121512834D01*
X199666239Y-121503451D01*
X199687184Y-121499194D01*
X199725167Y-121499504D01*
X199758374Y-121501660D01*
X199806577Y-121504864D01*
X199835295Y-121504548D01*
X199850347Y-121499407D01*
X199857553Y-121488136D01*
X199860294Y-121478797D01*
X199861213Y-121450641D01*
X199847785Y-121419205D01*
X199817631Y-121380287D01*
X199785306Y-121346352D01*
X199756490Y-121310940D01*
X199747746Y-121283914D01*
X199759240Y-121267707D01*
X199779701Y-121264100D01*
X199801406Y-121272952D01*
X199805522Y-121286325D01*
X199816272Y-121307368D01*
X199843191Y-121331479D01*
X199878337Y-121353735D01*
X199913765Y-121369215D01*
X199941536Y-121373000D01*
X199944327Y-121372326D01*
X199964459Y-121354677D01*
X199981788Y-121321074D01*
X199993375Y-121280960D01*
X199996278Y-121243780D01*
X199990775Y-121223141D01*
X199984760Y-121198657D01*
X199992289Y-121186530D01*
X200015176Y-121176958D01*
X200035915Y-121186782D01*
X200045483Y-121210944D01*
X200045337Y-121216273D01*
X200044253Y-121245843D01*
X200044328Y-121288178D01*
X200044824Y-121310243D01*
X200047924Y-121350675D01*
X200055669Y-121372301D01*
X200070455Y-121381617D01*
X200071233Y-121381826D01*
X200093788Y-121376149D01*
X200121993Y-121353866D01*
X200150127Y-121321085D01*
X200172466Y-121283913D01*
X200179435Y-121266350D01*
X200194931Y-121243779D01*
X200216036Y-121241134D01*
X200239453Y-121252634D01*
X200247321Y-121272096D01*
X200237543Y-121290056D01*
X200227930Y-121294792D01*
X200213385Y-121309956D01*
X200195517Y-121343496D01*
X200176629Y-121389017D01*
X200159025Y-121440127D01*
X200145009Y-121490432D01*
X200136885Y-121533538D01*
X200135752Y-121550606D01*
X200143653Y-121582520D01*
X200166229Y-121630604D01*
X200201888Y-121691517D01*
X200206230Y-121698371D01*
X200276655Y-121808792D01*
X200412552Y-121737703D01*
X200466038Y-121709472D01*
X200511262Y-121685129D01*
X200543464Y-121667270D01*
X200557881Y-121658489D01*
X200557889Y-121658482D01*
X200560779Y-121643248D01*
X200561334Y-121608246D01*
X200559605Y-121558997D01*
X200556511Y-121511748D01*
X200552100Y-121447974D01*
X200550905Y-121403072D01*
X200553347Y-121370671D01*
X200559844Y-121344398D01*
X200569018Y-121321798D01*
X200583996Y-121279579D01*
X200592144Y-121238687D01*
X200592621Y-121230106D01*
X200598970Y-121196906D01*
X200612930Y-121185656D01*
X200626269Y-121172905D01*
X200646877Y-121141243D01*
X200672088Y-121095136D01*
X200695016Y-121048200D01*
X200733707Y-120970369D01*
X200767056Y-120917000D01*
X200796690Y-120888130D01*
X200824235Y-120883795D01*
X200851318Y-120904032D01*
G36*
G01*
X105450000Y-125505000D02*
X105450000Y-124505000D01*
G75*
G02*
X105650000Y-124305000I200000J0D01*
G01*
X107650000Y-124305000D01*
G75*
G02*
X107850000Y-124505000I0J-200000D01*
G01*
X107850000Y-125505000D01*
G75*
G02*
X107650000Y-125705000I-200000J0D01*
G01*
X105650000Y-125705000D01*
G75*
G02*
X105450000Y-125505000I0J200000D01*
G01*
G37*
G36*
G01*
X105450000Y-123755000D02*
X105450000Y-122755000D01*
G75*
G02*
X105650000Y-122555000I200000J0D01*
G01*
X107650000Y-122555000D01*
G75*
G02*
X107850000Y-122755000I0J-200000D01*
G01*
X107850000Y-123755000D01*
G75*
G02*
X107650000Y-123955000I-200000J0D01*
G01*
X105650000Y-123955000D01*
G75*
G02*
X105450000Y-123755000I0J200000D01*
G01*
G37*
G36*
G01*
X109850000Y-125505000D02*
X109850000Y-124505000D01*
G75*
G02*
X110050000Y-124305000I200000J0D01*
G01*
X112050000Y-124305000D01*
G75*
G02*
X112250000Y-124505000I0J-200000D01*
G01*
X112250000Y-125505000D01*
G75*
G02*
X112050000Y-125705000I-200000J0D01*
G01*
X110050000Y-125705000D01*
G75*
G02*
X109850000Y-125505000I0J200000D01*
G01*
G37*
G36*
G01*
X109850000Y-123755000D02*
X109850000Y-122755000D01*
G75*
G02*
X110050000Y-122555000I200000J0D01*
G01*
X112050000Y-122555000D01*
G75*
G02*
X112250000Y-122755000I0J-200000D01*
G01*
X112250000Y-123755000D01*
G75*
G02*
X112050000Y-123955000I-200000J0D01*
G01*
X110050000Y-123955000D01*
G75*
G02*
X109850000Y-123755000I0J200000D01*
G01*
G37*
G36*
G01*
X123900000Y-58125000D02*
X123900000Y-59125000D01*
G75*
G02*
X123700000Y-59325000I-200000J0D01*
G01*
X121700000Y-59325000D01*
G75*
G02*
X121500000Y-59125000I0J200000D01*
G01*
X121500000Y-58125000D01*
G75*
G02*
X121700000Y-57925000I200000J0D01*
G01*
X123700000Y-57925000D01*
G75*
G02*
X123900000Y-58125000I0J-200000D01*
G01*
G37*
G36*
G01*
X123900000Y-59875000D02*
X123900000Y-60875000D01*
G75*
G02*
X123700000Y-61075000I-200000J0D01*
G01*
X121700000Y-61075000D01*
G75*
G02*
X121500000Y-60875000I0J200000D01*
G01*
X121500000Y-59875000D01*
G75*
G02*
X121700000Y-59675000I200000J0D01*
G01*
X123700000Y-59675000D01*
G75*
G02*
X123900000Y-59875000I0J-200000D01*
G01*
G37*
G36*
G01*
X119500000Y-58125000D02*
X119500000Y-59125000D01*
G75*
G02*
X119300000Y-59325000I-200000J0D01*
G01*
X117300000Y-59325000D01*
G75*
G02*
X117100000Y-59125000I0J200000D01*
G01*
X117100000Y-58125000D01*
G75*
G02*
X117300000Y-57925000I200000J0D01*
G01*
X119300000Y-57925000D01*
G75*
G02*
X119500000Y-58125000I0J-200000D01*
G01*
G37*
G36*
G01*
X119500000Y-59875000D02*
X119500000Y-60875000D01*
G75*
G02*
X119300000Y-61075000I-200000J0D01*
G01*
X117300000Y-61075000D01*
G75*
G02*
X117100000Y-60875000I0J200000D01*
G01*
X117100000Y-59875000D01*
G75*
G02*
X117300000Y-59675000I200000J0D01*
G01*
X119300000Y-59675000D01*
G75*
G02*
X119500000Y-59875000I0J-200000D01*
G01*
G37*
G36*
G01*
X155100000Y-55165000D02*
X155100000Y-54165000D01*
G75*
G02*
X155300000Y-53965000I200000J0D01*
G01*
X157300000Y-53965000D01*
G75*
G02*
X157500000Y-54165000I0J-200000D01*
G01*
X157500000Y-55165000D01*
G75*
G02*
X157300000Y-55365000I-200000J0D01*
G01*
X155300000Y-55365000D01*
G75*
G02*
X155100000Y-55165000I0J200000D01*
G01*
G37*
G36*
G01*
X155100000Y-53415000D02*
X155100000Y-52415000D01*
G75*
G02*
X155300000Y-52215000I200000J0D01*
G01*
X157300000Y-52215000D01*
G75*
G02*
X157500000Y-52415000I0J-200000D01*
G01*
X157500000Y-53415000D01*
G75*
G02*
X157300000Y-53615000I-200000J0D01*
G01*
X155300000Y-53615000D01*
G75*
G02*
X155100000Y-53415000I0J200000D01*
G01*
G37*
G36*
G01*
X159500000Y-55165000D02*
X159500000Y-54165000D01*
G75*
G02*
X159700000Y-53965000I200000J0D01*
G01*
X161700000Y-53965000D01*
G75*
G02*
X161900000Y-54165000I0J-200000D01*
G01*
X161900000Y-55165000D01*
G75*
G02*
X161700000Y-55365000I-200000J0D01*
G01*
X159700000Y-55365000D01*
G75*
G02*
X159500000Y-55165000I0J200000D01*
G01*
G37*
G36*
G01*
X159500000Y-53415000D02*
X159500000Y-52415000D01*
G75*
G02*
X159700000Y-52215000I200000J0D01*
G01*
X161700000Y-52215000D01*
G75*
G02*
X161900000Y-52415000I0J-200000D01*
G01*
X161900000Y-53415000D01*
G75*
G02*
X161700000Y-53615000I-200000J0D01*
G01*
X159700000Y-53615000D01*
G75*
G02*
X159500000Y-53415000I0J200000D01*
G01*
G37*
G36*
G01*
X200900000Y-59875000D02*
X200900000Y-60875000D01*
G75*
G02*
X200700000Y-61075000I-200000J0D01*
G01*
X198700000Y-61075000D01*
G75*
G02*
X198500000Y-60875000I0J200000D01*
G01*
X198500000Y-59875000D01*
G75*
G02*
X198700000Y-59675000I200000J0D01*
G01*
X200700000Y-59675000D01*
G75*
G02*
X200900000Y-59875000I0J-200000D01*
G01*
G37*
G36*
G01*
X200900000Y-61625000D02*
X200900000Y-62625000D01*
G75*
G02*
X200700000Y-62825000I-200000J0D01*
G01*
X198700000Y-62825000D01*
G75*
G02*
X198500000Y-62625000I0J200000D01*
G01*
X198500000Y-61625000D01*
G75*
G02*
X198700000Y-61425000I200000J0D01*
G01*
X200700000Y-61425000D01*
G75*
G02*
X200900000Y-61625000I0J-200000D01*
G01*
G37*
G36*
G01*
X196500000Y-59875000D02*
X196500000Y-60875000D01*
G75*
G02*
X196300000Y-61075000I-200000J0D01*
G01*
X194300000Y-61075000D01*
G75*
G02*
X194100000Y-60875000I0J200000D01*
G01*
X194100000Y-59875000D01*
G75*
G02*
X194300000Y-59675000I200000J0D01*
G01*
X196300000Y-59675000D01*
G75*
G02*
X196500000Y-59875000I0J-200000D01*
G01*
G37*
G36*
G01*
X196500000Y-61625000D02*
X196500000Y-62625000D01*
G75*
G02*
X196300000Y-62825000I-200000J0D01*
G01*
X194300000Y-62825000D01*
G75*
G02*
X194100000Y-62625000I0J200000D01*
G01*
X194100000Y-61625000D01*
G75*
G02*
X194300000Y-61425000I200000J0D01*
G01*
X196300000Y-61425000D01*
G75*
G02*
X196500000Y-61625000I0J-200000D01*
G01*
G37*
G36*
G01*
X145683600Y-119637600D02*
X145683600Y-118637600D01*
G75*
G02*
X145883600Y-118437600I200000J0D01*
G01*
X147883600Y-118437600D01*
G75*
G02*
X148083600Y-118637600I0J-200000D01*
G01*
X148083600Y-119637600D01*
G75*
G02*
X147883600Y-119837600I-200000J0D01*
G01*
X145883600Y-119837600D01*
G75*
G02*
X145683600Y-119637600I0J200000D01*
G01*
G37*
G36*
G01*
X145683600Y-117887600D02*
X145683600Y-116887600D01*
G75*
G02*
X145883600Y-116687600I200000J0D01*
G01*
X147883600Y-116687600D01*
G75*
G02*
X148083600Y-116887600I0J-200000D01*
G01*
X148083600Y-117887600D01*
G75*
G02*
X147883600Y-118087600I-200000J0D01*
G01*
X145883600Y-118087600D01*
G75*
G02*
X145683600Y-117887600I0J200000D01*
G01*
G37*
G36*
G01*
X150083600Y-119637600D02*
X150083600Y-118637600D01*
G75*
G02*
X150283600Y-118437600I200000J0D01*
G01*
X152283600Y-118437600D01*
G75*
G02*
X152483600Y-118637600I0J-200000D01*
G01*
X152483600Y-119637600D01*
G75*
G02*
X152283600Y-119837600I-200000J0D01*
G01*
X150283600Y-119837600D01*
G75*
G02*
X150083600Y-119637600I0J200000D01*
G01*
G37*
G36*
G01*
X150083600Y-117887600D02*
X150083600Y-116887600D01*
G75*
G02*
X150283600Y-116687600I200000J0D01*
G01*
X152283600Y-116687600D01*
G75*
G02*
X152483600Y-116887600I0J-200000D01*
G01*
X152483600Y-117887600D01*
G75*
G02*
X152283600Y-118087600I-200000J0D01*
G01*
X150283600Y-118087600D01*
G75*
G02*
X150083600Y-117887600I0J200000D01*
G01*
G37*
G36*
G01*
X181650000Y-121695000D02*
X181650000Y-120695000D01*
G75*
G02*
X181850000Y-120495000I200000J0D01*
G01*
X183850000Y-120495000D01*
G75*
G02*
X184050000Y-120695000I0J-200000D01*
G01*
X184050000Y-121695000D01*
G75*
G02*
X183850000Y-121895000I-200000J0D01*
G01*
X181850000Y-121895000D01*
G75*
G02*
X181650000Y-121695000I0J200000D01*
G01*
G37*
G36*
G01*
X181650000Y-119945000D02*
X181650000Y-118945000D01*
G75*
G02*
X181850000Y-118745000I200000J0D01*
G01*
X183850000Y-118745000D01*
G75*
G02*
X184050000Y-118945000I0J-200000D01*
G01*
X184050000Y-119945000D01*
G75*
G02*
X183850000Y-120145000I-200000J0D01*
G01*
X181850000Y-120145000D01*
G75*
G02*
X181650000Y-119945000I0J200000D01*
G01*
G37*
G36*
G01*
X186050000Y-121695000D02*
X186050000Y-120695000D01*
G75*
G02*
X186250000Y-120495000I200000J0D01*
G01*
X188250000Y-120495000D01*
G75*
G02*
X188450000Y-120695000I0J-200000D01*
G01*
X188450000Y-121695000D01*
G75*
G02*
X188250000Y-121895000I-200000J0D01*
G01*
X186250000Y-121895000D01*
G75*
G02*
X186050000Y-121695000I0J200000D01*
G01*
G37*
G36*
G01*
X186050000Y-119945000D02*
X186050000Y-118945000D01*
G75*
G02*
X186250000Y-118745000I200000J0D01*
G01*
X188250000Y-118745000D01*
G75*
G02*
X188450000Y-118945000I0J-200000D01*
G01*
X188450000Y-119945000D01*
G75*
G02*
X188250000Y-120145000I-200000J0D01*
G01*
X186250000Y-120145000D01*
G75*
G02*
X186050000Y-119945000I0J200000D01*
G01*
G37*
G36*
G01*
X102350000Y-87875000D02*
X102350000Y-86875000D01*
G75*
G02*
X102550000Y-86675000I200000J0D01*
G01*
X104550000Y-86675000D01*
G75*
G02*
X104750000Y-86875000I0J-200000D01*
G01*
X104750000Y-87875000D01*
G75*
G02*
X104550000Y-88075000I-200000J0D01*
G01*
X102550000Y-88075000D01*
G75*
G02*
X102350000Y-87875000I0J200000D01*
G01*
G37*
G36*
G01*
X102350000Y-86125000D02*
X102350000Y-85125000D01*
G75*
G02*
X102550000Y-84925000I200000J0D01*
G01*
X104550000Y-84925000D01*
G75*
G02*
X104750000Y-85125000I0J-200000D01*
G01*
X104750000Y-86125000D01*
G75*
G02*
X104550000Y-86325000I-200000J0D01*
G01*
X102550000Y-86325000D01*
G75*
G02*
X102350000Y-86125000I0J200000D01*
G01*
G37*
G36*
G01*
X106750000Y-87875000D02*
X106750000Y-86875000D01*
G75*
G02*
X106950000Y-86675000I200000J0D01*
G01*
X108950000Y-86675000D01*
G75*
G02*
X109150000Y-86875000I0J-200000D01*
G01*
X109150000Y-87875000D01*
G75*
G02*
X108950000Y-88075000I-200000J0D01*
G01*
X106950000Y-88075000D01*
G75*
G02*
X106750000Y-87875000I0J200000D01*
G01*
G37*
G36*
G01*
X106750000Y-86125000D02*
X106750000Y-85125000D01*
G75*
G02*
X106950000Y-84925000I200000J0D01*
G01*
X108950000Y-84925000D01*
G75*
G02*
X109150000Y-85125000I0J-200000D01*
G01*
X109150000Y-86125000D01*
G75*
G02*
X108950000Y-86325000I-200000J0D01*
G01*
X106950000Y-86325000D01*
G75*
G02*
X106750000Y-86125000I0J200000D01*
G01*
G37*
G36*
G01*
X107138000Y-80138000D02*
X108662000Y-80138000D01*
G75*
G02*
X108862000Y-80338000I0J-200000D01*
G01*
X108862000Y-81862000D01*
G75*
G02*
X108662000Y-82062000I-200000J0D01*
G01*
X107138000Y-82062000D01*
G75*
G02*
X106938000Y-81862000I0J200000D01*
G01*
X106938000Y-80338000D01*
G75*
G02*
X107138000Y-80138000I200000J0D01*
G01*
G37*
G36*
G01*
X108862000Y-77838000D02*
X108862000Y-79362000D01*
G75*
G02*
X108662000Y-79562000I-200000J0D01*
G01*
X107138000Y-79562000D01*
G75*
G02*
X106938000Y-79362000I0J200000D01*
G01*
X106938000Y-77838000D01*
G75*
G02*
X107138000Y-77638000I200000J0D01*
G01*
X108662000Y-77638000D01*
G75*
G02*
X108862000Y-77838000I0J-200000D01*
G01*
G37*
G36*
G01*
X108862000Y-75238000D02*
X108862000Y-76762000D01*
G75*
G02*
X108662000Y-76962000I-200000J0D01*
G01*
X107138000Y-76962000D01*
G75*
G02*
X106938000Y-76762000I0J200000D01*
G01*
X106938000Y-75238000D01*
G75*
G02*
X107138000Y-75038000I200000J0D01*
G01*
X108662000Y-75038000D01*
G75*
G02*
X108862000Y-75238000I0J-200000D01*
G01*
G37*
D11*
X112500000Y-85600000D03*
X112500000Y-83000000D03*
G36*
G01*
X113262000Y-81462000D02*
X111738000Y-81462000D01*
G75*
G02*
X111538000Y-81262000I0J200000D01*
G01*
X111538000Y-79738000D01*
G75*
G02*
X111738000Y-79538000I200000J0D01*
G01*
X113262000Y-79538000D01*
G75*
G02*
X113462000Y-79738000I0J-200000D01*
G01*
X113462000Y-81262000D01*
G75*
G02*
X113262000Y-81462000I-200000J0D01*
G01*
G37*
G36*
G01*
X219200000Y-47275000D02*
X219200000Y-48275000D01*
G75*
G02*
X219000000Y-48475000I-200000J0D01*
G01*
X217400000Y-48475000D01*
G75*
G02*
X217200000Y-48275000I0J200000D01*
G01*
X217200000Y-47275000D01*
G75*
G02*
X217400000Y-47075000I200000J0D01*
G01*
X219000000Y-47075000D01*
G75*
G02*
X219200000Y-47275000I0J-200000D01*
G01*
G37*
G36*
G01*
X219200000Y-45525000D02*
X219200000Y-46525000D01*
G75*
G02*
X219000000Y-46725000I-200000J0D01*
G01*
X217400000Y-46725000D01*
G75*
G02*
X217200000Y-46525000I0J200000D01*
G01*
X217200000Y-45525000D01*
G75*
G02*
X217400000Y-45325000I200000J0D01*
G01*
X219000000Y-45325000D01*
G75*
G02*
X219200000Y-45525000I0J-200000D01*
G01*
G37*
G36*
G01*
X214400000Y-47275000D02*
X214400000Y-48275000D01*
G75*
G02*
X214200000Y-48475000I-200000J0D01*
G01*
X212600000Y-48475000D01*
G75*
G02*
X212400000Y-48275000I0J200000D01*
G01*
X212400000Y-47275000D01*
G75*
G02*
X212600000Y-47075000I200000J0D01*
G01*
X214200000Y-47075000D01*
G75*
G02*
X214400000Y-47275000I0J-200000D01*
G01*
G37*
G36*
G01*
X214400000Y-45525000D02*
X214400000Y-46525000D01*
G75*
G02*
X214200000Y-46725000I-200000J0D01*
G01*
X212600000Y-46725000D01*
G75*
G02*
X212400000Y-46525000I0J200000D01*
G01*
X212400000Y-45525000D01*
G75*
G02*
X212600000Y-45325000I200000J0D01*
G01*
X214200000Y-45325000D01*
G75*
G02*
X214400000Y-45525000I0J-200000D01*
G01*
G37*
D12*
X213260000Y-57480000D03*
D13*
X215800000Y-52400000D03*
D12*
X219610000Y-54940000D03*
D14*
X220300000Y-52400000D03*
G36*
G01*
X207450000Y-55980000D02*
X207450000Y-53980000D01*
G75*
G02*
X207650000Y-53780000I200000J0D01*
G01*
X209950000Y-53780000D01*
G75*
G02*
X210150000Y-53980000I0J-200000D01*
G01*
X210150000Y-55980000D01*
G75*
G02*
X209950000Y-56180000I-200000J0D01*
G01*
X207650000Y-56180000D01*
G75*
G02*
X207450000Y-55980000I0J200000D01*
G01*
G37*
G36*
G01*
X220150000Y-58520000D02*
X220150000Y-56520000D01*
G75*
G02*
X220350000Y-56320000I200000J0D01*
G01*
X222650000Y-56320000D01*
G75*
G02*
X222850000Y-56520000I0J-200000D01*
G01*
X222850000Y-58520000D01*
G75*
G02*
X222650000Y-58720000I-200000J0D01*
G01*
X220350000Y-58720000D01*
G75*
G02*
X220150000Y-58520000I0J200000D01*
G01*
G37*
D12*
X218340000Y-57480000D03*
D14*
X211300000Y-52400000D03*
D15*
X210720000Y-52400000D03*
D12*
X211990000Y-54940001D03*
D15*
X220880000Y-52400000D03*
X163680000Y-102190000D03*
D12*
X154790000Y-104730001D03*
D15*
X153520000Y-102190000D03*
D14*
X154100000Y-102190000D03*
D12*
X161140000Y-107270000D03*
G36*
G01*
X162950000Y-108310000D02*
X162950000Y-106310000D01*
G75*
G02*
X163150000Y-106110000I200000J0D01*
G01*
X165450000Y-106110000D01*
G75*
G02*
X165650000Y-106310000I0J-200000D01*
G01*
X165650000Y-108310000D01*
G75*
G02*
X165450000Y-108510000I-200000J0D01*
G01*
X163150000Y-108510000D01*
G75*
G02*
X162950000Y-108310000I0J200000D01*
G01*
G37*
G36*
G01*
X150250000Y-105770000D02*
X150250000Y-103770000D01*
G75*
G02*
X150450000Y-103570000I200000J0D01*
G01*
X152750000Y-103570000D01*
G75*
G02*
X152950000Y-103770000I0J-200000D01*
G01*
X152950000Y-105770000D01*
G75*
G02*
X152750000Y-105970000I-200000J0D01*
G01*
X150450000Y-105970000D01*
G75*
G02*
X150250000Y-105770000I0J200000D01*
G01*
G37*
D14*
X163100000Y-102190000D03*
D12*
X162410000Y-104730000D03*
D13*
X158600000Y-102190000D03*
D12*
X156060000Y-107270000D03*
G36*
G01*
X157200000Y-95315000D02*
X157200000Y-96315000D01*
G75*
G02*
X157000000Y-96515000I-200000J0D01*
G01*
X155400000Y-96515000D01*
G75*
G02*
X155200000Y-96315000I0J200000D01*
G01*
X155200000Y-95315000D01*
G75*
G02*
X155400000Y-95115000I200000J0D01*
G01*
X157000000Y-95115000D01*
G75*
G02*
X157200000Y-95315000I0J-200000D01*
G01*
G37*
G36*
G01*
X157200000Y-97065000D02*
X157200000Y-98065000D01*
G75*
G02*
X157000000Y-98265000I-200000J0D01*
G01*
X155400000Y-98265000D01*
G75*
G02*
X155200000Y-98065000I0J200000D01*
G01*
X155200000Y-97065000D01*
G75*
G02*
X155400000Y-96865000I200000J0D01*
G01*
X157000000Y-96865000D01*
G75*
G02*
X157200000Y-97065000I0J-200000D01*
G01*
G37*
G36*
G01*
X162000000Y-95315000D02*
X162000000Y-96315000D01*
G75*
G02*
X161800000Y-96515000I-200000J0D01*
G01*
X160200000Y-96515000D01*
G75*
G02*
X160000000Y-96315000I0J200000D01*
G01*
X160000000Y-95315000D01*
G75*
G02*
X160200000Y-95115000I200000J0D01*
G01*
X161800000Y-95115000D01*
G75*
G02*
X162000000Y-95315000I0J-200000D01*
G01*
G37*
G36*
G01*
X162000000Y-97065000D02*
X162000000Y-98065000D01*
G75*
G02*
X161800000Y-98265000I-200000J0D01*
G01*
X160200000Y-98265000D01*
G75*
G02*
X160000000Y-98065000I0J200000D01*
G01*
X160000000Y-97065000D01*
G75*
G02*
X160200000Y-96865000I200000J0D01*
G01*
X161800000Y-96865000D01*
G75*
G02*
X162000000Y-97065000I0J-200000D01*
G01*
G37*
D15*
X201780000Y-109500000D03*
D12*
X192890000Y-112040001D03*
D15*
X191620000Y-109500000D03*
D14*
X192200000Y-109500000D03*
D12*
X199240000Y-114580000D03*
G36*
G01*
X201050000Y-115620000D02*
X201050000Y-113620000D01*
G75*
G02*
X201250000Y-113420000I200000J0D01*
G01*
X203550000Y-113420000D01*
G75*
G02*
X203750000Y-113620000I0J-200000D01*
G01*
X203750000Y-115620000D01*
G75*
G02*
X203550000Y-115820000I-200000J0D01*
G01*
X201250000Y-115820000D01*
G75*
G02*
X201050000Y-115620000I0J200000D01*
G01*
G37*
G36*
G01*
X188350000Y-113080000D02*
X188350000Y-111080000D01*
G75*
G02*
X188550000Y-110880000I200000J0D01*
G01*
X190850000Y-110880000D01*
G75*
G02*
X191050000Y-111080000I0J-200000D01*
G01*
X191050000Y-113080000D01*
G75*
G02*
X190850000Y-113280000I-200000J0D01*
G01*
X188550000Y-113280000D01*
G75*
G02*
X188350000Y-113080000I0J200000D01*
G01*
G37*
D14*
X201200000Y-109500000D03*
D12*
X200510000Y-112040000D03*
D13*
X196700000Y-109500000D03*
D12*
X194160000Y-114580000D03*
G36*
G01*
X195300000Y-102625000D02*
X195300000Y-103625000D01*
G75*
G02*
X195100000Y-103825000I-200000J0D01*
G01*
X193500000Y-103825000D01*
G75*
G02*
X193300000Y-103625000I0J200000D01*
G01*
X193300000Y-102625000D01*
G75*
G02*
X193500000Y-102425000I200000J0D01*
G01*
X195100000Y-102425000D01*
G75*
G02*
X195300000Y-102625000I0J-200000D01*
G01*
G37*
G36*
G01*
X195300000Y-104375000D02*
X195300000Y-105375000D01*
G75*
G02*
X195100000Y-105575000I-200000J0D01*
G01*
X193500000Y-105575000D01*
G75*
G02*
X193300000Y-105375000I0J200000D01*
G01*
X193300000Y-104375000D01*
G75*
G02*
X193500000Y-104175000I200000J0D01*
G01*
X195100000Y-104175000D01*
G75*
G02*
X195300000Y-104375000I0J-200000D01*
G01*
G37*
G36*
G01*
X200100000Y-102625000D02*
X200100000Y-103625000D01*
G75*
G02*
X199900000Y-103825000I-200000J0D01*
G01*
X198300000Y-103825000D01*
G75*
G02*
X198100000Y-103625000I0J200000D01*
G01*
X198100000Y-102625000D01*
G75*
G02*
X198300000Y-102425000I200000J0D01*
G01*
X199900000Y-102425000D01*
G75*
G02*
X200100000Y-102625000I0J-200000D01*
G01*
G37*
G36*
G01*
X200100000Y-104375000D02*
X200100000Y-105375000D01*
G75*
G02*
X199900000Y-105575000I-200000J0D01*
G01*
X198300000Y-105575000D01*
G75*
G02*
X198100000Y-105375000I0J200000D01*
G01*
X198100000Y-104375000D01*
G75*
G02*
X198300000Y-104175000I200000J0D01*
G01*
X199900000Y-104175000D01*
G75*
G02*
X200100000Y-104375000I0J-200000D01*
G01*
G37*
D15*
X220780000Y-71300000D03*
D12*
X211890000Y-73840001D03*
D15*
X210620000Y-71300000D03*
D14*
X211200000Y-71300000D03*
D12*
X218240000Y-76380000D03*
G36*
G01*
X220050000Y-77420000D02*
X220050000Y-75420000D01*
G75*
G02*
X220250000Y-75220000I200000J0D01*
G01*
X222550000Y-75220000D01*
G75*
G02*
X222750000Y-75420000I0J-200000D01*
G01*
X222750000Y-77420000D01*
G75*
G02*
X222550000Y-77620000I-200000J0D01*
G01*
X220250000Y-77620000D01*
G75*
G02*
X220050000Y-77420000I0J200000D01*
G01*
G37*
G36*
G01*
X207350000Y-74880000D02*
X207350000Y-72880000D01*
G75*
G02*
X207550000Y-72680000I200000J0D01*
G01*
X209850000Y-72680000D01*
G75*
G02*
X210050000Y-72880000I0J-200000D01*
G01*
X210050000Y-74880000D01*
G75*
G02*
X209850000Y-75080000I-200000J0D01*
G01*
X207550000Y-75080000D01*
G75*
G02*
X207350000Y-74880000I0J200000D01*
G01*
G37*
D14*
X220200000Y-71300000D03*
D12*
X219510000Y-73840000D03*
D13*
X215700000Y-71300000D03*
D12*
X213160000Y-76380000D03*
G36*
G01*
X214300000Y-64425000D02*
X214300000Y-65425000D01*
G75*
G02*
X214100000Y-65625000I-200000J0D01*
G01*
X212500000Y-65625000D01*
G75*
G02*
X212300000Y-65425000I0J200000D01*
G01*
X212300000Y-64425000D01*
G75*
G02*
X212500000Y-64225000I200000J0D01*
G01*
X214100000Y-64225000D01*
G75*
G02*
X214300000Y-64425000I0J-200000D01*
G01*
G37*
G36*
G01*
X214300000Y-66175000D02*
X214300000Y-67175000D01*
G75*
G02*
X214100000Y-67375000I-200000J0D01*
G01*
X212500000Y-67375000D01*
G75*
G02*
X212300000Y-67175000I0J200000D01*
G01*
X212300000Y-66175000D01*
G75*
G02*
X212500000Y-65975000I200000J0D01*
G01*
X214100000Y-65975000D01*
G75*
G02*
X214300000Y-66175000I0J-200000D01*
G01*
G37*
G36*
G01*
X219100000Y-64425000D02*
X219100000Y-65425000D01*
G75*
G02*
X218900000Y-65625000I-200000J0D01*
G01*
X217300000Y-65625000D01*
G75*
G02*
X217100000Y-65425000I0J200000D01*
G01*
X217100000Y-64425000D01*
G75*
G02*
X217300000Y-64225000I200000J0D01*
G01*
X218900000Y-64225000D01*
G75*
G02*
X219100000Y-64425000I0J-200000D01*
G01*
G37*
G36*
G01*
X219100000Y-66175000D02*
X219100000Y-67175000D01*
G75*
G02*
X218900000Y-67375000I-200000J0D01*
G01*
X217300000Y-67375000D01*
G75*
G02*
X217100000Y-67175000I0J200000D01*
G01*
X217100000Y-66175000D01*
G75*
G02*
X217300000Y-65975000I200000J0D01*
G01*
X218900000Y-65975000D01*
G75*
G02*
X219100000Y-66175000I0J-200000D01*
G01*
G37*
D15*
X201780000Y-71300000D03*
D12*
X192890000Y-73840001D03*
D15*
X191620000Y-71300000D03*
D14*
X192200000Y-71300000D03*
D12*
X199240000Y-76380000D03*
G36*
G01*
X201050000Y-77420000D02*
X201050000Y-75420000D01*
G75*
G02*
X201250000Y-75220000I200000J0D01*
G01*
X203550000Y-75220000D01*
G75*
G02*
X203750000Y-75420000I0J-200000D01*
G01*
X203750000Y-77420000D01*
G75*
G02*
X203550000Y-77620000I-200000J0D01*
G01*
X201250000Y-77620000D01*
G75*
G02*
X201050000Y-77420000I0J200000D01*
G01*
G37*
G36*
G01*
X188350000Y-74880000D02*
X188350000Y-72880000D01*
G75*
G02*
X188550000Y-72680000I200000J0D01*
G01*
X190850000Y-72680000D01*
G75*
G02*
X191050000Y-72880000I0J-200000D01*
G01*
X191050000Y-74880000D01*
G75*
G02*
X190850000Y-75080000I-200000J0D01*
G01*
X188550000Y-75080000D01*
G75*
G02*
X188350000Y-74880000I0J200000D01*
G01*
G37*
D14*
X201200000Y-71300000D03*
D12*
X200510000Y-73840000D03*
D13*
X196700000Y-71300000D03*
D12*
X194160000Y-76380000D03*
G36*
G01*
X195300000Y-64425000D02*
X195300000Y-65425000D01*
G75*
G02*
X195100000Y-65625000I-200000J0D01*
G01*
X193500000Y-65625000D01*
G75*
G02*
X193300000Y-65425000I0J200000D01*
G01*
X193300000Y-64425000D01*
G75*
G02*
X193500000Y-64225000I200000J0D01*
G01*
X195100000Y-64225000D01*
G75*
G02*
X195300000Y-64425000I0J-200000D01*
G01*
G37*
G36*
G01*
X195300000Y-66175000D02*
X195300000Y-67175000D01*
G75*
G02*
X195100000Y-67375000I-200000J0D01*
G01*
X193500000Y-67375000D01*
G75*
G02*
X193300000Y-67175000I0J200000D01*
G01*
X193300000Y-66175000D01*
G75*
G02*
X193500000Y-65975000I200000J0D01*
G01*
X195100000Y-65975000D01*
G75*
G02*
X195300000Y-66175000I0J-200000D01*
G01*
G37*
G36*
G01*
X200100000Y-64425000D02*
X200100000Y-65425000D01*
G75*
G02*
X199900000Y-65625000I-200000J0D01*
G01*
X198300000Y-65625000D01*
G75*
G02*
X198100000Y-65425000I0J200000D01*
G01*
X198100000Y-64425000D01*
G75*
G02*
X198300000Y-64225000I200000J0D01*
G01*
X199900000Y-64225000D01*
G75*
G02*
X200100000Y-64425000I0J-200000D01*
G01*
G37*
G36*
G01*
X200100000Y-66175000D02*
X200100000Y-67175000D01*
G75*
G02*
X199900000Y-67375000I-200000J0D01*
G01*
X198300000Y-67375000D01*
G75*
G02*
X198100000Y-67175000I0J200000D01*
G01*
X198100000Y-66175000D01*
G75*
G02*
X198300000Y-65975000I200000J0D01*
G01*
X199900000Y-65975000D01*
G75*
G02*
X200100000Y-66175000I0J-200000D01*
G01*
G37*
D15*
X201780000Y-90500000D03*
D12*
X192890000Y-93040001D03*
D15*
X191620000Y-90500000D03*
D14*
X192200000Y-90500000D03*
D12*
X199240000Y-95580000D03*
G36*
G01*
X201050000Y-96620000D02*
X201050000Y-94620000D01*
G75*
G02*
X201250000Y-94420000I200000J0D01*
G01*
X203550000Y-94420000D01*
G75*
G02*
X203750000Y-94620000I0J-200000D01*
G01*
X203750000Y-96620000D01*
G75*
G02*
X203550000Y-96820000I-200000J0D01*
G01*
X201250000Y-96820000D01*
G75*
G02*
X201050000Y-96620000I0J200000D01*
G01*
G37*
G36*
G01*
X188350000Y-94080000D02*
X188350000Y-92080000D01*
G75*
G02*
X188550000Y-91880000I200000J0D01*
G01*
X190850000Y-91880000D01*
G75*
G02*
X191050000Y-92080000I0J-200000D01*
G01*
X191050000Y-94080000D01*
G75*
G02*
X190850000Y-94280000I-200000J0D01*
G01*
X188550000Y-94280000D01*
G75*
G02*
X188350000Y-94080000I0J200000D01*
G01*
G37*
D14*
X201200000Y-90500000D03*
D12*
X200510000Y-93040000D03*
D13*
X196700000Y-90500000D03*
D12*
X194160000Y-95580000D03*
G36*
G01*
X195300000Y-83625000D02*
X195300000Y-84625000D01*
G75*
G02*
X195100000Y-84825000I-200000J0D01*
G01*
X193500000Y-84825000D01*
G75*
G02*
X193300000Y-84625000I0J200000D01*
G01*
X193300000Y-83625000D01*
G75*
G02*
X193500000Y-83425000I200000J0D01*
G01*
X195100000Y-83425000D01*
G75*
G02*
X195300000Y-83625000I0J-200000D01*
G01*
G37*
G36*
G01*
X195300000Y-85375000D02*
X195300000Y-86375000D01*
G75*
G02*
X195100000Y-86575000I-200000J0D01*
G01*
X193500000Y-86575000D01*
G75*
G02*
X193300000Y-86375000I0J200000D01*
G01*
X193300000Y-85375000D01*
G75*
G02*
X193500000Y-85175000I200000J0D01*
G01*
X195100000Y-85175000D01*
G75*
G02*
X195300000Y-85375000I0J-200000D01*
G01*
G37*
G36*
G01*
X200100000Y-83625000D02*
X200100000Y-84625000D01*
G75*
G02*
X199900000Y-84825000I-200000J0D01*
G01*
X198300000Y-84825000D01*
G75*
G02*
X198100000Y-84625000I0J200000D01*
G01*
X198100000Y-83625000D01*
G75*
G02*
X198300000Y-83425000I200000J0D01*
G01*
X199900000Y-83425000D01*
G75*
G02*
X200100000Y-83625000I0J-200000D01*
G01*
G37*
G36*
G01*
X200100000Y-85375000D02*
X200100000Y-86375000D01*
G75*
G02*
X199900000Y-86575000I-200000J0D01*
G01*
X198300000Y-86575000D01*
G75*
G02*
X198100000Y-86375000I0J200000D01*
G01*
X198100000Y-85375000D01*
G75*
G02*
X198300000Y-85175000I200000J0D01*
G01*
X199900000Y-85175000D01*
G75*
G02*
X200100000Y-85375000I0J-200000D01*
G01*
G37*
D15*
X144580000Y-47500000D03*
D12*
X135690000Y-50040001D03*
D15*
X134420000Y-47500000D03*
D14*
X135000000Y-47500000D03*
D12*
X142040000Y-52580000D03*
G36*
G01*
X143850000Y-53620000D02*
X143850000Y-51620000D01*
G75*
G02*
X144050000Y-51420000I200000J0D01*
G01*
X146350000Y-51420000D01*
G75*
G02*
X146550000Y-51620000I0J-200000D01*
G01*
X146550000Y-53620000D01*
G75*
G02*
X146350000Y-53820000I-200000J0D01*
G01*
X144050000Y-53820000D01*
G75*
G02*
X143850000Y-53620000I0J200000D01*
G01*
G37*
G36*
G01*
X131150000Y-51080000D02*
X131150000Y-49080000D01*
G75*
G02*
X131350000Y-48880000I200000J0D01*
G01*
X133650000Y-48880000D01*
G75*
G02*
X133850000Y-49080000I0J-200000D01*
G01*
X133850000Y-51080000D01*
G75*
G02*
X133650000Y-51280000I-200000J0D01*
G01*
X131350000Y-51280000D01*
G75*
G02*
X131150000Y-51080000I0J200000D01*
G01*
G37*
D14*
X144000000Y-47500000D03*
D12*
X143310000Y-50040000D03*
D13*
X139500000Y-47500000D03*
D12*
X136960000Y-52580000D03*
G36*
G01*
X138100000Y-40625000D02*
X138100000Y-41625000D01*
G75*
G02*
X137900000Y-41825000I-200000J0D01*
G01*
X136300000Y-41825000D01*
G75*
G02*
X136100000Y-41625000I0J200000D01*
G01*
X136100000Y-40625000D01*
G75*
G02*
X136300000Y-40425000I200000J0D01*
G01*
X137900000Y-40425000D01*
G75*
G02*
X138100000Y-40625000I0J-200000D01*
G01*
G37*
G36*
G01*
X138100000Y-42375000D02*
X138100000Y-43375000D01*
G75*
G02*
X137900000Y-43575000I-200000J0D01*
G01*
X136300000Y-43575000D01*
G75*
G02*
X136100000Y-43375000I0J200000D01*
G01*
X136100000Y-42375000D01*
G75*
G02*
X136300000Y-42175000I200000J0D01*
G01*
X137900000Y-42175000D01*
G75*
G02*
X138100000Y-42375000I0J-200000D01*
G01*
G37*
G36*
G01*
X142900000Y-40625000D02*
X142900000Y-41625000D01*
G75*
G02*
X142700000Y-41825000I-200000J0D01*
G01*
X141100000Y-41825000D01*
G75*
G02*
X140900000Y-41625000I0J200000D01*
G01*
X140900000Y-40625000D01*
G75*
G02*
X141100000Y-40425000I200000J0D01*
G01*
X142700000Y-40425000D01*
G75*
G02*
X142900000Y-40625000I0J-200000D01*
G01*
G37*
G36*
G01*
X142900000Y-42375000D02*
X142900000Y-43375000D01*
G75*
G02*
X142700000Y-43575000I-200000J0D01*
G01*
X141100000Y-43575000D01*
G75*
G02*
X140900000Y-43375000I0J200000D01*
G01*
X140900000Y-42375000D01*
G75*
G02*
X141100000Y-42175000I200000J0D01*
G01*
X142700000Y-42175000D01*
G75*
G02*
X142900000Y-42375000I0J-200000D01*
G01*
G37*
G36*
G01*
X123180000Y-119495000D02*
X123180000Y-118545000D01*
G75*
G02*
X123380000Y-118345000I200000J0D01*
G01*
X124680000Y-118345000D01*
G75*
G02*
X124880000Y-118545000I0J-200000D01*
G01*
X124880000Y-119495000D01*
G75*
G02*
X124680000Y-119695000I-200000J0D01*
G01*
X123380000Y-119695000D01*
G75*
G02*
X123180000Y-119495000I0J200000D01*
G01*
G37*
G36*
G01*
X126730000Y-119495000D02*
X126730000Y-118545000D01*
G75*
G02*
X126930000Y-118345000I200000J0D01*
G01*
X128230000Y-118345000D01*
G75*
G02*
X128430000Y-118545000I0J-200000D01*
G01*
X128430000Y-119495000D01*
G75*
G02*
X128230000Y-119695000I-200000J0D01*
G01*
X126930000Y-119695000D01*
G75*
G02*
X126730000Y-119495000I0J200000D01*
G01*
G37*
G36*
G01*
X126700000Y-122075000D02*
X126700000Y-121125000D01*
G75*
G02*
X126900000Y-120925000I200000J0D01*
G01*
X128200000Y-120925000D01*
G75*
G02*
X128400000Y-121125000I0J-200000D01*
G01*
X128400000Y-122075000D01*
G75*
G02*
X128200000Y-122275000I-200000J0D01*
G01*
X126900000Y-122275000D01*
G75*
G02*
X126700000Y-122075000I0J200000D01*
G01*
G37*
G36*
G01*
X123150000Y-122075000D02*
X123150000Y-121125000D01*
G75*
G02*
X123350000Y-120925000I200000J0D01*
G01*
X124650000Y-120925000D01*
G75*
G02*
X124850000Y-121125000I0J-200000D01*
G01*
X124850000Y-122075000D01*
G75*
G02*
X124650000Y-122275000I-200000J0D01*
G01*
X123350000Y-122275000D01*
G75*
G02*
X123150000Y-122075000I0J200000D01*
G01*
G37*
G36*
G01*
X123150000Y-124675000D02*
X123150000Y-123725000D01*
G75*
G02*
X123350000Y-123525000I200000J0D01*
G01*
X124650000Y-123525000D01*
G75*
G02*
X124850000Y-123725000I0J-200000D01*
G01*
X124850000Y-124675000D01*
G75*
G02*
X124650000Y-124875000I-200000J0D01*
G01*
X123350000Y-124875000D01*
G75*
G02*
X123150000Y-124675000I0J200000D01*
G01*
G37*
G36*
G01*
X126700000Y-124675000D02*
X126700000Y-123725000D01*
G75*
G02*
X126900000Y-123525000I200000J0D01*
G01*
X128200000Y-123525000D01*
G75*
G02*
X128400000Y-123725000I0J-200000D01*
G01*
X128400000Y-124675000D01*
G75*
G02*
X128200000Y-124875000I-200000J0D01*
G01*
X126900000Y-124875000D01*
G75*
G02*
X126700000Y-124675000I0J200000D01*
G01*
G37*
G36*
G01*
X107799800Y-121099800D02*
X107799800Y-120149800D01*
G75*
G02*
X107999800Y-119949800I200000J0D01*
G01*
X109299800Y-119949800D01*
G75*
G02*
X109499800Y-120149800I0J-200000D01*
G01*
X109499800Y-121099800D01*
G75*
G02*
X109299800Y-121299800I-200000J0D01*
G01*
X107999800Y-121299800D01*
G75*
G02*
X107799800Y-121099800I0J200000D01*
G01*
G37*
G36*
G01*
X111349800Y-121099800D02*
X111349800Y-120149800D01*
G75*
G02*
X111549800Y-119949800I200000J0D01*
G01*
X112849800Y-119949800D01*
G75*
G02*
X113049800Y-120149800I0J-200000D01*
G01*
X113049800Y-121099800D01*
G75*
G02*
X112849800Y-121299800I-200000J0D01*
G01*
X111549800Y-121299800D01*
G75*
G02*
X111349800Y-121099800I0J200000D01*
G01*
G37*
G36*
G01*
X98175000Y-124075000D02*
X98175000Y-123125000D01*
G75*
G02*
X98375000Y-122925000I200000J0D01*
G01*
X99675000Y-122925000D01*
G75*
G02*
X99875000Y-123125000I0J-200000D01*
G01*
X99875000Y-124075000D01*
G75*
G02*
X99675000Y-124275000I-200000J0D01*
G01*
X98375000Y-124275000D01*
G75*
G02*
X98175000Y-124075000I0J200000D01*
G01*
G37*
G36*
G01*
X101725000Y-124075000D02*
X101725000Y-123125000D01*
G75*
G02*
X101925000Y-122925000I200000J0D01*
G01*
X103225000Y-122925000D01*
G75*
G02*
X103425000Y-123125000I0J-200000D01*
G01*
X103425000Y-124075000D01*
G75*
G02*
X103225000Y-124275000I-200000J0D01*
G01*
X101925000Y-124275000D01*
G75*
G02*
X101725000Y-124075000I0J200000D01*
G01*
G37*
G36*
G01*
X104375000Y-97475000D02*
X104375000Y-96525000D01*
G75*
G02*
X104575000Y-96325000I200000J0D01*
G01*
X105875000Y-96325000D01*
G75*
G02*
X106075000Y-96525000I0J-200000D01*
G01*
X106075000Y-97475000D01*
G75*
G02*
X105875000Y-97675000I-200000J0D01*
G01*
X104575000Y-97675000D01*
G75*
G02*
X104375000Y-97475000I0J200000D01*
G01*
G37*
G36*
G01*
X107925000Y-97475000D02*
X107925000Y-96525000D01*
G75*
G02*
X108125000Y-96325000I200000J0D01*
G01*
X109425000Y-96325000D01*
G75*
G02*
X109625000Y-96525000I0J-200000D01*
G01*
X109625000Y-97475000D01*
G75*
G02*
X109425000Y-97675000I-200000J0D01*
G01*
X108125000Y-97675000D01*
G75*
G02*
X107925000Y-97475000I0J200000D01*
G01*
G37*
G36*
G01*
X207725000Y-102550000D02*
X208675000Y-102550000D01*
G75*
G02*
X208875000Y-102750000I0J-200000D01*
G01*
X208875000Y-104050000D01*
G75*
G02*
X208675000Y-104250000I-200000J0D01*
G01*
X207725000Y-104250000D01*
G75*
G02*
X207525000Y-104050000I0J200000D01*
G01*
X207525000Y-102750000D01*
G75*
G02*
X207725000Y-102550000I200000J0D01*
G01*
G37*
G36*
G01*
X207725000Y-106100000D02*
X208675000Y-106100000D01*
G75*
G02*
X208875000Y-106300000I0J-200000D01*
G01*
X208875000Y-107600000D01*
G75*
G02*
X208675000Y-107800000I-200000J0D01*
G01*
X207725000Y-107800000D01*
G75*
G02*
X207525000Y-107600000I0J200000D01*
G01*
X207525000Y-106300000D01*
G75*
G02*
X207725000Y-106100000I200000J0D01*
G01*
G37*
G36*
G01*
X188025000Y-104125000D02*
X188975000Y-104125000D01*
G75*
G02*
X189175000Y-104325000I0J-200000D01*
G01*
X189175000Y-105625000D01*
G75*
G02*
X188975000Y-105825000I-200000J0D01*
G01*
X188025000Y-105825000D01*
G75*
G02*
X187825000Y-105625000I0J200000D01*
G01*
X187825000Y-104325000D01*
G75*
G02*
X188025000Y-104125000I200000J0D01*
G01*
G37*
G36*
G01*
X188025000Y-107675000D02*
X188975000Y-107675000D01*
G75*
G02*
X189175000Y-107875000I0J-200000D01*
G01*
X189175000Y-109175000D01*
G75*
G02*
X188975000Y-109375000I-200000J0D01*
G01*
X188025000Y-109375000D01*
G75*
G02*
X187825000Y-109175000I0J200000D01*
G01*
X187825000Y-107875000D01*
G75*
G02*
X188025000Y-107675000I200000J0D01*
G01*
G37*
G36*
G01*
X168775000Y-99525000D02*
X169725000Y-99525000D01*
G75*
G02*
X169925000Y-99725000I0J-200000D01*
G01*
X169925000Y-101025000D01*
G75*
G02*
X169725000Y-101225000I-200000J0D01*
G01*
X168775000Y-101225000D01*
G75*
G02*
X168575000Y-101025000I0J200000D01*
G01*
X168575000Y-99725000D01*
G75*
G02*
X168775000Y-99525000I200000J0D01*
G01*
G37*
G36*
G01*
X168775000Y-103075000D02*
X169725000Y-103075000D01*
G75*
G02*
X169925000Y-103275000I0J-200000D01*
G01*
X169925000Y-104575000D01*
G75*
G02*
X169725000Y-104775000I-200000J0D01*
G01*
X168775000Y-104775000D01*
G75*
G02*
X168575000Y-104575000I0J200000D01*
G01*
X168575000Y-103275000D01*
G75*
G02*
X168775000Y-103075000I200000J0D01*
G01*
G37*
G36*
G01*
X149525000Y-95940000D02*
X150475000Y-95940000D01*
G75*
G02*
X150675000Y-96140000I0J-200000D01*
G01*
X150675000Y-97440000D01*
G75*
G02*
X150475000Y-97640000I-200000J0D01*
G01*
X149525000Y-97640000D01*
G75*
G02*
X149325000Y-97440000I0J200000D01*
G01*
X149325000Y-96140000D01*
G75*
G02*
X149525000Y-95940000I200000J0D01*
G01*
G37*
G36*
G01*
X149525000Y-99490000D02*
X150475000Y-99490000D01*
G75*
G02*
X150675000Y-99690000I0J-200000D01*
G01*
X150675000Y-100990000D01*
G75*
G02*
X150475000Y-101190000I-200000J0D01*
G01*
X149525000Y-101190000D01*
G75*
G02*
X149325000Y-100990000I0J200000D01*
G01*
X149325000Y-99690000D01*
G75*
G02*
X149525000Y-99490000I200000J0D01*
G01*
G37*
G36*
G01*
X130525000Y-100550000D02*
X131475000Y-100550000D01*
G75*
G02*
X131675000Y-100750000I0J-200000D01*
G01*
X131675000Y-102050000D01*
G75*
G02*
X131475000Y-102250000I-200000J0D01*
G01*
X130525000Y-102250000D01*
G75*
G02*
X130325000Y-102050000I0J200000D01*
G01*
X130325000Y-100750000D01*
G75*
G02*
X130525000Y-100550000I200000J0D01*
G01*
G37*
G36*
G01*
X130525000Y-104100000D02*
X131475000Y-104100000D01*
G75*
G02*
X131675000Y-104300000I0J-200000D01*
G01*
X131675000Y-105600000D01*
G75*
G02*
X131475000Y-105800000I-200000J0D01*
G01*
X130525000Y-105800000D01*
G75*
G02*
X130325000Y-105600000I0J200000D01*
G01*
X130325000Y-104300000D01*
G75*
G02*
X130525000Y-104100000I200000J0D01*
G01*
G37*
G36*
G01*
X111525000Y-100125000D02*
X112475000Y-100125000D01*
G75*
G02*
X112675000Y-100325000I0J-200000D01*
G01*
X112675000Y-101625000D01*
G75*
G02*
X112475000Y-101825000I-200000J0D01*
G01*
X111525000Y-101825000D01*
G75*
G02*
X111325000Y-101625000I0J200000D01*
G01*
X111325000Y-100325000D01*
G75*
G02*
X111525000Y-100125000I200000J0D01*
G01*
G37*
G36*
G01*
X111525000Y-103675000D02*
X112475000Y-103675000D01*
G75*
G02*
X112675000Y-103875000I0J-200000D01*
G01*
X112675000Y-105175000D01*
G75*
G02*
X112475000Y-105375000I-200000J0D01*
G01*
X111525000Y-105375000D01*
G75*
G02*
X111325000Y-105175000I0J200000D01*
G01*
X111325000Y-103875000D01*
G75*
G02*
X111525000Y-103675000I200000J0D01*
G01*
G37*
G36*
G01*
X207275000Y-83650000D02*
X208225000Y-83650000D01*
G75*
G02*
X208425000Y-83850000I0J-200000D01*
G01*
X208425000Y-85150000D01*
G75*
G02*
X208225000Y-85350000I-200000J0D01*
G01*
X207275000Y-85350000D01*
G75*
G02*
X207075000Y-85150000I0J200000D01*
G01*
X207075000Y-83850000D01*
G75*
G02*
X207275000Y-83650000I200000J0D01*
G01*
G37*
G36*
G01*
X207275000Y-87200000D02*
X208225000Y-87200000D01*
G75*
G02*
X208425000Y-87400000I0J-200000D01*
G01*
X208425000Y-88700000D01*
G75*
G02*
X208225000Y-88900000I-200000J0D01*
G01*
X207275000Y-88900000D01*
G75*
G02*
X207075000Y-88700000I0J200000D01*
G01*
X207075000Y-87400000D01*
G75*
G02*
X207275000Y-87200000I200000J0D01*
G01*
G37*
G36*
G01*
X188025000Y-86150000D02*
X188975000Y-86150000D01*
G75*
G02*
X189175000Y-86350000I0J-200000D01*
G01*
X189175000Y-87650000D01*
G75*
G02*
X188975000Y-87850000I-200000J0D01*
G01*
X188025000Y-87850000D01*
G75*
G02*
X187825000Y-87650000I0J200000D01*
G01*
X187825000Y-86350000D01*
G75*
G02*
X188025000Y-86150000I200000J0D01*
G01*
G37*
G36*
G01*
X188025000Y-89700000D02*
X188975000Y-89700000D01*
G75*
G02*
X189175000Y-89900000I0J-200000D01*
G01*
X189175000Y-91200000D01*
G75*
G02*
X188975000Y-91400000I-200000J0D01*
G01*
X188025000Y-91400000D01*
G75*
G02*
X187825000Y-91200000I0J200000D01*
G01*
X187825000Y-89900000D01*
G75*
G02*
X188025000Y-89700000I200000J0D01*
G01*
G37*
G36*
G01*
X169250000Y-80800000D02*
X170200000Y-80800000D01*
G75*
G02*
X170400000Y-81000000I0J-200000D01*
G01*
X170400000Y-82300000D01*
G75*
G02*
X170200000Y-82500000I-200000J0D01*
G01*
X169250000Y-82500000D01*
G75*
G02*
X169050000Y-82300000I0J200000D01*
G01*
X169050000Y-81000000D01*
G75*
G02*
X169250000Y-80800000I200000J0D01*
G01*
G37*
G36*
G01*
X169250000Y-84350000D02*
X170200000Y-84350000D01*
G75*
G02*
X170400000Y-84550000I0J-200000D01*
G01*
X170400000Y-85850000D01*
G75*
G02*
X170200000Y-86050000I-200000J0D01*
G01*
X169250000Y-86050000D01*
G75*
G02*
X169050000Y-85850000I0J200000D01*
G01*
X169050000Y-84550000D01*
G75*
G02*
X169250000Y-84350000I200000J0D01*
G01*
G37*
G36*
G01*
X149275000Y-78940000D02*
X150225000Y-78940000D01*
G75*
G02*
X150425000Y-79140000I0J-200000D01*
G01*
X150425000Y-80440000D01*
G75*
G02*
X150225000Y-80640000I-200000J0D01*
G01*
X149275000Y-80640000D01*
G75*
G02*
X149075000Y-80440000I0J200000D01*
G01*
X149075000Y-79140000D01*
G75*
G02*
X149275000Y-78940000I200000J0D01*
G01*
G37*
G36*
G01*
X149275000Y-82490000D02*
X150225000Y-82490000D01*
G75*
G02*
X150425000Y-82690000I0J-200000D01*
G01*
X150425000Y-83990000D01*
G75*
G02*
X150225000Y-84190000I-200000J0D01*
G01*
X149275000Y-84190000D01*
G75*
G02*
X149075000Y-83990000I0J200000D01*
G01*
X149075000Y-82690000D01*
G75*
G02*
X149275000Y-82490000I200000J0D01*
G01*
G37*
G36*
G01*
X130775000Y-81050000D02*
X131725000Y-81050000D01*
G75*
G02*
X131925000Y-81250000I0J-200000D01*
G01*
X131925000Y-82550000D01*
G75*
G02*
X131725000Y-82750000I-200000J0D01*
G01*
X130775000Y-82750000D01*
G75*
G02*
X130575000Y-82550000I0J200000D01*
G01*
X130575000Y-81250000D01*
G75*
G02*
X130775000Y-81050000I200000J0D01*
G01*
G37*
G36*
G01*
X130775000Y-84600000D02*
X131725000Y-84600000D01*
G75*
G02*
X131925000Y-84800000I0J-200000D01*
G01*
X131925000Y-86100000D01*
G75*
G02*
X131725000Y-86300000I-200000J0D01*
G01*
X130775000Y-86300000D01*
G75*
G02*
X130575000Y-86100000I0J200000D01*
G01*
X130575000Y-84800000D01*
G75*
G02*
X130775000Y-84600000I200000J0D01*
G01*
G37*
G36*
G01*
X128025000Y-81150000D02*
X128975000Y-81150000D01*
G75*
G02*
X129175000Y-81350000I0J-200000D01*
G01*
X129175000Y-82650000D01*
G75*
G02*
X128975000Y-82850000I-200000J0D01*
G01*
X128025000Y-82850000D01*
G75*
G02*
X127825000Y-82650000I0J200000D01*
G01*
X127825000Y-81350000D01*
G75*
G02*
X128025000Y-81150000I200000J0D01*
G01*
G37*
G36*
G01*
X128025000Y-84700000D02*
X128975000Y-84700000D01*
G75*
G02*
X129175000Y-84900000I0J-200000D01*
G01*
X129175000Y-86200000D01*
G75*
G02*
X128975000Y-86400000I-200000J0D01*
G01*
X128025000Y-86400000D01*
G75*
G02*
X127825000Y-86200000I0J200000D01*
G01*
X127825000Y-84900000D01*
G75*
G02*
X128025000Y-84700000I200000J0D01*
G01*
G37*
G36*
G01*
X207275000Y-64650000D02*
X208225000Y-64650000D01*
G75*
G02*
X208425000Y-64850000I0J-200000D01*
G01*
X208425000Y-66150000D01*
G75*
G02*
X208225000Y-66350000I-200000J0D01*
G01*
X207275000Y-66350000D01*
G75*
G02*
X207075000Y-66150000I0J200000D01*
G01*
X207075000Y-64850000D01*
G75*
G02*
X207275000Y-64650000I200000J0D01*
G01*
G37*
G36*
G01*
X207275000Y-68200000D02*
X208225000Y-68200000D01*
G75*
G02*
X208425000Y-68400000I0J-200000D01*
G01*
X208425000Y-69700000D01*
G75*
G02*
X208225000Y-69900000I-200000J0D01*
G01*
X207275000Y-69900000D01*
G75*
G02*
X207075000Y-69700000I0J200000D01*
G01*
X207075000Y-68400000D01*
G75*
G02*
X207275000Y-68200000I200000J0D01*
G01*
G37*
G36*
G01*
X187775000Y-64150000D02*
X188725000Y-64150000D01*
G75*
G02*
X188925000Y-64350000I0J-200000D01*
G01*
X188925000Y-65650000D01*
G75*
G02*
X188725000Y-65850000I-200000J0D01*
G01*
X187775000Y-65850000D01*
G75*
G02*
X187575000Y-65650000I0J200000D01*
G01*
X187575000Y-64350000D01*
G75*
G02*
X187775000Y-64150000I200000J0D01*
G01*
G37*
G36*
G01*
X187775000Y-67700000D02*
X188725000Y-67700000D01*
G75*
G02*
X188925000Y-67900000I0J-200000D01*
G01*
X188925000Y-69200000D01*
G75*
G02*
X188725000Y-69400000I-200000J0D01*
G01*
X187775000Y-69400000D01*
G75*
G02*
X187575000Y-69200000I0J200000D01*
G01*
X187575000Y-67900000D01*
G75*
G02*
X187775000Y-67700000I200000J0D01*
G01*
G37*
G36*
G01*
X169025000Y-61025000D02*
X169975000Y-61025000D01*
G75*
G02*
X170175000Y-61225000I0J-200000D01*
G01*
X170175000Y-62525000D01*
G75*
G02*
X169975000Y-62725000I-200000J0D01*
G01*
X169025000Y-62725000D01*
G75*
G02*
X168825000Y-62525000I0J200000D01*
G01*
X168825000Y-61225000D01*
G75*
G02*
X169025000Y-61025000I200000J0D01*
G01*
G37*
G36*
G01*
X169025000Y-64575000D02*
X169975000Y-64575000D01*
G75*
G02*
X170175000Y-64775000I0J-200000D01*
G01*
X170175000Y-66075000D01*
G75*
G02*
X169975000Y-66275000I-200000J0D01*
G01*
X169025000Y-66275000D01*
G75*
G02*
X168825000Y-66075000I0J200000D01*
G01*
X168825000Y-64775000D01*
G75*
G02*
X169025000Y-64575000I200000J0D01*
G01*
G37*
G36*
G01*
X149775000Y-58440000D02*
X150725000Y-58440000D01*
G75*
G02*
X150925000Y-58640000I0J-200000D01*
G01*
X150925000Y-59940000D01*
G75*
G02*
X150725000Y-60140000I-200000J0D01*
G01*
X149775000Y-60140000D01*
G75*
G02*
X149575000Y-59940000I0J200000D01*
G01*
X149575000Y-58640000D01*
G75*
G02*
X149775000Y-58440000I200000J0D01*
G01*
G37*
G36*
G01*
X149775000Y-61990000D02*
X150725000Y-61990000D01*
G75*
G02*
X150925000Y-62190000I0J-200000D01*
G01*
X150925000Y-63490000D01*
G75*
G02*
X150725000Y-63690000I-200000J0D01*
G01*
X149775000Y-63690000D01*
G75*
G02*
X149575000Y-63490000I0J200000D01*
G01*
X149575000Y-62190000D01*
G75*
G02*
X149775000Y-61990000I200000J0D01*
G01*
G37*
G36*
G01*
X129325000Y-61175000D02*
X130275000Y-61175000D01*
G75*
G02*
X130475000Y-61375000I0J-200000D01*
G01*
X130475000Y-62675000D01*
G75*
G02*
X130275000Y-62875000I-200000J0D01*
G01*
X129325000Y-62875000D01*
G75*
G02*
X129125000Y-62675000I0J200000D01*
G01*
X129125000Y-61375000D01*
G75*
G02*
X129325000Y-61175000I200000J0D01*
G01*
G37*
G36*
G01*
X129325000Y-64725000D02*
X130275000Y-64725000D01*
G75*
G02*
X130475000Y-64925000I0J-200000D01*
G01*
X130475000Y-66225000D01*
G75*
G02*
X130275000Y-66425000I-200000J0D01*
G01*
X129325000Y-66425000D01*
G75*
G02*
X129125000Y-66225000I0J200000D01*
G01*
X129125000Y-64925000D01*
G75*
G02*
X129325000Y-64725000I200000J0D01*
G01*
G37*
G36*
G01*
X126325000Y-61150000D02*
X127275000Y-61150000D01*
G75*
G02*
X127475000Y-61350000I0J-200000D01*
G01*
X127475000Y-62650000D01*
G75*
G02*
X127275000Y-62850000I-200000J0D01*
G01*
X126325000Y-62850000D01*
G75*
G02*
X126125000Y-62650000I0J200000D01*
G01*
X126125000Y-61350000D01*
G75*
G02*
X126325000Y-61150000I200000J0D01*
G01*
G37*
G36*
G01*
X126325000Y-64700000D02*
X127275000Y-64700000D01*
G75*
G02*
X127475000Y-64900000I0J-200000D01*
G01*
X127475000Y-66200000D01*
G75*
G02*
X127275000Y-66400000I-200000J0D01*
G01*
X126325000Y-66400000D01*
G75*
G02*
X126125000Y-66200000I0J200000D01*
G01*
X126125000Y-64900000D01*
G75*
G02*
X126325000Y-64700000I200000J0D01*
G01*
G37*
G36*
G01*
X207275000Y-47400000D02*
X208225000Y-47400000D01*
G75*
G02*
X208425000Y-47600000I0J-200000D01*
G01*
X208425000Y-48900000D01*
G75*
G02*
X208225000Y-49100000I-200000J0D01*
G01*
X207275000Y-49100000D01*
G75*
G02*
X207075000Y-48900000I0J200000D01*
G01*
X207075000Y-47600000D01*
G75*
G02*
X207275000Y-47400000I200000J0D01*
G01*
G37*
G36*
G01*
X207275000Y-50950000D02*
X208225000Y-50950000D01*
G75*
G02*
X208425000Y-51150000I0J-200000D01*
G01*
X208425000Y-52450000D01*
G75*
G02*
X208225000Y-52650000I-200000J0D01*
G01*
X207275000Y-52650000D01*
G75*
G02*
X207075000Y-52450000I0J200000D01*
G01*
X207075000Y-51150000D01*
G75*
G02*
X207275000Y-50950000I200000J0D01*
G01*
G37*
G36*
G01*
X187525000Y-47625000D02*
X188475000Y-47625000D01*
G75*
G02*
X188675000Y-47825000I0J-200000D01*
G01*
X188675000Y-49125000D01*
G75*
G02*
X188475000Y-49325000I-200000J0D01*
G01*
X187525000Y-49325000D01*
G75*
G02*
X187325000Y-49125000I0J200000D01*
G01*
X187325000Y-47825000D01*
G75*
G02*
X187525000Y-47625000I200000J0D01*
G01*
G37*
G36*
G01*
X187525000Y-51175000D02*
X188475000Y-51175000D01*
G75*
G02*
X188675000Y-51375000I0J-200000D01*
G01*
X188675000Y-52675000D01*
G75*
G02*
X188475000Y-52875000I-200000J0D01*
G01*
X187525000Y-52875000D01*
G75*
G02*
X187325000Y-52675000I0J200000D01*
G01*
X187325000Y-51375000D01*
G75*
G02*
X187525000Y-51175000I200000J0D01*
G01*
G37*
G36*
G01*
X168775000Y-42800000D02*
X169725000Y-42800000D01*
G75*
G02*
X169925000Y-43000000I0J-200000D01*
G01*
X169925000Y-44300000D01*
G75*
G02*
X169725000Y-44500000I-200000J0D01*
G01*
X168775000Y-44500000D01*
G75*
G02*
X168575000Y-44300000I0J200000D01*
G01*
X168575000Y-43000000D01*
G75*
G02*
X168775000Y-42800000I200000J0D01*
G01*
G37*
G36*
G01*
X168775000Y-46350000D02*
X169725000Y-46350000D01*
G75*
G02*
X169925000Y-46550000I0J-200000D01*
G01*
X169925000Y-47850000D01*
G75*
G02*
X169725000Y-48050000I-200000J0D01*
G01*
X168775000Y-48050000D01*
G75*
G02*
X168575000Y-47850000I0J200000D01*
G01*
X168575000Y-46550000D01*
G75*
G02*
X168775000Y-46350000I200000J0D01*
G01*
G37*
G36*
G01*
X150025000Y-40415000D02*
X150975000Y-40415000D01*
G75*
G02*
X151175000Y-40615000I0J-200000D01*
G01*
X151175000Y-41915000D01*
G75*
G02*
X150975000Y-42115000I-200000J0D01*
G01*
X150025000Y-42115000D01*
G75*
G02*
X149825000Y-41915000I0J200000D01*
G01*
X149825000Y-40615000D01*
G75*
G02*
X150025000Y-40415000I200000J0D01*
G01*
G37*
G36*
G01*
X150025000Y-43965000D02*
X150975000Y-43965000D01*
G75*
G02*
X151175000Y-44165000I0J-200000D01*
G01*
X151175000Y-45465000D01*
G75*
G02*
X150975000Y-45665000I-200000J0D01*
G01*
X150025000Y-45665000D01*
G75*
G02*
X149825000Y-45465000I0J200000D01*
G01*
X149825000Y-44165000D01*
G75*
G02*
X150025000Y-43965000I200000J0D01*
G01*
G37*
G36*
G01*
X130525000Y-43155500D02*
X131475000Y-43155500D01*
G75*
G02*
X131675000Y-43355500I0J-200000D01*
G01*
X131675000Y-44655500D01*
G75*
G02*
X131475000Y-44855500I-200000J0D01*
G01*
X130525000Y-44855500D01*
G75*
G02*
X130325000Y-44655500I0J200000D01*
G01*
X130325000Y-43355500D01*
G75*
G02*
X130525000Y-43155500I200000J0D01*
G01*
G37*
G36*
G01*
X130525000Y-46705500D02*
X131475000Y-46705500D01*
G75*
G02*
X131675000Y-46905500I0J-200000D01*
G01*
X131675000Y-48205500D01*
G75*
G02*
X131475000Y-48405500I-200000J0D01*
G01*
X130525000Y-48405500D01*
G75*
G02*
X130325000Y-48205500I0J200000D01*
G01*
X130325000Y-46905500D01*
G75*
G02*
X130525000Y-46705500I200000J0D01*
G01*
G37*
G36*
G01*
X128275000Y-43150000D02*
X129225000Y-43150000D01*
G75*
G02*
X129425000Y-43350000I0J-200000D01*
G01*
X129425000Y-44650000D01*
G75*
G02*
X129225000Y-44850000I-200000J0D01*
G01*
X128275000Y-44850000D01*
G75*
G02*
X128075000Y-44650000I0J200000D01*
G01*
X128075000Y-43350000D01*
G75*
G02*
X128275000Y-43150000I200000J0D01*
G01*
G37*
G36*
G01*
X128275000Y-46700000D02*
X129225000Y-46700000D01*
G75*
G02*
X129425000Y-46900000I0J-200000D01*
G01*
X129425000Y-48200000D01*
G75*
G02*
X129225000Y-48400000I-200000J0D01*
G01*
X128275000Y-48400000D01*
G75*
G02*
X128075000Y-48200000I0J200000D01*
G01*
X128075000Y-46900000D01*
G75*
G02*
X128275000Y-46700000I200000J0D01*
G01*
G37*
D15*
X182680000Y-123800000D03*
D12*
X173790000Y-126340001D03*
D15*
X172520000Y-123800000D03*
D14*
X173100000Y-123800000D03*
D12*
X180140000Y-128880000D03*
G36*
G01*
X181950000Y-129920000D02*
X181950000Y-127920000D01*
G75*
G02*
X182150000Y-127720000I200000J0D01*
G01*
X184450000Y-127720000D01*
G75*
G02*
X184650000Y-127920000I0J-200000D01*
G01*
X184650000Y-129920000D01*
G75*
G02*
X184450000Y-130120000I-200000J0D01*
G01*
X182150000Y-130120000D01*
G75*
G02*
X181950000Y-129920000I0J200000D01*
G01*
G37*
G36*
G01*
X169250000Y-127380000D02*
X169250000Y-125380000D01*
G75*
G02*
X169450000Y-125180000I200000J0D01*
G01*
X171750000Y-125180000D01*
G75*
G02*
X171950000Y-125380000I0J-200000D01*
G01*
X171950000Y-127380000D01*
G75*
G02*
X171750000Y-127580000I-200000J0D01*
G01*
X169450000Y-127580000D01*
G75*
G02*
X169250000Y-127380000I0J200000D01*
G01*
G37*
D14*
X182100000Y-123800000D03*
D12*
X181410000Y-126340000D03*
D13*
X177600000Y-123800000D03*
D12*
X175060000Y-128880000D03*
G36*
G01*
X176200000Y-116925000D02*
X176200000Y-117925000D01*
G75*
G02*
X176000000Y-118125000I-200000J0D01*
G01*
X174400000Y-118125000D01*
G75*
G02*
X174200000Y-117925000I0J200000D01*
G01*
X174200000Y-116925000D01*
G75*
G02*
X174400000Y-116725000I200000J0D01*
G01*
X176000000Y-116725000D01*
G75*
G02*
X176200000Y-116925000I0J-200000D01*
G01*
G37*
G36*
G01*
X176200000Y-118675000D02*
X176200000Y-119675000D01*
G75*
G02*
X176000000Y-119875000I-200000J0D01*
G01*
X174400000Y-119875000D01*
G75*
G02*
X174200000Y-119675000I0J200000D01*
G01*
X174200000Y-118675000D01*
G75*
G02*
X174400000Y-118475000I200000J0D01*
G01*
X176000000Y-118475000D01*
G75*
G02*
X176200000Y-118675000I0J-200000D01*
G01*
G37*
G36*
G01*
X181000000Y-116925000D02*
X181000000Y-117925000D01*
G75*
G02*
X180800000Y-118125000I-200000J0D01*
G01*
X179200000Y-118125000D01*
G75*
G02*
X179000000Y-117925000I0J200000D01*
G01*
X179000000Y-116925000D01*
G75*
G02*
X179200000Y-116725000I200000J0D01*
G01*
X180800000Y-116725000D01*
G75*
G02*
X181000000Y-116925000I0J-200000D01*
G01*
G37*
G36*
G01*
X181000000Y-118675000D02*
X181000000Y-119675000D01*
G75*
G02*
X180800000Y-119875000I-200000J0D01*
G01*
X179200000Y-119875000D01*
G75*
G02*
X179000000Y-119675000I0J200000D01*
G01*
X179000000Y-118675000D01*
G75*
G02*
X179200000Y-118475000I200000J0D01*
G01*
X180800000Y-118475000D01*
G75*
G02*
X181000000Y-118675000I0J-200000D01*
G01*
G37*
D15*
X163680000Y-121290000D03*
D12*
X154790000Y-123830001D03*
D15*
X153520000Y-121290000D03*
D14*
X154100000Y-121290000D03*
D12*
X161140000Y-126370000D03*
G36*
G01*
X162950000Y-127410000D02*
X162950000Y-125410000D01*
G75*
G02*
X163150000Y-125210000I200000J0D01*
G01*
X165450000Y-125210000D01*
G75*
G02*
X165650000Y-125410000I0J-200000D01*
G01*
X165650000Y-127410000D01*
G75*
G02*
X165450000Y-127610000I-200000J0D01*
G01*
X163150000Y-127610000D01*
G75*
G02*
X162950000Y-127410000I0J200000D01*
G01*
G37*
G36*
G01*
X150250000Y-124870000D02*
X150250000Y-122870000D01*
G75*
G02*
X150450000Y-122670000I200000J0D01*
G01*
X152750000Y-122670000D01*
G75*
G02*
X152950000Y-122870000I0J-200000D01*
G01*
X152950000Y-124870000D01*
G75*
G02*
X152750000Y-125070000I-200000J0D01*
G01*
X150450000Y-125070000D01*
G75*
G02*
X150250000Y-124870000I0J200000D01*
G01*
G37*
D14*
X163100000Y-121290000D03*
D12*
X162410000Y-123830000D03*
D13*
X158600000Y-121290000D03*
D12*
X156060000Y-126370000D03*
G36*
G01*
X157200000Y-114415000D02*
X157200000Y-115415000D01*
G75*
G02*
X157000000Y-115615000I-200000J0D01*
G01*
X155400000Y-115615000D01*
G75*
G02*
X155200000Y-115415000I0J200000D01*
G01*
X155200000Y-114415000D01*
G75*
G02*
X155400000Y-114215000I200000J0D01*
G01*
X157000000Y-114215000D01*
G75*
G02*
X157200000Y-114415000I0J-200000D01*
G01*
G37*
G36*
G01*
X157200000Y-116165000D02*
X157200000Y-117165000D01*
G75*
G02*
X157000000Y-117365000I-200000J0D01*
G01*
X155400000Y-117365000D01*
G75*
G02*
X155200000Y-117165000I0J200000D01*
G01*
X155200000Y-116165000D01*
G75*
G02*
X155400000Y-115965000I200000J0D01*
G01*
X157000000Y-115965000D01*
G75*
G02*
X157200000Y-116165000I0J-200000D01*
G01*
G37*
G36*
G01*
X162000000Y-114415000D02*
X162000000Y-115415000D01*
G75*
G02*
X161800000Y-115615000I-200000J0D01*
G01*
X160200000Y-115615000D01*
G75*
G02*
X160000000Y-115415000I0J200000D01*
G01*
X160000000Y-114415000D01*
G75*
G02*
X160200000Y-114215000I200000J0D01*
G01*
X161800000Y-114215000D01*
G75*
G02*
X162000000Y-114415000I0J-200000D01*
G01*
G37*
G36*
G01*
X162000000Y-116165000D02*
X162000000Y-117165000D01*
G75*
G02*
X161800000Y-117365000I-200000J0D01*
G01*
X160200000Y-117365000D01*
G75*
G02*
X160000000Y-117165000I0J200000D01*
G01*
X160000000Y-116165000D01*
G75*
G02*
X160200000Y-115965000I200000J0D01*
G01*
X161800000Y-115965000D01*
G75*
G02*
X162000000Y-116165000I0J-200000D01*
G01*
G37*
D15*
X144580000Y-123700000D03*
D12*
X135690000Y-126240001D03*
D15*
X134420000Y-123700000D03*
D14*
X135000000Y-123700000D03*
D12*
X142040000Y-128780000D03*
G36*
G01*
X143850000Y-129820000D02*
X143850000Y-127820000D01*
G75*
G02*
X144050000Y-127620000I200000J0D01*
G01*
X146350000Y-127620000D01*
G75*
G02*
X146550000Y-127820000I0J-200000D01*
G01*
X146550000Y-129820000D01*
G75*
G02*
X146350000Y-130020000I-200000J0D01*
G01*
X144050000Y-130020000D01*
G75*
G02*
X143850000Y-129820000I0J200000D01*
G01*
G37*
G36*
G01*
X131150000Y-127280000D02*
X131150000Y-125280000D01*
G75*
G02*
X131350000Y-125080000I200000J0D01*
G01*
X133650000Y-125080000D01*
G75*
G02*
X133850000Y-125280000I0J-200000D01*
G01*
X133850000Y-127280000D01*
G75*
G02*
X133650000Y-127480000I-200000J0D01*
G01*
X131350000Y-127480000D01*
G75*
G02*
X131150000Y-127280000I0J200000D01*
G01*
G37*
D14*
X144000000Y-123700000D03*
D12*
X143310000Y-126240000D03*
D13*
X139500000Y-123700000D03*
D12*
X136960000Y-128780000D03*
G36*
G01*
X138100000Y-116825000D02*
X138100000Y-117825000D01*
G75*
G02*
X137900000Y-118025000I-200000J0D01*
G01*
X136300000Y-118025000D01*
G75*
G02*
X136100000Y-117825000I0J200000D01*
G01*
X136100000Y-116825000D01*
G75*
G02*
X136300000Y-116625000I200000J0D01*
G01*
X137900000Y-116625000D01*
G75*
G02*
X138100000Y-116825000I0J-200000D01*
G01*
G37*
G36*
G01*
X138100000Y-118575000D02*
X138100000Y-119575000D01*
G75*
G02*
X137900000Y-119775000I-200000J0D01*
G01*
X136300000Y-119775000D01*
G75*
G02*
X136100000Y-119575000I0J200000D01*
G01*
X136100000Y-118575000D01*
G75*
G02*
X136300000Y-118375000I200000J0D01*
G01*
X137900000Y-118375000D01*
G75*
G02*
X138100000Y-118575000I0J-200000D01*
G01*
G37*
G36*
G01*
X142900000Y-116825000D02*
X142900000Y-117825000D01*
G75*
G02*
X142700000Y-118025000I-200000J0D01*
G01*
X141100000Y-118025000D01*
G75*
G02*
X140900000Y-117825000I0J200000D01*
G01*
X140900000Y-116825000D01*
G75*
G02*
X141100000Y-116625000I200000J0D01*
G01*
X142700000Y-116625000D01*
G75*
G02*
X142900000Y-116825000I0J-200000D01*
G01*
G37*
G36*
G01*
X142900000Y-118575000D02*
X142900000Y-119575000D01*
G75*
G02*
X142700000Y-119775000I-200000J0D01*
G01*
X141100000Y-119775000D01*
G75*
G02*
X140900000Y-119575000I0J200000D01*
G01*
X140900000Y-118575000D01*
G75*
G02*
X141100000Y-118375000I200000J0D01*
G01*
X142700000Y-118375000D01*
G75*
G02*
X142900000Y-118575000I0J-200000D01*
G01*
G37*
D15*
X122506903Y-127085199D03*
D12*
X114577223Y-131839553D03*
D15*
X112693097Y-129714801D03*
D14*
X113253334Y-129564686D03*
D12*
X121368252Y-132649503D03*
G36*
G01*
X123385750Y-133185604D02*
X122868112Y-131253752D01*
G75*
G02*
X123009533Y-131008803I193185J51764D01*
G01*
X125231163Y-130413519D01*
G75*
G02*
X125476112Y-130554940I51764J-193185D01*
G01*
X125993750Y-132486792D01*
G75*
G02*
X125852329Y-132731741I-193185J-51764D01*
G01*
X123630699Y-133327025D01*
G75*
G02*
X123385750Y-133185604I-51764J193185D01*
G01*
G37*
G36*
G01*
X110461091Y-134019154D02*
X109943453Y-132087302D01*
G75*
G02*
X110084874Y-131842353I193185J51764D01*
G01*
X112306504Y-131247069D01*
G75*
G02*
X112551453Y-131388490I51764J-193185D01*
G01*
X113069091Y-133320342D01*
G75*
G02*
X112927670Y-133565291I-193185J-51764D01*
G01*
X110706040Y-134160575D01*
G75*
G02*
X110461091Y-134019154I-51764J193185D01*
G01*
G37*
D14*
X121946666Y-127235314D03*
D12*
X121937578Y-129867351D03*
D13*
X117600000Y-128400000D03*
D12*
X116461349Y-133964304D03*
G36*
G01*
X114468323Y-122121607D02*
X114727142Y-123087533D01*
G75*
G02*
X114585721Y-123332482I-193185J-51764D01*
G01*
X113040240Y-123746592D01*
G75*
G02*
X112795291Y-123605171I-51764J193185D01*
G01*
X112536472Y-122639245D01*
G75*
G02*
X112677893Y-122394296I193185J51764D01*
G01*
X114223374Y-121980186D01*
G75*
G02*
X114468323Y-122121607I51764J-193185D01*
G01*
G37*
G36*
G01*
X114921256Y-123811977D02*
X115180075Y-124777903D01*
G75*
G02*
X115038654Y-125022852I-193185J-51764D01*
G01*
X113493173Y-125436962D01*
G75*
G02*
X113248224Y-125295541I-51764J193185D01*
G01*
X112989405Y-124329615D01*
G75*
G02*
X113130826Y-124084666I193185J51764D01*
G01*
X114676307Y-123670556D01*
G75*
G02*
X114921256Y-123811977I51764J-193185D01*
G01*
G37*
G36*
G01*
X119104767Y-120879275D02*
X119363586Y-121845201D01*
G75*
G02*
X119222165Y-122090150I-193185J-51764D01*
G01*
X117676684Y-122504260D01*
G75*
G02*
X117431735Y-122362839I-51764J193185D01*
G01*
X117172916Y-121396913D01*
G75*
G02*
X117314337Y-121151964I193185J51764D01*
G01*
X118859818Y-120737854D01*
G75*
G02*
X119104767Y-120879275I51764J-193185D01*
G01*
G37*
G36*
G01*
X119557700Y-122569645D02*
X119816519Y-123535571D01*
G75*
G02*
X119675098Y-123780520I-193185J-51764D01*
G01*
X118129617Y-124194630D01*
G75*
G02*
X117884668Y-124053209I-51764J193185D01*
G01*
X117625849Y-123087283D01*
G75*
G02*
X117767270Y-122842334I193185J51764D01*
G01*
X119312751Y-122428224D01*
G75*
G02*
X119557700Y-122569645I51764J-193185D01*
G01*
G37*
D15*
X99250000Y-137799409D03*
D12*
X92605295Y-131370444D03*
D15*
X94170000Y-129000591D03*
D14*
X94460000Y-129502886D03*
D12*
X93580591Y-138139705D03*
G36*
G01*
X93584925Y-140227211D02*
X95316975Y-139227211D01*
G75*
G02*
X95590180Y-139300416I100000J-173205D01*
G01*
X96740180Y-141292274D01*
G75*
G02*
X96666975Y-141565479I-173205J-100000D01*
G01*
X94934925Y-142565479D01*
G75*
G02*
X94661720Y-142492274I-100000J173205D01*
G01*
X93511720Y-140500416D01*
G75*
G02*
X93584925Y-140227211I173205J100000D01*
G01*
G37*
G36*
G01*
X89434629Y-127958688D02*
X91166679Y-126958688D01*
G75*
G02*
X91439884Y-127031893I100000J-173205D01*
G01*
X92589884Y-129023751D01*
G75*
G02*
X92516679Y-129296956I-173205J-100000D01*
G01*
X90784629Y-130296956D01*
G75*
G02*
X90511424Y-130223751I-100000J173205D01*
G01*
X89361424Y-128231893D01*
G75*
G02*
X89434629Y-127958688I173205J100000D01*
G01*
G37*
D14*
X98960000Y-137297114D03*
D12*
X96415295Y-137969557D03*
D13*
X96750000Y-133330000D03*
D12*
X91040591Y-133740295D03*
G36*
G01*
X101963925Y-128750064D02*
X101097899Y-129250064D01*
G75*
G02*
X100824694Y-129176859I-100000J173205D01*
G01*
X100024694Y-127791219D01*
G75*
G02*
X100097899Y-127518014I173205J100000D01*
G01*
X100963925Y-127018014D01*
G75*
G02*
X101237130Y-127091219I100000J-173205D01*
G01*
X102037130Y-128476859D01*
G75*
G02*
X101963925Y-128750064I-173205J-100000D01*
G01*
G37*
G36*
G01*
X100448380Y-129625064D02*
X99582354Y-130125064D01*
G75*
G02*
X99309149Y-130051859I-100000J173205D01*
G01*
X98509149Y-128666219D01*
G75*
G02*
X98582354Y-128393014I173205J100000D01*
G01*
X99448380Y-127893014D01*
G75*
G02*
X99721585Y-127966219I100000J-173205D01*
G01*
X100521585Y-129351859D01*
G75*
G02*
X100448380Y-129625064I-173205J-100000D01*
G01*
G37*
G36*
G01*
X104363925Y-132906986D02*
X103497899Y-133406986D01*
G75*
G02*
X103224694Y-133333781I-100000J173205D01*
G01*
X102424694Y-131948141D01*
G75*
G02*
X102497899Y-131674936I173205J100000D01*
G01*
X103363925Y-131174936D01*
G75*
G02*
X103637130Y-131248141I100000J-173205D01*
G01*
X104437130Y-132633781D01*
G75*
G02*
X104363925Y-132906986I-173205J-100000D01*
G01*
G37*
G36*
G01*
X102848380Y-133781986D02*
X101982354Y-134281986D01*
G75*
G02*
X101709149Y-134208781I-100000J173205D01*
G01*
X100909149Y-132823141D01*
G75*
G02*
X100982354Y-132549936I173205J100000D01*
G01*
X101848380Y-132049936D01*
G75*
G02*
X102121585Y-132123141I100000J-173205D01*
G01*
X102921585Y-133508781D01*
G75*
G02*
X102848380Y-133781986I-173205J-100000D01*
G01*
G37*
D15*
X220830000Y-109500000D03*
D12*
X211940000Y-112040001D03*
D15*
X210670000Y-109500000D03*
D14*
X211250000Y-109500000D03*
D12*
X218290000Y-114580000D03*
G36*
G01*
X220100000Y-115620000D02*
X220100000Y-113620000D01*
G75*
G02*
X220300000Y-113420000I200000J0D01*
G01*
X222600000Y-113420000D01*
G75*
G02*
X222800000Y-113620000I0J-200000D01*
G01*
X222800000Y-115620000D01*
G75*
G02*
X222600000Y-115820000I-200000J0D01*
G01*
X220300000Y-115820000D01*
G75*
G02*
X220100000Y-115620000I0J200000D01*
G01*
G37*
G36*
G01*
X207400000Y-113080000D02*
X207400000Y-111080000D01*
G75*
G02*
X207600000Y-110880000I200000J0D01*
G01*
X209900000Y-110880000D01*
G75*
G02*
X210100000Y-111080000I0J-200000D01*
G01*
X210100000Y-113080000D01*
G75*
G02*
X209900000Y-113280000I-200000J0D01*
G01*
X207600000Y-113280000D01*
G75*
G02*
X207400000Y-113080000I0J200000D01*
G01*
G37*
D14*
X220250000Y-109500000D03*
D12*
X219560000Y-112040000D03*
D13*
X215750000Y-109500000D03*
D12*
X213210000Y-114580000D03*
G36*
G01*
X214350000Y-102625000D02*
X214350000Y-103625000D01*
G75*
G02*
X214150000Y-103825000I-200000J0D01*
G01*
X212550000Y-103825000D01*
G75*
G02*
X212350000Y-103625000I0J200000D01*
G01*
X212350000Y-102625000D01*
G75*
G02*
X212550000Y-102425000I200000J0D01*
G01*
X214150000Y-102425000D01*
G75*
G02*
X214350000Y-102625000I0J-200000D01*
G01*
G37*
G36*
G01*
X214350000Y-104375000D02*
X214350000Y-105375000D01*
G75*
G02*
X214150000Y-105575000I-200000J0D01*
G01*
X212550000Y-105575000D01*
G75*
G02*
X212350000Y-105375000I0J200000D01*
G01*
X212350000Y-104375000D01*
G75*
G02*
X212550000Y-104175000I200000J0D01*
G01*
X214150000Y-104175000D01*
G75*
G02*
X214350000Y-104375000I0J-200000D01*
G01*
G37*
G36*
G01*
X219150000Y-102625000D02*
X219150000Y-103625000D01*
G75*
G02*
X218950000Y-103825000I-200000J0D01*
G01*
X217350000Y-103825000D01*
G75*
G02*
X217150000Y-103625000I0J200000D01*
G01*
X217150000Y-102625000D01*
G75*
G02*
X217350000Y-102425000I200000J0D01*
G01*
X218950000Y-102425000D01*
G75*
G02*
X219150000Y-102625000I0J-200000D01*
G01*
G37*
G36*
G01*
X219150000Y-104375000D02*
X219150000Y-105375000D01*
G75*
G02*
X218950000Y-105575000I-200000J0D01*
G01*
X217350000Y-105575000D01*
G75*
G02*
X217150000Y-105375000I0J200000D01*
G01*
X217150000Y-104375000D01*
G75*
G02*
X217350000Y-104175000I200000J0D01*
G01*
X218950000Y-104175000D01*
G75*
G02*
X219150000Y-104375000I0J-200000D01*
G01*
G37*
D15*
X182680000Y-104700000D03*
D12*
X173790000Y-107240001D03*
D15*
X172520000Y-104700000D03*
D14*
X173100000Y-104700000D03*
D12*
X180140000Y-109780000D03*
G36*
G01*
X181950000Y-110820000D02*
X181950000Y-108820000D01*
G75*
G02*
X182150000Y-108620000I200000J0D01*
G01*
X184450000Y-108620000D01*
G75*
G02*
X184650000Y-108820000I0J-200000D01*
G01*
X184650000Y-110820000D01*
G75*
G02*
X184450000Y-111020000I-200000J0D01*
G01*
X182150000Y-111020000D01*
G75*
G02*
X181950000Y-110820000I0J200000D01*
G01*
G37*
G36*
G01*
X169250000Y-108280000D02*
X169250000Y-106280000D01*
G75*
G02*
X169450000Y-106080000I200000J0D01*
G01*
X171750000Y-106080000D01*
G75*
G02*
X171950000Y-106280000I0J-200000D01*
G01*
X171950000Y-108280000D01*
G75*
G02*
X171750000Y-108480000I-200000J0D01*
G01*
X169450000Y-108480000D01*
G75*
G02*
X169250000Y-108280000I0J200000D01*
G01*
G37*
D14*
X182100000Y-104700000D03*
D12*
X181410000Y-107240000D03*
D13*
X177600000Y-104700000D03*
D12*
X175060000Y-109780000D03*
G36*
G01*
X176200000Y-97825000D02*
X176200000Y-98825000D01*
G75*
G02*
X176000000Y-99025000I-200000J0D01*
G01*
X174400000Y-99025000D01*
G75*
G02*
X174200000Y-98825000I0J200000D01*
G01*
X174200000Y-97825000D01*
G75*
G02*
X174400000Y-97625000I200000J0D01*
G01*
X176000000Y-97625000D01*
G75*
G02*
X176200000Y-97825000I0J-200000D01*
G01*
G37*
G36*
G01*
X176200000Y-99575000D02*
X176200000Y-100575000D01*
G75*
G02*
X176000000Y-100775000I-200000J0D01*
G01*
X174400000Y-100775000D01*
G75*
G02*
X174200000Y-100575000I0J200000D01*
G01*
X174200000Y-99575000D01*
G75*
G02*
X174400000Y-99375000I200000J0D01*
G01*
X176000000Y-99375000D01*
G75*
G02*
X176200000Y-99575000I0J-200000D01*
G01*
G37*
G36*
G01*
X181000000Y-97825000D02*
X181000000Y-98825000D01*
G75*
G02*
X180800000Y-99025000I-200000J0D01*
G01*
X179200000Y-99025000D01*
G75*
G02*
X179000000Y-98825000I0J200000D01*
G01*
X179000000Y-97825000D01*
G75*
G02*
X179200000Y-97625000I200000J0D01*
G01*
X180800000Y-97625000D01*
G75*
G02*
X181000000Y-97825000I0J-200000D01*
G01*
G37*
G36*
G01*
X181000000Y-99575000D02*
X181000000Y-100575000D01*
G75*
G02*
X180800000Y-100775000I-200000J0D01*
G01*
X179200000Y-100775000D01*
G75*
G02*
X179000000Y-100575000I0J200000D01*
G01*
X179000000Y-99575000D01*
G75*
G02*
X179200000Y-99375000I200000J0D01*
G01*
X180800000Y-99375000D01*
G75*
G02*
X181000000Y-99575000I0J-200000D01*
G01*
G37*
D15*
X144580000Y-104700000D03*
D12*
X135690000Y-107240001D03*
D15*
X134420000Y-104700000D03*
D14*
X135000000Y-104700000D03*
D12*
X142040000Y-109780000D03*
G36*
G01*
X143850000Y-110820000D02*
X143850000Y-108820000D01*
G75*
G02*
X144050000Y-108620000I200000J0D01*
G01*
X146350000Y-108620000D01*
G75*
G02*
X146550000Y-108820000I0J-200000D01*
G01*
X146550000Y-110820000D01*
G75*
G02*
X146350000Y-111020000I-200000J0D01*
G01*
X144050000Y-111020000D01*
G75*
G02*
X143850000Y-110820000I0J200000D01*
G01*
G37*
G36*
G01*
X131150000Y-108280000D02*
X131150000Y-106280000D01*
G75*
G02*
X131350000Y-106080000I200000J0D01*
G01*
X133650000Y-106080000D01*
G75*
G02*
X133850000Y-106280000I0J-200000D01*
G01*
X133850000Y-108280000D01*
G75*
G02*
X133650000Y-108480000I-200000J0D01*
G01*
X131350000Y-108480000D01*
G75*
G02*
X131150000Y-108280000I0J200000D01*
G01*
G37*
D14*
X144000000Y-104700000D03*
D12*
X143310000Y-107240000D03*
D13*
X139500000Y-104700000D03*
D12*
X136960000Y-109780000D03*
G36*
G01*
X138100000Y-97825000D02*
X138100000Y-98825000D01*
G75*
G02*
X137900000Y-99025000I-200000J0D01*
G01*
X136300000Y-99025000D01*
G75*
G02*
X136100000Y-98825000I0J200000D01*
G01*
X136100000Y-97825000D01*
G75*
G02*
X136300000Y-97625000I200000J0D01*
G01*
X137900000Y-97625000D01*
G75*
G02*
X138100000Y-97825000I0J-200000D01*
G01*
G37*
G36*
G01*
X138100000Y-99575000D02*
X138100000Y-100575000D01*
G75*
G02*
X137900000Y-100775000I-200000J0D01*
G01*
X136300000Y-100775000D01*
G75*
G02*
X136100000Y-100575000I0J200000D01*
G01*
X136100000Y-99575000D01*
G75*
G02*
X136300000Y-99375000I200000J0D01*
G01*
X137900000Y-99375000D01*
G75*
G02*
X138100000Y-99575000I0J-200000D01*
G01*
G37*
G36*
G01*
X142900000Y-97825000D02*
X142900000Y-98825000D01*
G75*
G02*
X142700000Y-99025000I-200000J0D01*
G01*
X141100000Y-99025000D01*
G75*
G02*
X140900000Y-98825000I0J200000D01*
G01*
X140900000Y-97825000D01*
G75*
G02*
X141100000Y-97625000I200000J0D01*
G01*
X142700000Y-97625000D01*
G75*
G02*
X142900000Y-97825000I0J-200000D01*
G01*
G37*
G36*
G01*
X142900000Y-99575000D02*
X142900000Y-100575000D01*
G75*
G02*
X142700000Y-100775000I-200000J0D01*
G01*
X141100000Y-100775000D01*
G75*
G02*
X140900000Y-100575000I0J200000D01*
G01*
X140900000Y-99575000D01*
G75*
G02*
X141100000Y-99375000I200000J0D01*
G01*
X142700000Y-99375000D01*
G75*
G02*
X142900000Y-99575000I0J-200000D01*
G01*
G37*
D15*
X125580000Y-107100000D03*
D12*
X116690000Y-109640001D03*
D15*
X115420000Y-107100000D03*
D14*
X116000000Y-107100000D03*
D12*
X123040000Y-112180000D03*
G36*
G01*
X124850000Y-113220000D02*
X124850000Y-111220000D01*
G75*
G02*
X125050000Y-111020000I200000J0D01*
G01*
X127350000Y-111020000D01*
G75*
G02*
X127550000Y-111220000I0J-200000D01*
G01*
X127550000Y-113220000D01*
G75*
G02*
X127350000Y-113420000I-200000J0D01*
G01*
X125050000Y-113420000D01*
G75*
G02*
X124850000Y-113220000I0J200000D01*
G01*
G37*
G36*
G01*
X112150000Y-110680000D02*
X112150000Y-108680000D01*
G75*
G02*
X112350000Y-108480000I200000J0D01*
G01*
X114650000Y-108480000D01*
G75*
G02*
X114850000Y-108680000I0J-200000D01*
G01*
X114850000Y-110680000D01*
G75*
G02*
X114650000Y-110880000I-200000J0D01*
G01*
X112350000Y-110880000D01*
G75*
G02*
X112150000Y-110680000I0J200000D01*
G01*
G37*
D14*
X125000000Y-107100000D03*
D12*
X124310000Y-109640000D03*
D13*
X120500000Y-107100000D03*
D12*
X117960000Y-112180000D03*
G36*
G01*
X119100000Y-100225000D02*
X119100000Y-101225000D01*
G75*
G02*
X118900000Y-101425000I-200000J0D01*
G01*
X117300000Y-101425000D01*
G75*
G02*
X117100000Y-101225000I0J200000D01*
G01*
X117100000Y-100225000D01*
G75*
G02*
X117300000Y-100025000I200000J0D01*
G01*
X118900000Y-100025000D01*
G75*
G02*
X119100000Y-100225000I0J-200000D01*
G01*
G37*
G36*
G01*
X119100000Y-101975000D02*
X119100000Y-102975000D01*
G75*
G02*
X118900000Y-103175000I-200000J0D01*
G01*
X117300000Y-103175000D01*
G75*
G02*
X117100000Y-102975000I0J200000D01*
G01*
X117100000Y-101975000D01*
G75*
G02*
X117300000Y-101775000I200000J0D01*
G01*
X118900000Y-101775000D01*
G75*
G02*
X119100000Y-101975000I0J-200000D01*
G01*
G37*
G36*
G01*
X123900000Y-100225000D02*
X123900000Y-101225000D01*
G75*
G02*
X123700000Y-101425000I-200000J0D01*
G01*
X122100000Y-101425000D01*
G75*
G02*
X121900000Y-101225000I0J200000D01*
G01*
X121900000Y-100225000D01*
G75*
G02*
X122100000Y-100025000I200000J0D01*
G01*
X123700000Y-100025000D01*
G75*
G02*
X123900000Y-100225000I0J-200000D01*
G01*
G37*
G36*
G01*
X123900000Y-101975000D02*
X123900000Y-102975000D01*
G75*
G02*
X123700000Y-103175000I-200000J0D01*
G01*
X122100000Y-103175000D01*
G75*
G02*
X121900000Y-102975000I0J200000D01*
G01*
X121900000Y-101975000D01*
G75*
G02*
X122100000Y-101775000I200000J0D01*
G01*
X123700000Y-101775000D01*
G75*
G02*
X123900000Y-101975000I0J-200000D01*
G01*
G37*
D15*
X220780000Y-90500000D03*
D12*
X211890000Y-93040001D03*
D15*
X210620000Y-90500000D03*
D14*
X211200000Y-90500000D03*
D12*
X218240000Y-95580000D03*
G36*
G01*
X220050000Y-96620000D02*
X220050000Y-94620000D01*
G75*
G02*
X220250000Y-94420000I200000J0D01*
G01*
X222550000Y-94420000D01*
G75*
G02*
X222750000Y-94620000I0J-200000D01*
G01*
X222750000Y-96620000D01*
G75*
G02*
X222550000Y-96820000I-200000J0D01*
G01*
X220250000Y-96820000D01*
G75*
G02*
X220050000Y-96620000I0J200000D01*
G01*
G37*
G36*
G01*
X207350000Y-94080000D02*
X207350000Y-92080000D01*
G75*
G02*
X207550000Y-91880000I200000J0D01*
G01*
X209850000Y-91880000D01*
G75*
G02*
X210050000Y-92080000I0J-200000D01*
G01*
X210050000Y-94080000D01*
G75*
G02*
X209850000Y-94280000I-200000J0D01*
G01*
X207550000Y-94280000D01*
G75*
G02*
X207350000Y-94080000I0J200000D01*
G01*
G37*
D14*
X220200000Y-90500000D03*
D12*
X219510000Y-93040000D03*
D13*
X215700000Y-90500000D03*
D12*
X213160000Y-95580000D03*
G36*
G01*
X214300000Y-83625000D02*
X214300000Y-84625000D01*
G75*
G02*
X214100000Y-84825000I-200000J0D01*
G01*
X212500000Y-84825000D01*
G75*
G02*
X212300000Y-84625000I0J200000D01*
G01*
X212300000Y-83625000D01*
G75*
G02*
X212500000Y-83425000I200000J0D01*
G01*
X214100000Y-83425000D01*
G75*
G02*
X214300000Y-83625000I0J-200000D01*
G01*
G37*
G36*
G01*
X214300000Y-85375000D02*
X214300000Y-86375000D01*
G75*
G02*
X214100000Y-86575000I-200000J0D01*
G01*
X212500000Y-86575000D01*
G75*
G02*
X212300000Y-86375000I0J200000D01*
G01*
X212300000Y-85375000D01*
G75*
G02*
X212500000Y-85175000I200000J0D01*
G01*
X214100000Y-85175000D01*
G75*
G02*
X214300000Y-85375000I0J-200000D01*
G01*
G37*
G36*
G01*
X219100000Y-83625000D02*
X219100000Y-84625000D01*
G75*
G02*
X218900000Y-84825000I-200000J0D01*
G01*
X217300000Y-84825000D01*
G75*
G02*
X217100000Y-84625000I0J200000D01*
G01*
X217100000Y-83625000D01*
G75*
G02*
X217300000Y-83425000I200000J0D01*
G01*
X218900000Y-83425000D01*
G75*
G02*
X219100000Y-83625000I0J-200000D01*
G01*
G37*
G36*
G01*
X219100000Y-85375000D02*
X219100000Y-86375000D01*
G75*
G02*
X218900000Y-86575000I-200000J0D01*
G01*
X217300000Y-86575000D01*
G75*
G02*
X217100000Y-86375000I0J200000D01*
G01*
X217100000Y-85375000D01*
G75*
G02*
X217300000Y-85175000I200000J0D01*
G01*
X218900000Y-85175000D01*
G75*
G02*
X219100000Y-85375000I0J-200000D01*
G01*
G37*
D15*
X182680000Y-85600000D03*
D12*
X173790000Y-88140001D03*
D15*
X172520000Y-85600000D03*
D14*
X173100000Y-85600000D03*
D12*
X180140000Y-90680000D03*
G36*
G01*
X181950000Y-91720000D02*
X181950000Y-89720000D01*
G75*
G02*
X182150000Y-89520000I200000J0D01*
G01*
X184450000Y-89520000D01*
G75*
G02*
X184650000Y-89720000I0J-200000D01*
G01*
X184650000Y-91720000D01*
G75*
G02*
X184450000Y-91920000I-200000J0D01*
G01*
X182150000Y-91920000D01*
G75*
G02*
X181950000Y-91720000I0J200000D01*
G01*
G37*
G36*
G01*
X169250000Y-89180000D02*
X169250000Y-87180000D01*
G75*
G02*
X169450000Y-86980000I200000J0D01*
G01*
X171750000Y-86980000D01*
G75*
G02*
X171950000Y-87180000I0J-200000D01*
G01*
X171950000Y-89180000D01*
G75*
G02*
X171750000Y-89380000I-200000J0D01*
G01*
X169450000Y-89380000D01*
G75*
G02*
X169250000Y-89180000I0J200000D01*
G01*
G37*
D14*
X182100000Y-85600000D03*
D12*
X181410000Y-88140000D03*
D13*
X177600000Y-85600000D03*
D12*
X175060000Y-90680000D03*
G36*
G01*
X176200000Y-78725000D02*
X176200000Y-79725000D01*
G75*
G02*
X176000000Y-79925000I-200000J0D01*
G01*
X174400000Y-79925000D01*
G75*
G02*
X174200000Y-79725000I0J200000D01*
G01*
X174200000Y-78725000D01*
G75*
G02*
X174400000Y-78525000I200000J0D01*
G01*
X176000000Y-78525000D01*
G75*
G02*
X176200000Y-78725000I0J-200000D01*
G01*
G37*
G36*
G01*
X176200000Y-80475000D02*
X176200000Y-81475000D01*
G75*
G02*
X176000000Y-81675000I-200000J0D01*
G01*
X174400000Y-81675000D01*
G75*
G02*
X174200000Y-81475000I0J200000D01*
G01*
X174200000Y-80475000D01*
G75*
G02*
X174400000Y-80275000I200000J0D01*
G01*
X176000000Y-80275000D01*
G75*
G02*
X176200000Y-80475000I0J-200000D01*
G01*
G37*
G36*
G01*
X181000000Y-78725000D02*
X181000000Y-79725000D01*
G75*
G02*
X180800000Y-79925000I-200000J0D01*
G01*
X179200000Y-79925000D01*
G75*
G02*
X179000000Y-79725000I0J200000D01*
G01*
X179000000Y-78725000D01*
G75*
G02*
X179200000Y-78525000I200000J0D01*
G01*
X180800000Y-78525000D01*
G75*
G02*
X181000000Y-78725000I0J-200000D01*
G01*
G37*
G36*
G01*
X181000000Y-80475000D02*
X181000000Y-81475000D01*
G75*
G02*
X180800000Y-81675000I-200000J0D01*
G01*
X179200000Y-81675000D01*
G75*
G02*
X179000000Y-81475000I0J200000D01*
G01*
X179000000Y-80475000D01*
G75*
G02*
X179200000Y-80275000I200000J0D01*
G01*
X180800000Y-80275000D01*
G75*
G02*
X181000000Y-80475000I0J-200000D01*
G01*
G37*
D15*
X163680000Y-83190000D03*
D12*
X154790000Y-85730001D03*
D15*
X153520000Y-83190000D03*
D14*
X154100000Y-83190000D03*
D12*
X161140000Y-88270000D03*
G36*
G01*
X162950000Y-89310000D02*
X162950000Y-87310000D01*
G75*
G02*
X163150000Y-87110000I200000J0D01*
G01*
X165450000Y-87110000D01*
G75*
G02*
X165650000Y-87310000I0J-200000D01*
G01*
X165650000Y-89310000D01*
G75*
G02*
X165450000Y-89510000I-200000J0D01*
G01*
X163150000Y-89510000D01*
G75*
G02*
X162950000Y-89310000I0J200000D01*
G01*
G37*
G36*
G01*
X150250000Y-86770000D02*
X150250000Y-84770000D01*
G75*
G02*
X150450000Y-84570000I200000J0D01*
G01*
X152750000Y-84570000D01*
G75*
G02*
X152950000Y-84770000I0J-200000D01*
G01*
X152950000Y-86770000D01*
G75*
G02*
X152750000Y-86970000I-200000J0D01*
G01*
X150450000Y-86970000D01*
G75*
G02*
X150250000Y-86770000I0J200000D01*
G01*
G37*
D14*
X163100000Y-83190000D03*
D12*
X162410000Y-85730000D03*
D13*
X158600000Y-83190000D03*
D12*
X156060000Y-88270000D03*
G36*
G01*
X157200000Y-76315000D02*
X157200000Y-77315000D01*
G75*
G02*
X157000000Y-77515000I-200000J0D01*
G01*
X155400000Y-77515000D01*
G75*
G02*
X155200000Y-77315000I0J200000D01*
G01*
X155200000Y-76315000D01*
G75*
G02*
X155400000Y-76115000I200000J0D01*
G01*
X157000000Y-76115000D01*
G75*
G02*
X157200000Y-76315000I0J-200000D01*
G01*
G37*
G36*
G01*
X157200000Y-78065000D02*
X157200000Y-79065000D01*
G75*
G02*
X157000000Y-79265000I-200000J0D01*
G01*
X155400000Y-79265000D01*
G75*
G02*
X155200000Y-79065000I0J200000D01*
G01*
X155200000Y-78065000D01*
G75*
G02*
X155400000Y-77865000I200000J0D01*
G01*
X157000000Y-77865000D01*
G75*
G02*
X157200000Y-78065000I0J-200000D01*
G01*
G37*
G36*
G01*
X162000000Y-76315000D02*
X162000000Y-77315000D01*
G75*
G02*
X161800000Y-77515000I-200000J0D01*
G01*
X160200000Y-77515000D01*
G75*
G02*
X160000000Y-77315000I0J200000D01*
G01*
X160000000Y-76315000D01*
G75*
G02*
X160200000Y-76115000I200000J0D01*
G01*
X161800000Y-76115000D01*
G75*
G02*
X162000000Y-76315000I0J-200000D01*
G01*
G37*
G36*
G01*
X162000000Y-78065000D02*
X162000000Y-79065000D01*
G75*
G02*
X161800000Y-79265000I-200000J0D01*
G01*
X160200000Y-79265000D01*
G75*
G02*
X160000000Y-79065000I0J200000D01*
G01*
X160000000Y-78065000D01*
G75*
G02*
X160200000Y-77865000I200000J0D01*
G01*
X161800000Y-77865000D01*
G75*
G02*
X162000000Y-78065000I0J-200000D01*
G01*
G37*
D15*
X144580000Y-85600000D03*
D12*
X135690000Y-88140001D03*
D15*
X134420000Y-85600000D03*
D14*
X135000000Y-85600000D03*
D12*
X142040000Y-90680000D03*
G36*
G01*
X143850000Y-91720000D02*
X143850000Y-89720000D01*
G75*
G02*
X144050000Y-89520000I200000J0D01*
G01*
X146350000Y-89520000D01*
G75*
G02*
X146550000Y-89720000I0J-200000D01*
G01*
X146550000Y-91720000D01*
G75*
G02*
X146350000Y-91920000I-200000J0D01*
G01*
X144050000Y-91920000D01*
G75*
G02*
X143850000Y-91720000I0J200000D01*
G01*
G37*
G36*
G01*
X131150000Y-89180000D02*
X131150000Y-87180000D01*
G75*
G02*
X131350000Y-86980000I200000J0D01*
G01*
X133650000Y-86980000D01*
G75*
G02*
X133850000Y-87180000I0J-200000D01*
G01*
X133850000Y-89180000D01*
G75*
G02*
X133650000Y-89380000I-200000J0D01*
G01*
X131350000Y-89380000D01*
G75*
G02*
X131150000Y-89180000I0J200000D01*
G01*
G37*
D14*
X144000000Y-85600000D03*
D12*
X143310000Y-88140000D03*
D13*
X139500000Y-85600000D03*
D12*
X136960000Y-90680000D03*
G36*
G01*
X138100000Y-78725000D02*
X138100000Y-79725000D01*
G75*
G02*
X137900000Y-79925000I-200000J0D01*
G01*
X136300000Y-79925000D01*
G75*
G02*
X136100000Y-79725000I0J200000D01*
G01*
X136100000Y-78725000D01*
G75*
G02*
X136300000Y-78525000I200000J0D01*
G01*
X137900000Y-78525000D01*
G75*
G02*
X138100000Y-78725000I0J-200000D01*
G01*
G37*
G36*
G01*
X138100000Y-80475000D02*
X138100000Y-81475000D01*
G75*
G02*
X137900000Y-81675000I-200000J0D01*
G01*
X136300000Y-81675000D01*
G75*
G02*
X136100000Y-81475000I0J200000D01*
G01*
X136100000Y-80475000D01*
G75*
G02*
X136300000Y-80275000I200000J0D01*
G01*
X137900000Y-80275000D01*
G75*
G02*
X138100000Y-80475000I0J-200000D01*
G01*
G37*
G36*
G01*
X142900000Y-78725000D02*
X142900000Y-79725000D01*
G75*
G02*
X142700000Y-79925000I-200000J0D01*
G01*
X141100000Y-79925000D01*
G75*
G02*
X140900000Y-79725000I0J200000D01*
G01*
X140900000Y-78725000D01*
G75*
G02*
X141100000Y-78525000I200000J0D01*
G01*
X142700000Y-78525000D01*
G75*
G02*
X142900000Y-78725000I0J-200000D01*
G01*
G37*
G36*
G01*
X142900000Y-80475000D02*
X142900000Y-81475000D01*
G75*
G02*
X142700000Y-81675000I-200000J0D01*
G01*
X141100000Y-81675000D01*
G75*
G02*
X140900000Y-81475000I0J200000D01*
G01*
X140900000Y-80475000D01*
G75*
G02*
X141100000Y-80275000I200000J0D01*
G01*
X142700000Y-80275000D01*
G75*
G02*
X142900000Y-80475000I0J-200000D01*
G01*
G37*
D15*
X125580000Y-88100000D03*
D12*
X116690000Y-90640001D03*
D15*
X115420000Y-88100000D03*
D14*
X116000000Y-88100000D03*
D12*
X123040000Y-93180000D03*
G36*
G01*
X124850000Y-94220000D02*
X124850000Y-92220000D01*
G75*
G02*
X125050000Y-92020000I200000J0D01*
G01*
X127350000Y-92020000D01*
G75*
G02*
X127550000Y-92220000I0J-200000D01*
G01*
X127550000Y-94220000D01*
G75*
G02*
X127350000Y-94420000I-200000J0D01*
G01*
X125050000Y-94420000D01*
G75*
G02*
X124850000Y-94220000I0J200000D01*
G01*
G37*
G36*
G01*
X112150000Y-91680000D02*
X112150000Y-89680000D01*
G75*
G02*
X112350000Y-89480000I200000J0D01*
G01*
X114650000Y-89480000D01*
G75*
G02*
X114850000Y-89680000I0J-200000D01*
G01*
X114850000Y-91680000D01*
G75*
G02*
X114650000Y-91880000I-200000J0D01*
G01*
X112350000Y-91880000D01*
G75*
G02*
X112150000Y-91680000I0J200000D01*
G01*
G37*
D14*
X125000000Y-88100000D03*
D12*
X124310000Y-90640000D03*
D13*
X120500000Y-88100000D03*
D12*
X117960000Y-93180000D03*
G36*
G01*
X119100000Y-81225000D02*
X119100000Y-82225000D01*
G75*
G02*
X118900000Y-82425000I-200000J0D01*
G01*
X117300000Y-82425000D01*
G75*
G02*
X117100000Y-82225000I0J200000D01*
G01*
X117100000Y-81225000D01*
G75*
G02*
X117300000Y-81025000I200000J0D01*
G01*
X118900000Y-81025000D01*
G75*
G02*
X119100000Y-81225000I0J-200000D01*
G01*
G37*
G36*
G01*
X119100000Y-82975000D02*
X119100000Y-83975000D01*
G75*
G02*
X118900000Y-84175000I-200000J0D01*
G01*
X117300000Y-84175000D01*
G75*
G02*
X117100000Y-83975000I0J200000D01*
G01*
X117100000Y-82975000D01*
G75*
G02*
X117300000Y-82775000I200000J0D01*
G01*
X118900000Y-82775000D01*
G75*
G02*
X119100000Y-82975000I0J-200000D01*
G01*
G37*
G36*
G01*
X123900000Y-81225000D02*
X123900000Y-82225000D01*
G75*
G02*
X123700000Y-82425000I-200000J0D01*
G01*
X122100000Y-82425000D01*
G75*
G02*
X121900000Y-82225000I0J200000D01*
G01*
X121900000Y-81225000D01*
G75*
G02*
X122100000Y-81025000I200000J0D01*
G01*
X123700000Y-81025000D01*
G75*
G02*
X123900000Y-81225000I0J-200000D01*
G01*
G37*
G36*
G01*
X123900000Y-82975000D02*
X123900000Y-83975000D01*
G75*
G02*
X123700000Y-84175000I-200000J0D01*
G01*
X122100000Y-84175000D01*
G75*
G02*
X121900000Y-83975000I0J200000D01*
G01*
X121900000Y-82975000D01*
G75*
G02*
X122100000Y-82775000I200000J0D01*
G01*
X123700000Y-82775000D01*
G75*
G02*
X123900000Y-82975000I0J-200000D01*
G01*
G37*
D15*
X182680000Y-66500000D03*
D12*
X173790000Y-69040001D03*
D15*
X172520000Y-66500000D03*
D14*
X173100000Y-66500000D03*
D12*
X180140000Y-71580000D03*
G36*
G01*
X181950000Y-72620000D02*
X181950000Y-70620000D01*
G75*
G02*
X182150000Y-70420000I200000J0D01*
G01*
X184450000Y-70420000D01*
G75*
G02*
X184650000Y-70620000I0J-200000D01*
G01*
X184650000Y-72620000D01*
G75*
G02*
X184450000Y-72820000I-200000J0D01*
G01*
X182150000Y-72820000D01*
G75*
G02*
X181950000Y-72620000I0J200000D01*
G01*
G37*
G36*
G01*
X169250000Y-70080000D02*
X169250000Y-68080000D01*
G75*
G02*
X169450000Y-67880000I200000J0D01*
G01*
X171750000Y-67880000D01*
G75*
G02*
X171950000Y-68080000I0J-200000D01*
G01*
X171950000Y-70080000D01*
G75*
G02*
X171750000Y-70280000I-200000J0D01*
G01*
X169450000Y-70280000D01*
G75*
G02*
X169250000Y-70080000I0J200000D01*
G01*
G37*
D14*
X182100000Y-66500000D03*
D12*
X181410000Y-69040000D03*
D13*
X177600000Y-66500000D03*
D12*
X175060000Y-71580000D03*
G36*
G01*
X176200000Y-59625000D02*
X176200000Y-60625000D01*
G75*
G02*
X176000000Y-60825000I-200000J0D01*
G01*
X174400000Y-60825000D01*
G75*
G02*
X174200000Y-60625000I0J200000D01*
G01*
X174200000Y-59625000D01*
G75*
G02*
X174400000Y-59425000I200000J0D01*
G01*
X176000000Y-59425000D01*
G75*
G02*
X176200000Y-59625000I0J-200000D01*
G01*
G37*
G36*
G01*
X176200000Y-61375000D02*
X176200000Y-62375000D01*
G75*
G02*
X176000000Y-62575000I-200000J0D01*
G01*
X174400000Y-62575000D01*
G75*
G02*
X174200000Y-62375000I0J200000D01*
G01*
X174200000Y-61375000D01*
G75*
G02*
X174400000Y-61175000I200000J0D01*
G01*
X176000000Y-61175000D01*
G75*
G02*
X176200000Y-61375000I0J-200000D01*
G01*
G37*
G36*
G01*
X181000000Y-59625000D02*
X181000000Y-60625000D01*
G75*
G02*
X180800000Y-60825000I-200000J0D01*
G01*
X179200000Y-60825000D01*
G75*
G02*
X179000000Y-60625000I0J200000D01*
G01*
X179000000Y-59625000D01*
G75*
G02*
X179200000Y-59425000I200000J0D01*
G01*
X180800000Y-59425000D01*
G75*
G02*
X181000000Y-59625000I0J-200000D01*
G01*
G37*
G36*
G01*
X181000000Y-61375000D02*
X181000000Y-62375000D01*
G75*
G02*
X180800000Y-62575000I-200000J0D01*
G01*
X179200000Y-62575000D01*
G75*
G02*
X179000000Y-62375000I0J200000D01*
G01*
X179000000Y-61375000D01*
G75*
G02*
X179200000Y-61175000I200000J0D01*
G01*
X180800000Y-61175000D01*
G75*
G02*
X181000000Y-61375000I0J-200000D01*
G01*
G37*
D15*
X163680000Y-64090000D03*
D12*
X154790000Y-66630001D03*
D15*
X153520000Y-64090000D03*
D14*
X154100000Y-64090000D03*
D12*
X161140000Y-69170000D03*
G36*
G01*
X162950000Y-70210000D02*
X162950000Y-68210000D01*
G75*
G02*
X163150000Y-68010000I200000J0D01*
G01*
X165450000Y-68010000D01*
G75*
G02*
X165650000Y-68210000I0J-200000D01*
G01*
X165650000Y-70210000D01*
G75*
G02*
X165450000Y-70410000I-200000J0D01*
G01*
X163150000Y-70410000D01*
G75*
G02*
X162950000Y-70210000I0J200000D01*
G01*
G37*
G36*
G01*
X150250000Y-67670000D02*
X150250000Y-65670000D01*
G75*
G02*
X150450000Y-65470000I200000J0D01*
G01*
X152750000Y-65470000D01*
G75*
G02*
X152950000Y-65670000I0J-200000D01*
G01*
X152950000Y-67670000D01*
G75*
G02*
X152750000Y-67870000I-200000J0D01*
G01*
X150450000Y-67870000D01*
G75*
G02*
X150250000Y-67670000I0J200000D01*
G01*
G37*
D14*
X163100000Y-64090000D03*
D12*
X162410000Y-66630000D03*
D13*
X158600000Y-64090000D03*
D12*
X156060000Y-69170000D03*
G36*
G01*
X157200000Y-57215000D02*
X157200000Y-58215000D01*
G75*
G02*
X157000000Y-58415000I-200000J0D01*
G01*
X155400000Y-58415000D01*
G75*
G02*
X155200000Y-58215000I0J200000D01*
G01*
X155200000Y-57215000D01*
G75*
G02*
X155400000Y-57015000I200000J0D01*
G01*
X157000000Y-57015000D01*
G75*
G02*
X157200000Y-57215000I0J-200000D01*
G01*
G37*
G36*
G01*
X157200000Y-58965000D02*
X157200000Y-59965000D01*
G75*
G02*
X157000000Y-60165000I-200000J0D01*
G01*
X155400000Y-60165000D01*
G75*
G02*
X155200000Y-59965000I0J200000D01*
G01*
X155200000Y-58965000D01*
G75*
G02*
X155400000Y-58765000I200000J0D01*
G01*
X157000000Y-58765000D01*
G75*
G02*
X157200000Y-58965000I0J-200000D01*
G01*
G37*
G36*
G01*
X162000000Y-57215000D02*
X162000000Y-58215000D01*
G75*
G02*
X161800000Y-58415000I-200000J0D01*
G01*
X160200000Y-58415000D01*
G75*
G02*
X160000000Y-58215000I0J200000D01*
G01*
X160000000Y-57215000D01*
G75*
G02*
X160200000Y-57015000I200000J0D01*
G01*
X161800000Y-57015000D01*
G75*
G02*
X162000000Y-57215000I0J-200000D01*
G01*
G37*
G36*
G01*
X162000000Y-58965000D02*
X162000000Y-59965000D01*
G75*
G02*
X161800000Y-60165000I-200000J0D01*
G01*
X160200000Y-60165000D01*
G75*
G02*
X160000000Y-59965000I0J200000D01*
G01*
X160000000Y-58965000D01*
G75*
G02*
X160200000Y-58765000I200000J0D01*
G01*
X161800000Y-58765000D01*
G75*
G02*
X162000000Y-58965000I0J-200000D01*
G01*
G37*
D15*
X144580000Y-66600000D03*
D12*
X135690000Y-69140001D03*
D15*
X134420000Y-66600000D03*
D14*
X135000000Y-66600000D03*
D12*
X142040000Y-71680000D03*
G36*
G01*
X143850000Y-72720000D02*
X143850000Y-70720000D01*
G75*
G02*
X144050000Y-70520000I200000J0D01*
G01*
X146350000Y-70520000D01*
G75*
G02*
X146550000Y-70720000I0J-200000D01*
G01*
X146550000Y-72720000D01*
G75*
G02*
X146350000Y-72920000I-200000J0D01*
G01*
X144050000Y-72920000D01*
G75*
G02*
X143850000Y-72720000I0J200000D01*
G01*
G37*
G36*
G01*
X131150000Y-70180000D02*
X131150000Y-68180000D01*
G75*
G02*
X131350000Y-67980000I200000J0D01*
G01*
X133650000Y-67980000D01*
G75*
G02*
X133850000Y-68180000I0J-200000D01*
G01*
X133850000Y-70180000D01*
G75*
G02*
X133650000Y-70380000I-200000J0D01*
G01*
X131350000Y-70380000D01*
G75*
G02*
X131150000Y-70180000I0J200000D01*
G01*
G37*
D14*
X144000000Y-66600000D03*
D12*
X143310000Y-69140000D03*
D13*
X139500000Y-66600000D03*
D12*
X136960000Y-71680000D03*
G36*
G01*
X138100000Y-59725000D02*
X138100000Y-60725000D01*
G75*
G02*
X137900000Y-60925000I-200000J0D01*
G01*
X136300000Y-60925000D01*
G75*
G02*
X136100000Y-60725000I0J200000D01*
G01*
X136100000Y-59725000D01*
G75*
G02*
X136300000Y-59525000I200000J0D01*
G01*
X137900000Y-59525000D01*
G75*
G02*
X138100000Y-59725000I0J-200000D01*
G01*
G37*
G36*
G01*
X138100000Y-61475000D02*
X138100000Y-62475000D01*
G75*
G02*
X137900000Y-62675000I-200000J0D01*
G01*
X136300000Y-62675000D01*
G75*
G02*
X136100000Y-62475000I0J200000D01*
G01*
X136100000Y-61475000D01*
G75*
G02*
X136300000Y-61275000I200000J0D01*
G01*
X137900000Y-61275000D01*
G75*
G02*
X138100000Y-61475000I0J-200000D01*
G01*
G37*
G36*
G01*
X142900000Y-59725000D02*
X142900000Y-60725000D01*
G75*
G02*
X142700000Y-60925000I-200000J0D01*
G01*
X141100000Y-60925000D01*
G75*
G02*
X140900000Y-60725000I0J200000D01*
G01*
X140900000Y-59725000D01*
G75*
G02*
X141100000Y-59525000I200000J0D01*
G01*
X142700000Y-59525000D01*
G75*
G02*
X142900000Y-59725000I0J-200000D01*
G01*
G37*
G36*
G01*
X142900000Y-61475000D02*
X142900000Y-62475000D01*
G75*
G02*
X142700000Y-62675000I-200000J0D01*
G01*
X141100000Y-62675000D01*
G75*
G02*
X140900000Y-62475000I0J200000D01*
G01*
X140900000Y-61475000D01*
G75*
G02*
X141100000Y-61275000I200000J0D01*
G01*
X142700000Y-61275000D01*
G75*
G02*
X142900000Y-61475000I0J-200000D01*
G01*
G37*
D15*
X125580000Y-69100000D03*
D12*
X116690000Y-71640001D03*
D15*
X115420000Y-69100000D03*
D14*
X116000000Y-69100000D03*
D12*
X123040000Y-74180000D03*
G36*
G01*
X124850000Y-75220000D02*
X124850000Y-73220000D01*
G75*
G02*
X125050000Y-73020000I200000J0D01*
G01*
X127350000Y-73020000D01*
G75*
G02*
X127550000Y-73220000I0J-200000D01*
G01*
X127550000Y-75220000D01*
G75*
G02*
X127350000Y-75420000I-200000J0D01*
G01*
X125050000Y-75420000D01*
G75*
G02*
X124850000Y-75220000I0J200000D01*
G01*
G37*
G36*
G01*
X112150000Y-72680000D02*
X112150000Y-70680000D01*
G75*
G02*
X112350000Y-70480000I200000J0D01*
G01*
X114650000Y-70480000D01*
G75*
G02*
X114850000Y-70680000I0J-200000D01*
G01*
X114850000Y-72680000D01*
G75*
G02*
X114650000Y-72880000I-200000J0D01*
G01*
X112350000Y-72880000D01*
G75*
G02*
X112150000Y-72680000I0J200000D01*
G01*
G37*
D14*
X125000000Y-69100000D03*
D12*
X124310000Y-71640000D03*
D13*
X120500000Y-69100000D03*
D12*
X117960000Y-74180000D03*
G36*
G01*
X119100000Y-62225000D02*
X119100000Y-63225000D01*
G75*
G02*
X118900000Y-63425000I-200000J0D01*
G01*
X117300000Y-63425000D01*
G75*
G02*
X117100000Y-63225000I0J200000D01*
G01*
X117100000Y-62225000D01*
G75*
G02*
X117300000Y-62025000I200000J0D01*
G01*
X118900000Y-62025000D01*
G75*
G02*
X119100000Y-62225000I0J-200000D01*
G01*
G37*
G36*
G01*
X119100000Y-63975000D02*
X119100000Y-64975000D01*
G75*
G02*
X118900000Y-65175000I-200000J0D01*
G01*
X117300000Y-65175000D01*
G75*
G02*
X117100000Y-64975000I0J200000D01*
G01*
X117100000Y-63975000D01*
G75*
G02*
X117300000Y-63775000I200000J0D01*
G01*
X118900000Y-63775000D01*
G75*
G02*
X119100000Y-63975000I0J-200000D01*
G01*
G37*
G36*
G01*
X123900000Y-62225000D02*
X123900000Y-63225000D01*
G75*
G02*
X123700000Y-63425000I-200000J0D01*
G01*
X122100000Y-63425000D01*
G75*
G02*
X121900000Y-63225000I0J200000D01*
G01*
X121900000Y-62225000D01*
G75*
G02*
X122100000Y-62025000I200000J0D01*
G01*
X123700000Y-62025000D01*
G75*
G02*
X123900000Y-62225000I0J-200000D01*
G01*
G37*
G36*
G01*
X123900000Y-63975000D02*
X123900000Y-64975000D01*
G75*
G02*
X123700000Y-65175000I-200000J0D01*
G01*
X122100000Y-65175000D01*
G75*
G02*
X121900000Y-64975000I0J200000D01*
G01*
X121900000Y-63975000D01*
G75*
G02*
X122100000Y-63775000I200000J0D01*
G01*
X123700000Y-63775000D01*
G75*
G02*
X123900000Y-63975000I0J-200000D01*
G01*
G37*
D15*
X201780000Y-52400000D03*
D12*
X192890000Y-54940001D03*
D15*
X191620000Y-52400000D03*
D14*
X192200000Y-52400000D03*
D12*
X199240000Y-57480000D03*
G36*
G01*
X201050000Y-58520000D02*
X201050000Y-56520000D01*
G75*
G02*
X201250000Y-56320000I200000J0D01*
G01*
X203550000Y-56320000D01*
G75*
G02*
X203750000Y-56520000I0J-200000D01*
G01*
X203750000Y-58520000D01*
G75*
G02*
X203550000Y-58720000I-200000J0D01*
G01*
X201250000Y-58720000D01*
G75*
G02*
X201050000Y-58520000I0J200000D01*
G01*
G37*
G36*
G01*
X188350000Y-55980000D02*
X188350000Y-53980000D01*
G75*
G02*
X188550000Y-53780000I200000J0D01*
G01*
X190850000Y-53780000D01*
G75*
G02*
X191050000Y-53980000I0J-200000D01*
G01*
X191050000Y-55980000D01*
G75*
G02*
X190850000Y-56180000I-200000J0D01*
G01*
X188550000Y-56180000D01*
G75*
G02*
X188350000Y-55980000I0J200000D01*
G01*
G37*
D14*
X201200000Y-52400000D03*
D12*
X200510000Y-54940000D03*
D13*
X196700000Y-52400000D03*
D12*
X194160000Y-57480000D03*
G36*
G01*
X195300000Y-45525000D02*
X195300000Y-46525000D01*
G75*
G02*
X195100000Y-46725000I-200000J0D01*
G01*
X193500000Y-46725000D01*
G75*
G02*
X193300000Y-46525000I0J200000D01*
G01*
X193300000Y-45525000D01*
G75*
G02*
X193500000Y-45325000I200000J0D01*
G01*
X195100000Y-45325000D01*
G75*
G02*
X195300000Y-45525000I0J-200000D01*
G01*
G37*
G36*
G01*
X195300000Y-47275000D02*
X195300000Y-48275000D01*
G75*
G02*
X195100000Y-48475000I-200000J0D01*
G01*
X193500000Y-48475000D01*
G75*
G02*
X193300000Y-48275000I0J200000D01*
G01*
X193300000Y-47275000D01*
G75*
G02*
X193500000Y-47075000I200000J0D01*
G01*
X195100000Y-47075000D01*
G75*
G02*
X195300000Y-47275000I0J-200000D01*
G01*
G37*
G36*
G01*
X200100000Y-45525000D02*
X200100000Y-46525000D01*
G75*
G02*
X199900000Y-46725000I-200000J0D01*
G01*
X198300000Y-46725000D01*
G75*
G02*
X198100000Y-46525000I0J200000D01*
G01*
X198100000Y-45525000D01*
G75*
G02*
X198300000Y-45325000I200000J0D01*
G01*
X199900000Y-45325000D01*
G75*
G02*
X200100000Y-45525000I0J-200000D01*
G01*
G37*
G36*
G01*
X200100000Y-47275000D02*
X200100000Y-48275000D01*
G75*
G02*
X199900000Y-48475000I-200000J0D01*
G01*
X198300000Y-48475000D01*
G75*
G02*
X198100000Y-48275000I0J200000D01*
G01*
X198100000Y-47275000D01*
G75*
G02*
X198300000Y-47075000I200000J0D01*
G01*
X199900000Y-47075000D01*
G75*
G02*
X200100000Y-47275000I0J-200000D01*
G01*
G37*
D15*
X182680000Y-47500000D03*
D12*
X173790000Y-50040001D03*
D15*
X172520000Y-47500000D03*
D14*
X173100000Y-47500000D03*
D12*
X180140000Y-52580000D03*
G36*
G01*
X181950000Y-53620000D02*
X181950000Y-51620000D01*
G75*
G02*
X182150000Y-51420000I200000J0D01*
G01*
X184450000Y-51420000D01*
G75*
G02*
X184650000Y-51620000I0J-200000D01*
G01*
X184650000Y-53620000D01*
G75*
G02*
X184450000Y-53820000I-200000J0D01*
G01*
X182150000Y-53820000D01*
G75*
G02*
X181950000Y-53620000I0J200000D01*
G01*
G37*
G36*
G01*
X169250000Y-51080000D02*
X169250000Y-49080000D01*
G75*
G02*
X169450000Y-48880000I200000J0D01*
G01*
X171750000Y-48880000D01*
G75*
G02*
X171950000Y-49080000I0J-200000D01*
G01*
X171950000Y-51080000D01*
G75*
G02*
X171750000Y-51280000I-200000J0D01*
G01*
X169450000Y-51280000D01*
G75*
G02*
X169250000Y-51080000I0J200000D01*
G01*
G37*
D14*
X182100000Y-47500000D03*
D12*
X181410000Y-50040000D03*
D13*
X177600000Y-47500000D03*
D12*
X175060000Y-52580000D03*
G36*
G01*
X176200000Y-40625000D02*
X176200000Y-41625000D01*
G75*
G02*
X176000000Y-41825000I-200000J0D01*
G01*
X174400000Y-41825000D01*
G75*
G02*
X174200000Y-41625000I0J200000D01*
G01*
X174200000Y-40625000D01*
G75*
G02*
X174400000Y-40425000I200000J0D01*
G01*
X176000000Y-40425000D01*
G75*
G02*
X176200000Y-40625000I0J-200000D01*
G01*
G37*
G36*
G01*
X176200000Y-42375000D02*
X176200000Y-43375000D01*
G75*
G02*
X176000000Y-43575000I-200000J0D01*
G01*
X174400000Y-43575000D01*
G75*
G02*
X174200000Y-43375000I0J200000D01*
G01*
X174200000Y-42375000D01*
G75*
G02*
X174400000Y-42175000I200000J0D01*
G01*
X176000000Y-42175000D01*
G75*
G02*
X176200000Y-42375000I0J-200000D01*
G01*
G37*
G36*
G01*
X181000000Y-40625000D02*
X181000000Y-41625000D01*
G75*
G02*
X180800000Y-41825000I-200000J0D01*
G01*
X179200000Y-41825000D01*
G75*
G02*
X179000000Y-41625000I0J200000D01*
G01*
X179000000Y-40625000D01*
G75*
G02*
X179200000Y-40425000I200000J0D01*
G01*
X180800000Y-40425000D01*
G75*
G02*
X181000000Y-40625000I0J-200000D01*
G01*
G37*
G36*
G01*
X181000000Y-42375000D02*
X181000000Y-43375000D01*
G75*
G02*
X180800000Y-43575000I-200000J0D01*
G01*
X179200000Y-43575000D01*
G75*
G02*
X179000000Y-43375000I0J200000D01*
G01*
X179000000Y-42375000D01*
G75*
G02*
X179200000Y-42175000I200000J0D01*
G01*
X180800000Y-42175000D01*
G75*
G02*
X181000000Y-42375000I0J-200000D01*
G01*
G37*
D15*
X163680000Y-45000000D03*
D12*
X154790000Y-47540001D03*
D15*
X153520000Y-45000000D03*
D14*
X154100000Y-45000000D03*
D12*
X161140000Y-50080000D03*
G36*
G01*
X162950000Y-51120000D02*
X162950000Y-49120000D01*
G75*
G02*
X163150000Y-48920000I200000J0D01*
G01*
X165450000Y-48920000D01*
G75*
G02*
X165650000Y-49120000I0J-200000D01*
G01*
X165650000Y-51120000D01*
G75*
G02*
X165450000Y-51320000I-200000J0D01*
G01*
X163150000Y-51320000D01*
G75*
G02*
X162950000Y-51120000I0J200000D01*
G01*
G37*
G36*
G01*
X150250000Y-48580000D02*
X150250000Y-46580000D01*
G75*
G02*
X150450000Y-46380000I200000J0D01*
G01*
X152750000Y-46380000D01*
G75*
G02*
X152950000Y-46580000I0J-200000D01*
G01*
X152950000Y-48580000D01*
G75*
G02*
X152750000Y-48780000I-200000J0D01*
G01*
X150450000Y-48780000D01*
G75*
G02*
X150250000Y-48580000I0J200000D01*
G01*
G37*
D14*
X163100000Y-45000000D03*
D12*
X162410000Y-47540000D03*
D13*
X158600000Y-45000000D03*
D12*
X156060000Y-50080000D03*
G36*
G01*
X157200000Y-38125000D02*
X157200000Y-39125000D01*
G75*
G02*
X157000000Y-39325000I-200000J0D01*
G01*
X155400000Y-39325000D01*
G75*
G02*
X155200000Y-39125000I0J200000D01*
G01*
X155200000Y-38125000D01*
G75*
G02*
X155400000Y-37925000I200000J0D01*
G01*
X157000000Y-37925000D01*
G75*
G02*
X157200000Y-38125000I0J-200000D01*
G01*
G37*
G36*
G01*
X157200000Y-39875000D02*
X157200000Y-40875000D01*
G75*
G02*
X157000000Y-41075000I-200000J0D01*
G01*
X155400000Y-41075000D01*
G75*
G02*
X155200000Y-40875000I0J200000D01*
G01*
X155200000Y-39875000D01*
G75*
G02*
X155400000Y-39675000I200000J0D01*
G01*
X157000000Y-39675000D01*
G75*
G02*
X157200000Y-39875000I0J-200000D01*
G01*
G37*
G36*
G01*
X162000000Y-38125000D02*
X162000000Y-39125000D01*
G75*
G02*
X161800000Y-39325000I-200000J0D01*
G01*
X160200000Y-39325000D01*
G75*
G02*
X160000000Y-39125000I0J200000D01*
G01*
X160000000Y-38125000D01*
G75*
G02*
X160200000Y-37925000I200000J0D01*
G01*
X161800000Y-37925000D01*
G75*
G02*
X162000000Y-38125000I0J-200000D01*
G01*
G37*
G36*
G01*
X162000000Y-39875000D02*
X162000000Y-40875000D01*
G75*
G02*
X161800000Y-41075000I-200000J0D01*
G01*
X160200000Y-41075000D01*
G75*
G02*
X160000000Y-40875000I0J200000D01*
G01*
X160000000Y-39875000D01*
G75*
G02*
X160200000Y-39675000I200000J0D01*
G01*
X161800000Y-39675000D01*
G75*
G02*
X162000000Y-39875000I0J-200000D01*
G01*
G37*
D15*
X125580000Y-50000000D03*
D12*
X116690000Y-52540001D03*
D15*
X115420000Y-50000000D03*
D14*
X116000000Y-50000000D03*
D12*
X123040000Y-55080000D03*
G36*
G01*
X124850000Y-56120000D02*
X124850000Y-54120000D01*
G75*
G02*
X125050000Y-53920000I200000J0D01*
G01*
X127350000Y-53920000D01*
G75*
G02*
X127550000Y-54120000I0J-200000D01*
G01*
X127550000Y-56120000D01*
G75*
G02*
X127350000Y-56320000I-200000J0D01*
G01*
X125050000Y-56320000D01*
G75*
G02*
X124850000Y-56120000I0J200000D01*
G01*
G37*
G36*
G01*
X112150000Y-53580000D02*
X112150000Y-51580000D01*
G75*
G02*
X112350000Y-51380000I200000J0D01*
G01*
X114650000Y-51380000D01*
G75*
G02*
X114850000Y-51580000I0J-200000D01*
G01*
X114850000Y-53580000D01*
G75*
G02*
X114650000Y-53780000I-200000J0D01*
G01*
X112350000Y-53780000D01*
G75*
G02*
X112150000Y-53580000I0J200000D01*
G01*
G37*
D14*
X125000000Y-50000000D03*
D12*
X124310000Y-52540000D03*
D13*
X120500000Y-50000000D03*
D12*
X117960000Y-55080000D03*
G36*
G01*
X119100000Y-43125000D02*
X119100000Y-44125000D01*
G75*
G02*
X118900000Y-44325000I-200000J0D01*
G01*
X117300000Y-44325000D01*
G75*
G02*
X117100000Y-44125000I0J200000D01*
G01*
X117100000Y-43125000D01*
G75*
G02*
X117300000Y-42925000I200000J0D01*
G01*
X118900000Y-42925000D01*
G75*
G02*
X119100000Y-43125000I0J-200000D01*
G01*
G37*
G36*
G01*
X119100000Y-44875000D02*
X119100000Y-45875000D01*
G75*
G02*
X118900000Y-46075000I-200000J0D01*
G01*
X117300000Y-46075000D01*
G75*
G02*
X117100000Y-45875000I0J200000D01*
G01*
X117100000Y-44875000D01*
G75*
G02*
X117300000Y-44675000I200000J0D01*
G01*
X118900000Y-44675000D01*
G75*
G02*
X119100000Y-44875000I0J-200000D01*
G01*
G37*
G36*
G01*
X123900000Y-43125000D02*
X123900000Y-44125000D01*
G75*
G02*
X123700000Y-44325000I-200000J0D01*
G01*
X122100000Y-44325000D01*
G75*
G02*
X121900000Y-44125000I0J200000D01*
G01*
X121900000Y-43125000D01*
G75*
G02*
X122100000Y-42925000I200000J0D01*
G01*
X123700000Y-42925000D01*
G75*
G02*
X123900000Y-43125000I0J-200000D01*
G01*
G37*
G36*
G01*
X123900000Y-44875000D02*
X123900000Y-45875000D01*
G75*
G02*
X123700000Y-46075000I-200000J0D01*
G01*
X122100000Y-46075000D01*
G75*
G02*
X121900000Y-45875000I0J200000D01*
G01*
X121900000Y-44875000D01*
G75*
G02*
X122100000Y-44675000I200000J0D01*
G01*
X123700000Y-44675000D01*
G75*
G02*
X123900000Y-44875000I0J-200000D01*
G01*
G37*
D11*
X181427000Y-114706600D03*
X178827000Y-114706600D03*
G36*
G01*
X177289000Y-113944600D02*
X177289000Y-115468600D01*
G75*
G02*
X177089000Y-115668600I-200000J0D01*
G01*
X175565000Y-115668600D01*
G75*
G02*
X175365000Y-115468600I0J200000D01*
G01*
X175365000Y-113944600D01*
G75*
G02*
X175565000Y-113744600I200000J0D01*
G01*
X177089000Y-113744600D01*
G75*
G02*
X177289000Y-113944600I0J-200000D01*
G01*
G37*
X185500000Y-96050000D03*
X185500000Y-98650000D03*
G36*
G01*
X184738000Y-100188000D02*
X186262000Y-100188000D01*
G75*
G02*
X186462000Y-100388000I0J-200000D01*
G01*
X186462000Y-101912000D01*
G75*
G02*
X186262000Y-102112000I-200000J0D01*
G01*
X184738000Y-102112000D01*
G75*
G02*
X184538000Y-101912000I0J200000D01*
G01*
X184538000Y-100388000D01*
G75*
G02*
X184738000Y-100188000I200000J0D01*
G01*
G37*
X93478815Y-47505745D03*
X108718815Y-65285745D03*
X93478815Y-57665745D03*
X108718815Y-55125745D03*
X108718815Y-50045745D03*
X93478815Y-67825745D03*
X108718815Y-47505745D03*
X108718815Y-42425745D03*
X93478815Y-62745745D03*
X108718815Y-70365745D03*
X93478815Y-55125745D03*
X93478815Y-44965745D03*
X93478815Y-50045745D03*
X93478815Y-52585745D03*
X93478815Y-65285745D03*
X93478815Y-60205745D03*
X108718815Y-62745745D03*
X108718815Y-60205745D03*
X93478815Y-70365745D03*
X108718815Y-67825745D03*
X108718815Y-44965745D03*
X93478815Y-42425745D03*
X108718815Y-57665745D03*
X108718815Y-52585745D03*
X92180000Y-41230000D03*
X92180000Y-43770000D03*
X92180000Y-46310000D03*
X92180000Y-48850000D03*
X92180000Y-51390000D03*
X92180000Y-53930000D03*
X92180000Y-56470000D03*
X92180000Y-59010000D03*
X92180000Y-61550000D03*
X92180000Y-64090000D03*
X92180000Y-66630000D03*
X92180000Y-69170000D03*
X107420000Y-69170000D03*
X107420000Y-66630000D03*
X107420000Y-64090000D03*
X107420000Y-61550000D03*
X107420000Y-59010000D03*
X107420000Y-56470000D03*
X107420000Y-53930000D03*
X107420000Y-51390000D03*
X107420000Y-48850000D03*
X107420000Y-46310000D03*
X107420000Y-43770000D03*
X107420000Y-41230000D03*
D16*
X84500000Y-42750000D03*
X105750000Y-91750000D03*
D17*
X96320000Y-74600000D03*
X93780000Y-74600000D03*
X91240000Y-74600000D03*
X88700000Y-74600000D03*
G36*
G01*
X85428500Y-73982120D02*
X86571500Y-73982120D01*
G75*
G02*
X86771500Y-74182120I0J-200000D01*
G01*
X86771500Y-74817120D01*
G75*
G02*
X86571500Y-75017120I-200000J0D01*
G01*
X85428500Y-75017120D01*
G75*
G02*
X85228500Y-74817120I0J200000D01*
G01*
X85228500Y-74182120D01*
G75*
G02*
X85428500Y-73982120I200000J0D01*
G01*
G37*
G36*
G01*
X85428500Y-74982880D02*
X86571500Y-74982880D01*
G75*
G02*
X86771500Y-75182880I0J-200000D01*
G01*
X86771500Y-75817880D01*
G75*
G02*
X86571500Y-76017880I-200000J0D01*
G01*
X85428500Y-76017880D01*
G75*
G02*
X85228500Y-75817880I0J200000D01*
G01*
X85228500Y-75182880D01*
G75*
G02*
X85428500Y-74982880I200000J0D01*
G01*
G37*
D18*
X82000000Y-72250000D03*
X82000000Y-78750000D03*
G36*
G01*
X97271500Y-69317120D02*
X96128500Y-69317120D01*
G75*
G02*
X95928500Y-69117120I0J200000D01*
G01*
X95928500Y-68482120D01*
G75*
G02*
X96128500Y-68282120I200000J0D01*
G01*
X97271500Y-68282120D01*
G75*
G02*
X97471500Y-68482120I0J-200000D01*
G01*
X97471500Y-69117120D01*
G75*
G02*
X97271500Y-69317120I-200000J0D01*
G01*
G37*
G36*
G01*
X97271500Y-70317880D02*
X96128500Y-70317880D01*
G75*
G02*
X95928500Y-70117880I0J200000D01*
G01*
X95928500Y-69482880D01*
G75*
G02*
X96128500Y-69282880I200000J0D01*
G01*
X97271500Y-69282880D01*
G75*
G02*
X97471500Y-69482880I0J-200000D01*
G01*
X97471500Y-70117880D01*
G75*
G02*
X97271500Y-70317880I-200000J0D01*
G01*
G37*
G36*
G01*
X99771500Y-69317120D02*
X98628500Y-69317120D01*
G75*
G02*
X98428500Y-69117120I0J200000D01*
G01*
X98428500Y-68482120D01*
G75*
G02*
X98628500Y-68282120I200000J0D01*
G01*
X99771500Y-68282120D01*
G75*
G02*
X99971500Y-68482120I0J-200000D01*
G01*
X99971500Y-69117120D01*
G75*
G02*
X99771500Y-69317120I-200000J0D01*
G01*
G37*
G36*
G01*
X99771500Y-70317880D02*
X98628500Y-70317880D01*
G75*
G02*
X98428500Y-70117880I0J200000D01*
G01*
X98428500Y-69482880D01*
G75*
G02*
X98628500Y-69282880I200000J0D01*
G01*
X99771500Y-69282880D01*
G75*
G02*
X99971500Y-69482880I0J-200000D01*
G01*
X99971500Y-70117880D01*
G75*
G02*
X99771500Y-70317880I-200000J0D01*
G01*
G37*
G36*
G01*
X102271500Y-69317120D02*
X101128500Y-69317120D01*
G75*
G02*
X100928500Y-69117120I0J200000D01*
G01*
X100928500Y-68482120D01*
G75*
G02*
X101128500Y-68282120I200000J0D01*
G01*
X102271500Y-68282120D01*
G75*
G02*
X102471500Y-68482120I0J-200000D01*
G01*
X102471500Y-69117120D01*
G75*
G02*
X102271500Y-69317120I-200000J0D01*
G01*
G37*
G36*
G01*
X102271500Y-70317880D02*
X101128500Y-70317880D01*
G75*
G02*
X100928500Y-70117880I0J200000D01*
G01*
X100928500Y-69482880D01*
G75*
G02*
X101128500Y-69282880I200000J0D01*
G01*
X102271500Y-69282880D01*
G75*
G02*
X102471500Y-69482880I0J-200000D01*
G01*
X102471500Y-70117880D01*
G75*
G02*
X102271500Y-70317880I-200000J0D01*
G01*
G37*
G36*
G01*
X104871500Y-69317120D02*
X103728500Y-69317120D01*
G75*
G02*
X103528500Y-69117120I0J200000D01*
G01*
X103528500Y-68482120D01*
G75*
G02*
X103728500Y-68282120I200000J0D01*
G01*
X104871500Y-68282120D01*
G75*
G02*
X105071500Y-68482120I0J-200000D01*
G01*
X105071500Y-69117120D01*
G75*
G02*
X104871500Y-69317120I-200000J0D01*
G01*
G37*
G36*
G01*
X104871500Y-70317880D02*
X103728500Y-70317880D01*
G75*
G02*
X103528500Y-70117880I0J200000D01*
G01*
X103528500Y-69482880D01*
G75*
G02*
X103728500Y-69282880I200000J0D01*
G01*
X104871500Y-69282880D01*
G75*
G02*
X105071500Y-69482880I0J-200000D01*
G01*
X105071500Y-70117880D01*
G75*
G02*
X104871500Y-70317880I-200000J0D01*
G01*
G37*
D17*
X98579272Y-80311965D03*
X93499272Y-80311965D03*
X98579272Y-78061965D03*
X93499272Y-78061965D03*
X102700000Y-78100000D03*
X102700000Y-80300000D03*
D19*
X206000000Y-100000000D03*
X130000000Y-97500000D03*
X130000000Y-57000000D03*
D18*
X107000000Y-107000000D03*
X107000000Y-102000000D03*
G36*
G01*
X98200000Y-111100000D02*
X98200000Y-109100000D01*
G75*
G02*
X98400000Y-108900000I200000J0D01*
G01*
X101600000Y-108900000D01*
G75*
G02*
X101800000Y-109100000I0J-200000D01*
G01*
X101800000Y-111100000D01*
G75*
G02*
X101600000Y-111300000I-200000J0D01*
G01*
X98400000Y-111300000D01*
G75*
G02*
X98200000Y-111100000I0J200000D01*
G01*
G37*
G36*
G01*
X98200000Y-99900000D02*
X98200000Y-97900000D01*
G75*
G02*
X98400000Y-97700000I200000J0D01*
G01*
X101600000Y-97700000D01*
G75*
G02*
X101800000Y-97900000I0J-200000D01*
G01*
X101800000Y-99900000D01*
G75*
G02*
X101600000Y-100100000I-200000J0D01*
G01*
X98400000Y-100100000D01*
G75*
G02*
X98200000Y-99900000I0J200000D01*
G01*
G37*
X92500000Y-107000000D03*
X92500000Y-104500000D03*
X92500000Y-102000000D03*
D19*
X103000000Y-119000000D03*
X206000000Y-61500000D03*
D20*
X86500000Y-87050000D03*
X79500000Y-87050000D03*
D21*
X88300000Y-89150000D03*
X89800000Y-84950000D03*
X81300000Y-89150000D03*
X84300000Y-89150000D03*
D20*
X79500000Y-85300000D03*
X86500000Y-85300000D03*
D21*
X81300000Y-83200000D03*
X84300000Y-83200000D03*
X88300000Y-83200000D03*
X89800000Y-87400000D03*
M02*
