G04 #@! TF.GenerationSoftware,KiCad,Pcbnew,(5.1.10-1-10_14)*
G04 #@! TF.CreationDate,2021-06-06T18:52:18-07:00*
G04 #@! TF.ProjectId,Soflyria,536f666c-7972-4696-912e-6b696361645f,rev?*
G04 #@! TF.SameCoordinates,Original*
G04 #@! TF.FileFunction,Other,Fab,Top*
%FSLAX46Y46*%
G04 Gerber Fmt 4.6, Leading zero omitted, Abs format (unit mm)*
G04 Created by KiCad (PCBNEW (5.1.10-1-10_14)) date 2021-06-06 18:52:18*
%MOMM*%
%LPD*%
G01*
G04 APERTURE LIST*
%ADD10C,0.150000*%
%ADD11C,0.120000*%
G04 APERTURE END LIST*
D10*
X107100000Y-122380000D02*
X107100000Y-125880000D01*
X110600000Y-122380000D02*
X110600000Y-125880000D01*
X107100000Y-122380000D02*
X110600000Y-122380000D01*
X110600000Y-125880000D02*
X107100000Y-125880000D01*
X122250000Y-61250000D02*
X122250000Y-57750000D01*
X118750000Y-61250000D02*
X118750000Y-57750000D01*
X122250000Y-61250000D02*
X118750000Y-61250000D01*
X118750000Y-57750000D02*
X122250000Y-57750000D01*
X156750000Y-52040000D02*
X156750000Y-55540000D01*
X160250000Y-52040000D02*
X160250000Y-55540000D01*
X156750000Y-52040000D02*
X160250000Y-52040000D01*
X160250000Y-55540000D02*
X156750000Y-55540000D01*
X199250000Y-63000000D02*
X199250000Y-59500000D01*
X195750000Y-63000000D02*
X195750000Y-59500000D01*
X199250000Y-63000000D02*
X195750000Y-63000000D01*
X195750000Y-59500000D02*
X199250000Y-59500000D01*
X147333600Y-116512600D02*
X147333600Y-120012600D01*
X150833600Y-116512600D02*
X150833600Y-120012600D01*
X147333600Y-116512600D02*
X150833600Y-116512600D01*
X150833600Y-120012600D02*
X147333600Y-120012600D01*
X183300000Y-118570000D02*
X183300000Y-122070000D01*
X186800000Y-118570000D02*
X186800000Y-122070000D01*
X183300000Y-118570000D02*
X186800000Y-118570000D01*
X186800000Y-122070000D02*
X183300000Y-122070000D01*
X104000000Y-84750000D02*
X104000000Y-88250000D01*
X107500000Y-84750000D02*
X107500000Y-88250000D01*
X104000000Y-84750000D02*
X107500000Y-84750000D01*
X107500000Y-88250000D02*
X104000000Y-88250000D01*
X214050000Y-44650000D02*
X217550000Y-44650000D01*
X217550000Y-49150000D02*
X214050000Y-49150000D01*
X214050000Y-49150000D02*
X214050000Y-44650000D01*
X217550000Y-49150000D02*
X217550000Y-44650000D01*
X156850000Y-94440000D02*
X160350000Y-94440000D01*
X160350000Y-98940000D02*
X156850000Y-98940000D01*
X156850000Y-98940000D02*
X156850000Y-94440000D01*
X160350000Y-98940000D02*
X160350000Y-94440000D01*
X194950000Y-101750000D02*
X198450000Y-101750000D01*
X198450000Y-106250000D02*
X194950000Y-106250000D01*
X194950000Y-106250000D02*
X194950000Y-101750000D01*
X198450000Y-106250000D02*
X198450000Y-101750000D01*
X213950000Y-63550000D02*
X217450000Y-63550000D01*
X217450000Y-68050000D02*
X213950000Y-68050000D01*
X213950000Y-68050000D02*
X213950000Y-63550000D01*
X217450000Y-68050000D02*
X217450000Y-63550000D01*
X194950000Y-63550000D02*
X198450000Y-63550000D01*
X198450000Y-68050000D02*
X194950000Y-68050000D01*
X194950000Y-68050000D02*
X194950000Y-63550000D01*
X198450000Y-68050000D02*
X198450000Y-63550000D01*
X194950000Y-82750000D02*
X198450000Y-82750000D01*
X198450000Y-87250000D02*
X194950000Y-87250000D01*
X194950000Y-87250000D02*
X194950000Y-82750000D01*
X198450000Y-87250000D02*
X198450000Y-82750000D01*
X137750000Y-39750000D02*
X141250000Y-39750000D01*
X141250000Y-44250000D02*
X137750000Y-44250000D01*
X137750000Y-44250000D02*
X137750000Y-39750000D01*
X141250000Y-44250000D02*
X141250000Y-39750000D01*
X175850000Y-116050000D02*
X179350000Y-116050000D01*
X179350000Y-120550000D02*
X175850000Y-120550000D01*
X175850000Y-120550000D02*
X175850000Y-116050000D01*
X179350000Y-120550000D02*
X179350000Y-116050000D01*
X156850000Y-113540000D02*
X160350000Y-113540000D01*
X160350000Y-118040000D02*
X156850000Y-118040000D01*
X156850000Y-118040000D02*
X156850000Y-113540000D01*
X160350000Y-118040000D02*
X160350000Y-113540000D01*
X137750000Y-115950000D02*
X141250000Y-115950000D01*
X141250000Y-120450000D02*
X137750000Y-120450000D01*
X137750000Y-120450000D02*
X137750000Y-115950000D01*
X141250000Y-120450000D02*
X141250000Y-115950000D01*
X113903782Y-121367008D02*
X117284523Y-120461142D01*
X118449208Y-124807808D02*
X115068468Y-125713674D01*
X115068468Y-125713674D02*
X113903782Y-121367008D01*
X118449208Y-124807808D02*
X117284523Y-120461142D01*
X102546697Y-128009456D02*
X104296697Y-131040544D01*
X100399583Y-133290544D02*
X98649583Y-130259456D01*
X98649583Y-130259456D02*
X102546697Y-128009456D01*
X100399583Y-133290544D02*
X104296697Y-131040544D01*
X214000000Y-101750000D02*
X217500000Y-101750000D01*
X217500000Y-106250000D02*
X214000000Y-106250000D01*
X214000000Y-106250000D02*
X214000000Y-101750000D01*
X217500000Y-106250000D02*
X217500000Y-101750000D01*
X175850000Y-96950000D02*
X179350000Y-96950000D01*
X179350000Y-101450000D02*
X175850000Y-101450000D01*
X175850000Y-101450000D02*
X175850000Y-96950000D01*
X179350000Y-101450000D02*
X179350000Y-96950000D01*
X137750000Y-96950000D02*
X141250000Y-96950000D01*
X141250000Y-101450000D02*
X137750000Y-101450000D01*
X137750000Y-101450000D02*
X137750000Y-96950000D01*
X141250000Y-101450000D02*
X141250000Y-96950000D01*
X118750000Y-99350000D02*
X122250000Y-99350000D01*
X122250000Y-103850000D02*
X118750000Y-103850000D01*
X118750000Y-103850000D02*
X118750000Y-99350000D01*
X122250000Y-103850000D02*
X122250000Y-99350000D01*
X213950000Y-82750000D02*
X217450000Y-82750000D01*
X217450000Y-87250000D02*
X213950000Y-87250000D01*
X213950000Y-87250000D02*
X213950000Y-82750000D01*
X217450000Y-87250000D02*
X217450000Y-82750000D01*
X175850000Y-77850000D02*
X179350000Y-77850000D01*
X179350000Y-82350000D02*
X175850000Y-82350000D01*
X175850000Y-82350000D02*
X175850000Y-77850000D01*
X179350000Y-82350000D02*
X179350000Y-77850000D01*
X156850000Y-75440000D02*
X160350000Y-75440000D01*
X160350000Y-79940000D02*
X156850000Y-79940000D01*
X156850000Y-79940000D02*
X156850000Y-75440000D01*
X160350000Y-79940000D02*
X160350000Y-75440000D01*
X137750000Y-77850000D02*
X141250000Y-77850000D01*
X141250000Y-82350000D02*
X137750000Y-82350000D01*
X137750000Y-82350000D02*
X137750000Y-77850000D01*
X141250000Y-82350000D02*
X141250000Y-77850000D01*
X118750000Y-80350000D02*
X122250000Y-80350000D01*
X122250000Y-84850000D02*
X118750000Y-84850000D01*
X118750000Y-84850000D02*
X118750000Y-80350000D01*
X122250000Y-84850000D02*
X122250000Y-80350000D01*
X175850000Y-58750000D02*
X179350000Y-58750000D01*
X179350000Y-63250000D02*
X175850000Y-63250000D01*
X175850000Y-63250000D02*
X175850000Y-58750000D01*
X179350000Y-63250000D02*
X179350000Y-58750000D01*
X156850000Y-56340000D02*
X160350000Y-56340000D01*
X160350000Y-60840000D02*
X156850000Y-60840000D01*
X156850000Y-60840000D02*
X156850000Y-56340000D01*
X160350000Y-60840000D02*
X160350000Y-56340000D01*
X137750000Y-58850000D02*
X141250000Y-58850000D01*
X141250000Y-63350000D02*
X137750000Y-63350000D01*
X137750000Y-63350000D02*
X137750000Y-58850000D01*
X141250000Y-63350000D02*
X141250000Y-58850000D01*
X118750000Y-61350000D02*
X122250000Y-61350000D01*
X122250000Y-65850000D02*
X118750000Y-65850000D01*
X118750000Y-65850000D02*
X118750000Y-61350000D01*
X122250000Y-65850000D02*
X122250000Y-61350000D01*
X194950000Y-44650000D02*
X198450000Y-44650000D01*
X198450000Y-49150000D02*
X194950000Y-49150000D01*
X194950000Y-49150000D02*
X194950000Y-44650000D01*
X198450000Y-49150000D02*
X198450000Y-44650000D01*
X175850000Y-39750000D02*
X179350000Y-39750000D01*
X179350000Y-44250000D02*
X175850000Y-44250000D01*
X175850000Y-44250000D02*
X175850000Y-39750000D01*
X179350000Y-44250000D02*
X179350000Y-39750000D01*
X156850000Y-37250000D02*
X160350000Y-37250000D01*
X160350000Y-41750000D02*
X156850000Y-41750000D01*
X156850000Y-41750000D02*
X156850000Y-37250000D01*
X160350000Y-41750000D02*
X160350000Y-37250000D01*
X118750000Y-42250000D02*
X122250000Y-42250000D01*
X122250000Y-46750000D02*
X118750000Y-46750000D01*
X118750000Y-46750000D02*
X118750000Y-42250000D01*
X122250000Y-46750000D02*
X122250000Y-42250000D01*
D11*
X103000000Y-104500000D02*
G75*
G03*
X103000000Y-104500000I-3000000J0D01*
G01*
X95000000Y-98700000D02*
X106000000Y-98700000D01*
X106000000Y-98700000D02*
X106000000Y-110300000D01*
X106000000Y-110300000D02*
X94000000Y-110300000D01*
X94000000Y-110300000D02*
X94000000Y-99800000D01*
X94000000Y-99800000D02*
X95000000Y-98700000D01*
X100000000Y-101500000D02*
X100000000Y-107500000D01*
X97000000Y-104500000D02*
X103000000Y-104500000D01*
D10*
X82833333Y-40602380D02*
X82833333Y-39602380D01*
X82833333Y-40078571D02*
X83404761Y-40078571D01*
X83404761Y-40602380D02*
X83404761Y-39602380D01*
X84071428Y-39602380D02*
X84261904Y-39602380D01*
X84357142Y-39650000D01*
X84452380Y-39745238D01*
X84500000Y-39935714D01*
X84500000Y-40269047D01*
X84452380Y-40459523D01*
X84357142Y-40554761D01*
X84261904Y-40602380D01*
X84071428Y-40602380D01*
X83976190Y-40554761D01*
X83880952Y-40459523D01*
X83833333Y-40269047D01*
X83833333Y-39935714D01*
X83880952Y-39745238D01*
X83976190Y-39650000D01*
X84071428Y-39602380D01*
X85404761Y-40602380D02*
X84928571Y-40602380D01*
X84928571Y-39602380D01*
X85738095Y-40078571D02*
X86071428Y-40078571D01*
X86214285Y-40602380D02*
X85738095Y-40602380D01*
X85738095Y-39602380D01*
X86214285Y-39602380D01*
X104083333Y-89602380D02*
X104083333Y-88602380D01*
X104083333Y-89078571D02*
X104654761Y-89078571D01*
X104654761Y-89602380D02*
X104654761Y-88602380D01*
X105321428Y-88602380D02*
X105511904Y-88602380D01*
X105607142Y-88650000D01*
X105702380Y-88745238D01*
X105750000Y-88935714D01*
X105750000Y-89269047D01*
X105702380Y-89459523D01*
X105607142Y-89554761D01*
X105511904Y-89602380D01*
X105321428Y-89602380D01*
X105226190Y-89554761D01*
X105130952Y-89459523D01*
X105083333Y-89269047D01*
X105083333Y-88935714D01*
X105130952Y-88745238D01*
X105226190Y-88650000D01*
X105321428Y-88602380D01*
X106654761Y-89602380D02*
X106178571Y-89602380D01*
X106178571Y-88602380D01*
X106988095Y-89078571D02*
X107321428Y-89078571D01*
X107464285Y-89602380D02*
X106988095Y-89602380D01*
X106988095Y-88602380D01*
X107464285Y-88602380D01*
X92285714Y-112852380D02*
X91952380Y-112376190D01*
X91714285Y-112852380D02*
X91714285Y-111852380D01*
X92095238Y-111852380D01*
X92190476Y-111900000D01*
X92238095Y-111947619D01*
X92285714Y-112042857D01*
X92285714Y-112185714D01*
X92238095Y-112280952D01*
X92190476Y-112328571D01*
X92095238Y-112376190D01*
X91714285Y-112376190D01*
X92857142Y-112852380D02*
X92761904Y-112804761D01*
X92714285Y-112757142D01*
X92666666Y-112661904D01*
X92666666Y-112376190D01*
X92714285Y-112280952D01*
X92761904Y-112233333D01*
X92857142Y-112185714D01*
X93000000Y-112185714D01*
X93095238Y-112233333D01*
X93142857Y-112280952D01*
X93190476Y-112376190D01*
X93190476Y-112661904D01*
X93142857Y-112757142D01*
X93095238Y-112804761D01*
X93000000Y-112852380D01*
X92857142Y-112852380D01*
X93476190Y-112185714D02*
X93857142Y-112185714D01*
X93619047Y-111852380D02*
X93619047Y-112709523D01*
X93666666Y-112804761D01*
X93761904Y-112852380D01*
X93857142Y-112852380D01*
X94619047Y-112852380D02*
X94619047Y-112328571D01*
X94571428Y-112233333D01*
X94476190Y-112185714D01*
X94285714Y-112185714D01*
X94190476Y-112233333D01*
X94619047Y-112804761D02*
X94523809Y-112852380D01*
X94285714Y-112852380D01*
X94190476Y-112804761D01*
X94142857Y-112709523D01*
X94142857Y-112614285D01*
X94190476Y-112519047D01*
X94285714Y-112471428D01*
X94523809Y-112471428D01*
X94619047Y-112423809D01*
X95095238Y-112852380D02*
X95095238Y-112185714D01*
X95095238Y-112376190D02*
X95142857Y-112280952D01*
X95190476Y-112233333D01*
X95285714Y-112185714D01*
X95380952Y-112185714D01*
X95619047Y-112185714D02*
X95857142Y-112852380D01*
X96095238Y-112185714D02*
X95857142Y-112852380D01*
X95761904Y-113090476D01*
X95714285Y-113138095D01*
X95619047Y-113185714D01*
X96238095Y-112947619D02*
X97000000Y-112947619D01*
X97238095Y-112328571D02*
X97571428Y-112328571D01*
X97714285Y-112852380D02*
X97238095Y-112852380D01*
X97238095Y-111852380D01*
X97714285Y-111852380D01*
X98142857Y-112185714D02*
X98142857Y-112852380D01*
X98142857Y-112280952D02*
X98190476Y-112233333D01*
X98285714Y-112185714D01*
X98428571Y-112185714D01*
X98523809Y-112233333D01*
X98571428Y-112328571D01*
X98571428Y-112852380D01*
X99476190Y-112804761D02*
X99380952Y-112852380D01*
X99190476Y-112852380D01*
X99095238Y-112804761D01*
X99047619Y-112757142D01*
X99000000Y-112661904D01*
X99000000Y-112376190D01*
X99047619Y-112280952D01*
X99095238Y-112233333D01*
X99190476Y-112185714D01*
X99380952Y-112185714D01*
X99476190Y-112233333D01*
X100047619Y-112852380D02*
X99952380Y-112804761D01*
X99904761Y-112757142D01*
X99857142Y-112661904D01*
X99857142Y-112376190D01*
X99904761Y-112280952D01*
X99952380Y-112233333D01*
X100047619Y-112185714D01*
X100190476Y-112185714D01*
X100285714Y-112233333D01*
X100333333Y-112280952D01*
X100380952Y-112376190D01*
X100380952Y-112661904D01*
X100333333Y-112757142D01*
X100285714Y-112804761D01*
X100190476Y-112852380D01*
X100047619Y-112852380D01*
X101238095Y-112852380D02*
X101238095Y-111852380D01*
X101238095Y-112804761D02*
X101142857Y-112852380D01*
X100952380Y-112852380D01*
X100857142Y-112804761D01*
X100809523Y-112757142D01*
X100761904Y-112661904D01*
X100761904Y-112376190D01*
X100809523Y-112280952D01*
X100857142Y-112233333D01*
X100952380Y-112185714D01*
X101142857Y-112185714D01*
X101238095Y-112233333D01*
X102095238Y-112804761D02*
X102000000Y-112852380D01*
X101809523Y-112852380D01*
X101714285Y-112804761D01*
X101666666Y-112709523D01*
X101666666Y-112328571D01*
X101714285Y-112233333D01*
X101809523Y-112185714D01*
X102000000Y-112185714D01*
X102095238Y-112233333D01*
X102142857Y-112328571D01*
X102142857Y-112423809D01*
X101666666Y-112519047D01*
X102571428Y-112852380D02*
X102571428Y-112185714D01*
X102571428Y-112376190D02*
X102619047Y-112280952D01*
X102666666Y-112233333D01*
X102761904Y-112185714D01*
X102857142Y-112185714D01*
X102952380Y-112947619D02*
X103714285Y-112947619D01*
X103904761Y-112804761D02*
X104047619Y-112852380D01*
X104285714Y-112852380D01*
X104380952Y-112804761D01*
X104428571Y-112757142D01*
X104476190Y-112661904D01*
X104476190Y-112566666D01*
X104428571Y-112471428D01*
X104380952Y-112423809D01*
X104285714Y-112376190D01*
X104095238Y-112328571D01*
X104000000Y-112280952D01*
X103952380Y-112233333D01*
X103904761Y-112138095D01*
X103904761Y-112042857D01*
X103952380Y-111947619D01*
X104000000Y-111900000D01*
X104095238Y-111852380D01*
X104333333Y-111852380D01*
X104476190Y-111900000D01*
X104809523Y-112185714D02*
X105000000Y-112852380D01*
X105190476Y-112376190D01*
X105380952Y-112852380D01*
X105571428Y-112185714D01*
X105952380Y-112852380D02*
X105952380Y-112185714D01*
X105952380Y-111852380D02*
X105904761Y-111900000D01*
X105952380Y-111947619D01*
X106000000Y-111900000D01*
X105952380Y-111852380D01*
X105952380Y-111947619D01*
X106285714Y-112185714D02*
X106666666Y-112185714D01*
X106428571Y-111852380D02*
X106428571Y-112709523D01*
X106476190Y-112804761D01*
X106571428Y-112852380D01*
X106666666Y-112852380D01*
X107428571Y-112804761D02*
X107333333Y-112852380D01*
X107142857Y-112852380D01*
X107047619Y-112804761D01*
X107000000Y-112757142D01*
X106952380Y-112661904D01*
X106952380Y-112376190D01*
X107000000Y-112280952D01*
X107047619Y-112233333D01*
X107142857Y-112185714D01*
X107333333Y-112185714D01*
X107428571Y-112233333D01*
X107857142Y-112852380D02*
X107857142Y-111852380D01*
X108285714Y-112852380D02*
X108285714Y-112328571D01*
X108238095Y-112233333D01*
X108142857Y-112185714D01*
X108000000Y-112185714D01*
X107904761Y-112233333D01*
X107857142Y-112280952D01*
X83865880Y-86522333D02*
X84580166Y-86522333D01*
X84723023Y-86569952D01*
X84818261Y-86665190D01*
X84865880Y-86808047D01*
X84865880Y-86903285D01*
X83961119Y-86093761D02*
X83913500Y-86046142D01*
X83865880Y-85950904D01*
X83865880Y-85712809D01*
X83913500Y-85617571D01*
X83961119Y-85569952D01*
X84056357Y-85522333D01*
X84151595Y-85522333D01*
X84294452Y-85569952D01*
X84865880Y-86141380D01*
X84865880Y-85522333D01*
M02*
