M48
; DRILL file {KiCad (5.1.10-1-10_14)} date Sunday, June 06, 2021 at 07:22:28 PM
; FORMAT={-:-/ absolute / metric / decimal}
; #@! TF.CreationDate,2021-06-06T19:22:28-07:00
; #@! TF.GenerationSoftware,Kicad,Pcbnew,(5.1.10-1-10_14)
; #@! TF.FileFunction,NonPlated,1,2,NPTH
FMAT,2
METRIC
T1C1.200
T2C1.700
T3C1.900
T4C3.000
T5C4.100
%
G90
G05
T1
X79.5Y-85.3
X79.5Y-87.05
X86.5Y-85.3
X86.5Y-87.05
T2
X94.46Y-129.503
X98.96Y-137.297
X113.253Y-129.565
X116.0Y-50.0
X116.0Y-69.1
X116.0Y-88.1
X116.0Y-107.1
X121.947Y-127.235
X125.0Y-50.0
X125.0Y-69.1
X125.0Y-88.1
X125.0Y-107.1
X135.0Y-47.5
X135.0Y-66.6
X135.0Y-85.6
X135.0Y-104.7
X135.0Y-123.7
X144.0Y-47.5
X144.0Y-66.6
X144.0Y-85.6
X144.0Y-104.7
X144.0Y-123.7
X154.1Y-45.0
X154.1Y-64.09
X154.1Y-83.19
X154.1Y-102.19
X154.1Y-121.29
X163.1Y-45.0
X163.1Y-64.09
X163.1Y-83.19
X163.1Y-102.19
X163.1Y-121.29
X173.1Y-47.5
X173.1Y-66.5
X173.1Y-85.6
X173.1Y-104.7
X173.1Y-123.8
X182.1Y-47.5
X182.1Y-66.5
X182.1Y-85.6
X182.1Y-104.7
X182.1Y-123.8
X192.2Y-52.4
X192.2Y-71.3
X192.2Y-90.5
X192.2Y-109.5
X201.2Y-52.4
X201.2Y-71.3
X201.2Y-90.5
X201.2Y-109.5
X211.2Y-71.3
X211.2Y-90.5
X211.25Y-109.5
X211.3Y-52.4
X220.2Y-71.3
X220.2Y-90.5
X220.25Y-109.5
X220.3Y-52.4
T3
X94.17Y-129.001
X99.25Y-137.799
X112.693Y-129.715
X115.42Y-50.0
X115.42Y-69.1
X115.42Y-88.1
X115.42Y-107.1
X122.507Y-127.085
X125.58Y-50.0
X125.58Y-69.1
X125.58Y-88.1
X125.58Y-107.1
X134.42Y-47.5
X134.42Y-66.6
X134.42Y-85.6
X134.42Y-104.7
X134.42Y-123.7
X144.58Y-47.5
X144.58Y-66.6
X144.58Y-85.6
X144.58Y-104.7
X144.58Y-123.7
X153.52Y-45.0
X153.52Y-64.09
X153.52Y-83.19
X153.52Y-102.19
X153.52Y-121.29
X163.68Y-45.0
X163.68Y-64.09
X163.68Y-83.19
X163.68Y-102.19
X163.68Y-121.29
X172.52Y-47.5
X172.52Y-66.5
X172.52Y-85.6
X172.52Y-104.7
X172.52Y-123.8
X182.68Y-47.5
X182.68Y-66.5
X182.68Y-85.6
X182.68Y-104.7
X182.68Y-123.8
X191.62Y-52.4
X191.62Y-71.3
X191.62Y-90.5
X191.62Y-109.5
X201.78Y-52.4
X201.78Y-71.3
X201.78Y-90.5
X201.78Y-109.5
X210.62Y-71.3
X210.62Y-90.5
X210.67Y-109.5
X210.72Y-52.4
X220.78Y-71.3
X220.78Y-90.5
X220.83Y-109.5
X220.88Y-52.4
T4
X91.041Y-133.74
X92.605Y-131.37
X93.581Y-138.14
X96.415Y-137.97
X114.577Y-131.84
X116.461Y-133.964
X116.69Y-52.54
X116.69Y-71.64
X116.69Y-90.64
X116.69Y-109.64
X117.96Y-55.08
X117.96Y-74.18
X117.96Y-93.18
X117.96Y-112.18
X121.368Y-132.65
X121.938Y-129.867
X123.04Y-55.08
X123.04Y-74.18
X123.04Y-93.18
X123.04Y-112.18
X124.31Y-52.54
X124.31Y-71.64
X124.31Y-90.64
X124.31Y-109.64
X135.69Y-50.04
X135.69Y-69.14
X135.69Y-88.14
X135.69Y-107.24
X135.69Y-126.24
X136.96Y-52.58
X136.96Y-71.68
X136.96Y-90.68
X136.96Y-109.78
X136.96Y-128.78
X142.04Y-52.58
X142.04Y-71.68
X142.04Y-90.68
X142.04Y-109.78
X142.04Y-128.78
X143.31Y-50.04
X143.31Y-69.14
X143.31Y-88.14
X143.31Y-107.24
X143.31Y-126.24
X154.79Y-47.54
X154.79Y-66.63
X154.79Y-85.73
X154.79Y-104.73
X154.79Y-123.83
X156.06Y-50.08
X156.06Y-69.17
X156.06Y-88.27
X156.06Y-107.27
X156.06Y-126.37
X161.14Y-50.08
X161.14Y-69.17
X161.14Y-88.27
X161.14Y-107.27
X161.14Y-126.37
X162.41Y-47.54
X162.41Y-66.63
X162.41Y-85.73
X162.41Y-104.73
X162.41Y-123.83
X173.79Y-50.04
X173.79Y-69.04
X173.79Y-88.14
X173.79Y-107.24
X173.79Y-126.34
X175.06Y-52.58
X175.06Y-71.58
X175.06Y-90.68
X175.06Y-109.78
X175.06Y-128.88
X180.14Y-52.58
X180.14Y-71.58
X180.14Y-90.68
X180.14Y-109.78
X180.14Y-128.88
X181.41Y-50.04
X181.41Y-69.04
X181.41Y-88.14
X181.41Y-107.24
X181.41Y-126.34
X192.89Y-54.94
X192.89Y-73.84
X192.89Y-93.04
X192.89Y-112.04
X194.16Y-57.48
X194.16Y-76.38
X194.16Y-95.58
X194.16Y-114.58
X199.24Y-57.48
X199.24Y-76.38
X199.24Y-95.58
X199.24Y-114.58
X200.51Y-54.94
X200.51Y-73.84
X200.51Y-93.04
X200.51Y-112.04
X211.89Y-73.84
X211.89Y-93.04
X211.94Y-112.04
X211.99Y-54.94
X213.16Y-76.38
X213.16Y-95.58
X213.21Y-114.58
X213.26Y-57.48
X218.24Y-76.38
X218.24Y-95.58
X218.29Y-114.58
X218.34Y-57.48
X219.51Y-73.84
X219.51Y-93.04
X219.56Y-112.04
X219.61Y-54.94
T5
X96.75Y-133.33
X117.6Y-128.4
X120.5Y-50.0
X120.5Y-69.1
X120.5Y-88.1
X120.5Y-107.1
X139.5Y-47.5
X139.5Y-66.6
X139.5Y-85.6
X139.5Y-104.7
X139.5Y-123.7
X158.6Y-45.0
X158.6Y-64.09
X158.6Y-83.19
X158.6Y-102.19
X158.6Y-121.29
X177.6Y-47.5
X177.6Y-66.5
X177.6Y-85.6
X177.6Y-104.7
X177.6Y-123.8
X196.7Y-52.4
X196.7Y-71.3
X196.7Y-90.5
X196.7Y-109.5
X215.7Y-71.3
X215.7Y-90.5
X215.75Y-109.5
X215.8Y-52.4
T0
M30
