G04 #@! TF.GenerationSoftware,KiCad,Pcbnew,(5.1.10-1-10_14)*
G04 #@! TF.CreationDate,2021-06-06T18:52:18-07:00*
G04 #@! TF.ProjectId,Soflyria,536f666c-7972-4696-912e-6b696361645f,rev?*
G04 #@! TF.SameCoordinates,Original*
G04 #@! TF.FileFunction,Legend,Top*
G04 #@! TF.FilePolarity,Positive*
%FSLAX46Y46*%
G04 Gerber Fmt 4.6, Leading zero omitted, Abs format (unit mm)*
G04 Created by KiCad (PCBNEW (5.1.10-1-10_14)) date 2021-06-06 18:52:18*
%MOMM*%
%LPD*%
G01*
G04 APERTURE LIST*
%ADD10C,0.150000*%
%ADD11C,0.200000*%
%ADD12C,0.010000*%
%ADD13C,0.300000*%
%ADD14C,0.400000*%
%ADD15C,0.500000*%
%ADD16C,1.000000*%
%ADD17C,0.800000*%
%ADD18C,3.500000*%
%ADD19C,3.000000*%
%ADD20C,0.120000*%
G04 APERTURE END LIST*
D10*
X188761904Y-97780952D02*
X188761904Y-97819047D01*
X188723809Y-97895238D01*
X188609523Y-98009523D01*
X188380952Y-98200000D01*
X188266666Y-98276190D01*
X188152380Y-98314285D01*
X188076190Y-98314285D01*
X188000000Y-98276190D01*
X187961904Y-98200000D01*
X187961904Y-98161904D01*
X188000000Y-98085714D01*
X188076190Y-98047619D01*
X188114285Y-98047619D01*
X188190476Y-98085714D01*
X188228571Y-98123809D01*
X188380952Y-98352380D01*
X188419047Y-98390476D01*
X188495238Y-98428571D01*
X188609523Y-98428571D01*
X188685714Y-98390476D01*
X188723809Y-98352380D01*
X188761904Y-98276190D01*
X188761904Y-98161904D01*
X188723809Y-98085714D01*
X188685714Y-98047619D01*
X188533333Y-97933333D01*
X188419047Y-97895238D01*
X188342857Y-97895238D01*
X188342857Y-97171428D02*
X188380952Y-97057142D01*
X188419047Y-97019047D01*
X188495238Y-96980952D01*
X188609523Y-96980952D01*
X188685714Y-97019047D01*
X188723809Y-97057142D01*
X188761904Y-97133333D01*
X188761904Y-97438095D01*
X187961904Y-97438095D01*
X187961904Y-97171428D01*
X188000000Y-97095238D01*
X188038095Y-97057142D01*
X188114285Y-97019047D01*
X188190476Y-97019047D01*
X188266666Y-97057142D01*
X188304761Y-97095238D01*
X188342857Y-97171428D01*
X188342857Y-97438095D01*
X188761904Y-96257142D02*
X188761904Y-96638095D01*
X187961904Y-96638095D01*
D11*
X90821428Y-39452380D02*
X90821428Y-38452380D01*
X91202380Y-38452380D01*
X91297619Y-38500000D01*
X91345238Y-38547619D01*
X91392857Y-38642857D01*
X91392857Y-38785714D01*
X91345238Y-38880952D01*
X91297619Y-38928571D01*
X91202380Y-38976190D01*
X90821428Y-38976190D01*
X91821428Y-39452380D02*
X91821428Y-38785714D01*
X91821428Y-38452380D02*
X91773809Y-38500000D01*
X91821428Y-38547619D01*
X91869047Y-38500000D01*
X91821428Y-38452380D01*
X91821428Y-38547619D01*
X92297619Y-38785714D02*
X92297619Y-39452380D01*
X92297619Y-38880952D02*
X92345238Y-38833333D01*
X92440476Y-38785714D01*
X92583333Y-38785714D01*
X92678571Y-38833333D01*
X92726190Y-38928571D01*
X92726190Y-39452380D01*
X93630952Y-38785714D02*
X93630952Y-39595238D01*
X93583333Y-39690476D01*
X93535714Y-39738095D01*
X93440476Y-39785714D01*
X93297619Y-39785714D01*
X93202380Y-39738095D01*
X93630952Y-39404761D02*
X93535714Y-39452380D01*
X93345238Y-39452380D01*
X93250000Y-39404761D01*
X93202380Y-39357142D01*
X93154761Y-39261904D01*
X93154761Y-38976190D01*
X93202380Y-38880952D01*
X93250000Y-38833333D01*
X93345238Y-38785714D01*
X93535714Y-38785714D01*
X93630952Y-38833333D01*
X94535714Y-38785714D02*
X94535714Y-39452380D01*
X94107142Y-38785714D02*
X94107142Y-39309523D01*
X94154761Y-39404761D01*
X94250000Y-39452380D01*
X94392857Y-39452380D01*
X94488095Y-39404761D01*
X94535714Y-39357142D01*
X96345238Y-39452380D02*
X96011904Y-38976190D01*
X95773809Y-39452380D02*
X95773809Y-38452380D01*
X96154761Y-38452380D01*
X96250000Y-38500000D01*
X96297619Y-38547619D01*
X96345238Y-38642857D01*
X96345238Y-38785714D01*
X96297619Y-38880952D01*
X96250000Y-38928571D01*
X96154761Y-38976190D01*
X95773809Y-38976190D01*
X97297619Y-38500000D02*
X97202380Y-38452380D01*
X97059523Y-38452380D01*
X96916666Y-38500000D01*
X96821428Y-38595238D01*
X96773809Y-38690476D01*
X96726190Y-38880952D01*
X96726190Y-39023809D01*
X96773809Y-39214285D01*
X96821428Y-39309523D01*
X96916666Y-39404761D01*
X97059523Y-39452380D01*
X97154761Y-39452380D01*
X97297619Y-39404761D01*
X97345238Y-39357142D01*
X97345238Y-39023809D01*
X97154761Y-39023809D01*
X98107142Y-38928571D02*
X98250000Y-38976190D01*
X98297619Y-39023809D01*
X98345238Y-39119047D01*
X98345238Y-39261904D01*
X98297619Y-39357142D01*
X98250000Y-39404761D01*
X98154761Y-39452380D01*
X97773809Y-39452380D01*
X97773809Y-38452380D01*
X98107142Y-38452380D01*
X98202380Y-38500000D01*
X98250000Y-38547619D01*
X98297619Y-38642857D01*
X98297619Y-38738095D01*
X98250000Y-38833333D01*
X98202380Y-38880952D01*
X98107142Y-38928571D01*
X97773809Y-38928571D01*
X98821428Y-39404761D02*
X98821428Y-39452380D01*
X98773809Y-39547619D01*
X98726190Y-39595238D01*
X100011904Y-39452380D02*
X100011904Y-38452380D01*
X100011904Y-38833333D02*
X100107142Y-38785714D01*
X100297619Y-38785714D01*
X100392857Y-38833333D01*
X100440476Y-38880952D01*
X100488095Y-38976190D01*
X100488095Y-39261904D01*
X100440476Y-39357142D01*
X100392857Y-39404761D01*
X100297619Y-39452380D01*
X100107142Y-39452380D01*
X100011904Y-39404761D01*
X101345238Y-39452380D02*
X101345238Y-38928571D01*
X101297619Y-38833333D01*
X101202380Y-38785714D01*
X101011904Y-38785714D01*
X100916666Y-38833333D01*
X101345238Y-39404761D02*
X101250000Y-39452380D01*
X101011904Y-39452380D01*
X100916666Y-39404761D01*
X100869047Y-39309523D01*
X100869047Y-39214285D01*
X100916666Y-39119047D01*
X101011904Y-39071428D01*
X101250000Y-39071428D01*
X101345238Y-39023809D01*
X101773809Y-39404761D02*
X101869047Y-39452380D01*
X102059523Y-39452380D01*
X102154761Y-39404761D01*
X102202380Y-39309523D01*
X102202380Y-39261904D01*
X102154761Y-39166666D01*
X102059523Y-39119047D01*
X101916666Y-39119047D01*
X101821428Y-39071428D01*
X101773809Y-38976190D01*
X101773809Y-38928571D01*
X101821428Y-38833333D01*
X101916666Y-38785714D01*
X102059523Y-38785714D01*
X102154761Y-38833333D01*
X103011904Y-39404761D02*
X102916666Y-39452380D01*
X102726190Y-39452380D01*
X102630952Y-39404761D01*
X102583333Y-39309523D01*
X102583333Y-38928571D01*
X102630952Y-38833333D01*
X102726190Y-38785714D01*
X102916666Y-38785714D01*
X103011904Y-38833333D01*
X103059523Y-38928571D01*
X103059523Y-39023809D01*
X102583333Y-39119047D01*
X103916666Y-39452380D02*
X103916666Y-38452380D01*
X103916666Y-39404761D02*
X103821428Y-39452380D01*
X103630952Y-39452380D01*
X103535714Y-39404761D01*
X103488095Y-39357142D01*
X103440476Y-39261904D01*
X103440476Y-38976190D01*
X103488095Y-38880952D01*
X103535714Y-38833333D01*
X103630952Y-38785714D01*
X103821428Y-38785714D01*
X103916666Y-38833333D01*
X105297619Y-39452380D02*
X105202380Y-39404761D01*
X105154761Y-39357142D01*
X105107142Y-39261904D01*
X105107142Y-38976190D01*
X105154761Y-38880952D01*
X105202380Y-38833333D01*
X105297619Y-38785714D01*
X105440476Y-38785714D01*
X105535714Y-38833333D01*
X105583333Y-38880952D01*
X105630952Y-38976190D01*
X105630952Y-39261904D01*
X105583333Y-39357142D01*
X105535714Y-39404761D01*
X105440476Y-39452380D01*
X105297619Y-39452380D01*
X106059523Y-38785714D02*
X106059523Y-39452380D01*
X106059523Y-38880952D02*
X106107142Y-38833333D01*
X106202380Y-38785714D01*
X106345238Y-38785714D01*
X106440476Y-38833333D01*
X106488095Y-38928571D01*
X106488095Y-39452380D01*
X107678571Y-39404761D02*
X107821428Y-39452380D01*
X108059523Y-39452380D01*
X108154761Y-39404761D01*
X108202380Y-39357142D01*
X108250000Y-39261904D01*
X108250000Y-39166666D01*
X108202380Y-39071428D01*
X108154761Y-39023809D01*
X108059523Y-38976190D01*
X107869047Y-38928571D01*
X107773809Y-38880952D01*
X107726190Y-38833333D01*
X107678571Y-38738095D01*
X107678571Y-38642857D01*
X107726190Y-38547619D01*
X107773809Y-38500000D01*
X107869047Y-38452380D01*
X108107142Y-38452380D01*
X108250000Y-38500000D01*
X108821428Y-39452380D02*
X108726190Y-39404761D01*
X108678571Y-39357142D01*
X108630952Y-39261904D01*
X108630952Y-38976190D01*
X108678571Y-38880952D01*
X108726190Y-38833333D01*
X108821428Y-38785714D01*
X108964285Y-38785714D01*
X109059523Y-38833333D01*
X109107142Y-38880952D01*
X109154761Y-38976190D01*
X109154761Y-39261904D01*
X109107142Y-39357142D01*
X109059523Y-39404761D01*
X108964285Y-39452380D01*
X108821428Y-39452380D01*
X109440476Y-38785714D02*
X109821428Y-38785714D01*
X109583333Y-39452380D02*
X109583333Y-38595238D01*
X109630952Y-38500000D01*
X109726190Y-38452380D01*
X109821428Y-38452380D01*
X110297619Y-39452380D02*
X110202380Y-39404761D01*
X110154761Y-39309523D01*
X110154761Y-38452380D01*
X111059523Y-39404761D02*
X110964285Y-39452380D01*
X110773809Y-39452380D01*
X110678571Y-39404761D01*
X110630952Y-39309523D01*
X110630952Y-38928571D01*
X110678571Y-38833333D01*
X110773809Y-38785714D01*
X110964285Y-38785714D01*
X111059523Y-38833333D01*
X111107142Y-38928571D01*
X111107142Y-39023809D01*
X110630952Y-39119047D01*
X112869047Y-39452380D02*
X112535714Y-38976190D01*
X112297619Y-39452380D02*
X112297619Y-38452380D01*
X112678571Y-38452380D01*
X112773809Y-38500000D01*
X112821428Y-38547619D01*
X112869047Y-38642857D01*
X112869047Y-38785714D01*
X112821428Y-38880952D01*
X112773809Y-38928571D01*
X112678571Y-38976190D01*
X112297619Y-38976190D01*
X113821428Y-38500000D02*
X113726190Y-38452380D01*
X113583333Y-38452380D01*
X113440476Y-38500000D01*
X113345238Y-38595238D01*
X113297619Y-38690476D01*
X113250000Y-38880952D01*
X113250000Y-39023809D01*
X113297619Y-39214285D01*
X113345238Y-39309523D01*
X113440476Y-39404761D01*
X113583333Y-39452380D01*
X113678571Y-39452380D01*
X113821428Y-39404761D01*
X113869047Y-39357142D01*
X113869047Y-39023809D01*
X113678571Y-39023809D01*
X114630952Y-38928571D02*
X114773809Y-38976190D01*
X114821428Y-39023809D01*
X114869047Y-39119047D01*
X114869047Y-39261904D01*
X114821428Y-39357142D01*
X114773809Y-39404761D01*
X114678571Y-39452380D01*
X114297619Y-39452380D01*
X114297619Y-38452380D01*
X114630952Y-38452380D01*
X114726190Y-38500000D01*
X114773809Y-38547619D01*
X114821428Y-38642857D01*
X114821428Y-38738095D01*
X114773809Y-38833333D01*
X114726190Y-38880952D01*
X114630952Y-38928571D01*
X114297619Y-38928571D01*
X115345238Y-39404761D02*
X115345238Y-39452380D01*
X115297619Y-39547619D01*
X115250000Y-39595238D01*
X116678571Y-39452380D02*
X116583333Y-39404761D01*
X116535714Y-39357142D01*
X116488095Y-39261904D01*
X116488095Y-38976190D01*
X116535714Y-38880952D01*
X116583333Y-38833333D01*
X116678571Y-38785714D01*
X116821428Y-38785714D01*
X116916666Y-38833333D01*
X116964285Y-38880952D01*
X117011904Y-38976190D01*
X117011904Y-39261904D01*
X116964285Y-39357142D01*
X116916666Y-39404761D01*
X116821428Y-39452380D01*
X116678571Y-39452380D01*
X117440476Y-39452380D02*
X117440476Y-38785714D01*
X117440476Y-38976190D02*
X117488095Y-38880952D01*
X117535714Y-38833333D01*
X117630952Y-38785714D01*
X117726190Y-38785714D01*
X118059523Y-39452380D02*
X118059523Y-38785714D01*
X118059523Y-38452380D02*
X118011904Y-38500000D01*
X118059523Y-38547619D01*
X118107142Y-38500000D01*
X118059523Y-38452380D01*
X118059523Y-38547619D01*
X118964285Y-38785714D02*
X118964285Y-39595238D01*
X118916666Y-39690476D01*
X118869047Y-39738095D01*
X118773809Y-39785714D01*
X118630952Y-39785714D01*
X118535714Y-39738095D01*
X118964285Y-39404761D02*
X118869047Y-39452380D01*
X118678571Y-39452380D01*
X118583333Y-39404761D01*
X118535714Y-39357142D01*
X118488095Y-39261904D01*
X118488095Y-38976190D01*
X118535714Y-38880952D01*
X118583333Y-38833333D01*
X118678571Y-38785714D01*
X118869047Y-38785714D01*
X118964285Y-38833333D01*
X119440476Y-39452380D02*
X119440476Y-38785714D01*
X119440476Y-38452380D02*
X119392857Y-38500000D01*
X119440476Y-38547619D01*
X119488095Y-38500000D01*
X119440476Y-38452380D01*
X119440476Y-38547619D01*
X119916666Y-38785714D02*
X119916666Y-39452380D01*
X119916666Y-38880952D02*
X119964285Y-38833333D01*
X120059523Y-38785714D01*
X120202380Y-38785714D01*
X120297619Y-38833333D01*
X120345238Y-38928571D01*
X120345238Y-39452380D01*
X121250000Y-39452380D02*
X121250000Y-38928571D01*
X121202380Y-38833333D01*
X121107142Y-38785714D01*
X120916666Y-38785714D01*
X120821428Y-38833333D01*
X121250000Y-39404761D02*
X121154761Y-39452380D01*
X120916666Y-39452380D01*
X120821428Y-39404761D01*
X120773809Y-39309523D01*
X120773809Y-39214285D01*
X120821428Y-39119047D01*
X120916666Y-39071428D01*
X121154761Y-39071428D01*
X121250000Y-39023809D01*
X121869047Y-39452380D02*
X121773809Y-39404761D01*
X121726190Y-39309523D01*
X121726190Y-38452380D01*
X123011904Y-39452380D02*
X123011904Y-38452380D01*
X123011904Y-38833333D02*
X123107142Y-38785714D01*
X123297619Y-38785714D01*
X123392857Y-38833333D01*
X123440476Y-38880952D01*
X123488095Y-38976190D01*
X123488095Y-39261904D01*
X123440476Y-39357142D01*
X123392857Y-39404761D01*
X123297619Y-39452380D01*
X123107142Y-39452380D01*
X123011904Y-39404761D01*
X123821428Y-38785714D02*
X124059523Y-39452380D01*
X124297619Y-38785714D02*
X124059523Y-39452380D01*
X123964285Y-39690476D01*
X123916666Y-39738095D01*
X123821428Y-39785714D01*
X125726190Y-38452380D02*
X125726190Y-39166666D01*
X125678571Y-39309523D01*
X125583333Y-39404761D01*
X125440476Y-39452380D01*
X125345238Y-39452380D01*
X126345238Y-39452380D02*
X126250000Y-39404761D01*
X126202380Y-39357142D01*
X126154761Y-39261904D01*
X126154761Y-38976190D01*
X126202380Y-38880952D01*
X126250000Y-38833333D01*
X126345238Y-38785714D01*
X126488095Y-38785714D01*
X126583333Y-38833333D01*
X126630952Y-38880952D01*
X126678571Y-38976190D01*
X126678571Y-39261904D01*
X126630952Y-39357142D01*
X126583333Y-39404761D01*
X126488095Y-39452380D01*
X126345238Y-39452380D01*
X127059523Y-39404761D02*
X127154761Y-39452380D01*
X127345238Y-39452380D01*
X127440476Y-39404761D01*
X127488095Y-39309523D01*
X127488095Y-39261904D01*
X127440476Y-39166666D01*
X127345238Y-39119047D01*
X127202380Y-39119047D01*
X127107142Y-39071428D01*
X127059523Y-38976190D01*
X127059523Y-38928571D01*
X127107142Y-38833333D01*
X127202380Y-38785714D01*
X127345238Y-38785714D01*
X127440476Y-38833333D01*
X128297619Y-39404761D02*
X128202380Y-39452380D01*
X128011904Y-39452380D01*
X127916666Y-39404761D01*
X127869047Y-39309523D01*
X127869047Y-38928571D01*
X127916666Y-38833333D01*
X128011904Y-38785714D01*
X128202380Y-38785714D01*
X128297619Y-38833333D01*
X128345238Y-38928571D01*
X128345238Y-39023809D01*
X127869047Y-39119047D01*
X128630952Y-38785714D02*
X129011904Y-38785714D01*
X128773809Y-39452380D02*
X128773809Y-38595238D01*
X128821428Y-38500000D01*
X128916666Y-38452380D01*
X129011904Y-38452380D01*
X130059523Y-39166666D02*
X130535714Y-39166666D01*
X129964285Y-39452380D02*
X130297619Y-38452380D01*
X130630952Y-39452380D01*
X131392857Y-39452380D02*
X131392857Y-38452380D01*
X131392857Y-39404761D02*
X131297619Y-39452380D01*
X131107142Y-39452380D01*
X131011904Y-39404761D01*
X130964285Y-39357142D01*
X130916666Y-39261904D01*
X130916666Y-38976190D01*
X130964285Y-38880952D01*
X131011904Y-38833333D01*
X131107142Y-38785714D01*
X131297619Y-38785714D01*
X131392857Y-38833333D01*
X132297619Y-39452380D02*
X132297619Y-38928571D01*
X132250000Y-38833333D01*
X132154761Y-38785714D01*
X131964285Y-38785714D01*
X131869047Y-38833333D01*
X132297619Y-39404761D02*
X132202380Y-39452380D01*
X131964285Y-39452380D01*
X131869047Y-39404761D01*
X131821428Y-39309523D01*
X131821428Y-39214285D01*
X131869047Y-39119047D01*
X131964285Y-39071428D01*
X132202380Y-39071428D01*
X132297619Y-39023809D01*
X132773809Y-39452380D02*
X132773809Y-38785714D01*
X132773809Y-38880952D02*
X132821428Y-38833333D01*
X132916666Y-38785714D01*
X133059523Y-38785714D01*
X133154761Y-38833333D01*
X133202380Y-38928571D01*
X133202380Y-39452380D01*
X133202380Y-38928571D02*
X133250000Y-38833333D01*
X133345238Y-38785714D01*
X133488095Y-38785714D01*
X133583333Y-38833333D01*
X133630952Y-38928571D01*
X133630952Y-39452380D01*
X134535714Y-39452380D02*
X134535714Y-38928571D01*
X134488095Y-38833333D01*
X134392857Y-38785714D01*
X134202380Y-38785714D01*
X134107142Y-38833333D01*
X134535714Y-39404761D02*
X134440476Y-39452380D01*
X134202380Y-39452380D01*
X134107142Y-39404761D01*
X134059523Y-39309523D01*
X134059523Y-39214285D01*
X134107142Y-39119047D01*
X134202380Y-39071428D01*
X134440476Y-39071428D01*
X134535714Y-39023809D01*
X135440476Y-39404761D02*
X135345238Y-39452380D01*
X135154761Y-39452380D01*
X135059523Y-39404761D01*
X135011904Y-39357142D01*
X134964285Y-39261904D01*
X134964285Y-38976190D01*
X135011904Y-38880952D01*
X135059523Y-38833333D01*
X135154761Y-38785714D01*
X135345238Y-38785714D01*
X135440476Y-38833333D01*
X135869047Y-39452380D02*
X135869047Y-38785714D01*
X135869047Y-38452380D02*
X135821428Y-38500000D01*
X135869047Y-38547619D01*
X135916666Y-38500000D01*
X135869047Y-38452380D01*
X135869047Y-38547619D01*
X136345238Y-39452380D02*
X136345238Y-38452380D01*
X136440476Y-39071428D02*
X136726190Y-39452380D01*
X136726190Y-38785714D02*
X136345238Y-39166666D01*
D10*
X138035714Y-132952380D02*
X138035714Y-131952380D01*
X138464285Y-132952380D02*
X138464285Y-132428571D01*
X138416666Y-132333333D01*
X138321428Y-132285714D01*
X138178571Y-132285714D01*
X138083333Y-132333333D01*
X138035714Y-132380952D01*
X138797619Y-132285714D02*
X139178571Y-132285714D01*
X138940476Y-131952380D02*
X138940476Y-132809523D01*
X138988095Y-132904761D01*
X139083333Y-132952380D01*
X139178571Y-132952380D01*
X139369047Y-132285714D02*
X139750000Y-132285714D01*
X139511904Y-131952380D02*
X139511904Y-132809523D01*
X139559523Y-132904761D01*
X139654761Y-132952380D01*
X139750000Y-132952380D01*
X140083333Y-132285714D02*
X140083333Y-133285714D01*
X140083333Y-132333333D02*
X140178571Y-132285714D01*
X140369047Y-132285714D01*
X140464285Y-132333333D01*
X140511904Y-132380952D01*
X140559523Y-132476190D01*
X140559523Y-132761904D01*
X140511904Y-132857142D01*
X140464285Y-132904761D01*
X140369047Y-132952380D01*
X140178571Y-132952380D01*
X140083333Y-132904761D01*
X140940476Y-132904761D02*
X141035714Y-132952380D01*
X141226190Y-132952380D01*
X141321428Y-132904761D01*
X141369047Y-132809523D01*
X141369047Y-132761904D01*
X141321428Y-132666666D01*
X141226190Y-132619047D01*
X141083333Y-132619047D01*
X140988095Y-132571428D01*
X140940476Y-132476190D01*
X140940476Y-132428571D01*
X140988095Y-132333333D01*
X141083333Y-132285714D01*
X141226190Y-132285714D01*
X141321428Y-132333333D01*
X141797619Y-132857142D02*
X141845238Y-132904761D01*
X141797619Y-132952380D01*
X141750000Y-132904761D01*
X141797619Y-132857142D01*
X141797619Y-132952380D01*
X141797619Y-132333333D02*
X141845238Y-132380952D01*
X141797619Y-132428571D01*
X141750000Y-132380952D01*
X141797619Y-132333333D01*
X141797619Y-132428571D01*
X142988095Y-131904761D02*
X142130952Y-133190476D01*
X144035714Y-131904761D02*
X143178571Y-133190476D01*
X144369047Y-132285714D02*
X144369047Y-133142857D01*
X144321428Y-133238095D01*
X144226190Y-133285714D01*
X144178571Y-133285714D01*
X144369047Y-131952380D02*
X144321428Y-132000000D01*
X144369047Y-132047619D01*
X144416666Y-132000000D01*
X144369047Y-131952380D01*
X144369047Y-132047619D01*
X144988095Y-132952380D02*
X144892857Y-132904761D01*
X144845238Y-132857142D01*
X144797619Y-132761904D01*
X144797619Y-132476190D01*
X144845238Y-132380952D01*
X144892857Y-132333333D01*
X144988095Y-132285714D01*
X145130952Y-132285714D01*
X145226190Y-132333333D01*
X145273809Y-132380952D01*
X145321428Y-132476190D01*
X145321428Y-132761904D01*
X145273809Y-132857142D01*
X145226190Y-132904761D01*
X145130952Y-132952380D01*
X144988095Y-132952380D01*
X145702380Y-132904761D02*
X145797619Y-132952380D01*
X145988095Y-132952380D01*
X146083333Y-132904761D01*
X146130952Y-132809523D01*
X146130952Y-132761904D01*
X146083333Y-132666666D01*
X145988095Y-132619047D01*
X145845238Y-132619047D01*
X145750000Y-132571428D01*
X145702380Y-132476190D01*
X145702380Y-132428571D01*
X145750000Y-132333333D01*
X145845238Y-132285714D01*
X145988095Y-132285714D01*
X146083333Y-132333333D01*
X146940476Y-132904761D02*
X146845238Y-132952380D01*
X146654761Y-132952380D01*
X146559523Y-132904761D01*
X146511904Y-132809523D01*
X146511904Y-132428571D01*
X146559523Y-132333333D01*
X146654761Y-132285714D01*
X146845238Y-132285714D01*
X146940476Y-132333333D01*
X146988095Y-132428571D01*
X146988095Y-132523809D01*
X146511904Y-132619047D01*
X147273809Y-132285714D02*
X147654761Y-132285714D01*
X147416666Y-132952380D02*
X147416666Y-132095238D01*
X147464285Y-132000000D01*
X147559523Y-131952380D01*
X147654761Y-131952380D01*
X148416666Y-132952380D02*
X148416666Y-132428571D01*
X148369047Y-132333333D01*
X148273809Y-132285714D01*
X148083333Y-132285714D01*
X147988095Y-132333333D01*
X148416666Y-132904761D02*
X148321428Y-132952380D01*
X148083333Y-132952380D01*
X147988095Y-132904761D01*
X147940476Y-132809523D01*
X147940476Y-132714285D01*
X147988095Y-132619047D01*
X148083333Y-132571428D01*
X148321428Y-132571428D01*
X148416666Y-132523809D01*
X149321428Y-132952380D02*
X149321428Y-131952380D01*
X149321428Y-132904761D02*
X149226190Y-132952380D01*
X149035714Y-132952380D01*
X148940476Y-132904761D01*
X148892857Y-132857142D01*
X148845238Y-132761904D01*
X148845238Y-132476190D01*
X148892857Y-132380952D01*
X148940476Y-132333333D01*
X149035714Y-132285714D01*
X149226190Y-132285714D01*
X149321428Y-132333333D01*
X150226190Y-132952380D02*
X150226190Y-132428571D01*
X150178571Y-132333333D01*
X150083333Y-132285714D01*
X149892857Y-132285714D01*
X149797619Y-132333333D01*
X150226190Y-132904761D02*
X150130952Y-132952380D01*
X149892857Y-132952380D01*
X149797619Y-132904761D01*
X149750000Y-132809523D01*
X149750000Y-132714285D01*
X149797619Y-132619047D01*
X149892857Y-132571428D01*
X150130952Y-132571428D01*
X150226190Y-132523809D01*
X150702380Y-132952380D02*
X150702380Y-132285714D01*
X150702380Y-132380952D02*
X150750000Y-132333333D01*
X150845238Y-132285714D01*
X150988095Y-132285714D01*
X151083333Y-132333333D01*
X151130952Y-132428571D01*
X151130952Y-132952380D01*
X151130952Y-132428571D02*
X151178571Y-132333333D01*
X151273809Y-132285714D01*
X151416666Y-132285714D01*
X151511904Y-132333333D01*
X151559523Y-132428571D01*
X151559523Y-132952380D01*
X152464285Y-132904761D02*
X152369047Y-132952380D01*
X152178571Y-132952380D01*
X152083333Y-132904761D01*
X152035714Y-132857142D01*
X151988095Y-132761904D01*
X151988095Y-132476190D01*
X152035714Y-132380952D01*
X152083333Y-132333333D01*
X152178571Y-132285714D01*
X152369047Y-132285714D01*
X152464285Y-132333333D01*
X152892857Y-132952380D02*
X152892857Y-132285714D01*
X152892857Y-131952380D02*
X152845238Y-132000000D01*
X152892857Y-132047619D01*
X152940476Y-132000000D01*
X152892857Y-131952380D01*
X152892857Y-132047619D01*
X153369047Y-132952380D02*
X153369047Y-131952380D01*
X153464285Y-132571428D02*
X153750000Y-132952380D01*
X153750000Y-132285714D02*
X153369047Y-132666666D01*
X154178571Y-132857142D02*
X154226190Y-132904761D01*
X154178571Y-132952380D01*
X154130952Y-132904761D01*
X154178571Y-132857142D01*
X154178571Y-132952380D01*
X155083333Y-132285714D02*
X155083333Y-133095238D01*
X155035714Y-133190476D01*
X154988095Y-133238095D01*
X154892857Y-133285714D01*
X154750000Y-133285714D01*
X154654761Y-133238095D01*
X155083333Y-132904761D02*
X154988095Y-132952380D01*
X154797619Y-132952380D01*
X154702380Y-132904761D01*
X154654761Y-132857142D01*
X154607142Y-132761904D01*
X154607142Y-132476190D01*
X154654761Y-132380952D01*
X154702380Y-132333333D01*
X154797619Y-132285714D01*
X154988095Y-132285714D01*
X155083333Y-132333333D01*
X155559523Y-132952380D02*
X155559523Y-132285714D01*
X155559523Y-131952380D02*
X155511904Y-132000000D01*
X155559523Y-132047619D01*
X155607142Y-132000000D01*
X155559523Y-131952380D01*
X155559523Y-132047619D01*
X155892857Y-132285714D02*
X156273809Y-132285714D01*
X156035714Y-131952380D02*
X156035714Y-132809523D01*
X156083333Y-132904761D01*
X156178571Y-132952380D01*
X156273809Y-132952380D01*
X156607142Y-132952380D02*
X156607142Y-131952380D01*
X157035714Y-132952380D02*
X157035714Y-132428571D01*
X156988095Y-132333333D01*
X156892857Y-132285714D01*
X156750000Y-132285714D01*
X156654761Y-132333333D01*
X156607142Y-132380952D01*
X157940476Y-132285714D02*
X157940476Y-132952380D01*
X157511904Y-132285714D02*
X157511904Y-132809523D01*
X157559523Y-132904761D01*
X157654761Y-132952380D01*
X157797619Y-132952380D01*
X157892857Y-132904761D01*
X157940476Y-132857142D01*
X158416666Y-132952380D02*
X158416666Y-131952380D01*
X158416666Y-132333333D02*
X158511904Y-132285714D01*
X158702380Y-132285714D01*
X158797619Y-132333333D01*
X158845238Y-132380952D01*
X158892857Y-132476190D01*
X158892857Y-132761904D01*
X158845238Y-132857142D01*
X158797619Y-132904761D01*
X158702380Y-132952380D01*
X158511904Y-132952380D01*
X158416666Y-132904761D01*
X159321428Y-132857142D02*
X159369047Y-132904761D01*
X159321428Y-132952380D01*
X159273809Y-132904761D01*
X159321428Y-132857142D01*
X159321428Y-132952380D01*
X159797619Y-132952380D02*
X159797619Y-132285714D01*
X159797619Y-131952380D02*
X159750000Y-132000000D01*
X159797619Y-132047619D01*
X159845238Y-132000000D01*
X159797619Y-131952380D01*
X159797619Y-132047619D01*
X160416666Y-132952380D02*
X160321428Y-132904761D01*
X160273809Y-132857142D01*
X160226190Y-132761904D01*
X160226190Y-132476190D01*
X160273809Y-132380952D01*
X160321428Y-132333333D01*
X160416666Y-132285714D01*
X160559523Y-132285714D01*
X160654761Y-132333333D01*
X160702380Y-132380952D01*
X160750000Y-132476190D01*
X160750000Y-132761904D01*
X160702380Y-132857142D01*
X160654761Y-132904761D01*
X160559523Y-132952380D01*
X160416666Y-132952380D01*
X161892857Y-131904761D02*
X161035714Y-133190476D01*
X162178571Y-132904761D02*
X162321428Y-132952380D01*
X162559523Y-132952380D01*
X162654761Y-132904761D01*
X162702380Y-132857142D01*
X162750000Y-132761904D01*
X162750000Y-132666666D01*
X162702380Y-132571428D01*
X162654761Y-132523809D01*
X162559523Y-132476190D01*
X162369047Y-132428571D01*
X162273809Y-132380952D01*
X162226190Y-132333333D01*
X162178571Y-132238095D01*
X162178571Y-132142857D01*
X162226190Y-132047619D01*
X162273809Y-132000000D01*
X162369047Y-131952380D01*
X162607142Y-131952380D01*
X162750000Y-132000000D01*
X163321428Y-132952380D02*
X163226190Y-132904761D01*
X163178571Y-132857142D01*
X163130952Y-132761904D01*
X163130952Y-132476190D01*
X163178571Y-132380952D01*
X163226190Y-132333333D01*
X163321428Y-132285714D01*
X163464285Y-132285714D01*
X163559523Y-132333333D01*
X163607142Y-132380952D01*
X163654761Y-132476190D01*
X163654761Y-132761904D01*
X163607142Y-132857142D01*
X163559523Y-132904761D01*
X163464285Y-132952380D01*
X163321428Y-132952380D01*
X163940476Y-132285714D02*
X164321428Y-132285714D01*
X164083333Y-132952380D02*
X164083333Y-132095238D01*
X164130952Y-132000000D01*
X164226190Y-131952380D01*
X164321428Y-131952380D01*
X164797619Y-132952380D02*
X164702380Y-132904761D01*
X164654761Y-132809523D01*
X164654761Y-131952380D01*
X165559523Y-132904761D02*
X165464285Y-132952380D01*
X165273809Y-132952380D01*
X165178571Y-132904761D01*
X165130952Y-132809523D01*
X165130952Y-132428571D01*
X165178571Y-132333333D01*
X165273809Y-132285714D01*
X165464285Y-132285714D01*
X165559523Y-132333333D01*
X165607142Y-132428571D01*
X165607142Y-132523809D01*
X165130952Y-132619047D01*
X166035714Y-132952380D02*
X166035714Y-131952380D01*
X166607142Y-132952380D02*
X166178571Y-132380952D01*
X166607142Y-131952380D02*
X166035714Y-132523809D01*
X167416666Y-132904761D02*
X167321428Y-132952380D01*
X167130952Y-132952380D01*
X167035714Y-132904761D01*
X166988095Y-132809523D01*
X166988095Y-132428571D01*
X167035714Y-132333333D01*
X167130952Y-132285714D01*
X167321428Y-132285714D01*
X167416666Y-132333333D01*
X167464285Y-132428571D01*
X167464285Y-132523809D01*
X166988095Y-132619047D01*
X167797619Y-132285714D02*
X168035714Y-132952380D01*
X168273809Y-132285714D02*
X168035714Y-132952380D01*
X167940476Y-133190476D01*
X167892857Y-133238095D01*
X167797619Y-133285714D01*
X168654761Y-132952380D02*
X168654761Y-131952380D01*
X168654761Y-132333333D02*
X168750000Y-132285714D01*
X168940476Y-132285714D01*
X169035714Y-132333333D01*
X169083333Y-132380952D01*
X169130952Y-132476190D01*
X169130952Y-132761904D01*
X169083333Y-132857142D01*
X169035714Y-132904761D01*
X168940476Y-132952380D01*
X168750000Y-132952380D01*
X168654761Y-132904761D01*
X169702380Y-132952380D02*
X169607142Y-132904761D01*
X169559523Y-132857142D01*
X169511904Y-132761904D01*
X169511904Y-132476190D01*
X169559523Y-132380952D01*
X169607142Y-132333333D01*
X169702380Y-132285714D01*
X169845238Y-132285714D01*
X169940476Y-132333333D01*
X169988095Y-132380952D01*
X170035714Y-132476190D01*
X170035714Y-132761904D01*
X169988095Y-132857142D01*
X169940476Y-132904761D01*
X169845238Y-132952380D01*
X169702380Y-132952380D01*
X170892857Y-132952380D02*
X170892857Y-132428571D01*
X170845238Y-132333333D01*
X170749999Y-132285714D01*
X170559523Y-132285714D01*
X170464285Y-132333333D01*
X170892857Y-132904761D02*
X170797619Y-132952380D01*
X170559523Y-132952380D01*
X170464285Y-132904761D01*
X170416666Y-132809523D01*
X170416666Y-132714285D01*
X170464285Y-132619047D01*
X170559523Y-132571428D01*
X170797619Y-132571428D01*
X170892857Y-132523809D01*
X171369047Y-132952380D02*
X171369047Y-132285714D01*
X171369047Y-132476190D02*
X171416666Y-132380952D01*
X171464285Y-132333333D01*
X171559523Y-132285714D01*
X171654761Y-132285714D01*
X172416666Y-132952380D02*
X172416666Y-131952380D01*
X172416666Y-132904761D02*
X172321428Y-132952380D01*
X172130952Y-132952380D01*
X172035714Y-132904761D01*
X171988095Y-132857142D01*
X171940476Y-132761904D01*
X171940476Y-132476190D01*
X171988095Y-132380952D01*
X172035714Y-132333333D01*
X172130952Y-132285714D01*
X172321428Y-132285714D01*
X172416666Y-132333333D01*
X173607142Y-131904761D02*
X172749999Y-133190476D01*
X115561904Y-86066666D02*
X114761904Y-86066666D01*
X115028571Y-85685714D02*
X115561904Y-85685714D01*
X115104761Y-85685714D02*
X115066666Y-85647619D01*
X115028571Y-85571428D01*
X115028571Y-85457142D01*
X115066666Y-85380952D01*
X115142857Y-85342857D01*
X115561904Y-85342857D01*
X115561904Y-84619047D02*
X114761904Y-84619047D01*
X115523809Y-84619047D02*
X115561904Y-84695238D01*
X115561904Y-84847619D01*
X115523809Y-84923809D01*
X115485714Y-84961904D01*
X115409523Y-85000000D01*
X115180952Y-85000000D01*
X115104761Y-84961904D01*
X115066666Y-84923809D01*
X115028571Y-84847619D01*
X115028571Y-84695238D01*
X115066666Y-84619047D01*
X115561904Y-83628571D02*
X114761904Y-83628571D01*
X115066666Y-83628571D02*
X115028571Y-83552380D01*
X115028571Y-83400000D01*
X115066666Y-83323809D01*
X115104761Y-83285714D01*
X115180952Y-83247619D01*
X115409523Y-83247619D01*
X115485714Y-83285714D01*
X115523809Y-83323809D01*
X115561904Y-83400000D01*
X115561904Y-83552380D01*
X115523809Y-83628571D01*
X115028571Y-82980952D02*
X115561904Y-82790476D01*
X115028571Y-82600000D02*
X115561904Y-82790476D01*
X115752380Y-82866666D01*
X115790476Y-82904761D01*
X115828571Y-82980952D01*
X115028571Y-82295238D02*
X115828571Y-82295238D01*
X115066666Y-82295238D02*
X115028571Y-82219047D01*
X115028571Y-82066666D01*
X115066666Y-81990476D01*
X115104761Y-81952380D01*
X115180952Y-81914285D01*
X115409523Y-81914285D01*
X115485714Y-81952380D01*
X115523809Y-81990476D01*
X115561904Y-82066666D01*
X115561904Y-82219047D01*
X115523809Y-82295238D01*
X115561904Y-81228571D02*
X115142857Y-81228571D01*
X115066666Y-81266666D01*
X115028571Y-81342857D01*
X115028571Y-81495238D01*
X115066666Y-81571428D01*
X115523809Y-81228571D02*
X115561904Y-81304761D01*
X115561904Y-81495238D01*
X115523809Y-81571428D01*
X115447619Y-81609523D01*
X115371428Y-81609523D01*
X115295238Y-81571428D01*
X115257142Y-81495238D01*
X115257142Y-81304761D01*
X115219047Y-81228571D01*
X115523809Y-80885714D02*
X115561904Y-80809523D01*
X115561904Y-80657142D01*
X115523809Y-80580952D01*
X115447619Y-80542857D01*
X115409523Y-80542857D01*
X115333333Y-80580952D01*
X115295238Y-80657142D01*
X115295238Y-80771428D01*
X115257142Y-80847619D01*
X115180952Y-80885714D01*
X115142857Y-80885714D01*
X115066666Y-80847619D01*
X115028571Y-80771428D01*
X115028571Y-80657142D01*
X115066666Y-80580952D01*
X115523809Y-80238095D02*
X115561904Y-80161904D01*
X115561904Y-80009523D01*
X115523809Y-79933333D01*
X115447619Y-79895238D01*
X115409523Y-79895238D01*
X115333333Y-79933333D01*
X115295238Y-80009523D01*
X115295238Y-80123809D01*
X115257142Y-80200000D01*
X115180952Y-80238095D01*
X115142857Y-80238095D01*
X115066666Y-80200000D01*
X115028571Y-80123809D01*
X115028571Y-80009523D01*
X115066666Y-79933333D01*
X184301904Y-101043333D02*
X184301904Y-101424285D01*
X183501904Y-101424285D01*
X184301904Y-100776666D02*
X183768571Y-100776666D01*
X183501904Y-100776666D02*
X183540000Y-100814761D01*
X183578095Y-100776666D01*
X183540000Y-100738571D01*
X183501904Y-100776666D01*
X183578095Y-100776666D01*
X183768571Y-100052857D02*
X184416190Y-100052857D01*
X184492380Y-100090952D01*
X184530476Y-100129047D01*
X184568571Y-100205238D01*
X184568571Y-100319523D01*
X184530476Y-100395714D01*
X184263809Y-100052857D02*
X184301904Y-100129047D01*
X184301904Y-100281428D01*
X184263809Y-100357619D01*
X184225714Y-100395714D01*
X184149523Y-100433809D01*
X183920952Y-100433809D01*
X183844761Y-100395714D01*
X183806666Y-100357619D01*
X183768571Y-100281428D01*
X183768571Y-100129047D01*
X183806666Y-100052857D01*
X184301904Y-99671904D02*
X183501904Y-99671904D01*
X184301904Y-99329047D02*
X183882857Y-99329047D01*
X183806666Y-99367142D01*
X183768571Y-99443333D01*
X183768571Y-99557619D01*
X183806666Y-99633809D01*
X183844761Y-99671904D01*
X183768571Y-99062380D02*
X183768571Y-98757619D01*
X183501904Y-98948095D02*
X184187619Y-98948095D01*
X184263809Y-98910000D01*
X184301904Y-98833809D01*
X184301904Y-98757619D01*
X184263809Y-97919523D02*
X184301904Y-97805238D01*
X184301904Y-97614761D01*
X184263809Y-97538571D01*
X184225714Y-97500476D01*
X184149523Y-97462380D01*
X184073333Y-97462380D01*
X183997142Y-97500476D01*
X183959047Y-97538571D01*
X183920952Y-97614761D01*
X183882857Y-97767142D01*
X183844761Y-97843333D01*
X183806666Y-97881428D01*
X183730476Y-97919523D01*
X183654285Y-97919523D01*
X183578095Y-97881428D01*
X183540000Y-97843333D01*
X183501904Y-97767142D01*
X183501904Y-97576666D01*
X183540000Y-97462380D01*
X184263809Y-96814761D02*
X184301904Y-96890952D01*
X184301904Y-97043333D01*
X184263809Y-97119523D01*
X184187619Y-97157619D01*
X183882857Y-97157619D01*
X183806666Y-97119523D01*
X183768571Y-97043333D01*
X183768571Y-96890952D01*
X183806666Y-96814761D01*
X183882857Y-96776666D01*
X183959047Y-96776666D01*
X184035238Y-97157619D01*
X184301904Y-96319523D02*
X184263809Y-96395714D01*
X184187619Y-96433809D01*
X183501904Y-96433809D01*
X187182857Y-100326666D02*
X187220952Y-100212380D01*
X187259047Y-100174285D01*
X187335238Y-100136190D01*
X187449523Y-100136190D01*
X187525714Y-100174285D01*
X187563809Y-100212380D01*
X187601904Y-100288571D01*
X187601904Y-100593333D01*
X186801904Y-100593333D01*
X186801904Y-100326666D01*
X186840000Y-100250476D01*
X186878095Y-100212380D01*
X186954285Y-100174285D01*
X187030476Y-100174285D01*
X187106666Y-100212380D01*
X187144761Y-100250476D01*
X187182857Y-100326666D01*
X187182857Y-100593333D01*
X187601904Y-99412380D02*
X187601904Y-99793333D01*
X186801904Y-99793333D01*
X186781904Y-98377619D02*
X187429523Y-98377619D01*
X187505714Y-98339523D01*
X187543809Y-98301428D01*
X187581904Y-98225238D01*
X187581904Y-98072857D01*
X187543809Y-97996666D01*
X187505714Y-97958571D01*
X187429523Y-97920476D01*
X186781904Y-97920476D01*
X187581904Y-97539523D02*
X186781904Y-97539523D01*
X187581904Y-97082380D01*
X186781904Y-97082380D01*
X187581904Y-96701428D02*
X186781904Y-96701428D01*
X186781904Y-96510952D01*
X186820000Y-96396666D01*
X186896190Y-96320476D01*
X186972380Y-96282380D01*
X187124761Y-96244285D01*
X187239047Y-96244285D01*
X187391428Y-96282380D01*
X187467619Y-96320476D01*
X187543809Y-96396666D01*
X187581904Y-96510952D01*
X187581904Y-96701428D01*
X114401904Y-85229047D02*
X113601904Y-85229047D01*
X114401904Y-84848095D02*
X113601904Y-84848095D01*
X114401904Y-84390952D01*
X113601904Y-84390952D01*
X114401904Y-84010000D02*
X113601904Y-84010000D01*
X113601904Y-83819523D01*
X113640000Y-83705238D01*
X113716190Y-83629047D01*
X113792380Y-83590952D01*
X113944761Y-83552857D01*
X114059047Y-83552857D01*
X114211428Y-83590952D01*
X114287619Y-83629047D01*
X114363809Y-83705238D01*
X114401904Y-83819523D01*
X114401904Y-84010000D01*
X174390476Y-111942857D02*
X174504761Y-111980952D01*
X174542857Y-112019047D01*
X174580952Y-112095238D01*
X174580952Y-112209523D01*
X174542857Y-112285714D01*
X174504761Y-112323809D01*
X174428571Y-112361904D01*
X174123809Y-112361904D01*
X174123809Y-111561904D01*
X174390476Y-111561904D01*
X174466666Y-111600000D01*
X174504761Y-111638095D01*
X174542857Y-111714285D01*
X174542857Y-111790476D01*
X174504761Y-111866666D01*
X174466666Y-111904761D01*
X174390476Y-111942857D01*
X174123809Y-111942857D01*
X175266666Y-112361904D02*
X175266666Y-111942857D01*
X175228571Y-111866666D01*
X175152380Y-111828571D01*
X175000000Y-111828571D01*
X174923809Y-111866666D01*
X175266666Y-112323809D02*
X175190476Y-112361904D01*
X175000000Y-112361904D01*
X174923809Y-112323809D01*
X174885714Y-112247619D01*
X174885714Y-112171428D01*
X174923809Y-112095238D01*
X175000000Y-112057142D01*
X175190476Y-112057142D01*
X175266666Y-112019047D01*
X175990476Y-112323809D02*
X175914285Y-112361904D01*
X175761904Y-112361904D01*
X175685714Y-112323809D01*
X175647619Y-112285714D01*
X175609523Y-112209523D01*
X175609523Y-111980952D01*
X175647619Y-111904761D01*
X175685714Y-111866666D01*
X175761904Y-111828571D01*
X175914285Y-111828571D01*
X175990476Y-111866666D01*
X176333333Y-112361904D02*
X176333333Y-111561904D01*
X176409523Y-112057142D02*
X176638095Y-112361904D01*
X176638095Y-111828571D02*
X176333333Y-112133333D01*
X177095238Y-112361904D02*
X177019047Y-112323809D01*
X176980952Y-112247619D01*
X176980952Y-111561904D01*
X177400000Y-112361904D02*
X177400000Y-111828571D01*
X177400000Y-111561904D02*
X177361904Y-111600000D01*
X177400000Y-111638095D01*
X177438095Y-111600000D01*
X177400000Y-111561904D01*
X177400000Y-111638095D01*
X178123809Y-111828571D02*
X178123809Y-112476190D01*
X178085714Y-112552380D01*
X178047619Y-112590476D01*
X177971428Y-112628571D01*
X177857142Y-112628571D01*
X177780952Y-112590476D01*
X178123809Y-112323809D02*
X178047619Y-112361904D01*
X177895238Y-112361904D01*
X177819047Y-112323809D01*
X177780952Y-112285714D01*
X177742857Y-112209523D01*
X177742857Y-111980952D01*
X177780952Y-111904761D01*
X177819047Y-111866666D01*
X177895238Y-111828571D01*
X178047619Y-111828571D01*
X178123809Y-111866666D01*
X178504761Y-112361904D02*
X178504761Y-111561904D01*
X178847619Y-112361904D02*
X178847619Y-111942857D01*
X178809523Y-111866666D01*
X178733333Y-111828571D01*
X178619047Y-111828571D01*
X178542857Y-111866666D01*
X178504761Y-111904761D01*
X179114285Y-111828571D02*
X179419047Y-111828571D01*
X179228571Y-111561904D02*
X179228571Y-112247619D01*
X179266666Y-112323809D01*
X179342857Y-112361904D01*
X179419047Y-112361904D01*
X180600000Y-112323809D02*
X180523809Y-112361904D01*
X180371428Y-112361904D01*
X180295238Y-112323809D01*
X180257142Y-112247619D01*
X180257142Y-111942857D01*
X180295238Y-111866666D01*
X180371428Y-111828571D01*
X180523809Y-111828571D01*
X180600000Y-111866666D01*
X180638095Y-111942857D01*
X180638095Y-112019047D01*
X180257142Y-112095238D01*
X180980952Y-111828571D02*
X180980952Y-112361904D01*
X180980952Y-111904761D02*
X181019047Y-111866666D01*
X181095238Y-111828571D01*
X181209523Y-111828571D01*
X181285714Y-111866666D01*
X181323809Y-111942857D01*
X181323809Y-112361904D01*
X182047619Y-112361904D02*
X182047619Y-111942857D01*
X182009523Y-111866666D01*
X181933333Y-111828571D01*
X181780952Y-111828571D01*
X181704761Y-111866666D01*
X182047619Y-112323809D02*
X181971428Y-112361904D01*
X181780952Y-112361904D01*
X181704761Y-112323809D01*
X181666666Y-112247619D01*
X181666666Y-112171428D01*
X181704761Y-112095238D01*
X181780952Y-112057142D01*
X181971428Y-112057142D01*
X182047619Y-112019047D01*
X182428571Y-112361904D02*
X182428571Y-111561904D01*
X182428571Y-111866666D02*
X182504761Y-111828571D01*
X182657142Y-111828571D01*
X182733333Y-111866666D01*
X182771428Y-111904761D01*
X182809523Y-111980952D01*
X182809523Y-112209523D01*
X182771428Y-112285714D01*
X182733333Y-112323809D01*
X182657142Y-112361904D01*
X182504761Y-112361904D01*
X182428571Y-112323809D01*
X183266666Y-112361904D02*
X183190476Y-112323809D01*
X183152380Y-112247619D01*
X183152380Y-111561904D01*
X183876190Y-112323809D02*
X183800000Y-112361904D01*
X183647619Y-112361904D01*
X183571428Y-112323809D01*
X183533333Y-112247619D01*
X183533333Y-111942857D01*
X183571428Y-111866666D01*
X183647619Y-111828571D01*
X183800000Y-111828571D01*
X183876190Y-111866666D01*
X183914285Y-111942857D01*
X183914285Y-112019047D01*
X183533333Y-112095238D01*
X176666666Y-113142857D02*
X176933333Y-113142857D01*
X177047619Y-113561904D02*
X176666666Y-113561904D01*
X176666666Y-112761904D01*
X177047619Y-112761904D01*
X177390476Y-113561904D02*
X177390476Y-112761904D01*
X177847619Y-113561904D01*
X177847619Y-112761904D01*
X178190476Y-113333333D02*
X178571428Y-113333333D01*
X178114285Y-113561904D02*
X178380952Y-112761904D01*
X178647619Y-113561904D01*
X114042857Y-82455714D02*
X114080952Y-82341428D01*
X114119047Y-82303333D01*
X114195238Y-82265238D01*
X114309523Y-82265238D01*
X114385714Y-82303333D01*
X114423809Y-82341428D01*
X114461904Y-82417619D01*
X114461904Y-82722380D01*
X113661904Y-82722380D01*
X113661904Y-82455714D01*
X113700000Y-82379523D01*
X113738095Y-82341428D01*
X113814285Y-82303333D01*
X113890476Y-82303333D01*
X113966666Y-82341428D01*
X114004761Y-82379523D01*
X114042857Y-82455714D01*
X114042857Y-82722380D01*
X114080952Y-81770000D02*
X114461904Y-81770000D01*
X113661904Y-82036666D02*
X114080952Y-81770000D01*
X113661904Y-81503333D01*
X114461904Y-81236666D02*
X113661904Y-81236666D01*
X113661904Y-80931904D01*
X113700000Y-80855714D01*
X113738095Y-80817619D01*
X113814285Y-80779523D01*
X113928571Y-80779523D01*
X114004761Y-80817619D01*
X114042857Y-80855714D01*
X114080952Y-80931904D01*
X114080952Y-81236666D01*
X108933333Y-80561904D02*
X109200000Y-81361904D01*
X109466666Y-80561904D01*
X110190476Y-81285714D02*
X110152380Y-81323809D01*
X110038095Y-81361904D01*
X109961904Y-81361904D01*
X109847619Y-81323809D01*
X109771428Y-81247619D01*
X109733333Y-81171428D01*
X109695238Y-81019047D01*
X109695238Y-80904761D01*
X109733333Y-80752380D01*
X109771428Y-80676190D01*
X109847619Y-80600000D01*
X109961904Y-80561904D01*
X110038095Y-80561904D01*
X110152380Y-80600000D01*
X110190476Y-80638095D01*
X110990476Y-81285714D02*
X110952380Y-81323809D01*
X110838095Y-81361904D01*
X110761904Y-81361904D01*
X110647619Y-81323809D01*
X110571428Y-81247619D01*
X110533333Y-81171428D01*
X110495238Y-81019047D01*
X110495238Y-80904761D01*
X110533333Y-80752380D01*
X110571428Y-80676190D01*
X110647619Y-80600000D01*
X110761904Y-80561904D01*
X110838095Y-80561904D01*
X110952380Y-80600000D01*
X110990476Y-80638095D01*
X109445714Y-78561904D02*
X109064761Y-78561904D01*
X109064761Y-77761904D01*
X109712380Y-78142857D02*
X109979047Y-78142857D01*
X110093333Y-78561904D02*
X109712380Y-78561904D01*
X109712380Y-77761904D01*
X110093333Y-77761904D01*
X110436190Y-78561904D02*
X110436190Y-77761904D01*
X110626666Y-77761904D01*
X110740952Y-77800000D01*
X110817142Y-77876190D01*
X110855238Y-77952380D01*
X110893333Y-78104761D01*
X110893333Y-78219047D01*
X110855238Y-78371428D01*
X110817142Y-78447619D01*
X110740952Y-78523809D01*
X110626666Y-78561904D01*
X110436190Y-78561904D01*
D12*
G36*
X84357423Y-51056141D02*
G01*
X84492980Y-51059557D01*
X84590056Y-51065238D01*
X84648436Y-51073173D01*
X84662294Y-51077606D01*
X84752907Y-51116590D01*
X84839870Y-51145764D01*
X84910462Y-51161100D01*
X84930333Y-51162461D01*
X84976980Y-51167978D01*
X85003207Y-51178964D01*
X85030019Y-51193577D01*
X85082427Y-51215995D01*
X85148769Y-51241247D01*
X85290607Y-51299570D01*
X85438016Y-51372568D01*
X85575781Y-51452180D01*
X85676307Y-51520815D01*
X85784496Y-51610635D01*
X85902156Y-51721857D01*
X86021419Y-51845868D01*
X86134416Y-51974051D01*
X86233280Y-52097792D01*
X86310141Y-52208477D01*
X86321600Y-52227308D01*
X86351380Y-52275929D01*
X86373362Y-52308796D01*
X86378661Y-52315231D01*
X86401002Y-52345893D01*
X86433679Y-52403363D01*
X86472122Y-52478324D01*
X86511758Y-52561463D01*
X86548015Y-52643465D01*
X86576323Y-52715015D01*
X86580040Y-52725538D01*
X86602107Y-52804220D01*
X86625935Y-52915420D01*
X86650356Y-53052689D01*
X86674200Y-53209579D01*
X86691594Y-53341000D01*
X86697840Y-53412378D01*
X86703192Y-53514464D01*
X86707395Y-53638895D01*
X86710193Y-53777306D01*
X86711332Y-53921333D01*
X86711236Y-53985769D01*
X86711498Y-54146833D01*
X86713744Y-54288864D01*
X86717803Y-54406902D01*
X86723502Y-54495981D01*
X86730668Y-54551140D01*
X86730941Y-54552384D01*
X86747330Y-54625743D01*
X86762943Y-54695975D01*
X86767916Y-54718461D01*
X86784054Y-54778301D01*
X86807642Y-54851493D01*
X86819483Y-54884538D01*
X86842252Y-54939091D01*
X86877181Y-55015177D01*
X86920370Y-55105071D01*
X86967921Y-55201047D01*
X87015935Y-55295380D01*
X87060514Y-55380346D01*
X87097759Y-55448217D01*
X87123770Y-55491270D01*
X87129747Y-55499339D01*
X87159003Y-55539855D01*
X87169686Y-55558615D01*
X87185157Y-55588200D01*
X87214301Y-55642418D01*
X87251942Y-55711672D01*
X87269752Y-55744231D01*
X87372173Y-55936455D01*
X87454229Y-56103093D01*
X87518516Y-56250176D01*
X87567632Y-56383735D01*
X87604172Y-56509803D01*
X87610409Y-56535538D01*
X87622380Y-56599684D01*
X87635845Y-56692700D01*
X87649720Y-56804466D01*
X87662923Y-56924859D01*
X87674370Y-57043760D01*
X87682976Y-57151045D01*
X87687660Y-57236595D01*
X87688190Y-57262140D01*
X87691619Y-57331729D01*
X87704830Y-57379243D01*
X87733553Y-57421474D01*
X87748215Y-57437986D01*
X87795713Y-57494953D01*
X87846216Y-57563209D01*
X87864709Y-57590615D01*
X87917151Y-57655086D01*
X87982452Y-57714518D01*
X88008554Y-57732885D01*
X88091782Y-57806748D01*
X88147635Y-57902673D01*
X88173894Y-58012819D01*
X88168341Y-58129345D01*
X88143974Y-58211397D01*
X88119131Y-58256712D01*
X88080910Y-58310868D01*
X88037389Y-58364168D01*
X87996644Y-58406916D01*
X87966751Y-58429416D01*
X87961240Y-58430769D01*
X87938049Y-58442876D01*
X87899185Y-58473222D01*
X87883734Y-58486892D01*
X87826249Y-58529802D01*
X87743540Y-58579593D01*
X87647244Y-58630181D01*
X87548999Y-58675481D01*
X87460445Y-58709409D01*
X87454307Y-58711393D01*
X87284877Y-58763007D01*
X87143199Y-58801431D01*
X87032656Y-58825777D01*
X86996296Y-58831595D01*
X86935161Y-58845606D01*
X86873762Y-58873667D01*
X86804045Y-58920540D01*
X86717953Y-58990990D01*
X86699398Y-59007154D01*
X86640532Y-59056843D01*
X86599528Y-59087395D01*
X86583805Y-59095077D01*
X86563749Y-59107072D01*
X86530298Y-59135747D01*
X86490128Y-59165225D01*
X86428257Y-59201682D01*
X86366064Y-59233340D01*
X86302449Y-59265987D01*
X86253158Y-59296338D01*
X86229295Y-59317335D01*
X86210360Y-59341835D01*
X86170675Y-59388087D01*
X86116183Y-59449301D01*
X86057307Y-59513837D01*
X85980596Y-59594330D01*
X85917371Y-59652679D01*
X85856792Y-59697322D01*
X85788019Y-59736698D01*
X85741117Y-59759962D01*
X85658685Y-59796631D01*
X85579106Y-59827155D01*
X85516056Y-59846431D01*
X85501338Y-59849434D01*
X85448925Y-59861215D01*
X85415294Y-59875083D01*
X85410952Y-59879182D01*
X85387328Y-59887498D01*
X85336064Y-59892948D01*
X85268494Y-59895545D01*
X85195947Y-59895298D01*
X85129757Y-59892221D01*
X85081255Y-59886324D01*
X85062215Y-59878830D01*
X85037566Y-59864215D01*
X84990367Y-59850221D01*
X84979021Y-59847908D01*
X84921850Y-59832826D01*
X84877674Y-59813880D01*
X84874009Y-59811501D01*
X84848158Y-59802823D01*
X84798251Y-59797992D01*
X84720274Y-59796921D01*
X84610212Y-59799520D01*
X84511549Y-59803493D01*
X84316647Y-59809764D01*
X84119978Y-59811535D01*
X83928103Y-59809056D01*
X83747583Y-59802581D01*
X83584978Y-59792361D01*
X83446849Y-59778649D01*
X83339757Y-59761697D01*
X83321923Y-59757772D01*
X83173391Y-59719236D01*
X83017815Y-59672371D01*
X82861459Y-59619645D01*
X82710590Y-59563524D01*
X82571474Y-59506475D01*
X82450376Y-59450964D01*
X82353562Y-59399459D01*
X82287298Y-59354426D01*
X82279159Y-59347253D01*
X82246860Y-59320524D01*
X82227427Y-59320285D01*
X82210545Y-59339446D01*
X82166964Y-59371571D01*
X82094003Y-59396108D01*
X82000946Y-59411136D01*
X81897078Y-59414733D01*
X81856538Y-59412691D01*
X81785560Y-59405630D01*
X81729614Y-59396917D01*
X81700533Y-59388406D01*
X81700230Y-59388195D01*
X81668222Y-59373786D01*
X81622077Y-59360270D01*
X81569312Y-59343894D01*
X81500715Y-59317156D01*
X81424896Y-59284141D01*
X81350465Y-59248931D01*
X81286032Y-59215609D01*
X81240207Y-59188257D01*
X81221601Y-59170958D01*
X81221538Y-59170340D01*
X81204761Y-59157101D01*
X81164409Y-59144249D01*
X81164273Y-59144219D01*
X81114804Y-59125977D01*
X81083726Y-59103590D01*
X81050494Y-59079470D01*
X81033530Y-59075538D01*
X81009103Y-59064181D01*
X81006615Y-59056000D01*
X80991065Y-59038073D01*
X80980843Y-59036461D01*
X80957967Y-59023171D01*
X80914376Y-58986926D01*
X80856202Y-58933166D01*
X80789576Y-58867331D01*
X80785458Y-58863131D01*
X80706305Y-58779542D01*
X80653755Y-58717119D01*
X80624655Y-58671701D01*
X80615846Y-58639592D01*
X80608989Y-58597234D01*
X80596307Y-58577308D01*
X80581676Y-58548325D01*
X80577162Y-58494424D01*
X80577245Y-58493299D01*
X80781564Y-58493299D01*
X80782317Y-58542529D01*
X80803785Y-58602844D01*
X80844741Y-58667764D01*
X80898624Y-58726030D01*
X81015969Y-58822896D01*
X81150994Y-58918238D01*
X81292121Y-59004847D01*
X81427773Y-59075514D01*
X81524384Y-59115659D01*
X81567410Y-59131588D01*
X81625777Y-59154004D01*
X81641615Y-59160202D01*
X81700354Y-59181697D01*
X81749595Y-59197084D01*
X81758846Y-59199351D01*
X81804408Y-59205186D01*
X81868246Y-59208683D01*
X81938442Y-59209811D01*
X82003076Y-59208543D01*
X82050229Y-59204850D01*
X82067392Y-59200095D01*
X82058050Y-59183206D01*
X82024819Y-59143345D01*
X81971705Y-59084904D01*
X81902713Y-59012277D01*
X81821850Y-58929857D01*
X81811764Y-58919742D01*
X81715648Y-58823412D01*
X81642902Y-58749981D01*
X81589244Y-58694735D01*
X81550392Y-58652963D01*
X81522064Y-58619952D01*
X81499979Y-58590988D01*
X81479854Y-58561360D01*
X81464654Y-58537723D01*
X81436628Y-58496107D01*
X81417053Y-58471108D01*
X81415683Y-58469846D01*
X81406690Y-58459180D01*
X81390167Y-58434123D01*
X81363123Y-58389772D01*
X81322565Y-58321221D01*
X81266926Y-58226013D01*
X81242005Y-58181293D01*
X81212598Y-58126095D01*
X81210532Y-58122118D01*
X81175973Y-58075032D01*
X81143143Y-58066423D01*
X81114861Y-58095703D01*
X81097497Y-58145612D01*
X81089648Y-58207001D01*
X81095580Y-58277309D01*
X81116649Y-58366988D01*
X81133477Y-58422972D01*
X81132281Y-58469806D01*
X81102976Y-58504883D01*
X81055684Y-58524529D01*
X81000529Y-58525069D01*
X80947632Y-58502829D01*
X80937030Y-58494269D01*
X80887526Y-58465161D01*
X80847113Y-58454015D01*
X80802754Y-58461634D01*
X80781564Y-58493299D01*
X80577245Y-58493299D01*
X80582065Y-58428236D01*
X80595684Y-58362395D01*
X80610437Y-58322415D01*
X80631862Y-58281646D01*
X80654174Y-58261453D01*
X80690360Y-58255783D01*
X80748085Y-58258252D01*
X80808807Y-58260549D01*
X80841400Y-58255081D01*
X80856628Y-58237872D01*
X80862915Y-58215846D01*
X80885539Y-58123082D01*
X80908129Y-58057262D01*
X80936156Y-58006642D01*
X80975095Y-57959481D01*
X80989292Y-57944691D01*
X81069894Y-57862464D01*
X81040937Y-57780271D01*
X81019183Y-57711252D01*
X81000178Y-57641649D01*
X81227840Y-57641649D01*
X81229991Y-57668769D01*
X81244625Y-57720944D01*
X81253174Y-57751808D01*
X81275721Y-57816676D01*
X81313430Y-57906191D01*
X81362204Y-58010993D01*
X81399455Y-58085934D01*
X81542362Y-58328911D01*
X81718187Y-58560923D01*
X81929281Y-58784882D01*
X82061692Y-58906051D01*
X82108102Y-58943483D01*
X82175754Y-58994103D01*
X82258931Y-59054022D01*
X82351912Y-59119347D01*
X82448980Y-59186187D01*
X82544415Y-59250652D01*
X82632499Y-59308851D01*
X82707513Y-59356892D01*
X82763737Y-59390884D01*
X82795454Y-59406937D01*
X82798972Y-59407692D01*
X82826401Y-59416592D01*
X82874171Y-59439262D01*
X82904269Y-59455403D01*
X82973921Y-59488959D01*
X83046132Y-59515939D01*
X83067923Y-59522044D01*
X83125166Y-59536186D01*
X83204475Y-59556126D01*
X83290077Y-59577895D01*
X83302384Y-59581046D01*
X83385548Y-59601007D01*
X83463019Y-59617270D01*
X83520115Y-59626798D01*
X83527077Y-59627561D01*
X83602159Y-59632294D01*
X83707075Y-59635717D01*
X83832603Y-59637803D01*
X83969520Y-59638524D01*
X84108604Y-59637853D01*
X84240633Y-59635761D01*
X84356385Y-59632221D01*
X84400047Y-59630183D01*
X84638017Y-59617480D01*
X84590547Y-59542282D01*
X84562091Y-59495085D01*
X84545144Y-59462886D01*
X84543077Y-59456538D01*
X84533526Y-59435177D01*
X84509310Y-59393031D01*
X84494014Y-59368272D01*
X84435244Y-59254963D01*
X84400101Y-59142514D01*
X84393369Y-59060539D01*
X84573461Y-59060539D01*
X84581778Y-59125912D01*
X84585386Y-59137510D01*
X84613672Y-59199904D01*
X84659525Y-59278932D01*
X84714601Y-59361972D01*
X84770559Y-59436406D01*
X84816757Y-59487486D01*
X84856229Y-59531910D01*
X84881748Y-59573892D01*
X84883300Y-59578184D01*
X84908178Y-59615715D01*
X84929608Y-59628991D01*
X84968751Y-59642507D01*
X85024768Y-59663072D01*
X85041307Y-59669320D01*
X85127269Y-59690112D01*
X85233162Y-59698769D01*
X85341630Y-59694852D01*
X85430797Y-59679208D01*
X85518106Y-59649650D01*
X85612354Y-59609380D01*
X85699240Y-59565139D01*
X85764465Y-59523672D01*
X85770191Y-59519175D01*
X85808083Y-59485440D01*
X85862929Y-59432957D01*
X85924779Y-59371317D01*
X85944961Y-59350673D01*
X86004955Y-59286739D01*
X86041631Y-59240397D01*
X86060427Y-59202783D01*
X86066782Y-59165029D01*
X86067077Y-59151599D01*
X86073285Y-59096396D01*
X86088528Y-59056238D01*
X86091534Y-59052511D01*
X86116034Y-59021656D01*
X86151266Y-58971740D01*
X86171860Y-58940790D01*
X86227729Y-58854887D01*
X86147938Y-58865589D01*
X86089112Y-58879888D01*
X86043655Y-58901863D01*
X86036909Y-58907530D01*
X85987919Y-58935120D01*
X85937425Y-58929930D01*
X85892971Y-58897197D01*
X85862098Y-58842157D01*
X85852153Y-58779265D01*
X85838659Y-58729099D01*
X85803799Y-58665463D01*
X85756006Y-58600164D01*
X85703715Y-58545010D01*
X85664141Y-58516035D01*
X85599902Y-58496841D01*
X85533615Y-58510435D01*
X85459465Y-58558316D01*
X85441846Y-58573311D01*
X85402663Y-58614833D01*
X85358395Y-58671873D01*
X85316208Y-58733757D01*
X85283265Y-58789814D01*
X85266731Y-58829370D01*
X85266000Y-58835287D01*
X85249088Y-58864216D01*
X85206941Y-58880985D01*
X85152435Y-58882048D01*
X85122345Y-58874826D01*
X85069479Y-58838847D01*
X85039530Y-58794471D01*
X84989218Y-58705570D01*
X84931443Y-58653425D01*
X84862857Y-58635931D01*
X84801040Y-58644625D01*
X84710957Y-58684887D01*
X84651118Y-58749549D01*
X84624924Y-58816733D01*
X84609075Y-58883342D01*
X84590732Y-58959885D01*
X84585599Y-58981203D01*
X84573461Y-59060539D01*
X84393369Y-59060539D01*
X84391833Y-59041846D01*
X84393075Y-59028731D01*
X84416035Y-58876917D01*
X84445342Y-58758196D01*
X84484002Y-58666725D01*
X84535020Y-58596663D01*
X84601401Y-58542167D01*
X84660307Y-58509333D01*
X84719112Y-58480523D01*
X84767494Y-58456311D01*
X84782158Y-58448736D01*
X84825007Y-58433298D01*
X84844038Y-58430769D01*
X84893477Y-58441446D01*
X84959414Y-58468628D01*
X85027334Y-58505041D01*
X85082724Y-58543412D01*
X85098875Y-58558485D01*
X85145714Y-58609025D01*
X85210741Y-58522044D01*
X85266708Y-58459856D01*
X85334272Y-58403011D01*
X85402813Y-58358980D01*
X85461714Y-58335230D01*
X85479408Y-58333077D01*
X85497603Y-58328102D01*
X85510084Y-58308244D01*
X85519094Y-58266102D01*
X85526877Y-58194274D01*
X85529013Y-58169387D01*
X85533997Y-58078501D01*
X85534618Y-57989012D01*
X85530820Y-57918337D01*
X85529874Y-57910502D01*
X85520981Y-57854971D01*
X85507564Y-57783243D01*
X85491800Y-57705568D01*
X85475864Y-57632196D01*
X85461930Y-57573376D01*
X85452175Y-57539359D01*
X85450246Y-57535326D01*
X85434749Y-57543935D01*
X85400226Y-57572942D01*
X85370274Y-57600735D01*
X85319160Y-57646054D01*
X85248915Y-57703612D01*
X85172291Y-57763053D01*
X85148769Y-57780589D01*
X85074047Y-57837170D01*
X85002773Y-57893722D01*
X84947066Y-57940550D01*
X84933846Y-57952515D01*
X84854904Y-58017933D01*
X84765451Y-58078915D01*
X84676182Y-58129193D01*
X84597797Y-58162495D01*
X84559649Y-58171829D01*
X84508450Y-58182316D01*
X84476360Y-58195603D01*
X84473062Y-58198944D01*
X84449826Y-58207063D01*
X84397970Y-58213049D01*
X84327941Y-58215785D01*
X84315361Y-58215846D01*
X84211696Y-58211554D01*
X84137265Y-58194534D01*
X84082768Y-58158568D01*
X84038911Y-58097438D01*
X83996393Y-58004927D01*
X83995061Y-58001649D01*
X83963718Y-57925689D01*
X83935067Y-57858515D01*
X83914487Y-57812690D01*
X83911930Y-57807427D01*
X83901149Y-57763835D01*
X83893663Y-57685164D01*
X83889754Y-57575297D01*
X83889245Y-57494812D01*
X83891697Y-57360277D01*
X83899456Y-57254171D01*
X83914337Y-57166004D01*
X83938158Y-57085284D01*
X83972736Y-57001521D01*
X83975875Y-56994692D01*
X83991370Y-56958994D01*
X84016751Y-56898296D01*
X84047326Y-56823855D01*
X84057304Y-56799308D01*
X84089186Y-56724833D01*
X84118833Y-56662805D01*
X84141221Y-56623508D01*
X84146259Y-56617181D01*
X84167987Y-56588958D01*
X84171846Y-56578062D01*
X84184089Y-56557799D01*
X84215987Y-56518248D01*
X84254884Y-56474326D01*
X84315989Y-56406066D01*
X84380582Y-56331347D01*
X84412387Y-56293370D01*
X84457699Y-56244453D01*
X84516202Y-56189612D01*
X84579559Y-56135657D01*
X84639434Y-56089395D01*
X84687491Y-56057635D01*
X84713942Y-56047077D01*
X84737752Y-56035550D01*
X84778102Y-56006631D01*
X84794684Y-55993216D01*
X84859200Y-55939356D01*
X84774716Y-55832024D01*
X84699864Y-55740512D01*
X84633799Y-55669405D01*
X84564235Y-55606201D01*
X84508884Y-55561529D01*
X84455656Y-55511979D01*
X84428168Y-55468677D01*
X84425846Y-55455935D01*
X84443273Y-55398382D01*
X84490409Y-55358531D01*
X84559534Y-55342853D01*
X84560759Y-55342835D01*
X84626821Y-55335195D01*
X84698300Y-55317520D01*
X84709153Y-55313821D01*
X84766246Y-55295920D01*
X84812124Y-55286033D01*
X84820640Y-55285371D01*
X84862508Y-55273558D01*
X84927451Y-55241779D01*
X85008274Y-55194779D01*
X85097785Y-55137308D01*
X85188790Y-55074111D01*
X85274094Y-55009938D01*
X85346504Y-54949534D01*
X85384482Y-54913269D01*
X85445051Y-54844292D01*
X85495413Y-54770930D01*
X85538634Y-54686245D01*
X85577781Y-54583299D01*
X85615920Y-54455155D01*
X85654195Y-54302989D01*
X85669993Y-54223611D01*
X85674809Y-54153839D01*
X85668418Y-54078294D01*
X85650595Y-53981594D01*
X85649414Y-53975993D01*
X85594315Y-53763374D01*
X85522970Y-53563851D01*
X85438687Y-53385101D01*
X85344775Y-53234803D01*
X85311390Y-53191729D01*
X85209021Y-53091408D01*
X85081128Y-53002580D01*
X84939300Y-52931276D01*
X84795132Y-52883527D01*
X84685938Y-52866343D01*
X84543153Y-52872556D01*
X84387801Y-52905387D01*
X84231238Y-52960556D01*
X84084819Y-53033779D01*
X83959899Y-53120778D01*
X83923078Y-53153961D01*
X83868932Y-53212696D01*
X83823834Y-53272223D01*
X83800418Y-53313661D01*
X83779943Y-53359948D01*
X83764342Y-53387945D01*
X83762647Y-53389846D01*
X83745760Y-53415556D01*
X83719259Y-53467057D01*
X83688194Y-53533921D01*
X83657616Y-53605716D01*
X83655069Y-53612040D01*
X83630921Y-53690009D01*
X83629520Y-53757920D01*
X83652809Y-53827995D01*
X83702735Y-53912455D01*
X83702923Y-53912737D01*
X83744792Y-53978891D01*
X83768311Y-54030156D01*
X83778674Y-54082831D01*
X83781072Y-54153218D01*
X83781077Y-54158041D01*
X83778306Y-54225393D01*
X83771063Y-54276116D01*
X83761538Y-54298384D01*
X83745238Y-54325889D01*
X83742000Y-54349166D01*
X83725306Y-54392677D01*
X83680200Y-54445379D01*
X83614140Y-54500963D01*
X83534585Y-54553125D01*
X83452087Y-54594273D01*
X83386686Y-54619681D01*
X83329116Y-54635742D01*
X83266653Y-54644501D01*
X83186573Y-54648004D01*
X83115192Y-54648426D01*
X82993471Y-54645309D01*
X82900789Y-54635585D01*
X82827492Y-54618121D01*
X82812346Y-54612885D01*
X82750442Y-54585683D01*
X82679500Y-54547745D01*
X82607923Y-54504500D01*
X82544114Y-54461376D01*
X82496476Y-54423803D01*
X82473409Y-54397209D01*
X82472465Y-54393283D01*
X82465790Y-54382271D01*
X82765077Y-54382271D01*
X82782908Y-54398185D01*
X82831354Y-54419589D01*
X82902839Y-54443687D01*
X82989790Y-54467682D01*
X83009307Y-54472447D01*
X83061096Y-54477890D01*
X83132528Y-54477218D01*
X83209223Y-54471531D01*
X83276799Y-54461931D01*
X83320876Y-54449520D01*
X83322977Y-54448427D01*
X83365735Y-54426666D01*
X83422682Y-54399983D01*
X83434269Y-54394797D01*
X83480056Y-54370678D01*
X83505613Y-54349796D01*
X83507538Y-54345004D01*
X83505412Y-54331485D01*
X83491715Y-54329859D01*
X83455465Y-54340333D01*
X83437184Y-54346315D01*
X83336297Y-54370469D01*
X83212623Y-54386739D01*
X83080454Y-54394402D01*
X82954082Y-54392739D01*
X82847800Y-54381027D01*
X82828577Y-54377040D01*
X82781862Y-54371525D01*
X82765077Y-54382271D01*
X82465790Y-54382271D01*
X82456471Y-54366899D01*
X82445842Y-54360912D01*
X82423418Y-54338010D01*
X82393695Y-54290123D01*
X82362461Y-54229088D01*
X82335502Y-54166742D01*
X82318604Y-54114921D01*
X82316344Y-54099209D01*
X82484620Y-54099209D01*
X82537835Y-54141641D01*
X82605644Y-54180666D01*
X82701372Y-54216149D01*
X82813876Y-54245626D01*
X82932013Y-54266634D01*
X83044640Y-54276710D01*
X83136307Y-54273922D01*
X83196325Y-54264382D01*
X83279194Y-54248027D01*
X83369947Y-54227877D01*
X83398831Y-54220969D01*
X83497436Y-54194219D01*
X83561354Y-54168647D01*
X83594641Y-54140374D01*
X83601360Y-54105519D01*
X83585568Y-54060203D01*
X83579437Y-54048374D01*
X83522866Y-53960995D01*
X83454699Y-53895219D01*
X83362448Y-53839550D01*
X83341461Y-53829307D01*
X83281110Y-53802755D01*
X83227323Y-53786073D01*
X83167366Y-53776935D01*
X83088508Y-53773016D01*
X83028846Y-53772217D01*
X82897543Y-53776914D01*
X82794366Y-53796447D01*
X82709676Y-53835853D01*
X82633832Y-53900169D01*
X82557193Y-53994432D01*
X82530256Y-54032720D01*
X82484620Y-54099209D01*
X82316344Y-54099209D01*
X82315692Y-54094681D01*
X82327242Y-54046259D01*
X82357656Y-53978908D01*
X82400582Y-53903547D01*
X82449665Y-53831100D01*
X82498554Y-53772486D01*
X82509221Y-53762000D01*
X82551891Y-53717960D01*
X82576314Y-53676554D01*
X82589598Y-53622113D01*
X82595731Y-53571278D01*
X82599487Y-53486529D01*
X82595876Y-53399922D01*
X82589909Y-53354348D01*
X82570174Y-53278836D01*
X82539689Y-53193530D01*
X82503617Y-53110340D01*
X82467120Y-53041174D01*
X82435449Y-52998029D01*
X82346431Y-52939234D01*
X82233339Y-52907025D01*
X82154512Y-52901384D01*
X82078061Y-52904523D01*
X82018153Y-52917380D01*
X81968039Y-52945117D01*
X81920969Y-52992899D01*
X81870193Y-53065888D01*
X81812577Y-53162928D01*
X81785547Y-53217535D01*
X81770051Y-53263205D01*
X81768615Y-53274535D01*
X81760049Y-53309866D01*
X81751291Y-53320092D01*
X81736751Y-53344709D01*
X81722735Y-53392027D01*
X81720235Y-53404284D01*
X81707546Y-53457278D01*
X81693877Y-53493670D01*
X81691548Y-53497308D01*
X81671005Y-53537637D01*
X81646157Y-53606137D01*
X81619763Y-53692542D01*
X81594585Y-53786590D01*
X81573381Y-53878018D01*
X81558914Y-53956562D01*
X81553923Y-54009039D01*
X81558677Y-54055474D01*
X81570486Y-54081736D01*
X81571015Y-54082092D01*
X81585565Y-54106708D01*
X81599607Y-54154023D01*
X81602116Y-54166284D01*
X81619005Y-54227430D01*
X81644423Y-54289453D01*
X81672191Y-54339279D01*
X81695346Y-54363513D01*
X81709879Y-54385832D01*
X81710000Y-54388212D01*
X81720401Y-54410396D01*
X81752330Y-54455514D01*
X81806874Y-54524933D01*
X81885118Y-54620022D01*
X81988151Y-54742148D01*
X82033429Y-54795229D01*
X82102488Y-54880185D01*
X82159062Y-54957954D01*
X82198766Y-55021955D01*
X82217220Y-55065606D01*
X82218000Y-55072405D01*
X82206750Y-55133243D01*
X82172082Y-55163554D01*
X82142393Y-55167846D01*
X82113345Y-55164822D01*
X82087467Y-55151448D01*
X82057361Y-55121276D01*
X82015633Y-55067854D01*
X81993868Y-55038308D01*
X81981500Y-55023833D01*
X81967041Y-55019142D01*
X81944136Y-55027199D01*
X81906430Y-55050968D01*
X81847568Y-55093411D01*
X81799861Y-55128769D01*
X81726440Y-55190728D01*
X81651809Y-55266516D01*
X81580138Y-55350221D01*
X81515594Y-55435926D01*
X81462345Y-55517716D01*
X81424560Y-55589678D01*
X81406406Y-55645896D01*
X81411537Y-55679842D01*
X81429129Y-55715555D01*
X81444531Y-55768488D01*
X81445578Y-55773538D01*
X81463419Y-55853890D01*
X81484981Y-55929068D01*
X81514371Y-56011429D01*
X81555698Y-56113328D01*
X81568999Y-56144769D01*
X81590959Y-56203335D01*
X81615294Y-56278756D01*
X81638662Y-56359197D01*
X81657720Y-56432819D01*
X81669124Y-56487787D01*
X81670923Y-56505613D01*
X81681828Y-56551152D01*
X81695346Y-56571672D01*
X81703980Y-56591768D01*
X81710532Y-56634928D01*
X81715189Y-56704653D01*
X81718138Y-56804443D01*
X81719565Y-56937800D01*
X81719769Y-57029849D01*
X81719573Y-57171938D01*
X81718647Y-57280900D01*
X81716483Y-57362686D01*
X81712573Y-57423244D01*
X81706410Y-57468525D01*
X81697486Y-57504477D01*
X81685292Y-57537052D01*
X81674411Y-57561308D01*
X81633722Y-57641570D01*
X81597230Y-57691404D01*
X81557169Y-57717581D01*
X81505768Y-57726870D01*
X81483862Y-57727384D01*
X81425133Y-57720306D01*
X81364090Y-57702350D01*
X81312787Y-57678432D01*
X81283278Y-57653469D01*
X81280277Y-57644346D01*
X81264180Y-57631486D01*
X81249529Y-57629692D01*
X81227840Y-57641649D01*
X81000178Y-57641649D01*
X80996776Y-57629192D01*
X80987428Y-57590615D01*
X80965566Y-57520512D01*
X80936599Y-57459130D01*
X80919237Y-57434308D01*
X80875247Y-57378277D01*
X80824627Y-57303289D01*
X80772049Y-57217645D01*
X80722184Y-57129643D01*
X80679705Y-57047583D01*
X80649283Y-56979765D01*
X80635591Y-56934487D01*
X80635264Y-56929829D01*
X80626998Y-56904365D01*
X80609731Y-56867692D01*
X80571457Y-56776269D01*
X80535520Y-56656985D01*
X80505133Y-56521045D01*
X80496713Y-56473486D01*
X80484939Y-56385353D01*
X80481798Y-56304671D01*
X80484101Y-56267016D01*
X80682112Y-56267016D01*
X80692664Y-56416017D01*
X80717697Y-56571216D01*
X80756679Y-56725318D01*
X80809077Y-56871030D01*
X80811822Y-56877461D01*
X80881631Y-57033093D01*
X80941439Y-57152002D01*
X80991791Y-57235093D01*
X81033229Y-57283271D01*
X81064053Y-57297538D01*
X81100797Y-57310166D01*
X81145396Y-57341094D01*
X81151307Y-57346384D01*
X81192168Y-57378943D01*
X81224063Y-57395457D01*
X81227429Y-57395933D01*
X81256729Y-57407951D01*
X81299513Y-57436779D01*
X81309461Y-57444682D01*
X81369626Y-57483656D01*
X81417259Y-57488777D01*
X81458344Y-57460601D01*
X81459987Y-57458731D01*
X81497777Y-57389252D01*
X81521612Y-57286063D01*
X81531297Y-57152027D01*
X81526637Y-56990008D01*
X81507435Y-56802871D01*
X81505628Y-56789538D01*
X81445670Y-56485770D01*
X81349443Y-56187215D01*
X81268029Y-55996283D01*
X81242145Y-55935312D01*
X81225267Y-55885008D01*
X81221538Y-55864399D01*
X81212576Y-55836554D01*
X81203515Y-55832154D01*
X81184390Y-55815122D01*
X81166647Y-55773841D01*
X81154534Y-55723034D01*
X81152301Y-55677424D01*
X81155042Y-55664174D01*
X81214255Y-55527614D01*
X81296648Y-55387825D01*
X81392025Y-55261898D01*
X81401404Y-55251261D01*
X81486366Y-55159148D01*
X81569567Y-55074034D01*
X81645696Y-55000929D01*
X81709442Y-54944839D01*
X81755495Y-54910774D01*
X81770070Y-54903615D01*
X81804577Y-54881113D01*
X81814139Y-54866612D01*
X81816922Y-54853812D01*
X81813040Y-54837660D01*
X81798976Y-54812887D01*
X81771213Y-54774223D01*
X81726232Y-54716397D01*
X81660517Y-54634141D01*
X81651384Y-54622767D01*
X81563461Y-54513308D01*
X81558433Y-54571923D01*
X81549862Y-54627816D01*
X81534390Y-54694285D01*
X81515277Y-54760593D01*
X81495781Y-54816000D01*
X81479162Y-54849771D01*
X81472445Y-54855231D01*
X81456903Y-54870558D01*
X81456000Y-54877978D01*
X81446030Y-54908774D01*
X81419511Y-54963378D01*
X81381526Y-55033055D01*
X81337160Y-55109072D01*
X81291497Y-55182693D01*
X81249620Y-55245185D01*
X81219036Y-55285077D01*
X81170624Y-55340038D01*
X81112648Y-55404957D01*
X81081136Y-55439877D01*
X81044887Y-55483059D01*
X80998055Y-55543299D01*
X80946022Y-55613094D01*
X80894170Y-55684939D01*
X80847881Y-55751327D01*
X80812537Y-55804755D01*
X80793521Y-55837718D01*
X80791692Y-55843471D01*
X80782171Y-55863866D01*
X80758022Y-55905350D01*
X80742666Y-55930130D01*
X80706581Y-56016779D01*
X80686573Y-56131506D01*
X80682112Y-56267016D01*
X80484101Y-56267016D01*
X80487297Y-56214773D01*
X80496823Y-56133340D01*
X80509169Y-56048338D01*
X80521936Y-55975913D01*
X80533211Y-55926274D01*
X80538241Y-55912084D01*
X80555557Y-55877270D01*
X80581956Y-55821843D01*
X80599918Y-55783308D01*
X80675436Y-55646455D01*
X80772347Y-55510117D01*
X80858419Y-55412077D01*
X80925678Y-55339131D01*
X81002156Y-55249143D01*
X81081929Y-55149849D01*
X81159074Y-55048987D01*
X81227666Y-54954295D01*
X81281782Y-54873511D01*
X81314650Y-54816154D01*
X81339100Y-54752986D01*
X81358823Y-54679362D01*
X81372569Y-54604521D01*
X81379091Y-54537702D01*
X81377141Y-54488144D01*
X81365470Y-54465085D01*
X81362166Y-54464461D01*
X81344315Y-54446252D01*
X81325852Y-54396784D01*
X81308628Y-54323799D01*
X81294493Y-54235037D01*
X81285708Y-54144602D01*
X81287285Y-54045559D01*
X81306144Y-53937990D01*
X81344096Y-53815373D01*
X81402948Y-53671184D01*
X81438485Y-53593810D01*
X81471757Y-53511329D01*
X81503507Y-53412697D01*
X81525101Y-53326999D01*
X81546075Y-53240518D01*
X81576107Y-53135242D01*
X81610045Y-53028777D01*
X81624826Y-52986265D01*
X81659497Y-52889730D01*
X81694647Y-52791963D01*
X81714866Y-52735788D01*
X81924923Y-52735788D01*
X81940847Y-52741169D01*
X81979013Y-52736278D01*
X82025014Y-52724399D01*
X82064441Y-52708813D01*
X82076452Y-52701263D01*
X82111010Y-52691334D01*
X82165961Y-52692219D01*
X82179758Y-52694098D01*
X82344035Y-52736657D01*
X82481513Y-52807617D01*
X82592437Y-52907173D01*
X82677057Y-53035522D01*
X82711696Y-53116308D01*
X82742995Y-53213770D01*
X82768959Y-53316085D01*
X82787478Y-53412509D01*
X82796442Y-53492300D01*
X82794858Y-53539654D01*
X82783450Y-53601539D01*
X82886609Y-53574078D01*
X82980779Y-53554438D01*
X83067342Y-53550472D01*
X83156742Y-53563590D01*
X83259427Y-53595203D01*
X83368331Y-53639121D01*
X83424008Y-53653782D01*
X83456395Y-53637878D01*
X83468378Y-53589855D01*
X83468527Y-53585231D01*
X83478489Y-53550850D01*
X83506308Y-53486643D01*
X83550118Y-53396519D01*
X83608054Y-53284387D01*
X83645670Y-53214000D01*
X83726161Y-53098849D01*
X83836899Y-52988825D01*
X83969074Y-52890277D01*
X84113874Y-52809551D01*
X84262488Y-52752994D01*
X84298846Y-52743460D01*
X84366003Y-52725451D01*
X84424348Y-52706311D01*
X84443457Y-52698504D01*
X84487949Y-52687793D01*
X84559839Y-52680798D01*
X84647916Y-52677494D01*
X84740968Y-52677857D01*
X84827782Y-52681861D01*
X84897148Y-52689482D01*
X84935772Y-52699595D01*
X84992880Y-52722080D01*
X85031934Y-52733033D01*
X85093564Y-52757383D01*
X85172098Y-52804785D01*
X85258593Y-52868980D01*
X85344106Y-52943712D01*
X85371724Y-52970770D01*
X85424454Y-53029350D01*
X85481185Y-53100768D01*
X85536338Y-53176883D01*
X85584331Y-53249551D01*
X85619584Y-53310633D01*
X85636514Y-53351986D01*
X85637230Y-53358080D01*
X85646449Y-53391290D01*
X85650621Y-53396724D01*
X85665216Y-53423559D01*
X85687934Y-53479179D01*
X85715815Y-53554897D01*
X85745899Y-53642025D01*
X85775227Y-53731876D01*
X85800838Y-53815763D01*
X85819773Y-53884998D01*
X85825557Y-53910165D01*
X85833921Y-53973252D01*
X85839147Y-54058153D01*
X85841117Y-54151904D01*
X85839719Y-54241543D01*
X85834837Y-54314108D01*
X85829431Y-54347231D01*
X85817636Y-54399255D01*
X85804694Y-54463768D01*
X85802751Y-54474231D01*
X85790300Y-54528661D01*
X85777158Y-54566714D01*
X85774146Y-54571923D01*
X85758910Y-54604875D01*
X85747951Y-54641459D01*
X85717991Y-54723457D01*
X85666216Y-54821430D01*
X85599464Y-54924779D01*
X85524571Y-55022908D01*
X85449292Y-55104346D01*
X85390694Y-55158392D01*
X85341688Y-55200188D01*
X85309667Y-55223577D01*
X85302615Y-55226461D01*
X85275142Y-55237336D01*
X85232132Y-55263389D01*
X85188055Y-55294766D01*
X85157379Y-55321610D01*
X85152025Y-55329038D01*
X85129698Y-55343563D01*
X85127214Y-55343692D01*
X85100654Y-55353345D01*
X85055593Y-55377605D01*
X85036034Y-55389502D01*
X84972847Y-55423249D01*
X84895906Y-55456476D01*
X84860577Y-55469226D01*
X84804287Y-55490304D01*
X84767029Y-55508983D01*
X84758000Y-55518080D01*
X84771028Y-55540849D01*
X84798278Y-55569472D01*
X84828877Y-55602287D01*
X84873647Y-55656380D01*
X84923988Y-55721274D01*
X84934911Y-55735899D01*
X85031266Y-55865874D01*
X85110389Y-55844755D01*
X85184256Y-55834353D01*
X85231161Y-55851150D01*
X85253511Y-55896566D01*
X85256230Y-55930812D01*
X85253707Y-55968364D01*
X85240075Y-55991912D01*
X85206244Y-56009701D01*
X85148769Y-56028278D01*
X85049237Y-56064598D01*
X84953345Y-56110543D01*
X84875677Y-56158797D01*
X84854153Y-56176059D01*
X84822956Y-56198342D01*
X84809020Y-56203384D01*
X84781818Y-56215833D01*
X84735660Y-56248278D01*
X84679498Y-56293365D01*
X84622287Y-56343743D01*
X84572983Y-56392058D01*
X84555267Y-56411749D01*
X84506431Y-56468004D01*
X84447230Y-56534230D01*
X84411596Y-56573207D01*
X84337416Y-56668249D01*
X84264864Y-56792193D01*
X84192284Y-56948269D01*
X84118019Y-57139711D01*
X84110492Y-57160769D01*
X84087592Y-57234975D01*
X84073608Y-57309078D01*
X84066663Y-57396738D01*
X84064892Y-57492923D01*
X84065896Y-57592100D01*
X84070954Y-57665705D01*
X84082269Y-57727197D01*
X84102047Y-57790036D01*
X84122032Y-57841847D01*
X84162488Y-57932095D01*
X84203548Y-57992432D01*
X84252559Y-58025980D01*
X84316866Y-58035866D01*
X84403816Y-58025215D01*
X84499974Y-58002617D01*
X84558439Y-57981454D01*
X84628338Y-57948028D01*
X84695524Y-57909967D01*
X84745848Y-57874899D01*
X84758000Y-57863514D01*
X84783435Y-57839866D01*
X84830848Y-57799148D01*
X84891541Y-57748493D01*
X84956814Y-57695036D01*
X85017967Y-57645910D01*
X85066303Y-57608251D01*
X85090764Y-57590615D01*
X85129434Y-57562140D01*
X85183877Y-57517382D01*
X85234072Y-57473384D01*
X85293271Y-57419943D01*
X85348524Y-57370265D01*
X85381663Y-57340637D01*
X85440412Y-57292524D01*
X85520311Y-57232637D01*
X85612442Y-57167081D01*
X85707886Y-57101961D01*
X85797727Y-57043380D01*
X85873046Y-56997444D01*
X85918580Y-56973090D01*
X86010494Y-56939117D01*
X86083769Y-56929728D01*
X86134727Y-56944017D01*
X86159691Y-56981077D01*
X86157218Y-57031885D01*
X86134867Y-57069484D01*
X86084163Y-57101162D01*
X86052460Y-57114174D01*
X85997329Y-57136507D01*
X85959198Y-57155038D01*
X85949846Y-57161726D01*
X85926522Y-57179845D01*
X85896547Y-57197377D01*
X85845680Y-57228207D01*
X85786316Y-57270109D01*
X85726063Y-57316838D01*
X85672529Y-57362147D01*
X85633322Y-57399791D01*
X85616050Y-57423522D01*
X85616510Y-57427294D01*
X85633495Y-57464281D01*
X85650693Y-57532561D01*
X85667070Y-57624373D01*
X85681598Y-57731951D01*
X85693244Y-57847532D01*
X85700977Y-57963354D01*
X85703767Y-58071653D01*
X85703719Y-58083961D01*
X85703688Y-58189771D01*
X85705861Y-58262056D01*
X85710800Y-58306333D01*
X85719068Y-58328120D01*
X85729073Y-58333077D01*
X85760266Y-58347593D01*
X85806417Y-58385660D01*
X85859730Y-58439058D01*
X85912413Y-58499568D01*
X85956673Y-58558969D01*
X85979153Y-58596846D01*
X86015723Y-58661608D01*
X86044793Y-58692414D01*
X86069794Y-58692827D01*
X86070955Y-58692141D01*
X86110167Y-58677363D01*
X86177082Y-58661622D01*
X86233377Y-58651685D01*
X86299455Y-58657589D01*
X86345723Y-58684594D01*
X86381141Y-58720457D01*
X86396535Y-58764320D01*
X86399230Y-58813815D01*
X86392448Y-58886405D01*
X86375660Y-58956092D01*
X86370837Y-58968902D01*
X86353829Y-59012253D01*
X86353816Y-59027154D01*
X86372084Y-59020936D01*
X86379293Y-59017136D01*
X86411703Y-58995894D01*
X86464180Y-58957489D01*
X86526500Y-58909452D01*
X86539571Y-58899092D01*
X86601597Y-58849593D01*
X86654442Y-58807262D01*
X86688431Y-58779851D01*
X86692307Y-58776683D01*
X86726874Y-58750379D01*
X86776314Y-58714973D01*
X86790000Y-58705469D01*
X86862277Y-58647918D01*
X86945850Y-58569358D01*
X86948117Y-58566962D01*
X87224806Y-58566962D01*
X87225798Y-58583106D01*
X87249624Y-58578907D01*
X87254038Y-58577146D01*
X87297657Y-58562401D01*
X87349101Y-58548399D01*
X87427954Y-58521560D01*
X87516426Y-58478837D01*
X87607560Y-58425184D01*
X87694401Y-58365555D01*
X87769991Y-58304905D01*
X87827374Y-58248186D01*
X87859595Y-58200354D01*
X87864089Y-58181654D01*
X87876018Y-58158927D01*
X87882638Y-58157231D01*
X87899802Y-58140067D01*
X87919841Y-58096671D01*
X87938258Y-58039186D01*
X87950554Y-57979754D01*
X87951647Y-57970932D01*
X87944605Y-57930054D01*
X87909637Y-57889175D01*
X87886324Y-57870593D01*
X87813830Y-57810228D01*
X87752167Y-57747383D01*
X87709839Y-57691294D01*
X87697531Y-57665597D01*
X87677867Y-57632222D01*
X87654313Y-57634496D01*
X87630418Y-57669705D01*
X87610381Y-57732269D01*
X87586097Y-57829707D01*
X87560601Y-57918954D01*
X87536640Y-57991339D01*
X87516960Y-58038196D01*
X87510098Y-58048792D01*
X87495641Y-58082950D01*
X87493384Y-58103579D01*
X87482549Y-58145513D01*
X87453272Y-58210063D01*
X87410392Y-58288464D01*
X87358751Y-58371947D01*
X87303188Y-58451746D01*
X87295557Y-58461882D01*
X87247706Y-58527533D01*
X87224806Y-58566962D01*
X86948117Y-58566962D01*
X87029632Y-58480816D01*
X87098239Y-58398894D01*
X87174597Y-58284568D01*
X87250346Y-58142625D01*
X87320656Y-57984296D01*
X87380702Y-57820815D01*
X87425653Y-57663413D01*
X87437260Y-57610154D01*
X87446478Y-57546481D01*
X87454414Y-57459935D01*
X87460891Y-57357848D01*
X87465737Y-57247555D01*
X87468777Y-57136391D01*
X87469836Y-57031689D01*
X87468740Y-56940783D01*
X87465314Y-56871009D01*
X87459384Y-56829699D01*
X87455990Y-56822482D01*
X87439144Y-56787317D01*
X87434769Y-56754720D01*
X87428736Y-56713659D01*
X87412850Y-56649151D01*
X87390433Y-56574535D01*
X87388324Y-56568128D01*
X87356872Y-56472803D01*
X87322373Y-56367522D01*
X87297570Y-56291320D01*
X87270561Y-56213241D01*
X87242370Y-56146517D01*
X87206337Y-56077234D01*
X87155801Y-55991480D01*
X87147546Y-55977952D01*
X87129306Y-55945379D01*
X87098087Y-55886883D01*
X87058604Y-55811385D01*
X87024170Y-55744604D01*
X86982946Y-55665520D01*
X86947438Y-55599932D01*
X86921783Y-55555327D01*
X86910750Y-55539451D01*
X86896408Y-55518068D01*
X86870664Y-55470648D01*
X86838573Y-55406596D01*
X86831801Y-55392538D01*
X86792086Y-55309989D01*
X86751484Y-55226299D01*
X86719559Y-55161158D01*
X86693306Y-55104663D01*
X86676329Y-55061583D01*
X86672769Y-55046880D01*
X86665324Y-55016888D01*
X86647194Y-54970263D01*
X86645146Y-54965645D01*
X86609770Y-54876245D01*
X86581721Y-54779446D01*
X86560230Y-54669590D01*
X86544529Y-54541020D01*
X86533850Y-54388076D01*
X86527425Y-54205102D01*
X86525350Y-54083461D01*
X86522139Y-53881388D01*
X86517665Y-53696097D01*
X86512098Y-53530797D01*
X86505607Y-53388692D01*
X86498363Y-53272989D01*
X86490535Y-53186894D01*
X86482291Y-53133612D01*
X86474200Y-53116308D01*
X86462902Y-53105505D01*
X86464663Y-53101546D01*
X86468428Y-53068359D01*
X86460978Y-53007529D01*
X86444496Y-52928121D01*
X86421168Y-52839200D01*
X86393178Y-52749830D01*
X86362710Y-52669076D01*
X86357572Y-52657154D01*
X86329354Y-52601156D01*
X86285362Y-52522893D01*
X86231742Y-52432446D01*
X86174639Y-52339899D01*
X86120198Y-52255337D01*
X86074567Y-52188843D01*
X86061287Y-52171021D01*
X86021657Y-52123607D01*
X85965217Y-52061218D01*
X85897267Y-51989166D01*
X85823108Y-51912765D01*
X85748039Y-51837327D01*
X85677361Y-51768167D01*
X85616375Y-51710597D01*
X85570380Y-51669930D01*
X85544677Y-51651479D01*
X85542450Y-51650923D01*
X85521169Y-51640323D01*
X85520000Y-51635385D01*
X85503443Y-51619678D01*
X85458999Y-51592301D01*
X85394511Y-51557416D01*
X85317818Y-51519181D01*
X85236761Y-51481756D01*
X85202500Y-51466941D01*
X85134609Y-51437935D01*
X85067798Y-51408903D01*
X85062778Y-51406692D01*
X85010580Y-51387095D01*
X84969942Y-51377561D01*
X84966238Y-51377384D01*
X84932830Y-51367231D01*
X84925127Y-51359546D01*
X84900494Y-51345826D01*
X84851924Y-51332778D01*
X84831166Y-51329131D01*
X84769208Y-51317301D01*
X84718275Y-51303529D01*
X84709153Y-51300112D01*
X84670576Y-51286982D01*
X84607995Y-51268757D01*
X84539629Y-51250593D01*
X84441573Y-51234115D01*
X84316423Y-51225784D01*
X84171942Y-51224939D01*
X84015892Y-51230916D01*
X83856036Y-51243055D01*
X83700136Y-51260691D01*
X83555954Y-51283164D01*
X83431255Y-51309811D01*
X83333799Y-51339970D01*
X83296839Y-51356621D01*
X83258613Y-51374044D01*
X83201371Y-51397171D01*
X83175441Y-51406994D01*
X83121792Y-51428655D01*
X83085403Y-51446665D01*
X83077749Y-51452427D01*
X83056913Y-51466559D01*
X83009727Y-51493228D01*
X82944855Y-51527613D01*
X82916187Y-51542300D01*
X82841980Y-51581776D01*
X82777662Y-51619261D01*
X82734161Y-51648281D01*
X82726504Y-51654646D01*
X82691996Y-51681213D01*
X82671035Y-51690000D01*
X82643951Y-51705147D01*
X82598654Y-51747140D01*
X82539339Y-51810810D01*
X82470196Y-51890985D01*
X82395419Y-51982497D01*
X82319199Y-52080175D01*
X82245729Y-52178847D01*
X82179201Y-52273345D01*
X82123807Y-52358498D01*
X82108948Y-52383218D01*
X82073094Y-52444376D01*
X82042159Y-52497117D01*
X82028734Y-52519987D01*
X82002184Y-52568286D01*
X81972896Y-52626013D01*
X81946591Y-52681270D01*
X81928995Y-52722162D01*
X81924923Y-52735788D01*
X81714866Y-52735788D01*
X81724794Y-52708207D01*
X81736154Y-52676692D01*
X81768772Y-52595858D01*
X81807114Y-52514179D01*
X81830401Y-52471036D01*
X81868809Y-52404418D01*
X81914226Y-52323886D01*
X81946362Y-52265882D01*
X82107537Y-52002842D01*
X82282872Y-51775659D01*
X82472143Y-51584565D01*
X82675126Y-51429791D01*
X82853000Y-51329490D01*
X82940572Y-51290534D01*
X83044425Y-51249290D01*
X83156302Y-51208499D01*
X83267947Y-51170902D01*
X83371104Y-51139241D01*
X83457517Y-51116257D01*
X83518930Y-51104690D01*
X83532582Y-51103846D01*
X83574124Y-51098533D01*
X83592936Y-51088393D01*
X83607155Y-51078316D01*
X83638400Y-51070352D01*
X83690328Y-51064295D01*
X83766593Y-51059938D01*
X83870852Y-51057074D01*
X84006759Y-51055497D01*
X84177970Y-51055000D01*
X84183602Y-51055000D01*
X84357423Y-51056141D01*
G37*
X84357423Y-51056141D02*
X84492980Y-51059557D01*
X84590056Y-51065238D01*
X84648436Y-51073173D01*
X84662294Y-51077606D01*
X84752907Y-51116590D01*
X84839870Y-51145764D01*
X84910462Y-51161100D01*
X84930333Y-51162461D01*
X84976980Y-51167978D01*
X85003207Y-51178964D01*
X85030019Y-51193577D01*
X85082427Y-51215995D01*
X85148769Y-51241247D01*
X85290607Y-51299570D01*
X85438016Y-51372568D01*
X85575781Y-51452180D01*
X85676307Y-51520815D01*
X85784496Y-51610635D01*
X85902156Y-51721857D01*
X86021419Y-51845868D01*
X86134416Y-51974051D01*
X86233280Y-52097792D01*
X86310141Y-52208477D01*
X86321600Y-52227308D01*
X86351380Y-52275929D01*
X86373362Y-52308796D01*
X86378661Y-52315231D01*
X86401002Y-52345893D01*
X86433679Y-52403363D01*
X86472122Y-52478324D01*
X86511758Y-52561463D01*
X86548015Y-52643465D01*
X86576323Y-52715015D01*
X86580040Y-52725538D01*
X86602107Y-52804220D01*
X86625935Y-52915420D01*
X86650356Y-53052689D01*
X86674200Y-53209579D01*
X86691594Y-53341000D01*
X86697840Y-53412378D01*
X86703192Y-53514464D01*
X86707395Y-53638895D01*
X86710193Y-53777306D01*
X86711332Y-53921333D01*
X86711236Y-53985769D01*
X86711498Y-54146833D01*
X86713744Y-54288864D01*
X86717803Y-54406902D01*
X86723502Y-54495981D01*
X86730668Y-54551140D01*
X86730941Y-54552384D01*
X86747330Y-54625743D01*
X86762943Y-54695975D01*
X86767916Y-54718461D01*
X86784054Y-54778301D01*
X86807642Y-54851493D01*
X86819483Y-54884538D01*
X86842252Y-54939091D01*
X86877181Y-55015177D01*
X86920370Y-55105071D01*
X86967921Y-55201047D01*
X87015935Y-55295380D01*
X87060514Y-55380346D01*
X87097759Y-55448217D01*
X87123770Y-55491270D01*
X87129747Y-55499339D01*
X87159003Y-55539855D01*
X87169686Y-55558615D01*
X87185157Y-55588200D01*
X87214301Y-55642418D01*
X87251942Y-55711672D01*
X87269752Y-55744231D01*
X87372173Y-55936455D01*
X87454229Y-56103093D01*
X87518516Y-56250176D01*
X87567632Y-56383735D01*
X87604172Y-56509803D01*
X87610409Y-56535538D01*
X87622380Y-56599684D01*
X87635845Y-56692700D01*
X87649720Y-56804466D01*
X87662923Y-56924859D01*
X87674370Y-57043760D01*
X87682976Y-57151045D01*
X87687660Y-57236595D01*
X87688190Y-57262140D01*
X87691619Y-57331729D01*
X87704830Y-57379243D01*
X87733553Y-57421474D01*
X87748215Y-57437986D01*
X87795713Y-57494953D01*
X87846216Y-57563209D01*
X87864709Y-57590615D01*
X87917151Y-57655086D01*
X87982452Y-57714518D01*
X88008554Y-57732885D01*
X88091782Y-57806748D01*
X88147635Y-57902673D01*
X88173894Y-58012819D01*
X88168341Y-58129345D01*
X88143974Y-58211397D01*
X88119131Y-58256712D01*
X88080910Y-58310868D01*
X88037389Y-58364168D01*
X87996644Y-58406916D01*
X87966751Y-58429416D01*
X87961240Y-58430769D01*
X87938049Y-58442876D01*
X87899185Y-58473222D01*
X87883734Y-58486892D01*
X87826249Y-58529802D01*
X87743540Y-58579593D01*
X87647244Y-58630181D01*
X87548999Y-58675481D01*
X87460445Y-58709409D01*
X87454307Y-58711393D01*
X87284877Y-58763007D01*
X87143199Y-58801431D01*
X87032656Y-58825777D01*
X86996296Y-58831595D01*
X86935161Y-58845606D01*
X86873762Y-58873667D01*
X86804045Y-58920540D01*
X86717953Y-58990990D01*
X86699398Y-59007154D01*
X86640532Y-59056843D01*
X86599528Y-59087395D01*
X86583805Y-59095077D01*
X86563749Y-59107072D01*
X86530298Y-59135747D01*
X86490128Y-59165225D01*
X86428257Y-59201682D01*
X86366064Y-59233340D01*
X86302449Y-59265987D01*
X86253158Y-59296338D01*
X86229295Y-59317335D01*
X86210360Y-59341835D01*
X86170675Y-59388087D01*
X86116183Y-59449301D01*
X86057307Y-59513837D01*
X85980596Y-59594330D01*
X85917371Y-59652679D01*
X85856792Y-59697322D01*
X85788019Y-59736698D01*
X85741117Y-59759962D01*
X85658685Y-59796631D01*
X85579106Y-59827155D01*
X85516056Y-59846431D01*
X85501338Y-59849434D01*
X85448925Y-59861215D01*
X85415294Y-59875083D01*
X85410952Y-59879182D01*
X85387328Y-59887498D01*
X85336064Y-59892948D01*
X85268494Y-59895545D01*
X85195947Y-59895298D01*
X85129757Y-59892221D01*
X85081255Y-59886324D01*
X85062215Y-59878830D01*
X85037566Y-59864215D01*
X84990367Y-59850221D01*
X84979021Y-59847908D01*
X84921850Y-59832826D01*
X84877674Y-59813880D01*
X84874009Y-59811501D01*
X84848158Y-59802823D01*
X84798251Y-59797992D01*
X84720274Y-59796921D01*
X84610212Y-59799520D01*
X84511549Y-59803493D01*
X84316647Y-59809764D01*
X84119978Y-59811535D01*
X83928103Y-59809056D01*
X83747583Y-59802581D01*
X83584978Y-59792361D01*
X83446849Y-59778649D01*
X83339757Y-59761697D01*
X83321923Y-59757772D01*
X83173391Y-59719236D01*
X83017815Y-59672371D01*
X82861459Y-59619645D01*
X82710590Y-59563524D01*
X82571474Y-59506475D01*
X82450376Y-59450964D01*
X82353562Y-59399459D01*
X82287298Y-59354426D01*
X82279159Y-59347253D01*
X82246860Y-59320524D01*
X82227427Y-59320285D01*
X82210545Y-59339446D01*
X82166964Y-59371571D01*
X82094003Y-59396108D01*
X82000946Y-59411136D01*
X81897078Y-59414733D01*
X81856538Y-59412691D01*
X81785560Y-59405630D01*
X81729614Y-59396917D01*
X81700533Y-59388406D01*
X81700230Y-59388195D01*
X81668222Y-59373786D01*
X81622077Y-59360270D01*
X81569312Y-59343894D01*
X81500715Y-59317156D01*
X81424896Y-59284141D01*
X81350465Y-59248931D01*
X81286032Y-59215609D01*
X81240207Y-59188257D01*
X81221601Y-59170958D01*
X81221538Y-59170340D01*
X81204761Y-59157101D01*
X81164409Y-59144249D01*
X81164273Y-59144219D01*
X81114804Y-59125977D01*
X81083726Y-59103590D01*
X81050494Y-59079470D01*
X81033530Y-59075538D01*
X81009103Y-59064181D01*
X81006615Y-59056000D01*
X80991065Y-59038073D01*
X80980843Y-59036461D01*
X80957967Y-59023171D01*
X80914376Y-58986926D01*
X80856202Y-58933166D01*
X80789576Y-58867331D01*
X80785458Y-58863131D01*
X80706305Y-58779542D01*
X80653755Y-58717119D01*
X80624655Y-58671701D01*
X80615846Y-58639592D01*
X80608989Y-58597234D01*
X80596307Y-58577308D01*
X80581676Y-58548325D01*
X80577162Y-58494424D01*
X80577245Y-58493299D01*
X80781564Y-58493299D01*
X80782317Y-58542529D01*
X80803785Y-58602844D01*
X80844741Y-58667764D01*
X80898624Y-58726030D01*
X81015969Y-58822896D01*
X81150994Y-58918238D01*
X81292121Y-59004847D01*
X81427773Y-59075514D01*
X81524384Y-59115659D01*
X81567410Y-59131588D01*
X81625777Y-59154004D01*
X81641615Y-59160202D01*
X81700354Y-59181697D01*
X81749595Y-59197084D01*
X81758846Y-59199351D01*
X81804408Y-59205186D01*
X81868246Y-59208683D01*
X81938442Y-59209811D01*
X82003076Y-59208543D01*
X82050229Y-59204850D01*
X82067392Y-59200095D01*
X82058050Y-59183206D01*
X82024819Y-59143345D01*
X81971705Y-59084904D01*
X81902713Y-59012277D01*
X81821850Y-58929857D01*
X81811764Y-58919742D01*
X81715648Y-58823412D01*
X81642902Y-58749981D01*
X81589244Y-58694735D01*
X81550392Y-58652963D01*
X81522064Y-58619952D01*
X81499979Y-58590988D01*
X81479854Y-58561360D01*
X81464654Y-58537723D01*
X81436628Y-58496107D01*
X81417053Y-58471108D01*
X81415683Y-58469846D01*
X81406690Y-58459180D01*
X81390167Y-58434123D01*
X81363123Y-58389772D01*
X81322565Y-58321221D01*
X81266926Y-58226013D01*
X81242005Y-58181293D01*
X81212598Y-58126095D01*
X81210532Y-58122118D01*
X81175973Y-58075032D01*
X81143143Y-58066423D01*
X81114861Y-58095703D01*
X81097497Y-58145612D01*
X81089648Y-58207001D01*
X81095580Y-58277309D01*
X81116649Y-58366988D01*
X81133477Y-58422972D01*
X81132281Y-58469806D01*
X81102976Y-58504883D01*
X81055684Y-58524529D01*
X81000529Y-58525069D01*
X80947632Y-58502829D01*
X80937030Y-58494269D01*
X80887526Y-58465161D01*
X80847113Y-58454015D01*
X80802754Y-58461634D01*
X80781564Y-58493299D01*
X80577245Y-58493299D01*
X80582065Y-58428236D01*
X80595684Y-58362395D01*
X80610437Y-58322415D01*
X80631862Y-58281646D01*
X80654174Y-58261453D01*
X80690360Y-58255783D01*
X80748085Y-58258252D01*
X80808807Y-58260549D01*
X80841400Y-58255081D01*
X80856628Y-58237872D01*
X80862915Y-58215846D01*
X80885539Y-58123082D01*
X80908129Y-58057262D01*
X80936156Y-58006642D01*
X80975095Y-57959481D01*
X80989292Y-57944691D01*
X81069894Y-57862464D01*
X81040937Y-57780271D01*
X81019183Y-57711252D01*
X81000178Y-57641649D01*
X81227840Y-57641649D01*
X81229991Y-57668769D01*
X81244625Y-57720944D01*
X81253174Y-57751808D01*
X81275721Y-57816676D01*
X81313430Y-57906191D01*
X81362204Y-58010993D01*
X81399455Y-58085934D01*
X81542362Y-58328911D01*
X81718187Y-58560923D01*
X81929281Y-58784882D01*
X82061692Y-58906051D01*
X82108102Y-58943483D01*
X82175754Y-58994103D01*
X82258931Y-59054022D01*
X82351912Y-59119347D01*
X82448980Y-59186187D01*
X82544415Y-59250652D01*
X82632499Y-59308851D01*
X82707513Y-59356892D01*
X82763737Y-59390884D01*
X82795454Y-59406937D01*
X82798972Y-59407692D01*
X82826401Y-59416592D01*
X82874171Y-59439262D01*
X82904269Y-59455403D01*
X82973921Y-59488959D01*
X83046132Y-59515939D01*
X83067923Y-59522044D01*
X83125166Y-59536186D01*
X83204475Y-59556126D01*
X83290077Y-59577895D01*
X83302384Y-59581046D01*
X83385548Y-59601007D01*
X83463019Y-59617270D01*
X83520115Y-59626798D01*
X83527077Y-59627561D01*
X83602159Y-59632294D01*
X83707075Y-59635717D01*
X83832603Y-59637803D01*
X83969520Y-59638524D01*
X84108604Y-59637853D01*
X84240633Y-59635761D01*
X84356385Y-59632221D01*
X84400047Y-59630183D01*
X84638017Y-59617480D01*
X84590547Y-59542282D01*
X84562091Y-59495085D01*
X84545144Y-59462886D01*
X84543077Y-59456538D01*
X84533526Y-59435177D01*
X84509310Y-59393031D01*
X84494014Y-59368272D01*
X84435244Y-59254963D01*
X84400101Y-59142514D01*
X84393369Y-59060539D01*
X84573461Y-59060539D01*
X84581778Y-59125912D01*
X84585386Y-59137510D01*
X84613672Y-59199904D01*
X84659525Y-59278932D01*
X84714601Y-59361972D01*
X84770559Y-59436406D01*
X84816757Y-59487486D01*
X84856229Y-59531910D01*
X84881748Y-59573892D01*
X84883300Y-59578184D01*
X84908178Y-59615715D01*
X84929608Y-59628991D01*
X84968751Y-59642507D01*
X85024768Y-59663072D01*
X85041307Y-59669320D01*
X85127269Y-59690112D01*
X85233162Y-59698769D01*
X85341630Y-59694852D01*
X85430797Y-59679208D01*
X85518106Y-59649650D01*
X85612354Y-59609380D01*
X85699240Y-59565139D01*
X85764465Y-59523672D01*
X85770191Y-59519175D01*
X85808083Y-59485440D01*
X85862929Y-59432957D01*
X85924779Y-59371317D01*
X85944961Y-59350673D01*
X86004955Y-59286739D01*
X86041631Y-59240397D01*
X86060427Y-59202783D01*
X86066782Y-59165029D01*
X86067077Y-59151599D01*
X86073285Y-59096396D01*
X86088528Y-59056238D01*
X86091534Y-59052511D01*
X86116034Y-59021656D01*
X86151266Y-58971740D01*
X86171860Y-58940790D01*
X86227729Y-58854887D01*
X86147938Y-58865589D01*
X86089112Y-58879888D01*
X86043655Y-58901863D01*
X86036909Y-58907530D01*
X85987919Y-58935120D01*
X85937425Y-58929930D01*
X85892971Y-58897197D01*
X85862098Y-58842157D01*
X85852153Y-58779265D01*
X85838659Y-58729099D01*
X85803799Y-58665463D01*
X85756006Y-58600164D01*
X85703715Y-58545010D01*
X85664141Y-58516035D01*
X85599902Y-58496841D01*
X85533615Y-58510435D01*
X85459465Y-58558316D01*
X85441846Y-58573311D01*
X85402663Y-58614833D01*
X85358395Y-58671873D01*
X85316208Y-58733757D01*
X85283265Y-58789814D01*
X85266731Y-58829370D01*
X85266000Y-58835287D01*
X85249088Y-58864216D01*
X85206941Y-58880985D01*
X85152435Y-58882048D01*
X85122345Y-58874826D01*
X85069479Y-58838847D01*
X85039530Y-58794471D01*
X84989218Y-58705570D01*
X84931443Y-58653425D01*
X84862857Y-58635931D01*
X84801040Y-58644625D01*
X84710957Y-58684887D01*
X84651118Y-58749549D01*
X84624924Y-58816733D01*
X84609075Y-58883342D01*
X84590732Y-58959885D01*
X84585599Y-58981203D01*
X84573461Y-59060539D01*
X84393369Y-59060539D01*
X84391833Y-59041846D01*
X84393075Y-59028731D01*
X84416035Y-58876917D01*
X84445342Y-58758196D01*
X84484002Y-58666725D01*
X84535020Y-58596663D01*
X84601401Y-58542167D01*
X84660307Y-58509333D01*
X84719112Y-58480523D01*
X84767494Y-58456311D01*
X84782158Y-58448736D01*
X84825007Y-58433298D01*
X84844038Y-58430769D01*
X84893477Y-58441446D01*
X84959414Y-58468628D01*
X85027334Y-58505041D01*
X85082724Y-58543412D01*
X85098875Y-58558485D01*
X85145714Y-58609025D01*
X85210741Y-58522044D01*
X85266708Y-58459856D01*
X85334272Y-58403011D01*
X85402813Y-58358980D01*
X85461714Y-58335230D01*
X85479408Y-58333077D01*
X85497603Y-58328102D01*
X85510084Y-58308244D01*
X85519094Y-58266102D01*
X85526877Y-58194274D01*
X85529013Y-58169387D01*
X85533997Y-58078501D01*
X85534618Y-57989012D01*
X85530820Y-57918337D01*
X85529874Y-57910502D01*
X85520981Y-57854971D01*
X85507564Y-57783243D01*
X85491800Y-57705568D01*
X85475864Y-57632196D01*
X85461930Y-57573376D01*
X85452175Y-57539359D01*
X85450246Y-57535326D01*
X85434749Y-57543935D01*
X85400226Y-57572942D01*
X85370274Y-57600735D01*
X85319160Y-57646054D01*
X85248915Y-57703612D01*
X85172291Y-57763053D01*
X85148769Y-57780589D01*
X85074047Y-57837170D01*
X85002773Y-57893722D01*
X84947066Y-57940550D01*
X84933846Y-57952515D01*
X84854904Y-58017933D01*
X84765451Y-58078915D01*
X84676182Y-58129193D01*
X84597797Y-58162495D01*
X84559649Y-58171829D01*
X84508450Y-58182316D01*
X84476360Y-58195603D01*
X84473062Y-58198944D01*
X84449826Y-58207063D01*
X84397970Y-58213049D01*
X84327941Y-58215785D01*
X84315361Y-58215846D01*
X84211696Y-58211554D01*
X84137265Y-58194534D01*
X84082768Y-58158568D01*
X84038911Y-58097438D01*
X83996393Y-58004927D01*
X83995061Y-58001649D01*
X83963718Y-57925689D01*
X83935067Y-57858515D01*
X83914487Y-57812690D01*
X83911930Y-57807427D01*
X83901149Y-57763835D01*
X83893663Y-57685164D01*
X83889754Y-57575297D01*
X83889245Y-57494812D01*
X83891697Y-57360277D01*
X83899456Y-57254171D01*
X83914337Y-57166004D01*
X83938158Y-57085284D01*
X83972736Y-57001521D01*
X83975875Y-56994692D01*
X83991370Y-56958994D01*
X84016751Y-56898296D01*
X84047326Y-56823855D01*
X84057304Y-56799308D01*
X84089186Y-56724833D01*
X84118833Y-56662805D01*
X84141221Y-56623508D01*
X84146259Y-56617181D01*
X84167987Y-56588958D01*
X84171846Y-56578062D01*
X84184089Y-56557799D01*
X84215987Y-56518248D01*
X84254884Y-56474326D01*
X84315989Y-56406066D01*
X84380582Y-56331347D01*
X84412387Y-56293370D01*
X84457699Y-56244453D01*
X84516202Y-56189612D01*
X84579559Y-56135657D01*
X84639434Y-56089395D01*
X84687491Y-56057635D01*
X84713942Y-56047077D01*
X84737752Y-56035550D01*
X84778102Y-56006631D01*
X84794684Y-55993216D01*
X84859200Y-55939356D01*
X84774716Y-55832024D01*
X84699864Y-55740512D01*
X84633799Y-55669405D01*
X84564235Y-55606201D01*
X84508884Y-55561529D01*
X84455656Y-55511979D01*
X84428168Y-55468677D01*
X84425846Y-55455935D01*
X84443273Y-55398382D01*
X84490409Y-55358531D01*
X84559534Y-55342853D01*
X84560759Y-55342835D01*
X84626821Y-55335195D01*
X84698300Y-55317520D01*
X84709153Y-55313821D01*
X84766246Y-55295920D01*
X84812124Y-55286033D01*
X84820640Y-55285371D01*
X84862508Y-55273558D01*
X84927451Y-55241779D01*
X85008274Y-55194779D01*
X85097785Y-55137308D01*
X85188790Y-55074111D01*
X85274094Y-55009938D01*
X85346504Y-54949534D01*
X85384482Y-54913269D01*
X85445051Y-54844292D01*
X85495413Y-54770930D01*
X85538634Y-54686245D01*
X85577781Y-54583299D01*
X85615920Y-54455155D01*
X85654195Y-54302989D01*
X85669993Y-54223611D01*
X85674809Y-54153839D01*
X85668418Y-54078294D01*
X85650595Y-53981594D01*
X85649414Y-53975993D01*
X85594315Y-53763374D01*
X85522970Y-53563851D01*
X85438687Y-53385101D01*
X85344775Y-53234803D01*
X85311390Y-53191729D01*
X85209021Y-53091408D01*
X85081128Y-53002580D01*
X84939300Y-52931276D01*
X84795132Y-52883527D01*
X84685938Y-52866343D01*
X84543153Y-52872556D01*
X84387801Y-52905387D01*
X84231238Y-52960556D01*
X84084819Y-53033779D01*
X83959899Y-53120778D01*
X83923078Y-53153961D01*
X83868932Y-53212696D01*
X83823834Y-53272223D01*
X83800418Y-53313661D01*
X83779943Y-53359948D01*
X83764342Y-53387945D01*
X83762647Y-53389846D01*
X83745760Y-53415556D01*
X83719259Y-53467057D01*
X83688194Y-53533921D01*
X83657616Y-53605716D01*
X83655069Y-53612040D01*
X83630921Y-53690009D01*
X83629520Y-53757920D01*
X83652809Y-53827995D01*
X83702735Y-53912455D01*
X83702923Y-53912737D01*
X83744792Y-53978891D01*
X83768311Y-54030156D01*
X83778674Y-54082831D01*
X83781072Y-54153218D01*
X83781077Y-54158041D01*
X83778306Y-54225393D01*
X83771063Y-54276116D01*
X83761538Y-54298384D01*
X83745238Y-54325889D01*
X83742000Y-54349166D01*
X83725306Y-54392677D01*
X83680200Y-54445379D01*
X83614140Y-54500963D01*
X83534585Y-54553125D01*
X83452087Y-54594273D01*
X83386686Y-54619681D01*
X83329116Y-54635742D01*
X83266653Y-54644501D01*
X83186573Y-54648004D01*
X83115192Y-54648426D01*
X82993471Y-54645309D01*
X82900789Y-54635585D01*
X82827492Y-54618121D01*
X82812346Y-54612885D01*
X82750442Y-54585683D01*
X82679500Y-54547745D01*
X82607923Y-54504500D01*
X82544114Y-54461376D01*
X82496476Y-54423803D01*
X82473409Y-54397209D01*
X82472465Y-54393283D01*
X82465790Y-54382271D01*
X82765077Y-54382271D01*
X82782908Y-54398185D01*
X82831354Y-54419589D01*
X82902839Y-54443687D01*
X82989790Y-54467682D01*
X83009307Y-54472447D01*
X83061096Y-54477890D01*
X83132528Y-54477218D01*
X83209223Y-54471531D01*
X83276799Y-54461931D01*
X83320876Y-54449520D01*
X83322977Y-54448427D01*
X83365735Y-54426666D01*
X83422682Y-54399983D01*
X83434269Y-54394797D01*
X83480056Y-54370678D01*
X83505613Y-54349796D01*
X83507538Y-54345004D01*
X83505412Y-54331485D01*
X83491715Y-54329859D01*
X83455465Y-54340333D01*
X83437184Y-54346315D01*
X83336297Y-54370469D01*
X83212623Y-54386739D01*
X83080454Y-54394402D01*
X82954082Y-54392739D01*
X82847800Y-54381027D01*
X82828577Y-54377040D01*
X82781862Y-54371525D01*
X82765077Y-54382271D01*
X82465790Y-54382271D01*
X82456471Y-54366899D01*
X82445842Y-54360912D01*
X82423418Y-54338010D01*
X82393695Y-54290123D01*
X82362461Y-54229088D01*
X82335502Y-54166742D01*
X82318604Y-54114921D01*
X82316344Y-54099209D01*
X82484620Y-54099209D01*
X82537835Y-54141641D01*
X82605644Y-54180666D01*
X82701372Y-54216149D01*
X82813876Y-54245626D01*
X82932013Y-54266634D01*
X83044640Y-54276710D01*
X83136307Y-54273922D01*
X83196325Y-54264382D01*
X83279194Y-54248027D01*
X83369947Y-54227877D01*
X83398831Y-54220969D01*
X83497436Y-54194219D01*
X83561354Y-54168647D01*
X83594641Y-54140374D01*
X83601360Y-54105519D01*
X83585568Y-54060203D01*
X83579437Y-54048374D01*
X83522866Y-53960995D01*
X83454699Y-53895219D01*
X83362448Y-53839550D01*
X83341461Y-53829307D01*
X83281110Y-53802755D01*
X83227323Y-53786073D01*
X83167366Y-53776935D01*
X83088508Y-53773016D01*
X83028846Y-53772217D01*
X82897543Y-53776914D01*
X82794366Y-53796447D01*
X82709676Y-53835853D01*
X82633832Y-53900169D01*
X82557193Y-53994432D01*
X82530256Y-54032720D01*
X82484620Y-54099209D01*
X82316344Y-54099209D01*
X82315692Y-54094681D01*
X82327242Y-54046259D01*
X82357656Y-53978908D01*
X82400582Y-53903547D01*
X82449665Y-53831100D01*
X82498554Y-53772486D01*
X82509221Y-53762000D01*
X82551891Y-53717960D01*
X82576314Y-53676554D01*
X82589598Y-53622113D01*
X82595731Y-53571278D01*
X82599487Y-53486529D01*
X82595876Y-53399922D01*
X82589909Y-53354348D01*
X82570174Y-53278836D01*
X82539689Y-53193530D01*
X82503617Y-53110340D01*
X82467120Y-53041174D01*
X82435449Y-52998029D01*
X82346431Y-52939234D01*
X82233339Y-52907025D01*
X82154512Y-52901384D01*
X82078061Y-52904523D01*
X82018153Y-52917380D01*
X81968039Y-52945117D01*
X81920969Y-52992899D01*
X81870193Y-53065888D01*
X81812577Y-53162928D01*
X81785547Y-53217535D01*
X81770051Y-53263205D01*
X81768615Y-53274535D01*
X81760049Y-53309866D01*
X81751291Y-53320092D01*
X81736751Y-53344709D01*
X81722735Y-53392027D01*
X81720235Y-53404284D01*
X81707546Y-53457278D01*
X81693877Y-53493670D01*
X81691548Y-53497308D01*
X81671005Y-53537637D01*
X81646157Y-53606137D01*
X81619763Y-53692542D01*
X81594585Y-53786590D01*
X81573381Y-53878018D01*
X81558914Y-53956562D01*
X81553923Y-54009039D01*
X81558677Y-54055474D01*
X81570486Y-54081736D01*
X81571015Y-54082092D01*
X81585565Y-54106708D01*
X81599607Y-54154023D01*
X81602116Y-54166284D01*
X81619005Y-54227430D01*
X81644423Y-54289453D01*
X81672191Y-54339279D01*
X81695346Y-54363513D01*
X81709879Y-54385832D01*
X81710000Y-54388212D01*
X81720401Y-54410396D01*
X81752330Y-54455514D01*
X81806874Y-54524933D01*
X81885118Y-54620022D01*
X81988151Y-54742148D01*
X82033429Y-54795229D01*
X82102488Y-54880185D01*
X82159062Y-54957954D01*
X82198766Y-55021955D01*
X82217220Y-55065606D01*
X82218000Y-55072405D01*
X82206750Y-55133243D01*
X82172082Y-55163554D01*
X82142393Y-55167846D01*
X82113345Y-55164822D01*
X82087467Y-55151448D01*
X82057361Y-55121276D01*
X82015633Y-55067854D01*
X81993868Y-55038308D01*
X81981500Y-55023833D01*
X81967041Y-55019142D01*
X81944136Y-55027199D01*
X81906430Y-55050968D01*
X81847568Y-55093411D01*
X81799861Y-55128769D01*
X81726440Y-55190728D01*
X81651809Y-55266516D01*
X81580138Y-55350221D01*
X81515594Y-55435926D01*
X81462345Y-55517716D01*
X81424560Y-55589678D01*
X81406406Y-55645896D01*
X81411537Y-55679842D01*
X81429129Y-55715555D01*
X81444531Y-55768488D01*
X81445578Y-55773538D01*
X81463419Y-55853890D01*
X81484981Y-55929068D01*
X81514371Y-56011429D01*
X81555698Y-56113328D01*
X81568999Y-56144769D01*
X81590959Y-56203335D01*
X81615294Y-56278756D01*
X81638662Y-56359197D01*
X81657720Y-56432819D01*
X81669124Y-56487787D01*
X81670923Y-56505613D01*
X81681828Y-56551152D01*
X81695346Y-56571672D01*
X81703980Y-56591768D01*
X81710532Y-56634928D01*
X81715189Y-56704653D01*
X81718138Y-56804443D01*
X81719565Y-56937800D01*
X81719769Y-57029849D01*
X81719573Y-57171938D01*
X81718647Y-57280900D01*
X81716483Y-57362686D01*
X81712573Y-57423244D01*
X81706410Y-57468525D01*
X81697486Y-57504477D01*
X81685292Y-57537052D01*
X81674411Y-57561308D01*
X81633722Y-57641570D01*
X81597230Y-57691404D01*
X81557169Y-57717581D01*
X81505768Y-57726870D01*
X81483862Y-57727384D01*
X81425133Y-57720306D01*
X81364090Y-57702350D01*
X81312787Y-57678432D01*
X81283278Y-57653469D01*
X81280277Y-57644346D01*
X81264180Y-57631486D01*
X81249529Y-57629692D01*
X81227840Y-57641649D01*
X81000178Y-57641649D01*
X80996776Y-57629192D01*
X80987428Y-57590615D01*
X80965566Y-57520512D01*
X80936599Y-57459130D01*
X80919237Y-57434308D01*
X80875247Y-57378277D01*
X80824627Y-57303289D01*
X80772049Y-57217645D01*
X80722184Y-57129643D01*
X80679705Y-57047583D01*
X80649283Y-56979765D01*
X80635591Y-56934487D01*
X80635264Y-56929829D01*
X80626998Y-56904365D01*
X80609731Y-56867692D01*
X80571457Y-56776269D01*
X80535520Y-56656985D01*
X80505133Y-56521045D01*
X80496713Y-56473486D01*
X80484939Y-56385353D01*
X80481798Y-56304671D01*
X80484101Y-56267016D01*
X80682112Y-56267016D01*
X80692664Y-56416017D01*
X80717697Y-56571216D01*
X80756679Y-56725318D01*
X80809077Y-56871030D01*
X80811822Y-56877461D01*
X80881631Y-57033093D01*
X80941439Y-57152002D01*
X80991791Y-57235093D01*
X81033229Y-57283271D01*
X81064053Y-57297538D01*
X81100797Y-57310166D01*
X81145396Y-57341094D01*
X81151307Y-57346384D01*
X81192168Y-57378943D01*
X81224063Y-57395457D01*
X81227429Y-57395933D01*
X81256729Y-57407951D01*
X81299513Y-57436779D01*
X81309461Y-57444682D01*
X81369626Y-57483656D01*
X81417259Y-57488777D01*
X81458344Y-57460601D01*
X81459987Y-57458731D01*
X81497777Y-57389252D01*
X81521612Y-57286063D01*
X81531297Y-57152027D01*
X81526637Y-56990008D01*
X81507435Y-56802871D01*
X81505628Y-56789538D01*
X81445670Y-56485770D01*
X81349443Y-56187215D01*
X81268029Y-55996283D01*
X81242145Y-55935312D01*
X81225267Y-55885008D01*
X81221538Y-55864399D01*
X81212576Y-55836554D01*
X81203515Y-55832154D01*
X81184390Y-55815122D01*
X81166647Y-55773841D01*
X81154534Y-55723034D01*
X81152301Y-55677424D01*
X81155042Y-55664174D01*
X81214255Y-55527614D01*
X81296648Y-55387825D01*
X81392025Y-55261898D01*
X81401404Y-55251261D01*
X81486366Y-55159148D01*
X81569567Y-55074034D01*
X81645696Y-55000929D01*
X81709442Y-54944839D01*
X81755495Y-54910774D01*
X81770070Y-54903615D01*
X81804577Y-54881113D01*
X81814139Y-54866612D01*
X81816922Y-54853812D01*
X81813040Y-54837660D01*
X81798976Y-54812887D01*
X81771213Y-54774223D01*
X81726232Y-54716397D01*
X81660517Y-54634141D01*
X81651384Y-54622767D01*
X81563461Y-54513308D01*
X81558433Y-54571923D01*
X81549862Y-54627816D01*
X81534390Y-54694285D01*
X81515277Y-54760593D01*
X81495781Y-54816000D01*
X81479162Y-54849771D01*
X81472445Y-54855231D01*
X81456903Y-54870558D01*
X81456000Y-54877978D01*
X81446030Y-54908774D01*
X81419511Y-54963378D01*
X81381526Y-55033055D01*
X81337160Y-55109072D01*
X81291497Y-55182693D01*
X81249620Y-55245185D01*
X81219036Y-55285077D01*
X81170624Y-55340038D01*
X81112648Y-55404957D01*
X81081136Y-55439877D01*
X81044887Y-55483059D01*
X80998055Y-55543299D01*
X80946022Y-55613094D01*
X80894170Y-55684939D01*
X80847881Y-55751327D01*
X80812537Y-55804755D01*
X80793521Y-55837718D01*
X80791692Y-55843471D01*
X80782171Y-55863866D01*
X80758022Y-55905350D01*
X80742666Y-55930130D01*
X80706581Y-56016779D01*
X80686573Y-56131506D01*
X80682112Y-56267016D01*
X80484101Y-56267016D01*
X80487297Y-56214773D01*
X80496823Y-56133340D01*
X80509169Y-56048338D01*
X80521936Y-55975913D01*
X80533211Y-55926274D01*
X80538241Y-55912084D01*
X80555557Y-55877270D01*
X80581956Y-55821843D01*
X80599918Y-55783308D01*
X80675436Y-55646455D01*
X80772347Y-55510117D01*
X80858419Y-55412077D01*
X80925678Y-55339131D01*
X81002156Y-55249143D01*
X81081929Y-55149849D01*
X81159074Y-55048987D01*
X81227666Y-54954295D01*
X81281782Y-54873511D01*
X81314650Y-54816154D01*
X81339100Y-54752986D01*
X81358823Y-54679362D01*
X81372569Y-54604521D01*
X81379091Y-54537702D01*
X81377141Y-54488144D01*
X81365470Y-54465085D01*
X81362166Y-54464461D01*
X81344315Y-54446252D01*
X81325852Y-54396784D01*
X81308628Y-54323799D01*
X81294493Y-54235037D01*
X81285708Y-54144602D01*
X81287285Y-54045559D01*
X81306144Y-53937990D01*
X81344096Y-53815373D01*
X81402948Y-53671184D01*
X81438485Y-53593810D01*
X81471757Y-53511329D01*
X81503507Y-53412697D01*
X81525101Y-53326999D01*
X81546075Y-53240518D01*
X81576107Y-53135242D01*
X81610045Y-53028777D01*
X81624826Y-52986265D01*
X81659497Y-52889730D01*
X81694647Y-52791963D01*
X81714866Y-52735788D01*
X81924923Y-52735788D01*
X81940847Y-52741169D01*
X81979013Y-52736278D01*
X82025014Y-52724399D01*
X82064441Y-52708813D01*
X82076452Y-52701263D01*
X82111010Y-52691334D01*
X82165961Y-52692219D01*
X82179758Y-52694098D01*
X82344035Y-52736657D01*
X82481513Y-52807617D01*
X82592437Y-52907173D01*
X82677057Y-53035522D01*
X82711696Y-53116308D01*
X82742995Y-53213770D01*
X82768959Y-53316085D01*
X82787478Y-53412509D01*
X82796442Y-53492300D01*
X82794858Y-53539654D01*
X82783450Y-53601539D01*
X82886609Y-53574078D01*
X82980779Y-53554438D01*
X83067342Y-53550472D01*
X83156742Y-53563590D01*
X83259427Y-53595203D01*
X83368331Y-53639121D01*
X83424008Y-53653782D01*
X83456395Y-53637878D01*
X83468378Y-53589855D01*
X83468527Y-53585231D01*
X83478489Y-53550850D01*
X83506308Y-53486643D01*
X83550118Y-53396519D01*
X83608054Y-53284387D01*
X83645670Y-53214000D01*
X83726161Y-53098849D01*
X83836899Y-52988825D01*
X83969074Y-52890277D01*
X84113874Y-52809551D01*
X84262488Y-52752994D01*
X84298846Y-52743460D01*
X84366003Y-52725451D01*
X84424348Y-52706311D01*
X84443457Y-52698504D01*
X84487949Y-52687793D01*
X84559839Y-52680798D01*
X84647916Y-52677494D01*
X84740968Y-52677857D01*
X84827782Y-52681861D01*
X84897148Y-52689482D01*
X84935772Y-52699595D01*
X84992880Y-52722080D01*
X85031934Y-52733033D01*
X85093564Y-52757383D01*
X85172098Y-52804785D01*
X85258593Y-52868980D01*
X85344106Y-52943712D01*
X85371724Y-52970770D01*
X85424454Y-53029350D01*
X85481185Y-53100768D01*
X85536338Y-53176883D01*
X85584331Y-53249551D01*
X85619584Y-53310633D01*
X85636514Y-53351986D01*
X85637230Y-53358080D01*
X85646449Y-53391290D01*
X85650621Y-53396724D01*
X85665216Y-53423559D01*
X85687934Y-53479179D01*
X85715815Y-53554897D01*
X85745899Y-53642025D01*
X85775227Y-53731876D01*
X85800838Y-53815763D01*
X85819773Y-53884998D01*
X85825557Y-53910165D01*
X85833921Y-53973252D01*
X85839147Y-54058153D01*
X85841117Y-54151904D01*
X85839719Y-54241543D01*
X85834837Y-54314108D01*
X85829431Y-54347231D01*
X85817636Y-54399255D01*
X85804694Y-54463768D01*
X85802751Y-54474231D01*
X85790300Y-54528661D01*
X85777158Y-54566714D01*
X85774146Y-54571923D01*
X85758910Y-54604875D01*
X85747951Y-54641459D01*
X85717991Y-54723457D01*
X85666216Y-54821430D01*
X85599464Y-54924779D01*
X85524571Y-55022908D01*
X85449292Y-55104346D01*
X85390694Y-55158392D01*
X85341688Y-55200188D01*
X85309667Y-55223577D01*
X85302615Y-55226461D01*
X85275142Y-55237336D01*
X85232132Y-55263389D01*
X85188055Y-55294766D01*
X85157379Y-55321610D01*
X85152025Y-55329038D01*
X85129698Y-55343563D01*
X85127214Y-55343692D01*
X85100654Y-55353345D01*
X85055593Y-55377605D01*
X85036034Y-55389502D01*
X84972847Y-55423249D01*
X84895906Y-55456476D01*
X84860577Y-55469226D01*
X84804287Y-55490304D01*
X84767029Y-55508983D01*
X84758000Y-55518080D01*
X84771028Y-55540849D01*
X84798278Y-55569472D01*
X84828877Y-55602287D01*
X84873647Y-55656380D01*
X84923988Y-55721274D01*
X84934911Y-55735899D01*
X85031266Y-55865874D01*
X85110389Y-55844755D01*
X85184256Y-55834353D01*
X85231161Y-55851150D01*
X85253511Y-55896566D01*
X85256230Y-55930812D01*
X85253707Y-55968364D01*
X85240075Y-55991912D01*
X85206244Y-56009701D01*
X85148769Y-56028278D01*
X85049237Y-56064598D01*
X84953345Y-56110543D01*
X84875677Y-56158797D01*
X84854153Y-56176059D01*
X84822956Y-56198342D01*
X84809020Y-56203384D01*
X84781818Y-56215833D01*
X84735660Y-56248278D01*
X84679498Y-56293365D01*
X84622287Y-56343743D01*
X84572983Y-56392058D01*
X84555267Y-56411749D01*
X84506431Y-56468004D01*
X84447230Y-56534230D01*
X84411596Y-56573207D01*
X84337416Y-56668249D01*
X84264864Y-56792193D01*
X84192284Y-56948269D01*
X84118019Y-57139711D01*
X84110492Y-57160769D01*
X84087592Y-57234975D01*
X84073608Y-57309078D01*
X84066663Y-57396738D01*
X84064892Y-57492923D01*
X84065896Y-57592100D01*
X84070954Y-57665705D01*
X84082269Y-57727197D01*
X84102047Y-57790036D01*
X84122032Y-57841847D01*
X84162488Y-57932095D01*
X84203548Y-57992432D01*
X84252559Y-58025980D01*
X84316866Y-58035866D01*
X84403816Y-58025215D01*
X84499974Y-58002617D01*
X84558439Y-57981454D01*
X84628338Y-57948028D01*
X84695524Y-57909967D01*
X84745848Y-57874899D01*
X84758000Y-57863514D01*
X84783435Y-57839866D01*
X84830848Y-57799148D01*
X84891541Y-57748493D01*
X84956814Y-57695036D01*
X85017967Y-57645910D01*
X85066303Y-57608251D01*
X85090764Y-57590615D01*
X85129434Y-57562140D01*
X85183877Y-57517382D01*
X85234072Y-57473384D01*
X85293271Y-57419943D01*
X85348524Y-57370265D01*
X85381663Y-57340637D01*
X85440412Y-57292524D01*
X85520311Y-57232637D01*
X85612442Y-57167081D01*
X85707886Y-57101961D01*
X85797727Y-57043380D01*
X85873046Y-56997444D01*
X85918580Y-56973090D01*
X86010494Y-56939117D01*
X86083769Y-56929728D01*
X86134727Y-56944017D01*
X86159691Y-56981077D01*
X86157218Y-57031885D01*
X86134867Y-57069484D01*
X86084163Y-57101162D01*
X86052460Y-57114174D01*
X85997329Y-57136507D01*
X85959198Y-57155038D01*
X85949846Y-57161726D01*
X85926522Y-57179845D01*
X85896547Y-57197377D01*
X85845680Y-57228207D01*
X85786316Y-57270109D01*
X85726063Y-57316838D01*
X85672529Y-57362147D01*
X85633322Y-57399791D01*
X85616050Y-57423522D01*
X85616510Y-57427294D01*
X85633495Y-57464281D01*
X85650693Y-57532561D01*
X85667070Y-57624373D01*
X85681598Y-57731951D01*
X85693244Y-57847532D01*
X85700977Y-57963354D01*
X85703767Y-58071653D01*
X85703719Y-58083961D01*
X85703688Y-58189771D01*
X85705861Y-58262056D01*
X85710800Y-58306333D01*
X85719068Y-58328120D01*
X85729073Y-58333077D01*
X85760266Y-58347593D01*
X85806417Y-58385660D01*
X85859730Y-58439058D01*
X85912413Y-58499568D01*
X85956673Y-58558969D01*
X85979153Y-58596846D01*
X86015723Y-58661608D01*
X86044793Y-58692414D01*
X86069794Y-58692827D01*
X86070955Y-58692141D01*
X86110167Y-58677363D01*
X86177082Y-58661622D01*
X86233377Y-58651685D01*
X86299455Y-58657589D01*
X86345723Y-58684594D01*
X86381141Y-58720457D01*
X86396535Y-58764320D01*
X86399230Y-58813815D01*
X86392448Y-58886405D01*
X86375660Y-58956092D01*
X86370837Y-58968902D01*
X86353829Y-59012253D01*
X86353816Y-59027154D01*
X86372084Y-59020936D01*
X86379293Y-59017136D01*
X86411703Y-58995894D01*
X86464180Y-58957489D01*
X86526500Y-58909452D01*
X86539571Y-58899092D01*
X86601597Y-58849593D01*
X86654442Y-58807262D01*
X86688431Y-58779851D01*
X86692307Y-58776683D01*
X86726874Y-58750379D01*
X86776314Y-58714973D01*
X86790000Y-58705469D01*
X86862277Y-58647918D01*
X86945850Y-58569358D01*
X86948117Y-58566962D01*
X87224806Y-58566962D01*
X87225798Y-58583106D01*
X87249624Y-58578907D01*
X87254038Y-58577146D01*
X87297657Y-58562401D01*
X87349101Y-58548399D01*
X87427954Y-58521560D01*
X87516426Y-58478837D01*
X87607560Y-58425184D01*
X87694401Y-58365555D01*
X87769991Y-58304905D01*
X87827374Y-58248186D01*
X87859595Y-58200354D01*
X87864089Y-58181654D01*
X87876018Y-58158927D01*
X87882638Y-58157231D01*
X87899802Y-58140067D01*
X87919841Y-58096671D01*
X87938258Y-58039186D01*
X87950554Y-57979754D01*
X87951647Y-57970932D01*
X87944605Y-57930054D01*
X87909637Y-57889175D01*
X87886324Y-57870593D01*
X87813830Y-57810228D01*
X87752167Y-57747383D01*
X87709839Y-57691294D01*
X87697531Y-57665597D01*
X87677867Y-57632222D01*
X87654313Y-57634496D01*
X87630418Y-57669705D01*
X87610381Y-57732269D01*
X87586097Y-57829707D01*
X87560601Y-57918954D01*
X87536640Y-57991339D01*
X87516960Y-58038196D01*
X87510098Y-58048792D01*
X87495641Y-58082950D01*
X87493384Y-58103579D01*
X87482549Y-58145513D01*
X87453272Y-58210063D01*
X87410392Y-58288464D01*
X87358751Y-58371947D01*
X87303188Y-58451746D01*
X87295557Y-58461882D01*
X87247706Y-58527533D01*
X87224806Y-58566962D01*
X86948117Y-58566962D01*
X87029632Y-58480816D01*
X87098239Y-58398894D01*
X87174597Y-58284568D01*
X87250346Y-58142625D01*
X87320656Y-57984296D01*
X87380702Y-57820815D01*
X87425653Y-57663413D01*
X87437260Y-57610154D01*
X87446478Y-57546481D01*
X87454414Y-57459935D01*
X87460891Y-57357848D01*
X87465737Y-57247555D01*
X87468777Y-57136391D01*
X87469836Y-57031689D01*
X87468740Y-56940783D01*
X87465314Y-56871009D01*
X87459384Y-56829699D01*
X87455990Y-56822482D01*
X87439144Y-56787317D01*
X87434769Y-56754720D01*
X87428736Y-56713659D01*
X87412850Y-56649151D01*
X87390433Y-56574535D01*
X87388324Y-56568128D01*
X87356872Y-56472803D01*
X87322373Y-56367522D01*
X87297570Y-56291320D01*
X87270561Y-56213241D01*
X87242370Y-56146517D01*
X87206337Y-56077234D01*
X87155801Y-55991480D01*
X87147546Y-55977952D01*
X87129306Y-55945379D01*
X87098087Y-55886883D01*
X87058604Y-55811385D01*
X87024170Y-55744604D01*
X86982946Y-55665520D01*
X86947438Y-55599932D01*
X86921783Y-55555327D01*
X86910750Y-55539451D01*
X86896408Y-55518068D01*
X86870664Y-55470648D01*
X86838573Y-55406596D01*
X86831801Y-55392538D01*
X86792086Y-55309989D01*
X86751484Y-55226299D01*
X86719559Y-55161158D01*
X86693306Y-55104663D01*
X86676329Y-55061583D01*
X86672769Y-55046880D01*
X86665324Y-55016888D01*
X86647194Y-54970263D01*
X86645146Y-54965645D01*
X86609770Y-54876245D01*
X86581721Y-54779446D01*
X86560230Y-54669590D01*
X86544529Y-54541020D01*
X86533850Y-54388076D01*
X86527425Y-54205102D01*
X86525350Y-54083461D01*
X86522139Y-53881388D01*
X86517665Y-53696097D01*
X86512098Y-53530797D01*
X86505607Y-53388692D01*
X86498363Y-53272989D01*
X86490535Y-53186894D01*
X86482291Y-53133612D01*
X86474200Y-53116308D01*
X86462902Y-53105505D01*
X86464663Y-53101546D01*
X86468428Y-53068359D01*
X86460978Y-53007529D01*
X86444496Y-52928121D01*
X86421168Y-52839200D01*
X86393178Y-52749830D01*
X86362710Y-52669076D01*
X86357572Y-52657154D01*
X86329354Y-52601156D01*
X86285362Y-52522893D01*
X86231742Y-52432446D01*
X86174639Y-52339899D01*
X86120198Y-52255337D01*
X86074567Y-52188843D01*
X86061287Y-52171021D01*
X86021657Y-52123607D01*
X85965217Y-52061218D01*
X85897267Y-51989166D01*
X85823108Y-51912765D01*
X85748039Y-51837327D01*
X85677361Y-51768167D01*
X85616375Y-51710597D01*
X85570380Y-51669930D01*
X85544677Y-51651479D01*
X85542450Y-51650923D01*
X85521169Y-51640323D01*
X85520000Y-51635385D01*
X85503443Y-51619678D01*
X85458999Y-51592301D01*
X85394511Y-51557416D01*
X85317818Y-51519181D01*
X85236761Y-51481756D01*
X85202500Y-51466941D01*
X85134609Y-51437935D01*
X85067798Y-51408903D01*
X85062778Y-51406692D01*
X85010580Y-51387095D01*
X84969942Y-51377561D01*
X84966238Y-51377384D01*
X84932830Y-51367231D01*
X84925127Y-51359546D01*
X84900494Y-51345826D01*
X84851924Y-51332778D01*
X84831166Y-51329131D01*
X84769208Y-51317301D01*
X84718275Y-51303529D01*
X84709153Y-51300112D01*
X84670576Y-51286982D01*
X84607995Y-51268757D01*
X84539629Y-51250593D01*
X84441573Y-51234115D01*
X84316423Y-51225784D01*
X84171942Y-51224939D01*
X84015892Y-51230916D01*
X83856036Y-51243055D01*
X83700136Y-51260691D01*
X83555954Y-51283164D01*
X83431255Y-51309811D01*
X83333799Y-51339970D01*
X83296839Y-51356621D01*
X83258613Y-51374044D01*
X83201371Y-51397171D01*
X83175441Y-51406994D01*
X83121792Y-51428655D01*
X83085403Y-51446665D01*
X83077749Y-51452427D01*
X83056913Y-51466559D01*
X83009727Y-51493228D01*
X82944855Y-51527613D01*
X82916187Y-51542300D01*
X82841980Y-51581776D01*
X82777662Y-51619261D01*
X82734161Y-51648281D01*
X82726504Y-51654646D01*
X82691996Y-51681213D01*
X82671035Y-51690000D01*
X82643951Y-51705147D01*
X82598654Y-51747140D01*
X82539339Y-51810810D01*
X82470196Y-51890985D01*
X82395419Y-51982497D01*
X82319199Y-52080175D01*
X82245729Y-52178847D01*
X82179201Y-52273345D01*
X82123807Y-52358498D01*
X82108948Y-52383218D01*
X82073094Y-52444376D01*
X82042159Y-52497117D01*
X82028734Y-52519987D01*
X82002184Y-52568286D01*
X81972896Y-52626013D01*
X81946591Y-52681270D01*
X81928995Y-52722162D01*
X81924923Y-52735788D01*
X81714866Y-52735788D01*
X81724794Y-52708207D01*
X81736154Y-52676692D01*
X81768772Y-52595858D01*
X81807114Y-52514179D01*
X81830401Y-52471036D01*
X81868809Y-52404418D01*
X81914226Y-52323886D01*
X81946362Y-52265882D01*
X82107537Y-52002842D01*
X82282872Y-51775659D01*
X82472143Y-51584565D01*
X82675126Y-51429791D01*
X82853000Y-51329490D01*
X82940572Y-51290534D01*
X83044425Y-51249290D01*
X83156302Y-51208499D01*
X83267947Y-51170902D01*
X83371104Y-51139241D01*
X83457517Y-51116257D01*
X83518930Y-51104690D01*
X83532582Y-51103846D01*
X83574124Y-51098533D01*
X83592936Y-51088393D01*
X83607155Y-51078316D01*
X83638400Y-51070352D01*
X83690328Y-51064295D01*
X83766593Y-51059938D01*
X83870852Y-51057074D01*
X84006759Y-51055497D01*
X84177970Y-51055000D01*
X84183602Y-51055000D01*
X84357423Y-51056141D01*
G36*
X84390507Y-53685065D02*
G01*
X84465718Y-53729468D01*
X84523314Y-53797216D01*
X84556682Y-53886197D01*
X84562327Y-53947901D01*
X84552447Y-54045078D01*
X84520103Y-54117712D01*
X84460227Y-54176251D01*
X84447095Y-54185452D01*
X84364985Y-54219573D01*
X84265104Y-54228442D01*
X84160108Y-54211327D01*
X84136058Y-54203454D01*
X84065456Y-54165458D01*
X84021307Y-54108815D01*
X83999902Y-54027141D01*
X83996434Y-53962845D01*
X83999037Y-53888865D01*
X84001465Y-53877996D01*
X84328153Y-53877996D01*
X84341218Y-53930325D01*
X84374512Y-53953866D01*
X84419188Y-53945935D01*
X84455777Y-53916695D01*
X84479377Y-53886527D01*
X84476555Y-53864281D01*
X84451333Y-53836495D01*
X84403778Y-53807217D01*
X84361280Y-53810852D01*
X84333597Y-53844115D01*
X84328153Y-53877996D01*
X84001465Y-53877996D01*
X84010234Y-53838758D01*
X84034126Y-53797582D01*
X84045764Y-53783087D01*
X84125310Y-53713017D01*
X84213691Y-53674729D01*
X84304294Y-53666115D01*
X84390507Y-53685065D01*
G37*
X84390507Y-53685065D02*
X84465718Y-53729468D01*
X84523314Y-53797216D01*
X84556682Y-53886197D01*
X84562327Y-53947901D01*
X84552447Y-54045078D01*
X84520103Y-54117712D01*
X84460227Y-54176251D01*
X84447095Y-54185452D01*
X84364985Y-54219573D01*
X84265104Y-54228442D01*
X84160108Y-54211327D01*
X84136058Y-54203454D01*
X84065456Y-54165458D01*
X84021307Y-54108815D01*
X83999902Y-54027141D01*
X83996434Y-53962845D01*
X83999037Y-53888865D01*
X84001465Y-53877996D01*
X84328153Y-53877996D01*
X84341218Y-53930325D01*
X84374512Y-53953866D01*
X84419188Y-53945935D01*
X84455777Y-53916695D01*
X84479377Y-53886527D01*
X84476555Y-53864281D01*
X84451333Y-53836495D01*
X84403778Y-53807217D01*
X84361280Y-53810852D01*
X84333597Y-53844115D01*
X84328153Y-53877996D01*
X84001465Y-53877996D01*
X84010234Y-53838758D01*
X84034126Y-53797582D01*
X84045764Y-53783087D01*
X84125310Y-53713017D01*
X84213691Y-53674729D01*
X84304294Y-53666115D01*
X84390507Y-53685065D01*
G36*
X82183608Y-53522069D02*
G01*
X82258295Y-53562925D01*
X82316721Y-53627380D01*
X82335157Y-53663207D01*
X82347849Y-53740729D01*
X82329477Y-53820550D01*
X82284306Y-53888268D01*
X82263156Y-53906300D01*
X82206191Y-53932445D01*
X82131307Y-53948067D01*
X82054360Y-53951656D01*
X81991203Y-53941704D01*
X81973769Y-53933848D01*
X81916791Y-53890717D01*
X81885533Y-53839624D01*
X81870679Y-53766793D01*
X81871031Y-53726585D01*
X82106810Y-53726585D01*
X82142221Y-53768336D01*
X82144193Y-53769738D01*
X82186150Y-53794985D01*
X82214647Y-53794876D01*
X82245912Y-53769450D01*
X82274033Y-53719099D01*
X82264395Y-53666650D01*
X82238813Y-53635231D01*
X82209928Y-53613252D01*
X82185406Y-53614852D01*
X82151504Y-53637087D01*
X82109950Y-53681997D01*
X82106810Y-53726585D01*
X81871031Y-53726585D01*
X81871441Y-53679951D01*
X81894584Y-53613916D01*
X81948149Y-53550736D01*
X82019919Y-53515011D01*
X82101277Y-53505777D01*
X82183608Y-53522069D01*
G37*
X82183608Y-53522069D02*
X82258295Y-53562925D01*
X82316721Y-53627380D01*
X82335157Y-53663207D01*
X82347849Y-53740729D01*
X82329477Y-53820550D01*
X82284306Y-53888268D01*
X82263156Y-53906300D01*
X82206191Y-53932445D01*
X82131307Y-53948067D01*
X82054360Y-53951656D01*
X81991203Y-53941704D01*
X81973769Y-53933848D01*
X81916791Y-53890717D01*
X81885533Y-53839624D01*
X81870679Y-53766793D01*
X81871031Y-53726585D01*
X82106810Y-53726585D01*
X82142221Y-53768336D01*
X82144193Y-53769738D01*
X82186150Y-53794985D01*
X82214647Y-53794876D01*
X82245912Y-53769450D01*
X82274033Y-53719099D01*
X82264395Y-53666650D01*
X82238813Y-53635231D01*
X82209928Y-53613252D01*
X82185406Y-53614852D01*
X82151504Y-53637087D01*
X82109950Y-53681997D01*
X82106810Y-53726585D01*
X81871031Y-53726585D01*
X81871441Y-53679951D01*
X81894584Y-53613916D01*
X81948149Y-53550736D01*
X82019919Y-53515011D01*
X82101277Y-53505777D01*
X82183608Y-53522069D01*
D13*
X107885800Y-123980000D02*
X105435800Y-123980000D01*
X107885800Y-122530000D02*
X107885800Y-123980000D01*
X105435800Y-123980000D02*
X105435800Y-122530000D01*
X105435800Y-122530000D02*
X107855800Y-122530000D01*
X121464200Y-59650000D02*
X123914200Y-59650000D01*
X121464200Y-61100000D02*
X121464200Y-59650000D01*
X123914200Y-59650000D02*
X123914200Y-61100000D01*
X123914200Y-61100000D02*
X121494200Y-61100000D01*
X157535800Y-53640000D02*
X155085800Y-53640000D01*
X157535800Y-52190000D02*
X157535800Y-53640000D01*
X155085800Y-53640000D02*
X155085800Y-52190000D01*
X155085800Y-52190000D02*
X157505800Y-52190000D01*
X198464200Y-61400000D02*
X200914200Y-61400000D01*
X198464200Y-62850000D02*
X198464200Y-61400000D01*
X200914200Y-61400000D02*
X200914200Y-62850000D01*
X200914200Y-62850000D02*
X198494200Y-62850000D01*
X148119400Y-118112600D02*
X145669400Y-118112600D01*
X148119400Y-116662600D02*
X148119400Y-118112600D01*
X145669400Y-118112600D02*
X145669400Y-116662600D01*
X145669400Y-116662600D02*
X148089400Y-116662600D01*
X184085800Y-120170000D02*
X181635800Y-120170000D01*
X184085800Y-118720000D02*
X184085800Y-120170000D01*
X181635800Y-120170000D02*
X181635800Y-118720000D01*
X181635800Y-118720000D02*
X184055800Y-118720000D01*
X104785800Y-86350000D02*
X102335800Y-86350000D01*
X104785800Y-84900000D02*
X104785800Y-86350000D01*
X102335800Y-86350000D02*
X102335800Y-84900000D01*
X102335800Y-84900000D02*
X104755800Y-84900000D01*
D10*
X108800000Y-76900000D02*
X107000000Y-76900000D01*
X108800000Y-82000000D02*
X107000000Y-82000000D01*
X107000000Y-82000000D02*
X107000000Y-80200000D01*
X107000000Y-80200000D02*
X108800000Y-80200000D01*
X108800000Y-80200000D02*
X108800000Y-82000000D01*
X108800000Y-79500000D02*
X107000000Y-79500000D01*
X107000000Y-77700000D02*
X108800000Y-77700000D01*
X107000000Y-79500000D02*
X107000000Y-77700000D01*
X108800000Y-79500000D02*
X108800000Y-77700000D01*
X107000000Y-76900000D02*
X107000000Y-75100000D01*
X107000000Y-75100000D02*
X108800000Y-75100000D01*
X108800000Y-76900000D02*
X108800000Y-75100000D01*
X111600000Y-84700000D02*
X113400000Y-84700000D01*
X111600000Y-79600000D02*
X113400000Y-79600000D01*
X113400000Y-79600000D02*
X113400000Y-81400000D01*
X113400000Y-81400000D02*
X111600000Y-81400000D01*
X111600000Y-81400000D02*
X111600000Y-79600000D01*
X111600000Y-82100000D02*
X113400000Y-82100000D01*
X113400000Y-83900000D02*
X111600000Y-83900000D01*
X113400000Y-82100000D02*
X113400000Y-83900000D01*
X111600000Y-82100000D02*
X111600000Y-83900000D01*
X113400000Y-84700000D02*
X113400000Y-86500000D01*
X113400000Y-86500000D02*
X111600000Y-86500000D01*
X111600000Y-84700000D02*
X111600000Y-86500000D01*
X220400000Y-59000000D02*
X212000000Y-59000001D01*
X220400000Y-56400000D02*
X220200000Y-56400000D01*
X220400000Y-55400000D02*
X220400000Y-56400000D01*
X209900000Y-57100000D02*
X209900000Y-56100000D01*
X209900000Y-53500000D02*
X209900000Y-53860000D01*
X210100000Y-53860000D02*
X209900000Y-53860000D01*
D14*
X220200000Y-56300000D02*
X220200000Y-55600000D01*
D15*
X210100000Y-53700000D02*
X212800000Y-53700000D01*
X220100000Y-55700000D02*
X218700000Y-55700000D01*
D10*
X210130000Y-56100000D02*
X210130000Y-53860000D01*
X220200000Y-58650000D02*
X220400000Y-58650000D01*
D14*
X220200000Y-58800000D02*
X218800000Y-58800000D01*
D13*
X210000001Y-56200000D02*
X210000000Y-57099999D01*
D10*
X220180000Y-56400000D02*
X220180000Y-58650000D01*
X209900000Y-53500000D02*
X213180000Y-53500000D01*
D16*
X219700000Y-58400000D02*
X219700000Y-55900000D01*
D17*
X210500000Y-54000000D02*
X210500000Y-55800000D01*
D10*
X220400000Y-58650000D02*
X220400000Y-59000000D01*
X215400000Y-55400000D02*
X220400000Y-55400000D01*
X209900000Y-56100000D02*
X210100000Y-56100000D01*
D18*
X218400000Y-57200000D02*
X211700000Y-57200000D01*
D19*
X211630000Y-57500000D02*
X211630000Y-55260000D01*
D13*
X219220600Y-45274600D02*
X219220600Y-46724600D01*
X219220600Y-46724600D02*
X217170600Y-46724600D01*
X217170600Y-46724600D02*
X217170600Y-45274600D01*
X217170600Y-45274600D02*
X219220600Y-45274600D01*
D10*
X213183682Y-53521471D02*
G75*
G03*
X215400000Y-55400000I2151318J291471D01*
G01*
X209899999Y-57100000D02*
G75*
G03*
X212000000Y-59000001I2000001J100000D01*
G01*
D16*
X212783682Y-53921471D02*
G75*
G03*
X215000000Y-55800000I2151318J291471D01*
G01*
D10*
X163200000Y-108790000D02*
X154800000Y-108790001D01*
X163200000Y-106190000D02*
X163000000Y-106190000D01*
X163200000Y-105190000D02*
X163200000Y-106190000D01*
X152700000Y-106890000D02*
X152700000Y-105890000D01*
X152700000Y-103290000D02*
X152700000Y-103650000D01*
X152900000Y-103650000D02*
X152700000Y-103650000D01*
D14*
X163000000Y-106090000D02*
X163000000Y-105390000D01*
D15*
X152900000Y-103490000D02*
X155600000Y-103490000D01*
X162900000Y-105490000D02*
X161500000Y-105490000D01*
D10*
X152930000Y-105890000D02*
X152930000Y-103650000D01*
X163000000Y-108440000D02*
X163200000Y-108440000D01*
D14*
X163000000Y-108590000D02*
X161600000Y-108590000D01*
D13*
X152800001Y-105990000D02*
X152800000Y-106889999D01*
D10*
X162980000Y-106190000D02*
X162980000Y-108440000D01*
X152700000Y-103290000D02*
X155980000Y-103290000D01*
D16*
X162500000Y-108190000D02*
X162500000Y-105690000D01*
D17*
X153300000Y-103790000D02*
X153300000Y-105590000D01*
D10*
X163200000Y-108440000D02*
X163200000Y-108790000D01*
X158200000Y-105190000D02*
X163200000Y-105190000D01*
X152700000Y-105890000D02*
X152900000Y-105890000D01*
D18*
X161200000Y-106990000D02*
X154500000Y-106990000D01*
D19*
X154430000Y-107290000D02*
X154430000Y-105050000D01*
D13*
X162020600Y-95064600D02*
X162020600Y-96514600D01*
X162020600Y-96514600D02*
X159970600Y-96514600D01*
X159970600Y-96514600D02*
X159970600Y-95064600D01*
X159970600Y-95064600D02*
X162020600Y-95064600D01*
D16*
X155583682Y-103711471D02*
G75*
G03*
X157800000Y-105590000I2151318J291471D01*
G01*
D10*
X152699999Y-106890000D02*
G75*
G03*
X154800000Y-108790001I2000001J100000D01*
G01*
X155983682Y-103311471D02*
G75*
G03*
X158200000Y-105190000I2151318J291471D01*
G01*
X201300000Y-116100000D02*
X192900000Y-116100001D01*
X201300000Y-113500000D02*
X201100000Y-113500000D01*
X201300000Y-112500000D02*
X201300000Y-113500000D01*
X190800000Y-114200000D02*
X190800000Y-113200000D01*
X190800000Y-110600000D02*
X190800000Y-110960000D01*
X191000000Y-110960000D02*
X190800000Y-110960000D01*
D14*
X201100000Y-113400000D02*
X201100000Y-112700000D01*
D15*
X191000000Y-110800000D02*
X193700000Y-110800000D01*
X201000000Y-112800000D02*
X199600000Y-112800000D01*
D10*
X191030000Y-113200000D02*
X191030000Y-110960000D01*
X201100000Y-115750000D02*
X201300000Y-115750000D01*
D14*
X201100000Y-115900000D02*
X199700000Y-115900000D01*
D13*
X190900001Y-113300000D02*
X190900000Y-114199999D01*
D10*
X201080000Y-113500000D02*
X201080000Y-115750000D01*
X190800000Y-110600000D02*
X194080000Y-110600000D01*
D16*
X200600000Y-115500000D02*
X200600000Y-113000000D01*
D17*
X191400000Y-111100000D02*
X191400000Y-112900000D01*
D10*
X201300000Y-115750000D02*
X201300000Y-116100000D01*
X196300000Y-112500000D02*
X201300000Y-112500000D01*
X190800000Y-113200000D02*
X191000000Y-113200000D01*
D18*
X199300000Y-114300000D02*
X192600000Y-114300000D01*
D19*
X192530000Y-114600000D02*
X192530000Y-112360000D01*
D13*
X200120600Y-102374600D02*
X200120600Y-103824600D01*
X200120600Y-103824600D02*
X198070600Y-103824600D01*
X198070600Y-103824600D02*
X198070600Y-102374600D01*
X198070600Y-102374600D02*
X200120600Y-102374600D01*
D16*
X193683682Y-111021471D02*
G75*
G03*
X195900000Y-112900000I2151318J291471D01*
G01*
D10*
X190799999Y-114200000D02*
G75*
G03*
X192900000Y-116100001I2000001J100000D01*
G01*
X194083682Y-110621471D02*
G75*
G03*
X196300000Y-112500000I2151318J291471D01*
G01*
X220300000Y-77900000D02*
X211900000Y-77900001D01*
X220300000Y-75300000D02*
X220100000Y-75300000D01*
X220300000Y-74300000D02*
X220300000Y-75300000D01*
X209800000Y-76000000D02*
X209800000Y-75000000D01*
X209800000Y-72400000D02*
X209800000Y-72760000D01*
X210000000Y-72760000D02*
X209800000Y-72760000D01*
D14*
X220100000Y-75200000D02*
X220100000Y-74500000D01*
D15*
X210000000Y-72600000D02*
X212700000Y-72600000D01*
X220000000Y-74600000D02*
X218600000Y-74600000D01*
D10*
X210030000Y-75000000D02*
X210030000Y-72760000D01*
X220100000Y-77550000D02*
X220300000Y-77550000D01*
D14*
X220100000Y-77700000D02*
X218700000Y-77700000D01*
D13*
X209900001Y-75100000D02*
X209900000Y-75999999D01*
D10*
X220080000Y-75300000D02*
X220080000Y-77550000D01*
X209800000Y-72400000D02*
X213080000Y-72400000D01*
D16*
X219600000Y-77300000D02*
X219600000Y-74800000D01*
D17*
X210400000Y-72900000D02*
X210400000Y-74700000D01*
D10*
X220300000Y-77550000D02*
X220300000Y-77900000D01*
X215300000Y-74300000D02*
X220300000Y-74300000D01*
X209800000Y-75000000D02*
X210000000Y-75000000D01*
D18*
X218300000Y-76100000D02*
X211600000Y-76100000D01*
D19*
X211530000Y-76400000D02*
X211530000Y-74160000D01*
D13*
X219120600Y-64174600D02*
X219120600Y-65624600D01*
X219120600Y-65624600D02*
X217070600Y-65624600D01*
X217070600Y-65624600D02*
X217070600Y-64174600D01*
X217070600Y-64174600D02*
X219120600Y-64174600D01*
D16*
X212683682Y-72821471D02*
G75*
G03*
X214900000Y-74700000I2151318J291471D01*
G01*
D10*
X209799999Y-76000000D02*
G75*
G03*
X211900000Y-77900001I2000001J100000D01*
G01*
X213083682Y-72421471D02*
G75*
G03*
X215300000Y-74300000I2151318J291471D01*
G01*
X201300000Y-77900000D02*
X192900000Y-77900001D01*
X201300000Y-75300000D02*
X201100000Y-75300000D01*
X201300000Y-74300000D02*
X201300000Y-75300000D01*
X190800000Y-76000000D02*
X190800000Y-75000000D01*
X190800000Y-72400000D02*
X190800000Y-72760000D01*
X191000000Y-72760000D02*
X190800000Y-72760000D01*
D14*
X201100000Y-75200000D02*
X201100000Y-74500000D01*
D15*
X191000000Y-72600000D02*
X193700000Y-72600000D01*
X201000000Y-74600000D02*
X199600000Y-74600000D01*
D10*
X191030000Y-75000000D02*
X191030000Y-72760000D01*
X201100000Y-77550000D02*
X201300000Y-77550000D01*
D14*
X201100000Y-77700000D02*
X199700000Y-77700000D01*
D13*
X190900001Y-75100000D02*
X190900000Y-75999999D01*
D10*
X201080000Y-75300000D02*
X201080000Y-77550000D01*
X190800000Y-72400000D02*
X194080000Y-72400000D01*
D16*
X200600000Y-77300000D02*
X200600000Y-74800000D01*
D17*
X191400000Y-72900000D02*
X191400000Y-74700000D01*
D10*
X201300000Y-77550000D02*
X201300000Y-77900000D01*
X196300000Y-74300000D02*
X201300000Y-74300000D01*
X190800000Y-75000000D02*
X191000000Y-75000000D01*
D18*
X199300000Y-76100000D02*
X192600000Y-76100000D01*
D19*
X192530000Y-76400000D02*
X192530000Y-74160000D01*
D13*
X200120600Y-64174600D02*
X200120600Y-65624600D01*
X200120600Y-65624600D02*
X198070600Y-65624600D01*
X198070600Y-65624600D02*
X198070600Y-64174600D01*
X198070600Y-64174600D02*
X200120600Y-64174600D01*
D16*
X193683682Y-72821471D02*
G75*
G03*
X195900000Y-74700000I2151318J291471D01*
G01*
D10*
X190799999Y-76000000D02*
G75*
G03*
X192900000Y-77900001I2000001J100000D01*
G01*
X194083682Y-72421471D02*
G75*
G03*
X196300000Y-74300000I2151318J291471D01*
G01*
X201300000Y-97100000D02*
X192900000Y-97100001D01*
X201300000Y-94500000D02*
X201100000Y-94500000D01*
X201300000Y-93500000D02*
X201300000Y-94500000D01*
X190800000Y-95200000D02*
X190800000Y-94200000D01*
X190800000Y-91600000D02*
X190800000Y-91960000D01*
X191000000Y-91960000D02*
X190800000Y-91960000D01*
D14*
X201100000Y-94400000D02*
X201100000Y-93700000D01*
D15*
X191000000Y-91800000D02*
X193700000Y-91800000D01*
X201000000Y-93800000D02*
X199600000Y-93800000D01*
D10*
X191030000Y-94200000D02*
X191030000Y-91960000D01*
X201100000Y-96750000D02*
X201300000Y-96750000D01*
D14*
X201100000Y-96900000D02*
X199700000Y-96900000D01*
D13*
X190900001Y-94300000D02*
X190900000Y-95199999D01*
D10*
X201080000Y-94500000D02*
X201080000Y-96750000D01*
X190800000Y-91600000D02*
X194080000Y-91600000D01*
D16*
X200600000Y-96500000D02*
X200600000Y-94000000D01*
D17*
X191400000Y-92100000D02*
X191400000Y-93900000D01*
D10*
X201300000Y-96750000D02*
X201300000Y-97100000D01*
X196300000Y-93500000D02*
X201300000Y-93500000D01*
X190800000Y-94200000D02*
X191000000Y-94200000D01*
D18*
X199300000Y-95300000D02*
X192600000Y-95300000D01*
D19*
X192530000Y-95600000D02*
X192530000Y-93360000D01*
D13*
X200120600Y-83374600D02*
X200120600Y-84824600D01*
X200120600Y-84824600D02*
X198070600Y-84824600D01*
X198070600Y-84824600D02*
X198070600Y-83374600D01*
X198070600Y-83374600D02*
X200120600Y-83374600D01*
D16*
X193683682Y-92021471D02*
G75*
G03*
X195900000Y-93900000I2151318J291471D01*
G01*
D10*
X190799999Y-95200000D02*
G75*
G03*
X192900000Y-97100001I2000001J100000D01*
G01*
X194083682Y-91621471D02*
G75*
G03*
X196300000Y-93500000I2151318J291471D01*
G01*
X144100000Y-54100000D02*
X135700000Y-54100001D01*
X144100000Y-51500000D02*
X143900000Y-51500000D01*
X144100000Y-50500000D02*
X144100000Y-51500000D01*
X133600000Y-52200000D02*
X133600000Y-51200000D01*
X133600000Y-48600000D02*
X133600000Y-48960000D01*
X133800000Y-48960000D02*
X133600000Y-48960000D01*
D14*
X143900000Y-51400000D02*
X143900000Y-50700000D01*
D15*
X133800000Y-48800000D02*
X136500000Y-48800000D01*
X143800000Y-50800000D02*
X142400000Y-50800000D01*
D10*
X133830000Y-51200000D02*
X133830000Y-48960000D01*
X143900000Y-53750000D02*
X144100000Y-53750000D01*
D14*
X143900000Y-53900000D02*
X142500000Y-53900000D01*
D13*
X133700001Y-51300000D02*
X133700000Y-52199999D01*
D10*
X143880000Y-51500000D02*
X143880000Y-53750000D01*
X133600000Y-48600000D02*
X136880000Y-48600000D01*
D16*
X143400000Y-53500000D02*
X143400000Y-51000000D01*
D17*
X134200000Y-49100000D02*
X134200000Y-50900000D01*
D10*
X144100000Y-53750000D02*
X144100000Y-54100000D01*
X139100000Y-50500000D02*
X144100000Y-50500000D01*
X133600000Y-51200000D02*
X133800000Y-51200000D01*
D18*
X142100000Y-52300000D02*
X135400000Y-52300000D01*
D19*
X135330000Y-52600000D02*
X135330000Y-50360000D01*
D13*
X142920600Y-40374600D02*
X142920600Y-41824600D01*
X142920600Y-41824600D02*
X140870600Y-41824600D01*
X140870600Y-41824600D02*
X140870600Y-40374600D01*
X140870600Y-40374600D02*
X142920600Y-40374600D01*
D16*
X136483682Y-49021471D02*
G75*
G03*
X138700000Y-50900000I2151318J291471D01*
G01*
D10*
X133599999Y-52200000D02*
G75*
G03*
X135700000Y-54100001I2000001J100000D01*
G01*
X136883682Y-48621471D02*
G75*
G03*
X139100000Y-50500000I2151318J291471D01*
G01*
X123105000Y-119770000D02*
X128505000Y-119770000D01*
X128505000Y-118270000D02*
X123105000Y-118270000D01*
X123105000Y-118270000D02*
X123105000Y-119770000D01*
X128505000Y-118270000D02*
X128505000Y-119770000D01*
X126305000Y-118520000D02*
X126305000Y-119520000D01*
X126305000Y-119520000D02*
X125405000Y-119020000D01*
X125405000Y-119020000D02*
X126305000Y-118520000D01*
X125305000Y-118520000D02*
X125305000Y-119520000D01*
X125275000Y-121100000D02*
X125275000Y-122100000D01*
X125375000Y-121600000D02*
X126275000Y-121100000D01*
X126275000Y-122100000D02*
X125375000Y-121600000D01*
X126275000Y-121100000D02*
X126275000Y-122100000D01*
X128475000Y-120850000D02*
X128475000Y-122350000D01*
X123075000Y-120850000D02*
X123075000Y-122350000D01*
X128475000Y-120850000D02*
X123075000Y-120850000D01*
X123075000Y-122350000D02*
X128475000Y-122350000D01*
X123075000Y-124950000D02*
X128475000Y-124950000D01*
X128475000Y-123450000D02*
X123075000Y-123450000D01*
X123075000Y-123450000D02*
X123075000Y-124950000D01*
X128475000Y-123450000D02*
X128475000Y-124950000D01*
X126275000Y-123700000D02*
X126275000Y-124700000D01*
X126275000Y-124700000D02*
X125375000Y-124200000D01*
X125375000Y-124200000D02*
X126275000Y-123700000D01*
X125275000Y-123700000D02*
X125275000Y-124700000D01*
X107724800Y-121374800D02*
X113124800Y-121374800D01*
X113124800Y-119874800D02*
X107724800Y-119874800D01*
X107724800Y-119874800D02*
X107724800Y-121374800D01*
X113124800Y-119874800D02*
X113124800Y-121374800D01*
X110924800Y-120124800D02*
X110924800Y-121124800D01*
X110924800Y-121124800D02*
X110024800Y-120624800D01*
X110024800Y-120624800D02*
X110924800Y-120124800D01*
X109924800Y-120124800D02*
X109924800Y-121124800D01*
X98100000Y-124350000D02*
X103500000Y-124350000D01*
X103500000Y-122850000D02*
X98100000Y-122850000D01*
X98100000Y-122850000D02*
X98100000Y-124350000D01*
X103500000Y-122850000D02*
X103500000Y-124350000D01*
X101300000Y-123100000D02*
X101300000Y-124100000D01*
X101300000Y-124100000D02*
X100400000Y-123600000D01*
X100400000Y-123600000D02*
X101300000Y-123100000D01*
X100300000Y-123100000D02*
X100300000Y-124100000D01*
X104300000Y-97750000D02*
X109700000Y-97750000D01*
X109700000Y-96250000D02*
X104300000Y-96250000D01*
X104300000Y-96250000D02*
X104300000Y-97750000D01*
X109700000Y-96250000D02*
X109700000Y-97750000D01*
X107500000Y-96500000D02*
X107500000Y-97500000D01*
X107500000Y-97500000D02*
X106600000Y-97000000D01*
X106600000Y-97000000D02*
X107500000Y-96500000D01*
X106500000Y-96500000D02*
X106500000Y-97500000D01*
X207450000Y-102475000D02*
X207450000Y-107875000D01*
X208950000Y-107875000D02*
X208950000Y-102475000D01*
X208950000Y-102475000D02*
X207450000Y-102475000D01*
X208950000Y-107875000D02*
X207450000Y-107875000D01*
X208700000Y-105675000D02*
X207700000Y-105675000D01*
X207700000Y-105675000D02*
X208200000Y-104775000D01*
X208200000Y-104775000D02*
X208700000Y-105675000D01*
X208700000Y-104675000D02*
X207700000Y-104675000D01*
X187750000Y-104050000D02*
X187750000Y-109450000D01*
X189250000Y-109450000D02*
X189250000Y-104050000D01*
X189250000Y-104050000D02*
X187750000Y-104050000D01*
X189250000Y-109450000D02*
X187750000Y-109450000D01*
X189000000Y-107250000D02*
X188000000Y-107250000D01*
X188000000Y-107250000D02*
X188500000Y-106350000D01*
X188500000Y-106350000D02*
X189000000Y-107250000D01*
X189000000Y-106250000D02*
X188000000Y-106250000D01*
X168500000Y-99450000D02*
X168500000Y-104850000D01*
X170000000Y-104850000D02*
X170000000Y-99450000D01*
X170000000Y-99450000D02*
X168500000Y-99450000D01*
X170000000Y-104850000D02*
X168500000Y-104850000D01*
X169750000Y-102650000D02*
X168750000Y-102650000D01*
X168750000Y-102650000D02*
X169250000Y-101750000D01*
X169250000Y-101750000D02*
X169750000Y-102650000D01*
X169750000Y-101650000D02*
X168750000Y-101650000D01*
X149250000Y-95865000D02*
X149250000Y-101265000D01*
X150750000Y-101265000D02*
X150750000Y-95865000D01*
X150750000Y-95865000D02*
X149250000Y-95865000D01*
X150750000Y-101265000D02*
X149250000Y-101265000D01*
X150500000Y-99065000D02*
X149500000Y-99065000D01*
X149500000Y-99065000D02*
X150000000Y-98165000D01*
X150000000Y-98165000D02*
X150500000Y-99065000D01*
X150500000Y-98065000D02*
X149500000Y-98065000D01*
X130250000Y-100475000D02*
X130250000Y-105875000D01*
X131750000Y-105875000D02*
X131750000Y-100475000D01*
X131750000Y-100475000D02*
X130250000Y-100475000D01*
X131750000Y-105875000D02*
X130250000Y-105875000D01*
X131500000Y-103675000D02*
X130500000Y-103675000D01*
X130500000Y-103675000D02*
X131000000Y-102775000D01*
X131000000Y-102775000D02*
X131500000Y-103675000D01*
X131500000Y-102675000D02*
X130500000Y-102675000D01*
X111250000Y-100050000D02*
X111250000Y-105450000D01*
X112750000Y-105450000D02*
X112750000Y-100050000D01*
X112750000Y-100050000D02*
X111250000Y-100050000D01*
X112750000Y-105450000D02*
X111250000Y-105450000D01*
X112500000Y-103250000D02*
X111500000Y-103250000D01*
X111500000Y-103250000D02*
X112000000Y-102350000D01*
X112000000Y-102350000D02*
X112500000Y-103250000D01*
X112500000Y-102250000D02*
X111500000Y-102250000D01*
X207000000Y-83575000D02*
X207000000Y-88975000D01*
X208500000Y-88975000D02*
X208500000Y-83575000D01*
X208500000Y-83575000D02*
X207000000Y-83575000D01*
X208500000Y-88975000D02*
X207000000Y-88975000D01*
X208250000Y-86775000D02*
X207250000Y-86775000D01*
X207250000Y-86775000D02*
X207750000Y-85875000D01*
X207750000Y-85875000D02*
X208250000Y-86775000D01*
X208250000Y-85775000D02*
X207250000Y-85775000D01*
X187750000Y-86075000D02*
X187750000Y-91475000D01*
X189250000Y-91475000D02*
X189250000Y-86075000D01*
X189250000Y-86075000D02*
X187750000Y-86075000D01*
X189250000Y-91475000D02*
X187750000Y-91475000D01*
X189000000Y-89275000D02*
X188000000Y-89275000D01*
X188000000Y-89275000D02*
X188500000Y-88375000D01*
X188500000Y-88375000D02*
X189000000Y-89275000D01*
X189000000Y-88275000D02*
X188000000Y-88275000D01*
X168975000Y-80725000D02*
X168975000Y-86125000D01*
X170475000Y-86125000D02*
X170475000Y-80725000D01*
X170475000Y-80725000D02*
X168975000Y-80725000D01*
X170475000Y-86125000D02*
X168975000Y-86125000D01*
X170225000Y-83925000D02*
X169225000Y-83925000D01*
X169225000Y-83925000D02*
X169725000Y-83025000D01*
X169725000Y-83025000D02*
X170225000Y-83925000D01*
X170225000Y-82925000D02*
X169225000Y-82925000D01*
X149000000Y-78865000D02*
X149000000Y-84265000D01*
X150500000Y-84265000D02*
X150500000Y-78865000D01*
X150500000Y-78865000D02*
X149000000Y-78865000D01*
X150500000Y-84265000D02*
X149000000Y-84265000D01*
X150250000Y-82065000D02*
X149250000Y-82065000D01*
X149250000Y-82065000D02*
X149750000Y-81165000D01*
X149750000Y-81165000D02*
X150250000Y-82065000D01*
X150250000Y-81065000D02*
X149250000Y-81065000D01*
X130500000Y-80975000D02*
X130500000Y-86375000D01*
X132000000Y-86375000D02*
X132000000Y-80975000D01*
X132000000Y-80975000D02*
X130500000Y-80975000D01*
X132000000Y-86375000D02*
X130500000Y-86375000D01*
X131750000Y-84175000D02*
X130750000Y-84175000D01*
X130750000Y-84175000D02*
X131250000Y-83275000D01*
X131250000Y-83275000D02*
X131750000Y-84175000D01*
X131750000Y-83175000D02*
X130750000Y-83175000D01*
X127750000Y-81075000D02*
X127750000Y-86475000D01*
X129250000Y-86475000D02*
X129250000Y-81075000D01*
X129250000Y-81075000D02*
X127750000Y-81075000D01*
X129250000Y-86475000D02*
X127750000Y-86475000D01*
X129000000Y-84275000D02*
X128000000Y-84275000D01*
X128000000Y-84275000D02*
X128500000Y-83375000D01*
X128500000Y-83375000D02*
X129000000Y-84275000D01*
X129000000Y-83275000D02*
X128000000Y-83275000D01*
X207000000Y-64575000D02*
X207000000Y-69975000D01*
X208500000Y-69975000D02*
X208500000Y-64575000D01*
X208500000Y-64575000D02*
X207000000Y-64575000D01*
X208500000Y-69975000D02*
X207000000Y-69975000D01*
X208250000Y-67775000D02*
X207250000Y-67775000D01*
X207250000Y-67775000D02*
X207750000Y-66875000D01*
X207750000Y-66875000D02*
X208250000Y-67775000D01*
X208250000Y-66775000D02*
X207250000Y-66775000D01*
X187500000Y-64075000D02*
X187500000Y-69475000D01*
X189000000Y-69475000D02*
X189000000Y-64075000D01*
X189000000Y-64075000D02*
X187500000Y-64075000D01*
X189000000Y-69475000D02*
X187500000Y-69475000D01*
X188750000Y-67275000D02*
X187750000Y-67275000D01*
X187750000Y-67275000D02*
X188250000Y-66375000D01*
X188250000Y-66375000D02*
X188750000Y-67275000D01*
X188750000Y-66275000D02*
X187750000Y-66275000D01*
X168750000Y-60950000D02*
X168750000Y-66350000D01*
X170250000Y-66350000D02*
X170250000Y-60950000D01*
X170250000Y-60950000D02*
X168750000Y-60950000D01*
X170250000Y-66350000D02*
X168750000Y-66350000D01*
X170000000Y-64150000D02*
X169000000Y-64150000D01*
X169000000Y-64150000D02*
X169500000Y-63250000D01*
X169500000Y-63250000D02*
X170000000Y-64150000D01*
X170000000Y-63150000D02*
X169000000Y-63150000D01*
X149500000Y-58365000D02*
X149500000Y-63765000D01*
X151000000Y-63765000D02*
X151000000Y-58365000D01*
X151000000Y-58365000D02*
X149500000Y-58365000D01*
X151000000Y-63765000D02*
X149500000Y-63765000D01*
X150750000Y-61565000D02*
X149750000Y-61565000D01*
X149750000Y-61565000D02*
X150250000Y-60665000D01*
X150250000Y-60665000D02*
X150750000Y-61565000D01*
X150750000Y-60565000D02*
X149750000Y-60565000D01*
X129050000Y-61100000D02*
X129050000Y-66500000D01*
X130550000Y-66500000D02*
X130550000Y-61100000D01*
X130550000Y-61100000D02*
X129050000Y-61100000D01*
X130550000Y-66500000D02*
X129050000Y-66500000D01*
X130300000Y-64300000D02*
X129300000Y-64300000D01*
X129300000Y-64300000D02*
X129800000Y-63400000D01*
X129800000Y-63400000D02*
X130300000Y-64300000D01*
X130300000Y-63300000D02*
X129300000Y-63300000D01*
X126050000Y-61075000D02*
X126050000Y-66475000D01*
X127550000Y-66475000D02*
X127550000Y-61075000D01*
X127550000Y-61075000D02*
X126050000Y-61075000D01*
X127550000Y-66475000D02*
X126050000Y-66475000D01*
X127300000Y-64275000D02*
X126300000Y-64275000D01*
X126300000Y-64275000D02*
X126800000Y-63375000D01*
X126800000Y-63375000D02*
X127300000Y-64275000D01*
X127300000Y-63275000D02*
X126300000Y-63275000D01*
X207000000Y-47325000D02*
X207000000Y-52725000D01*
X208500000Y-52725000D02*
X208500000Y-47325000D01*
X208500000Y-47325000D02*
X207000000Y-47325000D01*
X208500000Y-52725000D02*
X207000000Y-52725000D01*
X208250000Y-50525000D02*
X207250000Y-50525000D01*
X207250000Y-50525000D02*
X207750000Y-49625000D01*
X207750000Y-49625000D02*
X208250000Y-50525000D01*
X208250000Y-49525000D02*
X207250000Y-49525000D01*
X187250000Y-47550000D02*
X187250000Y-52950000D01*
X188750000Y-52950000D02*
X188750000Y-47550000D01*
X188750000Y-47550000D02*
X187250000Y-47550000D01*
X188750000Y-52950000D02*
X187250000Y-52950000D01*
X188500000Y-50750000D02*
X187500000Y-50750000D01*
X187500000Y-50750000D02*
X188000000Y-49850000D01*
X188000000Y-49850000D02*
X188500000Y-50750000D01*
X188500000Y-49750000D02*
X187500000Y-49750000D01*
X168500000Y-42725000D02*
X168500000Y-48125000D01*
X170000000Y-48125000D02*
X170000000Y-42725000D01*
X170000000Y-42725000D02*
X168500000Y-42725000D01*
X170000000Y-48125000D02*
X168500000Y-48125000D01*
X169750000Y-45925000D02*
X168750000Y-45925000D01*
X168750000Y-45925000D02*
X169250000Y-45025000D01*
X169250000Y-45025000D02*
X169750000Y-45925000D01*
X169750000Y-44925000D02*
X168750000Y-44925000D01*
X149750000Y-40340000D02*
X149750000Y-45740000D01*
X151250000Y-45740000D02*
X151250000Y-40340000D01*
X151250000Y-40340000D02*
X149750000Y-40340000D01*
X151250000Y-45740000D02*
X149750000Y-45740000D01*
X151000000Y-43540000D02*
X150000000Y-43540000D01*
X150000000Y-43540000D02*
X150500000Y-42640000D01*
X150500000Y-42640000D02*
X151000000Y-43540000D01*
X151000000Y-42540000D02*
X150000000Y-42540000D01*
X130250000Y-43080500D02*
X130250000Y-48480500D01*
X131750000Y-48480500D02*
X131750000Y-43080500D01*
X131750000Y-43080500D02*
X130250000Y-43080500D01*
X131750000Y-48480500D02*
X130250000Y-48480500D01*
X131500000Y-46280500D02*
X130500000Y-46280500D01*
X130500000Y-46280500D02*
X131000000Y-45380500D01*
X131000000Y-45380500D02*
X131500000Y-46280500D01*
X131500000Y-45280500D02*
X130500000Y-45280500D01*
X128000000Y-43075000D02*
X128000000Y-48475000D01*
X129500000Y-48475000D02*
X129500000Y-43075000D01*
X129500000Y-43075000D02*
X128000000Y-43075000D01*
X129500000Y-48475000D02*
X128000000Y-48475000D01*
X129250000Y-46275000D02*
X128250000Y-46275000D01*
X128250000Y-46275000D02*
X128750000Y-45375000D01*
X128750000Y-45375000D02*
X129250000Y-46275000D01*
X129250000Y-45275000D02*
X128250000Y-45275000D01*
X182200000Y-130400000D02*
X173800000Y-130400001D01*
X182200000Y-127800000D02*
X182000000Y-127800000D01*
X182200000Y-126800000D02*
X182200000Y-127800000D01*
X171700000Y-128500000D02*
X171700000Y-127500000D01*
X171700000Y-124900000D02*
X171700000Y-125260000D01*
X171900000Y-125260000D02*
X171700000Y-125260000D01*
D14*
X182000000Y-127700000D02*
X182000000Y-127000000D01*
D15*
X171900000Y-125100000D02*
X174600000Y-125100000D01*
X181900000Y-127100000D02*
X180500000Y-127100000D01*
D10*
X171930000Y-127500000D02*
X171930000Y-125260000D01*
X182000000Y-130050000D02*
X182200000Y-130050000D01*
D14*
X182000000Y-130200000D02*
X180600000Y-130200000D01*
D13*
X171800001Y-127600000D02*
X171800000Y-128499999D01*
D10*
X181980000Y-127800000D02*
X181980000Y-130050000D01*
X171700000Y-124900000D02*
X174980000Y-124900000D01*
D16*
X181500000Y-129800000D02*
X181500000Y-127300000D01*
D17*
X172300000Y-125400000D02*
X172300000Y-127200000D01*
D10*
X182200000Y-130050000D02*
X182200000Y-130400000D01*
X177200000Y-126800000D02*
X182200000Y-126800000D01*
X171700000Y-127500000D02*
X171900000Y-127500000D01*
D18*
X180200000Y-128600000D02*
X173500000Y-128600000D01*
D19*
X173430000Y-128900000D02*
X173430000Y-126660000D01*
D13*
X181020600Y-116674600D02*
X181020600Y-118124600D01*
X181020600Y-118124600D02*
X178970600Y-118124600D01*
X178970600Y-118124600D02*
X178970600Y-116674600D01*
X178970600Y-116674600D02*
X181020600Y-116674600D01*
D16*
X174583682Y-125321471D02*
G75*
G03*
X176800000Y-127200000I2151318J291471D01*
G01*
D10*
X171699999Y-128500000D02*
G75*
G03*
X173800000Y-130400001I2000001J100000D01*
G01*
X174983682Y-124921471D02*
G75*
G03*
X177200000Y-126800000I2151318J291471D01*
G01*
X163200000Y-127890000D02*
X154800000Y-127890001D01*
X163200000Y-125290000D02*
X163000000Y-125290000D01*
X163200000Y-124290000D02*
X163200000Y-125290000D01*
X152700000Y-125990000D02*
X152700000Y-124990000D01*
X152700000Y-122390000D02*
X152700000Y-122750000D01*
X152900000Y-122750000D02*
X152700000Y-122750000D01*
D14*
X163000000Y-125190000D02*
X163000000Y-124490000D01*
D15*
X152900000Y-122590000D02*
X155600000Y-122590000D01*
X162900000Y-124590000D02*
X161500000Y-124590000D01*
D10*
X152930000Y-124990000D02*
X152930000Y-122750000D01*
X163000000Y-127540000D02*
X163200000Y-127540000D01*
D14*
X163000000Y-127690000D02*
X161600000Y-127690000D01*
D13*
X152800001Y-125090000D02*
X152800000Y-125989999D01*
D10*
X162980000Y-125290000D02*
X162980000Y-127540000D01*
X152700000Y-122390000D02*
X155980000Y-122390000D01*
D16*
X162500000Y-127290000D02*
X162500000Y-124790000D01*
D17*
X153300000Y-122890000D02*
X153300000Y-124690000D01*
D10*
X163200000Y-127540000D02*
X163200000Y-127890000D01*
X158200000Y-124290000D02*
X163200000Y-124290000D01*
X152700000Y-124990000D02*
X152900000Y-124990000D01*
D18*
X161200000Y-126090000D02*
X154500000Y-126090000D01*
D19*
X154430000Y-126390000D02*
X154430000Y-124150000D01*
D13*
X162020600Y-114164600D02*
X162020600Y-115614600D01*
X162020600Y-115614600D02*
X159970600Y-115614600D01*
X159970600Y-115614600D02*
X159970600Y-114164600D01*
X159970600Y-114164600D02*
X162020600Y-114164600D01*
D16*
X155583682Y-122811471D02*
G75*
G03*
X157800000Y-124690000I2151318J291471D01*
G01*
D10*
X152699999Y-125990000D02*
G75*
G03*
X154800000Y-127890001I2000001J100000D01*
G01*
X155983682Y-122411471D02*
G75*
G03*
X158200000Y-124290000I2151318J291471D01*
G01*
X144100000Y-130300000D02*
X135700000Y-130300001D01*
X144100000Y-127700000D02*
X143900000Y-127700000D01*
X144100000Y-126700000D02*
X144100000Y-127700000D01*
X133600000Y-128400000D02*
X133600000Y-127400000D01*
X133600000Y-124800000D02*
X133600000Y-125160000D01*
X133800000Y-125160000D02*
X133600000Y-125160000D01*
D14*
X143900000Y-127600000D02*
X143900000Y-126900000D01*
D15*
X133800000Y-125000000D02*
X136500000Y-125000000D01*
X143800000Y-127000000D02*
X142400000Y-127000000D01*
D10*
X133830000Y-127400000D02*
X133830000Y-125160000D01*
X143900000Y-129950000D02*
X144100000Y-129950000D01*
D14*
X143900000Y-130100000D02*
X142500000Y-130100000D01*
D13*
X133700001Y-127500000D02*
X133700000Y-128399999D01*
D10*
X143880000Y-127700000D02*
X143880000Y-129950000D01*
X133600000Y-124800000D02*
X136880000Y-124800000D01*
D16*
X143400000Y-129700000D02*
X143400000Y-127200000D01*
D17*
X134200000Y-125300000D02*
X134200000Y-127100000D01*
D10*
X144100000Y-129950000D02*
X144100000Y-130300000D01*
X139100000Y-126700000D02*
X144100000Y-126700000D01*
X133600000Y-127400000D02*
X133800000Y-127400000D01*
D18*
X142100000Y-128500000D02*
X135400000Y-128500000D01*
D19*
X135330000Y-128800000D02*
X135330000Y-126560000D01*
D13*
X142920600Y-116574600D02*
X142920600Y-118024600D01*
X142920600Y-118024600D02*
X140870600Y-118024600D01*
X140870600Y-118024600D02*
X140870600Y-116574600D01*
X140870600Y-116574600D02*
X142920600Y-116574600D01*
D16*
X136483682Y-125221471D02*
G75*
G03*
X138700000Y-127100000I2151318J291471D01*
G01*
D10*
X133599999Y-128400000D02*
G75*
G03*
X135700000Y-130300001I2000001J100000D01*
G01*
X136883682Y-124821471D02*
G75*
G03*
X139100000Y-126700000I2151318J291471D01*
G01*
X123751464Y-133584543D02*
X115637688Y-135758624D01*
X123078535Y-131073136D02*
X122885350Y-131124900D01*
X122819716Y-130107210D02*
X123078535Y-131073136D01*
X113117487Y-134466884D02*
X112858668Y-133500958D01*
X112185739Y-130989551D02*
X112278913Y-131337284D01*
X112472099Y-131285520D02*
X112278913Y-131337284D01*
D14*
X122859468Y-131028307D02*
X122678295Y-130352159D01*
D15*
X112430688Y-131130972D02*
X115038687Y-130432161D01*
X122607584Y-130474633D02*
X121255288Y-130836980D01*
D10*
X113080831Y-133441430D02*
X112501076Y-131277756D01*
X123467693Y-133298233D02*
X123660878Y-133246469D01*
D14*
X123506516Y-133443121D02*
X122154219Y-133805468D01*
D13*
X112981144Y-133571668D02*
X113214079Y-134441001D01*
D10*
X122866031Y-131130076D02*
X123448374Y-133303409D01*
X112185739Y-130989551D02*
X115353975Y-130140624D01*
D16*
X122920025Y-133186161D02*
X122272977Y-130771346D01*
D17*
X112894704Y-131317222D02*
X113360578Y-133055889D01*
D10*
X123660878Y-133246469D02*
X123751464Y-133584543D01*
X117990087Y-131401305D02*
X122819716Y-130107210D01*
X112858668Y-133500958D02*
X113051853Y-133449194D01*
D18*
X121353739Y-132363514D02*
X114882036Y-134097602D01*
D19*
X114892066Y-134405497D02*
X114312312Y-132241823D01*
D13*
X119059857Y-120632076D02*
X119435144Y-122032668D01*
X119435144Y-122032668D02*
X117454996Y-122563247D01*
X117454996Y-122563247D02*
X117079709Y-121162655D01*
X117079709Y-121162655D02*
X119059857Y-120632076D01*
D16*
X115080246Y-130650308D02*
G75*
G03*
X117707244Y-131891203I2002576J838341D01*
G01*
D10*
X113117486Y-134466884D02*
G75*
G03*
X115637688Y-135758624I1905971J614231D01*
G01*
X115363088Y-130160411D02*
G75*
G03*
X117990087Y-131401305I2002576J838342D01*
G01*
X93294232Y-140683717D02*
X89094231Y-133409104D01*
X95545898Y-139383717D02*
X95445898Y-139210512D01*
X96411924Y-138883717D02*
X95545898Y-139383717D01*
X89689681Y-130640450D02*
X90555706Y-130140450D01*
X92807372Y-128840450D02*
X92495603Y-129020450D01*
X92595603Y-129193655D02*
X92495603Y-129020450D01*
D14*
X95532501Y-139160512D02*
X96138719Y-138810512D01*
D15*
X92734167Y-129113655D02*
X94084167Y-131451924D01*
X96002116Y-138773909D02*
X95302116Y-137561474D01*
D10*
X90670706Y-130339636D02*
X92610603Y-129219636D01*
X93497341Y-140335512D02*
X93597341Y-140508717D01*
D14*
X93367437Y-140410512D02*
X92667437Y-139198076D01*
D13*
X90519104Y-130277054D02*
X89739681Y-130727052D01*
D10*
X95435898Y-139193191D02*
X93487341Y-140318191D01*
X92807372Y-128840450D02*
X94447372Y-131681013D01*
D16*
X93463848Y-139777499D02*
X95628911Y-138527499D01*
D17*
X92674359Y-129610065D02*
X91115514Y-130510065D01*
D10*
X93597341Y-140508717D02*
X93294232Y-140683717D01*
X93911924Y-134553590D02*
X96411924Y-138883717D01*
X90555706Y-130140450D02*
X90655706Y-130313655D01*
D18*
X93853078Y-138051666D02*
X90503078Y-132249296D01*
D19*
X90208270Y-132338674D02*
X92148167Y-131218674D01*
D13*
X104591077Y-132799626D02*
X103335341Y-133524626D01*
X103335341Y-133524626D02*
X102310341Y-131749274D01*
X102310341Y-131749274D02*
X103566077Y-131024274D01*
X103566077Y-131024274D02*
X104591077Y-132799626D01*
D16*
X93884209Y-131548528D02*
G75*
G03*
X93365514Y-134407180I1328080J-1717360D01*
G01*
D10*
X89689680Y-130640449D02*
G75*
G03*
X89094231Y-133409104I1086603J-1682052D01*
G01*
X94430619Y-131694938D02*
G75*
G03*
X93911924Y-134553590I1328080J-1717360D01*
G01*
X220350000Y-116100000D02*
X211950000Y-116100001D01*
X220350000Y-113500000D02*
X220150000Y-113500000D01*
X220350000Y-112500000D02*
X220350000Y-113500000D01*
X209850000Y-114200000D02*
X209850000Y-113200000D01*
X209850000Y-110600000D02*
X209850000Y-110960000D01*
X210050000Y-110960000D02*
X209850000Y-110960000D01*
D14*
X220150000Y-113400000D02*
X220150000Y-112700000D01*
D15*
X210050000Y-110800000D02*
X212750000Y-110800000D01*
X220050000Y-112800000D02*
X218650000Y-112800000D01*
D10*
X210080000Y-113200000D02*
X210080000Y-110960000D01*
X220150000Y-115750000D02*
X220350000Y-115750000D01*
D14*
X220150000Y-115900000D02*
X218750000Y-115900000D01*
D13*
X209950001Y-113300000D02*
X209950000Y-114199999D01*
D10*
X220130000Y-113500000D02*
X220130000Y-115750000D01*
X209850000Y-110600000D02*
X213130000Y-110600000D01*
D16*
X219650000Y-115500000D02*
X219650000Y-113000000D01*
D17*
X210450000Y-111100000D02*
X210450000Y-112900000D01*
D10*
X220350000Y-115750000D02*
X220350000Y-116100000D01*
X215350000Y-112500000D02*
X220350000Y-112500000D01*
X209850000Y-113200000D02*
X210050000Y-113200000D01*
D18*
X218350000Y-114300000D02*
X211650000Y-114300000D01*
D19*
X211580000Y-114600000D02*
X211580000Y-112360000D01*
D13*
X219170600Y-102374600D02*
X219170600Y-103824600D01*
X219170600Y-103824600D02*
X217120600Y-103824600D01*
X217120600Y-103824600D02*
X217120600Y-102374600D01*
X217120600Y-102374600D02*
X219170600Y-102374600D01*
D16*
X212733682Y-111021471D02*
G75*
G03*
X214950000Y-112900000I2151318J291471D01*
G01*
D10*
X209849999Y-114200000D02*
G75*
G03*
X211950000Y-116100001I2000001J100000D01*
G01*
X213133682Y-110621471D02*
G75*
G03*
X215350000Y-112500000I2151318J291471D01*
G01*
X182200000Y-111300000D02*
X173800000Y-111300001D01*
X182200000Y-108700000D02*
X182000000Y-108700000D01*
X182200000Y-107700000D02*
X182200000Y-108700000D01*
X171700000Y-109400000D02*
X171700000Y-108400000D01*
X171700000Y-105800000D02*
X171700000Y-106160000D01*
X171900000Y-106160000D02*
X171700000Y-106160000D01*
D14*
X182000000Y-108600000D02*
X182000000Y-107900000D01*
D15*
X171900000Y-106000000D02*
X174600000Y-106000000D01*
X181900000Y-108000000D02*
X180500000Y-108000000D01*
D10*
X171930000Y-108400000D02*
X171930000Y-106160000D01*
X182000000Y-110950000D02*
X182200000Y-110950000D01*
D14*
X182000000Y-111100000D02*
X180600000Y-111100000D01*
D13*
X171800001Y-108500000D02*
X171800000Y-109399999D01*
D10*
X181980000Y-108700000D02*
X181980000Y-110950000D01*
X171700000Y-105800000D02*
X174980000Y-105800000D01*
D16*
X181500000Y-110700000D02*
X181500000Y-108200000D01*
D17*
X172300000Y-106300000D02*
X172300000Y-108100000D01*
D10*
X182200000Y-110950000D02*
X182200000Y-111300000D01*
X177200000Y-107700000D02*
X182200000Y-107700000D01*
X171700000Y-108400000D02*
X171900000Y-108400000D01*
D18*
X180200000Y-109500000D02*
X173500000Y-109500000D01*
D19*
X173430000Y-109800000D02*
X173430000Y-107560000D01*
D13*
X181020600Y-97574600D02*
X181020600Y-99024600D01*
X181020600Y-99024600D02*
X178970600Y-99024600D01*
X178970600Y-99024600D02*
X178970600Y-97574600D01*
X178970600Y-97574600D02*
X181020600Y-97574600D01*
D16*
X174583682Y-106221471D02*
G75*
G03*
X176800000Y-108100000I2151318J291471D01*
G01*
D10*
X171699999Y-109400000D02*
G75*
G03*
X173800000Y-111300001I2000001J100000D01*
G01*
X174983682Y-105821471D02*
G75*
G03*
X177200000Y-107700000I2151318J291471D01*
G01*
X144100000Y-111300000D02*
X135700000Y-111300001D01*
X144100000Y-108700000D02*
X143900000Y-108700000D01*
X144100000Y-107700000D02*
X144100000Y-108700000D01*
X133600000Y-109400000D02*
X133600000Y-108400000D01*
X133600000Y-105800000D02*
X133600000Y-106160000D01*
X133800000Y-106160000D02*
X133600000Y-106160000D01*
D14*
X143900000Y-108600000D02*
X143900000Y-107900000D01*
D15*
X133800000Y-106000000D02*
X136500000Y-106000000D01*
X143800000Y-108000000D02*
X142400000Y-108000000D01*
D10*
X133830000Y-108400000D02*
X133830000Y-106160000D01*
X143900000Y-110950000D02*
X144100000Y-110950000D01*
D14*
X143900000Y-111100000D02*
X142500000Y-111100000D01*
D13*
X133700001Y-108500000D02*
X133700000Y-109399999D01*
D10*
X143880000Y-108700000D02*
X143880000Y-110950000D01*
X133600000Y-105800000D02*
X136880000Y-105800000D01*
D16*
X143400000Y-110700000D02*
X143400000Y-108200000D01*
D17*
X134200000Y-106300000D02*
X134200000Y-108100000D01*
D10*
X144100000Y-110950000D02*
X144100000Y-111300000D01*
X139100000Y-107700000D02*
X144100000Y-107700000D01*
X133600000Y-108400000D02*
X133800000Y-108400000D01*
D18*
X142100000Y-109500000D02*
X135400000Y-109500000D01*
D19*
X135330000Y-109800000D02*
X135330000Y-107560000D01*
D13*
X142920600Y-97574600D02*
X142920600Y-99024600D01*
X142920600Y-99024600D02*
X140870600Y-99024600D01*
X140870600Y-99024600D02*
X140870600Y-97574600D01*
X140870600Y-97574600D02*
X142920600Y-97574600D01*
D16*
X136483682Y-106221471D02*
G75*
G03*
X138700000Y-108100000I2151318J291471D01*
G01*
D10*
X133599999Y-109400000D02*
G75*
G03*
X135700000Y-111300001I2000001J100000D01*
G01*
X136883682Y-105821471D02*
G75*
G03*
X139100000Y-107700000I2151318J291471D01*
G01*
X125100000Y-113700000D02*
X116700000Y-113700001D01*
X125100000Y-111100000D02*
X124900000Y-111100000D01*
X125100000Y-110100000D02*
X125100000Y-111100000D01*
X114600000Y-111800000D02*
X114600000Y-110800000D01*
X114600000Y-108200000D02*
X114600000Y-108560000D01*
X114800000Y-108560000D02*
X114600000Y-108560000D01*
D14*
X124900000Y-111000000D02*
X124900000Y-110300000D01*
D15*
X114800000Y-108400000D02*
X117500000Y-108400000D01*
X124800000Y-110400000D02*
X123400000Y-110400000D01*
D10*
X114830000Y-110800000D02*
X114830000Y-108560000D01*
X124900000Y-113350000D02*
X125100000Y-113350000D01*
D14*
X124900000Y-113500000D02*
X123500000Y-113500000D01*
D13*
X114700001Y-110900000D02*
X114700000Y-111799999D01*
D10*
X124880000Y-111100000D02*
X124880000Y-113350000D01*
X114600000Y-108200000D02*
X117880000Y-108200000D01*
D16*
X124400000Y-113100000D02*
X124400000Y-110600000D01*
D17*
X115200000Y-108700000D02*
X115200000Y-110500000D01*
D10*
X125100000Y-113350000D02*
X125100000Y-113700000D01*
X120100000Y-110100000D02*
X125100000Y-110100000D01*
X114600000Y-110800000D02*
X114800000Y-110800000D01*
D18*
X123100000Y-111900000D02*
X116400000Y-111900000D01*
D19*
X116330000Y-112200000D02*
X116330000Y-109960000D01*
D13*
X123920600Y-99974600D02*
X123920600Y-101424600D01*
X123920600Y-101424600D02*
X121870600Y-101424600D01*
X121870600Y-101424600D02*
X121870600Y-99974600D01*
X121870600Y-99974600D02*
X123920600Y-99974600D01*
D16*
X117483682Y-108621471D02*
G75*
G03*
X119700000Y-110500000I2151318J291471D01*
G01*
D10*
X114599999Y-111800000D02*
G75*
G03*
X116700000Y-113700001I2000001J100000D01*
G01*
X117883682Y-108221471D02*
G75*
G03*
X120100000Y-110100000I2151318J291471D01*
G01*
X220300000Y-97100000D02*
X211900000Y-97100001D01*
X220300000Y-94500000D02*
X220100000Y-94500000D01*
X220300000Y-93500000D02*
X220300000Y-94500000D01*
X209800000Y-95200000D02*
X209800000Y-94200000D01*
X209800000Y-91600000D02*
X209800000Y-91960000D01*
X210000000Y-91960000D02*
X209800000Y-91960000D01*
D14*
X220100000Y-94400000D02*
X220100000Y-93700000D01*
D15*
X210000000Y-91800000D02*
X212700000Y-91800000D01*
X220000000Y-93800000D02*
X218600000Y-93800000D01*
D10*
X210030000Y-94200000D02*
X210030000Y-91960000D01*
X220100000Y-96750000D02*
X220300000Y-96750000D01*
D14*
X220100000Y-96900000D02*
X218700000Y-96900000D01*
D13*
X209900001Y-94300000D02*
X209900000Y-95199999D01*
D10*
X220080000Y-94500000D02*
X220080000Y-96750000D01*
X209800000Y-91600000D02*
X213080000Y-91600000D01*
D16*
X219600000Y-96500000D02*
X219600000Y-94000000D01*
D17*
X210400000Y-92100000D02*
X210400000Y-93900000D01*
D10*
X220300000Y-96750000D02*
X220300000Y-97100000D01*
X215300000Y-93500000D02*
X220300000Y-93500000D01*
X209800000Y-94200000D02*
X210000000Y-94200000D01*
D18*
X218300000Y-95300000D02*
X211600000Y-95300000D01*
D19*
X211530000Y-95600000D02*
X211530000Y-93360000D01*
D13*
X219120600Y-83374600D02*
X219120600Y-84824600D01*
X219120600Y-84824600D02*
X217070600Y-84824600D01*
X217070600Y-84824600D02*
X217070600Y-83374600D01*
X217070600Y-83374600D02*
X219120600Y-83374600D01*
D16*
X212683682Y-92021471D02*
G75*
G03*
X214900000Y-93900000I2151318J291471D01*
G01*
D10*
X209799999Y-95200000D02*
G75*
G03*
X211900000Y-97100001I2000001J100000D01*
G01*
X213083682Y-91621471D02*
G75*
G03*
X215300000Y-93500000I2151318J291471D01*
G01*
X182200000Y-92200000D02*
X173800000Y-92200001D01*
X182200000Y-89600000D02*
X182000000Y-89600000D01*
X182200000Y-88600000D02*
X182200000Y-89600000D01*
X171700000Y-90300000D02*
X171700000Y-89300000D01*
X171700000Y-86700000D02*
X171700000Y-87060000D01*
X171900000Y-87060000D02*
X171700000Y-87060000D01*
D14*
X182000000Y-89500000D02*
X182000000Y-88800000D01*
D15*
X171900000Y-86900000D02*
X174600000Y-86900000D01*
X181900000Y-88900000D02*
X180500000Y-88900000D01*
D10*
X171930000Y-89300000D02*
X171930000Y-87060000D01*
X182000000Y-91850000D02*
X182200000Y-91850000D01*
D14*
X182000000Y-92000000D02*
X180600000Y-92000000D01*
D13*
X171800001Y-89400000D02*
X171800000Y-90299999D01*
D10*
X181980000Y-89600000D02*
X181980000Y-91850000D01*
X171700000Y-86700000D02*
X174980000Y-86700000D01*
D16*
X181500000Y-91600000D02*
X181500000Y-89100000D01*
D17*
X172300000Y-87200000D02*
X172300000Y-89000000D01*
D10*
X182200000Y-91850000D02*
X182200000Y-92200000D01*
X177200000Y-88600000D02*
X182200000Y-88600000D01*
X171700000Y-89300000D02*
X171900000Y-89300000D01*
D18*
X180200000Y-90400000D02*
X173500000Y-90400000D01*
D19*
X173430000Y-90700000D02*
X173430000Y-88460000D01*
D13*
X181020600Y-78474600D02*
X181020600Y-79924600D01*
X181020600Y-79924600D02*
X178970600Y-79924600D01*
X178970600Y-79924600D02*
X178970600Y-78474600D01*
X178970600Y-78474600D02*
X181020600Y-78474600D01*
D16*
X174583682Y-87121471D02*
G75*
G03*
X176800000Y-89000000I2151318J291471D01*
G01*
D10*
X171699999Y-90300000D02*
G75*
G03*
X173800000Y-92200001I2000001J100000D01*
G01*
X174983682Y-86721471D02*
G75*
G03*
X177200000Y-88600000I2151318J291471D01*
G01*
X163200000Y-89790000D02*
X154800000Y-89790001D01*
X163200000Y-87190000D02*
X163000000Y-87190000D01*
X163200000Y-86190000D02*
X163200000Y-87190000D01*
X152700000Y-87890000D02*
X152700000Y-86890000D01*
X152700000Y-84290000D02*
X152700000Y-84650000D01*
X152900000Y-84650000D02*
X152700000Y-84650000D01*
D14*
X163000000Y-87090000D02*
X163000000Y-86390000D01*
D15*
X152900000Y-84490000D02*
X155600000Y-84490000D01*
X162900000Y-86490000D02*
X161500000Y-86490000D01*
D10*
X152930000Y-86890000D02*
X152930000Y-84650000D01*
X163000000Y-89440000D02*
X163200000Y-89440000D01*
D14*
X163000000Y-89590000D02*
X161600000Y-89590000D01*
D13*
X152800001Y-86990000D02*
X152800000Y-87889999D01*
D10*
X162980000Y-87190000D02*
X162980000Y-89440000D01*
X152700000Y-84290000D02*
X155980000Y-84290000D01*
D16*
X162500000Y-89190000D02*
X162500000Y-86690000D01*
D17*
X153300000Y-84790000D02*
X153300000Y-86590000D01*
D10*
X163200000Y-89440000D02*
X163200000Y-89790000D01*
X158200000Y-86190000D02*
X163200000Y-86190000D01*
X152700000Y-86890000D02*
X152900000Y-86890000D01*
D18*
X161200000Y-87990000D02*
X154500000Y-87990000D01*
D19*
X154430000Y-88290000D02*
X154430000Y-86050000D01*
D13*
X162020600Y-76064600D02*
X162020600Y-77514600D01*
X162020600Y-77514600D02*
X159970600Y-77514600D01*
X159970600Y-77514600D02*
X159970600Y-76064600D01*
X159970600Y-76064600D02*
X162020600Y-76064600D01*
D16*
X155583682Y-84711471D02*
G75*
G03*
X157800000Y-86590000I2151318J291471D01*
G01*
D10*
X152699999Y-87890000D02*
G75*
G03*
X154800000Y-89790001I2000001J100000D01*
G01*
X155983682Y-84311471D02*
G75*
G03*
X158200000Y-86190000I2151318J291471D01*
G01*
X144100000Y-92200000D02*
X135700000Y-92200001D01*
X144100000Y-89600000D02*
X143900000Y-89600000D01*
X144100000Y-88600000D02*
X144100000Y-89600000D01*
X133600000Y-90300000D02*
X133600000Y-89300000D01*
X133600000Y-86700000D02*
X133600000Y-87060000D01*
X133800000Y-87060000D02*
X133600000Y-87060000D01*
D14*
X143900000Y-89500000D02*
X143900000Y-88800000D01*
D15*
X133800000Y-86900000D02*
X136500000Y-86900000D01*
X143800000Y-88900000D02*
X142400000Y-88900000D01*
D10*
X133830000Y-89300000D02*
X133830000Y-87060000D01*
X143900000Y-91850000D02*
X144100000Y-91850000D01*
D14*
X143900000Y-92000000D02*
X142500000Y-92000000D01*
D13*
X133700001Y-89400000D02*
X133700000Y-90299999D01*
D10*
X143880000Y-89600000D02*
X143880000Y-91850000D01*
X133600000Y-86700000D02*
X136880000Y-86700000D01*
D16*
X143400000Y-91600000D02*
X143400000Y-89100000D01*
D17*
X134200000Y-87200000D02*
X134200000Y-89000000D01*
D10*
X144100000Y-91850000D02*
X144100000Y-92200000D01*
X139100000Y-88600000D02*
X144100000Y-88600000D01*
X133600000Y-89300000D02*
X133800000Y-89300000D01*
D18*
X142100000Y-90400000D02*
X135400000Y-90400000D01*
D19*
X135330000Y-90700000D02*
X135330000Y-88460000D01*
D13*
X142920600Y-78474600D02*
X142920600Y-79924600D01*
X142920600Y-79924600D02*
X140870600Y-79924600D01*
X140870600Y-79924600D02*
X140870600Y-78474600D01*
X140870600Y-78474600D02*
X142920600Y-78474600D01*
D16*
X136483682Y-87121471D02*
G75*
G03*
X138700000Y-89000000I2151318J291471D01*
G01*
D10*
X133599999Y-90300000D02*
G75*
G03*
X135700000Y-92200001I2000001J100000D01*
G01*
X136883682Y-86721471D02*
G75*
G03*
X139100000Y-88600000I2151318J291471D01*
G01*
X125100000Y-94700000D02*
X116700000Y-94700001D01*
X125100000Y-92100000D02*
X124900000Y-92100000D01*
X125100000Y-91100000D02*
X125100000Y-92100000D01*
X114600000Y-92800000D02*
X114600000Y-91800000D01*
X114600000Y-89200000D02*
X114600000Y-89560000D01*
X114800000Y-89560000D02*
X114600000Y-89560000D01*
D14*
X124900000Y-92000000D02*
X124900000Y-91300000D01*
D15*
X114800000Y-89400000D02*
X117500000Y-89400000D01*
X124800000Y-91400000D02*
X123400000Y-91400000D01*
D10*
X114830000Y-91800000D02*
X114830000Y-89560000D01*
X124900000Y-94350000D02*
X125100000Y-94350000D01*
D14*
X124900000Y-94500000D02*
X123500000Y-94500000D01*
D13*
X114700001Y-91900000D02*
X114700000Y-92799999D01*
D10*
X124880000Y-92100000D02*
X124880000Y-94350000D01*
X114600000Y-89200000D02*
X117880000Y-89200000D01*
D16*
X124400000Y-94100000D02*
X124400000Y-91600000D01*
D17*
X115200000Y-89700000D02*
X115200000Y-91500000D01*
D10*
X125100000Y-94350000D02*
X125100000Y-94700000D01*
X120100000Y-91100000D02*
X125100000Y-91100000D01*
X114600000Y-91800000D02*
X114800000Y-91800000D01*
D18*
X123100000Y-92900000D02*
X116400000Y-92900000D01*
D19*
X116330000Y-93200000D02*
X116330000Y-90960000D01*
D13*
X123920600Y-80974600D02*
X123920600Y-82424600D01*
X123920600Y-82424600D02*
X121870600Y-82424600D01*
X121870600Y-82424600D02*
X121870600Y-80974600D01*
X121870600Y-80974600D02*
X123920600Y-80974600D01*
D16*
X117483682Y-89621471D02*
G75*
G03*
X119700000Y-91500000I2151318J291471D01*
G01*
D10*
X114599999Y-92800000D02*
G75*
G03*
X116700000Y-94700001I2000001J100000D01*
G01*
X117883682Y-89221471D02*
G75*
G03*
X120100000Y-91100000I2151318J291471D01*
G01*
X182200000Y-73100000D02*
X173800000Y-73100001D01*
X182200000Y-70500000D02*
X182000000Y-70500000D01*
X182200000Y-69500000D02*
X182200000Y-70500000D01*
X171700000Y-71200000D02*
X171700000Y-70200000D01*
X171700000Y-67600000D02*
X171700000Y-67960000D01*
X171900000Y-67960000D02*
X171700000Y-67960000D01*
D14*
X182000000Y-70400000D02*
X182000000Y-69700000D01*
D15*
X171900000Y-67800000D02*
X174600000Y-67800000D01*
X181900000Y-69800000D02*
X180500000Y-69800000D01*
D10*
X171930000Y-70200000D02*
X171930000Y-67960000D01*
X182000000Y-72750000D02*
X182200000Y-72750000D01*
D14*
X182000000Y-72900000D02*
X180600000Y-72900000D01*
D13*
X171800001Y-70300000D02*
X171800000Y-71199999D01*
D10*
X181980000Y-70500000D02*
X181980000Y-72750000D01*
X171700000Y-67600000D02*
X174980000Y-67600000D01*
D16*
X181500000Y-72500000D02*
X181500000Y-70000000D01*
D17*
X172300000Y-68100000D02*
X172300000Y-69900000D01*
D10*
X182200000Y-72750000D02*
X182200000Y-73100000D01*
X177200000Y-69500000D02*
X182200000Y-69500000D01*
X171700000Y-70200000D02*
X171900000Y-70200000D01*
D18*
X180200000Y-71300000D02*
X173500000Y-71300000D01*
D19*
X173430000Y-71600000D02*
X173430000Y-69360000D01*
D13*
X181020600Y-59374600D02*
X181020600Y-60824600D01*
X181020600Y-60824600D02*
X178970600Y-60824600D01*
X178970600Y-60824600D02*
X178970600Y-59374600D01*
X178970600Y-59374600D02*
X181020600Y-59374600D01*
D16*
X174583682Y-68021471D02*
G75*
G03*
X176800000Y-69900000I2151318J291471D01*
G01*
D10*
X171699999Y-71200000D02*
G75*
G03*
X173800000Y-73100001I2000001J100000D01*
G01*
X174983682Y-67621471D02*
G75*
G03*
X177200000Y-69500000I2151318J291471D01*
G01*
X163200000Y-70690000D02*
X154800000Y-70690001D01*
X163200000Y-68090000D02*
X163000000Y-68090000D01*
X163200000Y-67090000D02*
X163200000Y-68090000D01*
X152700000Y-68790000D02*
X152700000Y-67790000D01*
X152700000Y-65190000D02*
X152700000Y-65550000D01*
X152900000Y-65550000D02*
X152700000Y-65550000D01*
D14*
X163000000Y-67990000D02*
X163000000Y-67290000D01*
D15*
X152900000Y-65390000D02*
X155600000Y-65390000D01*
X162900000Y-67390000D02*
X161500000Y-67390000D01*
D10*
X152930000Y-67790000D02*
X152930000Y-65550000D01*
X163000000Y-70340000D02*
X163200000Y-70340000D01*
D14*
X163000000Y-70490000D02*
X161600000Y-70490000D01*
D13*
X152800001Y-67890000D02*
X152800000Y-68789999D01*
D10*
X162980000Y-68090000D02*
X162980000Y-70340000D01*
X152700000Y-65190000D02*
X155980000Y-65190000D01*
D16*
X162500000Y-70090000D02*
X162500000Y-67590000D01*
D17*
X153300000Y-65690000D02*
X153300000Y-67490000D01*
D10*
X163200000Y-70340000D02*
X163200000Y-70690000D01*
X158200000Y-67090000D02*
X163200000Y-67090000D01*
X152700000Y-67790000D02*
X152900000Y-67790000D01*
D18*
X161200000Y-68890000D02*
X154500000Y-68890000D01*
D19*
X154430000Y-69190000D02*
X154430000Y-66950000D01*
D13*
X162020600Y-56964600D02*
X162020600Y-58414600D01*
X162020600Y-58414600D02*
X159970600Y-58414600D01*
X159970600Y-58414600D02*
X159970600Y-56964600D01*
X159970600Y-56964600D02*
X162020600Y-56964600D01*
D16*
X155583682Y-65611471D02*
G75*
G03*
X157800000Y-67490000I2151318J291471D01*
G01*
D10*
X152699999Y-68790000D02*
G75*
G03*
X154800000Y-70690001I2000001J100000D01*
G01*
X155983682Y-65211471D02*
G75*
G03*
X158200000Y-67090000I2151318J291471D01*
G01*
X144100000Y-73200000D02*
X135700000Y-73200001D01*
X144100000Y-70600000D02*
X143900000Y-70600000D01*
X144100000Y-69600000D02*
X144100000Y-70600000D01*
X133600000Y-71300000D02*
X133600000Y-70300000D01*
X133600000Y-67700000D02*
X133600000Y-68060000D01*
X133800000Y-68060000D02*
X133600000Y-68060000D01*
D14*
X143900000Y-70500000D02*
X143900000Y-69800000D01*
D15*
X133800000Y-67900000D02*
X136500000Y-67900000D01*
X143800000Y-69900000D02*
X142400000Y-69900000D01*
D10*
X133830000Y-70300000D02*
X133830000Y-68060000D01*
X143900000Y-72850000D02*
X144100000Y-72850000D01*
D14*
X143900000Y-73000000D02*
X142500000Y-73000000D01*
D13*
X133700001Y-70400000D02*
X133700000Y-71299999D01*
D10*
X143880000Y-70600000D02*
X143880000Y-72850000D01*
X133600000Y-67700000D02*
X136880000Y-67700000D01*
D16*
X143400000Y-72600000D02*
X143400000Y-70100000D01*
D17*
X134200000Y-68200000D02*
X134200000Y-70000000D01*
D10*
X144100000Y-72850000D02*
X144100000Y-73200000D01*
X139100000Y-69600000D02*
X144100000Y-69600000D01*
X133600000Y-70300000D02*
X133800000Y-70300000D01*
D18*
X142100000Y-71400000D02*
X135400000Y-71400000D01*
D19*
X135330000Y-71700000D02*
X135330000Y-69460000D01*
D13*
X142920600Y-59474600D02*
X142920600Y-60924600D01*
X142920600Y-60924600D02*
X140870600Y-60924600D01*
X140870600Y-60924600D02*
X140870600Y-59474600D01*
X140870600Y-59474600D02*
X142920600Y-59474600D01*
D16*
X136483682Y-68121471D02*
G75*
G03*
X138700000Y-70000000I2151318J291471D01*
G01*
D10*
X133599999Y-71300000D02*
G75*
G03*
X135700000Y-73200001I2000001J100000D01*
G01*
X136883682Y-67721471D02*
G75*
G03*
X139100000Y-69600000I2151318J291471D01*
G01*
X125100000Y-75700000D02*
X116700000Y-75700001D01*
X125100000Y-73100000D02*
X124900000Y-73100000D01*
X125100000Y-72100000D02*
X125100000Y-73100000D01*
X114600000Y-73800000D02*
X114600000Y-72800000D01*
X114600000Y-70200000D02*
X114600000Y-70560000D01*
X114800000Y-70560000D02*
X114600000Y-70560000D01*
D14*
X124900000Y-73000000D02*
X124900000Y-72300000D01*
D15*
X114800000Y-70400000D02*
X117500000Y-70400000D01*
X124800000Y-72400000D02*
X123400000Y-72400000D01*
D10*
X114830000Y-72800000D02*
X114830000Y-70560000D01*
X124900000Y-75350000D02*
X125100000Y-75350000D01*
D14*
X124900000Y-75500000D02*
X123500000Y-75500000D01*
D13*
X114700001Y-72900000D02*
X114700000Y-73799999D01*
D10*
X124880000Y-73100000D02*
X124880000Y-75350000D01*
X114600000Y-70200000D02*
X117880000Y-70200000D01*
D16*
X124400000Y-75100000D02*
X124400000Y-72600000D01*
D17*
X115200000Y-70700000D02*
X115200000Y-72500000D01*
D10*
X125100000Y-75350000D02*
X125100000Y-75700000D01*
X120100000Y-72100000D02*
X125100000Y-72100000D01*
X114600000Y-72800000D02*
X114800000Y-72800000D01*
D18*
X123100000Y-73900000D02*
X116400000Y-73900000D01*
D19*
X116330000Y-74200000D02*
X116330000Y-71960000D01*
D13*
X123920600Y-61974600D02*
X123920600Y-63424600D01*
X123920600Y-63424600D02*
X121870600Y-63424600D01*
X121870600Y-63424600D02*
X121870600Y-61974600D01*
X121870600Y-61974600D02*
X123920600Y-61974600D01*
D16*
X117483682Y-70621471D02*
G75*
G03*
X119700000Y-72500000I2151318J291471D01*
G01*
D10*
X114599999Y-73800000D02*
G75*
G03*
X116700000Y-75700001I2000001J100000D01*
G01*
X117883682Y-70221471D02*
G75*
G03*
X120100000Y-72100000I2151318J291471D01*
G01*
X201300000Y-59000000D02*
X192900000Y-59000001D01*
X201300000Y-56400000D02*
X201100000Y-56400000D01*
X201300000Y-55400000D02*
X201300000Y-56400000D01*
X190800000Y-57100000D02*
X190800000Y-56100000D01*
X190800000Y-53500000D02*
X190800000Y-53860000D01*
X191000000Y-53860000D02*
X190800000Y-53860000D01*
D14*
X201100000Y-56300000D02*
X201100000Y-55600000D01*
D15*
X191000000Y-53700000D02*
X193700000Y-53700000D01*
X201000000Y-55700000D02*
X199600000Y-55700000D01*
D10*
X191030000Y-56100000D02*
X191030000Y-53860000D01*
X201100000Y-58650000D02*
X201300000Y-58650000D01*
D14*
X201100000Y-58800000D02*
X199700000Y-58800000D01*
D13*
X190900001Y-56200000D02*
X190900000Y-57099999D01*
D10*
X201080000Y-56400000D02*
X201080000Y-58650000D01*
X190800000Y-53500000D02*
X194080000Y-53500000D01*
D16*
X200600000Y-58400000D02*
X200600000Y-55900000D01*
D17*
X191400000Y-54000000D02*
X191400000Y-55800000D01*
D10*
X201300000Y-58650000D02*
X201300000Y-59000000D01*
X196300000Y-55400000D02*
X201300000Y-55400000D01*
X190800000Y-56100000D02*
X191000000Y-56100000D01*
D18*
X199300000Y-57200000D02*
X192600000Y-57200000D01*
D19*
X192530000Y-57500000D02*
X192530000Y-55260000D01*
D13*
X200120600Y-45274600D02*
X200120600Y-46724600D01*
X200120600Y-46724600D02*
X198070600Y-46724600D01*
X198070600Y-46724600D02*
X198070600Y-45274600D01*
X198070600Y-45274600D02*
X200120600Y-45274600D01*
D16*
X193683682Y-53921471D02*
G75*
G03*
X195900000Y-55800000I2151318J291471D01*
G01*
D10*
X190799999Y-57100000D02*
G75*
G03*
X192900000Y-59000001I2000001J100000D01*
G01*
X194083682Y-53521471D02*
G75*
G03*
X196300000Y-55400000I2151318J291471D01*
G01*
X182200000Y-54100000D02*
X173800000Y-54100001D01*
X182200000Y-51500000D02*
X182000000Y-51500000D01*
X182200000Y-50500000D02*
X182200000Y-51500000D01*
X171700000Y-52200000D02*
X171700000Y-51200000D01*
X171700000Y-48600000D02*
X171700000Y-48960000D01*
X171900000Y-48960000D02*
X171700000Y-48960000D01*
D14*
X182000000Y-51400000D02*
X182000000Y-50700000D01*
D15*
X171900000Y-48800000D02*
X174600000Y-48800000D01*
X181900000Y-50800000D02*
X180500000Y-50800000D01*
D10*
X171930000Y-51200000D02*
X171930000Y-48960000D01*
X182000000Y-53750000D02*
X182200000Y-53750000D01*
D14*
X182000000Y-53900000D02*
X180600000Y-53900000D01*
D13*
X171800001Y-51300000D02*
X171800000Y-52199999D01*
D10*
X181980000Y-51500000D02*
X181980000Y-53750000D01*
X171700000Y-48600000D02*
X174980000Y-48600000D01*
D16*
X181500000Y-53500000D02*
X181500000Y-51000000D01*
D17*
X172300000Y-49100000D02*
X172300000Y-50900000D01*
D10*
X182200000Y-53750000D02*
X182200000Y-54100000D01*
X177200000Y-50500000D02*
X182200000Y-50500000D01*
X171700000Y-51200000D02*
X171900000Y-51200000D01*
D18*
X180200000Y-52300000D02*
X173500000Y-52300000D01*
D19*
X173430000Y-52600000D02*
X173430000Y-50360000D01*
D13*
X181020600Y-40374600D02*
X181020600Y-41824600D01*
X181020600Y-41824600D02*
X178970600Y-41824600D01*
X178970600Y-41824600D02*
X178970600Y-40374600D01*
X178970600Y-40374600D02*
X181020600Y-40374600D01*
D16*
X174583682Y-49021471D02*
G75*
G03*
X176800000Y-50900000I2151318J291471D01*
G01*
D10*
X171699999Y-52200000D02*
G75*
G03*
X173800000Y-54100001I2000001J100000D01*
G01*
X174983682Y-48621471D02*
G75*
G03*
X177200000Y-50500000I2151318J291471D01*
G01*
X163200000Y-51600000D02*
X154800000Y-51600001D01*
X163200000Y-49000000D02*
X163000000Y-49000000D01*
X163200000Y-48000000D02*
X163200000Y-49000000D01*
X152700000Y-49700000D02*
X152700000Y-48700000D01*
X152700000Y-46100000D02*
X152700000Y-46460000D01*
X152900000Y-46460000D02*
X152700000Y-46460000D01*
D14*
X163000000Y-48900000D02*
X163000000Y-48200000D01*
D15*
X152900000Y-46300000D02*
X155600000Y-46300000D01*
X162900000Y-48300000D02*
X161500000Y-48300000D01*
D10*
X152930000Y-48700000D02*
X152930000Y-46460000D01*
X163000000Y-51250000D02*
X163200000Y-51250000D01*
D14*
X163000000Y-51400000D02*
X161600000Y-51400000D01*
D13*
X152800001Y-48800000D02*
X152800000Y-49699999D01*
D10*
X162980000Y-49000000D02*
X162980000Y-51250000D01*
X152700000Y-46100000D02*
X155980000Y-46100000D01*
D16*
X162500000Y-51000000D02*
X162500000Y-48500000D01*
D17*
X153300000Y-46600000D02*
X153300000Y-48400000D01*
D10*
X163200000Y-51250000D02*
X163200000Y-51600000D01*
X158200000Y-48000000D02*
X163200000Y-48000000D01*
X152700000Y-48700000D02*
X152900000Y-48700000D01*
D18*
X161200000Y-49800000D02*
X154500000Y-49800000D01*
D19*
X154430000Y-50100000D02*
X154430000Y-47860000D01*
D13*
X162020600Y-37874600D02*
X162020600Y-39324600D01*
X162020600Y-39324600D02*
X159970600Y-39324600D01*
X159970600Y-39324600D02*
X159970600Y-37874600D01*
X159970600Y-37874600D02*
X162020600Y-37874600D01*
D16*
X155583682Y-46521471D02*
G75*
G03*
X157800000Y-48400000I2151318J291471D01*
G01*
D10*
X152699999Y-49700000D02*
G75*
G03*
X154800000Y-51600001I2000001J100000D01*
G01*
X155983682Y-46121471D02*
G75*
G03*
X158200000Y-48000000I2151318J291471D01*
G01*
X125100000Y-56600000D02*
X116700000Y-56600001D01*
X125100000Y-54000000D02*
X124900000Y-54000000D01*
X125100000Y-53000000D02*
X125100000Y-54000000D01*
X114600000Y-54700000D02*
X114600000Y-53700000D01*
X114600000Y-51100000D02*
X114600000Y-51460000D01*
X114800000Y-51460000D02*
X114600000Y-51460000D01*
D14*
X124900000Y-53900000D02*
X124900000Y-53200000D01*
D15*
X114800000Y-51300000D02*
X117500000Y-51300000D01*
X124800000Y-53300000D02*
X123400000Y-53300000D01*
D10*
X114830000Y-53700000D02*
X114830000Y-51460000D01*
X124900000Y-56250000D02*
X125100000Y-56250000D01*
D14*
X124900000Y-56400000D02*
X123500000Y-56400000D01*
D13*
X114700001Y-53800000D02*
X114700000Y-54699999D01*
D10*
X124880000Y-54000000D02*
X124880000Y-56250000D01*
X114600000Y-51100000D02*
X117880000Y-51100000D01*
D16*
X124400000Y-56000000D02*
X124400000Y-53500000D01*
D17*
X115200000Y-51600000D02*
X115200000Y-53400000D01*
D10*
X125100000Y-56250000D02*
X125100000Y-56600000D01*
X120100000Y-53000000D02*
X125100000Y-53000000D01*
X114600000Y-53700000D02*
X114800000Y-53700000D01*
D18*
X123100000Y-54800000D02*
X116400000Y-54800000D01*
D19*
X116330000Y-55100000D02*
X116330000Y-52860000D01*
D13*
X123920600Y-42874600D02*
X123920600Y-44324600D01*
X123920600Y-44324600D02*
X121870600Y-44324600D01*
X121870600Y-44324600D02*
X121870600Y-42874600D01*
X121870600Y-42874600D02*
X123920600Y-42874600D01*
D16*
X117483682Y-51521471D02*
G75*
G03*
X119700000Y-53400000I2151318J291471D01*
G01*
D10*
X114599999Y-54700000D02*
G75*
G03*
X116700000Y-56600001I2000001J100000D01*
G01*
X117883682Y-51121471D02*
G75*
G03*
X120100000Y-53000000I2151318J291471D01*
G01*
X180527000Y-115606600D02*
X180527000Y-113806600D01*
X175427000Y-115606600D02*
X175427000Y-113806600D01*
X175427000Y-113806600D02*
X177227000Y-113806600D01*
X177227000Y-113806600D02*
X177227000Y-115606600D01*
X177227000Y-115606600D02*
X175427000Y-115606600D01*
X177927000Y-115606600D02*
X177927000Y-113806600D01*
X179727000Y-113806600D02*
X179727000Y-115606600D01*
X177927000Y-113806600D02*
X179727000Y-113806600D01*
X177927000Y-115606600D02*
X179727000Y-115606600D01*
X180527000Y-113806600D02*
X182327000Y-113806600D01*
X182327000Y-113806600D02*
X182327000Y-115606600D01*
X180527000Y-115606600D02*
X182327000Y-115606600D01*
X186400000Y-96950000D02*
X184600000Y-96950000D01*
X186400000Y-102050000D02*
X184600000Y-102050000D01*
X184600000Y-102050000D02*
X184600000Y-100250000D01*
X184600000Y-100250000D02*
X186400000Y-100250000D01*
X186400000Y-100250000D02*
X186400000Y-102050000D01*
X186400000Y-99550000D02*
X184600000Y-99550000D01*
X184600000Y-97750000D02*
X186400000Y-97750000D01*
X184600000Y-99550000D02*
X184600000Y-97750000D01*
X186400000Y-99550000D02*
X186400000Y-97750000D01*
X184600000Y-96950000D02*
X184600000Y-95150000D01*
X184600000Y-95150000D02*
X186400000Y-95150000D01*
X186400000Y-96950000D02*
X186400000Y-95150000D01*
X107448815Y-71635745D02*
X109988815Y-71635745D01*
X94748815Y-41155745D02*
X92208815Y-41155745D01*
X92208815Y-41155745D02*
X92208815Y-71635745D01*
X92208815Y-38615745D02*
X92208815Y-71635745D01*
X109988815Y-38615745D02*
X92208815Y-38615745D01*
X92208815Y-71635745D02*
X94748815Y-71635745D01*
X109988815Y-41155745D02*
X107448815Y-41155745D01*
X109988815Y-71635745D02*
X109988815Y-38615745D01*
X107448815Y-41155745D02*
X107448815Y-71635745D01*
X94748815Y-71635745D02*
X94748815Y-41155745D01*
X109988815Y-71635745D02*
X109988815Y-41155745D01*
X87430000Y-75870000D02*
X97590000Y-75870000D01*
X87430000Y-73330000D02*
X97590000Y-73330000D01*
X97590000Y-73330000D02*
X97590000Y-75870000D01*
X87430000Y-75870000D02*
X87430000Y-73330000D01*
X85111000Y-73857000D02*
X86889000Y-73857000D01*
X85111000Y-76143000D02*
X85111000Y-73857000D01*
X86889000Y-76143000D02*
X85111000Y-76143000D01*
X86889000Y-73857000D02*
X86889000Y-76143000D01*
X80200000Y-72500000D02*
X80200000Y-78500000D01*
X83700000Y-78500000D02*
X83700000Y-72500000D01*
X80200000Y-72500000D02*
X80900000Y-72500000D01*
X83700000Y-72500000D02*
X83100000Y-72500000D01*
X83700000Y-78500000D02*
X83100000Y-78500000D01*
X80200000Y-78500000D02*
X80900000Y-78500000D01*
X95811000Y-70443000D02*
X95811000Y-68157000D01*
X95811000Y-68157000D02*
X97589000Y-68157000D01*
X97589000Y-68157000D02*
X97589000Y-70443000D01*
X97589000Y-70443000D02*
X95811000Y-70443000D01*
X98311000Y-70443000D02*
X98311000Y-68157000D01*
X98311000Y-68157000D02*
X100089000Y-68157000D01*
X100089000Y-68157000D02*
X100089000Y-70443000D01*
X100089000Y-70443000D02*
X98311000Y-70443000D01*
X100811000Y-70443000D02*
X100811000Y-68157000D01*
X100811000Y-68157000D02*
X102589000Y-68157000D01*
X102589000Y-68157000D02*
X102589000Y-70443000D01*
X102589000Y-70443000D02*
X100811000Y-70443000D01*
X103411000Y-70443000D02*
X103411000Y-68157000D01*
X103411000Y-68157000D02*
X105189000Y-68157000D01*
X105189000Y-68157000D02*
X105189000Y-70443000D01*
X105189000Y-70443000D02*
X103411000Y-70443000D01*
X94538132Y-79311205D02*
X94538132Y-81312725D01*
X94538132Y-81312725D02*
X97540412Y-81312725D01*
X97540412Y-81312725D02*
X97540412Y-79311205D01*
X97540412Y-79311205D02*
X94538132Y-79311205D01*
X94538132Y-77061205D02*
X94538132Y-79062725D01*
X94538132Y-79062725D02*
X97540412Y-79062725D01*
X97540412Y-79062725D02*
X97540412Y-77061205D01*
X97540412Y-77061205D02*
X94538132Y-77061205D01*
X103700000Y-77100000D02*
X101700000Y-77100000D01*
X101700000Y-77100000D02*
X101700000Y-79100000D01*
X101700000Y-79100000D02*
X103700000Y-79100000D01*
X103700000Y-79100000D02*
X103700000Y-77100000D01*
X103700000Y-79300000D02*
X101700000Y-79300000D01*
X101700000Y-79300000D02*
X101700000Y-81300000D01*
X101700000Y-81300000D02*
X103700000Y-81300000D01*
X103700000Y-81300000D02*
X103700000Y-79300000D01*
D20*
X103000000Y-104500000D02*
G75*
G03*
X103000000Y-104500000I-3000000J0D01*
G01*
X102000000Y-98600000D02*
X106100000Y-98600000D01*
X106100000Y-110400000D02*
X102000000Y-110400000D01*
X98000000Y-110400000D02*
X93900000Y-110400000D01*
X98000000Y-98600000D02*
X93900000Y-98600000D01*
X93900000Y-98600000D02*
X93900000Y-110400000D01*
X106100000Y-98600000D02*
X106100000Y-101000000D01*
X106100000Y-103200000D02*
X106100000Y-105800000D01*
X106100000Y-108000000D02*
X106100000Y-110400000D01*
X100000000Y-104000000D02*
X100000000Y-105000000D01*
X99500000Y-104500000D02*
X100500000Y-104500000D01*
D10*
X90000000Y-88300000D02*
X78000000Y-88300000D01*
X90000000Y-82300000D02*
X90000000Y-88300000D01*
X78000000Y-82300000D02*
X90000000Y-82300000D01*
X78000000Y-88300000D02*
X78000000Y-82300000D01*
X107566666Y-73652380D02*
X107566666Y-74366666D01*
X107519047Y-74509523D01*
X107423809Y-74604761D01*
X107280952Y-74652380D01*
X107185714Y-74652380D01*
X108566666Y-74652380D02*
X107995238Y-74652380D01*
X108280952Y-74652380D02*
X108280952Y-73652380D01*
X108185714Y-73795238D01*
X108090476Y-73890476D01*
X107995238Y-73938095D01*
X109390476Y-75560000D02*
X109314285Y-75521904D01*
X109200000Y-75521904D01*
X109085714Y-75560000D01*
X109009523Y-75636190D01*
X108971428Y-75712380D01*
X108933333Y-75864761D01*
X108933333Y-75979047D01*
X108971428Y-76131428D01*
X109009523Y-76207619D01*
X109085714Y-76283809D01*
X109200000Y-76321904D01*
X109276190Y-76321904D01*
X109390476Y-76283809D01*
X109428571Y-76245714D01*
X109428571Y-75979047D01*
X109276190Y-75979047D01*
X109771428Y-76321904D02*
X109771428Y-75521904D01*
X110228571Y-76321904D01*
X110228571Y-75521904D01*
X110609523Y-76321904D02*
X110609523Y-75521904D01*
X110800000Y-75521904D01*
X110914285Y-75560000D01*
X110990476Y-75636190D01*
X111028571Y-75712380D01*
X111066666Y-75864761D01*
X111066666Y-75979047D01*
X111028571Y-76131428D01*
X110990476Y-76207619D01*
X110914285Y-76283809D01*
X110800000Y-76321904D01*
X110609523Y-76321904D01*
X112166666Y-78252380D02*
X112166666Y-78966666D01*
X112119047Y-79109523D01*
X112023809Y-79204761D01*
X111880952Y-79252380D01*
X111785714Y-79252380D01*
X113071428Y-78252380D02*
X112880952Y-78252380D01*
X112785714Y-78300000D01*
X112738095Y-78347619D01*
X112642857Y-78490476D01*
X112595238Y-78680952D01*
X112595238Y-79061904D01*
X112642857Y-79157142D01*
X112690476Y-79204761D01*
X112785714Y-79252380D01*
X112976190Y-79252380D01*
X113071428Y-79204761D01*
X113119047Y-79157142D01*
X113166666Y-79061904D01*
X113166666Y-78823809D01*
X113119047Y-78728571D01*
X113071428Y-78680952D01*
X112976190Y-78633333D01*
X112785714Y-78633333D01*
X112690476Y-78680952D01*
X112642857Y-78728571D01*
X112595238Y-78823809D01*
X82361904Y-76661904D02*
X81980952Y-76928571D01*
X82361904Y-77119047D02*
X81561904Y-77119047D01*
X81561904Y-76814285D01*
X81600000Y-76738095D01*
X81638095Y-76700000D01*
X81714285Y-76661904D01*
X81828571Y-76661904D01*
X81904761Y-76700000D01*
X81942857Y-76738095D01*
X81980952Y-76814285D01*
X81980952Y-77119047D01*
X81942857Y-76319047D02*
X81942857Y-76052380D01*
X82361904Y-75938095D02*
X82361904Y-76319047D01*
X81561904Y-76319047D01*
X81561904Y-75938095D01*
X82323809Y-75633333D02*
X82361904Y-75519047D01*
X82361904Y-75328571D01*
X82323809Y-75252380D01*
X82285714Y-75214285D01*
X82209523Y-75176190D01*
X82133333Y-75176190D01*
X82057142Y-75214285D01*
X82019047Y-75252380D01*
X81980952Y-75328571D01*
X81942857Y-75480952D01*
X81904761Y-75557142D01*
X81866666Y-75595238D01*
X81790476Y-75633333D01*
X81714285Y-75633333D01*
X81638095Y-75595238D01*
X81600000Y-75557142D01*
X81561904Y-75480952D01*
X81561904Y-75290476D01*
X81600000Y-75176190D01*
X81942857Y-74833333D02*
X81942857Y-74566666D01*
X82361904Y-74452380D02*
X82361904Y-74833333D01*
X81561904Y-74833333D01*
X81561904Y-74452380D01*
X81561904Y-74223809D02*
X81561904Y-73766666D01*
X82361904Y-73995238D02*
X81561904Y-73995238D01*
X82361904Y-76661904D02*
X81980952Y-76928571D01*
X82361904Y-77119047D02*
X81561904Y-77119047D01*
X81561904Y-76814285D01*
X81600000Y-76738095D01*
X81638095Y-76700000D01*
X81714285Y-76661904D01*
X81828571Y-76661904D01*
X81904761Y-76700000D01*
X81942857Y-76738095D01*
X81980952Y-76814285D01*
X81980952Y-77119047D01*
X81942857Y-76319047D02*
X81942857Y-76052380D01*
X82361904Y-75938095D02*
X82361904Y-76319047D01*
X81561904Y-76319047D01*
X81561904Y-75938095D01*
X82323809Y-75633333D02*
X82361904Y-75519047D01*
X82361904Y-75328571D01*
X82323809Y-75252380D01*
X82285714Y-75214285D01*
X82209523Y-75176190D01*
X82133333Y-75176190D01*
X82057142Y-75214285D01*
X82019047Y-75252380D01*
X81980952Y-75328571D01*
X81942857Y-75480952D01*
X81904761Y-75557142D01*
X81866666Y-75595238D01*
X81790476Y-75633333D01*
X81714285Y-75633333D01*
X81638095Y-75595238D01*
X81600000Y-75557142D01*
X81561904Y-75480952D01*
X81561904Y-75290476D01*
X81600000Y-75176190D01*
X81942857Y-74833333D02*
X81942857Y-74566666D01*
X82361904Y-74452380D02*
X82361904Y-74833333D01*
X81561904Y-74833333D01*
X81561904Y-74452380D01*
X81561904Y-74223809D02*
X81561904Y-73766666D01*
X82361904Y-73995238D02*
X81561904Y-73995238D01*
X95864533Y-80667695D02*
X95593600Y-80280647D01*
X95400076Y-80667695D02*
X95400076Y-79854895D01*
X95709714Y-79854895D01*
X95787123Y-79893600D01*
X95825828Y-79932304D01*
X95864533Y-80009714D01*
X95864533Y-80125828D01*
X95825828Y-80203238D01*
X95787123Y-80241942D01*
X95709714Y-80280647D01*
X95400076Y-80280647D01*
X96638628Y-80667695D02*
X96174171Y-80667695D01*
X96406400Y-80667695D02*
X96406400Y-79854895D01*
X96328990Y-79971009D01*
X96251580Y-80048419D01*
X96174171Y-80087123D01*
X95864533Y-78467695D02*
X95593600Y-78080647D01*
X95400076Y-78467695D02*
X95400076Y-77654895D01*
X95709714Y-77654895D01*
X95787123Y-77693600D01*
X95825828Y-77732304D01*
X95864533Y-77809714D01*
X95864533Y-77925828D01*
X95825828Y-78003238D01*
X95787123Y-78041942D01*
X95709714Y-78080647D01*
X95400076Y-78080647D01*
X96174171Y-77732304D02*
X96212876Y-77693600D01*
X96290285Y-77654895D01*
X96483809Y-77654895D01*
X96561219Y-77693600D01*
X96599923Y-77732304D01*
X96638628Y-77809714D01*
X96638628Y-77887123D01*
X96599923Y-78003238D01*
X96135466Y-78467695D01*
X96638628Y-78467695D01*
X104739639Y-78699923D02*
X103926839Y-78699923D01*
X103926839Y-78390285D01*
X103965544Y-78312876D01*
X104004248Y-78274171D01*
X104081658Y-78235466D01*
X104197772Y-78235466D01*
X104275182Y-78274171D01*
X104313886Y-78312876D01*
X104352591Y-78390285D01*
X104352591Y-78699923D01*
X104004248Y-77925828D02*
X103965544Y-77887123D01*
X103926839Y-77809714D01*
X103926839Y-77616190D01*
X103965544Y-77538780D01*
X104004248Y-77500076D01*
X104081658Y-77461371D01*
X104159067Y-77461371D01*
X104275182Y-77500076D01*
X104739639Y-77964533D01*
X104739639Y-77461371D01*
X104739639Y-80899923D02*
X103926839Y-80899923D01*
X103926839Y-80590285D01*
X103965544Y-80512876D01*
X104004248Y-80474171D01*
X104081658Y-80435466D01*
X104197772Y-80435466D01*
X104275182Y-80474171D01*
X104313886Y-80512876D01*
X104352591Y-80590285D01*
X104352591Y-80899923D01*
X104739639Y-79661371D02*
X104739639Y-80125828D01*
X104739639Y-79893600D02*
X103926839Y-79893600D01*
X104042953Y-79971009D01*
X104120363Y-80048419D01*
X104159067Y-80125828D01*
X83902380Y-87811904D02*
X83902380Y-87240476D01*
X84902380Y-87526190D02*
X83902380Y-87526190D01*
X84902380Y-86335714D02*
X84426190Y-86669047D01*
X84902380Y-86907142D02*
X83902380Y-86907142D01*
X83902380Y-86526190D01*
X83950000Y-86430952D01*
X83997619Y-86383333D01*
X84092857Y-86335714D01*
X84235714Y-86335714D01*
X84330952Y-86383333D01*
X84378571Y-86430952D01*
X84426190Y-86526190D01*
X84426190Y-86907142D01*
X84902380Y-85335714D02*
X84426190Y-85669047D01*
X84902380Y-85907142D02*
X83902380Y-85907142D01*
X83902380Y-85526190D01*
X83950000Y-85430952D01*
X83997619Y-85383333D01*
X84092857Y-85335714D01*
X84235714Y-85335714D01*
X84330952Y-85383333D01*
X84378571Y-85430952D01*
X84426190Y-85526190D01*
X84426190Y-85907142D01*
X84854761Y-84954761D02*
X84902380Y-84811904D01*
X84902380Y-84573809D01*
X84854761Y-84478571D01*
X84807142Y-84430952D01*
X84711904Y-84383333D01*
X84616666Y-84383333D01*
X84521428Y-84430952D01*
X84473809Y-84478571D01*
X84426190Y-84573809D01*
X84378571Y-84764285D01*
X84330952Y-84859523D01*
X84283333Y-84907142D01*
X84188095Y-84954761D01*
X84092857Y-84954761D01*
X83997619Y-84907142D01*
X83950000Y-84859523D01*
X83902380Y-84764285D01*
X83902380Y-84526190D01*
X83950000Y-84383333D01*
X83902380Y-87811904D02*
X83902380Y-87240476D01*
X84902380Y-87526190D02*
X83902380Y-87526190D01*
X84902380Y-86335714D02*
X84426190Y-86669047D01*
X84902380Y-86907142D02*
X83902380Y-86907142D01*
X83902380Y-86526190D01*
X83950000Y-86430952D01*
X83997619Y-86383333D01*
X84092857Y-86335714D01*
X84235714Y-86335714D01*
X84330952Y-86383333D01*
X84378571Y-86430952D01*
X84426190Y-86526190D01*
X84426190Y-86907142D01*
X84902380Y-85335714D02*
X84426190Y-85669047D01*
X84902380Y-85907142D02*
X83902380Y-85907142D01*
X83902380Y-85526190D01*
X83950000Y-85430952D01*
X83997619Y-85383333D01*
X84092857Y-85335714D01*
X84235714Y-85335714D01*
X84330952Y-85383333D01*
X84378571Y-85430952D01*
X84426190Y-85526190D01*
X84426190Y-85907142D01*
X84854761Y-84954761D02*
X84902380Y-84811904D01*
X84902380Y-84573809D01*
X84854761Y-84478571D01*
X84807142Y-84430952D01*
X84711904Y-84383333D01*
X84616666Y-84383333D01*
X84521428Y-84430952D01*
X84473809Y-84478571D01*
X84426190Y-84573809D01*
X84378571Y-84764285D01*
X84330952Y-84859523D01*
X84283333Y-84907142D01*
X84188095Y-84954761D01*
X84092857Y-84954761D01*
X83997619Y-84907142D01*
X83950000Y-84859523D01*
X83902380Y-84764285D01*
X83902380Y-84526190D01*
X83950000Y-84383333D01*
M02*
