M48
; DRILL file {KiCad (5.1.10-1-10_14)} date Sunday, June 06, 2021 at 07:22:28 PM
; FORMAT={-:-/ absolute / metric / decimal}
; #@! TF.CreationDate,2021-06-06T19:22:28-07:00
; #@! TF.GenerationSoftware,Kicad,Pcbnew,(5.1.10-1-10_14)
; #@! TF.FileFunction,Plated,1,2,PTH
FMAT,2
METRIC
T1C0.300
T2C0.813
T3C1.000
T4C1.300
T5C1.500
T6C2.200
T7C4.100
%
G90
G05
T1
X80.0Y-79.75
X84.0Y-79.75
X84.3Y-85.25
X84.4Y-87.3
X85.75Y-91.5
X86.15Y-81.55
X86.855Y-129.565
X88.273Y-133.285
X88.9Y-77.55
X90.25Y-104.5
X90.5Y-100.0
X90.65Y-79.8
X90.75Y-77.5
X90.792Y-119.316
X94.1Y-83.6
X94.348Y-124.168
X94.844Y-112.979
X95.0Y-104.5
X95.2Y-91.5
X95.288Y-38.672
X95.4Y-83.55
X95.6Y-96.6
X96.05Y-67.806
X96.1Y-51.39
X96.7Y-67.8
X96.7Y-70.6
X96.9Y-44.966
X96.9Y-48.8
X97.15Y-83.55
X97.7Y-94.0
X98.509Y-126.986
X98.514Y-52.586
X98.687Y-139.889
X98.75Y-76.25
X98.966Y-127.646
X99.2Y-70.6
X99.7Y-134.3
X100.0Y-91.8
X100.076Y-104.254
X100.2Y-122.6
X100.4Y-50.046
X100.4Y-68.8
X101.175Y-125.0
X101.2Y-53.9
X101.438Y-46.469
X101.5Y-70.6
X101.5Y-85.5
X101.874Y-55.126
X101.956Y-38.405
X102.565Y-94.475
X102.675Y-57.666
X102.74Y-125.677
X102.826Y-68.77
X103.1Y-67.9
X103.1Y-139.8
X103.175Y-60.206
X103.25Y-83.0
X103.7Y-62.746
X103.8Y-134.4
X104.3Y-64.575
X104.3Y-70.6
X104.504Y-128.314
X104.6Y-125.2
X104.704Y-86.505
X105.0Y-66.0
X105.133Y-133.974
X105.189Y-122.625
X105.328Y-67.072
X105.4Y-84.0
X105.418Y-130.194
X105.6Y-51.4
X105.6Y-65.2
X105.7Y-56.7
X105.7Y-44.0
X105.7Y-59.0
X105.7Y-61.9
X105.7Y-64.0
X105.7Y-41.6
X105.7Y-54.2
X106.068Y-126.351
X106.25Y-97.0
X106.4Y-87.2
X106.625Y-82.8
X106.7Y-74.7
X107.2Y-134.4
X107.775Y-97.775
X107.937Y-117.297
X108.3Y-132.0
X108.55Y-84.25
X108.6Y-124.3
X109.4Y-87.4
X109.4Y-124.117
X109.512Y-119.762
X110.25Y-48.0
X110.3Y-127.1
X110.445Y-69.104
X110.775Y-89.75
X110.96Y-41.745
X110.985Y-121.235
X111.2Y-74.35
X111.35Y-97.825
X111.403Y-84.25
X111.575Y-62.8
X111.65Y-69.15
X111.725Y-46.525
X111.75Y-88.5
X111.75Y-112.25
X112.0Y-102.25
X112.0Y-103.25
X112.5Y-124.0
X112.7Y-43.713
X112.75Y-75.65
X112.8Y-111.45
X112.9Y-119.525
X113.0Y-59.8
X113.05Y-92.6
X113.1Y-96.9
X113.236Y-67.208
X113.25Y-77.75
X113.868Y-46.418
X113.9Y-137.8
X114.0Y-79.25
X114.176Y-62.687
X114.25Y-113.75
X114.5Y-102.9
X114.75Y-56.5
X115.0Y-83.8
X115.8Y-61.5
X116.0Y-44.5
X116.1Y-119.8
X116.2Y-65.45
X116.275Y-82.256
X116.35Y-83.4
X116.395Y-41.542
X116.4Y-43.45
X116.6Y-59.7
X116.75Y-63.75
X116.85Y-99.7
X116.975Y-101.459
X117.15Y-47.1
X117.5Y-87.5
X117.5Y-104.4
X119.8Y-124.8
X120.0Y-122.2
X120.0Y-125.9
X120.8Y-79.525
X120.91Y-123.82
X121.4Y-97.1
X122.25Y-66.45
X122.733Y-121.733
X122.733Y-123.333
X122.75Y-135.0
X122.774Y-119.02
X122.924Y-65.882
X123.0Y-46.95
X123.5Y-133.5
X123.6Y-104.864
X123.95Y-85.55
X124.45Y-101.5
X124.5Y-44.25
X124.598Y-80.95
X124.6Y-59.5
X124.6Y-63.45
X125.208Y-117.128
X125.25Y-60.4
X125.258Y-118.415
X125.3Y-76.6
X125.3Y-114.45
X125.45Y-44.3
X125.45Y-83.5
X125.45Y-101.5
X125.55Y-95.6
X125.675Y-125.0
X126.75Y-44.6
X126.8Y-59.0
X126.8Y-66.6
X127.45Y-49.0
X127.8Y-76.1
X128.025Y-113.25
X128.2Y-126.0
X128.24Y-62.4
X128.4Y-134.5
X128.5Y-86.9
X128.6Y-131.0
X128.683Y-119.02
X128.75Y-46.4
X129.0Y-124.2
X129.75Y-101.4
X129.78Y-122.098
X130.0Y-43.9
X130.0Y-81.9
X130.161Y-115.418
X130.6Y-74.7
X130.774Y-113.629
X131.0Y-46.15
X131.0Y-65.6
X131.0Y-79.2
X131.55Y-89.9
X131.8Y-70.9
X131.8Y-108.95
X131.8Y-131.4
X132.624Y-130.328
X132.8Y-60.6
X132.975Y-45.304
X133.0Y-78.0
X133.155Y-42.695
X133.25Y-111.3
X133.6Y-58.2
X134.375Y-79.125
X135.0Y-99.2
X135.325Y-60.125
X135.35Y-80.1
X135.5Y-40.575
X135.55Y-41.9
X135.622Y-117.958
X135.65Y-60.95
X135.669Y-118.748
X135.7Y-98.757
X136.588Y-55.453
X137.45Y-45.6
X138.832Y-130.668
X139.4Y-76.1
X140.8Y-132.8
X141.108Y-131.259
X141.311Y-115.011
X142.4Y-102.8
X143.0Y-58.0
X143.0Y-95.4
X143.24Y-41.79
X143.318Y-131.826
X143.35Y-60.95
X143.383Y-118.554
X143.47Y-117.45
X143.6Y-99.05
X143.65Y-79.9
X144.0Y-40.8
X144.05Y-92.525
X144.175Y-60.125
X144.3Y-54.9
X144.3Y-73.9
X144.3Y-111.95
X144.8Y-64.4
X144.9Y-98.9
X144.95Y-79.15
X145.223Y-118.212
X145.4Y-44.0
X146.2Y-131.4
X146.5Y-57.3
X146.533Y-61.062
X146.6Y-46.4
X146.884Y-115.783
X146.9Y-124.1
X147.0Y-64.6
X147.122Y-121.483
X147.371Y-84.328
X147.5Y-82.05
X147.6Y-42.8
X147.788Y-129.354
X148.018Y-78.537
X148.347Y-122.122
X148.5Y-46.1
X148.5Y-52.3
X148.5Y-61.5
X148.5Y-64.7
X148.5Y-95.4
X148.5Y-101.7
X148.5Y-112.3
X149.047Y-92.126
X149.1Y-127.8
X149.25Y-55.94
X149.5Y-107.4
X149.75Y-80.94
X149.796Y-120.015
X149.8Y-73.2
X150.0Y-97.94
X150.25Y-52.265
X150.25Y-61.54
X150.5Y-42.222
X150.55Y-49.64
X150.8Y-87.64
X150.9Y-68.44
X150.9Y-106.54
X151.1Y-111.3
X151.282Y-130.48
X151.362Y-45.677
X151.422Y-82.042
X151.5Y-59.54
X151.511Y-78.308
X151.75Y-63.54
X152.062Y-39.875
X152.07Y-41.62
X152.4Y-113.093
X152.723Y-39.804
X152.817Y-118.136
X153.0Y-109.04
X153.295Y-114.915
X153.6Y-78.04
X153.625Y-52.915
X153.75Y-96.29
X153.8Y-39.29
X154.0Y-111.2
X154.1Y-60.54
X154.3Y-77.79
X154.5Y-53.79
X154.686Y-113.03
X154.719Y-39.4
X154.75Y-58.79
X154.75Y-96.54
X154.799Y-116.078
X155.4Y-92.815
X155.74Y-81.953
X156.807Y-132.27
X157.491Y-128.829
X158.686Y-128.333
X158.75Y-90.04
X159.0Y-53.79
X160.475Y-80.44
X161.0Y-41.375
X161.45Y-94.69
X161.65Y-60.89
X162.169Y-77.468
X162.25Y-53.79
X162.3Y-58.74
X162.494Y-114.387
X162.5Y-39.54
X162.6Y-115.7
X162.636Y-42.596
X162.65Y-54.59
X162.7Y-96.49
X162.95Y-59.59
X163.2Y-77.24
X163.3Y-90.64
X163.4Y-71.44
X163.4Y-109.54
X163.5Y-117.7
X163.511Y-112.581
X163.614Y-130.975
X163.85Y-39.89
X165.0Y-78.54
X165.0Y-81.54
X165.2Y-110.9
X165.25Y-52.19
X165.37Y-38.37
X165.7Y-72.9
X165.7Y-76.7
X165.75Y-56.79
X165.8Y-63.1
X165.9Y-128.3
X165.95Y-113.631
X166.1Y-120.4
X166.425Y-98.715
X166.425Y-111.865
X166.6Y-59.8
X166.65Y-55.94
X166.929Y-42.57
X167.188Y-126.421
X167.325Y-78.115
X167.325Y-91.715
X167.5Y-114.3
X167.6Y-121.7
X167.75Y-38.44
X167.8Y-62.5
X167.803Y-111.862
X167.894Y-37.44
X168.5Y-67.8
X168.5Y-128.1
X168.6Y-40.8
X168.6Y-126.4
X168.75Y-93.625
X168.9Y-75.9
X169.012Y-42.494
X169.05Y-56.85
X169.243Y-38.357
X169.25Y-45.15
X169.25Y-46.15
X169.25Y-98.9
X169.7Y-79.6
X169.75Y-86.65
X169.8Y-120.3
X169.9Y-51.85
X169.9Y-70.85
X169.9Y-89.95
X169.9Y-109.05
X170.0Y-94.675
X170.4Y-132.6
X170.48Y-81.65
X170.487Y-66.412
X170.775Y-61.875
X170.8Y-117.8
X171.969Y-115.265
X172.6Y-43.1
X172.682Y-58.877
X172.771Y-38.938
X172.782Y-117.399
X172.8Y-78.2
X173.0Y-42.15
X173.0Y-99.9
X173.1Y-81.25
X173.475Y-61.875
X173.5Y-80.35
X173.5Y-99.15
X173.7Y-61.1
X173.78Y-111.625
X173.806Y-42.086
X173.823Y-118.288
X174.6Y-44.6
X175.0Y-64.65
X175.15Y-63.05
X175.25Y-83.425
X176.45Y-82.9
X176.8Y-50.349
X177.0Y-76.2
X177.203Y-57.429
X177.303Y-130.988
X178.065Y-131.623
X180.25Y-44.6
X181.113Y-120.244
X181.2Y-117.425
X181.25Y-98.9
X181.5Y-39.9
X181.55Y-61.1
X181.6Y-80.3
X181.7Y-43.2
X181.773Y-118.263
X181.879Y-111.029
X181.975Y-60.125
X182.0Y-79.65
X182.381Y-99.069
X182.4Y-54.85
X182.4Y-73.85
X182.4Y-92.95
X182.95Y-61.132
X183.25Y-64.9
X183.25Y-81.65
X183.5Y-83.65
X183.577Y-118.11
X184.302Y-131.94
X184.6Y-62.8
X184.634Y-112.309
X185.0Y-123.5
X185.35Y-65.95
X185.4Y-82.15
X185.45Y-59.4
X185.65Y-78.0
X185.7Y-54.75
X186.0Y-94.4
X186.15Y-40.9
X186.5Y-72.15
X186.925Y-110.225
X187.0Y-89.0
X187.25Y-81.65
X187.25Y-86.65
X187.6Y-94.0
X187.6Y-123.5
X188.0Y-46.5
X188.0Y-49.75
X188.0Y-50.75
X188.25Y-67.5
X188.3Y-70.95
X188.5Y-88.25
X188.5Y-91.75
X188.7Y-76.55
X188.822Y-120.13
X189.0Y-62.6
X189.0Y-113.85
X189.078Y-128.346
X189.275Y-57.25
X189.387Y-105.862
X189.437Y-63.75
X189.5Y-65.0
X189.5Y-67.55
X189.95Y-118.65
X190.0Y-89.0
X190.15Y-64.3
X190.4Y-45.25
X190.4Y-97.8
X190.5Y-83.15
X190.6Y-105.0
X190.85Y-77.9
X190.95Y-61.4
X191.298Y-119.914
X191.475Y-63.7
X191.549Y-49.051
X191.75Y-85.1
X192.0Y-105.6
X192.1Y-104.0
X192.375Y-100.925
X192.532Y-61.849
X192.7Y-84.95
X192.8Y-46.75
X192.926Y-40.627
X193.0Y-66.0
X193.012Y-44.737
X193.035Y-103.965
X193.276Y-116.984
X193.3Y-63.925
X193.4Y-88.8
X193.6Y-79.8
X196.4Y-98.05
X198.25Y-107.175
X198.875Y-69.7
X199.1Y-48.825
X199.771Y-87.35
X200.1Y-100.4
X200.2Y-107.8
X200.6Y-84.65
X200.65Y-68.35
X200.65Y-66.025
X200.75Y-47.0
X200.75Y-85.75
X200.75Y-103.75
X200.95Y-69.7
X201.056Y-67.444
X201.272Y-97.463
X201.4Y-61.25
X201.5Y-78.65
X201.5Y-104.25
X201.75Y-47.8
X201.797Y-97.159
X202.005Y-115.899
X202.12Y-60.96
X202.25Y-101.0
X202.565Y-67.31
X202.6Y-107.8
X203.2Y-87.185
X203.6Y-110.0
X203.8Y-53.2
X203.848Y-78.791
X204.0Y-71.75
X204.5Y-52.05
X204.699Y-45.529
X204.762Y-86.385
X204.837Y-82.5
X205.1Y-118.7
X205.8Y-104.0
X205.994Y-44.374
X206.175Y-66.675
X206.2Y-115.7
X206.5Y-65.5
X206.629Y-96.101
X206.743Y-114.605
X206.75Y-48.25
X206.781Y-42.494
X206.825Y-84.5
X207.058Y-103.274
X207.2Y-108.8
X207.34Y-44.374
X207.721Y-80.67
X207.75Y-53.0
X207.75Y-70.5
X207.75Y-89.25
X208.0Y-108.6
X208.001Y-43.586
X208.05Y-113.85
X208.25Y-75.85
X209.0Y-121.75
X209.25Y-45.5
X209.35Y-67.6
X209.45Y-64.25
X209.75Y-97.5
X209.8Y-44.4
X209.8Y-48.0
X209.804Y-88.176
X209.906Y-100.698
X210.0Y-116.5
X210.833Y-43.18
X210.875Y-85.875
X210.934Y-60.554
X210.951Y-66.95
X211.379Y-48.652
X211.4Y-46.4
X211.625Y-104.875
X211.65Y-66.1
X211.836Y-69.609
X211.963Y-88.176
X212.0Y-47.0
X212.0Y-85.0
X212.25Y-104.05
X212.5Y-81.0
X212.8Y-49.0
X212.8Y-50.8
X213.9Y-118.7
X214.655Y-60.291
X215.049Y-61.773
X215.8Y-101.1
X216.0Y-77.975
X217.0Y-81.0
X217.322Y-61.608
X217.6Y-119.0
X218.351Y-69.647
X218.4Y-44.4
X218.542Y-88.684
X218.846Y-107.912
X219.4Y-47.0
X219.425Y-103.125
X219.519Y-65.849
X219.75Y-84.75
X219.8Y-80.2
X220.175Y-104.875
X220.2Y-66.65
X220.4Y-47.8
X220.409Y-49.886
X220.434Y-62.065
X220.5Y-59.75
X220.55Y-78.475
X220.562Y-83.212
X220.75Y-97.75
X220.8Y-68.4
X220.9Y-88.1
X221.2Y-107.0
X222.212Y-44.971
X222.4Y-105.4
X222.923Y-52.451
X223.0Y-48.4
X223.0Y-64.8
X223.2Y-68.6
X223.2Y-101.4
X223.4Y-79.0
X223.5Y-85.8
X223.685Y-57.201
X224.0Y-117.2
X224.2Y-110.0
T2
X88.7Y-74.6
X91.24Y-74.6
X92.18Y-41.23
X92.18Y-43.77
X92.18Y-46.31
X92.18Y-48.85
X92.18Y-51.39
X92.18Y-53.93
X92.18Y-56.47
X92.18Y-59.01
X92.18Y-61.55
X92.18Y-64.09
X92.18Y-66.63
X92.18Y-69.17
X93.479Y-42.426
X93.479Y-44.966
X93.479Y-47.506
X93.479Y-50.046
X93.479Y-52.586
X93.479Y-55.126
X93.479Y-57.666
X93.479Y-60.206
X93.479Y-62.746
X93.479Y-65.286
X93.479Y-67.826
X93.479Y-70.366
X93.499Y-78.062
X93.499Y-80.312
X93.78Y-74.6
X96.32Y-74.6
X98.579Y-78.062
X98.579Y-80.312
X102.7Y-78.1
X102.7Y-80.3
X107.42Y-41.23
X107.42Y-43.77
X107.42Y-46.31
X107.42Y-48.85
X107.42Y-51.39
X107.42Y-53.93
X107.42Y-56.47
X107.42Y-59.01
X107.42Y-61.55
X107.42Y-64.09
X107.42Y-66.63
X107.42Y-69.17
X108.719Y-42.426
X108.719Y-44.966
X108.719Y-47.506
X108.719Y-50.046
X108.719Y-52.586
X108.719Y-55.126
X108.719Y-57.666
X108.719Y-60.206
X108.719Y-62.746
X108.719Y-65.286
X108.719Y-67.826
X108.719Y-70.366
T3
X92.5Y-102.0
X92.5Y-104.5
X92.5Y-107.0
X107.0Y-102.0
X107.0Y-107.0
X107.9Y-76.0
X107.9Y-78.6
X107.9Y-81.1
X112.5Y-80.5
X112.5Y-83.0
X112.5Y-85.6
X176.327Y-114.707
X178.827Y-114.707
X181.427Y-114.707
X185.5Y-96.05
X185.5Y-98.65
X185.5Y-101.15
T4
X82.0Y-72.25
X82.0Y-78.75
T6
X84.5Y-42.75
X105.75Y-91.75
T7
X103.0Y-119.0
X130.0Y-57.0
X130.0Y-97.5
X206.0Y-61.5
X206.0Y-100.0
T3
G00X81.05Y-83.2
M15
G01X81.55Y-83.2
M16
G05
G00X81.05Y-89.15
M15
G01X81.55Y-89.15
M16
G05
G00X84.05Y-83.2
M15
G01X84.55Y-83.2
M16
G05
G00X84.05Y-89.15
M15
G01X84.55Y-89.15
M16
G05
G00X88.05Y-83.2
M15
G01X88.55Y-83.2
M16
G05
G00X88.05Y-89.15
M15
G01X88.55Y-89.15
M16
G05
G00X89.55Y-84.95
M15
G01X90.05Y-84.95
M16
G05
G00X89.55Y-87.4
M15
G01X90.05Y-87.4
M16
G05
T5
G00X99.35Y-98.9
M15
G01X100.65Y-98.9
M16
G05
G00X99.35Y-110.1
M15
G01X100.65Y-110.1
M16
G05
T0
M30
