  0
SECTION
  2
HEADER
  9
$ANGBASE
  50
0.0
  9
$ANGDIR
  70
1
  9
$MEASUREMENT
  70
1
  0
ENDSEC
  0
SECTION
  2
TABLES
  0
TABLE
  2
LTYPE
  70
4
  0
LTYPE
  5
40F
  2
CONTINUOUS
  70
0
  3
Solid line
  72
65
  73
0
  40
0.0
  0
LTYPE
  5
410
  2
DASHDOT
 70
0
  3
Dash Dot ____ _ ____ _
 72
65
 73
4
 40
2.0
 49
1.25
 49
-0.25
 49
0.25
 49
-0.25
  0
LTYPE
  5
411
  2
DASHED
 70
0
  3
Dashed __ __ __ __ __
 72
65
 73
2
 40
0.75
 49
0.5
 49
-0.25
  0
LTYPE
  5
43B
  2
DOTTED
 70
0
  3
Dotted .  .  .  .
 72
65
 73
2
 40
0.2
 49
0.0
 49
-0.2
  0
ENDTAB
  0
TABLE
  2
STYLE
  70
4
  0
STYLE
  2
KICAD
  70
0
  40
0
  41
1
  42
1
  50
0
  71
0
  3
isocp.shx
  0
STYLE
  2
KICADB
  70
0
  40
0
  41
1
  42
1
  50
0
  71
0
  3
isocp.shx
  0
STYLE
  2
KICADI
  70
0
  40
0
  41
1
  42
1
  50
15
  71
0
  3
isocp.shx
  0
STYLE
  2
KICADBI
  70
0
  40
0
  41
1
  42
1
  50
15
  71
0
  3
isocp.shx
  0
ENDTAB
  0
TABLE
  2
LAYER
  70
1
  0
LAYER
  2
BLACK
  70
0
  62
7
  6
CONTINUOUS
  0
ENDTAB
  0
ENDSEC
  0
SECTION
  2
ENTITIES
0
LINE
8
BLACK
6
CONTINUOUS
10
90.0777
20
-97.7485
11
90.0844
21
-97.7472
0
LINE
8
BLACK
6
CONTINUOUS
10
90.0844
20
-97.7472
11
90.0911
21
-97.7458
0
LINE
8
BLACK
6
CONTINUOUS
10
90.0911
20
-97.7458
11
90.2852
21
-97.7254
0
LINE
8
BLACK
6
CONTINUOUS
10
90.2852
20
-97.7254
11
90.2862
21
-97.7253
0
LINE
8
BLACK
6
CONTINUOUS
10
90.2862
20
-97.7253
11
90.2895
21
-97.7254
0
LINE
8
BLACK
6
CONTINUOUS
10
90.2895
20
-97.7254
11
90.2928
21
-97.725
0
LINE
8
BLACK
6
CONTINUOUS
10
90.2928
20
-97.725
11
90.2962
21
-97.725
0
LINE
8
BLACK
6
CONTINUOUS
10
90.2962
20
-97.725
11
90.2963
21
-97.725
0
LINE
8
BLACK
6
CONTINUOUS
10
90.2963
20
-97.725
11
110.995
21
-97.725
0
LINE
8
BLACK
6
CONTINUOUS
10
110.995
20
-97.725
11
110.998
21
-97.725
0
LINE
8
BLACK
6
CONTINUOUS
10
110.998
20
-97.725
11
111.181
21
-97.7058
0
LINE
8
BLACK
6
CONTINUOUS
10
111.181
20
-97.7058
11
111.353
21
-97.6524
0
LINE
8
BLACK
6
CONTINUOUS
10
111.353
20
-97.6524
11
111.512
21
-97.5666
0
LINE
8
BLACK
6
CONTINUOUS
10
111.512
20
-97.5666
11
111.651
21
-97.4515
0
LINE
8
BLACK
6
CONTINUOUS
10
111.651
20
-97.4515
11
111.765
21
-97.3117
0
LINE
8
BLACK
6
CONTINUOUS
10
111.765
20
-97.3117
11
111.85
21
-97.1524
0
LINE
8
BLACK
6
CONTINUOUS
10
111.85
20
-97.1524
11
111.902
21
-96.9796
0
LINE
8
BLACK
6
CONTINUOUS
10
111.902
20
-96.9796
11
111.92
21
-96.7963
0
LINE
8
BLACK
6
CONTINUOUS
10
111.92
20
-96.7963
11
111.92
21
-39.0454
0
LINE
8
BLACK
6
CONTINUOUS
10
111.92
20
-39.0454
11
111.92
21
-39.0385
0
LINE
8
BLACK
6
CONTINUOUS
10
111.92
20
-39.0385
11
111.921
21
-39.0344
0
LINE
8
BLACK
6
CONTINUOUS
10
111.921
20
-39.0344
11
111.921
21
-39.0303
0
LINE
8
BLACK
6
CONTINUOUS
10
111.921
20
-39.0303
11
111.923
21
-39.0238
0
LINE
8
BLACK
6
CONTINUOUS
10
111.923
20
-39.0238
11
112.021
21
-38.6858
0
LINE
8
BLACK
6
CONTINUOUS
10
112.021
20
-38.6858
11
112.021
21
-38.6854
0
LINE
8
BLACK
6
CONTINUOUS
10
112.021
20
-38.6854
11
112.023
21
-38.6788
0
LINE
8
BLACK
6
CONTINUOUS
10
112.023
20
-38.6788
11
112.024
21
-38.6756
0
LINE
8
BLACK
6
CONTINUOUS
10
112.024
20
-38.6756
11
112.024
21
-38.6752
0
LINE
8
BLACK
6
CONTINUOUS
10
112.024
20
-38.6752
11
112.025
21
-38.6712
0
LINE
8
BLACK
6
CONTINUOUS
10
112.025
20
-38.6712
11
112.027
21
-38.6683
0
LINE
8
BLACK
6
CONTINUOUS
10
112.027
20
-38.6683
11
112.028
21
-38.6653
0
LINE
8
BLACK
6
CONTINUOUS
10
112.028
20
-38.6653
11
112.03
21
-38.6618
0
LINE
8
BLACK
6
CONTINUOUS
10
112.03
20
-38.6618
11
112.031
21
-38.6615
0
LINE
8
BLACK
6
CONTINUOUS
10
112.031
20
-38.6615
11
112.032
21
-38.6587
0
LINE
8
BLACK
6
CONTINUOUS
10
112.032
20
-38.6587
11
112.036
21
-38.6529
0
LINE
8
BLACK
6
CONTINUOUS
10
112.036
20
-38.6529
11
112.036
21
-38.6526
0
LINE
8
BLACK
6
CONTINUOUS
10
112.036
20
-38.6526
11
112.231
21
-38.3614
0
LINE
8
BLACK
6
CONTINUOUS
10
112.231
20
-38.3614
11
112.232
21
-38.3581
0
LINE
8
BLACK
6
CONTINUOUS
10
112.232
20
-38.3581
11
112.236
21
-38.3533
0
LINE
8
BLACK
6
CONTINUOUS
10
112.236
20
-38.3533
11
112.242
21
-38.3468
0
LINE
8
BLACK
6
CONTINUOUS
10
112.242
20
-38.3468
11
112.245
21
-38.3444
0
LINE
8
BLACK
6
CONTINUOUS
10
112.245
20
-38.3444
11
112.437
21
-38.1515
0
LINE
8
BLACK
6
CONTINUOUS
10
112.437
20
-38.1515
11
112.438
21
-38.1506
0
LINE
8
BLACK
6
CONTINUOUS
10
112.438
20
-38.1506
11
112.443
21
-38.1463
0
LINE
8
BLACK
6
CONTINUOUS
10
112.443
20
-38.1463
11
112.445
21
-38.1444
0
LINE
8
BLACK
6
CONTINUOUS
10
112.445
20
-38.1444
11
112.445
21
-38.1437
0
LINE
8
BLACK
6
CONTINUOUS
10
112.445
20
-38.1437
11
112.449
21
-38.1405
0
LINE
8
BLACK
6
CONTINUOUS
10
112.449
20
-38.1405
11
112.451
21
-38.139
0
LINE
8
BLACK
6
CONTINUOUS
10
112.451
20
-38.139
11
112.453
21
-38.1373
0
LINE
8
BLACK
6
CONTINUOUS
10
112.453
20
-38.1373
11
112.457
21
-38.1351
0
LINE
8
BLACK
6
CONTINUOUS
10
112.457
20
-38.1351
11
112.458
21
-38.1346
0
LINE
8
BLACK
6
CONTINUOUS
10
112.458
20
-38.1346
11
112.461
21
-38.1334
0
LINE
8
BLACK
6
CONTINUOUS
10
112.461
20
-38.1334
11
112.466
21
-38.1304
0
LINE
8
BLACK
6
CONTINUOUS
10
112.466
20
-38.1304
11
112.467
21
-38.1301
0
LINE
8
BLACK
6
CONTINUOUS
10
112.467
20
-38.1301
11
112.656
21
-38.0355
0
LINE
8
BLACK
6
CONTINUOUS
10
112.656
20
-38.0355
11
112.658
21
-38.0345
0
LINE
8
BLACK
6
CONTINUOUS
10
112.658
20
-38.0345
11
112.663
21
-38.0322
0
LINE
8
BLACK
6
CONTINUOUS
10
112.663
20
-38.0322
11
112.665
21
-38.0313
0
LINE
8
BLACK
6
CONTINUOUS
10
112.665
20
-38.0313
11
112.666
21
-38.0307
0
LINE
8
BLACK
6
CONTINUOUS
10
112.666
20
-38.0307
11
112.668
21
-38.03
0
LINE
8
BLACK
6
CONTINUOUS
10
112.668
20
-38.03
11
112.67
21
-38.0294
0
LINE
8
BLACK
6
CONTINUOUS
10
112.67
20
-38.0294
11
112.675
21
-38.0273
0
LINE
8
BLACK
6
CONTINUOUS
10
112.675
20
-38.0273
11
112.677
21
-38.027
0
LINE
8
BLACK
6
CONTINUOUS
10
112.677
20
-38.027
11
112.971
21
-37.9291
0
LINE
8
BLACK
6
CONTINUOUS
10
112.971
20
-37.9291
11
112.973
21
-37.9281
0
LINE
8
BLACK
6
CONTINUOUS
10
112.973
20
-37.9281
11
112.974
21
-37.9279
0
LINE
8
BLACK
6
CONTINUOUS
10
112.974
20
-37.9279
11
112.975
21
-37.9277
0
LINE
8
BLACK
6
CONTINUOUS
10
112.975
20
-37.9277
11
112.978
21
-37.9271
0
LINE
8
BLACK
6
CONTINUOUS
10
112.978
20
-37.9271
11
113.38
21
-37.8263
0
LINE
8
BLACK
6
CONTINUOUS
10
113.38
20
-37.8263
11
113.391
21
-37.8247
0
LINE
8
BLACK
6
CONTINUOUS
10
113.391
20
-37.8247
11
113.406
21
-37.8255
0
LINE
8
BLACK
6
CONTINUOUS
10
113.406
20
-37.8255
11
113.42
21
-37.8291
0
LINE
8
BLACK
6
CONTINUOUS
10
113.42
20
-37.8291
11
113.434
21
-37.8354
0
LINE
8
BLACK
6
CONTINUOUS
10
113.434
20
-37.8354
11
113.446
21
-37.8442
0
LINE
8
BLACK
6
CONTINUOUS
10
113.446
20
-37.8442
11
113.449
21
-37.8478
0
LINE
8
BLACK
6
CONTINUOUS
10
113.449
20
-37.8478
11
149.992
21
-36.3951
0
LINE
8
BLACK
6
CONTINUOUS
10
149.992
20
-36.3951
11
149.993
21
-36.395
0
LINE
8
BLACK
6
CONTINUOUS
10
149.993
20
-36.395
11
149.994
21
-36.395
0
LINE
8
BLACK
6
CONTINUOUS
10
149.994
20
-36.395
11
149.995
21
-36.3949
0
LINE
8
BLACK
6
CONTINUOUS
10
149.995
20
-36.3949
11
149.996
21
-36.395
0
LINE
8
BLACK
6
CONTINUOUS
10
149.996
20
-36.395
11
171.942
21
-36.395
0
LINE
8
BLACK
6
CONTINUOUS
10
171.942
20
-36.395
11
171.943
21
-36.3948
0
LINE
8
BLACK
6
CONTINUOUS
10
171.943
20
-36.3948
11
171.946
21
-36.395
0
LINE
8
BLACK
6
CONTINUOUS
10
171.946
20
-36.395
11
171.947
21
-36.395
0
LINE
8
BLACK
6
CONTINUOUS
10
171.947
20
-36.395
11
171.949
21
-36.3951
0
LINE
8
BLACK
6
CONTINUOUS
10
171.949
20
-36.3951
11
171.95
21
-36.3952
0
LINE
8
BLACK
6
CONTINUOUS
10
171.95
20
-36.3952
11
171.951
21
-36.3954
0
LINE
8
BLACK
6
CONTINUOUS
10
171.951
20
-36.3954
11
171.955
21
-36.3957
0
LINE
8
BLACK
6
CONTINUOUS
10
171.955
20
-36.3957
11
171.956
21
-36.3961
0
LINE
8
BLACK
6
CONTINUOUS
10
171.956
20
-36.3961
11
225.479
21
-44.8408
0
LINE
8
BLACK
6
CONTINUOUS
10
225.479
20
-44.8408
11
225.48
21
-44.8411
0
LINE
8
BLACK
6
CONTINUOUS
10
225.48
20
-44.8411
11
225.481
21
-44.8411
0
LINE
8
BLACK
6
CONTINUOUS
10
225.481
20
-44.8411
11
225.481
21
-44.8411
0
LINE
8
BLACK
6
CONTINUOUS
10
225.481
20
-44.8411
11
225.483
21
-44.8418
0
LINE
8
BLACK
6
CONTINUOUS
10
225.483
20
-44.8418
11
225.682
21
-44.8926
0
LINE
8
BLACK
6
CONTINUOUS
10
225.682
20
-44.8926
11
225.684
21
-44.8929
0
LINE
8
BLACK
6
CONTINUOUS
10
225.684
20
-44.8929
11
225.686
21
-44.8938
0
LINE
8
BLACK
6
CONTINUOUS
10
225.686
20
-44.8938
11
225.687
21
-44.8939
0
LINE
8
BLACK
6
CONTINUOUS
10
225.687
20
-44.8939
11
225.689
21
-44.8947
0
LINE
8
BLACK
6
CONTINUOUS
10
225.689
20
-44.8947
11
225.691
21
-44.8953
0
LINE
8
BLACK
6
CONTINUOUS
10
225.691
20
-44.8953
11
225.691
21
-44.8955
0
LINE
8
BLACK
6
CONTINUOUS
10
225.691
20
-44.8955
11
225.694
21
-44.8965
0
LINE
8
BLACK
6
CONTINUOUS
10
225.694
20
-44.8965
11
225.696
21
-44.8975
0
LINE
8
BLACK
6
CONTINUOUS
10
225.696
20
-44.8975
11
225.875
21
-44.9798
0
LINE
8
BLACK
6
CONTINUOUS
10
225.875
20
-44.9798
11
225.877
21
-44.9804
0
LINE
8
BLACK
6
CONTINUOUS
10
225.877
20
-44.9804
11
225.879
21
-44.9818
0
LINE
8
BLACK
6
CONTINUOUS
10
225.879
20
-44.9818
11
225.88
21
-44.982
0
LINE
8
BLACK
6
CONTINUOUS
10
225.88
20
-44.982
11
225.882
21
-44.983
0
LINE
8
BLACK
6
CONTINUOUS
10
225.882
20
-44.983
11
225.883
21
-44.984
0
LINE
8
BLACK
6
CONTINUOUS
10
225.883
20
-44.984
11
225.884
21
-44.9843
0
LINE
8
BLACK
6
CONTINUOUS
10
225.884
20
-44.9843
11
225.886
21
-44.9858
0
LINE
8
BLACK
6
CONTINUOUS
10
225.886
20
-44.9858
11
225.888
21
-44.9871
0
LINE
8
BLACK
6
CONTINUOUS
10
225.888
20
-44.9871
11
226.048
21
-45.0978
0
LINE
8
BLACK
6
CONTINUOUS
10
226.048
20
-45.0978
11
226.049
21
-45.0987
0
LINE
8
BLACK
6
CONTINUOUS
10
226.049
20
-45.0987
11
226.052
21
-45.1006
0
LINE
8
BLACK
6
CONTINUOUS
10
226.052
20
-45.1006
11
226.052
21
-45.1009
0
LINE
8
BLACK
6
CONTINUOUS
10
226.052
20
-45.1009
11
226.054
21
-45.1021
0
LINE
8
BLACK
6
CONTINUOUS
10
226.054
20
-45.1021
11
226.055
21
-45.1033
0
LINE
8
BLACK
6
CONTINUOUS
10
226.055
20
-45.1033
11
226.055
21
-45.1037
0
LINE
8
BLACK
6
CONTINUOUS
10
226.055
20
-45.1037
11
226.058
21
-45.1057
0
LINE
8
BLACK
6
CONTINUOUS
10
226.058
20
-45.1057
11
226.059
21
-45.1072
0
LINE
8
BLACK
6
CONTINUOUS
10
226.059
20
-45.1072
11
226.196
21
-45.2429
0
LINE
8
BLACK
6
CONTINUOUS
10
226.196
20
-45.2429
11
226.198
21
-45.244
0
LINE
8
BLACK
6
CONTINUOUS
10
226.198
20
-45.244
11
226.2
21
-45.2463
0
LINE
8
BLACK
6
CONTINUOUS
10
226.2
20
-45.2463
11
226.2
21
-45.2467
0
LINE
8
BLACK
6
CONTINUOUS
10
226.2
20
-45.2467
11
226.201
21
-45.2482
0
LINE
8
BLACK
6
CONTINUOUS
10
226.201
20
-45.2482
11
226.203
21
-45.2496
0
LINE
8
BLACK
6
CONTINUOUS
10
226.203
20
-45.2496
11
226.203
21
-45.2501
0
LINE
8
BLACK
6
CONTINUOUS
10
226.203
20
-45.2501
11
226.205
21
-45.2524
0
LINE
8
BLACK
6
CONTINUOUS
10
226.205
20
-45.2524
11
226.206
21
-45.2541
0
LINE
8
BLACK
6
CONTINUOUS
10
226.206
20
-45.2541
11
226.318
21
-45.4113
0
LINE
8
BLACK
6
CONTINUOUS
10
226.318
20
-45.4113
11
226.319
21
-45.4127
0
LINE
8
BLACK
6
CONTINUOUS
10
226.319
20
-45.4127
11
226.321
21
-45.4153
0
LINE
8
BLACK
6
CONTINUOUS
10
226.321
20
-45.4153
11
226.321
21
-45.4158
0
LINE
8
BLACK
6
CONTINUOUS
10
226.321
20
-45.4158
11
226.322
21
-45.4174
0
LINE
8
BLACK
6
CONTINUOUS
10
226.322
20
-45.4174
11
226.323
21
-45.419
0
LINE
8
BLACK
6
CONTINUOUS
10
226.323
20
-45.419
11
226.323
21
-45.4196
0
LINE
8
BLACK
6
CONTINUOUS
10
226.323
20
-45.4196
11
226.325
21
-45.4222
0
LINE
8
BLACK
6
CONTINUOUS
10
226.325
20
-45.4222
11
226.325
21
-45.424
0
LINE
8
BLACK
6
CONTINUOUS
10
226.325
20
-45.424
11
226.409
21
-45.5995
0
LINE
8
BLACK
6
CONTINUOUS
10
226.409
20
-45.5995
11
226.41
21
-45.6011
0
LINE
8
BLACK
6
CONTINUOUS
10
226.41
20
-45.6011
11
226.411
21
-45.6039
0
LINE
8
BLACK
6
CONTINUOUS
10
226.411
20
-45.6039
11
226.411
21
-45.6043
0
LINE
8
BLACK
6
CONTINUOUS
10
226.411
20
-45.6043
11
226.412
21
-45.6062
0
LINE
8
BLACK
6
CONTINUOUS
10
226.412
20
-45.6062
11
226.413
21
-45.608
0
LINE
8
BLACK
6
CONTINUOUS
10
226.413
20
-45.608
11
226.413
21
-45.6085
0
LINE
8
BLACK
6
CONTINUOUS
10
226.413
20
-45.6085
11
226.414
21
-45.6113
0
LINE
8
BLACK
6
CONTINUOUS
10
226.414
20
-45.6113
11
226.414
21
-45.6132
0
LINE
8
BLACK
6
CONTINUOUS
10
226.414
20
-45.6132
11
226.467
21
-45.8035
0
LINE
8
BLACK
6
CONTINUOUS
10
226.467
20
-45.8035
11
226.468
21
-45.8054
0
LINE
8
BLACK
6
CONTINUOUS
10
226.468
20
-45.8054
11
226.468
21
-45.8082
0
LINE
8
BLACK
6
CONTINUOUS
10
226.468
20
-45.8082
11
226.468
21
-45.8086
0
LINE
8
BLACK
6
CONTINUOUS
10
226.468
20
-45.8086
11
226.469
21
-45.8106
0
LINE
8
BLACK
6
CONTINUOUS
10
226.469
20
-45.8106
11
226.469
21
-45.8126
0
LINE
8
BLACK
6
CONTINUOUS
10
226.469
20
-45.8126
11
226.469
21
-45.813
0
LINE
8
BLACK
6
CONTINUOUS
10
226.469
20
-45.813
11
226.469
21
-45.8159
0
LINE
8
BLACK
6
CONTINUOUS
10
226.469
20
-45.8159
11
226.469
21
-45.8179
0
LINE
8
BLACK
6
CONTINUOUS
10
226.469
20
-45.8179
11
226.488
21
-46.0222
0
LINE
8
BLACK
6
CONTINUOUS
10
226.488
20
-46.0222
11
226.488
21
-46.0244
0
LINE
8
BLACK
6
CONTINUOUS
10
226.488
20
-46.0244
11
226.488
21
-46.0246
0
LINE
8
BLACK
6
CONTINUOUS
10
226.488
20
-46.0246
11
226.488
21
-46.0248
0
LINE
8
BLACK
6
CONTINUOUS
10
226.488
20
-46.0248
11
226.488
21
-46.0269
0
LINE
8
BLACK
6
CONTINUOUS
10
226.488
20
-46.0269
11
226.515
21
-120.889
0
LINE
8
BLACK
6
CONTINUOUS
10
226.515
20
-120.889
11
226.52
21
-120.893
0
LINE
8
BLACK
6
CONTINUOUS
10
226.52
20
-120.893
11
226.529
21
-120.905
0
LINE
8
BLACK
6
CONTINUOUS
10
226.529
20
-120.905
11
226.536
21
-120.918
0
LINE
8
BLACK
6
CONTINUOUS
10
226.536
20
-120.918
11
226.539
21
-120.932
0
LINE
8
BLACK
6
CONTINUOUS
10
226.539
20
-120.932
11
226.541
21
-120.947
0
LINE
8
BLACK
6
CONTINUOUS
10
226.541
20
-120.947
11
226.539
21
-120.962
0
LINE
8
BLACK
6
CONTINUOUS
10
226.539
20
-120.962
11
226.534
21
-120.976
0
LINE
8
BLACK
6
CONTINUOUS
10
226.534
20
-120.976
11
226.527
21
-120.989
0
LINE
8
BLACK
6
CONTINUOUS
10
226.527
20
-120.989
11
226.517
21
-121
0
LINE
8
BLACK
6
CONTINUOUS
10
226.517
20
-121
11
226.505
21
-121.009
0
LINE
8
BLACK
6
CONTINUOUS
10
226.505
20
-121.009
11
226.495
21
-121.014
0
LINE
8
BLACK
6
CONTINUOUS
10
226.495
20
-121.014
11
188.518
21
-135.516
0
LINE
8
BLACK
6
CONTINUOUS
10
188.518
20
-135.516
11
188.508
21
-135.519
0
LINE
8
BLACK
6
CONTINUOUS
10
188.508
20
-135.519
11
188.493
21
-135.52
0
LINE
8
BLACK
6
CONTINUOUS
10
188.493
20
-135.52
11
188.478
21
-135.518
0
LINE
8
BLACK
6
CONTINUOUS
10
188.478
20
-135.518
11
188.464
21
-135.514
0
LINE
8
BLACK
6
CONTINUOUS
10
188.464
20
-135.514
11
188.451
21
-135.506
0
LINE
8
BLACK
6
CONTINUOUS
10
188.451
20
-135.506
11
188.44
21
-135.497
0
LINE
8
BLACK
6
CONTINUOUS
10
188.44
20
-135.497
11
188.439
21
-135.495
0
LINE
8
BLACK
6
CONTINUOUS
10
188.439
20
-135.495
11
139.156
21
-135.495
0
LINE
8
BLACK
6
CONTINUOUS
10
139.156
20
-135.495
11
94.9095
21
-148.243
0
LINE
8
BLACK
6
CONTINUOUS
10
94.9095
20
-148.243
11
94.9056
21
-148.244
0
LINE
8
BLACK
6
CONTINUOUS
10
94.9056
20
-148.244
11
94.9024
21
-148.244
0
LINE
8
BLACK
6
CONTINUOUS
10
94.9024
20
-148.244
11
94.8992
21
-148.245
0
LINE
8
BLACK
6
CONTINUOUS
10
94.8992
20
-148.245
11
94.8975
21
-148.245
0
LINE
8
BLACK
6
CONTINUOUS
10
94.8975
20
-148.245
11
94.8958
21
-148.245
0
LINE
8
BLACK
6
CONTINUOUS
10
94.8958
20
-148.245
11
94.8926
21
-148.245
0
LINE
8
BLACK
6
CONTINUOUS
10
94.8926
20
-148.245
11
94.8894
21
-148.245
0
LINE
8
BLACK
6
CONTINUOUS
10
94.8894
20
-148.245
11
94.8853
21
-148.244
0
LINE
8
BLACK
6
CONTINUOUS
10
94.8853
20
-148.244
11
94.3398
21
-148.145
0
LINE
8
BLACK
6
CONTINUOUS
10
94.3398
20
-148.145
11
94.3387
21
-148.145
0
LINE
8
BLACK
6
CONTINUOUS
10
94.3387
20
-148.145
11
94.335
21
-148.144
0
LINE
8
BLACK
6
CONTINUOUS
10
94.335
20
-148.144
11
94.3336
21
-148.144
0
LINE
8
BLACK
6
CONTINUOUS
10
94.3336
20
-148.144
11
94.3326
21
-148.143
0
LINE
8
BLACK
6
CONTINUOUS
10
94.3326
20
-148.143
11
94.3315
21
-148.143
0
LINE
8
BLACK
6
CONTINUOUS
10
94.3315
20
-148.143
11
94.3302
21
-148.143
0
LINE
8
BLACK
6
CONTINUOUS
10
94.3302
20
-148.143
11
94.3265
21
-148.142
0
LINE
8
BLACK
6
CONTINUOUS
10
94.3265
20
-148.142
11
94.3256
21
-148.141
0
LINE
8
BLACK
6
CONTINUOUS
10
94.3256
20
-148.141
11
93.8816
21
-147.993
0
LINE
8
BLACK
6
CONTINUOUS
10
93.8816
20
-147.993
11
93.8794
21
-147.993
0
LINE
8
BLACK
6
CONTINUOUS
10
93.8794
20
-147.993
11
93.877
21
-147.992
0
LINE
8
BLACK
6
CONTINUOUS
10
93.877
20
-147.992
11
93.8769
21
-147.992
0
LINE
8
BLACK
6
CONTINUOUS
10
93.8769
20
-147.992
11
93.8748
21
-147.991
0
LINE
8
BLACK
6
CONTINUOUS
10
93.8748
20
-147.991
11
93.8704
21
-147.989
0
LINE
8
BLACK
6
CONTINUOUS
10
93.8704
20
-147.989
11
93.8702
21
-147.989
0
LINE
8
BLACK
6
CONTINUOUS
10
93.8702
20
-147.989
11
93.8701
21
-147.989
0
LINE
8
BLACK
6
CONTINUOUS
10
93.8701
20
-147.989
11
93.8663
21
-147.986
0
LINE
8
BLACK
6
CONTINUOUS
10
93.8663
20
-147.986
11
93.8643
21
-147.985
0
LINE
8
BLACK
6
CONTINUOUS
10
93.8643
20
-147.985
11
93.8642
21
-147.984
0
LINE
8
BLACK
6
CONTINUOUS
10
93.8642
20
-147.984
11
93.8621
21
-147.983
0
LINE
8
BLACK
6
CONTINUOUS
10
93.8621
20
-147.983
11
93.8605
21
-147.981
0
LINE
8
BLACK
6
CONTINUOUS
10
93.8605
20
-147.981
11
93.5153
21
-147.685
0
LINE
8
BLACK
6
CONTINUOUS
10
93.5153
20
-147.685
11
93.5144
21
-147.685
0
LINE
8
BLACK
6
CONTINUOUS
10
93.5144
20
-147.685
11
93.5116
21
-147.682
0
LINE
8
BLACK
6
CONTINUOUS
10
93.5116
20
-147.682
11
93.5106
21
-147.681
0
LINE
8
BLACK
6
CONTINUOUS
10
93.5106
20
-147.681
11
93.5098
21
-147.681
0
LINE
8
BLACK
6
CONTINUOUS
10
93.5098
20
-147.681
11
93.5072
21
-147.678
0
LINE
8
BLACK
6
CONTINUOUS
10
93.5072
20
-147.678
11
93.5064
21
-147.677
0
LINE
8
BLACK
6
CONTINUOUS
10
93.5064
20
-147.677
11
93.5055
21
-147.676
0
LINE
8
BLACK
6
CONTINUOUS
10
93.5055
20
-147.676
11
93.5036
21
-147.673
0
LINE
8
BLACK
6
CONTINUOUS
10
93.5036
20
-147.673
11
93.5029
21
-147.672
0
LINE
8
BLACK
6
CONTINUOUS
10
93.5029
20
-147.672
11
93.5022
21
-147.671
0
LINE
8
BLACK
6
CONTINUOUS
10
93.5022
20
-147.671
11
93.5002
21
-147.668
0
LINE
8
BLACK
6
CONTINUOUS
10
93.5002
20
-147.668
11
93.4998
21
-147.667
0
LINE
8
BLACK
6
CONTINUOUS
10
93.4998
20
-147.667
11
83.2525
21
-129.871
0
LINE
8
BLACK
6
CONTINUOUS
10
83.2525
20
-129.871
11
83.2506
21
-129.869
0
LINE
8
BLACK
6
CONTINUOUS
10
83.2506
20
-129.869
11
83.2491
21
-129.865
0
LINE
8
BLACK
6
CONTINUOUS
10
83.2491
20
-129.865
11
83.2474
21
-129.861
0
LINE
8
BLACK
6
CONTINUOUS
10
83.2474
20
-129.861
11
83.2467
21
-129.858
0
LINE
8
BLACK
6
CONTINUOUS
10
83.2467
20
-129.858
11
83.0977
21
-129.361
0
LINE
8
BLACK
6
CONTINUOUS
10
83.0977
20
-129.361
11
83.0967
21
-129.359
0
LINE
8
BLACK
6
CONTINUOUS
10
83.0967
20
-129.359
11
83.0959
21
-129.354
0
LINE
8
BLACK
6
CONTINUOUS
10
83.0959
20
-129.354
11
83.095
21
-129.35
0
LINE
8
BLACK
6
CONTINUOUS
10
83.095
20
-129.35
11
83.095
21
-129.347
0
LINE
8
BLACK
6
CONTINUOUS
10
83.095
20
-129.347
11
83.0452
21
-128.75
0
LINE
8
BLACK
6
CONTINUOUS
10
83.0452
20
-128.75
11
83.045
21
-128.747
0
LINE
8
BLACK
6
CONTINUOUS
10
83.045
20
-128.747
11
83.045
21
-128.747
0
LINE
8
BLACK
6
CONTINUOUS
10
83.045
20
-128.747
11
83.045
21
-128.747
0
LINE
8
BLACK
6
CONTINUOUS
10
83.045
20
-128.747
11
83.045
21
-128.745
0
LINE
8
BLACK
6
CONTINUOUS
10
83.045
20
-128.745
11
83.045
21
-128.347
0
LINE
8
BLACK
6
CONTINUOUS
10
83.045
20
-128.347
11
83.0448
21
-128.345
0
LINE
8
BLACK
6
CONTINUOUS
10
83.0448
20
-128.345
11
83.0453
21
-128.339
0
LINE
8
BLACK
6
CONTINUOUS
10
83.0453
20
-128.339
11
83.0457
21
-128.335
0
LINE
8
BLACK
6
CONTINUOUS
10
83.0457
20
-128.335
11
83.0464
21
-128.333
0
LINE
8
BLACK
6
CONTINUOUS
10
83.0464
20
-128.333
11
83.145
21
-127.84
0
LINE
8
BLACK
6
CONTINUOUS
10
83.145
20
-127.84
11
83.145
21
-127.84
0
LINE
8
BLACK
6
CONTINUOUS
10
83.145
20
-127.84
11
83.1459
21
-127.836
0
LINE
8
BLACK
6
CONTINUOUS
10
83.1459
20
-127.836
11
83.1465
21
-127.833
0
LINE
8
BLACK
6
CONTINUOUS
10
83.1465
20
-127.833
11
83.1465
21
-127.833
0
LINE
8
BLACK
6
CONTINUOUS
10
83.1465
20
-127.833
11
83.147
21
-127.83
0
LINE
8
BLACK
6
CONTINUOUS
10
83.147
20
-127.83
11
83.1479
21
-127.828
0
LINE
8
BLACK
6
CONTINUOUS
10
83.1479
20
-127.828
11
83.1486
21
-127.826
0
LINE
8
BLACK
6
CONTINUOUS
10
83.1486
20
-127.826
11
83.1498
21
-127.823
0
LINE
8
BLACK
6
CONTINUOUS
10
83.1498
20
-127.823
11
83.1498
21
-127.823
0
LINE
8
BLACK
6
CONTINUOUS
10
83.1498
20
-127.823
11
83.151
21
-127.821
0
LINE
8
BLACK
6
CONTINUOUS
10
83.151
20
-127.821
11
83.1533
21
-127.817
0
LINE
8
BLACK
6
CONTINUOUS
10
83.1533
20
-127.817
11
83.1533
21
-127.817
0
LINE
8
BLACK
6
CONTINUOUS
10
83.1533
20
-127.817
11
88.9489
21
-117.075
0
LINE
8
BLACK
6
CONTINUOUS
10
88.9489
20
-117.075
11
89.1459
21
-116.484
0
LINE
8
BLACK
6
CONTINUOUS
10
89.1459
20
-116.484
11
89.2203
21
-115.842
0
LINE
8
BLACK
6
CONTINUOUS
10
89.2203
20
-115.842
11
89.2499
21
-98.8555
0
LINE
8
BLACK
6
CONTINUOUS
10
89.2499
20
-98.8555
11
89.2419
21
-98.8474
0
LINE
8
BLACK
6
CONTINUOUS
10
89.2419
20
-98.8474
11
89.2338
21
-98.8352
0
LINE
8
BLACK
6
CONTINUOUS
10
89.2338
20
-98.8352
11
89.2282
21
-98.8217
0
LINE
8
BLACK
6
CONTINUOUS
10
89.2282
20
-98.8217
11
89.2254
21
-98.8073
0
LINE
8
BLACK
6
CONTINUOUS
10
89.2254
20
-98.8073
11
89.2254
21
-98.7927
0
LINE
8
BLACK
6
CONTINUOUS
10
89.2254
20
-98.7927
11
89.2444
21
-98.5985
0
LINE
8
BLACK
6
CONTINUOUS
10
89.2444
20
-98.5985
11
89.2444
21
-98.5984
0
LINE
8
BLACK
6
CONTINUOUS
10
89.2444
20
-98.5984
11
89.2444
21
-98.5984
0
LINE
8
BLACK
6
CONTINUOUS
10
89.2444
20
-98.5984
11
89.2445
21
-98.5974
0
LINE
8
BLACK
6
CONTINUOUS
10
89.2445
20
-98.5974
11
89.2459
21
-98.5908
0
LINE
8
BLACK
6
CONTINUOUS
10
89.2459
20
-98.5908
11
89.2472
21
-98.5841
0
LINE
8
BLACK
6
CONTINUOUS
10
89.2472
20
-98.5841
11
89.3037
21
-98.3973
0
LINE
8
BLACK
6
CONTINUOUS
10
89.3037
20
-98.3973
11
89.3037
21
-98.3973
0
LINE
8
BLACK
6
CONTINUOUS
10
89.3037
20
-98.3973
11
89.3037
21
-98.3972
0
LINE
8
BLACK
6
CONTINUOUS
10
89.3037
20
-98.3972
11
89.304
21
-98.3963
0
LINE
8
BLACK
6
CONTINUOUS
10
89.304
20
-98.3963
11
89.3066
21
-98.39
0
LINE
8
BLACK
6
CONTINUOUS
10
89.3066
20
-98.39
11
89.3092
21
-98.3837
0
LINE
8
BLACK
6
CONTINUOUS
10
89.3092
20
-98.3837
11
89.4009
21
-98.2114
0
LINE
8
BLACK
6
CONTINUOUS
10
89.4009
20
-98.2114
11
89.4014
21
-98.2105
0
LINE
8
BLACK
6
CONTINUOUS
10
89.4014
20
-98.2105
11
89.4052
21
-98.2049
0
LINE
8
BLACK
6
CONTINUOUS
10
89.4052
20
-98.2049
11
89.409
21
-98.1992
0
LINE
8
BLACK
6
CONTINUOUS
10
89.409
20
-98.1992
11
89.5323
21
-98.048
0
LINE
8
BLACK
6
CONTINUOUS
10
89.5323
20
-98.048
11
89.533
21
-98.0472
0
LINE
8
BLACK
6
CONTINUOUS
10
89.533
20
-98.0472
11
89.5378
21
-98.0424
0
LINE
8
BLACK
6
CONTINUOUS
10
89.5378
20
-98.0424
11
89.5426
21
-98.0376
0
LINE
8
BLACK
6
CONTINUOUS
10
89.5426
20
-98.0376
11
89.693
21
-97.9132
0
LINE
8
BLACK
6
CONTINUOUS
10
89.693
20
-97.9132
11
89.693
21
-97.9132
0
LINE
8
BLACK
6
CONTINUOUS
10
89.693
20
-97.9132
11
89.693
21
-97.9132
0
LINE
8
BLACK
6
CONTINUOUS
10
89.693
20
-97.9132
11
89.6938
21
-97.9125
0
LINE
8
BLACK
6
CONTINUOUS
10
89.6938
20
-97.9125
11
89.6995
21
-97.9088
0
LINE
8
BLACK
6
CONTINUOUS
10
89.6995
20
-97.9088
11
89.7051
21
-97.905
0
LINE
8
BLACK
6
CONTINUOUS
10
89.7051
20
-97.905
11
89.8768
21
-97.8122
0
LINE
8
BLACK
6
CONTINUOUS
10
89.8768
20
-97.8122
11
89.8777
21
-97.8117
0
LINE
8
BLACK
6
CONTINUOUS
10
89.8777
20
-97.8117
11
89.884
21
-97.8091
0
LINE
8
BLACK
6
CONTINUOUS
10
89.884
20
-97.8091
11
89.8903
21
-97.8065
0
LINE
8
BLACK
6
CONTINUOUS
10
89.8903
20
-97.8065
11
90.0767
21
-97.7488
0
LINE
8
BLACK
6
CONTINUOUS
10
90.0767
20
-97.7488
11
90.0767
21
-97.7488
0
LINE
8
BLACK
6
CONTINUOUS
10
90.0767
20
-97.7488
11
90.0777
21
-97.7485
0
LINE
8
BLACK
6
CONTINUOUS
10
111.217
20
-97.8515
11
111.211
21
-97.8528
0
LINE
8
BLACK
6
CONTINUOUS
10
111.211
20
-97.8528
11
111.204
21
-97.8542
0
LINE
8
BLACK
6
CONTINUOUS
10
111.204
20
-97.8542
11
111.01
21
-97.8746
0
LINE
8
BLACK
6
CONTINUOUS
10
111.01
20
-97.8746
11
111.009
21
-97.8747
0
LINE
8
BLACK
6
CONTINUOUS
10
111.009
20
-97.8747
11
111.005
21
-97.8746
0
LINE
8
BLACK
6
CONTINUOUS
10
111.005
20
-97.8746
11
111.002
21
-97.875
0
LINE
8
BLACK
6
CONTINUOUS
10
111.002
20
-97.875
11
110.999
21
-97.875
0
LINE
8
BLACK
6
CONTINUOUS
10
110.999
20
-97.875
11
110.999
21
-97.875
0
LINE
8
BLACK
6
CONTINUOUS
10
110.999
20
-97.875
11
90.3003
21
-97.875
0
LINE
8
BLACK
6
CONTINUOUS
10
90.3003
20
-97.875
11
90.2971
21
-97.875
0
LINE
8
BLACK
6
CONTINUOUS
10
90.2971
20
-97.875
11
90.1141
21
-97.8942
0
LINE
8
BLACK
6
CONTINUOUS
10
90.1141
20
-97.8942
11
89.9417
21
-97.9476
0
LINE
8
BLACK
6
CONTINUOUS
10
89.9417
20
-97.9476
11
89.7829
21
-98.0334
0
LINE
8
BLACK
6
CONTINUOUS
10
89.7829
20
-98.0334
11
89.6439
21
-98.1485
0
LINE
8
BLACK
6
CONTINUOUS
10
89.6439
20
-98.1485
11
89.5298
21
-98.2883
0
LINE
8
BLACK
6
CONTINUOUS
10
89.5298
20
-98.2883
11
89.4451
21
-98.4476
0
LINE
8
BLACK
6
CONTINUOUS
10
89.4451
20
-98.4476
11
89.393
21
-98.6204
0
LINE
8
BLACK
6
CONTINUOUS
10
89.393
20
-98.6204
11
89.3746
21
-98.8073
0
LINE
8
BLACK
6
CONTINUOUS
10
89.3746
20
-98.8073
11
89.3745
21
-98.8084
0
LINE
8
BLACK
6
CONTINUOUS
10
89.3745
20
-98.8084
11
89.3715
21
-98.8227
0
LINE
8
BLACK
6
CONTINUOUS
10
89.3715
20
-98.8227
11
89.3657
21
-98.8361
0
LINE
8
BLACK
6
CONTINUOUS
10
89.3657
20
-98.8361
11
89.3575
21
-98.8482
0
LINE
8
BLACK
6
CONTINUOUS
10
89.3575
20
-98.8482
11
89.3499
21
-98.8556
0
LINE
8
BLACK
6
CONTINUOUS
10
89.3499
20
-98.8556
11
89.3203
21
-115.841
0
LINE
8
BLACK
6
CONTINUOUS
10
89.3203
20
-115.841
11
89.3203
21
-115.841
0
LINE
8
BLACK
6
CONTINUOUS
10
89.3203
20
-115.841
11
89.3203
21
-115.845
0
LINE
8
BLACK
6
CONTINUOUS
10
89.3203
20
-115.845
11
89.3203
21
-115.848
0
LINE
8
BLACK
6
CONTINUOUS
10
89.3203
20
-115.848
11
89.3202
21
-115.848
0
LINE
8
BLACK
6
CONTINUOUS
10
89.3202
20
-115.848
11
89.3202
21
-115.848
0
LINE
8
BLACK
6
CONTINUOUS
10
89.3202
20
-115.848
11
89.32
21
-115.85
0
LINE
8
BLACK
6
CONTINUOUS
10
89.32
20
-115.85
11
89.3195
21
-115.855
0
LINE
8
BLACK
6
CONTINUOUS
10
89.3195
20
-115.855
11
89.3194
21
-115.855
0
LINE
8
BLACK
6
CONTINUOUS
10
89.3194
20
-115.855
11
89.2449
21
-116.499
0
LINE
8
BLACK
6
CONTINUOUS
10
89.2449
20
-116.499
11
89.2448
21
-116.501
0
LINE
8
BLACK
6
CONTINUOUS
10
89.2448
20
-116.501
11
89.2438
21
-116.506
0
LINE
8
BLACK
6
CONTINUOUS
10
89.2438
20
-116.506
11
89.2428
21
-116.51
0
LINE
8
BLACK
6
CONTINUOUS
10
89.2428
20
-116.51
11
89.2417
21
-116.513
0
LINE
8
BLACK
6
CONTINUOUS
10
89.2417
20
-116.513
11
89.0434
21
-117.108
0
LINE
8
BLACK
6
CONTINUOUS
10
89.0434
20
-117.108
11
89.043
21
-117.11
0
LINE
8
BLACK
6
CONTINUOUS
10
89.043
20
-117.11
11
89.0418
21
-117.113
0
LINE
8
BLACK
6
CONTINUOUS
10
89.0418
20
-117.113
11
89.0417
21
-117.113
0
LINE
8
BLACK
6
CONTINUOUS
10
89.0417
20
-117.113
11
89.0409
21
-117.115
0
LINE
8
BLACK
6
CONTINUOUS
10
89.0409
20
-117.115
11
89.0402
21
-117.117
0
LINE
8
BLACK
6
CONTINUOUS
10
89.0402
20
-117.117
11
89.0399
21
-117.117
0
LINE
8
BLACK
6
CONTINUOUS
10
89.0399
20
-117.117
11
89.0386
21
-117.12
0
LINE
8
BLACK
6
CONTINUOUS
10
89.0386
20
-117.12
11
89.0376
21
-117.121
0
LINE
8
BLACK
6
CONTINUOUS
10
89.0376
20
-117.121
11
83.2426
21
-127.862
0
LINE
8
BLACK
6
CONTINUOUS
10
83.2426
20
-127.862
11
83.145
21
-128.35
0
LINE
8
BLACK
6
CONTINUOUS
10
83.145
20
-128.35
11
83.145
21
-128.743
0
LINE
8
BLACK
6
CONTINUOUS
10
83.145
20
-128.743
11
83.1944
21
-129.336
0
LINE
8
BLACK
6
CONTINUOUS
10
83.1944
20
-129.336
11
83.3412
21
-129.825
0
LINE
8
BLACK
6
CONTINUOUS
10
83.3412
20
-129.825
11
93.5841
21
-147.613
0
LINE
8
BLACK
6
CONTINUOUS
10
93.5841
20
-147.613
11
93.9201
21
-147.901
0
LINE
8
BLACK
6
CONTINUOUS
10
93.9201
20
-147.901
11
94.3574
21
-148.046
0
LINE
8
BLACK
6
CONTINUOUS
10
94.3574
20
-148.046
11
94.8924
21
-148.144
0
LINE
8
BLACK
6
CONTINUOUS
10
94.8924
20
-148.144
11
139.135
21
-135.397
0
LINE
8
BLACK
6
CONTINUOUS
10
139.135
20
-135.397
11
139.139
21
-135.396
0
LINE
8
BLACK
6
CONTINUOUS
10
139.139
20
-135.396
11
139.142
21
-135.395
0
LINE
8
BLACK
6
CONTINUOUS
10
139.142
20
-135.395
11
139.145
21
-135.395
0
LINE
8
BLACK
6
CONTINUOUS
10
139.145
20
-135.395
11
139.149
21
-135.395
0
LINE
8
BLACK
6
CONTINUOUS
10
139.149
20
-135.395
11
188.439
21
-135.395
0
LINE
8
BLACK
6
CONTINUOUS
10
188.439
20
-135.395
11
188.443
21
-135.39
0
LINE
8
BLACK
6
CONTINUOUS
10
188.443
20
-135.39
11
188.455
21
-135.381
0
LINE
8
BLACK
6
CONTINUOUS
10
188.455
20
-135.381
11
188.465
21
-135.376
0
LINE
8
BLACK
6
CONTINUOUS
10
188.465
20
-135.376
11
226.415
21
-120.884
0
LINE
8
BLACK
6
CONTINUOUS
10
226.415
20
-120.884
11
226.388
21
-46.0292
0
LINE
8
BLACK
6
CONTINUOUS
10
226.388
20
-46.0292
11
226.37
21
-45.8286
0
LINE
8
BLACK
6
CONTINUOUS
10
226.37
20
-45.8286
11
226.318
21
-45.6412
0
LINE
8
BLACK
6
CONTINUOUS
10
226.318
20
-45.6412
11
226.236
21
-45.4683
0
LINE
8
BLACK
6
CONTINUOUS
10
226.236
20
-45.4683
11
226.125
21
-45.3131
0
LINE
8
BLACK
6
CONTINUOUS
10
226.125
20
-45.3131
11
225.99
21
-45.1792
0
LINE
8
BLACK
6
CONTINUOUS
10
225.99
20
-45.1792
11
225.832
21
-45.0701
0
LINE
8
BLACK
6
CONTINUOUS
10
225.832
20
-45.0701
11
225.655
21
-44.9891
0
LINE
8
BLACK
6
CONTINUOUS
10
225.655
20
-44.9891
11
225.46
21
-44.9392
0
LINE
8
BLACK
6
CONTINUOUS
10
225.46
20
-44.9392
11
171.941
21
-36.495
0
LINE
8
BLACK
6
CONTINUOUS
10
171.941
20
-36.495
11
149.996
21
-36.495
0
LINE
8
BLACK
6
CONTINUOUS
10
149.996
20
-36.495
11
113.453
21
-37.9477
0
LINE
8
BLACK
6
CONTINUOUS
10
113.453
20
-37.9477
11
113.451
21
-37.9506
0
LINE
8
BLACK
6
CONTINUOUS
10
113.451
20
-37.9506
11
113.44
21
-37.9606
0
LINE
8
BLACK
6
CONTINUOUS
10
113.44
20
-37.9606
11
113.427
21
-37.9681
0
LINE
8
BLACK
6
CONTINUOUS
10
113.427
20
-37.9681
11
113.417
21
-37.9719
0
LINE
8
BLACK
6
CONTINUOUS
10
113.417
20
-37.9719
11
113.016
21
-38.0721
0
LINE
8
BLACK
6
CONTINUOUS
10
113.016
20
-38.0721
11
112.724
21
-38.1695
0
LINE
8
BLACK
6
CONTINUOUS
10
112.724
20
-38.1695
11
112.539
21
-38.2616
0
LINE
8
BLACK
6
CONTINUOUS
10
112.539
20
-38.2616
11
112.353
21
-38.4478
0
LINE
8
BLACK
6
CONTINUOUS
10
112.353
20
-38.4478
11
112.164
21
-38.732
0
LINE
8
BLACK
6
CONTINUOUS
10
112.164
20
-38.732
11
112.07
21
-39.0556
0
LINE
8
BLACK
6
CONTINUOUS
10
112.07
20
-39.0556
11
112.07
21
-96.8037
0
LINE
8
BLACK
6
CONTINUOUS
10
112.07
20
-96.8037
11
112.07
21
-96.8073
0
LINE
8
BLACK
6
CONTINUOUS
10
112.07
20
-96.8073
11
112.07
21
-96.8073
0
LINE
8
BLACK
6
CONTINUOUS
10
112.07
20
-96.8073
11
112.051
21
-97.0015
0
LINE
8
BLACK
6
CONTINUOUS
10
112.051
20
-97.0015
11
112.051
21
-97.0016
0
LINE
8
BLACK
6
CONTINUOUS
10
112.051
20
-97.0016
11
112.051
21
-97.0016
0
LINE
8
BLACK
6
CONTINUOUS
10
112.051
20
-97.0016
11
112.05
21
-97.0026
0
LINE
8
BLACK
6
CONTINUOUS
10
112.05
20
-97.0026
11
112.049
21
-97.0092
0
LINE
8
BLACK
6
CONTINUOUS
10
112.049
20
-97.0092
11
112.048
21
-97.0159
0
LINE
8
BLACK
6
CONTINUOUS
10
112.048
20
-97.0159
11
111.991
21
-97.2027
0
LINE
8
BLACK
6
CONTINUOUS
10
111.991
20
-97.2027
11
111.991
21
-97.2027
0
LINE
8
BLACK
6
CONTINUOUS
10
111.991
20
-97.2027
11
111.991
21
-97.2028
0
LINE
8
BLACK
6
CONTINUOUS
10
111.991
20
-97.2028
11
111.991
21
-97.2037
0
LINE
8
BLACK
6
CONTINUOUS
10
111.991
20
-97.2037
11
111.988
21
-97.21
0
LINE
8
BLACK
6
CONTINUOUS
10
111.988
20
-97.21
11
111.986
21
-97.2163
0
LINE
8
BLACK
6
CONTINUOUS
10
111.986
20
-97.2163
11
111.894
21
-97.3886
0
LINE
8
BLACK
6
CONTINUOUS
10
111.894
20
-97.3886
11
111.894
21
-97.3886
0
LINE
8
BLACK
6
CONTINUOUS
10
111.894
20
-97.3886
11
111.894
21
-97.3886
0
LINE
8
BLACK
6
CONTINUOUS
10
111.894
20
-97.3886
11
111.894
21
-97.3895
0
LINE
8
BLACK
6
CONTINUOUS
10
111.894
20
-97.3895
11
111.89
21
-97.3951
0
LINE
8
BLACK
6
CONTINUOUS
10
111.89
20
-97.3951
11
111.886
21
-97.4008
0
LINE
8
BLACK
6
CONTINUOUS
10
111.886
20
-97.4008
11
111.763
21
-97.552
0
LINE
8
BLACK
6
CONTINUOUS
10
111.763
20
-97.552
11
111.762
21
-97.5528
0
LINE
8
BLACK
6
CONTINUOUS
10
111.762
20
-97.5528
11
111.757
21
-97.5576
0
LINE
8
BLACK
6
CONTINUOUS
10
111.757
20
-97.5576
11
111.752
21
-97.5624
0
LINE
8
BLACK
6
CONTINUOUS
10
111.752
20
-97.5624
11
111.602
21
-97.6868
0
LINE
8
BLACK
6
CONTINUOUS
10
111.602
20
-97.6868
11
111.602
21
-97.6868
0
LINE
8
BLACK
6
CONTINUOUS
10
111.602
20
-97.6868
11
111.602
21
-97.6868
0
LINE
8
BLACK
6
CONTINUOUS
10
111.602
20
-97.6868
11
111.601
21
-97.6875
0
LINE
8
BLACK
6
CONTINUOUS
10
111.601
20
-97.6875
11
111.596
21
-97.6912
0
LINE
8
BLACK
6
CONTINUOUS
10
111.596
20
-97.6912
11
111.59
21
-97.695
0
LINE
8
BLACK
6
CONTINUOUS
10
111.59
20
-97.695
11
111.418
21
-97.7878
0
LINE
8
BLACK
6
CONTINUOUS
10
111.418
20
-97.7878
11
111.417
21
-97.7883
0
LINE
8
BLACK
6
CONTINUOUS
10
111.417
20
-97.7883
11
111.411
21
-97.7909
0
LINE
8
BLACK
6
CONTINUOUS
10
111.411
20
-97.7909
11
111.405
21
-97.7935
0
LINE
8
BLACK
6
CONTINUOUS
10
111.405
20
-97.7935
11
111.218
21
-97.8512
0
LINE
8
BLACK
6
CONTINUOUS
10
111.218
20
-97.8512
11
111.218
21
-97.8512
0
LINE
8
BLACK
6
CONTINUOUS
10
111.218
20
-97.8512
11
111.217
21
-97.8515
0
LINE
8
BLACK
6
CONTINUOUS
10
95.135
20
-144.482
11
95.1233
21
-144.48
0
LINE
8
BLACK
6
CONTINUOUS
10
95.1233
20
-144.48
11
95.1095
21
-144.475
0
LINE
8
BLACK
6
CONTINUOUS
10
95.1095
20
-144.475
11
95.1047
21
-144.472
0
LINE
8
BLACK
6
CONTINUOUS
10
95.1047
20
-144.472
11
95.0969
21
-144.467
0
LINE
8
BLACK
6
CONTINUOUS
10
95.0969
20
-144.467
11
95.0862
21
-144.457
0
LINE
8
BLACK
6
CONTINUOUS
10
95.0862
20
-144.457
11
95.0797
21
-144.448
0
LINE
8
BLACK
6
CONTINUOUS
10
95.0797
20
-144.448
11
95.0797
21
-144.448
0
LINE
8
BLACK
6
CONTINUOUS
10
95.0797
20
-144.448
11
95.0776
21
-144.445
0
LINE
8
BLACK
6
CONTINUOUS
10
95.0776
20
-144.445
11
95.076
21
-144.442
0
LINE
8
BLACK
6
CONTINUOUS
10
95.076
20
-144.442
11
88.0797
21
-132.324
0
LINE
8
BLACK
6
CONTINUOUS
10
88.0797
20
-132.324
11
88.0776
21
-132.321
0
LINE
8
BLACK
6
CONTINUOUS
10
88.0776
20
-132.321
11
88.0715
21
-132.307
0
LINE
8
BLACK
6
CONTINUOUS
10
88.0715
20
-132.307
11
88.0681
21
-132.293
0
LINE
8
BLACK
6
CONTINUOUS
10
88.0681
20
-132.293
11
88.0676
21
-132.278
0
LINE
8
BLACK
6
CONTINUOUS
10
88.0676
20
-132.278
11
88.07
21
-132.263
0
LINE
8
BLACK
6
CONTINUOUS
10
88.07
20
-132.263
11
88.0752
21
-132.249
0
LINE
8
BLACK
6
CONTINUOUS
10
88.0752
20
-132.249
11
88.083
21
-132.237
0
LINE
8
BLACK
6
CONTINUOUS
10
88.083
20
-132.237
11
88.0931
21
-132.226
0
LINE
8
BLACK
6
CONTINUOUS
10
88.0931
20
-132.226
11
88.1021
21
-132.22
0
LINE
8
BLACK
6
CONTINUOUS
10
88.1021
20
-132.22
11
88.1021
21
-132.22
0
LINE
8
BLACK
6
CONTINUOUS
10
88.1021
20
-132.22
11
88.1051
21
-132.218
0
LINE
8
BLACK
6
CONTINUOUS
10
88.1051
20
-132.218
11
88.1085
21
-132.216
0
LINE
8
BLACK
6
CONTINUOUS
10
88.1085
20
-132.216
11
100.227
21
-125.22
0
LINE
8
BLACK
6
CONTINUOUS
10
100.227
20
-125.22
11
100.229
21
-125.218
0
LINE
8
BLACK
6
CONTINUOUS
10
100.229
20
-125.218
11
100.233
21
-125.216
0
LINE
8
BLACK
6
CONTINUOUS
10
100.233
20
-125.216
11
100.233
21
-125.216
0
LINE
8
BLACK
6
CONTINUOUS
10
100.233
20
-125.216
11
100.243
21
-125.211
0
LINE
8
BLACK
6
CONTINUOUS
10
100.243
20
-125.211
11
100.246
21
-125.211
0
LINE
8
BLACK
6
CONTINUOUS
10
100.246
20
-125.211
11
100.257
21
-125.208
0
LINE
8
BLACK
6
CONTINUOUS
10
100.257
20
-125.208
11
100.272
21
-125.208
0
LINE
8
BLACK
6
CONTINUOUS
10
100.272
20
-125.208
11
100.272
21
-125.208
0
LINE
8
BLACK
6
CONTINUOUS
10
100.272
20
-125.208
11
100.272
21
-125.208
0
LINE
8
BLACK
6
CONTINUOUS
10
100.272
20
-125.208
11
100.287
21
-125.21
0
LINE
8
BLACK
6
CONTINUOUS
10
100.287
20
-125.21
11
100.301
21
-125.215
0
LINE
8
BLACK
6
CONTINUOUS
10
100.301
20
-125.215
11
100.313
21
-125.223
0
LINE
8
BLACK
6
CONTINUOUS
10
100.313
20
-125.223
11
100.324
21
-125.233
0
LINE
8
BLACK
6
CONTINUOUS
10
100.324
20
-125.233
11
100.327
21
-125.237
0
LINE
8
BLACK
6
CONTINUOUS
10
100.327
20
-125.237
11
100.332
21
-125.245
0
LINE
8
BLACK
6
CONTINUOUS
10
100.332
20
-125.245
11
100.334
21
-125.249
0
LINE
8
BLACK
6
CONTINUOUS
10
100.334
20
-125.249
11
107.33
21
-137.367
0
LINE
8
BLACK
6
CONTINUOUS
10
107.33
20
-137.367
11
107.332
21
-137.369
0
LINE
8
BLACK
6
CONTINUOUS
10
107.332
20
-137.369
11
107.334
21
-137.373
0
LINE
8
BLACK
6
CONTINUOUS
10
107.334
20
-137.373
11
107.334
21
-137.373
0
LINE
8
BLACK
6
CONTINUOUS
10
107.334
20
-137.373
11
107.339
21
-137.383
0
LINE
8
BLACK
6
CONTINUOUS
10
107.339
20
-137.383
11
107.339
21
-137.383
0
LINE
8
BLACK
6
CONTINUOUS
10
107.339
20
-137.383
11
107.342
21
-137.397
0
LINE
8
BLACK
6
CONTINUOUS
10
107.342
20
-137.397
11
107.342
21
-137.412
0
LINE
8
BLACK
6
CONTINUOUS
10
107.342
20
-137.412
11
107.34
21
-137.427
0
LINE
8
BLACK
6
CONTINUOUS
10
107.34
20
-137.427
11
107.335
21
-137.441
0
LINE
8
BLACK
6
CONTINUOUS
10
107.335
20
-137.441
11
107.327
21
-137.453
0
LINE
8
BLACK
6
CONTINUOUS
10
107.327
20
-137.453
11
107.317
21
-137.464
0
LINE
8
BLACK
6
CONTINUOUS
10
107.317
20
-137.464
11
107.308
21
-137.47
0
LINE
8
BLACK
6
CONTINUOUS
10
107.308
20
-137.47
11
107.308
21
-137.47
0
LINE
8
BLACK
6
CONTINUOUS
10
107.308
20
-137.47
11
107.305
21
-137.472
0
LINE
8
BLACK
6
CONTINUOUS
10
107.305
20
-137.472
11
107.302
21
-137.474
0
LINE
8
BLACK
6
CONTINUOUS
10
107.302
20
-137.474
11
95.1835
21
-144.47
0
LINE
8
BLACK
6
CONTINUOUS
10
95.1835
20
-144.47
11
95.1805
21
-144.472
0
LINE
8
BLACK
6
CONTINUOUS
10
95.1805
20
-144.472
11
95.1771
21
-144.474
0
LINE
8
BLACK
6
CONTINUOUS
10
95.1771
20
-144.474
11
95.1771
21
-144.474
0
LINE
8
BLACK
6
CONTINUOUS
10
95.1771
20
-144.474
11
95.167
21
-144.479
0
LINE
8
BLACK
6
CONTINUOUS
10
95.167
20
-144.479
11
95.1527
21
-144.482
0
LINE
8
BLACK
6
CONTINUOUS
10
95.1527
20
-144.482
11
95.1379
21
-144.482
0
LINE
8
BLACK
6
CONTINUOUS
10
95.1379
20
-144.482
11
95.1379
21
-144.482
0
LINE
8
BLACK
6
CONTINUOUS
10
95.1379
20
-144.482
11
95.135
21
-144.482
0
LINE
8
BLACK
6
CONTINUOUS
10
88.2453
20
-132.31
11
95.1703
21
-144.305
0
LINE
8
BLACK
6
CONTINUOUS
10
95.1703
20
-144.305
11
107.165
21
-137.38
0
LINE
8
BLACK
6
CONTINUOUS
10
107.165
20
-137.38
11
100.24
21
-125.385
0
LINE
8
BLACK
6
CONTINUOUS
10
100.24
20
-125.385
11
88.2453
21
-132.31
0
LINE
8
BLACK
6
CONTINUOUS
10
123.555
20
-121.197
11
123.569
21
-121.2
0
LINE
8
BLACK
6
CONTINUOUS
10
123.569
20
-121.2
11
123.582
21
-121.207
0
LINE
8
BLACK
6
CONTINUOUS
10
123.582
20
-121.207
11
123.594
21
-121.215
0
LINE
8
BLACK
6
CONTINUOUS
10
123.594
20
-121.215
11
123.605
21
-121.226
0
LINE
8
BLACK
6
CONTINUOUS
10
123.605
20
-121.226
11
123.612
21
-121.238
0
LINE
8
BLACK
6
CONTINUOUS
10
123.612
20
-121.238
11
123.618
21
-121.252
0
LINE
8
BLACK
6
CONTINUOUS
10
123.618
20
-121.252
11
123.618
21
-121.256
0
LINE
8
BLACK
6
CONTINUOUS
10
123.618
20
-121.256
11
127.24
21
-134.772
0
LINE
8
BLACK
6
CONTINUOUS
10
127.24
20
-134.772
11
127.241
21
-134.775
0
LINE
8
BLACK
6
CONTINUOUS
10
127.241
20
-134.775
11
127.243
21
-134.79
0
LINE
8
BLACK
6
CONTINUOUS
10
127.243
20
-134.79
11
127.243
21
-134.805
0
LINE
8
BLACK
6
CONTINUOUS
10
127.243
20
-134.805
11
127.24
21
-134.819
0
LINE
8
BLACK
6
CONTINUOUS
10
127.24
20
-134.819
11
127.233
21
-134.832
0
LINE
8
BLACK
6
CONTINUOUS
10
127.233
20
-134.832
11
127.225
21
-134.844
0
LINE
8
BLACK
6
CONTINUOUS
10
127.225
20
-134.844
11
127.214
21
-134.855
0
LINE
8
BLACK
6
CONTINUOUS
10
127.214
20
-134.855
11
127.202
21
-134.862
0
LINE
8
BLACK
6
CONTINUOUS
10
127.202
20
-134.862
11
127.191
21
-134.866
0
LINE
8
BLACK
6
CONTINUOUS
10
127.191
20
-134.866
11
127.191
21
-134.866
0
LINE
8
BLACK
6
CONTINUOUS
10
127.191
20
-134.866
11
127.188
21
-134.868
0
LINE
8
BLACK
6
CONTINUOUS
10
127.188
20
-134.868
11
127.184
21
-134.868
0
LINE
8
BLACK
6
CONTINUOUS
10
127.184
20
-134.868
11
113.668
21
-138.49
0
LINE
8
BLACK
6
CONTINUOUS
10
113.668
20
-138.49
11
113.665
21
-138.491
0
LINE
8
BLACK
6
CONTINUOUS
10
113.665
20
-138.491
11
113.65
21
-138.493
0
LINE
8
BLACK
6
CONTINUOUS
10
113.65
20
-138.493
11
113.635
21
-138.493
0
LINE
8
BLACK
6
CONTINUOUS
10
113.635
20
-138.493
11
113.621
21
-138.49
0
LINE
8
BLACK
6
CONTINUOUS
10
113.621
20
-138.49
11
113.608
21
-138.483
0
LINE
8
BLACK
6
CONTINUOUS
10
113.608
20
-138.483
11
113.596
21
-138.475
0
LINE
8
BLACK
6
CONTINUOUS
10
113.596
20
-138.475
11
113.585
21
-138.464
0
LINE
8
BLACK
6
CONTINUOUS
10
113.585
20
-138.464
11
113.578
21
-138.452
0
LINE
8
BLACK
6
CONTINUOUS
10
113.578
20
-138.452
11
113.574
21
-138.441
0
LINE
8
BLACK
6
CONTINUOUS
10
113.574
20
-138.441
11
113.574
21
-138.441
0
LINE
8
BLACK
6
CONTINUOUS
10
113.574
20
-138.441
11
113.572
21
-138.438
0
LINE
8
BLACK
6
CONTINUOUS
10
113.572
20
-138.438
11
113.572
21
-138.434
0
LINE
8
BLACK
6
CONTINUOUS
10
113.572
20
-138.434
11
109.95
21
-124.918
0
LINE
8
BLACK
6
CONTINUOUS
10
109.95
20
-124.918
11
109.949
21
-124.915
0
LINE
8
BLACK
6
CONTINUOUS
10
109.949
20
-124.915
11
109.947
21
-124.9
0
LINE
8
BLACK
6
CONTINUOUS
10
109.947
20
-124.9
11
109.947
21
-124.885
0
LINE
8
BLACK
6
CONTINUOUS
10
109.947
20
-124.885
11
109.95
21
-124.871
0
LINE
8
BLACK
6
CONTINUOUS
10
109.95
20
-124.871
11
109.957
21
-124.858
0
LINE
8
BLACK
6
CONTINUOUS
10
109.957
20
-124.858
11
109.965
21
-124.846
0
LINE
8
BLACK
6
CONTINUOUS
10
109.965
20
-124.846
11
109.976
21
-124.835
0
LINE
8
BLACK
6
CONTINUOUS
10
109.976
20
-124.835
11
109.988
21
-124.828
0
LINE
8
BLACK
6
CONTINUOUS
10
109.988
20
-124.828
11
110.002
21
-124.822
0
LINE
8
BLACK
6
CONTINUOUS
10
110.002
20
-124.822
11
110.006
21
-124.822
0
LINE
8
BLACK
6
CONTINUOUS
10
110.006
20
-124.822
11
123.522
21
-121.2
0
LINE
8
BLACK
6
CONTINUOUS
10
123.522
20
-121.2
11
123.525
21
-121.199
0
LINE
8
BLACK
6
CONTINUOUS
10
123.525
20
-121.199
11
123.54
21
-121.197
0
LINE
8
BLACK
6
CONTINUOUS
10
123.54
20
-121.197
11
123.555
21
-121.197
0
LINE
8
BLACK
6
CONTINUOUS
10
110.114
20
-124.948
11
113.698
21
-138.326
0
LINE
8
BLACK
6
CONTINUOUS
10
113.698
20
-138.326
11
127.076
21
-134.742
0
LINE
8
BLACK
6
CONTINUOUS
10
127.076
20
-134.742
11
123.492
21
-121.364
0
LINE
8
BLACK
6
CONTINUOUS
10
123.492
20
-121.364
11
110.114
21
-124.948
0
LINE
8
BLACK
6
CONTINUOUS
10
185.599
20
-118.17
11
185.61
21
-118.171
0
LINE
8
BLACK
6
CONTINUOUS
10
185.61
20
-118.171
11
185.624
21
-118.175
0
LINE
8
BLACK
6
CONTINUOUS
10
185.624
20
-118.175
11
185.637
21
-118.182
0
LINE
8
BLACK
6
CONTINUOUS
10
185.637
20
-118.182
11
185.648
21
-118.192
0
LINE
8
BLACK
6
CONTINUOUS
10
185.648
20
-118.192
11
185.658
21
-118.203
0
LINE
8
BLACK
6
CONTINUOUS
10
185.658
20
-118.203
11
185.665
21
-118.216
0
LINE
8
BLACK
6
CONTINUOUS
10
185.665
20
-118.216
11
185.669
21
-118.23
0
LINE
8
BLACK
6
CONTINUOUS
10
185.669
20
-118.23
11
185.67
21
-118.245
0
LINE
8
BLACK
6
CONTINUOUS
10
185.67
20
-118.245
11
185.67
21
-118.249
0
LINE
8
BLACK
6
CONTINUOUS
10
185.67
20
-118.249
11
185.67
21
-132.241
0
LINE
8
BLACK
6
CONTINUOUS
10
185.67
20
-132.241
11
185.67
21
-132.245
0
LINE
8
BLACK
6
CONTINUOUS
10
185.67
20
-132.245
11
185.669
21
-132.26
0
LINE
8
BLACK
6
CONTINUOUS
10
185.669
20
-132.26
11
185.665
21
-132.274
0
LINE
8
BLACK
6
CONTINUOUS
10
185.665
20
-132.274
11
185.658
21
-132.287
0
LINE
8
BLACK
6
CONTINUOUS
10
185.658
20
-132.287
11
185.648
21
-132.298
0
LINE
8
BLACK
6
CONTINUOUS
10
185.648
20
-132.298
11
185.637
21
-132.308
0
LINE
8
BLACK
6
CONTINUOUS
10
185.637
20
-132.308
11
185.624
21
-132.315
0
LINE
8
BLACK
6
CONTINUOUS
10
185.624
20
-132.315
11
185.61
21
-132.319
0
LINE
8
BLACK
6
CONTINUOUS
10
185.61
20
-132.319
11
185.599
21
-132.32
0
LINE
8
BLACK
6
CONTINUOUS
10
185.599
20
-132.32
11
185.595
21
-132.32
0
LINE
8
BLACK
6
CONTINUOUS
10
185.595
20
-132.32
11
185.591
21
-132.32
0
LINE
8
BLACK
6
CONTINUOUS
10
185.591
20
-132.32
11
171.599
21
-132.32
0
LINE
8
BLACK
6
CONTINUOUS
10
171.599
20
-132.32
11
171.595
21
-132.32
0
LINE
8
BLACK
6
CONTINUOUS
10
171.595
20
-132.32
11
171.58
21
-132.319
0
LINE
8
BLACK
6
CONTINUOUS
10
171.58
20
-132.319
11
171.566
21
-132.315
0
LINE
8
BLACK
6
CONTINUOUS
10
171.566
20
-132.315
11
171.553
21
-132.308
0
LINE
8
BLACK
6
CONTINUOUS
10
171.553
20
-132.308
11
171.542
21
-132.298
0
LINE
8
BLACK
6
CONTINUOUS
10
171.542
20
-132.298
11
171.537
21
-132.293
0
LINE
8
BLACK
6
CONTINUOUS
10
171.537
20
-132.293
11
171.532
21
-132.287
0
LINE
8
BLACK
6
CONTINUOUS
10
171.532
20
-132.287
11
171.525
21
-132.274
0
LINE
8
BLACK
6
CONTINUOUS
10
171.525
20
-132.274
11
171.521
21
-132.26
0
LINE
8
BLACK
6
CONTINUOUS
10
171.521
20
-132.26
11
171.52
21
-132.245
0
LINE
8
BLACK
6
CONTINUOUS
10
171.52
20
-132.245
11
171.52
21
-132.241
0
LINE
8
BLACK
6
CONTINUOUS
10
171.52
20
-132.241
11
171.52
21
-118.249
0
LINE
8
BLACK
6
CONTINUOUS
10
171.52
20
-118.249
11
171.52
21
-118.245
0
LINE
8
BLACK
6
CONTINUOUS
10
171.52
20
-118.245
11
171.521
21
-118.23
0
LINE
8
BLACK
6
CONTINUOUS
10
171.521
20
-118.23
11
171.525
21
-118.216
0
LINE
8
BLACK
6
CONTINUOUS
10
171.525
20
-118.216
11
171.532
21
-118.203
0
LINE
8
BLACK
6
CONTINUOUS
10
171.532
20
-118.203
11
171.542
21
-118.192
0
LINE
8
BLACK
6
CONTINUOUS
10
171.542
20
-118.192
11
171.553
21
-118.182
0
LINE
8
BLACK
6
CONTINUOUS
10
171.553
20
-118.182
11
171.566
21
-118.175
0
LINE
8
BLACK
6
CONTINUOUS
10
171.566
20
-118.175
11
171.58
21
-118.171
0
LINE
8
BLACK
6
CONTINUOUS
10
171.58
20
-118.171
11
171.591
21
-118.17
0
LINE
8
BLACK
6
CONTINUOUS
10
171.591
20
-118.17
11
171.595
21
-118.17
0
LINE
8
BLACK
6
CONTINUOUS
10
171.595
20
-118.17
11
171.599
21
-118.17
0
LINE
8
BLACK
6
CONTINUOUS
10
171.599
20
-118.17
11
185.591
21
-118.17
0
LINE
8
BLACK
6
CONTINUOUS
10
185.591
20
-118.17
11
185.595
21
-118.17
0
LINE
8
BLACK
6
CONTINUOUS
10
185.595
20
-118.17
11
185.599
21
-118.17
0
LINE
8
BLACK
6
CONTINUOUS
10
171.67
20
-118.32
11
171.67
21
-132.17
0
LINE
8
BLACK
6
CONTINUOUS
10
171.67
20
-132.17
11
185.52
21
-132.17
0
LINE
8
BLACK
6
CONTINUOUS
10
185.52
20
-132.17
11
185.52
21
-118.32
0
LINE
8
BLACK
6
CONTINUOUS
10
185.52
20
-118.32
11
171.67
21
-118.32
0
LINE
8
BLACK
6
CONTINUOUS
10
147.499
20
-118.07
11
147.51
21
-118.071
0
LINE
8
BLACK
6
CONTINUOUS
10
147.51
20
-118.071
11
147.524
21
-118.075
0
LINE
8
BLACK
6
CONTINUOUS
10
147.524
20
-118.075
11
147.537
21
-118.082
0
LINE
8
BLACK
6
CONTINUOUS
10
147.537
20
-118.082
11
147.548
21
-118.092
0
LINE
8
BLACK
6
CONTINUOUS
10
147.548
20
-118.092
11
147.558
21
-118.103
0
LINE
8
BLACK
6
CONTINUOUS
10
147.558
20
-118.103
11
147.565
21
-118.116
0
LINE
8
BLACK
6
CONTINUOUS
10
147.565
20
-118.116
11
147.569
21
-118.13
0
LINE
8
BLACK
6
CONTINUOUS
10
147.569
20
-118.13
11
147.57
21
-118.145
0
LINE
8
BLACK
6
CONTINUOUS
10
147.57
20
-118.145
11
147.57
21
-118.149
0
LINE
8
BLACK
6
CONTINUOUS
10
147.57
20
-118.149
11
147.57
21
-132.141
0
LINE
8
BLACK
6
CONTINUOUS
10
147.57
20
-132.141
11
147.57
21
-132.145
0
LINE
8
BLACK
6
CONTINUOUS
10
147.57
20
-132.145
11
147.569
21
-132.16
0
LINE
8
BLACK
6
CONTINUOUS
10
147.569
20
-132.16
11
147.565
21
-132.174
0
LINE
8
BLACK
6
CONTINUOUS
10
147.565
20
-132.174
11
147.558
21
-132.187
0
LINE
8
BLACK
6
CONTINUOUS
10
147.558
20
-132.187
11
147.548
21
-132.198
0
LINE
8
BLACK
6
CONTINUOUS
10
147.548
20
-132.198
11
147.537
21
-132.208
0
LINE
8
BLACK
6
CONTINUOUS
10
147.537
20
-132.208
11
147.524
21
-132.215
0
LINE
8
BLACK
6
CONTINUOUS
10
147.524
20
-132.215
11
147.51
21
-132.219
0
LINE
8
BLACK
6
CONTINUOUS
10
147.51
20
-132.219
11
147.499
21
-132.22
0
LINE
8
BLACK
6
CONTINUOUS
10
147.499
20
-132.22
11
147.495
21
-132.22
0
LINE
8
BLACK
6
CONTINUOUS
10
147.495
20
-132.22
11
147.491
21
-132.22
0
LINE
8
BLACK
6
CONTINUOUS
10
147.491
20
-132.22
11
133.499
21
-132.22
0
LINE
8
BLACK
6
CONTINUOUS
10
133.499
20
-132.22
11
133.495
21
-132.22
0
LINE
8
BLACK
6
CONTINUOUS
10
133.495
20
-132.22
11
133.48
21
-132.219
0
LINE
8
BLACK
6
CONTINUOUS
10
133.48
20
-132.219
11
133.466
21
-132.215
0
LINE
8
BLACK
6
CONTINUOUS
10
133.466
20
-132.215
11
133.453
21
-132.208
0
LINE
8
BLACK
6
CONTINUOUS
10
133.453
20
-132.208
11
133.442
21
-132.198
0
LINE
8
BLACK
6
CONTINUOUS
10
133.442
20
-132.198
11
133.436
21
-132.192
0
LINE
8
BLACK
6
CONTINUOUS
10
133.436
20
-132.192
11
133.432
21
-132.187
0
LINE
8
BLACK
6
CONTINUOUS
10
133.432
20
-132.187
11
133.425
21
-132.174
0
LINE
8
BLACK
6
CONTINUOUS
10
133.425
20
-132.174
11
133.421
21
-132.16
0
LINE
8
BLACK
6
CONTINUOUS
10
133.421
20
-132.16
11
133.42
21
-132.145
0
LINE
8
BLACK
6
CONTINUOUS
10
133.42
20
-132.145
11
133.42
21
-132.141
0
LINE
8
BLACK
6
CONTINUOUS
10
133.42
20
-132.141
11
133.42
21
-118.149
0
LINE
8
BLACK
6
CONTINUOUS
10
133.42
20
-118.149
11
133.42
21
-118.145
0
LINE
8
BLACK
6
CONTINUOUS
10
133.42
20
-118.145
11
133.421
21
-118.13
0
LINE
8
BLACK
6
CONTINUOUS
10
133.421
20
-118.13
11
133.425
21
-118.116
0
LINE
8
BLACK
6
CONTINUOUS
10
133.425
20
-118.116
11
133.432
21
-118.103
0
LINE
8
BLACK
6
CONTINUOUS
10
133.432
20
-118.103
11
133.442
21
-118.092
0
LINE
8
BLACK
6
CONTINUOUS
10
133.442
20
-118.092
11
133.453
21
-118.082
0
LINE
8
BLACK
6
CONTINUOUS
10
133.453
20
-118.082
11
133.466
21
-118.075
0
LINE
8
BLACK
6
CONTINUOUS
10
133.466
20
-118.075
11
133.48
21
-118.071
0
LINE
8
BLACK
6
CONTINUOUS
10
133.48
20
-118.071
11
133.491
21
-118.07
0
LINE
8
BLACK
6
CONTINUOUS
10
133.491
20
-118.07
11
133.495
21
-118.07
0
LINE
8
BLACK
6
CONTINUOUS
10
133.495
20
-118.07
11
133.499
21
-118.07
0
LINE
8
BLACK
6
CONTINUOUS
10
133.499
20
-118.07
11
147.491
21
-118.07
0
LINE
8
BLACK
6
CONTINUOUS
10
147.491
20
-118.07
11
147.495
21
-118.07
0
LINE
8
BLACK
6
CONTINUOUS
10
147.495
20
-118.07
11
147.499
21
-118.07
0
LINE
8
BLACK
6
CONTINUOUS
10
133.57
20
-118.22
11
133.57
21
-132.07
0
LINE
8
BLACK
6
CONTINUOUS
10
133.57
20
-132.07
11
147.42
21
-132.07
0
LINE
8
BLACK
6
CONTINUOUS
10
147.42
20
-132.07
11
147.42
21
-118.22
0
LINE
8
BLACK
6
CONTINUOUS
10
147.42
20
-118.22
11
133.57
21
-118.22
0
LINE
8
BLACK
6
CONTINUOUS
10
166.599
20
-115.66
11
166.61
21
-115.661
0
LINE
8
BLACK
6
CONTINUOUS
10
166.61
20
-115.661
11
166.624
21
-115.665
0
LINE
8
BLACK
6
CONTINUOUS
10
166.624
20
-115.665
11
166.637
21
-115.672
0
LINE
8
BLACK
6
CONTINUOUS
10
166.637
20
-115.672
11
166.648
21
-115.682
0
LINE
8
BLACK
6
CONTINUOUS
10
166.648
20
-115.682
11
166.658
21
-115.693
0
LINE
8
BLACK
6
CONTINUOUS
10
166.658
20
-115.693
11
166.665
21
-115.706
0
LINE
8
BLACK
6
CONTINUOUS
10
166.665
20
-115.706
11
166.669
21
-115.72
0
LINE
8
BLACK
6
CONTINUOUS
10
166.669
20
-115.72
11
166.67
21
-115.735
0
LINE
8
BLACK
6
CONTINUOUS
10
166.67
20
-115.735
11
166.67
21
-115.739
0
LINE
8
BLACK
6
CONTINUOUS
10
166.67
20
-115.739
11
166.67
21
-129.731
0
LINE
8
BLACK
6
CONTINUOUS
10
166.67
20
-129.731
11
166.67
21
-129.735
0
LINE
8
BLACK
6
CONTINUOUS
10
166.67
20
-129.735
11
166.669
21
-129.75
0
LINE
8
BLACK
6
CONTINUOUS
10
166.669
20
-129.75
11
166.665
21
-129.764
0
LINE
8
BLACK
6
CONTINUOUS
10
166.665
20
-129.764
11
166.658
21
-129.777
0
LINE
8
BLACK
6
CONTINUOUS
10
166.658
20
-129.777
11
166.648
21
-129.788
0
LINE
8
BLACK
6
CONTINUOUS
10
166.648
20
-129.788
11
166.637
21
-129.798
0
LINE
8
BLACK
6
CONTINUOUS
10
166.637
20
-129.798
11
166.624
21
-129.805
0
LINE
8
BLACK
6
CONTINUOUS
10
166.624
20
-129.805
11
166.61
21
-129.809
0
LINE
8
BLACK
6
CONTINUOUS
10
166.61
20
-129.809
11
166.599
21
-129.81
0
LINE
8
BLACK
6
CONTINUOUS
10
166.599
20
-129.81
11
166.595
21
-129.81
0
LINE
8
BLACK
6
CONTINUOUS
10
166.595
20
-129.81
11
166.591
21
-129.81
0
LINE
8
BLACK
6
CONTINUOUS
10
166.591
20
-129.81
11
152.599
21
-129.81
0
LINE
8
BLACK
6
CONTINUOUS
10
152.599
20
-129.81
11
152.595
21
-129.81
0
LINE
8
BLACK
6
CONTINUOUS
10
152.595
20
-129.81
11
152.58
21
-129.809
0
LINE
8
BLACK
6
CONTINUOUS
10
152.58
20
-129.809
11
152.566
21
-129.805
0
LINE
8
BLACK
6
CONTINUOUS
10
152.566
20
-129.805
11
152.553
21
-129.798
0
LINE
8
BLACK
6
CONTINUOUS
10
152.553
20
-129.798
11
152.542
21
-129.788
0
LINE
8
BLACK
6
CONTINUOUS
10
152.542
20
-129.788
11
152.532
21
-129.777
0
LINE
8
BLACK
6
CONTINUOUS
10
152.532
20
-129.777
11
152.525
21
-129.764
0
LINE
8
BLACK
6
CONTINUOUS
10
152.525
20
-129.764
11
152.521
21
-129.75
0
LINE
8
BLACK
6
CONTINUOUS
10
152.521
20
-129.75
11
152.52
21
-129.735
0
LINE
8
BLACK
6
CONTINUOUS
10
152.52
20
-129.735
11
152.52
21
-129.731
0
LINE
8
BLACK
6
CONTINUOUS
10
152.52
20
-129.731
11
152.52
21
-115.739
0
LINE
8
BLACK
6
CONTINUOUS
10
152.52
20
-115.739
11
152.52
21
-115.735
0
LINE
8
BLACK
6
CONTINUOUS
10
152.52
20
-115.735
11
152.521
21
-115.72
0
LINE
8
BLACK
6
CONTINUOUS
10
152.521
20
-115.72
11
152.525
21
-115.706
0
LINE
8
BLACK
6
CONTINUOUS
10
152.525
20
-115.706
11
152.532
21
-115.693
0
LINE
8
BLACK
6
CONTINUOUS
10
152.532
20
-115.693
11
152.542
21
-115.682
0
LINE
8
BLACK
6
CONTINUOUS
10
152.542
20
-115.682
11
152.553
21
-115.672
0
LINE
8
BLACK
6
CONTINUOUS
10
152.553
20
-115.672
11
152.566
21
-115.665
0
LINE
8
BLACK
6
CONTINUOUS
10
152.566
20
-115.665
11
152.58
21
-115.661
0
LINE
8
BLACK
6
CONTINUOUS
10
152.58
20
-115.661
11
152.591
21
-115.66
0
LINE
8
BLACK
6
CONTINUOUS
10
152.591
20
-115.66
11
152.595
21
-115.66
0
LINE
8
BLACK
6
CONTINUOUS
10
152.595
20
-115.66
11
152.599
21
-115.66
0
LINE
8
BLACK
6
CONTINUOUS
10
152.599
20
-115.66
11
166.591
21
-115.66
0
LINE
8
BLACK
6
CONTINUOUS
10
166.591
20
-115.66
11
166.595
21
-115.66
0
LINE
8
BLACK
6
CONTINUOUS
10
166.595
20
-115.66
11
166.599
21
-115.66
0
LINE
8
BLACK
6
CONTINUOUS
10
152.67
20
-115.81
11
152.67
21
-129.66
0
LINE
8
BLACK
6
CONTINUOUS
10
152.67
20
-129.66
11
166.52
21
-129.66
0
LINE
8
BLACK
6
CONTINUOUS
10
166.52
20
-129.66
11
166.52
21
-115.81
0
LINE
8
BLACK
6
CONTINUOUS
10
166.52
20
-115.81
11
152.67
21
-115.81
0
LINE
8
BLACK
6
CONTINUOUS
10
204.699
20
-103.87
11
204.71
21
-103.871
0
LINE
8
BLACK
6
CONTINUOUS
10
204.71
20
-103.871
11
204.724
21
-103.875
0
LINE
8
BLACK
6
CONTINUOUS
10
204.724
20
-103.875
11
204.737
21
-103.882
0
LINE
8
BLACK
6
CONTINUOUS
10
204.737
20
-103.882
11
204.748
21
-103.892
0
LINE
8
BLACK
6
CONTINUOUS
10
204.748
20
-103.892
11
204.758
21
-103.903
0
LINE
8
BLACK
6
CONTINUOUS
10
204.758
20
-103.903
11
204.765
21
-103.916
0
LINE
8
BLACK
6
CONTINUOUS
10
204.765
20
-103.916
11
204.769
21
-103.93
0
LINE
8
BLACK
6
CONTINUOUS
10
204.769
20
-103.93
11
204.77
21
-103.945
0
LINE
8
BLACK
6
CONTINUOUS
10
204.77
20
-103.945
11
204.77
21
-103.949
0
LINE
8
BLACK
6
CONTINUOUS
10
204.77
20
-103.949
11
204.77
21
-117.941
0
LINE
8
BLACK
6
CONTINUOUS
10
204.77
20
-117.941
11
204.77
21
-117.945
0
LINE
8
BLACK
6
CONTINUOUS
10
204.77
20
-117.945
11
204.769
21
-117.96
0
LINE
8
BLACK
6
CONTINUOUS
10
204.769
20
-117.96
11
204.765
21
-117.974
0
LINE
8
BLACK
6
CONTINUOUS
10
204.765
20
-117.974
11
204.758
21
-117.987
0
LINE
8
BLACK
6
CONTINUOUS
10
204.758
20
-117.987
11
204.748
21
-117.998
0
LINE
8
BLACK
6
CONTINUOUS
10
204.748
20
-117.998
11
204.737
21
-118.008
0
LINE
8
BLACK
6
CONTINUOUS
10
204.737
20
-118.008
11
204.724
21
-118.015
0
LINE
8
BLACK
6
CONTINUOUS
10
204.724
20
-118.015
11
204.71
21
-118.019
0
LINE
8
BLACK
6
CONTINUOUS
10
204.71
20
-118.019
11
204.699
21
-118.02
0
LINE
8
BLACK
6
CONTINUOUS
10
204.699
20
-118.02
11
204.695
21
-118.02
0
LINE
8
BLACK
6
CONTINUOUS
10
204.695
20
-118.02
11
204.691
21
-118.02
0
LINE
8
BLACK
6
CONTINUOUS
10
204.691
20
-118.02
11
190.699
21
-118.02
0
LINE
8
BLACK
6
CONTINUOUS
10
190.699
20
-118.02
11
190.695
21
-118.02
0
LINE
8
BLACK
6
CONTINUOUS
10
190.695
20
-118.02
11
190.68
21
-118.019
0
LINE
8
BLACK
6
CONTINUOUS
10
190.68
20
-118.019
11
190.666
21
-118.015
0
LINE
8
BLACK
6
CONTINUOUS
10
190.666
20
-118.015
11
190.653
21
-118.008
0
LINE
8
BLACK
6
CONTINUOUS
10
190.653
20
-118.008
11
190.642
21
-117.998
0
LINE
8
BLACK
6
CONTINUOUS
10
190.642
20
-117.998
11
190.632
21
-117.987
0
LINE
8
BLACK
6
CONTINUOUS
10
190.632
20
-117.987
11
190.625
21
-117.974
0
LINE
8
BLACK
6
CONTINUOUS
10
190.625
20
-117.974
11
190.621
21
-117.96
0
LINE
8
BLACK
6
CONTINUOUS
10
190.621
20
-117.96
11
190.62
21
-117.945
0
LINE
8
BLACK
6
CONTINUOUS
10
190.62
20
-117.945
11
190.62
21
-117.941
0
LINE
8
BLACK
6
CONTINUOUS
10
190.62
20
-117.941
11
190.62
21
-103.949
0
LINE
8
BLACK
6
CONTINUOUS
10
190.62
20
-103.949
11
190.62
21
-103.945
0
LINE
8
BLACK
6
CONTINUOUS
10
190.62
20
-103.945
11
190.621
21
-103.93
0
LINE
8
BLACK
6
CONTINUOUS
10
190.621
20
-103.93
11
190.625
21
-103.916
0
LINE
8
BLACK
6
CONTINUOUS
10
190.625
20
-103.916
11
190.632
21
-103.903
0
LINE
8
BLACK
6
CONTINUOUS
10
190.632
20
-103.903
11
190.642
21
-103.892
0
LINE
8
BLACK
6
CONTINUOUS
10
190.642
20
-103.892
11
190.653
21
-103.882
0
LINE
8
BLACK
6
CONTINUOUS
10
190.653
20
-103.882
11
190.666
21
-103.875
0
LINE
8
BLACK
6
CONTINUOUS
10
190.666
20
-103.875
11
190.68
21
-103.871
0
LINE
8
BLACK
6
CONTINUOUS
10
190.68
20
-103.871
11
190.691
21
-103.87
0
LINE
8
BLACK
6
CONTINUOUS
10
190.691
20
-103.87
11
190.695
21
-103.87
0
LINE
8
BLACK
6
CONTINUOUS
10
190.695
20
-103.87
11
190.699
21
-103.87
0
LINE
8
BLACK
6
CONTINUOUS
10
190.699
20
-103.87
11
204.691
21
-103.87
0
LINE
8
BLACK
6
CONTINUOUS
10
204.691
20
-103.87
11
204.695
21
-103.87
0
LINE
8
BLACK
6
CONTINUOUS
10
204.695
20
-103.87
11
204.699
21
-103.87
0
LINE
8
BLACK
6
CONTINUOUS
10
190.77
20
-104.02
11
190.77
21
-117.87
0
LINE
8
BLACK
6
CONTINUOUS
10
190.77
20
-117.87
11
204.62
21
-117.87
0
LINE
8
BLACK
6
CONTINUOUS
10
204.62
20
-117.87
11
204.62
21
-104.02
0
LINE
8
BLACK
6
CONTINUOUS
10
204.62
20
-104.02
11
190.77
21
-104.02
0
LINE
8
BLACK
6
CONTINUOUS
10
223.749
20
-103.87
11
223.76
21
-103.871
0
LINE
8
BLACK
6
CONTINUOUS
10
223.76
20
-103.871
11
223.774
21
-103.875
0
LINE
8
BLACK
6
CONTINUOUS
10
223.774
20
-103.875
11
223.787
21
-103.882
0
LINE
8
BLACK
6
CONTINUOUS
10
223.787
20
-103.882
11
223.798
21
-103.892
0
LINE
8
BLACK
6
CONTINUOUS
10
223.798
20
-103.892
11
223.808
21
-103.903
0
LINE
8
BLACK
6
CONTINUOUS
10
223.808
20
-103.903
11
223.815
21
-103.916
0
LINE
8
BLACK
6
CONTINUOUS
10
223.815
20
-103.916
11
223.819
21
-103.93
0
LINE
8
BLACK
6
CONTINUOUS
10
223.819
20
-103.93
11
223.82
21
-103.945
0
LINE
8
BLACK
6
CONTINUOUS
10
223.82
20
-103.945
11
223.82
21
-103.949
0
LINE
8
BLACK
6
CONTINUOUS
10
223.82
20
-103.949
11
223.82
21
-117.941
0
LINE
8
BLACK
6
CONTINUOUS
10
223.82
20
-117.941
11
223.82
21
-117.945
0
LINE
8
BLACK
6
CONTINUOUS
10
223.82
20
-117.945
11
223.819
21
-117.96
0
LINE
8
BLACK
6
CONTINUOUS
10
223.819
20
-117.96
11
223.815
21
-117.974
0
LINE
8
BLACK
6
CONTINUOUS
10
223.815
20
-117.974
11
223.808
21
-117.987
0
LINE
8
BLACK
6
CONTINUOUS
10
223.808
20
-117.987
11
223.798
21
-117.998
0
LINE
8
BLACK
6
CONTINUOUS
10
223.798
20
-117.998
11
223.787
21
-118.008
0
LINE
8
BLACK
6
CONTINUOUS
10
223.787
20
-118.008
11
223.774
21
-118.015
0
LINE
8
BLACK
6
CONTINUOUS
10
223.774
20
-118.015
11
223.76
21
-118.019
0
LINE
8
BLACK
6
CONTINUOUS
10
223.76
20
-118.019
11
223.749
21
-118.02
0
LINE
8
BLACK
6
CONTINUOUS
10
223.749
20
-118.02
11
223.745
21
-118.02
0
LINE
8
BLACK
6
CONTINUOUS
10
223.745
20
-118.02
11
223.741
21
-118.02
0
LINE
8
BLACK
6
CONTINUOUS
10
223.741
20
-118.02
11
209.749
21
-118.02
0
LINE
8
BLACK
6
CONTINUOUS
10
209.749
20
-118.02
11
209.745
21
-118.02
0
LINE
8
BLACK
6
CONTINUOUS
10
209.745
20
-118.02
11
209.73
21
-118.019
0
LINE
8
BLACK
6
CONTINUOUS
10
209.73
20
-118.019
11
209.716
21
-118.015
0
LINE
8
BLACK
6
CONTINUOUS
10
209.716
20
-118.015
11
209.703
21
-118.008
0
LINE
8
BLACK
6
CONTINUOUS
10
209.703
20
-118.008
11
209.692
21
-117.998
0
LINE
8
BLACK
6
CONTINUOUS
10
209.692
20
-117.998
11
209.682
21
-117.987
0
LINE
8
BLACK
6
CONTINUOUS
10
209.682
20
-117.987
11
209.675
21
-117.974
0
LINE
8
BLACK
6
CONTINUOUS
10
209.675
20
-117.974
11
209.671
21
-117.96
0
LINE
8
BLACK
6
CONTINUOUS
10
209.671
20
-117.96
11
209.67
21
-117.945
0
LINE
8
BLACK
6
CONTINUOUS
10
209.67
20
-117.945
11
209.67
21
-117.941
0
LINE
8
BLACK
6
CONTINUOUS
10
209.67
20
-117.941
11
209.67
21
-103.949
0
LINE
8
BLACK
6
CONTINUOUS
10
209.67
20
-103.949
11
209.67
21
-103.945
0
LINE
8
BLACK
6
CONTINUOUS
10
209.67
20
-103.945
11
209.671
21
-103.93
0
LINE
8
BLACK
6
CONTINUOUS
10
209.671
20
-103.93
11
209.675
21
-103.916
0
LINE
8
BLACK
6
CONTINUOUS
10
209.675
20
-103.916
11
209.682
21
-103.903
0
LINE
8
BLACK
6
CONTINUOUS
10
209.682
20
-103.903
11
209.692
21
-103.892
0
LINE
8
BLACK
6
CONTINUOUS
10
209.692
20
-103.892
11
209.703
21
-103.882
0
LINE
8
BLACK
6
CONTINUOUS
10
209.703
20
-103.882
11
209.716
21
-103.875
0
LINE
8
BLACK
6
CONTINUOUS
10
209.716
20
-103.875
11
209.73
21
-103.871
0
LINE
8
BLACK
6
CONTINUOUS
10
209.73
20
-103.871
11
209.741
21
-103.87
0
LINE
8
BLACK
6
CONTINUOUS
10
209.741
20
-103.87
11
209.745
21
-103.87
0
LINE
8
BLACK
6
CONTINUOUS
10
209.745
20
-103.87
11
209.749
21
-103.87
0
LINE
8
BLACK
6
CONTINUOUS
10
209.749
20
-103.87
11
223.741
21
-103.87
0
LINE
8
BLACK
6
CONTINUOUS
10
223.741
20
-103.87
11
223.745
21
-103.87
0
LINE
8
BLACK
6
CONTINUOUS
10
223.745
20
-103.87
11
223.749
21
-103.87
0
LINE
8
BLACK
6
CONTINUOUS
10
209.82
20
-104.02
11
209.82
21
-117.87
0
LINE
8
BLACK
6
CONTINUOUS
10
209.82
20
-117.87
11
223.67
21
-117.87
0
LINE
8
BLACK
6
CONTINUOUS
10
223.67
20
-117.87
11
223.67
21
-104.02
0
LINE
8
BLACK
6
CONTINUOUS
10
223.67
20
-104.02
11
209.82
21
-104.02
0
LINE
8
BLACK
6
CONTINUOUS
10
128.499
20
-101.47
11
128.51
21
-101.471
0
LINE
8
BLACK
6
CONTINUOUS
10
128.51
20
-101.471
11
128.524
21
-101.475
0
LINE
8
BLACK
6
CONTINUOUS
10
128.524
20
-101.475
11
128.537
21
-101.482
0
LINE
8
BLACK
6
CONTINUOUS
10
128.537
20
-101.482
11
128.548
21
-101.492
0
LINE
8
BLACK
6
CONTINUOUS
10
128.548
20
-101.492
11
128.558
21
-101.503
0
LINE
8
BLACK
6
CONTINUOUS
10
128.558
20
-101.503
11
128.565
21
-101.516
0
LINE
8
BLACK
6
CONTINUOUS
10
128.565
20
-101.516
11
128.569
21
-101.53
0
LINE
8
BLACK
6
CONTINUOUS
10
128.569
20
-101.53
11
128.57
21
-101.545
0
LINE
8
BLACK
6
CONTINUOUS
10
128.57
20
-101.545
11
128.57
21
-101.549
0
LINE
8
BLACK
6
CONTINUOUS
10
128.57
20
-101.549
11
128.57
21
-115.541
0
LINE
8
BLACK
6
CONTINUOUS
10
128.57
20
-115.541
11
128.57
21
-115.545
0
LINE
8
BLACK
6
CONTINUOUS
10
128.57
20
-115.545
11
128.569
21
-115.56
0
LINE
8
BLACK
6
CONTINUOUS
10
128.569
20
-115.56
11
128.565
21
-115.574
0
LINE
8
BLACK
6
CONTINUOUS
10
128.565
20
-115.574
11
128.558
21
-115.587
0
LINE
8
BLACK
6
CONTINUOUS
10
128.558
20
-115.587
11
128.548
21
-115.598
0
LINE
8
BLACK
6
CONTINUOUS
10
128.548
20
-115.598
11
128.537
21
-115.608
0
LINE
8
BLACK
6
CONTINUOUS
10
128.537
20
-115.608
11
128.524
21
-115.615
0
LINE
8
BLACK
6
CONTINUOUS
10
128.524
20
-115.615
11
128.51
21
-115.619
0
LINE
8
BLACK
6
CONTINUOUS
10
128.51
20
-115.619
11
128.499
21
-115.62
0
LINE
8
BLACK
6
CONTINUOUS
10
128.499
20
-115.62
11
128.495
21
-115.62
0
LINE
8
BLACK
6
CONTINUOUS
10
128.495
20
-115.62
11
128.491
21
-115.62
0
LINE
8
BLACK
6
CONTINUOUS
10
128.491
20
-115.62
11
114.499
21
-115.62
0
LINE
8
BLACK
6
CONTINUOUS
10
114.499
20
-115.62
11
114.495
21
-115.62
0
LINE
8
BLACK
6
CONTINUOUS
10
114.495
20
-115.62
11
114.48
21
-115.619
0
LINE
8
BLACK
6
CONTINUOUS
10
114.48
20
-115.619
11
114.466
21
-115.615
0
LINE
8
BLACK
6
CONTINUOUS
10
114.466
20
-115.615
11
114.453
21
-115.608
0
LINE
8
BLACK
6
CONTINUOUS
10
114.453
20
-115.608
11
114.442
21
-115.598
0
LINE
8
BLACK
6
CONTINUOUS
10
114.442
20
-115.598
11
114.432
21
-115.587
0
LINE
8
BLACK
6
CONTINUOUS
10
114.432
20
-115.587
11
114.425
21
-115.574
0
LINE
8
BLACK
6
CONTINUOUS
10
114.425
20
-115.574
11
114.421
21
-115.56
0
LINE
8
BLACK
6
CONTINUOUS
10
114.421
20
-115.56
11
114.42
21
-115.545
0
LINE
8
BLACK
6
CONTINUOUS
10
114.42
20
-115.545
11
114.42
21
-115.541
0
LINE
8
BLACK
6
CONTINUOUS
10
114.42
20
-115.541
11
114.42
21
-101.549
0
LINE
8
BLACK
6
CONTINUOUS
10
114.42
20
-101.549
11
114.42
21
-101.545
0
LINE
8
BLACK
6
CONTINUOUS
10
114.42
20
-101.545
11
114.421
21
-101.53
0
LINE
8
BLACK
6
CONTINUOUS
10
114.421
20
-101.53
11
114.425
21
-101.516
0
LINE
8
BLACK
6
CONTINUOUS
10
114.425
20
-101.516
11
114.432
21
-101.503
0
LINE
8
BLACK
6
CONTINUOUS
10
114.432
20
-101.503
11
114.442
21
-101.492
0
LINE
8
BLACK
6
CONTINUOUS
10
114.442
20
-101.492
11
114.453
21
-101.482
0
LINE
8
BLACK
6
CONTINUOUS
10
114.453
20
-101.482
11
114.466
21
-101.475
0
LINE
8
BLACK
6
CONTINUOUS
10
114.466
20
-101.475
11
114.48
21
-101.471
0
LINE
8
BLACK
6
CONTINUOUS
10
114.48
20
-101.471
11
114.491
21
-101.47
0
LINE
8
BLACK
6
CONTINUOUS
10
114.491
20
-101.47
11
114.495
21
-101.47
0
LINE
8
BLACK
6
CONTINUOUS
10
114.495
20
-101.47
11
114.499
21
-101.47
0
LINE
8
BLACK
6
CONTINUOUS
10
114.499
20
-101.47
11
128.491
21
-101.47
0
LINE
8
BLACK
6
CONTINUOUS
10
128.491
20
-101.47
11
128.495
21
-101.47
0
LINE
8
BLACK
6
CONTINUOUS
10
128.495
20
-101.47
11
128.499
21
-101.47
0
LINE
8
BLACK
6
CONTINUOUS
10
114.57
20
-101.62
11
114.57
21
-115.47
0
LINE
8
BLACK
6
CONTINUOUS
10
114.57
20
-115.47
11
128.42
21
-115.47
0
LINE
8
BLACK
6
CONTINUOUS
10
128.42
20
-115.47
11
128.42
21
-101.62
0
LINE
8
BLACK
6
CONTINUOUS
10
128.42
20
-101.62
11
114.57
21
-101.62
0
LINE
8
BLACK
6
CONTINUOUS
10
147.499
20
-99.07
11
147.51
21
-99.0711
0
LINE
8
BLACK
6
CONTINUOUS
10
147.51
20
-99.0711
11
147.524
21
-99.0754
0
LINE
8
BLACK
6
CONTINUOUS
10
147.524
20
-99.0754
11
147.537
21
-99.0823
0
LINE
8
BLACK
6
CONTINUOUS
10
147.537
20
-99.0823
11
147.548
21
-99.0917
0
LINE
8
BLACK
6
CONTINUOUS
10
147.548
20
-99.0917
11
147.558
21
-99.1031
0
LINE
8
BLACK
6
CONTINUOUS
10
147.558
20
-99.1031
11
147.565
21
-99.1162
0
LINE
8
BLACK
6
CONTINUOUS
10
147.565
20
-99.1162
11
147.569
21
-99.1303
0
LINE
8
BLACK
6
CONTINUOUS
10
147.569
20
-99.1303
11
147.57
21
-99.145
0
LINE
8
BLACK
6
CONTINUOUS
10
147.57
20
-99.145
11
147.57
21
-99.1487
0
LINE
8
BLACK
6
CONTINUOUS
10
147.57
20
-99.1487
11
147.57
21
-113.141
0
LINE
8
BLACK
6
CONTINUOUS
10
147.57
20
-113.141
11
147.57
21
-113.145
0
LINE
8
BLACK
6
CONTINUOUS
10
147.57
20
-113.145
11
147.569
21
-113.16
0
LINE
8
BLACK
6
CONTINUOUS
10
147.569
20
-113.16
11
147.565
21
-113.174
0
LINE
8
BLACK
6
CONTINUOUS
10
147.565
20
-113.174
11
147.558
21
-113.187
0
LINE
8
BLACK
6
CONTINUOUS
10
147.558
20
-113.187
11
147.548
21
-113.198
0
LINE
8
BLACK
6
CONTINUOUS
10
147.548
20
-113.198
11
147.537
21
-113.208
0
LINE
8
BLACK
6
CONTINUOUS
10
147.537
20
-113.208
11
147.524
21
-113.215
0
LINE
8
BLACK
6
CONTINUOUS
10
147.524
20
-113.215
11
147.51
21
-113.219
0
LINE
8
BLACK
6
CONTINUOUS
10
147.51
20
-113.219
11
147.499
21
-113.22
0
LINE
8
BLACK
6
CONTINUOUS
10
147.499
20
-113.22
11
147.495
21
-113.22
0
LINE
8
BLACK
6
CONTINUOUS
10
147.495
20
-113.22
11
147.491
21
-113.22
0
LINE
8
BLACK
6
CONTINUOUS
10
147.491
20
-113.22
11
133.499
21
-113.22
0
LINE
8
BLACK
6
CONTINUOUS
10
133.499
20
-113.22
11
133.495
21
-113.22
0
LINE
8
BLACK
6
CONTINUOUS
10
133.495
20
-113.22
11
133.48
21
-113.219
0
LINE
8
BLACK
6
CONTINUOUS
10
133.48
20
-113.219
11
133.466
21
-113.215
0
LINE
8
BLACK
6
CONTINUOUS
10
133.466
20
-113.215
11
133.453
21
-113.208
0
LINE
8
BLACK
6
CONTINUOUS
10
133.453
20
-113.208
11
133.442
21
-113.198
0
LINE
8
BLACK
6
CONTINUOUS
10
133.442
20
-113.198
11
133.432
21
-113.187
0
LINE
8
BLACK
6
CONTINUOUS
10
133.432
20
-113.187
11
133.425
21
-113.174
0
LINE
8
BLACK
6
CONTINUOUS
10
133.425
20
-113.174
11
133.421
21
-113.16
0
LINE
8
BLACK
6
CONTINUOUS
10
133.421
20
-113.16
11
133.42
21
-113.145
0
LINE
8
BLACK
6
CONTINUOUS
10
133.42
20
-113.145
11
133.42
21
-113.141
0
LINE
8
BLACK
6
CONTINUOUS
10
133.42
20
-113.141
11
133.42
21
-99.1487
0
LINE
8
BLACK
6
CONTINUOUS
10
133.42
20
-99.1487
11
133.42
21
-99.145
0
LINE
8
BLACK
6
CONTINUOUS
10
133.42
20
-99.145
11
133.421
21
-99.1303
0
LINE
8
BLACK
6
CONTINUOUS
10
133.421
20
-99.1303
11
133.425
21
-99.1162
0
LINE
8
BLACK
6
CONTINUOUS
10
133.425
20
-99.1162
11
133.432
21
-99.1031
0
LINE
8
BLACK
6
CONTINUOUS
10
133.432
20
-99.1031
11
133.442
21
-99.0917
0
LINE
8
BLACK
6
CONTINUOUS
10
133.442
20
-99.0917
11
133.453
21
-99.0823
0
LINE
8
BLACK
6
CONTINUOUS
10
133.453
20
-99.0823
11
133.466
21
-99.0754
0
LINE
8
BLACK
6
CONTINUOUS
10
133.466
20
-99.0754
11
133.48
21
-99.0711
0
LINE
8
BLACK
6
CONTINUOUS
10
133.48
20
-99.0711
11
133.491
21
-99.07
0
LINE
8
BLACK
6
CONTINUOUS
10
133.491
20
-99.07
11
133.495
21
-99.0696
0
LINE
8
BLACK
6
CONTINUOUS
10
133.495
20
-99.0696
11
133.499
21
-99.07
0
LINE
8
BLACK
6
CONTINUOUS
10
133.499
20
-99.07
11
147.491
21
-99.07
0
LINE
8
BLACK
6
CONTINUOUS
10
147.491
20
-99.07
11
147.495
21
-99.0696
0
LINE
8
BLACK
6
CONTINUOUS
10
147.495
20
-99.0696
11
147.499
21
-99.07
0
LINE
8
BLACK
6
CONTINUOUS
10
133.57
20
-99.22
11
133.57
21
-113.07
0
LINE
8
BLACK
6
CONTINUOUS
10
133.57
20
-113.07
11
147.42
21
-113.07
0
LINE
8
BLACK
6
CONTINUOUS
10
147.42
20
-113.07
11
147.42
21
-99.22
0
LINE
8
BLACK
6
CONTINUOUS
10
147.42
20
-99.22
11
133.57
21
-99.22
0
LINE
8
BLACK
6
CONTINUOUS
10
185.599
20
-99.07
11
185.61
21
-99.0711
0
LINE
8
BLACK
6
CONTINUOUS
10
185.61
20
-99.0711
11
185.624
21
-99.0754
0
LINE
8
BLACK
6
CONTINUOUS
10
185.624
20
-99.0754
11
185.637
21
-99.0823
0
LINE
8
BLACK
6
CONTINUOUS
10
185.637
20
-99.0823
11
185.648
21
-99.0917
0
LINE
8
BLACK
6
CONTINUOUS
10
185.648
20
-99.0917
11
185.658
21
-99.1031
0
LINE
8
BLACK
6
CONTINUOUS
10
185.658
20
-99.1031
11
185.665
21
-99.1162
0
LINE
8
BLACK
6
CONTINUOUS
10
185.665
20
-99.1162
11
185.669
21
-99.1303
0
LINE
8
BLACK
6
CONTINUOUS
10
185.669
20
-99.1303
11
185.67
21
-99.145
0
LINE
8
BLACK
6
CONTINUOUS
10
185.67
20
-99.145
11
185.67
21
-99.1487
0
LINE
8
BLACK
6
CONTINUOUS
10
185.67
20
-99.1487
11
185.67
21
-113.141
0
LINE
8
BLACK
6
CONTINUOUS
10
185.67
20
-113.141
11
185.67
21
-113.145
0
LINE
8
BLACK
6
CONTINUOUS
10
185.67
20
-113.145
11
185.669
21
-113.16
0
LINE
8
BLACK
6
CONTINUOUS
10
185.669
20
-113.16
11
185.665
21
-113.174
0
LINE
8
BLACK
6
CONTINUOUS
10
185.665
20
-113.174
11
185.658
21
-113.187
0
LINE
8
BLACK
6
CONTINUOUS
10
185.658
20
-113.187
11
185.648
21
-113.198
0
LINE
8
BLACK
6
CONTINUOUS
10
185.648
20
-113.198
11
185.637
21
-113.208
0
LINE
8
BLACK
6
CONTINUOUS
10
185.637
20
-113.208
11
185.624
21
-113.215
0
LINE
8
BLACK
6
CONTINUOUS
10
185.624
20
-113.215
11
185.61
21
-113.219
0
LINE
8
BLACK
6
CONTINUOUS
10
185.61
20
-113.219
11
185.599
21
-113.22
0
LINE
8
BLACK
6
CONTINUOUS
10
185.599
20
-113.22
11
185.595
21
-113.22
0
LINE
8
BLACK
6
CONTINUOUS
10
185.595
20
-113.22
11
185.591
21
-113.22
0
LINE
8
BLACK
6
CONTINUOUS
10
185.591
20
-113.22
11
171.599
21
-113.22
0
LINE
8
BLACK
6
CONTINUOUS
10
171.599
20
-113.22
11
171.595
21
-113.22
0
LINE
8
BLACK
6
CONTINUOUS
10
171.595
20
-113.22
11
171.58
21
-113.219
0
LINE
8
BLACK
6
CONTINUOUS
10
171.58
20
-113.219
11
171.566
21
-113.215
0
LINE
8
BLACK
6
CONTINUOUS
10
171.566
20
-113.215
11
171.553
21
-113.208
0
LINE
8
BLACK
6
CONTINUOUS
10
171.553
20
-113.208
11
171.542
21
-113.198
0
LINE
8
BLACK
6
CONTINUOUS
10
171.542
20
-113.198
11
171.532
21
-113.187
0
LINE
8
BLACK
6
CONTINUOUS
10
171.532
20
-113.187
11
171.525
21
-113.174
0
LINE
8
BLACK
6
CONTINUOUS
10
171.525
20
-113.174
11
171.521
21
-113.16
0
LINE
8
BLACK
6
CONTINUOUS
10
171.521
20
-113.16
11
171.52
21
-113.145
0
LINE
8
BLACK
6
CONTINUOUS
10
171.52
20
-113.145
11
171.52
21
-113.141
0
LINE
8
BLACK
6
CONTINUOUS
10
171.52
20
-113.141
11
171.52
21
-99.1487
0
LINE
8
BLACK
6
CONTINUOUS
10
171.52
20
-99.1487
11
171.52
21
-99.145
0
LINE
8
BLACK
6
CONTINUOUS
10
171.52
20
-99.145
11
171.521
21
-99.1303
0
LINE
8
BLACK
6
CONTINUOUS
10
171.521
20
-99.1303
11
171.525
21
-99.1162
0
LINE
8
BLACK
6
CONTINUOUS
10
171.525
20
-99.1162
11
171.532
21
-99.1031
0
LINE
8
BLACK
6
CONTINUOUS
10
171.532
20
-99.1031
11
171.542
21
-99.0917
0
LINE
8
BLACK
6
CONTINUOUS
10
171.542
20
-99.0917
11
171.553
21
-99.0823
0
LINE
8
BLACK
6
CONTINUOUS
10
171.553
20
-99.0823
11
171.566
21
-99.0754
0
LINE
8
BLACK
6
CONTINUOUS
10
171.566
20
-99.0754
11
171.58
21
-99.0711
0
LINE
8
BLACK
6
CONTINUOUS
10
171.58
20
-99.0711
11
171.591
21
-99.07
0
LINE
8
BLACK
6
CONTINUOUS
10
171.591
20
-99.07
11
171.595
21
-99.0696
0
LINE
8
BLACK
6
CONTINUOUS
10
171.595
20
-99.0696
11
171.599
21
-99.07
0
LINE
8
BLACK
6
CONTINUOUS
10
171.599
20
-99.07
11
185.591
21
-99.07
0
LINE
8
BLACK
6
CONTINUOUS
10
185.591
20
-99.07
11
185.595
21
-99.0696
0
LINE
8
BLACK
6
CONTINUOUS
10
185.595
20
-99.0696
11
185.599
21
-99.07
0
LINE
8
BLACK
6
CONTINUOUS
10
171.67
20
-99.22
11
171.67
21
-113.07
0
LINE
8
BLACK
6
CONTINUOUS
10
171.67
20
-113.07
11
185.52
21
-113.07
0
LINE
8
BLACK
6
CONTINUOUS
10
185.52
20
-113.07
11
185.52
21
-99.22
0
LINE
8
BLACK
6
CONTINUOUS
10
185.52
20
-99.22
11
171.67
21
-99.22
0
LINE
8
BLACK
6
CONTINUOUS
10
108.87
20
-111.945
11
108.869
21
-111.96
0
LINE
8
BLACK
6
CONTINUOUS
10
108.869
20
-111.96
11
108.865
21
-111.974
0
LINE
8
BLACK
6
CONTINUOUS
10
108.865
20
-111.974
11
108.858
21
-111.987
0
LINE
8
BLACK
6
CONTINUOUS
10
108.858
20
-111.987
11
108.848
21
-111.998
0
LINE
8
BLACK
6
CONTINUOUS
10
108.848
20
-111.998
11
108.837
21
-112.008
0
LINE
8
BLACK
6
CONTINUOUS
10
108.837
20
-112.008
11
108.824
21
-112.015
0
LINE
8
BLACK
6
CONTINUOUS
10
108.824
20
-112.015
11
108.81
21
-112.019
0
LINE
8
BLACK
6
CONTINUOUS
10
108.81
20
-112.019
11
108.799
21
-112.02
0
LINE
8
BLACK
6
CONTINUOUS
10
108.799
20
-112.02
11
108.795
21
-112.02
0
LINE
8
BLACK
6
CONTINUOUS
10
108.795
20
-112.02
11
108.791
21
-112.02
0
LINE
8
BLACK
6
CONTINUOUS
10
108.791
20
-112.02
11
93.1987
21
-112.02
0
LINE
8
BLACK
6
CONTINUOUS
10
93.1987
20
-112.02
11
93.195
21
-112.02
0
LINE
8
BLACK
6
CONTINUOUS
10
93.195
20
-112.02
11
93.1913
21
-112.02
0
LINE
8
BLACK
6
CONTINUOUS
10
93.1913
20
-112.02
11
93.1803
21
-112.019
0
LINE
8
BLACK
6
CONTINUOUS
10
93.1803
20
-112.019
11
93.1662
21
-112.015
0
LINE
8
BLACK
6
CONTINUOUS
10
93.1662
20
-112.015
11
93.1531
21
-112.008
0
LINE
8
BLACK
6
CONTINUOUS
10
93.1531
20
-112.008
11
93.1417
21
-111.998
0
LINE
8
BLACK
6
CONTINUOUS
10
93.1417
20
-111.998
11
93.1323
21
-111.987
0
LINE
8
BLACK
6
CONTINUOUS
10
93.1323
20
-111.987
11
93.1254
21
-111.974
0
LINE
8
BLACK
6
CONTINUOUS
10
93.1254
20
-111.974
11
93.1211
21
-111.96
0
LINE
8
BLACK
6
CONTINUOUS
10
93.1211
20
-111.96
11
93.1196
21
-111.945
0
LINE
8
BLACK
6
CONTINUOUS
10
93.1196
20
-111.945
11
93.12
21
-111.941
0
LINE
8
BLACK
6
CONTINUOUS
10
93.12
20
-111.941
11
93.12
21
-99.9487
0
LINE
8
BLACK
6
CONTINUOUS
10
93.12
20
-99.9487
11
93.1196
21
-99.945
0
LINE
8
BLACK
6
CONTINUOUS
10
93.1196
20
-99.945
11
93.1211
21
-99.9303
0
LINE
8
BLACK
6
CONTINUOUS
10
93.1211
20
-99.9303
11
93.1254
21
-99.9162
0
LINE
8
BLACK
6
CONTINUOUS
10
93.1254
20
-99.9162
11
93.1323
21
-99.9031
0
LINE
8
BLACK
6
CONTINUOUS
10
93.1323
20
-99.9031
11
93.1417
21
-99.8917
0
LINE
8
BLACK
6
CONTINUOUS
10
93.1417
20
-99.8917
11
93.1531
21
-99.8823
0
LINE
8
BLACK
6
CONTINUOUS
10
93.1531
20
-99.8823
11
93.1662
21
-99.8754
0
LINE
8
BLACK
6
CONTINUOUS
10
93.1662
20
-99.8754
11
93.1803
21
-99.8711
0
LINE
8
BLACK
6
CONTINUOUS
10
93.1803
20
-99.8711
11
93.1913
21
-99.87
0
LINE
8
BLACK
6
CONTINUOUS
10
93.1913
20
-99.87
11
93.195
21
-99.8696
0
LINE
8
BLACK
6
CONTINUOUS
10
93.195
20
-99.8696
11
93.1987
21
-99.87
0
LINE
8
BLACK
6
CONTINUOUS
10
93.1987
20
-99.87
11
108.791
21
-99.87
0
LINE
8
BLACK
6
CONTINUOUS
10
108.791
20
-99.87
11
108.795
21
-99.8696
0
LINE
8
BLACK
6
CONTINUOUS
10
108.795
20
-99.8696
11
108.799
21
-99.87
0
LINE
8
BLACK
6
CONTINUOUS
10
108.799
20
-99.87
11
108.81
21
-99.8711
0
LINE
8
BLACK
6
CONTINUOUS
10
108.81
20
-99.8711
11
108.824
21
-99.8754
0
LINE
8
BLACK
6
CONTINUOUS
10
108.824
20
-99.8754
11
108.837
21
-99.8823
0
LINE
8
BLACK
6
CONTINUOUS
10
108.837
20
-99.8823
11
108.848
21
-99.8917
0
LINE
8
BLACK
6
CONTINUOUS
10
108.848
20
-99.8917
11
108.858
21
-99.9031
0
LINE
8
BLACK
6
CONTINUOUS
10
108.858
20
-99.9031
11
108.865
21
-99.9162
0
LINE
8
BLACK
6
CONTINUOUS
10
108.865
20
-99.9162
11
108.869
21
-99.9303
0
LINE
8
BLACK
6
CONTINUOUS
10
108.869
20
-99.9303
11
108.87
21
-99.945
0
LINE
8
BLACK
6
CONTINUOUS
10
108.87
20
-99.945
11
108.87
21
-99.9487
0
LINE
8
BLACK
6
CONTINUOUS
10
108.87
20
-99.9487
11
108.87
21
-111.941
0
LINE
8
BLACK
6
CONTINUOUS
10
108.87
20
-111.941
11
108.87
21
-111.945
0
LINE
8
BLACK
6
CONTINUOUS
10
93.27
20
-100.02
11
93.27
21
-111.87
0
LINE
8
BLACK
6
CONTINUOUS
10
93.27
20
-111.87
11
108.72
21
-111.87
0
LINE
8
BLACK
6
CONTINUOUS
10
108.72
20
-111.87
11
108.72
21
-105.949
0
LINE
8
BLACK
6
CONTINUOUS
10
108.72
20
-105.949
11
108.72
21
-105.949
0
LINE
8
BLACK
6
CONTINUOUS
10
108.72
20
-105.949
11
108.72
21
-100.02
0
LINE
8
BLACK
6
CONTINUOUS
10
108.72
20
-100.02
11
93.27
21
-100.02
0
LINE
8
BLACK
6
CONTINUOUS
10
166.599
20
-96.56
11
166.61
21
-96.5611
0
LINE
8
BLACK
6
CONTINUOUS
10
166.61
20
-96.5611
11
166.624
21
-96.5654
0
LINE
8
BLACK
6
CONTINUOUS
10
166.624
20
-96.5654
11
166.637
21
-96.5723
0
LINE
8
BLACK
6
CONTINUOUS
10
166.637
20
-96.5723
11
166.648
21
-96.5817
0
LINE
8
BLACK
6
CONTINUOUS
10
166.648
20
-96.5817
11
166.658
21
-96.5931
0
LINE
8
BLACK
6
CONTINUOUS
10
166.658
20
-96.5931
11
166.665
21
-96.6062
0
LINE
8
BLACK
6
CONTINUOUS
10
166.665
20
-96.6062
11
166.669
21
-96.6203
0
LINE
8
BLACK
6
CONTINUOUS
10
166.669
20
-96.6203
11
166.67
21
-96.635
0
LINE
8
BLACK
6
CONTINUOUS
10
166.67
20
-96.635
11
166.67
21
-96.6387
0
LINE
8
BLACK
6
CONTINUOUS
10
166.67
20
-96.6387
11
166.67
21
-110.631
0
LINE
8
BLACK
6
CONTINUOUS
10
166.67
20
-110.631
11
166.67
21
-110.635
0
LINE
8
BLACK
6
CONTINUOUS
10
166.67
20
-110.635
11
166.669
21
-110.65
0
LINE
8
BLACK
6
CONTINUOUS
10
166.669
20
-110.65
11
166.665
21
-110.664
0
LINE
8
BLACK
6
CONTINUOUS
10
166.665
20
-110.664
11
166.658
21
-110.677
0
LINE
8
BLACK
6
CONTINUOUS
10
166.658
20
-110.677
11
166.648
21
-110.688
0
LINE
8
BLACK
6
CONTINUOUS
10
166.648
20
-110.688
11
166.637
21
-110.698
0
LINE
8
BLACK
6
CONTINUOUS
10
166.637
20
-110.698
11
166.624
21
-110.705
0
LINE
8
BLACK
6
CONTINUOUS
10
166.624
20
-110.705
11
166.61
21
-110.709
0
LINE
8
BLACK
6
CONTINUOUS
10
166.61
20
-110.709
11
166.599
21
-110.71
0
LINE
8
BLACK
6
CONTINUOUS
10
166.599
20
-110.71
11
166.595
21
-110.71
0
LINE
8
BLACK
6
CONTINUOUS
10
166.595
20
-110.71
11
166.591
21
-110.71
0
LINE
8
BLACK
6
CONTINUOUS
10
166.591
20
-110.71
11
152.599
21
-110.71
0
LINE
8
BLACK
6
CONTINUOUS
10
152.599
20
-110.71
11
152.595
21
-110.71
0
LINE
8
BLACK
6
CONTINUOUS
10
152.595
20
-110.71
11
152.58
21
-110.709
0
LINE
8
BLACK
6
CONTINUOUS
10
152.58
20
-110.709
11
152.566
21
-110.705
0
LINE
8
BLACK
6
CONTINUOUS
10
152.566
20
-110.705
11
152.553
21
-110.698
0
LINE
8
BLACK
6
CONTINUOUS
10
152.553
20
-110.698
11
152.542
21
-110.688
0
LINE
8
BLACK
6
CONTINUOUS
10
152.542
20
-110.688
11
152.532
21
-110.677
0
LINE
8
BLACK
6
CONTINUOUS
10
152.532
20
-110.677
11
152.525
21
-110.664
0
LINE
8
BLACK
6
CONTINUOUS
10
152.525
20
-110.664
11
152.521
21
-110.65
0
LINE
8
BLACK
6
CONTINUOUS
10
152.521
20
-110.65
11
152.52
21
-110.635
0
LINE
8
BLACK
6
CONTINUOUS
10
152.52
20
-110.635
11
152.52
21
-110.631
0
LINE
8
BLACK
6
CONTINUOUS
10
152.52
20
-110.631
11
152.52
21
-96.6387
0
LINE
8
BLACK
6
CONTINUOUS
10
152.52
20
-96.6387
11
152.52
21
-96.635
0
LINE
8
BLACK
6
CONTINUOUS
10
152.52
20
-96.635
11
152.521
21
-96.6203
0
LINE
8
BLACK
6
CONTINUOUS
10
152.521
20
-96.6203
11
152.525
21
-96.6062
0
LINE
8
BLACK
6
CONTINUOUS
10
152.525
20
-96.6062
11
152.532
21
-96.5931
0
LINE
8
BLACK
6
CONTINUOUS
10
152.532
20
-96.5931
11
152.542
21
-96.5817
0
LINE
8
BLACK
6
CONTINUOUS
10
152.542
20
-96.5817
11
152.553
21
-96.5723
0
LINE
8
BLACK
6
CONTINUOUS
10
152.553
20
-96.5723
11
152.566
21
-96.5654
0
LINE
8
BLACK
6
CONTINUOUS
10
152.566
20
-96.5654
11
152.58
21
-96.5611
0
LINE
8
BLACK
6
CONTINUOUS
10
152.58
20
-96.5611
11
152.591
21
-96.56
0
LINE
8
BLACK
6
CONTINUOUS
10
152.591
20
-96.56
11
152.595
21
-96.5596
0
LINE
8
BLACK
6
CONTINUOUS
10
152.595
20
-96.5596
11
152.599
21
-96.56
0
LINE
8
BLACK
6
CONTINUOUS
10
152.599
20
-96.56
11
166.591
21
-96.56
0
LINE
8
BLACK
6
CONTINUOUS
10
166.591
20
-96.56
11
166.595
21
-96.5596
0
LINE
8
BLACK
6
CONTINUOUS
10
166.595
20
-96.5596
11
166.599
21
-96.56
0
LINE
8
BLACK
6
CONTINUOUS
10
152.67
20
-96.71
11
152.67
21
-110.56
0
LINE
8
BLACK
6
CONTINUOUS
10
152.67
20
-110.56
11
166.52
21
-110.56
0
LINE
8
BLACK
6
CONTINUOUS
10
166.52
20
-110.56
11
166.52
21
-96.71
0
LINE
8
BLACK
6
CONTINUOUS
10
166.52
20
-96.71
11
152.67
21
-96.71
0
LINE
8
BLACK
6
CONTINUOUS
10
204.699
20
-84.87
11
204.71
21
-84.8711
0
LINE
8
BLACK
6
CONTINUOUS
10
204.71
20
-84.8711
11
204.724
21
-84.8754
0
LINE
8
BLACK
6
CONTINUOUS
10
204.724
20
-84.8754
11
204.737
21
-84.8823
0
LINE
8
BLACK
6
CONTINUOUS
10
204.737
20
-84.8823
11
204.748
21
-84.8917
0
LINE
8
BLACK
6
CONTINUOUS
10
204.748
20
-84.8917
11
204.758
21
-84.9031
0
LINE
8
BLACK
6
CONTINUOUS
10
204.758
20
-84.9031
11
204.765
21
-84.9162
0
LINE
8
BLACK
6
CONTINUOUS
10
204.765
20
-84.9162
11
204.769
21
-84.9303
0
LINE
8
BLACK
6
CONTINUOUS
10
204.769
20
-84.9303
11
204.77
21
-84.945
0
LINE
8
BLACK
6
CONTINUOUS
10
204.77
20
-84.945
11
204.77
21
-84.9487
0
LINE
8
BLACK
6
CONTINUOUS
10
204.77
20
-84.9487
11
204.77
21
-98.9413
0
LINE
8
BLACK
6
CONTINUOUS
10
204.77
20
-98.9413
11
204.77
21
-98.945
0
LINE
8
BLACK
6
CONTINUOUS
10
204.77
20
-98.945
11
204.769
21
-98.9597
0
LINE
8
BLACK
6
CONTINUOUS
10
204.769
20
-98.9597
11
204.765
21
-98.9738
0
LINE
8
BLACK
6
CONTINUOUS
10
204.765
20
-98.9738
11
204.758
21
-98.9869
0
LINE
8
BLACK
6
CONTINUOUS
10
204.758
20
-98.9869
11
204.748
21
-98.9983
0
LINE
8
BLACK
6
CONTINUOUS
10
204.748
20
-98.9983
11
204.737
21
-99.0077
0
LINE
8
BLACK
6
CONTINUOUS
10
204.737
20
-99.0077
11
204.724
21
-99.0146
0
LINE
8
BLACK
6
CONTINUOUS
10
204.724
20
-99.0146
11
204.71
21
-99.0189
0
LINE
8
BLACK
6
CONTINUOUS
10
204.71
20
-99.0189
11
204.699
21
-99.02
0
LINE
8
BLACK
6
CONTINUOUS
10
204.699
20
-99.02
11
204.695
21
-99.0204
0
LINE
8
BLACK
6
CONTINUOUS
10
204.695
20
-99.0204
11
204.691
21
-99.02
0
LINE
8
BLACK
6
CONTINUOUS
10
204.691
20
-99.02
11
190.699
21
-99.02
0
LINE
8
BLACK
6
CONTINUOUS
10
190.699
20
-99.02
11
190.695
21
-99.0204
0
LINE
8
BLACK
6
CONTINUOUS
10
190.695
20
-99.0204
11
190.68
21
-99.0189
0
LINE
8
BLACK
6
CONTINUOUS
10
190.68
20
-99.0189
11
190.666
21
-99.0146
0
LINE
8
BLACK
6
CONTINUOUS
10
190.666
20
-99.0146
11
190.653
21
-99.0077
0
LINE
8
BLACK
6
CONTINUOUS
10
190.653
20
-99.0077
11
190.642
21
-98.9983
0
LINE
8
BLACK
6
CONTINUOUS
10
190.642
20
-98.9983
11
190.632
21
-98.9869
0
LINE
8
BLACK
6
CONTINUOUS
10
190.632
20
-98.9869
11
190.625
21
-98.9738
0
LINE
8
BLACK
6
CONTINUOUS
10
190.625
20
-98.9738
11
190.621
21
-98.9597
0
LINE
8
BLACK
6
CONTINUOUS
10
190.621
20
-98.9597
11
190.62
21
-98.945
0
LINE
8
BLACK
6
CONTINUOUS
10
190.62
20
-98.945
11
190.62
21
-98.9413
0
LINE
8
BLACK
6
CONTINUOUS
10
190.62
20
-98.9413
11
190.62
21
-84.9487
0
LINE
8
BLACK
6
CONTINUOUS
10
190.62
20
-84.9487
11
190.62
21
-84.945
0
LINE
8
BLACK
6
CONTINUOUS
10
190.62
20
-84.945
11
190.621
21
-84.9303
0
LINE
8
BLACK
6
CONTINUOUS
10
190.621
20
-84.9303
11
190.625
21
-84.9162
0
LINE
8
BLACK
6
CONTINUOUS
10
190.625
20
-84.9162
11
190.632
21
-84.9031
0
LINE
8
BLACK
6
CONTINUOUS
10
190.632
20
-84.9031
11
190.642
21
-84.8917
0
LINE
8
BLACK
6
CONTINUOUS
10
190.642
20
-84.8917
11
190.653
21
-84.8823
0
LINE
8
BLACK
6
CONTINUOUS
10
190.653
20
-84.8823
11
190.666
21
-84.8754
0
LINE
8
BLACK
6
CONTINUOUS
10
190.666
20
-84.8754
11
190.68
21
-84.8711
0
LINE
8
BLACK
6
CONTINUOUS
10
190.68
20
-84.8711
11
190.691
21
-84.87
0
LINE
8
BLACK
6
CONTINUOUS
10
190.691
20
-84.87
11
190.695
21
-84.8696
0
LINE
8
BLACK
6
CONTINUOUS
10
190.695
20
-84.8696
11
190.699
21
-84.87
0
LINE
8
BLACK
6
CONTINUOUS
10
190.699
20
-84.87
11
204.691
21
-84.87
0
LINE
8
BLACK
6
CONTINUOUS
10
204.691
20
-84.87
11
204.695
21
-84.8696
0
LINE
8
BLACK
6
CONTINUOUS
10
204.695
20
-84.8696
11
204.699
21
-84.87
0
LINE
8
BLACK
6
CONTINUOUS
10
190.77
20
-85.02
11
190.77
21
-98.87
0
LINE
8
BLACK
6
CONTINUOUS
10
190.77
20
-98.87
11
204.62
21
-98.87
0
LINE
8
BLACK
6
CONTINUOUS
10
204.62
20
-98.87
11
204.62
21
-85.02
0
LINE
8
BLACK
6
CONTINUOUS
10
204.62
20
-85.02
11
190.77
21
-85.02
0
LINE
8
BLACK
6
CONTINUOUS
10
223.699
20
-84.87
11
223.71
21
-84.8711
0
LINE
8
BLACK
6
CONTINUOUS
10
223.71
20
-84.8711
11
223.724
21
-84.8754
0
LINE
8
BLACK
6
CONTINUOUS
10
223.724
20
-84.8754
11
223.737
21
-84.8823
0
LINE
8
BLACK
6
CONTINUOUS
10
223.737
20
-84.8823
11
223.748
21
-84.8917
0
LINE
8
BLACK
6
CONTINUOUS
10
223.748
20
-84.8917
11
223.758
21
-84.9031
0
LINE
8
BLACK
6
CONTINUOUS
10
223.758
20
-84.9031
11
223.765
21
-84.9162
0
LINE
8
BLACK
6
CONTINUOUS
10
223.765
20
-84.9162
11
223.769
21
-84.9303
0
LINE
8
BLACK
6
CONTINUOUS
10
223.769
20
-84.9303
11
223.77
21
-84.945
0
LINE
8
BLACK
6
CONTINUOUS
10
223.77
20
-84.945
11
223.77
21
-84.9487
0
LINE
8
BLACK
6
CONTINUOUS
10
223.77
20
-84.9487
11
223.77
21
-98.9413
0
LINE
8
BLACK
6
CONTINUOUS
10
223.77
20
-98.9413
11
223.77
21
-98.945
0
LINE
8
BLACK
6
CONTINUOUS
10
223.77
20
-98.945
11
223.769
21
-98.9597
0
LINE
8
BLACK
6
CONTINUOUS
10
223.769
20
-98.9597
11
223.765
21
-98.9738
0
LINE
8
BLACK
6
CONTINUOUS
10
223.765
20
-98.9738
11
223.758
21
-98.9869
0
LINE
8
BLACK
6
CONTINUOUS
10
223.758
20
-98.9869
11
223.748
21
-98.9983
0
LINE
8
BLACK
6
CONTINUOUS
10
223.748
20
-98.9983
11
223.737
21
-99.0077
0
LINE
8
BLACK
6
CONTINUOUS
10
223.737
20
-99.0077
11
223.724
21
-99.0146
0
LINE
8
BLACK
6
CONTINUOUS
10
223.724
20
-99.0146
11
223.71
21
-99.0189
0
LINE
8
BLACK
6
CONTINUOUS
10
223.71
20
-99.0189
11
223.699
21
-99.02
0
LINE
8
BLACK
6
CONTINUOUS
10
223.699
20
-99.02
11
223.695
21
-99.0204
0
LINE
8
BLACK
6
CONTINUOUS
10
223.695
20
-99.0204
11
223.691
21
-99.02
0
LINE
8
BLACK
6
CONTINUOUS
10
223.691
20
-99.02
11
209.699
21
-99.02
0
LINE
8
BLACK
6
CONTINUOUS
10
209.699
20
-99.02
11
209.695
21
-99.0204
0
LINE
8
BLACK
6
CONTINUOUS
10
209.695
20
-99.0204
11
209.68
21
-99.0189
0
LINE
8
BLACK
6
CONTINUOUS
10
209.68
20
-99.0189
11
209.666
21
-99.0146
0
LINE
8
BLACK
6
CONTINUOUS
10
209.666
20
-99.0146
11
209.653
21
-99.0077
0
LINE
8
BLACK
6
CONTINUOUS
10
209.653
20
-99.0077
11
209.642
21
-98.9983
0
LINE
8
BLACK
6
CONTINUOUS
10
209.642
20
-98.9983
11
209.632
21
-98.9869
0
LINE
8
BLACK
6
CONTINUOUS
10
209.632
20
-98.9869
11
209.625
21
-98.9738
0
LINE
8
BLACK
6
CONTINUOUS
10
209.625
20
-98.9738
11
209.621
21
-98.9597
0
LINE
8
BLACK
6
CONTINUOUS
10
209.621
20
-98.9597
11
209.62
21
-98.945
0
LINE
8
BLACK
6
CONTINUOUS
10
209.62
20
-98.945
11
209.62
21
-98.9413
0
LINE
8
BLACK
6
CONTINUOUS
10
209.62
20
-98.9413
11
209.62
21
-84.9487
0
LINE
8
BLACK
6
CONTINUOUS
10
209.62
20
-84.9487
11
209.62
21
-84.945
0
LINE
8
BLACK
6
CONTINUOUS
10
209.62
20
-84.945
11
209.621
21
-84.9303
0
LINE
8
BLACK
6
CONTINUOUS
10
209.621
20
-84.9303
11
209.625
21
-84.9162
0
LINE
8
BLACK
6
CONTINUOUS
10
209.625
20
-84.9162
11
209.632
21
-84.9031
0
LINE
8
BLACK
6
CONTINUOUS
10
209.632
20
-84.9031
11
209.642
21
-84.8917
0
LINE
8
BLACK
6
CONTINUOUS
10
209.642
20
-84.8917
11
209.653
21
-84.8823
0
LINE
8
BLACK
6
CONTINUOUS
10
209.653
20
-84.8823
11
209.666
21
-84.8754
0
LINE
8
BLACK
6
CONTINUOUS
10
209.666
20
-84.8754
11
209.68
21
-84.8711
0
LINE
8
BLACK
6
CONTINUOUS
10
209.68
20
-84.8711
11
209.691
21
-84.87
0
LINE
8
BLACK
6
CONTINUOUS
10
209.691
20
-84.87
11
209.695
21
-84.8696
0
LINE
8
BLACK
6
CONTINUOUS
10
209.695
20
-84.8696
11
209.699
21
-84.87
0
LINE
8
BLACK
6
CONTINUOUS
10
209.699
20
-84.87
11
223.691
21
-84.87
0
LINE
8
BLACK
6
CONTINUOUS
10
223.691
20
-84.87
11
223.695
21
-84.8696
0
LINE
8
BLACK
6
CONTINUOUS
10
223.695
20
-84.8696
11
223.699
21
-84.87
0
LINE
8
BLACK
6
CONTINUOUS
10
209.77
20
-85.02
11
209.77
21
-98.87
0
LINE
8
BLACK
6
CONTINUOUS
10
209.77
20
-98.87
11
223.62
21
-98.87
0
LINE
8
BLACK
6
CONTINUOUS
10
223.62
20
-98.87
11
223.62
21
-85.02
0
LINE
8
BLACK
6
CONTINUOUS
10
223.62
20
-85.02
11
209.77
21
-85.02
0
LINE
8
BLACK
6
CONTINUOUS
10
128.499
20
-82.47
11
128.51
21
-82.4711
0
LINE
8
BLACK
6
CONTINUOUS
10
128.51
20
-82.4711
11
128.524
21
-82.4754
0
LINE
8
BLACK
6
CONTINUOUS
10
128.524
20
-82.4754
11
128.537
21
-82.4823
0
LINE
8
BLACK
6
CONTINUOUS
10
128.537
20
-82.4823
11
128.548
21
-82.4917
0
LINE
8
BLACK
6
CONTINUOUS
10
128.548
20
-82.4917
11
128.558
21
-82.5031
0
LINE
8
BLACK
6
CONTINUOUS
10
128.558
20
-82.5031
11
128.565
21
-82.5162
0
LINE
8
BLACK
6
CONTINUOUS
10
128.565
20
-82.5162
11
128.569
21
-82.5303
0
LINE
8
BLACK
6
CONTINUOUS
10
128.569
20
-82.5303
11
128.57
21
-82.545
0
LINE
8
BLACK
6
CONTINUOUS
10
128.57
20
-82.545
11
128.57
21
-82.5487
0
LINE
8
BLACK
6
CONTINUOUS
10
128.57
20
-82.5487
11
128.57
21
-96.5413
0
LINE
8
BLACK
6
CONTINUOUS
10
128.57
20
-96.5413
11
128.57
21
-96.545
0
LINE
8
BLACK
6
CONTINUOUS
10
128.57
20
-96.545
11
128.569
21
-96.5597
0
LINE
8
BLACK
6
CONTINUOUS
10
128.569
20
-96.5597
11
128.565
21
-96.5738
0
LINE
8
BLACK
6
CONTINUOUS
10
128.565
20
-96.5738
11
128.558
21
-96.5869
0
LINE
8
BLACK
6
CONTINUOUS
10
128.558
20
-96.5869
11
128.548
21
-96.5983
0
LINE
8
BLACK
6
CONTINUOUS
10
128.548
20
-96.5983
11
128.537
21
-96.6077
0
LINE
8
BLACK
6
CONTINUOUS
10
128.537
20
-96.6077
11
128.524
21
-96.6146
0
LINE
8
BLACK
6
CONTINUOUS
10
128.524
20
-96.6146
11
128.51
21
-96.6189
0
LINE
8
BLACK
6
CONTINUOUS
10
128.51
20
-96.6189
11
128.499
21
-96.62
0
LINE
8
BLACK
6
CONTINUOUS
10
128.499
20
-96.62
11
128.495
21
-96.6204
0
LINE
8
BLACK
6
CONTINUOUS
10
128.495
20
-96.6204
11
128.491
21
-96.62
0
LINE
8
BLACK
6
CONTINUOUS
10
128.491
20
-96.62
11
114.499
21
-96.62
0
LINE
8
BLACK
6
CONTINUOUS
10
114.499
20
-96.62
11
114.495
21
-96.6204
0
LINE
8
BLACK
6
CONTINUOUS
10
114.495
20
-96.6204
11
114.48
21
-96.6189
0
LINE
8
BLACK
6
CONTINUOUS
10
114.48
20
-96.6189
11
114.466
21
-96.6146
0
LINE
8
BLACK
6
CONTINUOUS
10
114.466
20
-96.6146
11
114.453
21
-96.6077
0
LINE
8
BLACK
6
CONTINUOUS
10
114.453
20
-96.6077
11
114.442
21
-96.5983
0
LINE
8
BLACK
6
CONTINUOUS
10
114.442
20
-96.5983
11
114.437
21
-96.5931
0
LINE
8
BLACK
6
CONTINUOUS
10
114.437
20
-96.5931
11
114.432
21
-96.5869
0
LINE
8
BLACK
6
CONTINUOUS
10
114.432
20
-96.5869
11
114.425
21
-96.5738
0
LINE
8
BLACK
6
CONTINUOUS
10
114.425
20
-96.5738
11
114.421
21
-96.5597
0
LINE
8
BLACK
6
CONTINUOUS
10
114.421
20
-96.5597
11
114.42
21
-96.545
0
LINE
8
BLACK
6
CONTINUOUS
10
114.42
20
-96.545
11
114.42
21
-96.5413
0
LINE
8
BLACK
6
CONTINUOUS
10
114.42
20
-96.5413
11
114.42
21
-82.5487
0
LINE
8
BLACK
6
CONTINUOUS
10
114.42
20
-82.5487
11
114.42
21
-82.545
0
LINE
8
BLACK
6
CONTINUOUS
10
114.42
20
-82.545
11
114.421
21
-82.5303
0
LINE
8
BLACK
6
CONTINUOUS
10
114.421
20
-82.5303
11
114.425
21
-82.5162
0
LINE
8
BLACK
6
CONTINUOUS
10
114.425
20
-82.5162
11
114.432
21
-82.5031
0
LINE
8
BLACK
6
CONTINUOUS
10
114.432
20
-82.5031
11
114.442
21
-82.4917
0
LINE
8
BLACK
6
CONTINUOUS
10
114.442
20
-82.4917
11
114.453
21
-82.4823
0
LINE
8
BLACK
6
CONTINUOUS
10
114.453
20
-82.4823
11
114.466
21
-82.4754
0
LINE
8
BLACK
6
CONTINUOUS
10
114.466
20
-82.4754
11
114.48
21
-82.4711
0
LINE
8
BLACK
6
CONTINUOUS
10
114.48
20
-82.4711
11
114.491
21
-82.47
0
LINE
8
BLACK
6
CONTINUOUS
10
114.491
20
-82.47
11
114.495
21
-82.4696
0
LINE
8
BLACK
6
CONTINUOUS
10
114.495
20
-82.4696
11
114.499
21
-82.47
0
LINE
8
BLACK
6
CONTINUOUS
10
114.499
20
-82.47
11
128.491
21
-82.47
0
LINE
8
BLACK
6
CONTINUOUS
10
128.491
20
-82.47
11
128.495
21
-82.4696
0
LINE
8
BLACK
6
CONTINUOUS
10
128.495
20
-82.4696
11
128.499
21
-82.47
0
LINE
8
BLACK
6
CONTINUOUS
10
114.57
20
-82.62
11
114.57
21
-96.47
0
LINE
8
BLACK
6
CONTINUOUS
10
114.57
20
-96.47
11
128.42
21
-96.47
0
LINE
8
BLACK
6
CONTINUOUS
10
128.42
20
-96.47
11
128.42
21
-82.62
0
LINE
8
BLACK
6
CONTINUOUS
10
128.42
20
-82.62
11
114.57
21
-82.62
0
LINE
8
BLACK
6
CONTINUOUS
10
185.599
20
-79.97
11
185.61
21
-79.9711
0
LINE
8
BLACK
6
CONTINUOUS
10
185.61
20
-79.9711
11
185.624
21
-79.9754
0
LINE
8
BLACK
6
CONTINUOUS
10
185.624
20
-79.9754
11
185.637
21
-79.9823
0
LINE
8
BLACK
6
CONTINUOUS
10
185.637
20
-79.9823
11
185.648
21
-79.9917
0
LINE
8
BLACK
6
CONTINUOUS
10
185.648
20
-79.9917
11
185.658
21
-80.0031
0
LINE
8
BLACK
6
CONTINUOUS
10
185.658
20
-80.0031
11
185.665
21
-80.0162
0
LINE
8
BLACK
6
CONTINUOUS
10
185.665
20
-80.0162
11
185.669
21
-80.0303
0
LINE
8
BLACK
6
CONTINUOUS
10
185.669
20
-80.0303
11
185.67
21
-80.045
0
LINE
8
BLACK
6
CONTINUOUS
10
185.67
20
-80.045
11
185.67
21
-80.0487
0
LINE
8
BLACK
6
CONTINUOUS
10
185.67
20
-80.0487
11
185.67
21
-94.0413
0
LINE
8
BLACK
6
CONTINUOUS
10
185.67
20
-94.0413
11
185.67
21
-94.045
0
LINE
8
BLACK
6
CONTINUOUS
10
185.67
20
-94.045
11
185.669
21
-94.0597
0
LINE
8
BLACK
6
CONTINUOUS
10
185.669
20
-94.0597
11
185.665
21
-94.0738
0
LINE
8
BLACK
6
CONTINUOUS
10
185.665
20
-94.0738
11
185.658
21
-94.0869
0
LINE
8
BLACK
6
CONTINUOUS
10
185.658
20
-94.0869
11
185.648
21
-94.0983
0
LINE
8
BLACK
6
CONTINUOUS
10
185.648
20
-94.0983
11
185.637
21
-94.1077
0
LINE
8
BLACK
6
CONTINUOUS
10
185.637
20
-94.1077
11
185.624
21
-94.1146
0
LINE
8
BLACK
6
CONTINUOUS
10
185.624
20
-94.1146
11
185.61
21
-94.1189
0
LINE
8
BLACK
6
CONTINUOUS
10
185.61
20
-94.1189
11
185.599
21
-94.12
0
LINE
8
BLACK
6
CONTINUOUS
10
185.599
20
-94.12
11
185.595
21
-94.1204
0
LINE
8
BLACK
6
CONTINUOUS
10
185.595
20
-94.1204
11
185.591
21
-94.12
0
LINE
8
BLACK
6
CONTINUOUS
10
185.591
20
-94.12
11
171.599
21
-94.12
0
LINE
8
BLACK
6
CONTINUOUS
10
171.599
20
-94.12
11
171.595
21
-94.1204
0
LINE
8
BLACK
6
CONTINUOUS
10
171.595
20
-94.1204
11
171.58
21
-94.1189
0
LINE
8
BLACK
6
CONTINUOUS
10
171.58
20
-94.1189
11
171.566
21
-94.1146
0
LINE
8
BLACK
6
CONTINUOUS
10
171.566
20
-94.1146
11
171.553
21
-94.1077
0
LINE
8
BLACK
6
CONTINUOUS
10
171.553
20
-94.1077
11
171.542
21
-94.0983
0
LINE
8
BLACK
6
CONTINUOUS
10
171.542
20
-94.0983
11
171.532
21
-94.0869
0
LINE
8
BLACK
6
CONTINUOUS
10
171.532
20
-94.0869
11
171.525
21
-94.0738
0
LINE
8
BLACK
6
CONTINUOUS
10
171.525
20
-94.0738
11
171.521
21
-94.0597
0
LINE
8
BLACK
6
CONTINUOUS
10
171.521
20
-94.0597
11
171.52
21
-94.045
0
LINE
8
BLACK
6
CONTINUOUS
10
171.52
20
-94.045
11
171.52
21
-94.0413
0
LINE
8
BLACK
6
CONTINUOUS
10
171.52
20
-94.0413
11
171.52
21
-80.0487
0
LINE
8
BLACK
6
CONTINUOUS
10
171.52
20
-80.0487
11
171.52
21
-80.045
0
LINE
8
BLACK
6
CONTINUOUS
10
171.52
20
-80.045
11
171.521
21
-80.0303
0
LINE
8
BLACK
6
CONTINUOUS
10
171.521
20
-80.0303
11
171.525
21
-80.0162
0
LINE
8
BLACK
6
CONTINUOUS
10
171.525
20
-80.0162
11
171.532
21
-80.0031
0
LINE
8
BLACK
6
CONTINUOUS
10
171.532
20
-80.0031
11
171.542
21
-79.9917
0
LINE
8
BLACK
6
CONTINUOUS
10
171.542
20
-79.9917
11
171.553
21
-79.9823
0
LINE
8
BLACK
6
CONTINUOUS
10
171.553
20
-79.9823
11
171.566
21
-79.9754
0
LINE
8
BLACK
6
CONTINUOUS
10
171.566
20
-79.9754
11
171.58
21
-79.9711
0
LINE
8
BLACK
6
CONTINUOUS
10
171.58
20
-79.9711
11
171.591
21
-79.97
0
LINE
8
BLACK
6
CONTINUOUS
10
171.591
20
-79.97
11
171.595
21
-79.9696
0
LINE
8
BLACK
6
CONTINUOUS
10
171.595
20
-79.9696
11
171.599
21
-79.97
0
LINE
8
BLACK
6
CONTINUOUS
10
171.599
20
-79.97
11
185.591
21
-79.97
0
LINE
8
BLACK
6
CONTINUOUS
10
185.591
20
-79.97
11
185.595
21
-79.9696
0
LINE
8
BLACK
6
CONTINUOUS
10
185.595
20
-79.9696
11
185.599
21
-79.97
0
LINE
8
BLACK
6
CONTINUOUS
10
171.67
20
-80.12
11
171.67
21
-93.97
0
LINE
8
BLACK
6
CONTINUOUS
10
171.67
20
-93.97
11
185.52
21
-93.97
0
LINE
8
BLACK
6
CONTINUOUS
10
185.52
20
-93.97
11
185.52
21
-80.12
0
LINE
8
BLACK
6
CONTINUOUS
10
185.52
20
-80.12
11
171.67
21
-80.12
0
LINE
8
BLACK
6
CONTINUOUS
10
147.499
20
-79.97
11
147.51
21
-79.9711
0
LINE
8
BLACK
6
CONTINUOUS
10
147.51
20
-79.9711
11
147.524
21
-79.9754
0
LINE
8
BLACK
6
CONTINUOUS
10
147.524
20
-79.9754
11
147.537
21
-79.9823
0
LINE
8
BLACK
6
CONTINUOUS
10
147.537
20
-79.9823
11
147.548
21
-79.9917
0
LINE
8
BLACK
6
CONTINUOUS
10
147.548
20
-79.9917
11
147.558
21
-80.0031
0
LINE
8
BLACK
6
CONTINUOUS
10
147.558
20
-80.0031
11
147.565
21
-80.0162
0
LINE
8
BLACK
6
CONTINUOUS
10
147.565
20
-80.0162
11
147.569
21
-80.0303
0
LINE
8
BLACK
6
CONTINUOUS
10
147.569
20
-80.0303
11
147.57
21
-80.045
0
LINE
8
BLACK
6
CONTINUOUS
10
147.57
20
-80.045
11
147.57
21
-80.0487
0
LINE
8
BLACK
6
CONTINUOUS
10
147.57
20
-80.0487
11
147.57
21
-94.0413
0
LINE
8
BLACK
6
CONTINUOUS
10
147.57
20
-94.0413
11
147.57
21
-94.045
0
LINE
8
BLACK
6
CONTINUOUS
10
147.57
20
-94.045
11
147.569
21
-94.0597
0
LINE
8
BLACK
6
CONTINUOUS
10
147.569
20
-94.0597
11
147.565
21
-94.0738
0
LINE
8
BLACK
6
CONTINUOUS
10
147.565
20
-94.0738
11
147.558
21
-94.0869
0
LINE
8
BLACK
6
CONTINUOUS
10
147.558
20
-94.0869
11
147.548
21
-94.0983
0
LINE
8
BLACK
6
CONTINUOUS
10
147.548
20
-94.0983
11
147.537
21
-94.1077
0
LINE
8
BLACK
6
CONTINUOUS
10
147.537
20
-94.1077
11
147.524
21
-94.1146
0
LINE
8
BLACK
6
CONTINUOUS
10
147.524
20
-94.1146
11
147.51
21
-94.1189
0
LINE
8
BLACK
6
CONTINUOUS
10
147.51
20
-94.1189
11
147.499
21
-94.12
0
LINE
8
BLACK
6
CONTINUOUS
10
147.499
20
-94.12
11
147.495
21
-94.1204
0
LINE
8
BLACK
6
CONTINUOUS
10
147.495
20
-94.1204
11
147.491
21
-94.12
0
LINE
8
BLACK
6
CONTINUOUS
10
147.491
20
-94.12
11
133.499
21
-94.12
0
LINE
8
BLACK
6
CONTINUOUS
10
133.499
20
-94.12
11
133.495
21
-94.1204
0
LINE
8
BLACK
6
CONTINUOUS
10
133.495
20
-94.1204
11
133.48
21
-94.1189
0
LINE
8
BLACK
6
CONTINUOUS
10
133.48
20
-94.1189
11
133.466
21
-94.1146
0
LINE
8
BLACK
6
CONTINUOUS
10
133.466
20
-94.1146
11
133.453
21
-94.1077
0
LINE
8
BLACK
6
CONTINUOUS
10
133.453
20
-94.1077
11
133.442
21
-94.0983
0
LINE
8
BLACK
6
CONTINUOUS
10
133.442
20
-94.0983
11
133.432
21
-94.0869
0
LINE
8
BLACK
6
CONTINUOUS
10
133.432
20
-94.0869
11
133.425
21
-94.0738
0
LINE
8
BLACK
6
CONTINUOUS
10
133.425
20
-94.0738
11
133.421
21
-94.0597
0
LINE
8
BLACK
6
CONTINUOUS
10
133.421
20
-94.0597
11
133.42
21
-94.045
0
LINE
8
BLACK
6
CONTINUOUS
10
133.42
20
-94.045
11
133.42
21
-94.0413
0
LINE
8
BLACK
6
CONTINUOUS
10
133.42
20
-94.0413
11
133.42
21
-80.0487
0
LINE
8
BLACK
6
CONTINUOUS
10
133.42
20
-80.0487
11
133.42
21
-80.045
0
LINE
8
BLACK
6
CONTINUOUS
10
133.42
20
-80.045
11
133.421
21
-80.0303
0
LINE
8
BLACK
6
CONTINUOUS
10
133.421
20
-80.0303
11
133.425
21
-80.0162
0
LINE
8
BLACK
6
CONTINUOUS
10
133.425
20
-80.0162
11
133.432
21
-80.0031
0
LINE
8
BLACK
6
CONTINUOUS
10
133.432
20
-80.0031
11
133.442
21
-79.9917
0
LINE
8
BLACK
6
CONTINUOUS
10
133.442
20
-79.9917
11
133.453
21
-79.9823
0
LINE
8
BLACK
6
CONTINUOUS
10
133.453
20
-79.9823
11
133.466
21
-79.9754
0
LINE
8
BLACK
6
CONTINUOUS
10
133.466
20
-79.9754
11
133.48
21
-79.9711
0
LINE
8
BLACK
6
CONTINUOUS
10
133.48
20
-79.9711
11
133.491
21
-79.97
0
LINE
8
BLACK
6
CONTINUOUS
10
133.491
20
-79.97
11
133.495
21
-79.9696
0
LINE
8
BLACK
6
CONTINUOUS
10
133.495
20
-79.9696
11
133.499
21
-79.97
0
LINE
8
BLACK
6
CONTINUOUS
10
133.499
20
-79.97
11
147.491
21
-79.97
0
LINE
8
BLACK
6
CONTINUOUS
10
147.491
20
-79.97
11
147.495
21
-79.9696
0
LINE
8
BLACK
6
CONTINUOUS
10
147.495
20
-79.9696
11
147.499
21
-79.97
0
LINE
8
BLACK
6
CONTINUOUS
10
133.57
20
-80.12
11
133.57
21
-93.97
0
LINE
8
BLACK
6
CONTINUOUS
10
133.57
20
-93.97
11
147.42
21
-93.97
0
LINE
8
BLACK
6
CONTINUOUS
10
147.42
20
-93.97
11
147.42
21
-80.12
0
LINE
8
BLACK
6
CONTINUOUS
10
147.42
20
-80.12
11
133.57
21
-80.12
0
LINE
8
BLACK
6
CONTINUOUS
10
166.599
20
-77.56
11
166.61
21
-77.5611
0
LINE
8
BLACK
6
CONTINUOUS
10
166.61
20
-77.5611
11
166.624
21
-77.5654
0
LINE
8
BLACK
6
CONTINUOUS
10
166.624
20
-77.5654
11
166.637
21
-77.5723
0
LINE
8
BLACK
6
CONTINUOUS
10
166.637
20
-77.5723
11
166.648
21
-77.5817
0
LINE
8
BLACK
6
CONTINUOUS
10
166.648
20
-77.5817
11
166.658
21
-77.5931
0
LINE
8
BLACK
6
CONTINUOUS
10
166.658
20
-77.5931
11
166.665
21
-77.6062
0
LINE
8
BLACK
6
CONTINUOUS
10
166.665
20
-77.6062
11
166.669
21
-77.6203
0
LINE
8
BLACK
6
CONTINUOUS
10
166.669
20
-77.6203
11
166.67
21
-77.635
0
LINE
8
BLACK
6
CONTINUOUS
10
166.67
20
-77.635
11
166.67
21
-77.6387
0
LINE
8
BLACK
6
CONTINUOUS
10
166.67
20
-77.6387
11
166.67
21
-91.6313
0
LINE
8
BLACK
6
CONTINUOUS
10
166.67
20
-91.6313
11
166.67
21
-91.635
0
LINE
8
BLACK
6
CONTINUOUS
10
166.67
20
-91.635
11
166.669
21
-91.6497
0
LINE
8
BLACK
6
CONTINUOUS
10
166.669
20
-91.6497
11
166.665
21
-91.6638
0
LINE
8
BLACK
6
CONTINUOUS
10
166.665
20
-91.6638
11
166.658
21
-91.6769
0
LINE
8
BLACK
6
CONTINUOUS
10
166.658
20
-91.6769
11
166.648
21
-91.6883
0
LINE
8
BLACK
6
CONTINUOUS
10
166.648
20
-91.6883
11
166.637
21
-91.6977
0
LINE
8
BLACK
6
CONTINUOUS
10
166.637
20
-91.6977
11
166.624
21
-91.7046
0
LINE
8
BLACK
6
CONTINUOUS
10
166.624
20
-91.7046
11
166.61
21
-91.7089
0
LINE
8
BLACK
6
CONTINUOUS
10
166.61
20
-91.7089
11
166.599
21
-91.71
0
LINE
8
BLACK
6
CONTINUOUS
10
166.599
20
-91.71
11
166.595
21
-91.7104
0
LINE
8
BLACK
6
CONTINUOUS
10
166.595
20
-91.7104
11
166.591
21
-91.71
0
LINE
8
BLACK
6
CONTINUOUS
10
166.591
20
-91.71
11
152.599
21
-91.71
0
LINE
8
BLACK
6
CONTINUOUS
10
152.599
20
-91.71
11
152.595
21
-91.7104
0
LINE
8
BLACK
6
CONTINUOUS
10
152.595
20
-91.7104
11
152.58
21
-91.7089
0
LINE
8
BLACK
6
CONTINUOUS
10
152.58
20
-91.7089
11
152.566
21
-91.7046
0
LINE
8
BLACK
6
CONTINUOUS
10
152.566
20
-91.7046
11
152.553
21
-91.6977
0
LINE
8
BLACK
6
CONTINUOUS
10
152.553
20
-91.6977
11
152.542
21
-91.6883
0
LINE
8
BLACK
6
CONTINUOUS
10
152.542
20
-91.6883
11
152.532
21
-91.6769
0
LINE
8
BLACK
6
CONTINUOUS
10
152.532
20
-91.6769
11
152.525
21
-91.6638
0
LINE
8
BLACK
6
CONTINUOUS
10
152.525
20
-91.6638
11
152.521
21
-91.6497
0
LINE
8
BLACK
6
CONTINUOUS
10
152.521
20
-91.6497
11
152.52
21
-91.635
0
LINE
8
BLACK
6
CONTINUOUS
10
152.52
20
-91.635
11
152.52
21
-91.6313
0
LINE
8
BLACK
6
CONTINUOUS
10
152.52
20
-91.6313
11
152.52
21
-77.6387
0
LINE
8
BLACK
6
CONTINUOUS
10
152.52
20
-77.6387
11
152.52
21
-77.635
0
LINE
8
BLACK
6
CONTINUOUS
10
152.52
20
-77.635
11
152.521
21
-77.6203
0
LINE
8
BLACK
6
CONTINUOUS
10
152.521
20
-77.6203
11
152.525
21
-77.6062
0
LINE
8
BLACK
6
CONTINUOUS
10
152.525
20
-77.6062
11
152.532
21
-77.5931
0
LINE
8
BLACK
6
CONTINUOUS
10
152.532
20
-77.5931
11
152.542
21
-77.5817
0
LINE
8
BLACK
6
CONTINUOUS
10
152.542
20
-77.5817
11
152.553
21
-77.5723
0
LINE
8
BLACK
6
CONTINUOUS
10
152.553
20
-77.5723
11
152.566
21
-77.5654
0
LINE
8
BLACK
6
CONTINUOUS
10
152.566
20
-77.5654
11
152.58
21
-77.5611
0
LINE
8
BLACK
6
CONTINUOUS
10
152.58
20
-77.5611
11
152.591
21
-77.56
0
LINE
8
BLACK
6
CONTINUOUS
10
152.591
20
-77.56
11
152.595
21
-77.5596
0
LINE
8
BLACK
6
CONTINUOUS
10
152.595
20
-77.5596
11
152.599
21
-77.56
0
LINE
8
BLACK
6
CONTINUOUS
10
152.599
20
-77.56
11
166.591
21
-77.56
0
LINE
8
BLACK
6
CONTINUOUS
10
166.591
20
-77.56
11
166.595
21
-77.5596
0
LINE
8
BLACK
6
CONTINUOUS
10
166.595
20
-77.5596
11
166.599
21
-77.56
0
LINE
8
BLACK
6
CONTINUOUS
10
152.67
20
-77.71
11
152.67
21
-91.56
0
LINE
8
BLACK
6
CONTINUOUS
10
152.67
20
-91.56
11
166.52
21
-91.56
0
LINE
8
BLACK
6
CONTINUOUS
10
166.52
20
-91.56
11
166.52
21
-77.71
0
LINE
8
BLACK
6
CONTINUOUS
10
166.52
20
-77.71
11
152.67
21
-77.71
0
LINE
8
BLACK
6
CONTINUOUS
10
204.699
20
-65.67
11
204.71
21
-65.6711
0
LINE
8
BLACK
6
CONTINUOUS
10
204.71
20
-65.6711
11
204.724
21
-65.6754
0
LINE
8
BLACK
6
CONTINUOUS
10
204.724
20
-65.6754
11
204.737
21
-65.6823
0
LINE
8
BLACK
6
CONTINUOUS
10
204.737
20
-65.6823
11
204.748
21
-65.6917
0
LINE
8
BLACK
6
CONTINUOUS
10
204.748
20
-65.6917
11
204.758
21
-65.7031
0
LINE
8
BLACK
6
CONTINUOUS
10
204.758
20
-65.7031
11
204.765
21
-65.7162
0
LINE
8
BLACK
6
CONTINUOUS
10
204.765
20
-65.7162
11
204.769
21
-65.7303
0
LINE
8
BLACK
6
CONTINUOUS
10
204.769
20
-65.7303
11
204.77
21
-65.745
0
LINE
8
BLACK
6
CONTINUOUS
10
204.77
20
-65.745
11
204.77
21
-65.7487
0
LINE
8
BLACK
6
CONTINUOUS
10
204.77
20
-65.7487
11
204.77
21
-79.7413
0
LINE
8
BLACK
6
CONTINUOUS
10
204.77
20
-79.7413
11
204.77
21
-79.745
0
LINE
8
BLACK
6
CONTINUOUS
10
204.77
20
-79.745
11
204.769
21
-79.7597
0
LINE
8
BLACK
6
CONTINUOUS
10
204.769
20
-79.7597
11
204.765
21
-79.7738
0
LINE
8
BLACK
6
CONTINUOUS
10
204.765
20
-79.7738
11
204.758
21
-79.7869
0
LINE
8
BLACK
6
CONTINUOUS
10
204.758
20
-79.7869
11
204.748
21
-79.7983
0
LINE
8
BLACK
6
CONTINUOUS
10
204.748
20
-79.7983
11
204.737
21
-79.8077
0
LINE
8
BLACK
6
CONTINUOUS
10
204.737
20
-79.8077
11
204.724
21
-79.8146
0
LINE
8
BLACK
6
CONTINUOUS
10
204.724
20
-79.8146
11
204.71
21
-79.8189
0
LINE
8
BLACK
6
CONTINUOUS
10
204.71
20
-79.8189
11
204.699
21
-79.82
0
LINE
8
BLACK
6
CONTINUOUS
10
204.699
20
-79.82
11
204.695
21
-79.8204
0
LINE
8
BLACK
6
CONTINUOUS
10
204.695
20
-79.8204
11
204.691
21
-79.82
0
LINE
8
BLACK
6
CONTINUOUS
10
204.691
20
-79.82
11
190.699
21
-79.82
0
LINE
8
BLACK
6
CONTINUOUS
10
190.699
20
-79.82
11
190.695
21
-79.8204
0
LINE
8
BLACK
6
CONTINUOUS
10
190.695
20
-79.8204
11
190.68
21
-79.8189
0
LINE
8
BLACK
6
CONTINUOUS
10
190.68
20
-79.8189
11
190.666
21
-79.8146
0
LINE
8
BLACK
6
CONTINUOUS
10
190.666
20
-79.8146
11
190.653
21
-79.8077
0
LINE
8
BLACK
6
CONTINUOUS
10
190.653
20
-79.8077
11
190.642
21
-79.7983
0
LINE
8
BLACK
6
CONTINUOUS
10
190.642
20
-79.7983
11
190.632
21
-79.7869
0
LINE
8
BLACK
6
CONTINUOUS
10
190.632
20
-79.7869
11
190.625
21
-79.7738
0
LINE
8
BLACK
6
CONTINUOUS
10
190.625
20
-79.7738
11
190.621
21
-79.7597
0
LINE
8
BLACK
6
CONTINUOUS
10
190.621
20
-79.7597
11
190.62
21
-79.745
0
LINE
8
BLACK
6
CONTINUOUS
10
190.62
20
-79.745
11
190.62
21
-79.7413
0
LINE
8
BLACK
6
CONTINUOUS
10
190.62
20
-79.7413
11
190.62
21
-65.7487
0
LINE
8
BLACK
6
CONTINUOUS
10
190.62
20
-65.7487
11
190.62
21
-65.745
0
LINE
8
BLACK
6
CONTINUOUS
10
190.62
20
-65.745
11
190.621
21
-65.7303
0
LINE
8
BLACK
6
CONTINUOUS
10
190.621
20
-65.7303
11
190.625
21
-65.7162
0
LINE
8
BLACK
6
CONTINUOUS
10
190.625
20
-65.7162
11
190.632
21
-65.7031
0
LINE
8
BLACK
6
CONTINUOUS
10
190.632
20
-65.7031
11
190.642
21
-65.6917
0
LINE
8
BLACK
6
CONTINUOUS
10
190.642
20
-65.6917
11
190.653
21
-65.6823
0
LINE
8
BLACK
6
CONTINUOUS
10
190.653
20
-65.6823
11
190.666
21
-65.6754
0
LINE
8
BLACK
6
CONTINUOUS
10
190.666
20
-65.6754
11
190.68
21
-65.6711
0
LINE
8
BLACK
6
CONTINUOUS
10
190.68
20
-65.6711
11
190.691
21
-65.67
0
LINE
8
BLACK
6
CONTINUOUS
10
190.691
20
-65.67
11
190.695
21
-65.6696
0
LINE
8
BLACK
6
CONTINUOUS
10
190.695
20
-65.6696
11
190.699
21
-65.67
0
LINE
8
BLACK
6
CONTINUOUS
10
190.699
20
-65.67
11
204.691
21
-65.67
0
LINE
8
BLACK
6
CONTINUOUS
10
204.691
20
-65.67
11
204.695
21
-65.6696
0
LINE
8
BLACK
6
CONTINUOUS
10
204.695
20
-65.6696
11
204.699
21
-65.67
0
LINE
8
BLACK
6
CONTINUOUS
10
190.77
20
-65.82
11
190.77
21
-79.67
0
LINE
8
BLACK
6
CONTINUOUS
10
190.77
20
-79.67
11
204.62
21
-79.67
0
LINE
8
BLACK
6
CONTINUOUS
10
204.62
20
-79.67
11
204.62
21
-65.82
0
LINE
8
BLACK
6
CONTINUOUS
10
204.62
20
-65.82
11
190.77
21
-65.82
0
LINE
8
BLACK
6
CONTINUOUS
10
223.699
20
-65.67
11
223.71
21
-65.6711
0
LINE
8
BLACK
6
CONTINUOUS
10
223.71
20
-65.6711
11
223.724
21
-65.6754
0
LINE
8
BLACK
6
CONTINUOUS
10
223.724
20
-65.6754
11
223.737
21
-65.6823
0
LINE
8
BLACK
6
CONTINUOUS
10
223.737
20
-65.6823
11
223.748
21
-65.6917
0
LINE
8
BLACK
6
CONTINUOUS
10
223.748
20
-65.6917
11
223.758
21
-65.7031
0
LINE
8
BLACK
6
CONTINUOUS
10
223.758
20
-65.7031
11
223.765
21
-65.7162
0
LINE
8
BLACK
6
CONTINUOUS
10
223.765
20
-65.7162
11
223.769
21
-65.7303
0
LINE
8
BLACK
6
CONTINUOUS
10
223.769
20
-65.7303
11
223.77
21
-65.745
0
LINE
8
BLACK
6
CONTINUOUS
10
223.77
20
-65.745
11
223.77
21
-65.7487
0
LINE
8
BLACK
6
CONTINUOUS
10
223.77
20
-65.7487
11
223.77
21
-79.7413
0
LINE
8
BLACK
6
CONTINUOUS
10
223.77
20
-79.7413
11
223.77
21
-79.745
0
LINE
8
BLACK
6
CONTINUOUS
10
223.77
20
-79.745
11
223.769
21
-79.7597
0
LINE
8
BLACK
6
CONTINUOUS
10
223.769
20
-79.7597
11
223.765
21
-79.7738
0
LINE
8
BLACK
6
CONTINUOUS
10
223.765
20
-79.7738
11
223.758
21
-79.7869
0
LINE
8
BLACK
6
CONTINUOUS
10
223.758
20
-79.7869
11
223.748
21
-79.7983
0
LINE
8
BLACK
6
CONTINUOUS
10
223.748
20
-79.7983
11
223.737
21
-79.8077
0
LINE
8
BLACK
6
CONTINUOUS
10
223.737
20
-79.8077
11
223.724
21
-79.8146
0
LINE
8
BLACK
6
CONTINUOUS
10
223.724
20
-79.8146
11
223.71
21
-79.8189
0
LINE
8
BLACK
6
CONTINUOUS
10
223.71
20
-79.8189
11
223.699
21
-79.82
0
LINE
8
BLACK
6
CONTINUOUS
10
223.699
20
-79.82
11
223.695
21
-79.8204
0
LINE
8
BLACK
6
CONTINUOUS
10
223.695
20
-79.8204
11
223.691
21
-79.82
0
LINE
8
BLACK
6
CONTINUOUS
10
223.691
20
-79.82
11
209.699
21
-79.82
0
LINE
8
BLACK
6
CONTINUOUS
10
209.699
20
-79.82
11
209.695
21
-79.8204
0
LINE
8
BLACK
6
CONTINUOUS
10
209.695
20
-79.8204
11
209.68
21
-79.8189
0
LINE
8
BLACK
6
CONTINUOUS
10
209.68
20
-79.8189
11
209.666
21
-79.8146
0
LINE
8
BLACK
6
CONTINUOUS
10
209.666
20
-79.8146
11
209.653
21
-79.8077
0
LINE
8
BLACK
6
CONTINUOUS
10
209.653
20
-79.8077
11
209.642
21
-79.7983
0
LINE
8
BLACK
6
CONTINUOUS
10
209.642
20
-79.7983
11
209.632
21
-79.7869
0
LINE
8
BLACK
6
CONTINUOUS
10
209.632
20
-79.7869
11
209.625
21
-79.7738
0
LINE
8
BLACK
6
CONTINUOUS
10
209.625
20
-79.7738
11
209.621
21
-79.7597
0
LINE
8
BLACK
6
CONTINUOUS
10
209.621
20
-79.7597
11
209.62
21
-79.745
0
LINE
8
BLACK
6
CONTINUOUS
10
209.62
20
-79.745
11
209.62
21
-79.7413
0
LINE
8
BLACK
6
CONTINUOUS
10
209.62
20
-79.7413
11
209.62
21
-65.7487
0
LINE
8
BLACK
6
CONTINUOUS
10
209.62
20
-65.7487
11
209.62
21
-65.745
0
LINE
8
BLACK
6
CONTINUOUS
10
209.62
20
-65.745
11
209.621
21
-65.7303
0
LINE
8
BLACK
6
CONTINUOUS
10
209.621
20
-65.7303
11
209.625
21
-65.7162
0
LINE
8
BLACK
6
CONTINUOUS
10
209.625
20
-65.7162
11
209.632
21
-65.7031
0
LINE
8
BLACK
6
CONTINUOUS
10
209.632
20
-65.7031
11
209.642
21
-65.6917
0
LINE
8
BLACK
6
CONTINUOUS
10
209.642
20
-65.6917
11
209.653
21
-65.6823
0
LINE
8
BLACK
6
CONTINUOUS
10
209.653
20
-65.6823
11
209.666
21
-65.6754
0
LINE
8
BLACK
6
CONTINUOUS
10
209.666
20
-65.6754
11
209.68
21
-65.6711
0
LINE
8
BLACK
6
CONTINUOUS
10
209.68
20
-65.6711
11
209.691
21
-65.67
0
LINE
8
BLACK
6
CONTINUOUS
10
209.691
20
-65.67
11
209.695
21
-65.6696
0
LINE
8
BLACK
6
CONTINUOUS
10
209.695
20
-65.6696
11
209.699
21
-65.67
0
LINE
8
BLACK
6
CONTINUOUS
10
209.699
20
-65.67
11
223.691
21
-65.67
0
LINE
8
BLACK
6
CONTINUOUS
10
223.691
20
-65.67
11
223.695
21
-65.6696
0
LINE
8
BLACK
6
CONTINUOUS
10
223.695
20
-65.6696
11
223.699
21
-65.67
0
LINE
8
BLACK
6
CONTINUOUS
10
209.77
20
-65.82
11
209.77
21
-79.67
0
LINE
8
BLACK
6
CONTINUOUS
10
209.77
20
-79.67
11
223.62
21
-79.67
0
LINE
8
BLACK
6
CONTINUOUS
10
223.62
20
-79.67
11
223.62
21
-65.82
0
LINE
8
BLACK
6
CONTINUOUS
10
223.62
20
-65.82
11
209.77
21
-65.82
0
LINE
8
BLACK
6
CONTINUOUS
10
128.499
20
-63.47
11
128.51
21
-63.4711
0
LINE
8
BLACK
6
CONTINUOUS
10
128.51
20
-63.4711
11
128.524
21
-63.4754
0
LINE
8
BLACK
6
CONTINUOUS
10
128.524
20
-63.4754
11
128.537
21
-63.4823
0
LINE
8
BLACK
6
CONTINUOUS
10
128.537
20
-63.4823
11
128.548
21
-63.4917
0
LINE
8
BLACK
6
CONTINUOUS
10
128.548
20
-63.4917
11
128.558
21
-63.5031
0
LINE
8
BLACK
6
CONTINUOUS
10
128.558
20
-63.5031
11
128.565
21
-63.5162
0
LINE
8
BLACK
6
CONTINUOUS
10
128.565
20
-63.5162
11
128.569
21
-63.5303
0
LINE
8
BLACK
6
CONTINUOUS
10
128.569
20
-63.5303
11
128.57
21
-63.545
0
LINE
8
BLACK
6
CONTINUOUS
10
128.57
20
-63.545
11
128.57
21
-63.5487
0
LINE
8
BLACK
6
CONTINUOUS
10
128.57
20
-63.5487
11
128.57
21
-77.5413
0
LINE
8
BLACK
6
CONTINUOUS
10
128.57
20
-77.5413
11
128.57
21
-77.545
0
LINE
8
BLACK
6
CONTINUOUS
10
128.57
20
-77.545
11
128.569
21
-77.5597
0
LINE
8
BLACK
6
CONTINUOUS
10
128.569
20
-77.5597
11
128.565
21
-77.5738
0
LINE
8
BLACK
6
CONTINUOUS
10
128.565
20
-77.5738
11
128.558
21
-77.5869
0
LINE
8
BLACK
6
CONTINUOUS
10
128.558
20
-77.5869
11
128.548
21
-77.5983
0
LINE
8
BLACK
6
CONTINUOUS
10
128.548
20
-77.5983
11
128.537
21
-77.6077
0
LINE
8
BLACK
6
CONTINUOUS
10
128.537
20
-77.6077
11
128.524
21
-77.6146
0
LINE
8
BLACK
6
CONTINUOUS
10
128.524
20
-77.6146
11
128.51
21
-77.6189
0
LINE
8
BLACK
6
CONTINUOUS
10
128.51
20
-77.6189
11
128.499
21
-77.62
0
LINE
8
BLACK
6
CONTINUOUS
10
128.499
20
-77.62
11
128.495
21
-77.6204
0
LINE
8
BLACK
6
CONTINUOUS
10
128.495
20
-77.6204
11
128.491
21
-77.62
0
LINE
8
BLACK
6
CONTINUOUS
10
128.491
20
-77.62
11
114.499
21
-77.62
0
LINE
8
BLACK
6
CONTINUOUS
10
114.499
20
-77.62
11
114.495
21
-77.6204
0
LINE
8
BLACK
6
CONTINUOUS
10
114.495
20
-77.6204
11
114.48
21
-77.6189
0
LINE
8
BLACK
6
CONTINUOUS
10
114.48
20
-77.6189
11
114.466
21
-77.6146
0
LINE
8
BLACK
6
CONTINUOUS
10
114.466
20
-77.6146
11
114.453
21
-77.6077
0
LINE
8
BLACK
6
CONTINUOUS
10
114.453
20
-77.6077
11
114.442
21
-77.5983
0
LINE
8
BLACK
6
CONTINUOUS
10
114.442
20
-77.5983
11
114.437
21
-77.5931
0
LINE
8
BLACK
6
CONTINUOUS
10
114.437
20
-77.5931
11
114.432
21
-77.5869
0
LINE
8
BLACK
6
CONTINUOUS
10
114.432
20
-77.5869
11
114.425
21
-77.5738
0
LINE
8
BLACK
6
CONTINUOUS
10
114.425
20
-77.5738
11
114.421
21
-77.5597
0
LINE
8
BLACK
6
CONTINUOUS
10
114.421
20
-77.5597
11
114.42
21
-77.545
0
LINE
8
BLACK
6
CONTINUOUS
10
114.42
20
-77.545
11
114.42
21
-77.5413
0
LINE
8
BLACK
6
CONTINUOUS
10
114.42
20
-77.5413
11
114.42
21
-63.5487
0
LINE
8
BLACK
6
CONTINUOUS
10
114.42
20
-63.5487
11
114.42
21
-63.545
0
LINE
8
BLACK
6
CONTINUOUS
10
114.42
20
-63.545
11
114.421
21
-63.5303
0
LINE
8
BLACK
6
CONTINUOUS
10
114.421
20
-63.5303
11
114.425
21
-63.5162
0
LINE
8
BLACK
6
CONTINUOUS
10
114.425
20
-63.5162
11
114.432
21
-63.5031
0
LINE
8
BLACK
6
CONTINUOUS
10
114.432
20
-63.5031
11
114.442
21
-63.4917
0
LINE
8
BLACK
6
CONTINUOUS
10
114.442
20
-63.4917
11
114.453
21
-63.4823
0
LINE
8
BLACK
6
CONTINUOUS
10
114.453
20
-63.4823
11
114.466
21
-63.4754
0
LINE
8
BLACK
6
CONTINUOUS
10
114.466
20
-63.4754
11
114.48
21
-63.4711
0
LINE
8
BLACK
6
CONTINUOUS
10
114.48
20
-63.4711
11
114.491
21
-63.47
0
LINE
8
BLACK
6
CONTINUOUS
10
114.491
20
-63.47
11
114.495
21
-63.4696
0
LINE
8
BLACK
6
CONTINUOUS
10
114.495
20
-63.4696
11
114.499
21
-63.47
0
LINE
8
BLACK
6
CONTINUOUS
10
114.499
20
-63.47
11
128.491
21
-63.47
0
LINE
8
BLACK
6
CONTINUOUS
10
128.491
20
-63.47
11
128.495
21
-63.4696
0
LINE
8
BLACK
6
CONTINUOUS
10
128.495
20
-63.4696
11
128.499
21
-63.47
0
LINE
8
BLACK
6
CONTINUOUS
10
114.57
20
-63.62
11
114.57
21
-77.47
0
LINE
8
BLACK
6
CONTINUOUS
10
114.57
20
-77.47
11
128.42
21
-77.47
0
LINE
8
BLACK
6
CONTINUOUS
10
128.42
20
-77.47
11
128.42
21
-63.62
0
LINE
8
BLACK
6
CONTINUOUS
10
128.42
20
-63.62
11
114.57
21
-63.62
0
LINE
8
BLACK
6
CONTINUOUS
10
147.499
20
-60.97
11
147.51
21
-60.9711
0
LINE
8
BLACK
6
CONTINUOUS
10
147.51
20
-60.9711
11
147.524
21
-60.9754
0
LINE
8
BLACK
6
CONTINUOUS
10
147.524
20
-60.9754
11
147.537
21
-60.9823
0
LINE
8
BLACK
6
CONTINUOUS
10
147.537
20
-60.9823
11
147.548
21
-60.9917
0
LINE
8
BLACK
6
CONTINUOUS
10
147.548
20
-60.9917
11
147.558
21
-61.0031
0
LINE
8
BLACK
6
CONTINUOUS
10
147.558
20
-61.0031
11
147.565
21
-61.0162
0
LINE
8
BLACK
6
CONTINUOUS
10
147.565
20
-61.0162
11
147.569
21
-61.0303
0
LINE
8
BLACK
6
CONTINUOUS
10
147.569
20
-61.0303
11
147.57
21
-61.045
0
LINE
8
BLACK
6
CONTINUOUS
10
147.57
20
-61.045
11
147.57
21
-61.0487
0
LINE
8
BLACK
6
CONTINUOUS
10
147.57
20
-61.0487
11
147.57
21
-75.0413
0
LINE
8
BLACK
6
CONTINUOUS
10
147.57
20
-75.0413
11
147.57
21
-75.045
0
LINE
8
BLACK
6
CONTINUOUS
10
147.57
20
-75.045
11
147.569
21
-75.0597
0
LINE
8
BLACK
6
CONTINUOUS
10
147.569
20
-75.0597
11
147.565
21
-75.0738
0
LINE
8
BLACK
6
CONTINUOUS
10
147.565
20
-75.0738
11
147.558
21
-75.0869
0
LINE
8
BLACK
6
CONTINUOUS
10
147.558
20
-75.0869
11
147.548
21
-75.0983
0
LINE
8
BLACK
6
CONTINUOUS
10
147.548
20
-75.0983
11
147.537
21
-75.1077
0
LINE
8
BLACK
6
CONTINUOUS
10
147.537
20
-75.1077
11
147.524
21
-75.1146
0
LINE
8
BLACK
6
CONTINUOUS
10
147.524
20
-75.1146
11
147.51
21
-75.1189
0
LINE
8
BLACK
6
CONTINUOUS
10
147.51
20
-75.1189
11
147.499
21
-75.12
0
LINE
8
BLACK
6
CONTINUOUS
10
147.499
20
-75.12
11
147.495
21
-75.1204
0
LINE
8
BLACK
6
CONTINUOUS
10
147.495
20
-75.1204
11
147.491
21
-75.12
0
LINE
8
BLACK
6
CONTINUOUS
10
147.491
20
-75.12
11
133.499
21
-75.12
0
LINE
8
BLACK
6
CONTINUOUS
10
133.499
20
-75.12
11
133.495
21
-75.1204
0
LINE
8
BLACK
6
CONTINUOUS
10
133.495
20
-75.1204
11
133.48
21
-75.1189
0
LINE
8
BLACK
6
CONTINUOUS
10
133.48
20
-75.1189
11
133.466
21
-75.1146
0
LINE
8
BLACK
6
CONTINUOUS
10
133.466
20
-75.1146
11
133.453
21
-75.1077
0
LINE
8
BLACK
6
CONTINUOUS
10
133.453
20
-75.1077
11
133.442
21
-75.0983
0
LINE
8
BLACK
6
CONTINUOUS
10
133.442
20
-75.0983
11
133.432
21
-75.0869
0
LINE
8
BLACK
6
CONTINUOUS
10
133.432
20
-75.0869
11
133.425
21
-75.0738
0
LINE
8
BLACK
6
CONTINUOUS
10
133.425
20
-75.0738
11
133.421
21
-75.0597
0
LINE
8
BLACK
6
CONTINUOUS
10
133.421
20
-75.0597
11
133.42
21
-75.045
0
LINE
8
BLACK
6
CONTINUOUS
10
133.42
20
-75.045
11
133.42
21
-75.0413
0
LINE
8
BLACK
6
CONTINUOUS
10
133.42
20
-75.0413
11
133.42
21
-61.0487
0
LINE
8
BLACK
6
CONTINUOUS
10
133.42
20
-61.0487
11
133.42
21
-61.045
0
LINE
8
BLACK
6
CONTINUOUS
10
133.42
20
-61.045
11
133.421
21
-61.0303
0
LINE
8
BLACK
6
CONTINUOUS
10
133.421
20
-61.0303
11
133.425
21
-61.0162
0
LINE
8
BLACK
6
CONTINUOUS
10
133.425
20
-61.0162
11
133.432
21
-61.0031
0
LINE
8
BLACK
6
CONTINUOUS
10
133.432
20
-61.0031
11
133.442
21
-60.9917
0
LINE
8
BLACK
6
CONTINUOUS
10
133.442
20
-60.9917
11
133.453
21
-60.9823
0
LINE
8
BLACK
6
CONTINUOUS
10
133.453
20
-60.9823
11
133.466
21
-60.9754
0
LINE
8
BLACK
6
CONTINUOUS
10
133.466
20
-60.9754
11
133.48
21
-60.9711
0
LINE
8
BLACK
6
CONTINUOUS
10
133.48
20
-60.9711
11
133.491
21
-60.97
0
LINE
8
BLACK
6
CONTINUOUS
10
133.491
20
-60.97
11
133.495
21
-60.9696
0
LINE
8
BLACK
6
CONTINUOUS
10
133.495
20
-60.9696
11
133.499
21
-60.97
0
LINE
8
BLACK
6
CONTINUOUS
10
133.499
20
-60.97
11
147.491
21
-60.97
0
LINE
8
BLACK
6
CONTINUOUS
10
147.491
20
-60.97
11
147.495
21
-60.9696
0
LINE
8
BLACK
6
CONTINUOUS
10
147.495
20
-60.9696
11
147.499
21
-60.97
0
LINE
8
BLACK
6
CONTINUOUS
10
133.57
20
-61.12
11
133.57
21
-74.97
0
LINE
8
BLACK
6
CONTINUOUS
10
133.57
20
-74.97
11
147.42
21
-74.97
0
LINE
8
BLACK
6
CONTINUOUS
10
147.42
20
-74.97
11
147.42
21
-61.12
0
LINE
8
BLACK
6
CONTINUOUS
10
147.42
20
-61.12
11
133.57
21
-61.12
0
LINE
8
BLACK
6
CONTINUOUS
10
185.599
20
-60.91
11
185.61
21
-60.9111
0
LINE
8
BLACK
6
CONTINUOUS
10
185.61
20
-60.9111
11
185.624
21
-60.9154
0
LINE
8
BLACK
6
CONTINUOUS
10
185.624
20
-60.9154
11
185.637
21
-60.9223
0
LINE
8
BLACK
6
CONTINUOUS
10
185.637
20
-60.9223
11
185.648
21
-60.9317
0
LINE
8
BLACK
6
CONTINUOUS
10
185.648
20
-60.9317
11
185.658
21
-60.9431
0
LINE
8
BLACK
6
CONTINUOUS
10
185.658
20
-60.9431
11
185.665
21
-60.9562
0
LINE
8
BLACK
6
CONTINUOUS
10
185.665
20
-60.9562
11
185.669
21
-60.9703
0
LINE
8
BLACK
6
CONTINUOUS
10
185.669
20
-60.9703
11
185.67
21
-60.985
0
LINE
8
BLACK
6
CONTINUOUS
10
185.67
20
-60.985
11
185.67
21
-60.9887
0
LINE
8
BLACK
6
CONTINUOUS
10
185.67
20
-60.9887
11
185.67
21
-74.9813
0
LINE
8
BLACK
6
CONTINUOUS
10
185.67
20
-74.9813
11
185.67
21
-74.985
0
LINE
8
BLACK
6
CONTINUOUS
10
185.67
20
-74.985
11
185.669
21
-74.9997
0
LINE
8
BLACK
6
CONTINUOUS
10
185.669
20
-74.9997
11
185.665
21
-75.0138
0
LINE
8
BLACK
6
CONTINUOUS
10
185.665
20
-75.0138
11
185.658
21
-75.0269
0
LINE
8
BLACK
6
CONTINUOUS
10
185.658
20
-75.0269
11
185.648
21
-75.0383
0
LINE
8
BLACK
6
CONTINUOUS
10
185.648
20
-75.0383
11
185.637
21
-75.0477
0
LINE
8
BLACK
6
CONTINUOUS
10
185.637
20
-75.0477
11
185.624
21
-75.0546
0
LINE
8
BLACK
6
CONTINUOUS
10
185.624
20
-75.0546
11
185.61
21
-75.0589
0
LINE
8
BLACK
6
CONTINUOUS
10
185.61
20
-75.0589
11
185.599
21
-75.06
0
LINE
8
BLACK
6
CONTINUOUS
10
185.599
20
-75.06
11
185.595
21
-75.0604
0
LINE
8
BLACK
6
CONTINUOUS
10
185.595
20
-75.0604
11
185.591
21
-75.06
0
LINE
8
BLACK
6
CONTINUOUS
10
185.591
20
-75.06
11
171.599
21
-75.06
0
LINE
8
BLACK
6
CONTINUOUS
10
171.599
20
-75.06
11
171.595
21
-75.0604
0
LINE
8
BLACK
6
CONTINUOUS
10
171.595
20
-75.0604
11
171.58
21
-75.0589
0
LINE
8
BLACK
6
CONTINUOUS
10
171.58
20
-75.0589
11
171.566
21
-75.0546
0
LINE
8
BLACK
6
CONTINUOUS
10
171.566
20
-75.0546
11
171.553
21
-75.0477
0
LINE
8
BLACK
6
CONTINUOUS
10
171.553
20
-75.0477
11
171.542
21
-75.0383
0
LINE
8
BLACK
6
CONTINUOUS
10
171.542
20
-75.0383
11
171.532
21
-75.0269
0
LINE
8
BLACK
6
CONTINUOUS
10
171.532
20
-75.0269
11
171.525
21
-75.0138
0
LINE
8
BLACK
6
CONTINUOUS
10
171.525
20
-75.0138
11
171.521
21
-74.9997
0
LINE
8
BLACK
6
CONTINUOUS
10
171.521
20
-74.9997
11
171.52
21
-74.985
0
LINE
8
BLACK
6
CONTINUOUS
10
171.52
20
-74.985
11
171.52
21
-74.9813
0
LINE
8
BLACK
6
CONTINUOUS
10
171.52
20
-74.9813
11
171.52
21
-60.9887
0
LINE
8
BLACK
6
CONTINUOUS
10
171.52
20
-60.9887
11
171.52
21
-60.985
0
LINE
8
BLACK
6
CONTINUOUS
10
171.52
20
-60.985
11
171.521
21
-60.9703
0
LINE
8
BLACK
6
CONTINUOUS
10
171.521
20
-60.9703
11
171.525
21
-60.9562
0
LINE
8
BLACK
6
CONTINUOUS
10
171.525
20
-60.9562
11
171.532
21
-60.9431
0
LINE
8
BLACK
6
CONTINUOUS
10
171.532
20
-60.9431
11
171.542
21
-60.9317
0
LINE
8
BLACK
6
CONTINUOUS
10
171.542
20
-60.9317
11
171.553
21
-60.9223
0
LINE
8
BLACK
6
CONTINUOUS
10
171.553
20
-60.9223
11
171.566
21
-60.9154
0
LINE
8
BLACK
6
CONTINUOUS
10
171.566
20
-60.9154
11
171.58
21
-60.9111
0
LINE
8
BLACK
6
CONTINUOUS
10
171.58
20
-60.9111
11
171.591
21
-60.91
0
LINE
8
BLACK
6
CONTINUOUS
10
171.591
20
-60.91
11
171.595
21
-60.9096
0
LINE
8
BLACK
6
CONTINUOUS
10
171.595
20
-60.9096
11
171.599
21
-60.91
0
LINE
8
BLACK
6
CONTINUOUS
10
171.599
20
-60.91
11
185.591
21
-60.91
0
LINE
8
BLACK
6
CONTINUOUS
10
185.591
20
-60.91
11
185.595
21
-60.9096
0
LINE
8
BLACK
6
CONTINUOUS
10
185.595
20
-60.9096
11
185.599
21
-60.91
0
LINE
8
BLACK
6
CONTINUOUS
10
171.67
20
-61.06
11
171.67
21
-74.91
0
LINE
8
BLACK
6
CONTINUOUS
10
171.67
20
-74.91
11
185.52
21
-74.91
0
LINE
8
BLACK
6
CONTINUOUS
10
185.52
20
-74.91
11
185.52
21
-61.06
0
LINE
8
BLACK
6
CONTINUOUS
10
185.52
20
-61.06
11
171.67
21
-61.06
0
LINE
8
BLACK
6
CONTINUOUS
10
166.599
20
-58.46
11
166.61
21
-58.4611
0
LINE
8
BLACK
6
CONTINUOUS
10
166.61
20
-58.4611
11
166.624
21
-58.4654
0
LINE
8
BLACK
6
CONTINUOUS
10
166.624
20
-58.4654
11
166.637
21
-58.4723
0
LINE
8
BLACK
6
CONTINUOUS
10
166.637
20
-58.4723
11
166.648
21
-58.4817
0
LINE
8
BLACK
6
CONTINUOUS
10
166.648
20
-58.4817
11
166.658
21
-58.4931
0
LINE
8
BLACK
6
CONTINUOUS
10
166.658
20
-58.4931
11
166.665
21
-58.5062
0
LINE
8
BLACK
6
CONTINUOUS
10
166.665
20
-58.5062
11
166.669
21
-58.5203
0
LINE
8
BLACK
6
CONTINUOUS
10
166.669
20
-58.5203
11
166.67
21
-58.535
0
LINE
8
BLACK
6
CONTINUOUS
10
166.67
20
-58.535
11
166.67
21
-58.5387
0
LINE
8
BLACK
6
CONTINUOUS
10
166.67
20
-58.5387
11
166.67
21
-72.5313
0
LINE
8
BLACK
6
CONTINUOUS
10
166.67
20
-72.5313
11
166.67
21
-72.535
0
LINE
8
BLACK
6
CONTINUOUS
10
166.67
20
-72.535
11
166.669
21
-72.5497
0
LINE
8
BLACK
6
CONTINUOUS
10
166.669
20
-72.5497
11
166.665
21
-72.5638
0
LINE
8
BLACK
6
CONTINUOUS
10
166.665
20
-72.5638
11
166.658
21
-72.5769
0
LINE
8
BLACK
6
CONTINUOUS
10
166.658
20
-72.5769
11
166.648
21
-72.5883
0
LINE
8
BLACK
6
CONTINUOUS
10
166.648
20
-72.5883
11
166.637
21
-72.5977
0
LINE
8
BLACK
6
CONTINUOUS
10
166.637
20
-72.5977
11
166.624
21
-72.6046
0
LINE
8
BLACK
6
CONTINUOUS
10
166.624
20
-72.6046
11
166.61
21
-72.6089
0
LINE
8
BLACK
6
CONTINUOUS
10
166.61
20
-72.6089
11
166.599
21
-72.61
0
LINE
8
BLACK
6
CONTINUOUS
10
166.599
20
-72.61
11
166.595
21
-72.6104
0
LINE
8
BLACK
6
CONTINUOUS
10
166.595
20
-72.6104
11
166.591
21
-72.61
0
LINE
8
BLACK
6
CONTINUOUS
10
166.591
20
-72.61
11
152.599
21
-72.61
0
LINE
8
BLACK
6
CONTINUOUS
10
152.599
20
-72.61
11
152.595
21
-72.6104
0
LINE
8
BLACK
6
CONTINUOUS
10
152.595
20
-72.6104
11
152.58
21
-72.6089
0
LINE
8
BLACK
6
CONTINUOUS
10
152.58
20
-72.6089
11
152.566
21
-72.6046
0
LINE
8
BLACK
6
CONTINUOUS
10
152.566
20
-72.6046
11
152.553
21
-72.5977
0
LINE
8
BLACK
6
CONTINUOUS
10
152.553
20
-72.5977
11
152.542
21
-72.5883
0
LINE
8
BLACK
6
CONTINUOUS
10
152.542
20
-72.5883
11
152.532
21
-72.5769
0
LINE
8
BLACK
6
CONTINUOUS
10
152.532
20
-72.5769
11
152.525
21
-72.5638
0
LINE
8
BLACK
6
CONTINUOUS
10
152.525
20
-72.5638
11
152.521
21
-72.5497
0
LINE
8
BLACK
6
CONTINUOUS
10
152.521
20
-72.5497
11
152.52
21
-72.535
0
LINE
8
BLACK
6
CONTINUOUS
10
152.52
20
-72.535
11
152.52
21
-72.5313
0
LINE
8
BLACK
6
CONTINUOUS
10
152.52
20
-72.5313
11
152.52
21
-58.5387
0
LINE
8
BLACK
6
CONTINUOUS
10
152.52
20
-58.5387
11
152.52
21
-58.535
0
LINE
8
BLACK
6
CONTINUOUS
10
152.52
20
-58.535
11
152.521
21
-58.5203
0
LINE
8
BLACK
6
CONTINUOUS
10
152.521
20
-58.5203
11
152.525
21
-58.5062
0
LINE
8
BLACK
6
CONTINUOUS
10
152.525
20
-58.5062
11
152.532
21
-58.4931
0
LINE
8
BLACK
6
CONTINUOUS
10
152.532
20
-58.4931
11
152.542
21
-58.4817
0
LINE
8
BLACK
6
CONTINUOUS
10
152.542
20
-58.4817
11
152.553
21
-58.4723
0
LINE
8
BLACK
6
CONTINUOUS
10
152.553
20
-58.4723
11
152.566
21
-58.4654
0
LINE
8
BLACK
6
CONTINUOUS
10
152.566
20
-58.4654
11
152.58
21
-58.4611
0
LINE
8
BLACK
6
CONTINUOUS
10
152.58
20
-58.4611
11
152.591
21
-58.46
0
LINE
8
BLACK
6
CONTINUOUS
10
152.591
20
-58.46
11
152.595
21
-58.4596
0
LINE
8
BLACK
6
CONTINUOUS
10
152.595
20
-58.4596
11
152.599
21
-58.46
0
LINE
8
BLACK
6
CONTINUOUS
10
152.599
20
-58.46
11
166.591
21
-58.46
0
LINE
8
BLACK
6
CONTINUOUS
10
166.591
20
-58.46
11
166.595
21
-58.4596
0
LINE
8
BLACK
6
CONTINUOUS
10
166.595
20
-58.4596
11
166.599
21
-58.46
0
LINE
8
BLACK
6
CONTINUOUS
10
152.67
20
-58.61
11
152.67
21
-72.46
0
LINE
8
BLACK
6
CONTINUOUS
10
152.67
20
-72.46
11
166.52
21
-72.46
0
LINE
8
BLACK
6
CONTINUOUS
10
166.52
20
-72.46
11
166.52
21
-58.61
0
LINE
8
BLACK
6
CONTINUOUS
10
166.52
20
-58.61
11
152.67
21
-58.61
0
LINE
8
BLACK
6
CONTINUOUS
10
204.699
20
-46.77
11
204.71
21
-46.7711
0
LINE
8
BLACK
6
CONTINUOUS
10
204.71
20
-46.7711
11
204.724
21
-46.7754
0
LINE
8
BLACK
6
CONTINUOUS
10
204.724
20
-46.7754
11
204.737
21
-46.7823
0
LINE
8
BLACK
6
CONTINUOUS
10
204.737
20
-46.7823
11
204.748
21
-46.7917
0
LINE
8
BLACK
6
CONTINUOUS
10
204.748
20
-46.7917
11
204.758
21
-46.8031
0
LINE
8
BLACK
6
CONTINUOUS
10
204.758
20
-46.8031
11
204.765
21
-46.8162
0
LINE
8
BLACK
6
CONTINUOUS
10
204.765
20
-46.8162
11
204.769
21
-46.8303
0
LINE
8
BLACK
6
CONTINUOUS
10
204.769
20
-46.8303
11
204.77
21
-46.845
0
LINE
8
BLACK
6
CONTINUOUS
10
204.77
20
-46.845
11
204.77
21
-46.8487
0
LINE
8
BLACK
6
CONTINUOUS
10
204.77
20
-46.8487
11
204.77
21
-60.8413
0
LINE
8
BLACK
6
CONTINUOUS
10
204.77
20
-60.8413
11
204.77
21
-60.845
0
LINE
8
BLACK
6
CONTINUOUS
10
204.77
20
-60.845
11
204.769
21
-60.8597
0
LINE
8
BLACK
6
CONTINUOUS
10
204.769
20
-60.8597
11
204.765
21
-60.8738
0
LINE
8
BLACK
6
CONTINUOUS
10
204.765
20
-60.8738
11
204.758
21
-60.8869
0
LINE
8
BLACK
6
CONTINUOUS
10
204.758
20
-60.8869
11
204.748
21
-60.8983
0
LINE
8
BLACK
6
CONTINUOUS
10
204.748
20
-60.8983
11
204.737
21
-60.9077
0
LINE
8
BLACK
6
CONTINUOUS
10
204.737
20
-60.9077
11
204.724
21
-60.9146
0
LINE
8
BLACK
6
CONTINUOUS
10
204.724
20
-60.9146
11
204.71
21
-60.9189
0
LINE
8
BLACK
6
CONTINUOUS
10
204.71
20
-60.9189
11
204.699
21
-60.92
0
LINE
8
BLACK
6
CONTINUOUS
10
204.699
20
-60.92
11
204.695
21
-60.9204
0
LINE
8
BLACK
6
CONTINUOUS
10
204.695
20
-60.9204
11
204.691
21
-60.92
0
LINE
8
BLACK
6
CONTINUOUS
10
204.691
20
-60.92
11
190.699
21
-60.92
0
LINE
8
BLACK
6
CONTINUOUS
10
190.699
20
-60.92
11
190.695
21
-60.9204
0
LINE
8
BLACK
6
CONTINUOUS
10
190.695
20
-60.9204
11
190.68
21
-60.9189
0
LINE
8
BLACK
6
CONTINUOUS
10
190.68
20
-60.9189
11
190.666
21
-60.9146
0
LINE
8
BLACK
6
CONTINUOUS
10
190.666
20
-60.9146
11
190.653
21
-60.9077
0
LINE
8
BLACK
6
CONTINUOUS
10
190.653
20
-60.9077
11
190.642
21
-60.8983
0
LINE
8
BLACK
6
CONTINUOUS
10
190.642
20
-60.8983
11
190.632
21
-60.8869
0
LINE
8
BLACK
6
CONTINUOUS
10
190.632
20
-60.8869
11
190.625
21
-60.8738
0
LINE
8
BLACK
6
CONTINUOUS
10
190.625
20
-60.8738
11
190.621
21
-60.8597
0
LINE
8
BLACK
6
CONTINUOUS
10
190.621
20
-60.8597
11
190.62
21
-60.845
0
LINE
8
BLACK
6
CONTINUOUS
10
190.62
20
-60.845
11
190.62
21
-60.8413
0
LINE
8
BLACK
6
CONTINUOUS
10
190.62
20
-60.8413
11
190.62
21
-46.8487
0
LINE
8
BLACK
6
CONTINUOUS
10
190.62
20
-46.8487
11
190.62
21
-46.845
0
LINE
8
BLACK
6
CONTINUOUS
10
190.62
20
-46.845
11
190.621
21
-46.8303
0
LINE
8
BLACK
6
CONTINUOUS
10
190.621
20
-46.8303
11
190.625
21
-46.8162
0
LINE
8
BLACK
6
CONTINUOUS
10
190.625
20
-46.8162
11
190.632
21
-46.8031
0
LINE
8
BLACK
6
CONTINUOUS
10
190.632
20
-46.8031
11
190.642
21
-46.7917
0
LINE
8
BLACK
6
CONTINUOUS
10
190.642
20
-46.7917
11
190.653
21
-46.7823
0
LINE
8
BLACK
6
CONTINUOUS
10
190.653
20
-46.7823
11
190.666
21
-46.7754
0
LINE
8
BLACK
6
CONTINUOUS
10
190.666
20
-46.7754
11
190.68
21
-46.7711
0
LINE
8
BLACK
6
CONTINUOUS
10
190.68
20
-46.7711
11
190.691
21
-46.77
0
LINE
8
BLACK
6
CONTINUOUS
10
190.691
20
-46.77
11
190.695
21
-46.7696
0
LINE
8
BLACK
6
CONTINUOUS
10
190.695
20
-46.7696
11
190.699
21
-46.77
0
LINE
8
BLACK
6
CONTINUOUS
10
190.699
20
-46.77
11
204.691
21
-46.77
0
LINE
8
BLACK
6
CONTINUOUS
10
204.691
20
-46.77
11
204.695
21
-46.7696
0
LINE
8
BLACK
6
CONTINUOUS
10
204.695
20
-46.7696
11
204.699
21
-46.77
0
LINE
8
BLACK
6
CONTINUOUS
10
190.77
20
-46.92
11
190.77
21
-60.77
0
LINE
8
BLACK
6
CONTINUOUS
10
190.77
20
-60.77
11
204.62
21
-60.77
0
LINE
8
BLACK
6
CONTINUOUS
10
204.62
20
-60.77
11
204.62
21
-46.92
0
LINE
8
BLACK
6
CONTINUOUS
10
204.62
20
-46.92
11
190.77
21
-46.92
0
LINE
8
BLACK
6
CONTINUOUS
10
223.699
20
-46.77
11
223.71
21
-46.7711
0
LINE
8
BLACK
6
CONTINUOUS
10
223.71
20
-46.7711
11
223.724
21
-46.7754
0
LINE
8
BLACK
6
CONTINUOUS
10
223.724
20
-46.7754
11
223.737
21
-46.7823
0
LINE
8
BLACK
6
CONTINUOUS
10
223.737
20
-46.7823
11
223.748
21
-46.7917
0
LINE
8
BLACK
6
CONTINUOUS
10
223.748
20
-46.7917
11
223.758
21
-46.8031
0
LINE
8
BLACK
6
CONTINUOUS
10
223.758
20
-46.8031
11
223.765
21
-46.8162
0
LINE
8
BLACK
6
CONTINUOUS
10
223.765
20
-46.8162
11
223.769
21
-46.8303
0
LINE
8
BLACK
6
CONTINUOUS
10
223.769
20
-46.8303
11
223.77
21
-46.845
0
LINE
8
BLACK
6
CONTINUOUS
10
223.77
20
-46.845
11
223.77
21
-46.8487
0
LINE
8
BLACK
6
CONTINUOUS
10
223.77
20
-46.8487
11
223.77
21
-60.8413
0
LINE
8
BLACK
6
CONTINUOUS
10
223.77
20
-60.8413
11
223.77
21
-60.845
0
LINE
8
BLACK
6
CONTINUOUS
10
223.77
20
-60.845
11
223.769
21
-60.8597
0
LINE
8
BLACK
6
CONTINUOUS
10
223.769
20
-60.8597
11
223.765
21
-60.8738
0
LINE
8
BLACK
6
CONTINUOUS
10
223.765
20
-60.8738
11
223.758
21
-60.8869
0
LINE
8
BLACK
6
CONTINUOUS
10
223.758
20
-60.8869
11
223.748
21
-60.8983
0
LINE
8
BLACK
6
CONTINUOUS
10
223.748
20
-60.8983
11
223.737
21
-60.9077
0
LINE
8
BLACK
6
CONTINUOUS
10
223.737
20
-60.9077
11
223.724
21
-60.9146
0
LINE
8
BLACK
6
CONTINUOUS
10
223.724
20
-60.9146
11
223.71
21
-60.9189
0
LINE
8
BLACK
6
CONTINUOUS
10
223.71
20
-60.9189
11
223.699
21
-60.92
0
LINE
8
BLACK
6
CONTINUOUS
10
223.699
20
-60.92
11
223.695
21
-60.9204
0
LINE
8
BLACK
6
CONTINUOUS
10
223.695
20
-60.9204
11
223.691
21
-60.92
0
LINE
8
BLACK
6
CONTINUOUS
10
223.691
20
-60.92
11
209.699
21
-60.92
0
LINE
8
BLACK
6
CONTINUOUS
10
209.699
20
-60.92
11
209.695
21
-60.9204
0
LINE
8
BLACK
6
CONTINUOUS
10
209.695
20
-60.9204
11
209.68
21
-60.9189
0
LINE
8
BLACK
6
CONTINUOUS
10
209.68
20
-60.9189
11
209.666
21
-60.9146
0
LINE
8
BLACK
6
CONTINUOUS
10
209.666
20
-60.9146
11
209.653
21
-60.9077
0
LINE
8
BLACK
6
CONTINUOUS
10
209.653
20
-60.9077
11
209.642
21
-60.8983
0
LINE
8
BLACK
6
CONTINUOUS
10
209.642
20
-60.8983
11
209.632
21
-60.8869
0
LINE
8
BLACK
6
CONTINUOUS
10
209.632
20
-60.8869
11
209.625
21
-60.8738
0
LINE
8
BLACK
6
CONTINUOUS
10
209.625
20
-60.8738
11
209.621
21
-60.8597
0
LINE
8
BLACK
6
CONTINUOUS
10
209.621
20
-60.8597
11
209.62
21
-60.845
0
LINE
8
BLACK
6
CONTINUOUS
10
209.62
20
-60.845
11
209.62
21
-60.8413
0
LINE
8
BLACK
6
CONTINUOUS
10
209.62
20
-60.8413
11
209.62
21
-46.8487
0
LINE
8
BLACK
6
CONTINUOUS
10
209.62
20
-46.8487
11
209.62
21
-46.845
0
LINE
8
BLACK
6
CONTINUOUS
10
209.62
20
-46.845
11
209.621
21
-46.8303
0
LINE
8
BLACK
6
CONTINUOUS
10
209.621
20
-46.8303
11
209.625
21
-46.8162
0
LINE
8
BLACK
6
CONTINUOUS
10
209.625
20
-46.8162
11
209.632
21
-46.8031
0
LINE
8
BLACK
6
CONTINUOUS
10
209.632
20
-46.8031
11
209.642
21
-46.7917
0
LINE
8
BLACK
6
CONTINUOUS
10
209.642
20
-46.7917
11
209.653
21
-46.7823
0
LINE
8
BLACK
6
CONTINUOUS
10
209.653
20
-46.7823
11
209.666
21
-46.7754
0
LINE
8
BLACK
6
CONTINUOUS
10
209.666
20
-46.7754
11
209.68
21
-46.7711
0
LINE
8
BLACK
6
CONTINUOUS
10
209.68
20
-46.7711
11
209.691
21
-46.77
0
LINE
8
BLACK
6
CONTINUOUS
10
209.691
20
-46.77
11
209.695
21
-46.7696
0
LINE
8
BLACK
6
CONTINUOUS
10
209.695
20
-46.7696
11
209.699
21
-46.77
0
LINE
8
BLACK
6
CONTINUOUS
10
209.699
20
-46.77
11
223.691
21
-46.77
0
LINE
8
BLACK
6
CONTINUOUS
10
223.691
20
-46.77
11
223.695
21
-46.7696
0
LINE
8
BLACK
6
CONTINUOUS
10
223.695
20
-46.7696
11
223.699
21
-46.77
0
LINE
8
BLACK
6
CONTINUOUS
10
209.77
20
-46.92
11
209.77
21
-60.77
0
LINE
8
BLACK
6
CONTINUOUS
10
209.77
20
-60.77
11
223.62
21
-60.77
0
LINE
8
BLACK
6
CONTINUOUS
10
223.62
20
-60.77
11
223.62
21
-46.92
0
LINE
8
BLACK
6
CONTINUOUS
10
223.62
20
-46.92
11
209.77
21
-46.92
0
LINE
8
BLACK
6
CONTINUOUS
10
128.499
20
-44.37
11
128.51
21
-44.3711
0
LINE
8
BLACK
6
CONTINUOUS
10
128.51
20
-44.3711
11
128.524
21
-44.3754
0
LINE
8
BLACK
6
CONTINUOUS
10
128.524
20
-44.3754
11
128.537
21
-44.3823
0
LINE
8
BLACK
6
CONTINUOUS
10
128.537
20
-44.3823
11
128.548
21
-44.3917
0
LINE
8
BLACK
6
CONTINUOUS
10
128.548
20
-44.3917
11
128.558
21
-44.4031
0
LINE
8
BLACK
6
CONTINUOUS
10
128.558
20
-44.4031
11
128.565
21
-44.4162
0
LINE
8
BLACK
6
CONTINUOUS
10
128.565
20
-44.4162
11
128.569
21
-44.4303
0
LINE
8
BLACK
6
CONTINUOUS
10
128.569
20
-44.4303
11
128.57
21
-44.445
0
LINE
8
BLACK
6
CONTINUOUS
10
128.57
20
-44.445
11
128.57
21
-44.4487
0
LINE
8
BLACK
6
CONTINUOUS
10
128.57
20
-44.4487
11
128.57
21
-58.4413
0
LINE
8
BLACK
6
CONTINUOUS
10
128.57
20
-58.4413
11
128.57
21
-58.445
0
LINE
8
BLACK
6
CONTINUOUS
10
128.57
20
-58.445
11
128.569
21
-58.4597
0
LINE
8
BLACK
6
CONTINUOUS
10
128.569
20
-58.4597
11
128.565
21
-58.4738
0
LINE
8
BLACK
6
CONTINUOUS
10
128.565
20
-58.4738
11
128.558
21
-58.4869
0
LINE
8
BLACK
6
CONTINUOUS
10
128.558
20
-58.4869
11
128.548
21
-58.4983
0
LINE
8
BLACK
6
CONTINUOUS
10
128.548
20
-58.4983
11
128.537
21
-58.5077
0
LINE
8
BLACK
6
CONTINUOUS
10
128.537
20
-58.5077
11
128.524
21
-58.5146
0
LINE
8
BLACK
6
CONTINUOUS
10
128.524
20
-58.5146
11
128.51
21
-58.5189
0
LINE
8
BLACK
6
CONTINUOUS
10
128.51
20
-58.5189
11
128.499
21
-58.52
0
LINE
8
BLACK
6
CONTINUOUS
10
128.499
20
-58.52
11
128.495
21
-58.5204
0
LINE
8
BLACK
6
CONTINUOUS
10
128.495
20
-58.5204
11
128.491
21
-58.52
0
LINE
8
BLACK
6
CONTINUOUS
10
128.491
20
-58.52
11
114.499
21
-58.52
0
LINE
8
BLACK
6
CONTINUOUS
10
114.499
20
-58.52
11
114.495
21
-58.5204
0
LINE
8
BLACK
6
CONTINUOUS
10
114.495
20
-58.5204
11
114.48
21
-58.5189
0
LINE
8
BLACK
6
CONTINUOUS
10
114.48
20
-58.5189
11
114.466
21
-58.5146
0
LINE
8
BLACK
6
CONTINUOUS
10
114.466
20
-58.5146
11
114.453
21
-58.5077
0
LINE
8
BLACK
6
CONTINUOUS
10
114.453
20
-58.5077
11
114.442
21
-58.4983
0
LINE
8
BLACK
6
CONTINUOUS
10
114.442
20
-58.4983
11
114.437
21
-58.4931
0
LINE
8
BLACK
6
CONTINUOUS
10
114.437
20
-58.4931
11
114.432
21
-58.4869
0
LINE
8
BLACK
6
CONTINUOUS
10
114.432
20
-58.4869
11
114.425
21
-58.4738
0
LINE
8
BLACK
6
CONTINUOUS
10
114.425
20
-58.4738
11
114.421
21
-58.4597
0
LINE
8
BLACK
6
CONTINUOUS
10
114.421
20
-58.4597
11
114.42
21
-58.445
0
LINE
8
BLACK
6
CONTINUOUS
10
114.42
20
-58.445
11
114.42
21
-58.4413
0
LINE
8
BLACK
6
CONTINUOUS
10
114.42
20
-58.4413
11
114.42
21
-44.4487
0
LINE
8
BLACK
6
CONTINUOUS
10
114.42
20
-44.4487
11
114.42
21
-44.445
0
LINE
8
BLACK
6
CONTINUOUS
10
114.42
20
-44.445
11
114.421
21
-44.4303
0
LINE
8
BLACK
6
CONTINUOUS
10
114.421
20
-44.4303
11
114.425
21
-44.4162
0
LINE
8
BLACK
6
CONTINUOUS
10
114.425
20
-44.4162
11
114.432
21
-44.4031
0
LINE
8
BLACK
6
CONTINUOUS
10
114.432
20
-44.4031
11
114.442
21
-44.3917
0
LINE
8
BLACK
6
CONTINUOUS
10
114.442
20
-44.3917
11
114.453
21
-44.3823
0
LINE
8
BLACK
6
CONTINUOUS
10
114.453
20
-44.3823
11
114.466
21
-44.3754
0
LINE
8
BLACK
6
CONTINUOUS
10
114.466
20
-44.3754
11
114.48
21
-44.3711
0
LINE
8
BLACK
6
CONTINUOUS
10
114.48
20
-44.3711
11
114.491
21
-44.37
0
LINE
8
BLACK
6
CONTINUOUS
10
114.491
20
-44.37
11
114.495
21
-44.3696
0
LINE
8
BLACK
6
CONTINUOUS
10
114.495
20
-44.3696
11
114.499
21
-44.37
0
LINE
8
BLACK
6
CONTINUOUS
10
114.499
20
-44.37
11
128.491
21
-44.37
0
LINE
8
BLACK
6
CONTINUOUS
10
128.491
20
-44.37
11
128.495
21
-44.3696
0
LINE
8
BLACK
6
CONTINUOUS
10
128.495
20
-44.3696
11
128.499
21
-44.37
0
LINE
8
BLACK
6
CONTINUOUS
10
114.57
20
-44.52
11
114.57
21
-58.37
0
LINE
8
BLACK
6
CONTINUOUS
10
114.57
20
-58.37
11
128.42
21
-58.37
0
LINE
8
BLACK
6
CONTINUOUS
10
128.42
20
-58.37
11
128.42
21
-44.52
0
LINE
8
BLACK
6
CONTINUOUS
10
128.42
20
-44.52
11
114.57
21
-44.52
0
LINE
8
BLACK
6
CONTINUOUS
10
185.599
20
-41.91
11
185.61
21
-41.9111
0
LINE
8
BLACK
6
CONTINUOUS
10
185.61
20
-41.9111
11
185.624
21
-41.9154
0
LINE
8
BLACK
6
CONTINUOUS
10
185.624
20
-41.9154
11
185.637
21
-41.9223
0
LINE
8
BLACK
6
CONTINUOUS
10
185.637
20
-41.9223
11
185.648
21
-41.9317
0
LINE
8
BLACK
6
CONTINUOUS
10
185.648
20
-41.9317
11
185.658
21
-41.9431
0
LINE
8
BLACK
6
CONTINUOUS
10
185.658
20
-41.9431
11
185.665
21
-41.9562
0
LINE
8
BLACK
6
CONTINUOUS
10
185.665
20
-41.9562
11
185.669
21
-41.9703
0
LINE
8
BLACK
6
CONTINUOUS
10
185.669
20
-41.9703
11
185.67
21
-41.985
0
LINE
8
BLACK
6
CONTINUOUS
10
185.67
20
-41.985
11
185.67
21
-41.9887
0
LINE
8
BLACK
6
CONTINUOUS
10
185.67
20
-41.9887
11
185.67
21
-55.9813
0
LINE
8
BLACK
6
CONTINUOUS
10
185.67
20
-55.9813
11
185.67
21
-55.985
0
LINE
8
BLACK
6
CONTINUOUS
10
185.67
20
-55.985
11
185.669
21
-55.9997
0
LINE
8
BLACK
6
CONTINUOUS
10
185.669
20
-55.9997
11
185.665
21
-56.0138
0
LINE
8
BLACK
6
CONTINUOUS
10
185.665
20
-56.0138
11
185.658
21
-56.0269
0
LINE
8
BLACK
6
CONTINUOUS
10
185.658
20
-56.0269
11
185.648
21
-56.0383
0
LINE
8
BLACK
6
CONTINUOUS
10
185.648
20
-56.0383
11
185.637
21
-56.0477
0
LINE
8
BLACK
6
CONTINUOUS
10
185.637
20
-56.0477
11
185.624
21
-56.0546
0
LINE
8
BLACK
6
CONTINUOUS
10
185.624
20
-56.0546
11
185.61
21
-56.0589
0
LINE
8
BLACK
6
CONTINUOUS
10
185.61
20
-56.0589
11
185.599
21
-56.06
0
LINE
8
BLACK
6
CONTINUOUS
10
185.599
20
-56.06
11
185.595
21
-56.0604
0
LINE
8
BLACK
6
CONTINUOUS
10
185.595
20
-56.0604
11
185.591
21
-56.06
0
LINE
8
BLACK
6
CONTINUOUS
10
185.591
20
-56.06
11
171.599
21
-56.06
0
LINE
8
BLACK
6
CONTINUOUS
10
171.599
20
-56.06
11
171.595
21
-56.0604
0
LINE
8
BLACK
6
CONTINUOUS
10
171.595
20
-56.0604
11
171.58
21
-56.0589
0
LINE
8
BLACK
6
CONTINUOUS
10
171.58
20
-56.0589
11
171.566
21
-56.0546
0
LINE
8
BLACK
6
CONTINUOUS
10
171.566
20
-56.0546
11
171.553
21
-56.0477
0
LINE
8
BLACK
6
CONTINUOUS
10
171.553
20
-56.0477
11
171.542
21
-56.0383
0
LINE
8
BLACK
6
CONTINUOUS
10
171.542
20
-56.0383
11
171.532
21
-56.0269
0
LINE
8
BLACK
6
CONTINUOUS
10
171.532
20
-56.0269
11
171.525
21
-56.0138
0
LINE
8
BLACK
6
CONTINUOUS
10
171.525
20
-56.0138
11
171.521
21
-55.9997
0
LINE
8
BLACK
6
CONTINUOUS
10
171.521
20
-55.9997
11
171.52
21
-55.985
0
LINE
8
BLACK
6
CONTINUOUS
10
171.52
20
-55.985
11
171.52
21
-55.9813
0
LINE
8
BLACK
6
CONTINUOUS
10
171.52
20
-55.9813
11
171.52
21
-41.9887
0
LINE
8
BLACK
6
CONTINUOUS
10
171.52
20
-41.9887
11
171.52
21
-41.985
0
LINE
8
BLACK
6
CONTINUOUS
10
171.52
20
-41.985
11
171.521
21
-41.9703
0
LINE
8
BLACK
6
CONTINUOUS
10
171.521
20
-41.9703
11
171.525
21
-41.9562
0
LINE
8
BLACK
6
CONTINUOUS
10
171.525
20
-41.9562
11
171.532
21
-41.9431
0
LINE
8
BLACK
6
CONTINUOUS
10
171.532
20
-41.9431
11
171.542
21
-41.9317
0
LINE
8
BLACK
6
CONTINUOUS
10
171.542
20
-41.9317
11
171.553
21
-41.9223
0
LINE
8
BLACK
6
CONTINUOUS
10
171.553
20
-41.9223
11
171.566
21
-41.9154
0
LINE
8
BLACK
6
CONTINUOUS
10
171.566
20
-41.9154
11
171.58
21
-41.9111
0
LINE
8
BLACK
6
CONTINUOUS
10
171.58
20
-41.9111
11
171.591
21
-41.91
0
LINE
8
BLACK
6
CONTINUOUS
10
171.591
20
-41.91
11
171.595
21
-41.9096
0
LINE
8
BLACK
6
CONTINUOUS
10
171.595
20
-41.9096
11
171.599
21
-41.91
0
LINE
8
BLACK
6
CONTINUOUS
10
171.599
20
-41.91
11
185.591
21
-41.91
0
LINE
8
BLACK
6
CONTINUOUS
10
185.591
20
-41.91
11
185.595
21
-41.9096
0
LINE
8
BLACK
6
CONTINUOUS
10
185.595
20
-41.9096
11
185.599
21
-41.91
0
LINE
8
BLACK
6
CONTINUOUS
10
171.67
20
-42.06
11
171.67
21
-55.91
0
LINE
8
BLACK
6
CONTINUOUS
10
171.67
20
-55.91
11
185.52
21
-55.91
0
LINE
8
BLACK
6
CONTINUOUS
10
185.52
20
-55.91
11
185.52
21
-42.06
0
LINE
8
BLACK
6
CONTINUOUS
10
185.52
20
-42.06
11
171.67
21
-42.06
0
LINE
8
BLACK
6
CONTINUOUS
10
147.499
20
-41.87
11
147.51
21
-41.8711
0
LINE
8
BLACK
6
CONTINUOUS
10
147.51
20
-41.8711
11
147.524
21
-41.8754
0
LINE
8
BLACK
6
CONTINUOUS
10
147.524
20
-41.8754
11
147.537
21
-41.8823
0
LINE
8
BLACK
6
CONTINUOUS
10
147.537
20
-41.8823
11
147.548
21
-41.8917
0
LINE
8
BLACK
6
CONTINUOUS
10
147.548
20
-41.8917
11
147.558
21
-41.9031
0
LINE
8
BLACK
6
CONTINUOUS
10
147.558
20
-41.9031
11
147.565
21
-41.9162
0
LINE
8
BLACK
6
CONTINUOUS
10
147.565
20
-41.9162
11
147.569
21
-41.9303
0
LINE
8
BLACK
6
CONTINUOUS
10
147.569
20
-41.9303
11
147.57
21
-41.945
0
LINE
8
BLACK
6
CONTINUOUS
10
147.57
20
-41.945
11
147.57
21
-41.9487
0
LINE
8
BLACK
6
CONTINUOUS
10
147.57
20
-41.9487
11
147.57
21
-55.9413
0
LINE
8
BLACK
6
CONTINUOUS
10
147.57
20
-55.9413
11
147.57
21
-55.945
0
LINE
8
BLACK
6
CONTINUOUS
10
147.57
20
-55.945
11
147.569
21
-55.9597
0
LINE
8
BLACK
6
CONTINUOUS
10
147.569
20
-55.9597
11
147.565
21
-55.9738
0
LINE
8
BLACK
6
CONTINUOUS
10
147.565
20
-55.9738
11
147.558
21
-55.9869
0
LINE
8
BLACK
6
CONTINUOUS
10
147.558
20
-55.9869
11
147.548
21
-55.9983
0
LINE
8
BLACK
6
CONTINUOUS
10
147.548
20
-55.9983
11
147.537
21
-56.0077
0
LINE
8
BLACK
6
CONTINUOUS
10
147.537
20
-56.0077
11
147.524
21
-56.0146
0
LINE
8
BLACK
6
CONTINUOUS
10
147.524
20
-56.0146
11
147.51
21
-56.0189
0
LINE
8
BLACK
6
CONTINUOUS
10
147.51
20
-56.0189
11
147.499
21
-56.02
0
LINE
8
BLACK
6
CONTINUOUS
10
147.499
20
-56.02
11
147.495
21
-56.0204
0
LINE
8
BLACK
6
CONTINUOUS
10
147.495
20
-56.0204
11
147.491
21
-56.02
0
LINE
8
BLACK
6
CONTINUOUS
10
147.491
20
-56.02
11
133.499
21
-56.02
0
LINE
8
BLACK
6
CONTINUOUS
10
133.499
20
-56.02
11
133.495
21
-56.0204
0
LINE
8
BLACK
6
CONTINUOUS
10
133.495
20
-56.0204
11
133.48
21
-56.0189
0
LINE
8
BLACK
6
CONTINUOUS
10
133.48
20
-56.0189
11
133.466
21
-56.0146
0
LINE
8
BLACK
6
CONTINUOUS
10
133.466
20
-56.0146
11
133.453
21
-56.0077
0
LINE
8
BLACK
6
CONTINUOUS
10
133.453
20
-56.0077
11
133.442
21
-55.9983
0
LINE
8
BLACK
6
CONTINUOUS
10
133.442
20
-55.9983
11
133.432
21
-55.9869
0
LINE
8
BLACK
6
CONTINUOUS
10
133.432
20
-55.9869
11
133.425
21
-55.9738
0
LINE
8
BLACK
6
CONTINUOUS
10
133.425
20
-55.9738
11
133.421
21
-55.9597
0
LINE
8
BLACK
6
CONTINUOUS
10
133.421
20
-55.9597
11
133.42
21
-55.945
0
LINE
8
BLACK
6
CONTINUOUS
10
133.42
20
-55.945
11
133.42
21
-55.9413
0
LINE
8
BLACK
6
CONTINUOUS
10
133.42
20
-55.9413
11
133.42
21
-41.9487
0
LINE
8
BLACK
6
CONTINUOUS
10
133.42
20
-41.9487
11
133.42
21
-41.945
0
LINE
8
BLACK
6
CONTINUOUS
10
133.42
20
-41.945
11
133.421
21
-41.9303
0
LINE
8
BLACK
6
CONTINUOUS
10
133.421
20
-41.9303
11
133.425
21
-41.9162
0
LINE
8
BLACK
6
CONTINUOUS
10
133.425
20
-41.9162
11
133.432
21
-41.9031
0
LINE
8
BLACK
6
CONTINUOUS
10
133.432
20
-41.9031
11
133.442
21
-41.8917
0
LINE
8
BLACK
6
CONTINUOUS
10
133.442
20
-41.8917
11
133.453
21
-41.8823
0
LINE
8
BLACK
6
CONTINUOUS
10
133.453
20
-41.8823
11
133.466
21
-41.8754
0
LINE
8
BLACK
6
CONTINUOUS
10
133.466
20
-41.8754
11
133.48
21
-41.8711
0
LINE
8
BLACK
6
CONTINUOUS
10
133.48
20
-41.8711
11
133.491
21
-41.87
0
LINE
8
BLACK
6
CONTINUOUS
10
133.491
20
-41.87
11
133.495
21
-41.8696
0
LINE
8
BLACK
6
CONTINUOUS
10
133.495
20
-41.8696
11
133.499
21
-41.87
0
LINE
8
BLACK
6
CONTINUOUS
10
133.499
20
-41.87
11
147.491
21
-41.87
0
LINE
8
BLACK
6
CONTINUOUS
10
147.491
20
-41.87
11
147.495
21
-41.8696
0
LINE
8
BLACK
6
CONTINUOUS
10
147.495
20
-41.8696
11
147.499
21
-41.87
0
LINE
8
BLACK
6
CONTINUOUS
10
133.57
20
-42.02
11
133.57
21
-55.87
0
LINE
8
BLACK
6
CONTINUOUS
10
133.57
20
-55.87
11
147.42
21
-55.87
0
LINE
8
BLACK
6
CONTINUOUS
10
147.42
20
-55.87
11
147.42
21
-42.02
0
LINE
8
BLACK
6
CONTINUOUS
10
147.42
20
-42.02
11
133.57
21
-42.02
0
LINE
8
BLACK
6
CONTINUOUS
10
166.599
20
-39.37
11
166.61
21
-39.3711
0
LINE
8
BLACK
6
CONTINUOUS
10
166.61
20
-39.3711
11
166.624
21
-39.3754
0
LINE
8
BLACK
6
CONTINUOUS
10
166.624
20
-39.3754
11
166.637
21
-39.3823
0
LINE
8
BLACK
6
CONTINUOUS
10
166.637
20
-39.3823
11
166.648
21
-39.3917
0
LINE
8
BLACK
6
CONTINUOUS
10
166.648
20
-39.3917
11
166.658
21
-39.4031
0
LINE
8
BLACK
6
CONTINUOUS
10
166.658
20
-39.4031
11
166.665
21
-39.4162
0
LINE
8
BLACK
6
CONTINUOUS
10
166.665
20
-39.4162
11
166.669
21
-39.4303
0
LINE
8
BLACK
6
CONTINUOUS
10
166.669
20
-39.4303
11
166.67
21
-39.445
0
LINE
8
BLACK
6
CONTINUOUS
10
166.67
20
-39.445
11
166.67
21
-39.4487
0
LINE
8
BLACK
6
CONTINUOUS
10
166.67
20
-39.4487
11
166.67
21
-53.4413
0
LINE
8
BLACK
6
CONTINUOUS
10
166.67
20
-53.4413
11
166.67
21
-53.445
0
LINE
8
BLACK
6
CONTINUOUS
10
166.67
20
-53.445
11
166.669
21
-53.4597
0
LINE
8
BLACK
6
CONTINUOUS
10
166.669
20
-53.4597
11
166.665
21
-53.4738
0
LINE
8
BLACK
6
CONTINUOUS
10
166.665
20
-53.4738
11
166.658
21
-53.4869
0
LINE
8
BLACK
6
CONTINUOUS
10
166.658
20
-53.4869
11
166.648
21
-53.4983
0
LINE
8
BLACK
6
CONTINUOUS
10
166.648
20
-53.4983
11
166.637
21
-53.5077
0
LINE
8
BLACK
6
CONTINUOUS
10
166.637
20
-53.5077
11
166.624
21
-53.5146
0
LINE
8
BLACK
6
CONTINUOUS
10
166.624
20
-53.5146
11
166.61
21
-53.5189
0
LINE
8
BLACK
6
CONTINUOUS
10
166.61
20
-53.5189
11
166.599
21
-53.52
0
LINE
8
BLACK
6
CONTINUOUS
10
166.599
20
-53.52
11
166.595
21
-53.5204
0
LINE
8
BLACK
6
CONTINUOUS
10
166.595
20
-53.5204
11
166.591
21
-53.52
0
LINE
8
BLACK
6
CONTINUOUS
10
166.591
20
-53.52
11
152.599
21
-53.52
0
LINE
8
BLACK
6
CONTINUOUS
10
152.599
20
-53.52
11
152.595
21
-53.5204
0
LINE
8
BLACK
6
CONTINUOUS
10
152.595
20
-53.5204
11
152.58
21
-53.5189
0
LINE
8
BLACK
6
CONTINUOUS
10
152.58
20
-53.5189
11
152.566
21
-53.5146
0
LINE
8
BLACK
6
CONTINUOUS
10
152.566
20
-53.5146
11
152.553
21
-53.5077
0
LINE
8
BLACK
6
CONTINUOUS
10
152.553
20
-53.5077
11
152.542
21
-53.4983
0
LINE
8
BLACK
6
CONTINUOUS
10
152.542
20
-53.4983
11
152.532
21
-53.4869
0
LINE
8
BLACK
6
CONTINUOUS
10
152.532
20
-53.4869
11
152.525
21
-53.4738
0
LINE
8
BLACK
6
CONTINUOUS
10
152.525
20
-53.4738
11
152.521
21
-53.4597
0
LINE
8
BLACK
6
CONTINUOUS
10
152.521
20
-53.4597
11
152.52
21
-53.445
0
LINE
8
BLACK
6
CONTINUOUS
10
152.52
20
-53.445
11
152.52
21
-53.4413
0
LINE
8
BLACK
6
CONTINUOUS
10
152.52
20
-53.4413
11
152.52
21
-39.4487
0
LINE
8
BLACK
6
CONTINUOUS
10
152.52
20
-39.4487
11
152.52
21
-39.445
0
LINE
8
BLACK
6
CONTINUOUS
10
152.52
20
-39.445
11
152.521
21
-39.4303
0
LINE
8
BLACK
6
CONTINUOUS
10
152.521
20
-39.4303
11
152.525
21
-39.4162
0
LINE
8
BLACK
6
CONTINUOUS
10
152.525
20
-39.4162
11
152.532
21
-39.4031
0
LINE
8
BLACK
6
CONTINUOUS
10
152.532
20
-39.4031
11
152.542
21
-39.3917
0
LINE
8
BLACK
6
CONTINUOUS
10
152.542
20
-39.3917
11
152.553
21
-39.3823
0
LINE
8
BLACK
6
CONTINUOUS
10
152.553
20
-39.3823
11
152.566
21
-39.3754
0
LINE
8
BLACK
6
CONTINUOUS
10
152.566
20
-39.3754
11
152.58
21
-39.3711
0
LINE
8
BLACK
6
CONTINUOUS
10
152.58
20
-39.3711
11
152.591
21
-39.37
0
LINE
8
BLACK
6
CONTINUOUS
10
152.591
20
-39.37
11
152.595
21
-39.3696
0
LINE
8
BLACK
6
CONTINUOUS
10
152.595
20
-39.3696
11
152.599
21
-39.37
0
LINE
8
BLACK
6
CONTINUOUS
10
152.599
20
-39.37
11
166.591
21
-39.37
0
LINE
8
BLACK
6
CONTINUOUS
10
166.591
20
-39.37
11
166.595
21
-39.3696
0
LINE
8
BLACK
6
CONTINUOUS
10
166.595
20
-39.3696
11
166.599
21
-39.37
0
LINE
8
BLACK
6
CONTINUOUS
10
152.67
20
-39.52
11
152.67
21
-53.37
0
LINE
8
BLACK
6
CONTINUOUS
10
152.67
20
-53.37
11
166.52
21
-53.37
0
LINE
8
BLACK
6
CONTINUOUS
10
166.52
20
-53.37
11
166.52
21
-39.52
0
LINE
8
BLACK
6
CONTINUOUS
10
166.52
20
-39.52
11
152.67
21
-39.52
  0
ENDSEC
  0
EOF
