  0
SECTION
  2
HEADER
  9
$ANGBASE
  50
0.0
  9
$ANGDIR
  70
1
  9
$MEASUREMENT
  70
0
  0
ENDSEC
  0
SECTION
  2
TABLES
  0
TABLE
  2
LTYPE
  70
4
  0
LTYPE
  5
40F
  2
CONTINUOUS
  70
0
  3
Solid line
  72
65
  73
0
  40
0.0
  0
LTYPE
  5
410
  2
DASHDOT
 70
0
  3
Dash Dot ____ _ ____ _
 72
65
 73
4
 40
2.0
 49
1.25
 49
-0.25
 49
0.25
 49
-0.25
  0
LTYPE
  5
411
  2
DASHED
 70
0
  3
Dashed __ __ __ __ __
 72
65
 73
2
 40
0.75
 49
0.5
 49
-0.25
  0
LTYPE
  5
43B
  2
DOTTED
 70
0
  3
Dotted .  .  .  .
 72
65
 73
2
 40
0.2
 49
0.0
 49
-0.2
  0
ENDTAB
  0
TABLE
  2
STYLE
  70
4
  0
STYLE
  2
KICAD
  70
0
  40
0
  41
1
  42
1
  50
0
  71
0
  3
isocp.shx
  0
STYLE
  2
KICADB
  70
0
  40
0
  41
1
  42
1
  50
0
  71
0
  3
isocp.shx
  0
STYLE
  2
KICADI
  70
0
  40
0
  41
1
  42
1
  50
15
  71
0
  3
isocp.shx
  0
STYLE
  2
KICADBI
  70
0
  40
0
  41
1
  42
1
  50
15
  71
0
  3
isocp.shx
  0
ENDTAB
  0
TABLE
  2
LAYER
  70
1
  0
LAYER
  2
BLACK
  70
0
  62
7
  6
CONTINUOUS
  0
ENDTAB
  0
ENDSEC
  0
SECTION
  2
ENTITIES
0
LINE
8
BLACK
6
CONTINUOUS
10
6.73037
20
-1.37598
11
6.73041
21
-1.37598
0
LINE
8
BLACK
6
CONTINUOUS
10
6.73041
20
-1.37598
11
6.73047
21
-1.37599
0
LINE
8
BLACK
6
CONTINUOUS
10
6.73047
20
-1.37599
11
6.73053
21
-1.37599
0
LINE
8
BLACK
6
CONTINUOUS
10
6.73053
20
-1.37599
11
6.73057
21
-1.376
0
LINE
8
BLACK
6
CONTINUOUS
10
6.73057
20
-1.376
11
6.7307
21
-1.37601
0
LINE
8
BLACK
6
CONTINUOUS
10
6.7307
20
-1.37601
11
6.73076
21
-1.37603
0
LINE
8
BLACK
6
CONTINUOUS
10
6.73076
20
-1.37603
11
8.83794
21
-1.7085
0
LINE
8
BLACK
6
CONTINUOUS
10
8.83794
20
-1.7085
11
8.83801
21
-1.70851
0
LINE
8
BLACK
6
CONTINUOUS
10
8.83801
20
-1.70851
11
8.83801
21
-1.70851
0
LINE
8
BLACK
6
CONTINUOUS
10
8.83801
20
-1.70851
11
8.83802
21
-1.70851
0
LINE
8
BLACK
6
CONTINUOUS
10
8.83802
20
-1.70851
11
8.83811
21
-1.70853
0
LINE
8
BLACK
6
CONTINUOUS
10
8.83811
20
-1.70853
11
8.84593
21
-1.71054
0
LINE
8
BLACK
6
CONTINUOUS
10
8.84593
20
-1.71054
11
8.84601
21
-1.71055
0
LINE
8
BLACK
6
CONTINUOUS
10
8.84601
20
-1.71055
11
8.84612
21
-1.71058
0
LINE
8
BLACK
6
CONTINUOUS
10
8.84612
20
-1.71058
11
8.84614
21
-1.71059
0
LINE
8
BLACK
6
CONTINUOUS
10
8.84614
20
-1.71059
11
8.84621
21
-1.71062
0
LINE
8
BLACK
6
CONTINUOUS
10
8.84621
20
-1.71062
11
8.84629
21
-1.71064
0
LINE
8
BLACK
6
CONTINUOUS
10
8.84629
20
-1.71064
11
8.8463
21
-1.71065
0
LINE
8
BLACK
6
CONTINUOUS
10
8.8463
20
-1.71065
11
8.84641
21
-1.71069
0
LINE
8
BLACK
6
CONTINUOUS
10
8.84641
20
-1.71069
11
8.84648
21
-1.71073
0
LINE
8
BLACK
6
CONTINUOUS
10
8.84648
20
-1.71073
11
8.85354
21
-1.71397
0
LINE
8
BLACK
6
CONTINUOUS
10
8.85354
20
-1.71397
11
8.85362
21
-1.71399
0
LINE
8
BLACK
6
CONTINUOUS
10
8.85362
20
-1.71399
11
8.85372
21
-1.71405
0
LINE
8
BLACK
6
CONTINUOUS
10
8.85372
20
-1.71405
11
8.85374
21
-1.71406
0
LINE
8
BLACK
6
CONTINUOUS
10
8.85374
20
-1.71406
11
8.85381
21
-1.7141
0
LINE
8
BLACK
6
CONTINUOUS
10
8.85381
20
-1.7141
11
8.85387
21
-1.71413
0
LINE
8
BLACK
6
CONTINUOUS
10
8.85387
20
-1.71413
11
8.85389
21
-1.71414
0
LINE
8
BLACK
6
CONTINUOUS
10
8.85389
20
-1.71414
11
8.85399
21
-1.7142
0
LINE
8
BLACK
6
CONTINUOUS
10
8.85399
20
-1.7142
11
8.85405
21
-1.71425
0
LINE
8
BLACK
6
CONTINUOUS
10
8.85405
20
-1.71425
11
8.86034
21
-1.71861
0
LINE
8
BLACK
6
CONTINUOUS
10
8.86034
20
-1.71861
11
8.8604
21
-1.71865
0
LINE
8
BLACK
6
CONTINUOUS
10
8.8604
20
-1.71865
11
8.8605
21
-1.71872
0
LINE
8
BLACK
6
CONTINUOUS
10
8.8605
20
-1.71872
11
8.86052
21
-1.71874
0
LINE
8
BLACK
6
CONTINUOUS
10
8.86052
20
-1.71874
11
8.86057
21
-1.71879
0
LINE
8
BLACK
6
CONTINUOUS
10
8.86057
20
-1.71879
11
8.86063
21
-1.71883
0
LINE
8
BLACK
6
CONTINUOUS
10
8.86063
20
-1.71883
11
8.86065
21
-1.71885
0
LINE
8
BLACK
6
CONTINUOUS
10
8.86065
20
-1.71885
11
8.86074
21
-1.71892
0
LINE
8
BLACK
6
CONTINUOUS
10
8.86074
20
-1.71892
11
8.86078
21
-1.71898
0
LINE
8
BLACK
6
CONTINUOUS
10
8.86078
20
-1.71898
11
8.86619
21
-1.72433
0
LINE
8
BLACK
6
CONTINUOUS
10
8.86619
20
-1.72433
11
8.86625
21
-1.72437
0
LINE
8
BLACK
6
CONTINUOUS
10
8.86625
20
-1.72437
11
8.86633
21
-1.72446
0
LINE
8
BLACK
6
CONTINUOUS
10
8.86633
20
-1.72446
11
8.86635
21
-1.72448
0
LINE
8
BLACK
6
CONTINUOUS
10
8.86635
20
-1.72448
11
8.86639
21
-1.72453
0
LINE
8
BLACK
6
CONTINUOUS
10
8.86639
20
-1.72453
11
8.86644
21
-1.72459
0
LINE
8
BLACK
6
CONTINUOUS
10
8.86644
20
-1.72459
11
8.86646
21
-1.72461
0
LINE
8
BLACK
6
CONTINUOUS
10
8.86646
20
-1.72461
11
8.86653
21
-1.7247
0
LINE
8
BLACK
6
CONTINUOUS
10
8.86653
20
-1.7247
11
8.86657
21
-1.72477
0
LINE
8
BLACK
6
CONTINUOUS
10
8.86657
20
-1.72477
11
8.87098
21
-1.73096
0
LINE
8
BLACK
6
CONTINUOUS
10
8.87098
20
-1.73096
11
8.87103
21
-1.73101
0
LINE
8
BLACK
6
CONTINUOUS
10
8.87103
20
-1.73101
11
8.87109
21
-1.73111
0
LINE
8
BLACK
6
CONTINUOUS
10
8.87109
20
-1.73111
11
8.8711
21
-1.73113
0
LINE
8
BLACK
6
CONTINUOUS
10
8.8711
20
-1.73113
11
8.87114
21
-1.7312
0
LINE
8
BLACK
6
CONTINUOUS
10
8.87114
20
-1.7312
11
8.87118
21
-1.73126
0
LINE
8
BLACK
6
CONTINUOUS
10
8.87118
20
-1.73126
11
8.87119
21
-1.73128
0
LINE
8
BLACK
6
CONTINUOUS
10
8.87119
20
-1.73128
11
8.87125
21
-1.73139
0
LINE
8
BLACK
6
CONTINUOUS
10
8.87125
20
-1.73139
11
8.87127
21
-1.73146
0
LINE
8
BLACK
6
CONTINUOUS
10
8.87127
20
-1.73146
11
8.87457
21
-1.73836
0
LINE
8
BLACK
6
CONTINUOUS
10
8.87457
20
-1.73836
11
8.87461
21
-1.73843
0
LINE
8
BLACK
6
CONTINUOUS
10
8.87461
20
-1.73843
11
8.87465
21
-1.73854
0
LINE
8
BLACK
6
CONTINUOUS
10
8.87465
20
-1.73854
11
8.87466
21
-1.73856
0
LINE
8
BLACK
6
CONTINUOUS
10
8.87466
20
-1.73856
11
8.87469
21
-1.73863
0
LINE
8
BLACK
6
CONTINUOUS
10
8.87469
20
-1.73863
11
8.87472
21
-1.7387
0
LINE
8
BLACK
6
CONTINUOUS
10
8.87472
20
-1.7387
11
8.87472
21
-1.73872
0
LINE
8
BLACK
6
CONTINUOUS
10
8.87472
20
-1.73872
11
8.87476
21
-1.73883
0
LINE
8
BLACK
6
CONTINUOUS
10
8.87476
20
-1.73883
11
8.87477
21
-1.73891
0
LINE
8
BLACK
6
CONTINUOUS
10
8.87477
20
-1.73891
11
8.87684
21
-1.7464
0
LINE
8
BLACK
6
CONTINUOUS
10
8.87684
20
-1.7464
11
8.87687
21
-1.74647
0
LINE
8
BLACK
6
CONTINUOUS
10
8.87687
20
-1.74647
11
8.87689
21
-1.74658
0
LINE
8
BLACK
6
CONTINUOUS
10
8.87689
20
-1.74658
11
8.8769
21
-1.7466
0
LINE
8
BLACK
6
CONTINUOUS
10
8.8769
20
-1.7466
11
8.87691
21
-1.74668
0
LINE
8
BLACK
6
CONTINUOUS
10
8.87691
20
-1.74668
11
8.87693
21
-1.74676
0
LINE
8
BLACK
6
CONTINUOUS
10
8.87693
20
-1.74676
11
8.87693
21
-1.74677
0
LINE
8
BLACK
6
CONTINUOUS
10
8.87693
20
-1.74677
11
8.87695
21
-1.74689
0
LINE
8
BLACK
6
CONTINUOUS
10
8.87695
20
-1.74689
11
8.87695
21
-1.74697
0
LINE
8
BLACK
6
CONTINUOUS
10
8.87695
20
-1.74697
11
8.87768
21
-1.75501
0
LINE
8
BLACK
6
CONTINUOUS
10
8.87768
20
-1.75501
11
8.87768
21
-1.7551
0
LINE
8
BLACK
6
CONTINUOUS
10
8.87768
20
-1.7551
11
8.87768
21
-1.7551
0
LINE
8
BLACK
6
CONTINUOUS
10
8.87768
20
-1.7551
11
8.87768
21
-1.75511
0
LINE
8
BLACK
6
CONTINUOUS
10
8.87768
20
-1.75511
11
8.87768
21
-1.75519
0
LINE
8
BLACK
6
CONTINUOUS
10
8.87768
20
-1.75519
11
8.87875
21
-4.70252
0
LINE
8
BLACK
6
CONTINUOUS
10
8.87875
20
-4.70252
11
8.87893
21
-4.70269
0
LINE
8
BLACK
6
CONTINUOUS
10
8.87893
20
-4.70269
11
8.87929
21
-4.70315
0
LINE
8
BLACK
6
CONTINUOUS
10
8.87929
20
-4.70315
11
8.87955
21
-4.70367
0
LINE
8
BLACK
6
CONTINUOUS
10
8.87955
20
-4.70367
11
8.8797
21
-4.70423
0
LINE
8
BLACK
6
CONTINUOUS
10
8.8797
20
-4.70423
11
8.87974
21
-4.70481
0
LINE
8
BLACK
6
CONTINUOUS
10
8.87974
20
-4.70481
11
8.87967
21
-4.70538
0
LINE
8
BLACK
6
CONTINUOUS
10
8.87967
20
-4.70538
11
8.87949
21
-4.70594
0
LINE
8
BLACK
6
CONTINUOUS
10
8.87949
20
-4.70594
11
8.8792
21
-4.70644
0
LINE
8
BLACK
6
CONTINUOUS
10
8.8792
20
-4.70644
11
8.87882
21
-4.70688
0
LINE
8
BLACK
6
CONTINUOUS
10
8.87882
20
-4.70688
11
8.87836
21
-4.70724
0
LINE
8
BLACK
6
CONTINUOUS
10
8.87836
20
-4.70724
11
8.87797
21
-4.70743
0
LINE
8
BLACK
6
CONTINUOUS
10
8.87797
20
-4.70743
11
7.38281
21
-5.2784
0
LINE
8
BLACK
6
CONTINUOUS
10
7.38281
20
-5.2784
11
7.38239
21
-5.27852
0
LINE
8
BLACK
6
CONTINUOUS
10
7.38239
20
-5.27852
11
7.38181
21
-5.27856
0
LINE
8
BLACK
6
CONTINUOUS
10
7.38181
20
-5.27856
11
7.38123
21
-5.27848
0
LINE
8
BLACK
6
CONTINUOUS
10
7.38123
20
-5.27848
11
7.38068
21
-5.2783
0
LINE
8
BLACK
6
CONTINUOUS
10
7.38068
20
-5.2783
11
7.38017
21
-5.27801
0
LINE
8
BLACK
6
CONTINUOUS
10
7.38017
20
-5.27801
11
7.37973
21
-5.27763
0
LINE
8
BLACK
6
CONTINUOUS
10
7.37973
20
-5.27763
11
7.37968
21
-5.27756
0
LINE
8
BLACK
6
CONTINUOUS
10
7.37968
20
-5.27756
11
5.43942
21
-5.27756
0
LINE
8
BLACK
6
CONTINUOUS
10
5.43942
20
-5.27756
11
3.69742
21
-5.77944
0
LINE
8
BLACK
6
CONTINUOUS
10
3.69742
20
-5.77944
11
3.69727
21
-5.77949
0
LINE
8
BLACK
6
CONTINUOUS
10
3.69727
20
-5.77949
11
3.69714
21
-5.77951
0
LINE
8
BLACK
6
CONTINUOUS
10
3.69714
20
-5.77951
11
3.69702
21
-5.77953
0
LINE
8
BLACK
6
CONTINUOUS
10
3.69702
20
-5.77953
11
3.69695
21
-5.77953
0
LINE
8
BLACK
6
CONTINUOUS
10
3.69695
20
-5.77953
11
3.69688
21
-5.77954
0
LINE
8
BLACK
6
CONTINUOUS
10
3.69688
20
-5.77954
11
3.69676
21
-5.77953
0
LINE
8
BLACK
6
CONTINUOUS
10
3.69676
20
-5.77953
11
3.69663
21
-5.77952
0
LINE
8
BLACK
6
CONTINUOUS
10
3.69663
20
-5.77952
11
3.69647
21
-5.77949
0
LINE
8
BLACK
6
CONTINUOUS
10
3.69647
20
-5.77949
11
3.67499
21
-5.77559
0
LINE
8
BLACK
6
CONTINUOUS
10
3.67499
20
-5.77559
11
3.67495
21
-5.77558
0
LINE
8
BLACK
6
CONTINUOUS
10
3.67495
20
-5.77558
11
3.6748
21
-5.77555
0
LINE
8
BLACK
6
CONTINUOUS
10
3.6748
20
-5.77555
11
3.67475
21
-5.77554
0
LINE
8
BLACK
6
CONTINUOUS
10
3.67475
20
-5.77554
11
3.67471
21
-5.77553
0
LINE
8
BLACK
6
CONTINUOUS
10
3.67471
20
-5.77553
11
3.67467
21
-5.77552
0
LINE
8
BLACK
6
CONTINUOUS
10
3.67467
20
-5.77552
11
3.67461
21
-5.7755
0
LINE
8
BLACK
6
CONTINUOUS
10
3.67461
20
-5.7755
11
3.67447
21
-5.77546
0
LINE
8
BLACK
6
CONTINUOUS
10
3.67447
20
-5.77546
11
3.67443
21
-5.77544
0
LINE
8
BLACK
6
CONTINUOUS
10
3.67443
20
-5.77544
11
3.65695
21
-5.76962
0
LINE
8
BLACK
6
CONTINUOUS
10
3.65695
20
-5.76962
11
3.65687
21
-5.7696
0
LINE
8
BLACK
6
CONTINUOUS
10
3.65687
20
-5.7696
11
3.65677
21
-5.76956
0
LINE
8
BLACK
6
CONTINUOUS
10
3.65677
20
-5.76956
11
3.65677
21
-5.76955
0
LINE
8
BLACK
6
CONTINUOUS
10
3.65677
20
-5.76955
11
3.65669
21
-5.76952
0
LINE
8
BLACK
6
CONTINUOUS
10
3.65669
20
-5.76952
11
3.65651
21
-5.76944
0
LINE
8
BLACK
6
CONTINUOUS
10
3.65651
20
-5.76944
11
3.65651
21
-5.76944
0
LINE
8
BLACK
6
CONTINUOUS
10
3.65651
20
-5.76944
11
3.6565
21
-5.76943
0
LINE
8
BLACK
6
CONTINUOUS
10
3.6565
20
-5.76943
11
3.65635
21
-5.76933
0
LINE
8
BLACK
6
CONTINUOUS
10
3.65635
20
-5.76933
11
3.65627
21
-5.76927
0
LINE
8
BLACK
6
CONTINUOUS
10
3.65627
20
-5.76927
11
3.65627
21
-5.76927
0
LINE
8
BLACK
6
CONTINUOUS
10
3.65627
20
-5.76927
11
3.65618
21
-5.76921
0
LINE
8
BLACK
6
CONTINUOUS
10
3.65618
20
-5.76921
11
3.65612
21
-5.76914
0
LINE
8
BLACK
6
CONTINUOUS
10
3.65612
20
-5.76914
11
3.64253
21
-5.7575
0
LINE
8
BLACK
6
CONTINUOUS
10
3.64253
20
-5.7575
11
3.64249
21
-5.75747
0
LINE
8
BLACK
6
CONTINUOUS
10
3.64249
20
-5.75747
11
3.64239
21
-5.75737
0
LINE
8
BLACK
6
CONTINUOUS
10
3.64239
20
-5.75737
11
3.64235
21
-5.75734
0
LINE
8
BLACK
6
CONTINUOUS
10
3.64235
20
-5.75734
11
3.64232
21
-5.75731
0
LINE
8
BLACK
6
CONTINUOUS
10
3.64232
20
-5.75731
11
3.64221
21
-5.75721
0
LINE
8
BLACK
6
CONTINUOUS
10
3.64221
20
-5.75721
11
3.64218
21
-5.75717
0
LINE
8
BLACK
6
CONTINUOUS
10
3.64218
20
-5.75717
11
3.64215
21
-5.75713
0
LINE
8
BLACK
6
CONTINUOUS
10
3.64215
20
-5.75713
11
3.64207
21
-5.75701
0
LINE
8
BLACK
6
CONTINUOUS
10
3.64207
20
-5.75701
11
3.64204
21
-5.75697
0
LINE
8
BLACK
6
CONTINUOUS
10
3.64204
20
-5.75697
11
3.64202
21
-5.75693
0
LINE
8
BLACK
6
CONTINUOUS
10
3.64202
20
-5.75693
11
3.64194
21
-5.7568
0
LINE
8
BLACK
6
CONTINUOUS
10
3.64194
20
-5.7568
11
3.64192
21
-5.75676
0
LINE
8
BLACK
6
CONTINUOUS
10
3.64192
20
-5.75676
11
3.23848
21
-5.05615
0
LINE
8
BLACK
6
CONTINUOUS
10
3.23848
20
-5.05615
11
3.23841
21
-5.05605
0
LINE
8
BLACK
6
CONTINUOUS
10
3.23841
20
-5.05605
11
3.23835
21
-5.0559
0
LINE
8
BLACK
6
CONTINUOUS
10
3.23835
20
-5.0559
11
3.23828
21
-5.05575
0
LINE
8
BLACK
6
CONTINUOUS
10
3.23828
20
-5.05575
11
3.23825
21
-5.05562
0
LINE
8
BLACK
6
CONTINUOUS
10
3.23825
20
-5.05562
11
3.23239
21
-5.03608
0
LINE
8
BLACK
6
CONTINUOUS
10
3.23239
20
-5.03608
11
3.23235
21
-5.03598
0
LINE
8
BLACK
6
CONTINUOUS
10
3.23235
20
-5.03598
11
3.23232
21
-5.0358
0
LINE
8
BLACK
6
CONTINUOUS
10
3.23232
20
-5.0358
11
3.23228
21
-5.03562
0
LINE
8
BLACK
6
CONTINUOUS
10
3.23228
20
-5.03562
11
3.23228
21
-5.03551
0
LINE
8
BLACK
6
CONTINUOUS
10
3.23228
20
-5.03551
11
3.23032
21
-5.01199
0
LINE
8
BLACK
6
CONTINUOUS
10
3.23032
20
-5.01199
11
3.23031
21
-5.01191
0
LINE
8
BLACK
6
CONTINUOUS
10
3.23031
20
-5.01191
11
3.23031
21
-5.01189
0
LINE
8
BLACK
6
CONTINUOUS
10
3.23031
20
-5.01189
11
3.23031
21
-5.01188
0
LINE
8
BLACK
6
CONTINUOUS
10
3.23031
20
-5.01188
11
3.23031
21
-5.0118
0
LINE
8
BLACK
6
CONTINUOUS
10
3.23031
20
-5.0118
11
3.23032
21
-4.99616
0
LINE
8
BLACK
6
CONTINUOUS
10
3.23032
20
-4.99616
11
3.23031
21
-4.99606
0
LINE
8
BLACK
6
CONTINUOUS
10
3.23031
20
-4.99606
11
3.23033
21
-4.99584
0
LINE
8
BLACK
6
CONTINUOUS
10
3.23033
20
-4.99584
11
3.23034
21
-4.99568
0
LINE
8
BLACK
6
CONTINUOUS
10
3.23034
20
-4.99568
11
3.23037
21
-4.99558
0
LINE
8
BLACK
6
CONTINUOUS
10
3.23037
20
-4.99558
11
3.23425
21
-4.97618
0
LINE
8
BLACK
6
CONTINUOUS
10
3.23425
20
-4.97618
11
3.23425
21
-4.97618
0
LINE
8
BLACK
6
CONTINUOUS
10
3.23425
20
-4.97618
11
3.23429
21
-4.97601
0
LINE
8
BLACK
6
CONTINUOUS
10
3.23429
20
-4.97601
11
3.23431
21
-4.9759
0
LINE
8
BLACK
6
CONTINUOUS
10
3.23431
20
-4.9759
11
3.23431
21
-4.97589
0
LINE
8
BLACK
6
CONTINUOUS
10
3.23431
20
-4.97589
11
3.23433
21
-4.9758
0
LINE
8
BLACK
6
CONTINUOUS
10
3.23433
20
-4.9758
11
3.23437
21
-4.97571
0
LINE
8
BLACK
6
CONTINUOUS
10
3.23437
20
-4.97571
11
3.23439
21
-4.97562
0
LINE
8
BLACK
6
CONTINUOUS
10
3.23439
20
-4.97562
11
3.23444
21
-4.97553
0
LINE
8
BLACK
6
CONTINUOUS
10
3.23444
20
-4.97553
11
3.23444
21
-4.97553
0
LINE
8
BLACK
6
CONTINUOUS
10
3.23444
20
-4.97553
11
3.23449
21
-4.97544
0
LINE
8
BLACK
6
CONTINUOUS
10
3.23449
20
-4.97544
11
3.23458
21
-4.97528
0
LINE
8
BLACK
6
CONTINUOUS
10
3.23458
20
-4.97528
11
3.23458
21
-4.97528
0
LINE
8
BLACK
6
CONTINUOUS
10
3.23458
20
-4.97528
11
3.46275
21
-4.55236
0
LINE
8
BLACK
6
CONTINUOUS
10
3.46275
20
-4.55236
11
3.47051
21
-4.5291
0
LINE
8
BLACK
6
CONTINUOUS
10
3.47051
20
-4.5291
11
3.47344
21
-4.50382
0
LINE
8
BLACK
6
CONTINUOUS
10
3.47344
20
-4.50382
11
3.47244
21
-3.74137
0
LINE
8
BLACK
6
CONTINUOUS
10
3.47244
20
-3.74137
11
3.07998
21
-3.54514
0
LINE
8
BLACK
6
CONTINUOUS
10
3.07998
20
-3.54514
11
3.07995
21
-3.54513
0
LINE
8
BLACK
6
CONTINUOUS
10
3.07995
20
-3.54513
11
3.0798
21
-3.54506
0
LINE
8
BLACK
6
CONTINUOUS
10
3.0798
20
-3.54506
11
3.07974
21
-3.54502
0
LINE
8
BLACK
6
CONTINUOUS
10
3.07974
20
-3.54502
11
3.07972
21
-3.54501
0
LINE
8
BLACK
6
CONTINUOUS
10
3.07972
20
-3.54501
11
3.07961
21
-3.54495
0
LINE
8
BLACK
6
CONTINUOUS
10
3.07961
20
-3.54495
11
3.07956
21
-3.54491
0
LINE
8
BLACK
6
CONTINUOUS
10
3.07956
20
-3.54491
11
3.0795
21
-3.54487
0
LINE
8
BLACK
6
CONTINUOUS
10
3.0795
20
-3.54487
11
3.07941
21
-3.54478
0
LINE
8
BLACK
6
CONTINUOUS
10
3.07941
20
-3.54478
11
3.07931
21
-3.54471
0
LINE
8
BLACK
6
CONTINUOUS
10
3.07931
20
-3.54471
11
3.07927
21
-3.54465
0
LINE
8
BLACK
6
CONTINUOUS
10
3.07927
20
-3.54465
11
3.07921
21
-3.5446
0
LINE
8
BLACK
6
CONTINUOUS
10
3.07921
20
-3.5446
11
3.07914
21
-3.5445
0
LINE
8
BLACK
6
CONTINUOUS
10
3.07914
20
-3.5445
11
3.07906
21
-3.54441
0
LINE
8
BLACK
6
CONTINUOUS
10
3.07906
20
-3.54441
11
3.07903
21
-3.54434
0
LINE
8
BLACK
6
CONTINUOUS
10
3.07903
20
-3.54434
11
3.07899
21
-3.54429
0
LINE
8
BLACK
6
CONTINUOUS
10
3.07899
20
-3.54429
11
3.07894
21
-3.54417
0
LINE
8
BLACK
6
CONTINUOUS
10
3.07894
20
-3.54417
11
3.07888
21
-3.54406
0
LINE
8
BLACK
6
CONTINUOUS
10
3.07888
20
-3.54406
11
3.07886
21
-3.544
0
LINE
8
BLACK
6
CONTINUOUS
10
3.07886
20
-3.544
11
3.07883
21
-3.54393
0
LINE
8
BLACK
6
CONTINUOUS
10
3.07883
20
-3.54393
11
3.0788
21
-3.54381
0
LINE
8
BLACK
6
CONTINUOUS
10
3.0788
20
-3.54381
11
3.07877
21
-3.54369
0
LINE
8
BLACK
6
CONTINUOUS
10
3.07877
20
-3.54369
11
3.07876
21
-3.54362
0
LINE
8
BLACK
6
CONTINUOUS
10
3.07876
20
-3.54362
11
3.07875
21
-3.54355
0
LINE
8
BLACK
6
CONTINUOUS
10
3.07875
20
-3.54355
11
3.07874
21
-3.54343
0
LINE
8
BLACK
6
CONTINUOUS
10
3.07874
20
-3.54343
11
3.07874
21
-3.5434
0
LINE
8
BLACK
6
CONTINUOUS
10
3.07874
20
-3.5434
11
3.07874
21
-3.54333
0
LINE
8
BLACK
6
CONTINUOUS
10
3.07874
20
-3.54333
11
3.07874
21
-3.54317
0
LINE
8
BLACK
6
CONTINUOUS
10
3.07874
20
-3.54317
11
3.07874
21
-3.54314
0
LINE
8
BLACK
6
CONTINUOUS
10
3.07874
20
-3.54314
11
3.07874
21
-1.8997
0
LINE
8
BLACK
6
CONTINUOUS
10
3.07874
20
-1.8997
11
3.07874
21
-1.8997
0
LINE
8
BLACK
6
CONTINUOUS
10
3.07874
20
-1.8997
11
3.07874
21
-1.6045
0
LINE
8
BLACK
6
CONTINUOUS
10
3.07874
20
-1.6045
11
3.07874
21
-1.60447
0
LINE
8
BLACK
6
CONTINUOUS
10
3.07874
20
-1.60447
11
3.07874
21
-1.6043
0
LINE
8
BLACK
6
CONTINUOUS
10
3.07874
20
-1.6043
11
3.07874
21
-1.60423
0
LINE
8
BLACK
6
CONTINUOUS
10
3.07874
20
-1.60423
11
3.07874
21
-1.60421
0
LINE
8
BLACK
6
CONTINUOUS
10
3.07874
20
-1.60421
11
3.07875
21
-1.60408
0
LINE
8
BLACK
6
CONTINUOUS
10
3.07875
20
-1.60408
11
3.07876
21
-1.60401
0
LINE
8
BLACK
6
CONTINUOUS
10
3.07876
20
-1.60401
11
3.07877
21
-1.60394
0
LINE
8
BLACK
6
CONTINUOUS
10
3.07877
20
-1.60394
11
3.0788
21
-1.60383
0
LINE
8
BLACK
6
CONTINUOUS
10
3.0788
20
-1.60383
11
3.07883
21
-1.60371
0
LINE
8
BLACK
6
CONTINUOUS
10
3.07883
20
-1.60371
11
3.07886
21
-1.60364
0
LINE
8
BLACK
6
CONTINUOUS
10
3.07886
20
-1.60364
11
3.07888
21
-1.60357
0
LINE
8
BLACK
6
CONTINUOUS
10
3.07888
20
-1.60357
11
3.07894
21
-1.60346
0
LINE
8
BLACK
6
CONTINUOUS
10
3.07894
20
-1.60346
11
3.07899
21
-1.60335
0
LINE
8
BLACK
6
CONTINUOUS
10
3.07899
20
-1.60335
11
3.07903
21
-1.60329
0
LINE
8
BLACK
6
CONTINUOUS
10
3.07903
20
-1.60329
11
3.07906
21
-1.60323
0
LINE
8
BLACK
6
CONTINUOUS
10
3.07906
20
-1.60323
11
3.07914
21
-1.60314
0
LINE
8
BLACK
6
CONTINUOUS
10
3.07914
20
-1.60314
11
3.07921
21
-1.60303
0
LINE
8
BLACK
6
CONTINUOUS
10
3.07921
20
-1.60303
11
3.07927
21
-1.60299
0
LINE
8
BLACK
6
CONTINUOUS
10
3.07927
20
-1.60299
11
3.07931
21
-1.60293
0
LINE
8
BLACK
6
CONTINUOUS
10
3.07931
20
-1.60293
11
3.07941
21
-1.60285
0
LINE
8
BLACK
6
CONTINUOUS
10
3.07941
20
-1.60285
11
3.0795
21
-1.60277
0
LINE
8
BLACK
6
CONTINUOUS
10
3.0795
20
-1.60277
11
3.07956
21
-1.60273
0
LINE
8
BLACK
6
CONTINUOUS
10
3.07956
20
-1.60273
11
3.07961
21
-1.60269
0
LINE
8
BLACK
6
CONTINUOUS
10
3.07961
20
-1.60269
11
3.07972
21
-1.60263
0
LINE
8
BLACK
6
CONTINUOUS
10
3.07972
20
-1.60263
11
3.07974
21
-1.60261
0
LINE
8
BLACK
6
CONTINUOUS
10
3.07974
20
-1.60261
11
3.07981
21
-1.60258
0
LINE
8
BLACK
6
CONTINUOUS
10
3.07981
20
-1.60258
11
3.07995
21
-1.6025
0
LINE
8
BLACK
6
CONTINUOUS
10
3.07995
20
-1.6025
11
3.07998
21
-1.6025
0
LINE
8
BLACK
6
CONTINUOUS
10
3.07998
20
-1.6025
11
3.33568
21
-1.47465
0
LINE
8
BLACK
6
CONTINUOUS
10
3.33568
20
-1.47465
11
3.33579
21
-1.47458
0
LINE
8
BLACK
6
CONTINUOUS
10
3.33579
20
-1.47458
11
3.33594
21
-1.47453
0
LINE
8
BLACK
6
CONTINUOUS
10
3.33594
20
-1.47453
11
3.33609
21
-1.47447
0
LINE
8
BLACK
6
CONTINUOUS
10
3.33609
20
-1.47447
11
3.33612
21
-1.47446
0
LINE
8
BLACK
6
CONTINUOUS
10
3.33612
20
-1.47446
11
3.33616
21
-1.47445
0
LINE
8
BLACK
6
CONTINUOUS
10
3.33616
20
-1.47445
11
3.33631
21
-1.47443
0
LINE
8
BLACK
6
CONTINUOUS
10
3.33631
20
-1.47443
11
3.33647
21
-1.4744
0
LINE
8
BLACK
6
CONTINUOUS
10
3.33647
20
-1.4744
11
3.3366
21
-1.47441
0
LINE
8
BLACK
6
CONTINUOUS
10
3.3366
20
-1.47441
11
3.52063
21
-1.46754
0
LINE
8
BLACK
6
CONTINUOUS
10
3.52063
20
-1.46754
11
5.86601
21
-1.37599
0
LINE
8
BLACK
6
CONTINUOUS
10
5.86601
20
-1.37599
11
5.86605
21
-1.37598
0
LINE
8
BLACK
6
CONTINUOUS
10
5.86605
20
-1.37598
11
5.8661
21
-1.37598
0
LINE
8
BLACK
6
CONTINUOUS
10
5.8661
20
-1.37598
11
5.86616
21
-1.37598
0
LINE
8
BLACK
6
CONTINUOUS
10
5.86616
20
-1.37598
11
5.8662
21
-1.37598
0
LINE
8
BLACK
6
CONTINUOUS
10
5.8662
20
-1.37598
11
6.73018
21
-1.37598
0
LINE
8
BLACK
6
CONTINUOUS
10
6.73018
20
-1.37598
11
6.73024
21
-1.37598
0
LINE
8
BLACK
6
CONTINUOUS
10
6.73024
20
-1.37598
11
6.73037
21
-1.37598
0
LINE
8
BLACK
6
CONTINUOUS
10
3.47514
20
-3.73832
11
3.47516
21
-3.73833
0
LINE
8
BLACK
6
CONTINUOUS
10
3.47516
20
-3.73833
11
3.47531
21
-3.73841
0
LINE
8
BLACK
6
CONTINUOUS
10
3.47531
20
-3.73841
11
3.47538
21
-3.73844
0
LINE
8
BLACK
6
CONTINUOUS
10
3.47538
20
-3.73844
11
3.4754
21
-3.73845
0
LINE
8
BLACK
6
CONTINUOUS
10
3.4754
20
-3.73845
11
3.47551
21
-3.73851
0
LINE
8
BLACK
6
CONTINUOUS
10
3.47551
20
-3.73851
11
3.47556
21
-3.73856
0
LINE
8
BLACK
6
CONTINUOUS
10
3.47556
20
-3.73856
11
3.47562
21
-3.73859
0
LINE
8
BLACK
6
CONTINUOUS
10
3.47562
20
-3.73859
11
3.47571
21
-3.73868
0
LINE
8
BLACK
6
CONTINUOUS
10
3.47571
20
-3.73868
11
3.47581
21
-3.73876
0
LINE
8
BLACK
6
CONTINUOUS
10
3.47581
20
-3.73876
11
3.47585
21
-3.73881
0
LINE
8
BLACK
6
CONTINUOUS
10
3.47585
20
-3.73881
11
3.4759
21
-3.73886
0
LINE
8
BLACK
6
CONTINUOUS
10
3.4759
20
-3.73886
11
3.47597
21
-3.73896
0
LINE
8
BLACK
6
CONTINUOUS
10
3.47597
20
-3.73896
11
3.47605
21
-3.73906
0
LINE
8
BLACK
6
CONTINUOUS
10
3.47605
20
-3.73906
11
3.47609
21
-3.73912
0
LINE
8
BLACK
6
CONTINUOUS
10
3.47609
20
-3.73912
11
3.47613
21
-3.73918
0
LINE
8
BLACK
6
CONTINUOUS
10
3.47613
20
-3.73918
11
3.47618
21
-3.73929
0
LINE
8
BLACK
6
CONTINUOUS
10
3.47618
20
-3.73929
11
3.47624
21
-3.7394
0
LINE
8
BLACK
6
CONTINUOUS
10
3.47624
20
-3.7394
11
3.47626
21
-3.73947
0
LINE
8
BLACK
6
CONTINUOUS
10
3.47626
20
-3.73947
11
3.47629
21
-3.73953
0
LINE
8
BLACK
6
CONTINUOUS
10
3.47629
20
-3.73953
11
3.47631
21
-3.73965
0
LINE
8
BLACK
6
CONTINUOUS
10
3.47631
20
-3.73965
11
3.47635
21
-3.73977
0
LINE
8
BLACK
6
CONTINUOUS
10
3.47635
20
-3.73977
11
3.47636
21
-3.73984
0
LINE
8
BLACK
6
CONTINUOUS
10
3.47636
20
-3.73984
11
3.47637
21
-3.73991
0
LINE
8
BLACK
6
CONTINUOUS
10
3.47637
20
-3.73991
11
3.47638
21
-3.74003
0
LINE
8
BLACK
6
CONTINUOUS
10
3.47638
20
-3.74003
11
3.47638
21
-3.74006
0
LINE
8
BLACK
6
CONTINUOUS
10
3.47638
20
-3.74006
11
3.47638
21
-3.74013
0
LINE
8
BLACK
6
CONTINUOUS
10
3.47638
20
-3.74013
11
3.47638
21
-3.7403
0
LINE
8
BLACK
6
CONTINUOUS
10
3.47638
20
-3.7403
11
3.47638
21
-3.74032
0
LINE
8
BLACK
6
CONTINUOUS
10
3.47638
20
-3.74032
11
3.47737
21
-4.50376
0
LINE
8
BLACK
6
CONTINUOUS
10
3.47737
20
-4.50376
11
3.47738
21
-4.50378
0
LINE
8
BLACK
6
CONTINUOUS
10
3.47738
20
-4.50378
11
3.47737
21
-4.50395
0
LINE
8
BLACK
6
CONTINUOUS
10
3.47737
20
-4.50395
11
3.47737
21
-4.50403
0
LINE
8
BLACK
6
CONTINUOUS
10
3.47737
20
-4.50403
11
3.47737
21
-4.50405
0
LINE
8
BLACK
6
CONTINUOUS
10
3.47737
20
-4.50405
11
3.47737
21
-4.50407
0
LINE
8
BLACK
6
CONTINUOUS
10
3.47737
20
-4.50407
11
3.47736
21
-4.50415
0
LINE
8
BLACK
6
CONTINUOUS
10
3.47736
20
-4.50415
11
3.47734
21
-4.50432
0
LINE
8
BLACK
6
CONTINUOUS
10
3.47734
20
-4.50432
11
3.47734
21
-4.50434
0
LINE
8
BLACK
6
CONTINUOUS
10
3.47734
20
-4.50434
11
3.47441
21
-4.52967
0
LINE
8
BLACK
6
CONTINUOUS
10
3.47441
20
-4.52967
11
3.4744
21
-4.52977
0
LINE
8
BLACK
6
CONTINUOUS
10
3.4744
20
-4.52977
11
3.47436
21
-4.52996
0
LINE
8
BLACK
6
CONTINUOUS
10
3.47436
20
-4.52996
11
3.47432
21
-4.53013
0
LINE
8
BLACK
6
CONTINUOUS
10
3.47432
20
-4.53013
11
3.47428
21
-4.53023
0
LINE
8
BLACK
6
CONTINUOUS
10
3.47428
20
-4.53023
11
3.46647
21
-4.55366
0
LINE
8
BLACK
6
CONTINUOUS
10
3.46647
20
-4.55366
11
3.46646
21
-4.55373
0
LINE
8
BLACK
6
CONTINUOUS
10
3.46646
20
-4.55373
11
3.46641
21
-4.55384
0
LINE
8
BLACK
6
CONTINUOUS
10
3.46641
20
-4.55384
11
3.4664
21
-4.55386
0
LINE
8
BLACK
6
CONTINUOUS
10
3.4664
20
-4.55386
11
3.46637
21
-4.55393
0
LINE
8
BLACK
6
CONTINUOUS
10
3.46637
20
-4.55393
11
3.46635
21
-4.554
0
LINE
8
BLACK
6
CONTINUOUS
10
3.46635
20
-4.554
11
3.46633
21
-4.55402
0
LINE
8
BLACK
6
CONTINUOUS
10
3.46633
20
-4.55402
11
3.46629
21
-4.55413
0
LINE
8
BLACK
6
CONTINUOUS
10
3.46629
20
-4.55413
11
3.46624
21
-4.55419
0
LINE
8
BLACK
6
CONTINUOUS
10
3.46624
20
-4.55419
11
3.23809
21
-4.97705
0
LINE
8
BLACK
6
CONTINUOUS
10
3.23809
20
-4.97705
11
3.23425
21
-4.99626
0
LINE
8
BLACK
6
CONTINUOUS
10
3.23425
20
-4.99626
11
3.23425
21
-5.01173
0
LINE
8
BLACK
6
CONTINUOUS
10
3.23425
20
-5.01173
11
3.2362
21
-5.03506
0
LINE
8
BLACK
6
CONTINUOUS
10
3.2362
20
-5.03506
11
3.24198
21
-5.05433
0
LINE
8
BLACK
6
CONTINUOUS
10
3.24198
20
-5.05433
11
3.64524
21
-5.75463
0
LINE
8
BLACK
6
CONTINUOUS
10
3.64524
20
-5.75463
11
3.65847
21
-5.76597
0
LINE
8
BLACK
6
CONTINUOUS
10
3.65847
20
-5.76597
11
3.67569
21
-5.77171
0
LINE
8
BLACK
6
CONTINUOUS
10
3.67569
20
-5.77171
11
3.69675
21
-5.77554
0
LINE
8
BLACK
6
CONTINUOUS
10
3.69675
20
-5.77554
11
5.43858
21
-5.2737
0
LINE
8
BLACK
6
CONTINUOUS
10
5.43858
20
-5.2737
11
5.43875
21
-5.27365
0
LINE
8
BLACK
6
CONTINUOUS
10
5.43875
20
-5.27365
11
5.43886
21
-5.27364
0
LINE
8
BLACK
6
CONTINUOUS
10
5.43886
20
-5.27364
11
5.43897
21
-5.27362
0
LINE
8
BLACK
6
CONTINUOUS
10
5.43897
20
-5.27362
11
5.43915
21
-5.27362
0
LINE
8
BLACK
6
CONTINUOUS
10
5.43915
20
-5.27362
11
7.37969
21
-5.27362
0
LINE
8
BLACK
6
CONTINUOUS
10
7.37969
20
-5.27362
11
7.37985
21
-5.27343
0
LINE
8
BLACK
6
CONTINUOUS
10
7.37985
20
-5.27343
11
7.38031
21
-5.27308
0
LINE
8
BLACK
6
CONTINUOUS
10
7.38031
20
-5.27308
11
7.3807
21
-5.27288
0
LINE
8
BLACK
6
CONTINUOUS
10
7.3807
20
-5.27288
11
8.87481
21
-4.70232
0
LINE
8
BLACK
6
CONTINUOUS
10
8.87481
20
-4.70232
11
8.87375
21
-1.75528
0
LINE
8
BLACK
6
CONTINUOUS
10
8.87375
20
-1.75528
11
8.87303
21
-1.74738
0
LINE
8
BLACK
6
CONTINUOUS
10
8.87303
20
-1.74738
11
8.87099
21
-1.74001
0
LINE
8
BLACK
6
CONTINUOUS
10
8.87099
20
-1.74001
11
8.86774
21
-1.7332
0
LINE
8
BLACK
6
CONTINUOUS
10
8.86774
20
-1.7332
11
8.86339
21
-1.72709
0
LINE
8
BLACK
6
CONTINUOUS
10
8.86339
20
-1.72709
11
8.85805
21
-1.72182
0
LINE
8
BLACK
6
CONTINUOUS
10
8.85805
20
-1.72182
11
8.85185
21
-1.71752
0
LINE
8
BLACK
6
CONTINUOUS
10
8.85185
20
-1.71752
11
8.8449
21
-1.71433
0
LINE
8
BLACK
6
CONTINUOUS
10
8.8449
20
-1.71433
11
8.83722
21
-1.71237
0
LINE
8
BLACK
6
CONTINUOUS
10
8.83722
20
-1.71237
11
6.73016
21
-1.37992
0
LINE
8
BLACK
6
CONTINUOUS
10
6.73016
20
-1.37992
11
5.86618
21
-1.37992
0
LINE
8
BLACK
6
CONTINUOUS
10
5.86618
20
-1.37992
11
3.52087
21
-1.47147
0
LINE
8
BLACK
6
CONTINUOUS
10
3.52087
20
-1.47147
11
3.52087
21
-1.47147
0
LINE
8
BLACK
6
CONTINUOUS
10
3.52087
20
-1.47147
11
3.52076
21
-1.47147
0
LINE
8
BLACK
6
CONTINUOUS
10
3.52076
20
-1.47147
11
3.52068
21
-1.47147
0
LINE
8
BLACK
6
CONTINUOUS
10
3.52068
20
-1.47147
11
3.52068
21
-1.47147
0
LINE
8
BLACK
6
CONTINUOUS
10
3.52068
20
-1.47147
11
3.33711
21
-1.47833
0
LINE
8
BLACK
6
CONTINUOUS
10
3.33711
20
-1.47833
11
3.08268
21
-1.60555
0
LINE
8
BLACK
6
CONTINUOUS
10
3.08268
20
-1.60555
11
3.08268
21
-3.54209
0
LINE
8
BLACK
6
CONTINUOUS
10
3.08268
20
-3.54209
11
3.47514
21
-3.73832
0
LINE
8
BLACK
6
CONTINUOUS
10
3.96583
20
-4.65795
11
3.97283
21
-4.64105
0
LINE
8
BLACK
6
CONTINUOUS
10
3.97283
20
-4.64105
11
3.98299
21
-4.62585
0
LINE
8
BLACK
6
CONTINUOUS
10
3.98299
20
-4.62585
11
3.99592
21
-4.61291
0
LINE
8
BLACK
6
CONTINUOUS
10
3.99592
20
-4.61291
11
4.01113
21
-4.60275
0
LINE
8
BLACK
6
CONTINUOUS
10
4.01113
20
-4.60275
11
4.02803
21
-4.59575
0
LINE
8
BLACK
6
CONTINUOUS
10
4.02803
20
-4.59575
11
4.04597
21
-4.59218
0
LINE
8
BLACK
6
CONTINUOUS
10
4.04597
20
-4.59218
11
4.06426
21
-4.59218
0
LINE
8
BLACK
6
CONTINUOUS
10
4.06426
20
-4.59218
11
4.0822
21
-4.59575
0
LINE
8
BLACK
6
CONTINUOUS
10
4.0822
20
-4.59575
11
4.0991
21
-4.60275
0
LINE
8
BLACK
6
CONTINUOUS
10
4.0991
20
-4.60275
11
4.11431
21
-4.61291
0
LINE
8
BLACK
6
CONTINUOUS
10
4.11431
20
-4.61291
11
4.12725
21
-4.62585
0
LINE
8
BLACK
6
CONTINUOUS
10
4.12725
20
-4.62585
11
4.13741
21
-4.64105
0
LINE
8
BLACK
6
CONTINUOUS
10
4.13741
20
-4.64105
11
4.14441
21
-4.65795
0
LINE
8
BLACK
6
CONTINUOUS
10
4.14441
20
-4.65795
11
4.14798
21
-4.67589
0
LINE
8
BLACK
6
CONTINUOUS
10
4.14798
20
-4.67589
11
4.14798
21
-4.69419
0
LINE
8
BLACK
6
CONTINUOUS
10
4.14798
20
-4.69419
11
4.14441
21
-4.71212
0
LINE
8
BLACK
6
CONTINUOUS
10
4.14441
20
-4.71212
11
4.13741
21
-4.72902
0
LINE
8
BLACK
6
CONTINUOUS
10
4.13741
20
-4.72902
11
4.12725
21
-4.74423
0
LINE
8
BLACK
6
CONTINUOUS
10
4.12725
20
-4.74423
11
4.11431
21
-4.75717
0
LINE
8
BLACK
6
CONTINUOUS
10
4.11431
20
-4.75717
11
4.0991
21
-4.76733
0
LINE
8
BLACK
6
CONTINUOUS
10
4.0991
20
-4.76733
11
4.0822
21
-4.77433
0
LINE
8
BLACK
6
CONTINUOUS
10
4.0822
20
-4.77433
11
4.06426
21
-4.7779
0
LINE
8
BLACK
6
CONTINUOUS
10
4.06426
20
-4.7779
11
4.04597
21
-4.7779
0
LINE
8
BLACK
6
CONTINUOUS
10
4.04597
20
-4.7779
11
4.02803
21
-4.77433
0
LINE
8
BLACK
6
CONTINUOUS
10
4.02803
20
-4.77433
11
4.01113
21
-4.76733
0
LINE
8
BLACK
6
CONTINUOUS
10
4.01113
20
-4.76733
11
3.99592
21
-4.75717
0
LINE
8
BLACK
6
CONTINUOUS
10
3.99592
20
-4.75717
11
3.98299
21
-4.74423
0
LINE
8
BLACK
6
CONTINUOUS
10
3.98299
20
-4.74423
11
3.97283
21
-4.72902
0
LINE
8
BLACK
6
CONTINUOUS
10
3.97283
20
-4.72902
11
3.96583
21
-4.71212
0
LINE
8
BLACK
6
CONTINUOUS
10
3.96583
20
-4.71212
11
3.96226
21
-4.69419
0
LINE
8
BLACK
6
CONTINUOUS
10
3.96226
20
-4.69419
11
3.96226
21
-4.67589
0
LINE
8
BLACK
6
CONTINUOUS
10
3.96226
20
-4.67589
11
3.96583
21
-4.65795
0
LINE
8
BLACK
6
CONTINUOUS
10
3.97788
20
-4.70847
11
3.98394
21
-4.72309
0
LINE
8
BLACK
6
CONTINUOUS
10
3.98394
20
-4.72309
11
3.99273
21
-4.73624
0
LINE
8
BLACK
6
CONTINUOUS
10
3.99273
20
-4.73624
11
4.00392
21
-4.74743
0
LINE
8
BLACK
6
CONTINUOUS
10
4.00392
20
-4.74743
11
4.01707
21
-4.75622
0
LINE
8
BLACK
6
CONTINUOUS
10
4.01707
20
-4.75622
11
4.03169
21
-4.76227
0
LINE
8
BLACK
6
CONTINUOUS
10
4.03169
20
-4.76227
11
4.04721
21
-4.76536
0
LINE
8
BLACK
6
CONTINUOUS
10
4.04721
20
-4.76536
11
4.06303
21
-4.76536
0
LINE
8
BLACK
6
CONTINUOUS
10
4.06303
20
-4.76536
11
4.07855
21
-4.76227
0
LINE
8
BLACK
6
CONTINUOUS
10
4.07855
20
-4.76227
11
4.09316
21
-4.75622
0
LINE
8
BLACK
6
CONTINUOUS
10
4.09316
20
-4.75622
11
4.10632
21
-4.74743
0
LINE
8
BLACK
6
CONTINUOUS
10
4.10632
20
-4.74743
11
4.11751
21
-4.73624
0
LINE
8
BLACK
6
CONTINUOUS
10
4.11751
20
-4.73624
11
4.1263
21
-4.72309
0
LINE
8
BLACK
6
CONTINUOUS
10
4.1263
20
-4.72309
11
4.13235
21
-4.70847
0
LINE
8
BLACK
6
CONTINUOUS
10
4.13235
20
-4.70847
11
4.13544
21
-4.69295
0
LINE
8
BLACK
6
CONTINUOUS
10
4.13544
20
-4.69295
11
4.13544
21
-4.67713
0
LINE
8
BLACK
6
CONTINUOUS
10
4.13544
20
-4.67713
11
4.13235
21
-4.66161
0
LINE
8
BLACK
6
CONTINUOUS
10
4.13235
20
-4.66161
11
4.1263
21
-4.64699
0
LINE
8
BLACK
6
CONTINUOUS
10
4.1263
20
-4.64699
11
4.11751
21
-4.63384
0
LINE
8
BLACK
6
CONTINUOUS
10
4.11751
20
-4.63384
11
4.10632
21
-4.62265
0
LINE
8
BLACK
6
CONTINUOUS
10
4.10632
20
-4.62265
11
4.09316
21
-4.61386
0
LINE
8
BLACK
6
CONTINUOUS
10
4.09316
20
-4.61386
11
4.07855
21
-4.60781
0
LINE
8
BLACK
6
CONTINUOUS
10
4.07855
20
-4.60781
11
4.06303
21
-4.60472
0
LINE
8
BLACK
6
CONTINUOUS
10
4.06303
20
-4.60472
11
4.04721
21
-4.60472
0
LINE
8
BLACK
6
CONTINUOUS
10
4.04721
20
-4.60472
11
4.03169
21
-4.60781
0
LINE
8
BLACK
6
CONTINUOUS
10
4.03169
20
-4.60781
11
4.01707
21
-4.61386
0
LINE
8
BLACK
6
CONTINUOUS
10
4.01707
20
-4.61386
11
4.00392
21
-4.62265
0
LINE
8
BLACK
6
CONTINUOUS
10
4.00392
20
-4.62265
11
3.99273
21
-4.63384
0
LINE
8
BLACK
6
CONTINUOUS
10
3.99273
20
-4.63384
11
3.98394
21
-4.64699
0
LINE
8
BLACK
6
CONTINUOUS
10
3.98394
20
-4.64699
11
3.97788
21
-4.66161
0
LINE
8
BLACK
6
CONTINUOUS
10
3.97788
20
-4.66161
11
3.9748
21
-4.67713
0
LINE
8
BLACK
6
CONTINUOUS
10
3.9748
20
-4.67713
11
3.9748
21
-4.69295
0
LINE
8
BLACK
6
CONTINUOUS
10
3.9748
20
-4.69295
11
3.97788
21
-4.70847
0
LINE
8
BLACK
6
CONTINUOUS
10
8.02094
20
-3.90992
11
8.02794
21
-3.89302
0
LINE
8
BLACK
6
CONTINUOUS
10
8.02794
20
-3.89302
11
8.0381
21
-3.87781
0
LINE
8
BLACK
6
CONTINUOUS
10
8.0381
20
-3.87781
11
8.05104
21
-3.86487
0
LINE
8
BLACK
6
CONTINUOUS
10
8.05104
20
-3.86487
11
8.06625
21
-3.85471
0
LINE
8
BLACK
6
CONTINUOUS
10
8.06625
20
-3.85471
11
8.08315
21
-3.84771
0
LINE
8
BLACK
6
CONTINUOUS
10
8.08315
20
-3.84771
11
8.10109
21
-3.84414
0
LINE
8
BLACK
6
CONTINUOUS
10
8.10109
20
-3.84414
11
8.11938
21
-3.84414
0
LINE
8
BLACK
6
CONTINUOUS
10
8.11938
20
-3.84414
11
8.13732
21
-3.84771
0
LINE
8
BLACK
6
CONTINUOUS
10
8.13732
20
-3.84771
11
8.15422
21
-3.85471
0
LINE
8
BLACK
6
CONTINUOUS
10
8.15422
20
-3.85471
11
8.16943
21
-3.86487
0
LINE
8
BLACK
6
CONTINUOUS
10
8.16943
20
-3.86487
11
8.18237
21
-3.87781
0
LINE
8
BLACK
6
CONTINUOUS
10
8.18237
20
-3.87781
11
8.19253
21
-3.89302
0
LINE
8
BLACK
6
CONTINUOUS
10
8.19253
20
-3.89302
11
8.19953
21
-3.90992
0
LINE
8
BLACK
6
CONTINUOUS
10
8.19953
20
-3.90992
11
8.2031
21
-3.92786
0
LINE
8
BLACK
6
CONTINUOUS
10
8.2031
20
-3.92786
11
8.2031
21
-3.94615
0
LINE
8
BLACK
6
CONTINUOUS
10
8.2031
20
-3.94615
11
8.19953
21
-3.9641
0
LINE
8
BLACK
6
CONTINUOUS
10
8.19953
20
-3.9641
11
8.19253
21
-3.981
0
LINE
8
BLACK
6
CONTINUOUS
10
8.19253
20
-3.981
11
8.18237
21
-3.99621
0
LINE
8
BLACK
6
CONTINUOUS
10
8.18237
20
-3.99621
11
8.16943
21
-4.00914
0
LINE
8
BLACK
6
CONTINUOUS
10
8.16943
20
-4.00914
11
8.15422
21
-4.0193
0
LINE
8
BLACK
6
CONTINUOUS
10
8.15422
20
-4.0193
11
8.13732
21
-4.0263
0
LINE
8
BLACK
6
CONTINUOUS
10
8.13732
20
-4.0263
11
8.11938
21
-4.02987
0
LINE
8
BLACK
6
CONTINUOUS
10
8.11938
20
-4.02987
11
8.10109
21
-4.02987
0
LINE
8
BLACK
6
CONTINUOUS
10
8.10109
20
-4.02987
11
8.08315
21
-4.0263
0
LINE
8
BLACK
6
CONTINUOUS
10
8.08315
20
-4.0263
11
8.06625
21
-4.0193
0
LINE
8
BLACK
6
CONTINUOUS
10
8.06625
20
-4.0193
11
8.05104
21
-4.00914
0
LINE
8
BLACK
6
CONTINUOUS
10
8.05104
20
-4.00914
11
8.0381
21
-3.99621
0
LINE
8
BLACK
6
CONTINUOUS
10
8.0381
20
-3.99621
11
8.02794
21
-3.981
0
LINE
8
BLACK
6
CONTINUOUS
10
8.02794
20
-3.981
11
8.02094
21
-3.9641
0
LINE
8
BLACK
6
CONTINUOUS
10
8.02094
20
-3.9641
11
8.01737
21
-3.94615
0
LINE
8
BLACK
6
CONTINUOUS
10
8.01737
20
-3.94615
11
8.01737
21
-3.92786
0
LINE
8
BLACK
6
CONTINUOUS
10
8.01737
20
-3.92786
11
8.02094
21
-3.90992
0
LINE
8
BLACK
6
CONTINUOUS
10
8.033
20
-3.96044
11
8.03905
21
-3.97506
0
LINE
8
BLACK
6
CONTINUOUS
10
8.03905
20
-3.97506
11
8.04784
21
-3.98821
0
LINE
8
BLACK
6
CONTINUOUS
10
8.04784
20
-3.98821
11
8.05903
21
-3.9994
0
LINE
8
BLACK
6
CONTINUOUS
10
8.05903
20
-3.9994
11
8.07219
21
-4.00819
0
LINE
8
BLACK
6
CONTINUOUS
10
8.07219
20
-4.00819
11
8.08681
21
-4.01425
0
LINE
8
BLACK
6
CONTINUOUS
10
8.08681
20
-4.01425
11
8.10232
21
-4.01734
0
LINE
8
BLACK
6
CONTINUOUS
10
8.10232
20
-4.01734
11
8.11815
21
-4.01734
0
LINE
8
BLACK
6
CONTINUOUS
10
8.11815
20
-4.01734
11
8.13367
21
-4.01425
0
LINE
8
BLACK
6
CONTINUOUS
10
8.13367
20
-4.01425
11
8.14829
21
-4.00819
0
LINE
8
BLACK
6
CONTINUOUS
10
8.14829
20
-4.00819
11
8.16144
21
-3.9994
0
LINE
8
BLACK
6
CONTINUOUS
10
8.16144
20
-3.9994
11
8.17263
21
-3.98821
0
LINE
8
BLACK
6
CONTINUOUS
10
8.17263
20
-3.98821
11
8.18142
21
-3.97506
0
LINE
8
BLACK
6
CONTINUOUS
10
8.18142
20
-3.97506
11
8.18748
21
-3.96044
0
LINE
8
BLACK
6
CONTINUOUS
10
8.18748
20
-3.96044
11
8.19056
21
-3.94492
0
LINE
8
BLACK
6
CONTINUOUS
10
8.19056
20
-3.94492
11
8.19056
21
-3.9291
0
LINE
8
BLACK
6
CONTINUOUS
10
8.19056
20
-3.9291
11
8.18748
21
-3.91358
0
LINE
8
BLACK
6
CONTINUOUS
10
8.18748
20
-3.91358
11
8.18142
21
-3.89896
0
LINE
8
BLACK
6
CONTINUOUS
10
8.18142
20
-3.89896
11
8.17263
21
-3.8858
0
LINE
8
BLACK
6
CONTINUOUS
10
8.17263
20
-3.8858
11
8.16144
21
-3.87461
0
LINE
8
BLACK
6
CONTINUOUS
10
8.16144
20
-3.87461
11
8.14829
21
-3.86582
0
LINE
8
BLACK
6
CONTINUOUS
10
8.14829
20
-3.86582
11
8.13367
21
-3.85977
0
LINE
8
BLACK
6
CONTINUOUS
10
8.13367
20
-3.85977
11
8.11815
21
-3.85668
0
LINE
8
BLACK
6
CONTINUOUS
10
8.11815
20
-3.85668
11
8.10232
21
-3.85668
0
LINE
8
BLACK
6
CONTINUOUS
10
8.10232
20
-3.85668
11
8.08681
21
-3.85977
0
LINE
8
BLACK
6
CONTINUOUS
10
8.08681
20
-3.85977
11
8.07219
21
-3.86582
0
LINE
8
BLACK
6
CONTINUOUS
10
8.07219
20
-3.86582
11
8.05903
21
-3.87461
0
LINE
8
BLACK
6
CONTINUOUS
10
8.05903
20
-3.87461
11
8.04784
21
-3.8858
0
LINE
8
BLACK
6
CONTINUOUS
10
8.04784
20
-3.8858
11
8.03905
21
-3.89896
0
LINE
8
BLACK
6
CONTINUOUS
10
8.03905
20
-3.89896
11
8.033
21
-3.91358
0
LINE
8
BLACK
6
CONTINUOUS
10
8.033
20
-3.91358
11
8.02991
21
-3.9291
0
LINE
8
BLACK
6
CONTINUOUS
10
8.02991
20
-3.9291
11
8.02991
21
-3.94492
0
LINE
8
BLACK
6
CONTINUOUS
10
8.02991
20
-3.94492
11
8.033
21
-3.96044
0
LINE
8
BLACK
6
CONTINUOUS
10
5.02844
20
-3.81138
11
5.03547
21
-3.79441
0
LINE
8
BLACK
6
CONTINUOUS
10
5.03547
20
-3.79441
11
5.04568
21
-3.77914
0
LINE
8
BLACK
6
CONTINUOUS
10
5.04568
20
-3.77914
11
5.05867
21
-3.76615
0
LINE
8
BLACK
6
CONTINUOUS
10
5.05867
20
-3.76615
11
5.07394
21
-3.75595
0
LINE
8
BLACK
6
CONTINUOUS
10
5.07394
20
-3.75595
11
5.09091
21
-3.74892
0
LINE
8
BLACK
6
CONTINUOUS
10
5.09091
20
-3.74892
11
5.10893
21
-3.74533
0
LINE
8
BLACK
6
CONTINUOUS
10
5.10893
20
-3.74533
11
5.12729
21
-3.74533
0
LINE
8
BLACK
6
CONTINUOUS
10
5.12729
20
-3.74533
11
5.14531
21
-3.74892
0
LINE
8
BLACK
6
CONTINUOUS
10
5.14531
20
-3.74892
11
5.16228
21
-3.75595
0
LINE
8
BLACK
6
CONTINUOUS
10
5.16228
20
-3.75595
11
5.17755
21
-3.76615
0
LINE
8
BLACK
6
CONTINUOUS
10
5.17755
20
-3.76615
11
5.19054
21
-3.77914
0
LINE
8
BLACK
6
CONTINUOUS
10
5.19054
20
-3.77914
11
5.20075
21
-3.79441
0
LINE
8
BLACK
6
CONTINUOUS
10
5.20075
20
-3.79441
11
5.20778
21
-3.81138
0
LINE
8
BLACK
6
CONTINUOUS
10
5.20778
20
-3.81138
11
5.21136
21
-3.8294
0
LINE
8
BLACK
6
CONTINUOUS
10
5.21136
20
-3.8294
11
5.21136
21
-3.84777
0
LINE
8
BLACK
6
CONTINUOUS
10
5.21136
20
-3.84777
11
5.20778
21
-3.86578
0
LINE
8
BLACK
6
CONTINUOUS
10
5.20778
20
-3.86578
11
5.20075
21
-3.88275
0
LINE
8
BLACK
6
CONTINUOUS
10
5.20075
20
-3.88275
11
5.19054
21
-3.89803
0
LINE
8
BLACK
6
CONTINUOUS
10
5.19054
20
-3.89803
11
5.17755
21
-3.91101
0
LINE
8
BLACK
6
CONTINUOUS
10
5.17755
20
-3.91101
11
5.16228
21
-3.92122
0
LINE
8
BLACK
6
CONTINUOUS
10
5.16228
20
-3.92122
11
5.14531
21
-3.92825
0
LINE
8
BLACK
6
CONTINUOUS
10
5.14531
20
-3.92825
11
5.12729
21
-3.93183
0
LINE
8
BLACK
6
CONTINUOUS
10
5.12729
20
-3.93183
11
5.10893
21
-3.93183
0
LINE
8
BLACK
6
CONTINUOUS
10
5.10893
20
-3.93183
11
5.09091
21
-3.92825
0
LINE
8
BLACK
6
CONTINUOUS
10
5.09091
20
-3.92825
11
5.07394
21
-3.92122
0
LINE
8
BLACK
6
CONTINUOUS
10
5.07394
20
-3.92122
11
5.05867
21
-3.91101
0
LINE
8
BLACK
6
CONTINUOUS
10
5.05867
20
-3.91101
11
5.04568
21
-3.89803
0
LINE
8
BLACK
6
CONTINUOUS
10
5.04568
20
-3.89803
11
5.03547
21
-3.88275
0
LINE
8
BLACK
6
CONTINUOUS
10
5.03547
20
-3.88275
11
5.02844
21
-3.86578
0
LINE
8
BLACK
6
CONTINUOUS
10
5.02844
20
-3.86578
11
5.02486
21
-3.84777
0
LINE
8
BLACK
6
CONTINUOUS
10
5.02486
20
-3.84777
11
5.02486
21
-3.8294
0
LINE
8
BLACK
6
CONTINUOUS
10
5.02486
20
-3.8294
11
5.02844
21
-3.81138
0
LINE
8
BLACK
6
CONTINUOUS
10
5.0405
20
-3.86213
11
5.04658
21
-3.87681
0
LINE
8
BLACK
6
CONTINUOUS
10
5.04658
20
-3.87681
11
5.05542
21
-3.89003
0
LINE
8
BLACK
6
CONTINUOUS
10
5.05542
20
-3.89003
11
5.06666
21
-3.90128
0
LINE
8
BLACK
6
CONTINUOUS
10
5.06666
20
-3.90128
11
5.07988
21
-3.91011
0
LINE
8
BLACK
6
CONTINUOUS
10
5.07988
20
-3.91011
11
5.09457
21
-3.91619
0
LINE
8
BLACK
6
CONTINUOUS
10
5.09457
20
-3.91619
11
5.11016
21
-3.91929
0
LINE
8
BLACK
6
CONTINUOUS
10
5.11016
20
-3.91929
11
5.12606
21
-3.91929
0
LINE
8
BLACK
6
CONTINUOUS
10
5.12606
20
-3.91929
11
5.14165
21
-3.91619
0
LINE
8
BLACK
6
CONTINUOUS
10
5.14165
20
-3.91619
11
5.15634
21
-3.91011
0
LINE
8
BLACK
6
CONTINUOUS
10
5.15634
20
-3.91011
11
5.16956
21
-3.90128
0
LINE
8
BLACK
6
CONTINUOUS
10
5.16956
20
-3.90128
11
5.1808
21
-3.89003
0
LINE
8
BLACK
6
CONTINUOUS
10
5.1808
20
-3.89003
11
5.18964
21
-3.87681
0
LINE
8
BLACK
6
CONTINUOUS
10
5.18964
20
-3.87681
11
5.19572
21
-3.86213
0
LINE
8
BLACK
6
CONTINUOUS
10
5.19572
20
-3.86213
11
5.19882
21
-3.84653
0
LINE
8
BLACK
6
CONTINUOUS
10
5.19882
20
-3.84653
11
5.19882
21
-3.83063
0
LINE
8
BLACK
6
CONTINUOUS
10
5.19882
20
-3.83063
11
5.19572
21
-3.81504
0
LINE
8
BLACK
6
CONTINUOUS
10
5.19572
20
-3.81504
11
5.18964
21
-3.80035
0
LINE
8
BLACK
6
CONTINUOUS
10
5.18964
20
-3.80035
11
5.1808
21
-3.78713
0
LINE
8
BLACK
6
CONTINUOUS
10
5.1808
20
-3.78713
11
5.16956
21
-3.77589
0
LINE
8
BLACK
6
CONTINUOUS
10
5.16956
20
-3.77589
11
5.15634
21
-3.76706
0
LINE
8
BLACK
6
CONTINUOUS
10
5.15634
20
-3.76706
11
5.14165
21
-3.76097
0
LINE
8
BLACK
6
CONTINUOUS
10
5.14165
20
-3.76097
11
5.12606
21
-3.75787
0
LINE
8
BLACK
6
CONTINUOUS
10
5.12606
20
-3.75787
11
5.11016
21
-3.75787
0
LINE
8
BLACK
6
CONTINUOUS
10
5.11016
20
-3.75787
11
5.09457
21
-3.76097
0
LINE
8
BLACK
6
CONTINUOUS
10
5.09457
20
-3.76097
11
5.07988
21
-3.76706
0
LINE
8
BLACK
6
CONTINUOUS
10
5.07988
20
-3.76706
11
5.06666
21
-3.77589
0
LINE
8
BLACK
6
CONTINUOUS
10
5.06666
20
-3.77589
11
5.05542
21
-3.78713
0
LINE
8
BLACK
6
CONTINUOUS
10
5.05542
20
-3.78713
11
5.04658
21
-3.80035
0
LINE
8
BLACK
6
CONTINUOUS
10
5.04658
20
-3.80035
11
5.0405
21
-3.81504
0
LINE
8
BLACK
6
CONTINUOUS
10
5.0405
20
-3.81504
11
5.0374
21
-3.83063
0
LINE
8
BLACK
6
CONTINUOUS
10
5.0374
20
-3.83063
11
5.0374
21
-3.84653
0
LINE
8
BLACK
6
CONTINUOUS
10
5.0374
20
-3.84653
11
5.0405
21
-3.86213
0
LINE
8
BLACK
6
CONTINUOUS
10
4.08688
20
-3.589
11
4.09287
21
-3.57452
0
LINE
8
BLACK
6
CONTINUOUS
10
4.09287
20
-3.57452
11
4.10158
21
-3.56148
0
LINE
8
BLACK
6
CONTINUOUS
10
4.10158
20
-3.56148
11
4.11266
21
-3.5504
0
LINE
8
BLACK
6
CONTINUOUS
10
4.11266
20
-3.5504
11
4.1257
21
-3.54169
0
LINE
8
BLACK
6
CONTINUOUS
10
4.1257
20
-3.54169
11
4.14018
21
-3.53569
0
LINE
8
BLACK
6
CONTINUOUS
10
4.14018
20
-3.53569
11
4.15555
21
-3.53264
0
LINE
8
BLACK
6
CONTINUOUS
10
4.15555
20
-3.53264
11
4.17122
21
-3.53264
0
LINE
8
BLACK
6
CONTINUOUS
10
4.17122
20
-3.53264
11
4.18659
21
-3.53569
0
LINE
8
BLACK
6
CONTINUOUS
10
4.18659
20
-3.53569
11
4.20108
21
-3.54169
0
LINE
8
BLACK
6
CONTINUOUS
10
4.20108
20
-3.54169
11
4.21411
21
-3.5504
0
LINE
8
BLACK
6
CONTINUOUS
10
4.21411
20
-3.5504
11
4.22519
21
-3.56148
0
LINE
8
BLACK
6
CONTINUOUS
10
4.22519
20
-3.56148
11
4.2339
21
-3.57452
0
LINE
8
BLACK
6
CONTINUOUS
10
4.2339
20
-3.57452
11
4.2399
21
-3.589
0
LINE
8
BLACK
6
CONTINUOUS
10
4.2399
20
-3.589
11
4.24295
21
-3.60437
0
LINE
8
BLACK
6
CONTINUOUS
10
4.24295
20
-3.60437
11
4.24295
21
-3.62004
0
LINE
8
BLACK
6
CONTINUOUS
10
4.24295
20
-3.62004
11
4.2399
21
-3.63541
0
LINE
8
BLACK
6
CONTINUOUS
10
4.2399
20
-3.63541
11
4.2339
21
-3.64989
0
LINE
8
BLACK
6
CONTINUOUS
10
4.2339
20
-3.64989
11
4.22519
21
-3.66293
0
LINE
8
BLACK
6
CONTINUOUS
10
4.22519
20
-3.66293
11
4.21411
21
-3.67401
0
LINE
8
BLACK
6
CONTINUOUS
10
4.21411
20
-3.67401
11
4.20108
21
-3.68272
0
LINE
8
BLACK
6
CONTINUOUS
10
4.20108
20
-3.68272
11
4.18659
21
-3.68871
0
LINE
8
BLACK
6
CONTINUOUS
10
4.18659
20
-3.68871
11
4.17122
21
-3.69177
0
LINE
8
BLACK
6
CONTINUOUS
10
4.17122
20
-3.69177
11
4.15555
21
-3.69177
0
LINE
8
BLACK
6
CONTINUOUS
10
4.15555
20
-3.69177
11
4.14018
21
-3.68871
0
LINE
8
BLACK
6
CONTINUOUS
10
4.14018
20
-3.68871
11
4.1257
21
-3.68272
0
LINE
8
BLACK
6
CONTINUOUS
10
4.1257
20
-3.68272
11
4.11266
21
-3.67401
0
LINE
8
BLACK
6
CONTINUOUS
10
4.11266
20
-3.67401
11
4.10158
21
-3.66293
0
LINE
8
BLACK
6
CONTINUOUS
10
4.10158
20
-3.66293
11
4.09287
21
-3.64989
0
LINE
8
BLACK
6
CONTINUOUS
10
4.09287
20
-3.64989
11
4.08688
21
-3.63541
0
LINE
8
BLACK
6
CONTINUOUS
10
4.08688
20
-3.63541
11
4.08382
21
-3.62004
0
LINE
8
BLACK
6
CONTINUOUS
10
4.08382
20
-3.62004
11
4.08382
21
-3.60437
0
LINE
8
BLACK
6
CONTINUOUS
10
4.08382
20
-3.60437
11
4.08688
21
-3.589
0
LINE
8
BLACK
6
CONTINUOUS
10
4.12154
20
-3.6249
11
4.12482
21
-3.63282
0
LINE
8
BLACK
6
CONTINUOUS
10
4.12482
20
-3.63282
11
4.12958
21
-3.63995
0
LINE
8
BLACK
6
CONTINUOUS
10
4.12958
20
-3.63995
11
4.13564
21
-3.64601
0
LINE
8
BLACK
6
CONTINUOUS
10
4.13564
20
-3.64601
11
4.14277
21
-3.65077
0
LINE
8
BLACK
6
CONTINUOUS
10
4.14277
20
-3.65077
11
4.15069
21
-3.65405
0
LINE
8
BLACK
6
CONTINUOUS
10
4.15069
20
-3.65405
11
4.1591
21
-3.65573
0
LINE
8
BLACK
6
CONTINUOUS
10
4.1591
20
-3.65573
11
4.16767
21
-3.65573
0
LINE
8
BLACK
6
CONTINUOUS
10
4.16767
20
-3.65573
11
4.17608
21
-3.65405
0
LINE
8
BLACK
6
CONTINUOUS
10
4.17608
20
-3.65405
11
4.184
21
-3.65077
0
LINE
8
BLACK
6
CONTINUOUS
10
4.184
20
-3.65077
11
4.19113
21
-3.64601
0
LINE
8
BLACK
6
CONTINUOUS
10
4.19113
20
-3.64601
11
4.19719
21
-3.63995
0
LINE
8
BLACK
6
CONTINUOUS
10
4.19719
20
-3.63995
11
4.20195
21
-3.63282
0
LINE
8
BLACK
6
CONTINUOUS
10
4.20195
20
-3.63282
11
4.20524
21
-3.6249
0
LINE
8
BLACK
6
CONTINUOUS
10
4.20524
20
-3.6249
11
4.20691
21
-3.61649
0
LINE
8
BLACK
6
CONTINUOUS
10
4.20691
20
-3.61649
11
4.20691
21
-3.60792
0
LINE
8
BLACK
6
CONTINUOUS
10
4.20691
20
-3.60792
11
4.20524
21
-3.59951
0
LINE
8
BLACK
6
CONTINUOUS
10
4.20524
20
-3.59951
11
4.20195
21
-3.59159
0
LINE
8
BLACK
6
CONTINUOUS
10
4.20195
20
-3.59159
11
4.19719
21
-3.58446
0
LINE
8
BLACK
6
CONTINUOUS
10
4.19719
20
-3.58446
11
4.19113
21
-3.5784
0
LINE
8
BLACK
6
CONTINUOUS
10
4.19113
20
-3.5784
11
4.184
21
-3.57364
0
LINE
8
BLACK
6
CONTINUOUS
10
4.184
20
-3.57364
11
4.17608
21
-3.57036
0
LINE
8
BLACK
6
CONTINUOUS
10
4.17608
20
-3.57036
11
4.16767
21
-3.56868
0
LINE
8
BLACK
6
CONTINUOUS
10
4.16767
20
-3.56868
11
4.1591
21
-3.56868
0
LINE
8
BLACK
6
CONTINUOUS
10
4.1591
20
-3.56868
11
4.15069
21
-3.57036
0
LINE
8
BLACK
6
CONTINUOUS
10
4.15069
20
-3.57036
11
4.14277
21
-3.57364
0
LINE
8
BLACK
6
CONTINUOUS
10
4.14277
20
-3.57364
11
4.13564
21
-3.5784
0
LINE
8
BLACK
6
CONTINUOUS
10
4.13564
20
-3.5784
11
4.12958
21
-3.58446
0
LINE
8
BLACK
6
CONTINUOUS
10
4.12958
20
-3.58446
11
4.12482
21
-3.59159
0
LINE
8
BLACK
6
CONTINUOUS
10
4.12482
20
-3.59159
11
4.12154
21
-3.59951
0
LINE
8
BLACK
6
CONTINUOUS
10
4.12154
20
-3.59951
11
4.11986
21
-3.60792
0
LINE
8
BLACK
6
CONTINUOUS
10
4.11986
20
-3.60792
11
4.11986
21
-3.61649
0
LINE
8
BLACK
6
CONTINUOUS
10
4.11986
20
-3.61649
11
4.12154
21
-3.6249
0
LINE
8
BLACK
6
CONTINUOUS
10
8.02095
20
-2.39417
11
8.02795
21
-2.37728
0
LINE
8
BLACK
6
CONTINUOUS
10
8.02795
20
-2.37728
11
8.03811
21
-2.36207
0
LINE
8
BLACK
6
CONTINUOUS
10
8.03811
20
-2.36207
11
8.05104
21
-2.34913
0
LINE
8
BLACK
6
CONTINUOUS
10
8.05104
20
-2.34913
11
8.06625
21
-2.33897
0
LINE
8
BLACK
6
CONTINUOUS
10
8.06625
20
-2.33897
11
8.08315
21
-2.33197
0
LINE
8
BLACK
6
CONTINUOUS
10
8.08315
20
-2.33197
11
8.10109
21
-2.3284
0
LINE
8
BLACK
6
CONTINUOUS
10
8.10109
20
-2.3284
11
8.11938
21
-2.3284
0
LINE
8
BLACK
6
CONTINUOUS
10
8.11938
20
-2.3284
11
8.13732
21
-2.33197
0
LINE
8
BLACK
6
CONTINUOUS
10
8.13732
20
-2.33197
11
8.15422
21
-2.33897
0
LINE
8
BLACK
6
CONTINUOUS
10
8.15422
20
-2.33897
11
8.16943
21
-2.34913
0
LINE
8
BLACK
6
CONTINUOUS
10
8.16943
20
-2.34913
11
8.18236
21
-2.36207
0
LINE
8
BLACK
6
CONTINUOUS
10
8.18236
20
-2.36207
11
8.19253
21
-2.37728
0
LINE
8
BLACK
6
CONTINUOUS
10
8.19253
20
-2.37728
11
8.19953
21
-2.39417
0
LINE
8
BLACK
6
CONTINUOUS
10
8.19953
20
-2.39417
11
8.20309
21
-2.41211
0
LINE
8
BLACK
6
CONTINUOUS
10
8.20309
20
-2.41211
11
8.20309
21
-2.43041
0
LINE
8
BLACK
6
CONTINUOUS
10
8.20309
20
-2.43041
11
8.19953
21
-2.44835
0
LINE
8
BLACK
6
CONTINUOUS
10
8.19953
20
-2.44835
11
8.19253
21
-2.46524
0
LINE
8
BLACK
6
CONTINUOUS
10
8.19253
20
-2.46524
11
8.18236
21
-2.48045
0
LINE
8
BLACK
6
CONTINUOUS
10
8.18236
20
-2.48045
11
8.16943
21
-2.49339
0
LINE
8
BLACK
6
CONTINUOUS
10
8.16943
20
-2.49339
11
8.15422
21
-2.50355
0
LINE
8
BLACK
6
CONTINUOUS
10
8.15422
20
-2.50355
11
8.13732
21
-2.51055
0
LINE
8
BLACK
6
CONTINUOUS
10
8.13732
20
-2.51055
11
8.11938
21
-2.51412
0
LINE
8
BLACK
6
CONTINUOUS
10
8.11938
20
-2.51412
11
8.10109
21
-2.51412
0
LINE
8
BLACK
6
CONTINUOUS
10
8.10109
20
-2.51412
11
8.08315
21
-2.51055
0
LINE
8
BLACK
6
CONTINUOUS
10
8.08315
20
-2.51055
11
8.06625
21
-2.50355
0
LINE
8
BLACK
6
CONTINUOUS
10
8.06625
20
-2.50355
11
8.05104
21
-2.49339
0
LINE
8
BLACK
6
CONTINUOUS
10
8.05104
20
-2.49339
11
8.03811
21
-2.48045
0
LINE
8
BLACK
6
CONTINUOUS
10
8.03811
20
-2.48045
11
8.02795
21
-2.46524
0
LINE
8
BLACK
6
CONTINUOUS
10
8.02795
20
-2.46524
11
8.02095
21
-2.44835
0
LINE
8
BLACK
6
CONTINUOUS
10
8.02095
20
-2.44835
11
8.01738
21
-2.43041
0
LINE
8
BLACK
6
CONTINUOUS
10
8.01738
20
-2.43041
11
8.01738
21
-2.41211
0
LINE
8
BLACK
6
CONTINUOUS
10
8.01738
20
-2.41211
11
8.02095
21
-2.39417
0
LINE
8
BLACK
6
CONTINUOUS
10
8.033
20
-2.44469
11
8.03906
21
-2.45931
0
LINE
8
BLACK
6
CONTINUOUS
10
8.03906
20
-2.45931
11
8.04785
21
-2.47246
0
LINE
8
BLACK
6
CONTINUOUS
10
8.04785
20
-2.47246
11
8.05904
21
-2.48365
0
LINE
8
BLACK
6
CONTINUOUS
10
8.05904
20
-2.48365
11
8.07219
21
-2.49244
0
LINE
8
BLACK
6
CONTINUOUS
10
8.07219
20
-2.49244
11
8.08681
21
-2.49849
0
LINE
8
BLACK
6
CONTINUOUS
10
8.08681
20
-2.49849
11
8.10233
21
-2.50158
0
LINE
8
BLACK
6
CONTINUOUS
10
8.10233
20
-2.50158
11
8.11815
21
-2.50158
0
LINE
8
BLACK
6
CONTINUOUS
10
8.11815
20
-2.50158
11
8.13366
21
-2.49849
0
LINE
8
BLACK
6
CONTINUOUS
10
8.13366
20
-2.49849
11
8.14828
21
-2.49244
0
LINE
8
BLACK
6
CONTINUOUS
10
8.14828
20
-2.49244
11
8.16144
21
-2.48365
0
LINE
8
BLACK
6
CONTINUOUS
10
8.16144
20
-2.48365
11
8.17262
21
-2.47246
0
LINE
8
BLACK
6
CONTINUOUS
10
8.17262
20
-2.47246
11
8.18141
21
-2.45931
0
LINE
8
BLACK
6
CONTINUOUS
10
8.18141
20
-2.45931
11
8.18747
21
-2.44469
0
LINE
8
BLACK
6
CONTINUOUS
10
8.18747
20
-2.44469
11
8.19056
21
-2.42917
0
LINE
8
BLACK
6
CONTINUOUS
10
8.19056
20
-2.42917
11
8.19056
21
-2.41335
0
LINE
8
BLACK
6
CONTINUOUS
10
8.19056
20
-2.41335
11
8.18747
21
-2.39783
0
LINE
8
BLACK
6
CONTINUOUS
10
8.18747
20
-2.39783
11
8.18141
21
-2.38321
0
LINE
8
BLACK
6
CONTINUOUS
10
8.18141
20
-2.38321
11
8.17262
21
-2.37006
0
LINE
8
BLACK
6
CONTINUOUS
10
8.17262
20
-2.37006
11
8.16144
21
-2.35887
0
LINE
8
BLACK
6
CONTINUOUS
10
8.16144
20
-2.35887
11
8.14828
21
-2.35008
0
LINE
8
BLACK
6
CONTINUOUS
10
8.14828
20
-2.35008
11
8.13366
21
-2.34403
0
LINE
8
BLACK
6
CONTINUOUS
10
8.13366
20
-2.34403
11
8.11815
21
-2.34094
0
LINE
8
BLACK
6
CONTINUOUS
10
8.11815
20
-2.34094
11
8.10233
21
-2.34094
0
LINE
8
BLACK
6
CONTINUOUS
10
8.10233
20
-2.34094
11
8.08681
21
-2.34403
0
LINE
8
BLACK
6
CONTINUOUS
10
8.08681
20
-2.34403
11
8.07219
21
-2.35008
0
LINE
8
BLACK
6
CONTINUOUS
10
8.07219
20
-2.35008
11
8.05904
21
-2.35887
0
LINE
8
BLACK
6
CONTINUOUS
10
8.05904
20
-2.35887
11
8.04785
21
-2.37006
0
LINE
8
BLACK
6
CONTINUOUS
10
8.04785
20
-2.37006
11
8.03906
21
-2.38321
0
LINE
8
BLACK
6
CONTINUOUS
10
8.03906
20
-2.38321
11
8.033
21
-2.39783
0
LINE
8
BLACK
6
CONTINUOUS
10
8.033
20
-2.39783
11
8.02992
21
-2.41335
0
LINE
8
BLACK
6
CONTINUOUS
10
8.02992
20
-2.41335
11
8.02992
21
-2.42917
0
LINE
8
BLACK
6
CONTINUOUS
10
8.02992
20
-2.42917
11
8.033
21
-2.44469
0
LINE
8
BLACK
6
CONTINUOUS
10
5.02882
20
-2.21701
11
5.03582
21
-2.20011
0
LINE
8
BLACK
6
CONTINUOUS
10
5.03582
20
-2.20011
11
5.04598
21
-2.1849
0
LINE
8
BLACK
6
CONTINUOUS
10
5.04598
20
-2.1849
11
5.05892
21
-2.17197
0
LINE
8
BLACK
6
CONTINUOUS
10
5.05892
20
-2.17197
11
5.07413
21
-2.1618
0
LINE
8
BLACK
6
CONTINUOUS
10
5.07413
20
-2.1618
11
5.09102
21
-2.1548
0
LINE
8
BLACK
6
CONTINUOUS
10
5.09102
20
-2.1548
11
5.10896
21
-2.15124
0
LINE
8
BLACK
6
CONTINUOUS
10
5.10896
20
-2.15124
11
5.12726
21
-2.15124
0
LINE
8
BLACK
6
CONTINUOUS
10
5.12726
20
-2.15124
11
5.1452
21
-2.1548
0
LINE
8
BLACK
6
CONTINUOUS
10
5.1452
20
-2.1548
11
5.1621
21
-2.1618
0
LINE
8
BLACK
6
CONTINUOUS
10
5.1621
20
-2.1618
11
5.1773
21
-2.17197
0
LINE
8
BLACK
6
CONTINUOUS
10
5.1773
20
-2.17197
11
5.19024
21
-2.1849
0
LINE
8
BLACK
6
CONTINUOUS
10
5.19024
20
-2.1849
11
5.2004
21
-2.20011
0
LINE
8
BLACK
6
CONTINUOUS
10
5.2004
20
-2.20011
11
5.2074
21
-2.21701
0
LINE
8
BLACK
6
CONTINUOUS
10
5.2074
20
-2.21701
11
5.21097
21
-2.23495
0
LINE
8
BLACK
6
CONTINUOUS
10
5.21097
20
-2.23495
11
5.21097
21
-2.25324
0
LINE
8
BLACK
6
CONTINUOUS
10
5.21097
20
-2.25324
11
5.2074
21
-2.27118
0
LINE
8
BLACK
6
CONTINUOUS
10
5.2074
20
-2.27118
11
5.2004
21
-2.28808
0
LINE
8
BLACK
6
CONTINUOUS
10
5.2004
20
-2.28808
11
5.19024
21
-2.30329
0
LINE
8
BLACK
6
CONTINUOUS
10
5.19024
20
-2.30329
11
5.1773
21
-2.31622
0
LINE
8
BLACK
6
CONTINUOUS
10
5.1773
20
-2.31622
11
5.1621
21
-2.32638
0
LINE
8
BLACK
6
CONTINUOUS
10
5.1621
20
-2.32638
11
5.1452
21
-2.33338
0
LINE
8
BLACK
6
CONTINUOUS
10
5.1452
20
-2.33338
11
5.12726
21
-2.33695
0
LINE
8
BLACK
6
CONTINUOUS
10
5.12726
20
-2.33695
11
5.10896
21
-2.33695
0
LINE
8
BLACK
6
CONTINUOUS
10
5.10896
20
-2.33695
11
5.09102
21
-2.33338
0
LINE
8
BLACK
6
CONTINUOUS
10
5.09102
20
-2.33338
11
5.07413
21
-2.32638
0
LINE
8
BLACK
6
CONTINUOUS
10
5.07413
20
-2.32638
11
5.05892
21
-2.31622
0
LINE
8
BLACK
6
CONTINUOUS
10
5.05892
20
-2.31622
11
5.04598
21
-2.30329
0
LINE
8
BLACK
6
CONTINUOUS
10
5.04598
20
-2.30329
11
5.03582
21
-2.28808
0
LINE
8
BLACK
6
CONTINUOUS
10
5.03582
20
-2.28808
11
5.02882
21
-2.27118
0
LINE
8
BLACK
6
CONTINUOUS
10
5.02882
20
-2.27118
11
5.02525
21
-2.25324
0
LINE
8
BLACK
6
CONTINUOUS
10
5.02525
20
-2.25324
11
5.02525
21
-2.23495
0
LINE
8
BLACK
6
CONTINUOUS
10
5.02525
20
-2.23495
11
5.02882
21
-2.21701
0
LINE
8
BLACK
6
CONTINUOUS
10
5.04088
20
-2.26752
11
5.04693
21
-2.28214
0
LINE
8
BLACK
6
CONTINUOUS
10
5.04693
20
-2.28214
11
5.05572
21
-2.2953
0
LINE
8
BLACK
6
CONTINUOUS
10
5.05572
20
-2.2953
11
5.06691
21
-2.30648
0
LINE
8
BLACK
6
CONTINUOUS
10
5.06691
20
-2.30648
11
5.08006
21
-2.31527
0
LINE
8
BLACK
6
CONTINUOUS
10
5.08006
20
-2.31527
11
5.09468
21
-2.32133
0
LINE
8
BLACK
6
CONTINUOUS
10
5.09468
20
-2.32133
11
5.1102
21
-2.32442
0
LINE
8
BLACK
6
CONTINUOUS
10
5.1102
20
-2.32442
11
5.12602
21
-2.32442
0
LINE
8
BLACK
6
CONTINUOUS
10
5.12602
20
-2.32442
11
5.14154
21
-2.32133
0
LINE
8
BLACK
6
CONTINUOUS
10
5.14154
20
-2.32133
11
5.15616
21
-2.31527
0
LINE
8
BLACK
6
CONTINUOUS
10
5.15616
20
-2.31527
11
5.16931
21
-2.30648
0
LINE
8
BLACK
6
CONTINUOUS
10
5.16931
20
-2.30648
11
5.1805
21
-2.2953
0
LINE
8
BLACK
6
CONTINUOUS
10
5.1805
20
-2.2953
11
5.18929
21
-2.28214
0
LINE
8
BLACK
6
CONTINUOUS
10
5.18929
20
-2.28214
11
5.19534
21
-2.26752
0
LINE
8
BLACK
6
CONTINUOUS
10
5.19534
20
-2.26752
11
5.19843
21
-2.25201
0
LINE
8
BLACK
6
CONTINUOUS
10
5.19843
20
-2.25201
11
5.19843
21
-2.23618
0
LINE
8
BLACK
6
CONTINUOUS
10
5.19843
20
-2.23618
11
5.19534
21
-2.22067
0
LINE
8
BLACK
6
CONTINUOUS
10
5.19534
20
-2.22067
11
5.18929
21
-2.20605
0
LINE
8
BLACK
6
CONTINUOUS
10
5.18929
20
-2.20605
11
5.1805
21
-2.19289
0
LINE
8
BLACK
6
CONTINUOUS
10
5.1805
20
-2.19289
11
5.16931
21
-2.18171
0
LINE
8
BLACK
6
CONTINUOUS
10
5.16931
20
-2.18171
11
5.15616
21
-2.17292
0
LINE
8
BLACK
6
CONTINUOUS
10
5.15616
20
-2.17292
11
5.14154
21
-2.16686
0
LINE
8
BLACK
6
CONTINUOUS
10
5.14154
20
-2.16686
11
5.12602
21
-2.16377
0
LINE
8
BLACK
6
CONTINUOUS
10
5.12602
20
-2.16377
11
5.1102
21
-2.16377
0
LINE
8
BLACK
6
CONTINUOUS
10
5.1102
20
-2.16377
11
5.09468
21
-2.16686
0
LINE
8
BLACK
6
CONTINUOUS
10
5.09468
20
-2.16686
11
5.08006
21
-2.17292
0
LINE
8
BLACK
6
CONTINUOUS
10
5.08006
20
-2.17292
11
5.06691
21
-2.18171
0
LINE
8
BLACK
6
CONTINUOUS
10
5.06691
20
-2.18171
11
5.05572
21
-2.19289
0
LINE
8
BLACK
6
CONTINUOUS
10
5.05572
20
-2.19289
11
5.04693
21
-2.20605
0
LINE
8
BLACK
6
CONTINUOUS
10
5.04693
20
-2.20605
11
5.04088
21
-2.22067
0
LINE
8
BLACK
6
CONTINUOUS
10
5.04088
20
-2.22067
11
5.03779
21
-2.23618
0
LINE
8
BLACK
6
CONTINUOUS
10
5.03779
20
-2.23618
11
5.03779
21
-2.25201
0
LINE
8
BLACK
6
CONTINUOUS
10
5.03779
20
-2.25201
11
5.04088
21
-2.26752
0
LINE
8
BLACK
6
CONTINUOUS
10
3.25101
20
-1.66043
11
3.25696
21
-1.64606
0
LINE
8
BLACK
6
CONTINUOUS
10
3.25696
20
-1.64606
11
3.26561
21
-1.63312
0
LINE
8
BLACK
6
CONTINUOUS
10
3.26561
20
-1.63312
11
3.27661
21
-1.62212
0
LINE
8
BLACK
6
CONTINUOUS
10
3.27661
20
-1.62212
11
3.28954
21
-1.61348
0
LINE
8
BLACK
6
CONTINUOUS
10
3.28954
20
-1.61348
11
3.30391
21
-1.60753
0
LINE
8
BLACK
6
CONTINUOUS
10
3.30391
20
-1.60753
11
3.31917
21
-1.60449
0
LINE
8
BLACK
6
CONTINUOUS
10
3.31917
20
-1.60449
11
3.33472
21
-1.60449
0
LINE
8
BLACK
6
CONTINUOUS
10
3.33472
20
-1.60449
11
3.34998
21
-1.60753
0
LINE
8
BLACK
6
CONTINUOUS
10
3.34998
20
-1.60753
11
3.36435
21
-1.61348
0
LINE
8
BLACK
6
CONTINUOUS
10
3.36435
20
-1.61348
11
3.37729
21
-1.62212
0
LINE
8
BLACK
6
CONTINUOUS
10
3.37729
20
-1.62212
11
3.38829
21
-1.63312
0
LINE
8
BLACK
6
CONTINUOUS
10
3.38829
20
-1.63312
11
3.39693
21
-1.64606
0
LINE
8
BLACK
6
CONTINUOUS
10
3.39693
20
-1.64606
11
3.40288
21
-1.66043
0
LINE
8
BLACK
6
CONTINUOUS
10
3.40288
20
-1.66043
11
3.40592
21
-1.67569
0
LINE
8
BLACK
6
CONTINUOUS
10
3.40592
20
-1.67569
11
3.40592
21
-1.69124
0
LINE
8
BLACK
6
CONTINUOUS
10
3.40592
20
-1.69124
11
3.40288
21
-1.7065
0
LINE
8
BLACK
6
CONTINUOUS
10
3.40288
20
-1.7065
11
3.39693
21
-1.72087
0
LINE
8
BLACK
6
CONTINUOUS
10
3.39693
20
-1.72087
11
3.38829
21
-1.73381
0
LINE
8
BLACK
6
CONTINUOUS
10
3.38829
20
-1.73381
11
3.37729
21
-1.74481
0
LINE
8
BLACK
6
CONTINUOUS
10
3.37729
20
-1.74481
11
3.36435
21
-1.75345
0
LINE
8
BLACK
6
CONTINUOUS
10
3.36435
20
-1.75345
11
3.34998
21
-1.7594
0
LINE
8
BLACK
6
CONTINUOUS
10
3.34998
20
-1.7594
11
3.33472
21
-1.76244
0
LINE
8
BLACK
6
CONTINUOUS
10
3.33472
20
-1.76244
11
3.31917
21
-1.76244
0
LINE
8
BLACK
6
CONTINUOUS
10
3.31917
20
-1.76244
11
3.30391
21
-1.7594
0
LINE
8
BLACK
6
CONTINUOUS
10
3.30391
20
-1.7594
11
3.28954
21
-1.75345
0
LINE
8
BLACK
6
CONTINUOUS
10
3.28954
20
-1.75345
11
3.27661
21
-1.74481
0
LINE
8
BLACK
6
CONTINUOUS
10
3.27661
20
-1.74481
11
3.26561
21
-1.73381
0
LINE
8
BLACK
6
CONTINUOUS
10
3.26561
20
-1.73381
11
3.25696
21
-1.72087
0
LINE
8
BLACK
6
CONTINUOUS
10
3.25696
20
-1.72087
11
3.25101
21
-1.7065
0
LINE
8
BLACK
6
CONTINUOUS
10
3.25101
20
-1.7065
11
3.24798
21
-1.69124
0
LINE
8
BLACK
6
CONTINUOUS
10
3.24798
20
-1.69124
11
3.24798
21
-1.67569
0
LINE
8
BLACK
6
CONTINUOUS
10
3.24798
20
-1.67569
11
3.25101
21
-1.66043
0
LINE
8
BLACK
6
CONTINUOUS
10
3.28567
20
-1.69599
11
3.28891
21
-1.7038
0
LINE
8
BLACK
6
CONTINUOUS
10
3.28891
20
-1.7038
11
3.2936
21
-1.71083
0
LINE
8
BLACK
6
CONTINUOUS
10
3.2936
20
-1.71083
11
3.29958
21
-1.71681
0
LINE
8
BLACK
6
CONTINUOUS
10
3.29958
20
-1.71681
11
3.30661
21
-1.7215
0
LINE
8
BLACK
6
CONTINUOUS
10
3.30661
20
-1.7215
11
3.31443
21
-1.72474
0
LINE
8
BLACK
6
CONTINUOUS
10
3.31443
20
-1.72474
11
3.32272
21
-1.72639
0
LINE
8
BLACK
6
CONTINUOUS
10
3.32272
20
-1.72639
11
3.33117
21
-1.72639
0
LINE
8
BLACK
6
CONTINUOUS
10
3.33117
20
-1.72639
11
3.33947
21
-1.72474
0
LINE
8
BLACK
6
CONTINUOUS
10
3.33947
20
-1.72474
11
3.34728
21
-1.7215
0
LINE
8
BLACK
6
CONTINUOUS
10
3.34728
20
-1.7215
11
3.35431
21
-1.71681
0
LINE
8
BLACK
6
CONTINUOUS
10
3.35431
20
-1.71681
11
3.36029
21
-1.71083
0
LINE
8
BLACK
6
CONTINUOUS
10
3.36029
20
-1.71083
11
3.36499
21
-1.7038
0
LINE
8
BLACK
6
CONTINUOUS
10
3.36499
20
-1.7038
11
3.36822
21
-1.69599
0
LINE
8
BLACK
6
CONTINUOUS
10
3.36822
20
-1.69599
11
3.36987
21
-1.68769
0
LINE
8
BLACK
6
CONTINUOUS
10
3.36987
20
-1.68769
11
3.36987
21
-1.67924
0
LINE
8
BLACK
6
CONTINUOUS
10
3.36987
20
-1.67924
11
3.36822
21
-1.67094
0
LINE
8
BLACK
6
CONTINUOUS
10
3.36822
20
-1.67094
11
3.36499
21
-1.66313
0
LINE
8
BLACK
6
CONTINUOUS
10
3.36499
20
-1.66313
11
3.36029
21
-1.6561
0
LINE
8
BLACK
6
CONTINUOUS
10
3.36029
20
-1.6561
11
3.35431
21
-1.65012
0
LINE
8
BLACK
6
CONTINUOUS
10
3.35431
20
-1.65012
11
3.34728
21
-1.64542
0
LINE
8
BLACK
6
CONTINUOUS
10
3.34728
20
-1.64542
11
3.33947
21
-1.64219
0
LINE
8
BLACK
6
CONTINUOUS
10
3.33947
20
-1.64219
11
3.33117
21
-1.64054
0
LINE
8
BLACK
6
CONTINUOUS
10
3.33117
20
-1.64054
11
3.32272
21
-1.64054
0
LINE
8
BLACK
6
CONTINUOUS
10
3.32272
20
-1.64054
11
3.31443
21
-1.64219
0
LINE
8
BLACK
6
CONTINUOUS
10
3.31443
20
-1.64219
11
3.30661
21
-1.64542
0
LINE
8
BLACK
6
CONTINUOUS
10
3.30661
20
-1.64542
11
3.29958
21
-1.65012
0
LINE
8
BLACK
6
CONTINUOUS
10
3.29958
20
-1.65012
11
3.2936
21
-1.6561
0
LINE
8
BLACK
6
CONTINUOUS
10
3.2936
20
-1.6561
11
3.28891
21
-1.66313
0
LINE
8
BLACK
6
CONTINUOUS
10
3.28891
20
-1.66313
11
3.28567
21
-1.67094
0
LINE
8
BLACK
6
CONTINUOUS
10
3.28567
20
-1.67094
11
3.28402
21
-1.67924
0
LINE
8
BLACK
6
CONTINUOUS
10
3.28402
20
-1.67924
11
3.28402
21
-1.68769
0
LINE
8
BLACK
6
CONTINUOUS
10
3.28402
20
-1.68769
11
3.28567
21
-1.69599
0
LINE
8
BLACK
6
CONTINUOUS
10
1.79185
20
1.77173
11
1.79223
21
1.77162
0
LINE
8
BLACK
6
CONTINUOUS
10
1.79223
20
1.77162
11
1.79257
21
1.77144
0
LINE
8
BLACK
6
CONTINUOUS
10
1.79257
20
1.77144
11
1.79287
21
1.77119
0
LINE
8
BLACK
6
CONTINUOUS
10
1.79287
20
1.77119
11
1.79311
21
1.77089
0
LINE
8
BLACK
6
CONTINUOUS
10
1.79311
20
1.77089
11
1.7933
21
1.77055
0
LINE
8
BLACK
6
CONTINUOUS
10
1.7933
20
1.77055
11
1.79341
21
1.77018
0
LINE
8
BLACK
6
CONTINUOUS
10
1.79341
20
1.77018
11
1.79345
21
1.76979
0
LINE
8
BLACK
6
CONTINUOUS
10
1.79345
20
1.76979
11
1.79341
21
1.76941
0
LINE
8
BLACK
6
CONTINUOUS
10
1.79341
20
1.76941
11
1.7933
21
1.76904
0
LINE
8
BLACK
6
CONTINUOUS
10
1.7933
20
1.76904
11
1.79311
21
1.76869
0
LINE
8
BLACK
6
CONTINUOUS
10
1.79311
20
1.76869
11
1.79287
21
1.7684
0
LINE
8
BLACK
6
CONTINUOUS
10
1.79287
20
1.7684
11
1.79257
21
1.76815
0
LINE
8
BLACK
6
CONTINUOUS
10
1.79257
20
1.76815
11
1.79223
21
1.76797
0
LINE
8
BLACK
6
CONTINUOUS
10
1.79223
20
1.76797
11
1.79185
21
1.76785
0
LINE
8
BLACK
6
CONTINUOUS
10
1.79185
20
1.76785
11
1.79156
21
1.76783
0
LINE
8
BLACK
6
CONTINUOUS
10
1.79156
20
1.76783
11
1.79137
21
1.76783
0
LINE
8
BLACK
6
CONTINUOUS
10
1.79137
20
1.76783
11
1.79108
21
1.76785
0
LINE
8
BLACK
6
CONTINUOUS
10
1.79108
20
1.76785
11
1.79071
21
1.76797
0
LINE
8
BLACK
6
CONTINUOUS
10
1.79071
20
1.76797
11
1.79037
21
1.76815
0
LINE
8
BLACK
6
CONTINUOUS
10
1.79037
20
1.76815
11
1.79007
21
1.7684
0
LINE
8
BLACK
6
CONTINUOUS
10
1.79007
20
1.7684
11
1.78982
21
1.76869
0
LINE
8
BLACK
6
CONTINUOUS
10
1.78982
20
1.76869
11
1.78964
21
1.76904
0
LINE
8
BLACK
6
CONTINUOUS
10
1.78964
20
1.76904
11
1.78953
21
1.76941
0
LINE
8
BLACK
6
CONTINUOUS
10
1.78953
20
1.76941
11
1.78949
21
1.76979
0
LINE
8
BLACK
6
CONTINUOUS
10
1.78949
20
1.76979
11
1.78953
21
1.77018
0
LINE
8
BLACK
6
CONTINUOUS
10
1.78953
20
1.77018
11
1.78964
21
1.77055
0
LINE
8
BLACK
6
CONTINUOUS
10
1.78964
20
1.77055
11
1.78982
21
1.77089
0
LINE
8
BLACK
6
CONTINUOUS
10
1.78982
20
1.77089
11
1.79007
21
1.77119
0
LINE
8
BLACK
6
CONTINUOUS
10
1.79007
20
1.77119
11
1.79037
21
1.77144
0
LINE
8
BLACK
6
CONTINUOUS
10
1.79037
20
1.77144
11
1.79071
21
1.77162
0
LINE
8
BLACK
6
CONTINUOUS
10
1.79071
20
1.77162
11
1.79108
21
1.77173
0
LINE
8
BLACK
6
CONTINUOUS
10
1.79108
20
1.77173
11
1.79137
21
1.77176
0
LINE
8
BLACK
6
CONTINUOUS
10
1.79137
20
1.77176
11
1.79156
21
1.77176
0
LINE
8
BLACK
6
CONTINUOUS
10
1.79156
20
1.77176
11
1.79185
21
1.77173
  0
ENDSEC
  0
EOF
