  0
SECTION
  2
HEADER
  9
$ANGBASE
  50
0.0
  9
$ANGDIR
  70
1
  9
$MEASUREMENT
  70
1
  0
ENDSEC
  0
SECTION
  2
TABLES
  0
TABLE
  2
LTYPE
  70
4
  0
LTYPE
  5
40F
  2
CONTINUOUS
  70
0
  3
Solid line
  72
65
  73
0
  40
0.0
  0
LTYPE
  5
410
  2
DASHDOT
 70
0
  3
Dash Dot ____ _ ____ _
 72
65
 73
4
 40
2.0
 49
1.25
 49
-0.25
 49
0.25
 49
-0.25
  0
LTYPE
  5
411
  2
DASHED
 70
0
  3
Dashed __ __ __ __ __
 72
65
 73
2
 40
0.75
 49
0.5
 49
-0.25
  0
LTYPE
  5
43B
  2
DOTTED
 70
0
  3
Dotted .  .  .  .
 72
65
 73
2
 40
0.2
 49
0.0
 49
-0.2
  0
ENDTAB
  0
TABLE
  2
STYLE
  70
4
  0
STYLE
  2
KICAD
  70
0
  40
0
  41
1
  42
1
  50
0
  71
0
  3
isocp.shx
  0
STYLE
  2
KICADB
  70
0
  40
0
  41
1
  42
1
  50
0
  71
0
  3
isocp.shx
  0
STYLE
  2
KICADI
  70
0
  40
0
  41
1
  42
1
  50
15
  71
0
  3
isocp.shx
  0
STYLE
  2
KICADBI
  70
0
  40
0
  41
1
  42
1
  50
15
  71
0
  3
isocp.shx
  0
ENDTAB
  0
TABLE
  2
LAYER
  70
1
  0
LAYER
  2
BLACK
  70
0
  62
7
  6
CONTINUOUS
  0
ENDTAB
  0
ENDSEC
  0
SECTION
  2
ENTITIES
0
LINE
8
BLACK
6
CONTINUOUS
10
170.951
20
-34.95
11
170.952
21
-34.95
0
LINE
8
BLACK
6
CONTINUOUS
10
170.952
20
-34.95
11
170.954
21
-34.9501
0
LINE
8
BLACK
6
CONTINUOUS
10
170.954
20
-34.9501
11
170.955
21
-34.9502
0
LINE
8
BLACK
6
CONTINUOUS
10
170.955
20
-34.9502
11
170.956
21
-34.9504
0
LINE
8
BLACK
6
CONTINUOUS
10
170.956
20
-34.9504
11
170.96
21
-34.9507
0
LINE
8
BLACK
6
CONTINUOUS
10
170.96
20
-34.9507
11
170.961
21
-34.9511
0
LINE
8
BLACK
6
CONTINUOUS
10
170.961
20
-34.9511
11
224.484
21
-43.3958
0
LINE
8
BLACK
6
CONTINUOUS
10
224.484
20
-43.3958
11
224.485
21
-43.3961
0
LINE
8
BLACK
6
CONTINUOUS
10
224.485
20
-43.3961
11
224.486
21
-43.3961
0
LINE
8
BLACK
6
CONTINUOUS
10
224.486
20
-43.3961
11
224.486
21
-43.3961
0
LINE
8
BLACK
6
CONTINUOUS
10
224.486
20
-43.3961
11
224.488
21
-43.3968
0
LINE
8
BLACK
6
CONTINUOUS
10
224.488
20
-43.3968
11
224.687
21
-43.4476
0
LINE
8
BLACK
6
CONTINUOUS
10
224.687
20
-43.4476
11
224.689
21
-43.4479
0
LINE
8
BLACK
6
CONTINUOUS
10
224.689
20
-43.4479
11
224.691
21
-43.4488
0
LINE
8
BLACK
6
CONTINUOUS
10
224.691
20
-43.4488
11
224.692
21
-43.4489
0
LINE
8
BLACK
6
CONTINUOUS
10
224.692
20
-43.4489
11
224.694
21
-43.4497
0
LINE
8
BLACK
6
CONTINUOUS
10
224.694
20
-43.4497
11
224.696
21
-43.4503
0
LINE
8
BLACK
6
CONTINUOUS
10
224.696
20
-43.4503
11
224.696
21
-43.4505
0
LINE
8
BLACK
6
CONTINUOUS
10
224.696
20
-43.4505
11
224.699
21
-43.4515
0
LINE
8
BLACK
6
CONTINUOUS
10
224.699
20
-43.4515
11
224.701
21
-43.4525
0
LINE
8
BLACK
6
CONTINUOUS
10
224.701
20
-43.4525
11
224.88
21
-43.5348
0
LINE
8
BLACK
6
CONTINUOUS
10
224.88
20
-43.5348
11
224.882
21
-43.5354
0
LINE
8
BLACK
6
CONTINUOUS
10
224.882
20
-43.5354
11
224.884
21
-43.5368
0
LINE
8
BLACK
6
CONTINUOUS
10
224.884
20
-43.5368
11
224.885
21
-43.537
0
LINE
8
BLACK
6
CONTINUOUS
10
224.885
20
-43.537
11
224.887
21
-43.538
0
LINE
8
BLACK
6
CONTINUOUS
10
224.887
20
-43.538
11
224.888
21
-43.539
0
LINE
8
BLACK
6
CONTINUOUS
10
224.888
20
-43.539
11
224.889
21
-43.5393
0
LINE
8
BLACK
6
CONTINUOUS
10
224.889
20
-43.5393
11
224.891
21
-43.5408
0
LINE
8
BLACK
6
CONTINUOUS
10
224.891
20
-43.5408
11
224.893
21
-43.5421
0
LINE
8
BLACK
6
CONTINUOUS
10
224.893
20
-43.5421
11
225.053
21
-43.6528
0
LINE
8
BLACK
6
CONTINUOUS
10
225.053
20
-43.6528
11
225.054
21
-43.6537
0
LINE
8
BLACK
6
CONTINUOUS
10
225.054
20
-43.6537
11
225.057
21
-43.6556
0
LINE
8
BLACK
6
CONTINUOUS
10
225.057
20
-43.6556
11
225.057
21
-43.6559
0
LINE
8
BLACK
6
CONTINUOUS
10
225.057
20
-43.6559
11
225.059
21
-43.6571
0
LINE
8
BLACK
6
CONTINUOUS
10
225.059
20
-43.6571
11
225.06
21
-43.6583
0
LINE
8
BLACK
6
CONTINUOUS
10
225.06
20
-43.6583
11
225.06
21
-43.6587
0
LINE
8
BLACK
6
CONTINUOUS
10
225.06
20
-43.6587
11
225.063
21
-43.6607
0
LINE
8
BLACK
6
CONTINUOUS
10
225.063
20
-43.6607
11
225.064
21
-43.6622
0
LINE
8
BLACK
6
CONTINUOUS
10
225.064
20
-43.6622
11
225.201
21
-43.7979
0
LINE
8
BLACK
6
CONTINUOUS
10
225.201
20
-43.7979
11
225.203
21
-43.799
0
LINE
8
BLACK
6
CONTINUOUS
10
225.203
20
-43.799
11
225.205
21
-43.8013
0
LINE
8
BLACK
6
CONTINUOUS
10
225.205
20
-43.8013
11
225.205
21
-43.8017
0
LINE
8
BLACK
6
CONTINUOUS
10
225.205
20
-43.8017
11
225.206
21
-43.8032
0
LINE
8
BLACK
6
CONTINUOUS
10
225.206
20
-43.8032
11
225.208
21
-43.8046
0
LINE
8
BLACK
6
CONTINUOUS
10
225.208
20
-43.8046
11
225.208
21
-43.8051
0
LINE
8
BLACK
6
CONTINUOUS
10
225.208
20
-43.8051
11
225.21
21
-43.8074
0
LINE
8
BLACK
6
CONTINUOUS
10
225.21
20
-43.8074
11
225.211
21
-43.8091
0
LINE
8
BLACK
6
CONTINUOUS
10
225.211
20
-43.8091
11
225.323
21
-43.9663
0
LINE
8
BLACK
6
CONTINUOUS
10
225.323
20
-43.9663
11
225.324
21
-43.9677
0
LINE
8
BLACK
6
CONTINUOUS
10
225.324
20
-43.9677
11
225.326
21
-43.9703
0
LINE
8
BLACK
6
CONTINUOUS
10
225.326
20
-43.9703
11
225.326
21
-43.9708
0
LINE
8
BLACK
6
CONTINUOUS
10
225.326
20
-43.9708
11
225.327
21
-43.9724
0
LINE
8
BLACK
6
CONTINUOUS
10
225.327
20
-43.9724
11
225.328
21
-43.974
0
LINE
8
BLACK
6
CONTINUOUS
10
225.328
20
-43.974
11
225.328
21
-43.9746
0
LINE
8
BLACK
6
CONTINUOUS
10
225.328
20
-43.9746
11
225.33
21
-43.9772
0
LINE
8
BLACK
6
CONTINUOUS
10
225.33
20
-43.9772
11
225.33
21
-43.979
0
LINE
8
BLACK
6
CONTINUOUS
10
225.33
20
-43.979
11
225.414
21
-44.1545
0
LINE
8
BLACK
6
CONTINUOUS
10
225.414
20
-44.1545
11
225.415
21
-44.1561
0
LINE
8
BLACK
6
CONTINUOUS
10
225.415
20
-44.1561
11
225.416
21
-44.1589
0
LINE
8
BLACK
6
CONTINUOUS
10
225.416
20
-44.1589
11
225.416
21
-44.1593
0
LINE
8
BLACK
6
CONTINUOUS
10
225.416
20
-44.1593
11
225.417
21
-44.1612
0
LINE
8
BLACK
6
CONTINUOUS
10
225.417
20
-44.1612
11
225.418
21
-44.163
0
LINE
8
BLACK
6
CONTINUOUS
10
225.418
20
-44.163
11
225.418
21
-44.1635
0
LINE
8
BLACK
6
CONTINUOUS
10
225.418
20
-44.1635
11
225.419
21
-44.1663
0
LINE
8
BLACK
6
CONTINUOUS
10
225.419
20
-44.1663
11
225.419
21
-44.1682
0
LINE
8
BLACK
6
CONTINUOUS
10
225.419
20
-44.1682
11
225.472
21
-44.3585
0
LINE
8
BLACK
6
CONTINUOUS
10
225.472
20
-44.3585
11
225.473
21
-44.3604
0
LINE
8
BLACK
6
CONTINUOUS
10
225.473
20
-44.3604
11
225.473
21
-44.3632
0
LINE
8
BLACK
6
CONTINUOUS
10
225.473
20
-44.3632
11
225.473
21
-44.3636
0
LINE
8
BLACK
6
CONTINUOUS
10
225.473
20
-44.3636
11
225.474
21
-44.3656
0
LINE
8
BLACK
6
CONTINUOUS
10
225.474
20
-44.3656
11
225.474
21
-44.3676
0
LINE
8
BLACK
6
CONTINUOUS
10
225.474
20
-44.3676
11
225.474
21
-44.368
0
LINE
8
BLACK
6
CONTINUOUS
10
225.474
20
-44.368
11
225.474
21
-44.3709
0
LINE
8
BLACK
6
CONTINUOUS
10
225.474
20
-44.3709
11
225.474
21
-44.3729
0
LINE
8
BLACK
6
CONTINUOUS
10
225.474
20
-44.3729
11
225.493
21
-44.5772
0
LINE
8
BLACK
6
CONTINUOUS
10
225.493
20
-44.5772
11
225.493
21
-44.5794
0
LINE
8
BLACK
6
CONTINUOUS
10
225.493
20
-44.5794
11
225.493
21
-44.5796
0
LINE
8
BLACK
6
CONTINUOUS
10
225.493
20
-44.5796
11
225.493
21
-44.5798
0
LINE
8
BLACK
6
CONTINUOUS
10
225.493
20
-44.5798
11
225.493
21
-44.5819
0
LINE
8
BLACK
6
CONTINUOUS
10
225.493
20
-44.5819
11
225.52
21
-119.444
0
LINE
8
BLACK
6
CONTINUOUS
10
225.52
20
-119.444
11
225.525
21
-119.448
0
LINE
8
BLACK
6
CONTINUOUS
10
225.525
20
-119.448
11
225.534
21
-119.46
0
LINE
8
BLACK
6
CONTINUOUS
10
225.534
20
-119.46
11
225.541
21
-119.473
0
LINE
8
BLACK
6
CONTINUOUS
10
225.541
20
-119.473
11
225.544
21
-119.487
0
LINE
8
BLACK
6
CONTINUOUS
10
225.544
20
-119.487
11
225.546
21
-119.502
0
LINE
8
BLACK
6
CONTINUOUS
10
225.546
20
-119.502
11
225.544
21
-119.517
0
LINE
8
BLACK
6
CONTINUOUS
10
225.544
20
-119.517
11
225.539
21
-119.531
0
LINE
8
BLACK
6
CONTINUOUS
10
225.539
20
-119.531
11
225.532
21
-119.544
0
LINE
8
BLACK
6
CONTINUOUS
10
225.532
20
-119.544
11
225.522
21
-119.555
0
LINE
8
BLACK
6
CONTINUOUS
10
225.522
20
-119.555
11
225.51
21
-119.564
0
LINE
8
BLACK
6
CONTINUOUS
10
225.51
20
-119.564
11
225.5
21
-119.569
0
LINE
8
BLACK
6
CONTINUOUS
10
225.5
20
-119.569
11
187.523
21
-134.071
0
LINE
8
BLACK
6
CONTINUOUS
10
187.523
20
-134.071
11
187.513
21
-134.074
0
LINE
8
BLACK
6
CONTINUOUS
10
187.513
20
-134.074
11
187.498
21
-134.075
0
LINE
8
BLACK
6
CONTINUOUS
10
187.498
20
-134.075
11
187.483
21
-134.073
0
LINE
8
BLACK
6
CONTINUOUS
10
187.483
20
-134.073
11
187.469
21
-134.069
0
LINE
8
BLACK
6
CONTINUOUS
10
187.469
20
-134.069
11
187.456
21
-134.061
0
LINE
8
BLACK
6
CONTINUOUS
10
187.456
20
-134.061
11
187.445
21
-134.052
0
LINE
8
BLACK
6
CONTINUOUS
10
187.445
20
-134.052
11
187.444
21
-134.05
0
LINE
8
BLACK
6
CONTINUOUS
10
187.444
20
-134.05
11
138.161
21
-134.05
0
LINE
8
BLACK
6
CONTINUOUS
10
138.161
20
-134.05
11
93.9145
21
-146.798
0
LINE
8
BLACK
6
CONTINUOUS
10
93.9145
20
-146.798
11
93.9106
21
-146.799
0
LINE
8
BLACK
6
CONTINUOUS
10
93.9106
20
-146.799
11
93.9074
21
-146.799
0
LINE
8
BLACK
6
CONTINUOUS
10
93.9074
20
-146.799
11
93.9042
21
-146.8
0
LINE
8
BLACK
6
CONTINUOUS
10
93.9042
20
-146.8
11
93.9025
21
-146.8
0
LINE
8
BLACK
6
CONTINUOUS
10
93.9025
20
-146.8
11
93.9008
21
-146.8
0
LINE
8
BLACK
6
CONTINUOUS
10
93.9008
20
-146.8
11
93.8976
21
-146.8
0
LINE
8
BLACK
6
CONTINUOUS
10
93.8976
20
-146.8
11
93.8944
21
-146.8
0
LINE
8
BLACK
6
CONTINUOUS
10
93.8944
20
-146.8
11
93.8903
21
-146.799
0
LINE
8
BLACK
6
CONTINUOUS
10
93.8903
20
-146.799
11
93.3448
21
-146.7
0
LINE
8
BLACK
6
CONTINUOUS
10
93.3448
20
-146.7
11
93.3437
21
-146.7
0
LINE
8
BLACK
6
CONTINUOUS
10
93.3437
20
-146.7
11
93.34
21
-146.699
0
LINE
8
BLACK
6
CONTINUOUS
10
93.34
20
-146.699
11
93.3386
21
-146.699
0
LINE
8
BLACK
6
CONTINUOUS
10
93.3386
20
-146.699
11
93.3376
21
-146.698
0
LINE
8
BLACK
6
CONTINUOUS
10
93.3376
20
-146.698
11
93.3365
21
-146.698
0
LINE
8
BLACK
6
CONTINUOUS
10
93.3365
20
-146.698
11
93.3352
21
-146.698
0
LINE
8
BLACK
6
CONTINUOUS
10
93.3352
20
-146.698
11
93.3315
21
-146.697
0
LINE
8
BLACK
6
CONTINUOUS
10
93.3315
20
-146.697
11
93.3306
21
-146.696
0
LINE
8
BLACK
6
CONTINUOUS
10
93.3306
20
-146.696
11
92.8866
21
-146.548
0
LINE
8
BLACK
6
CONTINUOUS
10
92.8866
20
-146.548
11
92.8844
21
-146.548
0
LINE
8
BLACK
6
CONTINUOUS
10
92.8844
20
-146.548
11
92.882
21
-146.547
0
LINE
8
BLACK
6
CONTINUOUS
10
92.882
20
-146.547
11
92.8819
21
-146.547
0
LINE
8
BLACK
6
CONTINUOUS
10
92.8819
20
-146.547
11
92.8798
21
-146.546
0
LINE
8
BLACK
6
CONTINUOUS
10
92.8798
20
-146.546
11
92.8754
21
-146.544
0
LINE
8
BLACK
6
CONTINUOUS
10
92.8754
20
-146.544
11
92.8752
21
-146.544
0
LINE
8
BLACK
6
CONTINUOUS
10
92.8752
20
-146.544
11
92.8751
21
-146.544
0
LINE
8
BLACK
6
CONTINUOUS
10
92.8751
20
-146.544
11
92.8713
21
-146.541
0
LINE
8
BLACK
6
CONTINUOUS
10
92.8713
20
-146.541
11
92.8693
21
-146.54
0
LINE
8
BLACK
6
CONTINUOUS
10
92.8693
20
-146.54
11
92.8692
21
-146.539
0
LINE
8
BLACK
6
CONTINUOUS
10
92.8692
20
-146.539
11
92.8671
21
-146.538
0
LINE
8
BLACK
6
CONTINUOUS
10
92.8671
20
-146.538
11
92.8655
21
-146.536
0
LINE
8
BLACK
6
CONTINUOUS
10
92.8655
20
-146.536
11
92.5203
21
-146.24
0
LINE
8
BLACK
6
CONTINUOUS
10
92.5203
20
-146.24
11
92.5194
21
-146.24
0
LINE
8
BLACK
6
CONTINUOUS
10
92.5194
20
-146.24
11
92.5166
21
-146.237
0
LINE
8
BLACK
6
CONTINUOUS
10
92.5166
20
-146.237
11
92.5156
21
-146.236
0
LINE
8
BLACK
6
CONTINUOUS
10
92.5156
20
-146.236
11
92.5148
21
-146.236
0
LINE
8
BLACK
6
CONTINUOUS
10
92.5148
20
-146.236
11
92.5122
21
-146.233
0
LINE
8
BLACK
6
CONTINUOUS
10
92.5122
20
-146.233
11
92.5114
21
-146.232
0
LINE
8
BLACK
6
CONTINUOUS
10
92.5114
20
-146.232
11
92.5105
21
-146.231
0
LINE
8
BLACK
6
CONTINUOUS
10
92.5105
20
-146.231
11
92.5086
21
-146.228
0
LINE
8
BLACK
6
CONTINUOUS
10
92.5086
20
-146.228
11
92.5079
21
-146.227
0
LINE
8
BLACK
6
CONTINUOUS
10
92.5079
20
-146.227
11
92.5072
21
-146.226
0
LINE
8
BLACK
6
CONTINUOUS
10
92.5072
20
-146.226
11
92.5052
21
-146.223
0
LINE
8
BLACK
6
CONTINUOUS
10
92.5052
20
-146.223
11
92.5048
21
-146.222
0
LINE
8
BLACK
6
CONTINUOUS
10
92.5048
20
-146.222
11
82.2575
21
-128.426
0
LINE
8
BLACK
6
CONTINUOUS
10
82.2575
20
-128.426
11
82.2556
21
-128.424
0
LINE
8
BLACK
6
CONTINUOUS
10
82.2556
20
-128.424
11
82.2541
21
-128.42
0
LINE
8
BLACK
6
CONTINUOUS
10
82.2541
20
-128.42
11
82.2524
21
-128.416
0
LINE
8
BLACK
6
CONTINUOUS
10
82.2524
20
-128.416
11
82.2517
21
-128.413
0
LINE
8
BLACK
6
CONTINUOUS
10
82.2517
20
-128.413
11
82.1027
21
-127.916
0
LINE
8
BLACK
6
CONTINUOUS
10
82.1027
20
-127.916
11
82.1017
21
-127.914
0
LINE
8
BLACK
6
CONTINUOUS
10
82.1017
20
-127.914
11
82.1009
21
-127.909
0
LINE
8
BLACK
6
CONTINUOUS
10
82.1009
20
-127.909
11
82.1
21
-127.905
0
LINE
8
BLACK
6
CONTINUOUS
10
82.1
20
-127.905
11
82.1
21
-127.902
0
LINE
8
BLACK
6
CONTINUOUS
10
82.1
20
-127.902
11
82.0502
21
-127.305
0
LINE
8
BLACK
6
CONTINUOUS
10
82.0502
20
-127.305
11
82.05
21
-127.302
0
LINE
8
BLACK
6
CONTINUOUS
10
82.05
20
-127.302
11
82.05
21
-127.302
0
LINE
8
BLACK
6
CONTINUOUS
10
82.05
20
-127.302
11
82.05
21
-127.302
0
LINE
8
BLACK
6
CONTINUOUS
10
82.05
20
-127.302
11
82.05
21
-127.3
0
LINE
8
BLACK
6
CONTINUOUS
10
82.05
20
-127.3
11
82.05
21
-126.902
0
LINE
8
BLACK
6
CONTINUOUS
10
82.05
20
-126.902
11
82.0498
21
-126.9
0
LINE
8
BLACK
6
CONTINUOUS
10
82.0498
20
-126.9
11
82.0503
21
-126.894
0
LINE
8
BLACK
6
CONTINUOUS
10
82.0503
20
-126.894
11
82.0507
21
-126.89
0
LINE
8
BLACK
6
CONTINUOUS
10
82.0507
20
-126.89
11
82.0514
21
-126.888
0
LINE
8
BLACK
6
CONTINUOUS
10
82.0514
20
-126.888
11
82.15
21
-126.395
0
LINE
8
BLACK
6
CONTINUOUS
10
82.15
20
-126.395
11
82.15
21
-126.395
0
LINE
8
BLACK
6
CONTINUOUS
10
82.15
20
-126.395
11
82.1509
21
-126.391
0
LINE
8
BLACK
6
CONTINUOUS
10
82.1509
20
-126.391
11
82.1515
21
-126.388
0
LINE
8
BLACK
6
CONTINUOUS
10
82.1515
20
-126.388
11
82.1515
21
-126.388
0
LINE
8
BLACK
6
CONTINUOUS
10
82.1515
20
-126.388
11
82.152
21
-126.385
0
LINE
8
BLACK
6
CONTINUOUS
10
82.152
20
-126.385
11
82.1529
21
-126.383
0
LINE
8
BLACK
6
CONTINUOUS
10
82.1529
20
-126.383
11
82.1536
21
-126.381
0
LINE
8
BLACK
6
CONTINUOUS
10
82.1536
20
-126.381
11
82.1548
21
-126.378
0
LINE
8
BLACK
6
CONTINUOUS
10
82.1548
20
-126.378
11
82.1548
21
-126.378
0
LINE
8
BLACK
6
CONTINUOUS
10
82.1548
20
-126.378
11
82.156
21
-126.376
0
LINE
8
BLACK
6
CONTINUOUS
10
82.156
20
-126.376
11
82.1583
21
-126.372
0
LINE
8
BLACK
6
CONTINUOUS
10
82.1583
20
-126.372
11
82.1583
21
-126.372
0
LINE
8
BLACK
6
CONTINUOUS
10
82.1583
20
-126.372
11
87.9539
21
-115.63
0
LINE
8
BLACK
6
CONTINUOUS
10
87.9539
20
-115.63
11
88.1509
21
-115.039
0
LINE
8
BLACK
6
CONTINUOUS
10
88.1509
20
-115.039
11
88.2253
21
-114.397
0
LINE
8
BLACK
6
CONTINUOUS
10
88.2253
20
-114.397
11
88.2
21
-90.7809
0
LINE
8
BLACK
6
CONTINUOUS
10
88.2
20
-90.7809
11
78.2314
21
-85.7966
0
LINE
8
BLACK
6
CONTINUOUS
10
78.2314
20
-85.7966
11
78.2308
21
-85.7964
0
LINE
8
BLACK
6
CONTINUOUS
10
78.2308
20
-85.7964
11
78.227
21
-85.7944
0
LINE
8
BLACK
6
CONTINUOUS
10
78.227
20
-85.7944
11
78.2254
21
-85.7936
0
LINE
8
BLACK
6
CONTINUOUS
10
78.2254
20
-85.7936
11
78.2249
21
-85.7933
0
LINE
8
BLACK
6
CONTINUOUS
10
78.2249
20
-85.7933
11
78.2221
21
-85.7918
0
LINE
8
BLACK
6
CONTINUOUS
10
78.2221
20
-85.7918
11
78.2207
21
-85.7906
0
LINE
8
BLACK
6
CONTINUOUS
10
78.2207
20
-85.7906
11
78.2192
21
-85.7897
0
LINE
8
BLACK
6
CONTINUOUS
10
78.2192
20
-85.7897
11
78.2169
21
-85.7875
0
LINE
8
BLACK
6
CONTINUOUS
10
78.2169
20
-85.7875
11
78.2145
21
-85.7855
0
LINE
8
BLACK
6
CONTINUOUS
10
78.2145
20
-85.7855
11
78.2133
21
-85.7841
0
LINE
8
BLACK
6
CONTINUOUS
10
78.2133
20
-85.7841
11
78.212
21
-85.7829
0
LINE
8
BLACK
6
CONTINUOUS
10
78.212
20
-85.7829
11
78.2102
21
-85.7803
0
LINE
8
BLACK
6
CONTINUOUS
10
78.2102
20
-85.7803
11
78.2082
21
-85.7779
0
LINE
8
BLACK
6
CONTINUOUS
10
78.2082
20
-85.7779
11
78.2074
21
-85.7763
0
LINE
8
BLACK
6
CONTINUOUS
10
78.2074
20
-85.7763
11
78.2064
21
-85.7749
0
LINE
8
BLACK
6
CONTINUOUS
10
78.2064
20
-85.7749
11
78.2051
21
-85.772
0
LINE
8
BLACK
6
CONTINUOUS
10
78.2051
20
-85.772
11
78.2036
21
-85.7692
0
LINE
8
BLACK
6
CONTINUOUS
10
78.2036
20
-85.7692
11
78.2031
21
-85.7675
0
LINE
8
BLACK
6
CONTINUOUS
10
78.2031
20
-85.7675
11
78.2023
21
-85.7659
0
LINE
8
BLACK
6
CONTINUOUS
10
78.2023
20
-85.7659
11
78.2016
21
-85.7628
0
LINE
8
BLACK
6
CONTINUOUS
10
78.2016
20
-85.7628
11
78.2007
21
-85.7598
0
LINE
8
BLACK
6
CONTINUOUS
10
78.2007
20
-85.7598
11
78.2005
21
-85.758
0
LINE
8
BLACK
6
CONTINUOUS
10
78.2005
20
-85.758
11
78.2002
21
-85.7563
0
LINE
8
BLACK
6
CONTINUOUS
10
78.2002
20
-85.7563
11
78.2001
21
-85.7531
0
LINE
8
BLACK
6
CONTINUOUS
10
78.2001
20
-85.7531
11
78.2
21
-85.7524
0
LINE
8
BLACK
6
CONTINUOUS
10
78.2
20
-85.7524
11
78.2
21
-85.7506
0
LINE
8
BLACK
6
CONTINUOUS
10
78.2
20
-85.7506
11
78.1999
21
-85.7464
0
LINE
8
BLACK
6
CONTINUOUS
10
78.1999
20
-85.7464
11
78.2
21
-85.7458
0
LINE
8
BLACK
6
CONTINUOUS
10
78.2
20
-85.7458
11
78.2
21
-48.2525
0
LINE
8
BLACK
6
CONTINUOUS
10
78.2
20
-48.2525
11
78.2
21
-48.2524
0
LINE
8
BLACK
6
CONTINUOUS
10
78.2
20
-48.2524
11
78.2
21
-40.7542
0
LINE
8
BLACK
6
CONTINUOUS
10
78.2
20
-40.7542
11
78.1999
21
-40.7536
0
LINE
8
BLACK
6
CONTINUOUS
10
78.1999
20
-40.7536
11
78.2
21
-40.7493
0
LINE
8
BLACK
6
CONTINUOUS
10
78.2
20
-40.7493
11
78.2
21
-40.7476
0
LINE
8
BLACK
6
CONTINUOUS
10
78.2
20
-40.7476
11
78.2001
21
-40.7469
0
LINE
8
BLACK
6
CONTINUOUS
10
78.2001
20
-40.7469
11
78.2002
21
-40.7437
0
LINE
8
BLACK
6
CONTINUOUS
10
78.2002
20
-40.7437
11
78.2005
21
-40.742
0
LINE
8
BLACK
6
CONTINUOUS
10
78.2005
20
-40.742
11
78.2007
21
-40.7402
0
LINE
8
BLACK
6
CONTINUOUS
10
78.2007
20
-40.7402
11
78.2016
21
-40.7372
0
LINE
8
BLACK
6
CONTINUOUS
10
78.2016
20
-40.7372
11
78.2023
21
-40.7341
0
LINE
8
BLACK
6
CONTINUOUS
10
78.2023
20
-40.7341
11
78.2031
21
-40.7325
0
LINE
8
BLACK
6
CONTINUOUS
10
78.2031
20
-40.7325
11
78.2036
21
-40.7308
0
LINE
8
BLACK
6
CONTINUOUS
10
78.2036
20
-40.7308
11
78.2051
21
-40.728
0
LINE
8
BLACK
6
CONTINUOUS
10
78.2051
20
-40.728
11
78.2064
21
-40.7251
0
LINE
8
BLACK
6
CONTINUOUS
10
78.2064
20
-40.7251
11
78.2074
21
-40.7237
0
LINE
8
BLACK
6
CONTINUOUS
10
78.2074
20
-40.7237
11
78.2082
21
-40.7221
0
LINE
8
BLACK
6
CONTINUOUS
10
78.2082
20
-40.7221
11
78.2102
21
-40.7197
0
LINE
8
BLACK
6
CONTINUOUS
10
78.2102
20
-40.7197
11
78.212
21
-40.7171
0
LINE
8
BLACK
6
CONTINUOUS
10
78.212
20
-40.7171
11
78.2133
21
-40.7159
0
LINE
8
BLACK
6
CONTINUOUS
10
78.2133
20
-40.7159
11
78.2145
21
-40.7145
0
LINE
8
BLACK
6
CONTINUOUS
10
78.2145
20
-40.7145
11
78.2169
21
-40.7125
0
LINE
8
BLACK
6
CONTINUOUS
10
78.2169
20
-40.7125
11
78.2192
21
-40.7103
0
LINE
8
BLACK
6
CONTINUOUS
10
78.2192
20
-40.7103
11
78.2207
21
-40.7094
0
LINE
8
BLACK
6
CONTINUOUS
10
78.2207
20
-40.7094
11
78.2221
21
-40.7082
0
LINE
8
BLACK
6
CONTINUOUS
10
78.2221
20
-40.7082
11
78.2249
21
-40.7067
0
LINE
8
BLACK
6
CONTINUOUS
10
78.2249
20
-40.7067
11
78.2254
21
-40.7064
0
LINE
8
BLACK
6
CONTINUOUS
10
78.2254
20
-40.7064
11
78.2271
21
-40.7056
0
LINE
8
BLACK
6
CONTINUOUS
10
78.2271
20
-40.7056
11
78.2308
21
-40.7036
0
LINE
8
BLACK
6
CONTINUOUS
10
78.2308
20
-40.7036
11
78.2314
21
-40.7034
0
LINE
8
BLACK
6
CONTINUOUS
10
78.2314
20
-40.7034
11
84.7262
21
-37.456
0
LINE
8
BLACK
6
CONTINUOUS
10
84.7262
20
-37.456
11
84.7291
21
-37.4543
0
LINE
8
BLACK
6
CONTINUOUS
10
84.7291
20
-37.4543
11
84.7329
21
-37.453
0
LINE
8
BLACK
6
CONTINUOUS
10
84.7329
20
-37.453
11
84.7367
21
-37.4515
0
LINE
8
BLACK
6
CONTINUOUS
10
84.7367
20
-37.4515
11
84.7376
21
-37.4514
0
LINE
8
BLACK
6
CONTINUOUS
10
84.7376
20
-37.4514
11
84.7384
21
-37.4511
0
LINE
8
BLACK
6
CONTINUOUS
10
84.7384
20
-37.4511
11
84.7424
21
-37.4506
0
LINE
8
BLACK
6
CONTINUOUS
10
84.7424
20
-37.4506
11
84.7464
21
-37.4499
0
LINE
8
BLACK
6
CONTINUOUS
10
84.7464
20
-37.4499
11
84.7497
21
-37.45
0
LINE
8
BLACK
6
CONTINUOUS
10
84.7497
20
-37.45
11
89.4239
21
-37.2754
0
LINE
8
BLACK
6
CONTINUOUS
10
89.4239
20
-37.2754
11
148.997
21
-34.9501
0
LINE
8
BLACK
6
CONTINUOUS
10
148.997
20
-34.9501
11
148.998
21
-34.95
0
LINE
8
BLACK
6
CONTINUOUS
10
148.998
20
-34.95
11
148.999
21
-34.95
0
LINE
8
BLACK
6
CONTINUOUS
10
148.999
20
-34.95
11
149
21
-34.9499
0
LINE
8
BLACK
6
CONTINUOUS
10
149
20
-34.9499
11
149.001
21
-34.95
0
LINE
8
BLACK
6
CONTINUOUS
10
149.001
20
-34.95
11
170.947
21
-34.95
0
LINE
8
BLACK
6
CONTINUOUS
10
170.947
20
-34.95
11
170.948
21
-34.9498
0
LINE
8
BLACK
6
CONTINUOUS
10
170.948
20
-34.9498
11
170.951
21
-34.95
0
LINE
8
BLACK
6
CONTINUOUS
10
88.2686
20
-90.7034
11
88.2692
21
-90.7036
0
LINE
8
BLACK
6
CONTINUOUS
10
88.2692
20
-90.7036
11
88.2729
21
-90.7055
0
LINE
8
BLACK
6
CONTINUOUS
10
88.2729
20
-90.7055
11
88.2745
21
-90.7064
0
LINE
8
BLACK
6
CONTINUOUS
10
88.2745
20
-90.7064
11
88.2751
21
-90.7067
0
LINE
8
BLACK
6
CONTINUOUS
10
88.2751
20
-90.7067
11
88.2779
21
-90.7082
0
LINE
8
BLACK
6
CONTINUOUS
10
88.2779
20
-90.7082
11
88.2793
21
-90.7093
0
LINE
8
BLACK
6
CONTINUOUS
10
88.2793
20
-90.7093
11
88.2808
21
-90.7103
0
LINE
8
BLACK
6
CONTINUOUS
10
88.2808
20
-90.7103
11
88.2831
21
-90.7125
0
LINE
8
BLACK
6
CONTINUOUS
10
88.2831
20
-90.7125
11
88.2855
21
-90.7144
0
LINE
8
BLACK
6
CONTINUOUS
10
88.2855
20
-90.7144
11
88.2866
21
-90.7158
0
LINE
8
BLACK
6
CONTINUOUS
10
88.2866
20
-90.7158
11
88.288
21
-90.7171
0
LINE
8
BLACK
6
CONTINUOUS
10
88.288
20
-90.7171
11
88.2898
21
-90.7196
0
LINE
8
BLACK
6
CONTINUOUS
10
88.2898
20
-90.7196
11
88.2917
21
-90.722
0
LINE
8
BLACK
6
CONTINUOUS
10
88.2917
20
-90.722
11
88.2926
21
-90.7236
0
LINE
8
BLACK
6
CONTINUOUS
10
88.2926
20
-90.7236
11
88.2936
21
-90.7251
0
LINE
8
BLACK
6
CONTINUOUS
10
88.2936
20
-90.7251
11
88.2949
21
-90.728
0
LINE
8
BLACK
6
CONTINUOUS
10
88.2949
20
-90.728
11
88.2964
21
-90.7307
0
LINE
8
BLACK
6
CONTINUOUS
10
88.2964
20
-90.7307
11
88.2969
21
-90.7325
0
LINE
8
BLACK
6
CONTINUOUS
10
88.2969
20
-90.7325
11
88.2977
21
-90.7341
0
LINE
8
BLACK
6
CONTINUOUS
10
88.2977
20
-90.7341
11
88.2984
21
-90.7372
0
LINE
8
BLACK
6
CONTINUOUS
10
88.2984
20
-90.7372
11
88.2993
21
-90.7401
0
LINE
8
BLACK
6
CONTINUOUS
10
88.2993
20
-90.7401
11
88.2994
21
-90.742
0
LINE
8
BLACK
6
CONTINUOUS
10
88.2994
20
-90.742
11
88.2998
21
-90.7437
0
LINE
8
BLACK
6
CONTINUOUS
10
88.2998
20
-90.7437
11
88.2999
21
-90.7468
0
LINE
8
BLACK
6
CONTINUOUS
10
88.2999
20
-90.7468
11
88.3
21
-90.7475
0
LINE
8
BLACK
6
CONTINUOUS
10
88.3
20
-90.7475
11
88.3
21
-90.7493
0
LINE
8
BLACK
6
CONTINUOUS
10
88.3
20
-90.7493
11
88.3001
21
-90.7536
0
LINE
8
BLACK
6
CONTINUOUS
10
88.3001
20
-90.7536
11
88.3
21
-90.7542
0
LINE
8
BLACK
6
CONTINUOUS
10
88.3
20
-90.7542
11
88.3253
21
-114.395
0
LINE
8
BLACK
6
CONTINUOUS
10
88.3253
20
-114.395
11
88.3253
21
-114.396
0
LINE
8
BLACK
6
CONTINUOUS
10
88.3253
20
-114.396
11
88.3253
21
-114.4
0
LINE
8
BLACK
6
CONTINUOUS
10
88.3253
20
-114.4
11
88.3253
21
-114.402
0
LINE
8
BLACK
6
CONTINUOUS
10
88.3253
20
-114.402
11
88.3252
21
-114.403
0
LINE
8
BLACK
6
CONTINUOUS
10
88.3252
20
-114.403
11
88.3252
21
-114.403
0
LINE
8
BLACK
6
CONTINUOUS
10
88.3252
20
-114.403
11
88.325
21
-114.405
0
LINE
8
BLACK
6
CONTINUOUS
10
88.325
20
-114.405
11
88.3245
21
-114.41
0
LINE
8
BLACK
6
CONTINUOUS
10
88.3245
20
-114.41
11
88.3244
21
-114.41
0
LINE
8
BLACK
6
CONTINUOUS
10
88.3244
20
-114.41
11
88.2499
21
-115.054
0
LINE
8
BLACK
6
CONTINUOUS
10
88.2499
20
-115.054
11
88.2498
21
-115.056
0
LINE
8
BLACK
6
CONTINUOUS
10
88.2498
20
-115.056
11
88.2488
21
-115.061
0
LINE
8
BLACK
6
CONTINUOUS
10
88.2488
20
-115.061
11
88.2478
21
-115.065
0
LINE
8
BLACK
6
CONTINUOUS
10
88.2478
20
-115.065
11
88.2467
21
-115.068
0
LINE
8
BLACK
6
CONTINUOUS
10
88.2467
20
-115.068
11
88.0484
21
-115.663
0
LINE
8
BLACK
6
CONTINUOUS
10
88.0484
20
-115.663
11
88.048
21
-115.665
0
LINE
8
BLACK
6
CONTINUOUS
10
88.048
20
-115.665
11
88.0468
21
-115.668
0
LINE
8
BLACK
6
CONTINUOUS
10
88.0468
20
-115.668
11
88.0467
21
-115.668
0
LINE
8
BLACK
6
CONTINUOUS
10
88.0467
20
-115.668
11
88.0459
21
-115.67
0
LINE
8
BLACK
6
CONTINUOUS
10
88.0459
20
-115.67
11
88.0452
21
-115.672
0
LINE
8
BLACK
6
CONTINUOUS
10
88.0452
20
-115.672
11
88.0449
21
-115.672
0
LINE
8
BLACK
6
CONTINUOUS
10
88.0449
20
-115.672
11
88.0436
21
-115.675
0
LINE
8
BLACK
6
CONTINUOUS
10
88.0436
20
-115.675
11
88.0426
21
-115.676
0
LINE
8
BLACK
6
CONTINUOUS
10
88.0426
20
-115.676
11
82.2476
21
-126.417
0
LINE
8
BLACK
6
CONTINUOUS
10
82.2476
20
-126.417
11
82.15
21
-126.905
0
LINE
8
BLACK
6
CONTINUOUS
10
82.15
20
-126.905
11
82.15
21
-127.298
0
LINE
8
BLACK
6
CONTINUOUS
10
82.15
20
-127.298
11
82.1994
21
-127.891
0
LINE
8
BLACK
6
CONTINUOUS
10
82.1994
20
-127.891
11
82.3462
21
-128.38
0
LINE
8
BLACK
6
CONTINUOUS
10
82.3462
20
-128.38
11
92.5891
21
-146.168
0
LINE
8
BLACK
6
CONTINUOUS
10
92.5891
20
-146.168
11
92.9251
21
-146.456
0
LINE
8
BLACK
6
CONTINUOUS
10
92.9251
20
-146.456
11
93.3624
21
-146.601
0
LINE
8
BLACK
6
CONTINUOUS
10
93.3624
20
-146.601
11
93.8974
21
-146.699
0
LINE
8
BLACK
6
CONTINUOUS
10
93.8974
20
-146.699
11
138.14
21
-133.952
0
LINE
8
BLACK
6
CONTINUOUS
10
138.14
20
-133.952
11
138.144
21
-133.951
0
LINE
8
BLACK
6
CONTINUOUS
10
138.144
20
-133.951
11
138.147
21
-133.95
0
LINE
8
BLACK
6
CONTINUOUS
10
138.147
20
-133.95
11
138.15
21
-133.95
0
LINE
8
BLACK
6
CONTINUOUS
10
138.15
20
-133.95
11
138.154
21
-133.95
0
LINE
8
BLACK
6
CONTINUOUS
10
138.154
20
-133.95
11
187.444
21
-133.95
0
LINE
8
BLACK
6
CONTINUOUS
10
187.444
20
-133.95
11
187.448
21
-133.945
0
LINE
8
BLACK
6
CONTINUOUS
10
187.448
20
-133.945
11
187.46
21
-133.936
0
LINE
8
BLACK
6
CONTINUOUS
10
187.46
20
-133.936
11
187.47
21
-133.931
0
LINE
8
BLACK
6
CONTINUOUS
10
187.47
20
-133.931
11
225.42
21
-119.439
0
LINE
8
BLACK
6
CONTINUOUS
10
225.42
20
-119.439
11
225.393
21
-44.5842
0
LINE
8
BLACK
6
CONTINUOUS
10
225.393
20
-44.5842
11
225.375
21
-44.3836
0
LINE
8
BLACK
6
CONTINUOUS
10
225.375
20
-44.3836
11
225.323
21
-44.1962
0
LINE
8
BLACK
6
CONTINUOUS
10
225.323
20
-44.1962
11
225.241
21
-44.0233
0
LINE
8
BLACK
6
CONTINUOUS
10
225.241
20
-44.0233
11
225.13
21
-43.8681
0
LINE
8
BLACK
6
CONTINUOUS
10
225.13
20
-43.8681
11
224.995
21
-43.7342
0
LINE
8
BLACK
6
CONTINUOUS
10
224.995
20
-43.7342
11
224.837
21
-43.6251
0
LINE
8
BLACK
6
CONTINUOUS
10
224.837
20
-43.6251
11
224.66
21
-43.5441
0
LINE
8
BLACK
6
CONTINUOUS
10
224.66
20
-43.5441
11
224.465
21
-43.4942
0
LINE
8
BLACK
6
CONTINUOUS
10
224.465
20
-43.4942
11
170.946
21
-35.05
0
LINE
8
BLACK
6
CONTINUOUS
10
170.946
20
-35.05
11
149.001
21
-35.05
0
LINE
8
BLACK
6
CONTINUOUS
10
149.001
20
-35.05
11
89.4302
21
-37.3753
0
LINE
8
BLACK
6
CONTINUOUS
10
89.4302
20
-37.3753
11
89.4302
21
-37.3753
0
LINE
8
BLACK
6
CONTINUOUS
10
89.4302
20
-37.3753
11
89.4274
21
-37.3754
0
LINE
8
BLACK
6
CONTINUOUS
10
89.4274
20
-37.3754
11
89.4254
21
-37.3755
0
LINE
8
BLACK
6
CONTINUOUS
10
89.4254
20
-37.3755
11
89.4253
21
-37.3755
0
LINE
8
BLACK
6
CONTINUOUS
10
89.4253
20
-37.3755
11
84.7627
21
-37.5496
0
LINE
8
BLACK
6
CONTINUOUS
10
84.7627
20
-37.5496
11
78.3
21
-40.7809
0
LINE
8
BLACK
6
CONTINUOUS
10
78.3
20
-40.7809
11
78.3
21
-85.7191
0
LINE
8
BLACK
6
CONTINUOUS
10
78.3
20
-85.7191
11
88.2686
21
-90.7034
0
LINE
8
BLACK
6
CONTINUOUS
10
100.361
20
-133.404
11
100.35
21
-133.402
0
LINE
8
BLACK
6
CONTINUOUS
10
100.35
20
-133.402
11
100.336
21
-133.397
0
LINE
8
BLACK
6
CONTINUOUS
10
100.336
20
-133.397
11
100.331
21
-133.394
0
LINE
8
BLACK
6
CONTINUOUS
10
100.331
20
-133.394
11
100.323
21
-133.389
0
LINE
8
BLACK
6
CONTINUOUS
10
100.323
20
-133.389
11
100.313
21
-133.379
0
LINE
8
BLACK
6
CONTINUOUS
10
100.313
20
-133.379
11
100.306
21
-133.37
0
LINE
8
BLACK
6
CONTINUOUS
10
100.306
20
-133.37
11
100.306
21
-133.37
0
LINE
8
BLACK
6
CONTINUOUS
10
100.306
20
-133.37
11
100.304
21
-133.367
0
LINE
8
BLACK
6
CONTINUOUS
10
100.304
20
-133.367
11
100.302
21
-133.364
0
LINE
8
BLACK
6
CONTINUOUS
10
100.302
20
-133.364
11
98.5562
21
-130.339
0
LINE
8
BLACK
6
CONTINUOUS
10
98.5562
20
-130.339
11
98.554
21
-130.336
0
LINE
8
BLACK
6
CONTINUOUS
10
98.554
20
-130.336
11
98.5479
21
-130.323
0
LINE
8
BLACK
6
CONTINUOUS
10
98.5479
20
-130.323
11
98.5446
21
-130.308
0
LINE
8
BLACK
6
CONTINUOUS
10
98.5446
20
-130.308
11
98.5441
21
-130.294
0
LINE
8
BLACK
6
CONTINUOUS
10
98.5441
20
-130.294
11
98.5465
21
-130.279
0
LINE
8
BLACK
6
CONTINUOUS
10
98.5465
20
-130.279
11
98.5517
21
-130.265
0
LINE
8
BLACK
6
CONTINUOUS
10
98.5517
20
-130.265
11
98.5595
21
-130.253
0
LINE
8
BLACK
6
CONTINUOUS
10
98.5595
20
-130.253
11
98.5696
21
-130.242
0
LINE
8
BLACK
6
CONTINUOUS
10
98.5696
20
-130.242
11
98.574
21
-130.239
0
LINE
8
BLACK
6
CONTINUOUS
10
98.574
20
-130.239
11
98.5816
21
-130.233
0
LINE
8
BLACK
6
CONTINUOUS
10
98.5816
20
-130.233
11
98.585
21
-130.232
0
LINE
8
BLACK
6
CONTINUOUS
10
98.585
20
-130.232
11
102.476
21
-127.985
0
LINE
8
BLACK
6
CONTINUOUS
10
102.476
20
-127.985
11
102.479
21
-127.983
0
LINE
8
BLACK
6
CONTINUOUS
10
102.479
20
-127.983
11
102.482
21
-127.982
0
LINE
8
BLACK
6
CONTINUOUS
10
102.482
20
-127.982
11
102.482
21
-127.982
0
LINE
8
BLACK
6
CONTINUOUS
10
102.482
20
-127.982
11
102.492
21
-127.977
0
LINE
8
BLACK
6
CONTINUOUS
10
102.492
20
-127.977
11
102.507
21
-127.974
0
LINE
8
BLACK
6
CONTINUOUS
10
102.507
20
-127.974
11
102.521
21
-127.973
0
LINE
8
BLACK
6
CONTINUOUS
10
102.521
20
-127.973
11
102.536
21
-127.976
0
LINE
8
BLACK
6
CONTINUOUS
10
102.536
20
-127.976
11
102.55
21
-127.981
0
LINE
8
BLACK
6
CONTINUOUS
10
102.55
20
-127.981
11
102.562
21
-127.989
0
LINE
8
BLACK
6
CONTINUOUS
10
102.562
20
-127.989
11
102.573
21
-127.999
0
LINE
8
BLACK
6
CONTINUOUS
10
102.573
20
-127.999
11
102.582
21
-128.011
0
LINE
8
BLACK
6
CONTINUOUS
10
102.582
20
-128.011
11
102.583
21
-128.014
0
LINE
8
BLACK
6
CONTINUOUS
10
102.583
20
-128.014
11
104.33
21
-131.039
0
LINE
8
BLACK
6
CONTINUOUS
10
104.33
20
-131.039
11
104.332
21
-131.042
0
LINE
8
BLACK
6
CONTINUOUS
10
104.332
20
-131.042
11
104.338
21
-131.055
0
LINE
8
BLACK
6
CONTINUOUS
10
104.338
20
-131.055
11
104.341
21
-131.07
0
LINE
8
BLACK
6
CONTINUOUS
10
104.341
20
-131.07
11
104.342
21
-131.085
0
LINE
8
BLACK
6
CONTINUOUS
10
104.342
20
-131.085
11
104.339
21
-131.099
0
LINE
8
BLACK
6
CONTINUOUS
10
104.339
20
-131.099
11
104.334
21
-131.113
0
LINE
8
BLACK
6
CONTINUOUS
10
104.334
20
-131.113
11
104.326
21
-131.126
0
LINE
8
BLACK
6
CONTINUOUS
10
104.326
20
-131.126
11
104.316
21
-131.136
0
LINE
8
BLACK
6
CONTINUOUS
10
104.316
20
-131.136
11
104.307
21
-131.143
0
LINE
8
BLACK
6
CONTINUOUS
10
104.307
20
-131.143
11
104.307
21
-131.143
0
LINE
8
BLACK
6
CONTINUOUS
10
104.307
20
-131.143
11
104.304
21
-131.145
0
LINE
8
BLACK
6
CONTINUOUS
10
104.304
20
-131.145
11
104.301
21
-131.146
0
LINE
8
BLACK
6
CONTINUOUS
10
104.301
20
-131.146
11
100.41
21
-133.393
0
LINE
8
BLACK
6
CONTINUOUS
10
100.41
20
-133.393
11
100.407
21
-133.395
0
LINE
8
BLACK
6
CONTINUOUS
10
100.407
20
-133.395
11
100.404
21
-133.396
0
LINE
8
BLACK
6
CONTINUOUS
10
100.404
20
-133.396
11
100.404
21
-133.396
0
LINE
8
BLACK
6
CONTINUOUS
10
100.404
20
-133.396
11
100.394
21
-133.401
0
LINE
8
BLACK
6
CONTINUOUS
10
100.394
20
-133.401
11
100.379
21
-133.404
0
LINE
8
BLACK
6
CONTINUOUS
10
100.379
20
-133.404
11
100.364
21
-133.405
0
LINE
8
BLACK
6
CONTINUOUS
10
100.364
20
-133.405
11
100.364
21
-133.405
0
LINE
8
BLACK
6
CONTINUOUS
10
100.364
20
-133.405
11
100.361
21
-133.404
0
LINE
8
BLACK
6
CONTINUOUS
10
98.7217
20
-130.326
11
100.397
21
-133.227
0
LINE
8
BLACK
6
CONTINUOUS
10
100.397
20
-133.227
11
104.164
21
-131.052
0
LINE
8
BLACK
6
CONTINUOUS
10
104.164
20
-131.052
11
102.489
21
-128.151
0
LINE
8
BLACK
6
CONTINUOUS
10
102.489
20
-128.151
11
98.7217
21
-130.326
0
LINE
8
BLACK
6
CONTINUOUS
10
115.093
20
-125.75
11
115.079
21
-125.744
0
LINE
8
BLACK
6
CONTINUOUS
10
115.079
20
-125.744
11
115.067
21
-125.735
0
LINE
8
BLACK
6
CONTINUOUS
10
115.067
20
-125.735
11
115.057
21
-125.725
0
LINE
8
BLACK
6
CONTINUOUS
10
115.057
20
-125.725
11
115.049
21
-125.712
0
LINE
8
BLACK
6
CONTINUOUS
10
115.049
20
-125.712
11
115.045
21
-125.702
0
LINE
8
BLACK
6
CONTINUOUS
10
115.045
20
-125.702
11
115.045
21
-125.702
0
LINE
8
BLACK
6
CONTINUOUS
10
115.045
20
-125.702
11
115.044
21
-125.698
0
LINE
8
BLACK
6
CONTINUOUS
10
115.044
20
-125.698
11
115.044
21
-125.695
0
LINE
8
BLACK
6
CONTINUOUS
10
115.044
20
-125.695
11
113.881
21
-121.355
0
LINE
8
BLACK
6
CONTINUOUS
10
113.881
20
-121.355
11
113.879
21
-121.352
0
LINE
8
BLACK
6
CONTINUOUS
10
113.879
20
-121.352
11
113.877
21
-121.337
0
LINE
8
BLACK
6
CONTINUOUS
10
113.877
20
-121.337
11
113.878
21
-121.322
0
LINE
8
BLACK
6
CONTINUOUS
10
113.878
20
-121.322
11
113.881
21
-121.308
0
LINE
8
BLACK
6
CONTINUOUS
10
113.881
20
-121.308
11
113.887
21
-121.294
0
LINE
8
BLACK
6
CONTINUOUS
10
113.887
20
-121.294
11
113.896
21
-121.282
0
LINE
8
BLACK
6
CONTINUOUS
10
113.896
20
-121.282
11
113.906
21
-121.272
0
LINE
8
BLACK
6
CONTINUOUS
10
113.906
20
-121.272
11
113.919
21
-121.264
0
LINE
8
BLACK
6
CONTINUOUS
10
113.919
20
-121.264
11
113.933
21
-121.259
0
LINE
8
BLACK
6
CONTINUOUS
10
113.933
20
-121.259
11
113.936
21
-121.259
0
LINE
8
BLACK
6
CONTINUOUS
10
113.936
20
-121.259
11
117.31
21
-120.355
0
LINE
8
BLACK
6
CONTINUOUS
10
117.31
20
-120.355
11
117.314
21
-120.353
0
LINE
8
BLACK
6
CONTINUOUS
10
117.314
20
-120.353
11
117.323
21
-120.352
0
LINE
8
BLACK
6
CONTINUOUS
10
117.323
20
-120.352
11
117.328
21
-120.351
0
LINE
8
BLACK
6
CONTINUOUS
10
117.328
20
-120.351
11
117.328
21
-120.351
0
LINE
8
BLACK
6
CONTINUOUS
10
117.328
20
-120.351
11
117.343
21
-120.351
0
LINE
8
BLACK
6
CONTINUOUS
10
117.343
20
-120.351
11
117.357
21
-120.355
0
LINE
8
BLACK
6
CONTINUOUS
10
117.357
20
-120.355
11
117.371
21
-120.361
0
LINE
8
BLACK
6
CONTINUOUS
10
117.371
20
-120.361
11
117.383
21
-120.369
0
LINE
8
BLACK
6
CONTINUOUS
10
117.383
20
-120.369
11
117.393
21
-120.38
0
LINE
8
BLACK
6
CONTINUOUS
10
117.393
20
-120.38
11
117.401
21
-120.393
0
LINE
8
BLACK
6
CONTINUOUS
10
117.401
20
-120.393
11
117.405
21
-120.403
0
LINE
8
BLACK
6
CONTINUOUS
10
117.405
20
-120.403
11
117.405
21
-120.403
0
LINE
8
BLACK
6
CONTINUOUS
10
117.405
20
-120.403
11
117.406
21
-120.407
0
LINE
8
BLACK
6
CONTINUOUS
10
117.406
20
-120.407
11
117.406
21
-120.41
0
LINE
8
BLACK
6
CONTINUOUS
10
117.406
20
-120.41
11
118.569
21
-124.75
0
LINE
8
BLACK
6
CONTINUOUS
10
118.569
20
-124.75
11
118.571
21
-124.753
0
LINE
8
BLACK
6
CONTINUOUS
10
118.571
20
-124.753
11
118.571
21
-124.757
0
LINE
8
BLACK
6
CONTINUOUS
10
118.571
20
-124.757
11
118.571
21
-124.757
0
LINE
8
BLACK
6
CONTINUOUS
10
118.571
20
-124.757
11
118.573
21
-124.768
0
LINE
8
BLACK
6
CONTINUOUS
10
118.573
20
-124.768
11
118.572
21
-124.783
0
LINE
8
BLACK
6
CONTINUOUS
10
118.572
20
-124.783
11
118.569
21
-124.797
0
LINE
8
BLACK
6
CONTINUOUS
10
118.569
20
-124.797
11
118.563
21
-124.81
0
LINE
8
BLACK
6
CONTINUOUS
10
118.563
20
-124.81
11
118.554
21
-124.822
0
LINE
8
BLACK
6
CONTINUOUS
10
118.554
20
-124.822
11
118.554
21
-124.822
0
LINE
8
BLACK
6
CONTINUOUS
10
118.554
20
-124.822
11
118.544
21
-124.833
0
LINE
8
BLACK
6
CONTINUOUS
10
118.544
20
-124.833
11
118.531
21
-124.84
0
LINE
8
BLACK
6
CONTINUOUS
10
118.531
20
-124.84
11
118.521
21
-124.844
0
LINE
8
BLACK
6
CONTINUOUS
10
118.521
20
-124.844
11
118.521
21
-124.844
0
LINE
8
BLACK
6
CONTINUOUS
10
118.521
20
-124.844
11
118.517
21
-124.846
0
LINE
8
BLACK
6
CONTINUOUS
10
118.517
20
-124.846
11
118.514
21
-124.846
0
LINE
8
BLACK
6
CONTINUOUS
10
118.514
20
-124.846
11
115.14
21
-125.75
0
LINE
8
BLACK
6
CONTINUOUS
10
115.14
20
-125.75
11
115.136
21
-125.751
0
LINE
8
BLACK
6
CONTINUOUS
10
115.136
20
-125.751
11
115.122
21
-125.754
0
LINE
8
BLACK
6
CONTINUOUS
10
115.122
20
-125.754
11
115.107
21
-125.753
0
LINE
8
BLACK
6
CONTINUOUS
10
115.107
20
-125.753
11
115.093
21
-125.75
0
LINE
8
BLACK
6
CONTINUOUS
10
114.044
20
-121.385
11
115.17
21
-125.587
0
LINE
8
BLACK
6
CONTINUOUS
10
115.17
20
-125.587
11
118.406
21
-124.72
0
LINE
8
BLACK
6
CONTINUOUS
10
118.406
20
-124.72
11
117.28
21
-120.518
0
LINE
8
BLACK
6
CONTINUOUS
10
117.28
20
-120.518
11
114.044
21
-121.385
0
LINE
8
BLACK
6
CONTINUOUS
10
179.352
20
-115.96
11
179.364
21
-115.961
0
LINE
8
BLACK
6
CONTINUOUS
10
179.364
20
-115.961
11
179.378
21
-115.966
0
LINE
8
BLACK
6
CONTINUOUS
10
179.378
20
-115.966
11
179.391
21
-115.973
0
LINE
8
BLACK
6
CONTINUOUS
10
179.391
20
-115.973
11
179.402
21
-115.982
0
LINE
8
BLACK
6
CONTINUOUS
10
179.402
20
-115.982
11
179.411
21
-115.993
0
LINE
8
BLACK
6
CONTINUOUS
10
179.411
20
-115.993
11
179.418
21
-116.006
0
LINE
8
BLACK
6
CONTINUOUS
10
179.418
20
-116.006
11
179.423
21
-116.02
0
LINE
8
BLACK
6
CONTINUOUS
10
179.423
20
-116.02
11
179.424
21
-116.035
0
LINE
8
BLACK
6
CONTINUOUS
10
179.424
20
-116.035
11
179.424
21
-116.039
0
LINE
8
BLACK
6
CONTINUOUS
10
179.424
20
-116.039
11
179.424
21
-120.532
0
LINE
8
BLACK
6
CONTINUOUS
10
179.424
20
-120.532
11
179.424
21
-120.535
0
LINE
8
BLACK
6
CONTINUOUS
10
179.424
20
-120.535
11
179.423
21
-120.55
0
LINE
8
BLACK
6
CONTINUOUS
10
179.423
20
-120.55
11
179.418
21
-120.564
0
LINE
8
BLACK
6
CONTINUOUS
10
179.418
20
-120.564
11
179.411
21
-120.577
0
LINE
8
BLACK
6
CONTINUOUS
10
179.411
20
-120.577
11
179.402
21
-120.588
0
LINE
8
BLACK
6
CONTINUOUS
10
179.402
20
-120.588
11
179.391
21
-120.598
0
LINE
8
BLACK
6
CONTINUOUS
10
179.391
20
-120.598
11
179.378
21
-120.605
0
LINE
8
BLACK
6
CONTINUOUS
10
179.378
20
-120.605
11
179.364
21
-120.609
0
LINE
8
BLACK
6
CONTINUOUS
10
179.364
20
-120.609
11
179.352
21
-120.61
0
LINE
8
BLACK
6
CONTINUOUS
10
179.352
20
-120.61
11
179.349
21
-120.611
0
LINE
8
BLACK
6
CONTINUOUS
10
179.349
20
-120.611
11
179.345
21
-120.61
0
LINE
8
BLACK
6
CONTINUOUS
10
179.345
20
-120.61
11
175.852
21
-120.61
0
LINE
8
BLACK
6
CONTINUOUS
10
175.852
20
-120.61
11
175.849
21
-120.611
0
LINE
8
BLACK
6
CONTINUOUS
10
175.849
20
-120.611
11
175.834
21
-120.609
0
LINE
8
BLACK
6
CONTINUOUS
10
175.834
20
-120.609
11
175.82
21
-120.605
0
LINE
8
BLACK
6
CONTINUOUS
10
175.82
20
-120.605
11
175.807
21
-120.598
0
LINE
8
BLACK
6
CONTINUOUS
10
175.807
20
-120.598
11
175.796
21
-120.588
0
LINE
8
BLACK
6
CONTINUOUS
10
175.796
20
-120.588
11
175.786
21
-120.577
0
LINE
8
BLACK
6
CONTINUOUS
10
175.786
20
-120.577
11
175.779
21
-120.564
0
LINE
8
BLACK
6
CONTINUOUS
10
175.779
20
-120.564
11
175.775
21
-120.55
0
LINE
8
BLACK
6
CONTINUOUS
10
175.775
20
-120.55
11
175.773
21
-120.535
0
LINE
8
BLACK
6
CONTINUOUS
10
175.773
20
-120.535
11
175.774
21
-120.532
0
LINE
8
BLACK
6
CONTINUOUS
10
175.774
20
-120.532
11
175.774
21
-116.039
0
LINE
8
BLACK
6
CONTINUOUS
10
175.774
20
-116.039
11
175.773
21
-116.035
0
LINE
8
BLACK
6
CONTINUOUS
10
175.773
20
-116.035
11
175.775
21
-116.02
0
LINE
8
BLACK
6
CONTINUOUS
10
175.775
20
-116.02
11
175.779
21
-116.006
0
LINE
8
BLACK
6
CONTINUOUS
10
175.779
20
-116.006
11
175.786
21
-115.993
0
LINE
8
BLACK
6
CONTINUOUS
10
175.786
20
-115.993
11
175.796
21
-115.982
0
LINE
8
BLACK
6
CONTINUOUS
10
175.796
20
-115.982
11
175.807
21
-115.973
0
LINE
8
BLACK
6
CONTINUOUS
10
175.807
20
-115.973
11
175.82
21
-115.966
0
LINE
8
BLACK
6
CONTINUOUS
10
175.82
20
-115.966
11
175.834
21
-115.961
0
LINE
8
BLACK
6
CONTINUOUS
10
175.834
20
-115.961
11
175.845
21
-115.96
0
LINE
8
BLACK
6
CONTINUOUS
10
175.845
20
-115.96
11
175.849
21
-115.96
0
LINE
8
BLACK
6
CONTINUOUS
10
175.849
20
-115.96
11
175.852
21
-115.96
0
LINE
8
BLACK
6
CONTINUOUS
10
175.852
20
-115.96
11
179.345
21
-115.96
0
LINE
8
BLACK
6
CONTINUOUS
10
179.345
20
-115.96
11
179.349
21
-115.96
0
LINE
8
BLACK
6
CONTINUOUS
10
179.349
20
-115.96
11
179.352
21
-115.96
0
LINE
8
BLACK
6
CONTINUOUS
10
175.924
20
-116.11
11
175.924
21
-120.46
0
LINE
8
BLACK
6
CONTINUOUS
10
175.924
20
-120.46
11
179.274
21
-120.46
0
LINE
8
BLACK
6
CONTINUOUS
10
179.274
20
-120.46
11
179.274
21
-116.11
0
LINE
8
BLACK
6
CONTINUOUS
10
179.274
20
-116.11
11
175.924
21
-116.11
0
LINE
8
BLACK
6
CONTINUOUS
10
141.254
20
-115.874
11
141.265
21
-115.875
0
LINE
8
BLACK
6
CONTINUOUS
10
141.265
20
-115.875
11
141.279
21
-115.88
0
LINE
8
BLACK
6
CONTINUOUS
10
141.279
20
-115.88
11
141.292
21
-115.887
0
LINE
8
BLACK
6
CONTINUOUS
10
141.292
20
-115.887
11
141.304
21
-115.896
0
LINE
8
BLACK
6
CONTINUOUS
10
141.304
20
-115.896
11
141.313
21
-115.907
0
LINE
8
BLACK
6
CONTINUOUS
10
141.313
20
-115.907
11
141.32
21
-115.92
0
LINE
8
BLACK
6
CONTINUOUS
10
141.32
20
-115.92
11
141.324
21
-115.934
0
LINE
8
BLACK
6
CONTINUOUS
10
141.324
20
-115.934
11
141.326
21
-115.949
0
LINE
8
BLACK
6
CONTINUOUS
10
141.326
20
-115.949
11
141.325
21
-115.953
0
LINE
8
BLACK
6
CONTINUOUS
10
141.325
20
-115.953
11
141.325
21
-120.446
0
LINE
8
BLACK
6
CONTINUOUS
10
141.325
20
-120.446
11
141.326
21
-120.449
0
LINE
8
BLACK
6
CONTINUOUS
10
141.326
20
-120.449
11
141.324
21
-120.464
0
LINE
8
BLACK
6
CONTINUOUS
10
141.324
20
-120.464
11
141.32
21
-120.478
0
LINE
8
BLACK
6
CONTINUOUS
10
141.32
20
-120.478
11
141.313
21
-120.491
0
LINE
8
BLACK
6
CONTINUOUS
10
141.313
20
-120.491
11
141.304
21
-120.502
0
LINE
8
BLACK
6
CONTINUOUS
10
141.304
20
-120.502
11
141.292
21
-120.512
0
LINE
8
BLACK
6
CONTINUOUS
10
141.292
20
-120.512
11
141.279
21
-120.519
0
LINE
8
BLACK
6
CONTINUOUS
10
141.279
20
-120.519
11
141.265
21
-120.523
0
LINE
8
BLACK
6
CONTINUOUS
10
141.265
20
-120.523
11
141.254
21
-120.524
0
LINE
8
BLACK
6
CONTINUOUS
10
141.254
20
-120.524
11
141.25
21
-120.525
0
LINE
8
BLACK
6
CONTINUOUS
10
141.25
20
-120.525
11
141.247
21
-120.524
0
LINE
8
BLACK
6
CONTINUOUS
10
141.247
20
-120.524
11
137.754
21
-120.524
0
LINE
8
BLACK
6
CONTINUOUS
10
137.754
20
-120.524
11
137.75
21
-120.525
0
LINE
8
BLACK
6
CONTINUOUS
10
137.75
20
-120.525
11
137.736
21
-120.523
0
LINE
8
BLACK
6
CONTINUOUS
10
137.736
20
-120.523
11
137.722
21
-120.519
0
LINE
8
BLACK
6
CONTINUOUS
10
137.722
20
-120.519
11
137.709
21
-120.512
0
LINE
8
BLACK
6
CONTINUOUS
10
137.709
20
-120.512
11
137.697
21
-120.502
0
LINE
8
BLACK
6
CONTINUOUS
10
137.697
20
-120.502
11
137.69
21
-120.494
0
LINE
8
BLACK
6
CONTINUOUS
10
137.69
20
-120.494
11
137.688
21
-120.491
0
LINE
8
BLACK
6
CONTINUOUS
10
137.688
20
-120.491
11
137.681
21
-120.478
0
LINE
8
BLACK
6
CONTINUOUS
10
137.681
20
-120.478
11
137.676
21
-120.464
0
LINE
8
BLACK
6
CONTINUOUS
10
137.676
20
-120.464
11
137.675
21
-120.449
0
LINE
8
BLACK
6
CONTINUOUS
10
137.675
20
-120.449
11
137.675
21
-120.446
0
LINE
8
BLACK
6
CONTINUOUS
10
137.675
20
-120.446
11
137.675
21
-115.953
0
LINE
8
BLACK
6
CONTINUOUS
10
137.675
20
-115.953
11
137.675
21
-115.949
0
LINE
8
BLACK
6
CONTINUOUS
10
137.675
20
-115.949
11
137.676
21
-115.934
0
LINE
8
BLACK
6
CONTINUOUS
10
137.676
20
-115.934
11
137.681
21
-115.92
0
LINE
8
BLACK
6
CONTINUOUS
10
137.681
20
-115.92
11
137.688
21
-115.907
0
LINE
8
BLACK
6
CONTINUOUS
10
137.688
20
-115.907
11
137.697
21
-115.896
0
LINE
8
BLACK
6
CONTINUOUS
10
137.697
20
-115.896
11
137.709
21
-115.887
0
LINE
8
BLACK
6
CONTINUOUS
10
137.709
20
-115.887
11
137.722
21
-115.88
0
LINE
8
BLACK
6
CONTINUOUS
10
137.722
20
-115.88
11
137.736
21
-115.875
0
LINE
8
BLACK
6
CONTINUOUS
10
137.736
20
-115.875
11
137.747
21
-115.874
0
LINE
8
BLACK
6
CONTINUOUS
10
137.747
20
-115.874
11
137.75
21
-115.874
0
LINE
8
BLACK
6
CONTINUOUS
10
137.75
20
-115.874
11
137.754
21
-115.874
0
LINE
8
BLACK
6
CONTINUOUS
10
137.754
20
-115.874
11
141.247
21
-115.874
0
LINE
8
BLACK
6
CONTINUOUS
10
141.247
20
-115.874
11
141.25
21
-115.874
0
LINE
8
BLACK
6
CONTINUOUS
10
141.25
20
-115.874
11
141.254
21
-115.874
0
LINE
8
BLACK
6
CONTINUOUS
10
137.825
20
-116.024
11
137.825
21
-120.374
0
LINE
8
BLACK
6
CONTINUOUS
10
137.825
20
-120.374
11
141.175
21
-120.374
0
LINE
8
BLACK
6
CONTINUOUS
10
141.175
20
-120.374
11
141.175
21
-116.024
0
LINE
8
BLACK
6
CONTINUOUS
10
141.175
20
-116.024
11
137.825
21
-116.024
0
LINE
8
BLACK
6
CONTINUOUS
10
160.354
20
-113.461
11
160.365
21
-113.462
0
LINE
8
BLACK
6
CONTINUOUS
10
160.365
20
-113.462
11
160.379
21
-113.467
0
LINE
8
BLACK
6
CONTINUOUS
10
160.379
20
-113.467
11
160.392
21
-113.474
0
LINE
8
BLACK
6
CONTINUOUS
10
160.392
20
-113.474
11
160.404
21
-113.483
0
LINE
8
BLACK
6
CONTINUOUS
10
160.404
20
-113.483
11
160.413
21
-113.494
0
LINE
8
BLACK
6
CONTINUOUS
10
160.413
20
-113.494
11
160.42
21
-113.507
0
LINE
8
BLACK
6
CONTINUOUS
10
160.42
20
-113.507
11
160.424
21
-113.521
0
LINE
8
BLACK
6
CONTINUOUS
10
160.424
20
-113.521
11
160.426
21
-113.536
0
LINE
8
BLACK
6
CONTINUOUS
10
160.426
20
-113.536
11
160.425
21
-113.54
0
LINE
8
BLACK
6
CONTINUOUS
10
160.425
20
-113.54
11
160.425
21
-118.033
0
LINE
8
BLACK
6
CONTINUOUS
10
160.425
20
-118.033
11
160.426
21
-118.036
0
LINE
8
BLACK
6
CONTINUOUS
10
160.426
20
-118.036
11
160.424
21
-118.051
0
LINE
8
BLACK
6
CONTINUOUS
10
160.424
20
-118.051
11
160.42
21
-118.065
0
LINE
8
BLACK
6
CONTINUOUS
10
160.42
20
-118.065
11
160.413
21
-118.078
0
LINE
8
BLACK
6
CONTINUOUS
10
160.413
20
-118.078
11
160.404
21
-118.089
0
LINE
8
BLACK
6
CONTINUOUS
10
160.404
20
-118.089
11
160.392
21
-118.099
0
LINE
8
BLACK
6
CONTINUOUS
10
160.392
20
-118.099
11
160.379
21
-118.106
0
LINE
8
BLACK
6
CONTINUOUS
10
160.379
20
-118.106
11
160.365
21
-118.11
0
LINE
8
BLACK
6
CONTINUOUS
10
160.365
20
-118.11
11
160.354
21
-118.111
0
LINE
8
BLACK
6
CONTINUOUS
10
160.354
20
-118.111
11
160.35
21
-118.112
0
LINE
8
BLACK
6
CONTINUOUS
10
160.35
20
-118.112
11
160.347
21
-118.111
0
LINE
8
BLACK
6
CONTINUOUS
10
160.347
20
-118.111
11
156.854
21
-118.111
0
LINE
8
BLACK
6
CONTINUOUS
10
156.854
20
-118.111
11
156.85
21
-118.112
0
LINE
8
BLACK
6
CONTINUOUS
10
156.85
20
-118.112
11
156.836
21
-118.11
0
LINE
8
BLACK
6
CONTINUOUS
10
156.836
20
-118.11
11
156.822
21
-118.106
0
LINE
8
BLACK
6
CONTINUOUS
10
156.822
20
-118.106
11
156.809
21
-118.099
0
LINE
8
BLACK
6
CONTINUOUS
10
156.809
20
-118.099
11
156.797
21
-118.089
0
LINE
8
BLACK
6
CONTINUOUS
10
156.797
20
-118.089
11
156.788
21
-118.078
0
LINE
8
BLACK
6
CONTINUOUS
10
156.788
20
-118.078
11
156.781
21
-118.065
0
LINE
8
BLACK
6
CONTINUOUS
10
156.781
20
-118.065
11
156.776
21
-118.051
0
LINE
8
BLACK
6
CONTINUOUS
10
156.776
20
-118.051
11
156.775
21
-118.036
0
LINE
8
BLACK
6
CONTINUOUS
10
156.775
20
-118.036
11
156.775
21
-118.033
0
LINE
8
BLACK
6
CONTINUOUS
10
156.775
20
-118.033
11
156.775
21
-113.54
0
LINE
8
BLACK
6
CONTINUOUS
10
156.775
20
-113.54
11
156.775
21
-113.536
0
LINE
8
BLACK
6
CONTINUOUS
10
156.775
20
-113.536
11
156.776
21
-113.521
0
LINE
8
BLACK
6
CONTINUOUS
10
156.776
20
-113.521
11
156.781
21
-113.507
0
LINE
8
BLACK
6
CONTINUOUS
10
156.781
20
-113.507
11
156.788
21
-113.494
0
LINE
8
BLACK
6
CONTINUOUS
10
156.788
20
-113.494
11
156.797
21
-113.483
0
LINE
8
BLACK
6
CONTINUOUS
10
156.797
20
-113.483
11
156.809
21
-113.474
0
LINE
8
BLACK
6
CONTINUOUS
10
156.809
20
-113.474
11
156.822
21
-113.467
0
LINE
8
BLACK
6
CONTINUOUS
10
156.822
20
-113.467
11
156.836
21
-113.462
0
LINE
8
BLACK
6
CONTINUOUS
10
156.836
20
-113.462
11
156.847
21
-113.461
0
LINE
8
BLACK
6
CONTINUOUS
10
156.847
20
-113.461
11
156.85
21
-113.461
0
LINE
8
BLACK
6
CONTINUOUS
10
156.85
20
-113.461
11
156.854
21
-113.461
0
LINE
8
BLACK
6
CONTINUOUS
10
156.854
20
-113.461
11
160.347
21
-113.461
0
LINE
8
BLACK
6
CONTINUOUS
10
160.347
20
-113.461
11
160.35
21
-113.461
0
LINE
8
BLACK
6
CONTINUOUS
10
160.35
20
-113.461
11
160.354
21
-113.461
0
LINE
8
BLACK
6
CONTINUOUS
10
156.925
20
-113.611
11
156.925
21
-117.961
0
LINE
8
BLACK
6
CONTINUOUS
10
156.925
20
-117.961
11
160.275
21
-117.961
0
LINE
8
BLACK
6
CONTINUOUS
10
160.275
20
-117.961
11
160.275
21
-113.611
0
LINE
8
BLACK
6
CONTINUOUS
10
160.275
20
-113.611
11
156.925
21
-113.611
0
LINE
8
BLACK
6
CONTINUOUS
10
198.454
20
-101.675
11
198.465
21
-101.676
0
LINE
8
BLACK
6
CONTINUOUS
10
198.465
20
-101.676
11
198.479
21
-101.68
0
LINE
8
BLACK
6
CONTINUOUS
10
198.479
20
-101.68
11
198.492
21
-101.687
0
LINE
8
BLACK
6
CONTINUOUS
10
198.492
20
-101.687
11
198.503
21
-101.697
0
LINE
8
BLACK
6
CONTINUOUS
10
198.503
20
-101.697
11
198.513
21
-101.708
0
LINE
8
BLACK
6
CONTINUOUS
10
198.513
20
-101.708
11
198.52
21
-101.721
0
LINE
8
BLACK
6
CONTINUOUS
10
198.52
20
-101.721
11
198.524
21
-101.735
0
LINE
8
BLACK
6
CONTINUOUS
10
198.524
20
-101.735
11
198.525
21
-101.75
0
LINE
8
BLACK
6
CONTINUOUS
10
198.525
20
-101.75
11
198.525
21
-101.754
0
LINE
8
BLACK
6
CONTINUOUS
10
198.525
20
-101.754
11
198.525
21
-106.246
0
LINE
8
BLACK
6
CONTINUOUS
10
198.525
20
-106.246
11
198.525
21
-106.25
0
LINE
8
BLACK
6
CONTINUOUS
10
198.525
20
-106.25
11
198.524
21
-106.265
0
LINE
8
BLACK
6
CONTINUOUS
10
198.524
20
-106.265
11
198.52
21
-106.279
0
LINE
8
BLACK
6
CONTINUOUS
10
198.52
20
-106.279
11
198.513
21
-106.292
0
LINE
8
BLACK
6
CONTINUOUS
10
198.513
20
-106.292
11
198.503
21
-106.303
0
LINE
8
BLACK
6
CONTINUOUS
10
198.503
20
-106.303
11
198.492
21
-106.313
0
LINE
8
BLACK
6
CONTINUOUS
10
198.492
20
-106.313
11
198.479
21
-106.32
0
LINE
8
BLACK
6
CONTINUOUS
10
198.479
20
-106.32
11
198.465
21
-106.324
0
LINE
8
BLACK
6
CONTINUOUS
10
198.465
20
-106.324
11
198.454
21
-106.325
0
LINE
8
BLACK
6
CONTINUOUS
10
198.454
20
-106.325
11
198.45
21
-106.325
0
LINE
8
BLACK
6
CONTINUOUS
10
198.45
20
-106.325
11
198.446
21
-106.325
0
LINE
8
BLACK
6
CONTINUOUS
10
198.446
20
-106.325
11
194.954
21
-106.325
0
LINE
8
BLACK
6
CONTINUOUS
10
194.954
20
-106.325
11
194.95
21
-106.325
0
LINE
8
BLACK
6
CONTINUOUS
10
194.95
20
-106.325
11
194.935
21
-106.324
0
LINE
8
BLACK
6
CONTINUOUS
10
194.935
20
-106.324
11
194.921
21
-106.32
0
LINE
8
BLACK
6
CONTINUOUS
10
194.921
20
-106.32
11
194.908
21
-106.313
0
LINE
8
BLACK
6
CONTINUOUS
10
194.908
20
-106.313
11
194.897
21
-106.303
0
LINE
8
BLACK
6
CONTINUOUS
10
194.897
20
-106.303
11
194.895
21
-106.301
0
LINE
8
BLACK
6
CONTINUOUS
10
194.895
20
-106.301
11
194.887
21
-106.292
0
LINE
8
BLACK
6
CONTINUOUS
10
194.887
20
-106.292
11
194.88
21
-106.279
0
LINE
8
BLACK
6
CONTINUOUS
10
194.88
20
-106.279
11
194.876
21
-106.265
0
LINE
8
BLACK
6
CONTINUOUS
10
194.876
20
-106.265
11
194.875
21
-106.25
0
LINE
8
BLACK
6
CONTINUOUS
10
194.875
20
-106.25
11
194.875
21
-106.246
0
LINE
8
BLACK
6
CONTINUOUS
10
194.875
20
-106.246
11
194.875
21
-101.754
0
LINE
8
BLACK
6
CONTINUOUS
10
194.875
20
-101.754
11
194.875
21
-101.75
0
LINE
8
BLACK
6
CONTINUOUS
10
194.875
20
-101.75
11
194.876
21
-101.735
0
LINE
8
BLACK
6
CONTINUOUS
10
194.876
20
-101.735
11
194.88
21
-101.721
0
LINE
8
BLACK
6
CONTINUOUS
10
194.88
20
-101.721
11
194.887
21
-101.708
0
LINE
8
BLACK
6
CONTINUOUS
10
194.887
20
-101.708
11
194.897
21
-101.697
0
LINE
8
BLACK
6
CONTINUOUS
10
194.897
20
-101.697
11
194.908
21
-101.687
0
LINE
8
BLACK
6
CONTINUOUS
10
194.908
20
-101.687
11
194.921
21
-101.68
0
LINE
8
BLACK
6
CONTINUOUS
10
194.921
20
-101.68
11
194.935
21
-101.676
0
LINE
8
BLACK
6
CONTINUOUS
10
194.935
20
-101.676
11
194.946
21
-101.675
0
LINE
8
BLACK
6
CONTINUOUS
10
194.946
20
-101.675
11
194.95
21
-101.675
0
LINE
8
BLACK
6
CONTINUOUS
10
194.95
20
-101.675
11
194.954
21
-101.675
0
LINE
8
BLACK
6
CONTINUOUS
10
194.954
20
-101.675
11
198.446
21
-101.675
0
LINE
8
BLACK
6
CONTINUOUS
10
198.446
20
-101.675
11
198.45
21
-101.675
0
LINE
8
BLACK
6
CONTINUOUS
10
198.45
20
-101.675
11
198.454
21
-101.675
0
LINE
8
BLACK
6
CONTINUOUS
10
195.025
20
-101.825
11
195.025
21
-106.175
0
LINE
8
BLACK
6
CONTINUOUS
10
195.025
20
-106.175
11
198.375
21
-106.175
0
LINE
8
BLACK
6
CONTINUOUS
10
198.375
20
-106.175
11
198.375
21
-101.825
0
LINE
8
BLACK
6
CONTINUOUS
10
198.375
20
-101.825
11
195.025
21
-101.825
0
LINE
8
BLACK
6
CONTINUOUS
10
217.504
20
-101.651
11
217.515
21
-101.652
0
LINE
8
BLACK
6
CONTINUOUS
10
217.515
20
-101.652
11
217.529
21
-101.656
0
LINE
8
BLACK
6
CONTINUOUS
10
217.529
20
-101.656
11
217.542
21
-101.663
0
LINE
8
BLACK
6
CONTINUOUS
10
217.542
20
-101.663
11
217.553
21
-101.673
0
LINE
8
BLACK
6
CONTINUOUS
10
217.553
20
-101.673
11
217.563
21
-101.684
0
LINE
8
BLACK
6
CONTINUOUS
10
217.563
20
-101.684
11
217.57
21
-101.697
0
LINE
8
BLACK
6
CONTINUOUS
10
217.57
20
-101.697
11
217.574
21
-101.711
0
LINE
8
BLACK
6
CONTINUOUS
10
217.574
20
-101.711
11
217.575
21
-101.726
0
LINE
8
BLACK
6
CONTINUOUS
10
217.575
20
-101.726
11
217.575
21
-101.73
0
LINE
8
BLACK
6
CONTINUOUS
10
217.575
20
-101.73
11
217.575
21
-106.222
0
LINE
8
BLACK
6
CONTINUOUS
10
217.575
20
-106.222
11
217.575
21
-106.226
0
LINE
8
BLACK
6
CONTINUOUS
10
217.575
20
-106.226
11
217.574
21
-106.241
0
LINE
8
BLACK
6
CONTINUOUS
10
217.574
20
-106.241
11
217.57
21
-106.255
0
LINE
8
BLACK
6
CONTINUOUS
10
217.57
20
-106.255
11
217.563
21
-106.268
0
LINE
8
BLACK
6
CONTINUOUS
10
217.563
20
-106.268
11
217.553
21
-106.279
0
LINE
8
BLACK
6
CONTINUOUS
10
217.553
20
-106.279
11
217.542
21
-106.289
0
LINE
8
BLACK
6
CONTINUOUS
10
217.542
20
-106.289
11
217.529
21
-106.296
0
LINE
8
BLACK
6
CONTINUOUS
10
217.529
20
-106.296
11
217.515
21
-106.3
0
LINE
8
BLACK
6
CONTINUOUS
10
217.515
20
-106.3
11
217.504
21
-106.301
0
LINE
8
BLACK
6
CONTINUOUS
10
217.504
20
-106.301
11
217.5
21
-106.301
0
LINE
8
BLACK
6
CONTINUOUS
10
217.5
20
-106.301
11
217.496
21
-106.301
0
LINE
8
BLACK
6
CONTINUOUS
10
217.496
20
-106.301
11
214.004
21
-106.301
0
LINE
8
BLACK
6
CONTINUOUS
10
214.004
20
-106.301
11
214
21
-106.301
0
LINE
8
BLACK
6
CONTINUOUS
10
214
20
-106.301
11
213.985
21
-106.3
0
LINE
8
BLACK
6
CONTINUOUS
10
213.985
20
-106.3
11
213.971
21
-106.296
0
LINE
8
BLACK
6
CONTINUOUS
10
213.971
20
-106.296
11
213.958
21
-106.289
0
LINE
8
BLACK
6
CONTINUOUS
10
213.958
20
-106.289
11
213.947
21
-106.279
0
LINE
8
BLACK
6
CONTINUOUS
10
213.947
20
-106.279
11
213.946
21
-106.279
0
LINE
8
BLACK
6
CONTINUOUS
10
213.946
20
-106.279
11
213.937
21
-106.268
0
LINE
8
BLACK
6
CONTINUOUS
10
213.937
20
-106.268
11
213.93
21
-106.255
0
LINE
8
BLACK
6
CONTINUOUS
10
213.93
20
-106.255
11
213.926
21
-106.241
0
LINE
8
BLACK
6
CONTINUOUS
10
213.926
20
-106.241
11
213.925
21
-106.226
0
LINE
8
BLACK
6
CONTINUOUS
10
213.925
20
-106.226
11
213.925
21
-106.222
0
LINE
8
BLACK
6
CONTINUOUS
10
213.925
20
-106.222
11
213.925
21
-101.73
0
LINE
8
BLACK
6
CONTINUOUS
10
213.925
20
-101.73
11
213.925
21
-101.726
0
LINE
8
BLACK
6
CONTINUOUS
10
213.925
20
-101.726
11
213.926
21
-101.711
0
LINE
8
BLACK
6
CONTINUOUS
10
213.926
20
-101.711
11
213.93
21
-101.697
0
LINE
8
BLACK
6
CONTINUOUS
10
213.93
20
-101.697
11
213.937
21
-101.684
0
LINE
8
BLACK
6
CONTINUOUS
10
213.937
20
-101.684
11
213.947
21
-101.673
0
LINE
8
BLACK
6
CONTINUOUS
10
213.947
20
-101.673
11
213.958
21
-101.663
0
LINE
8
BLACK
6
CONTINUOUS
10
213.958
20
-101.663
11
213.971
21
-101.656
0
LINE
8
BLACK
6
CONTINUOUS
10
213.971
20
-101.656
11
213.985
21
-101.652
0
LINE
8
BLACK
6
CONTINUOUS
10
213.985
20
-101.652
11
213.996
21
-101.651
0
LINE
8
BLACK
6
CONTINUOUS
10
213.996
20
-101.651
11
214
21
-101.651
0
LINE
8
BLACK
6
CONTINUOUS
10
214
20
-101.651
11
214.004
21
-101.651
0
LINE
8
BLACK
6
CONTINUOUS
10
214.004
20
-101.651
11
217.496
21
-101.651
0
LINE
8
BLACK
6
CONTINUOUS
10
217.496
20
-101.651
11
217.5
21
-101.651
0
LINE
8
BLACK
6
CONTINUOUS
10
217.5
20
-101.651
11
217.504
21
-101.651
0
LINE
8
BLACK
6
CONTINUOUS
10
214.075
20
-101.801
11
214.075
21
-106.151
0
LINE
8
BLACK
6
CONTINUOUS
10
214.075
20
-106.151
11
217.425
21
-106.151
0
LINE
8
BLACK
6
CONTINUOUS
10
217.425
20
-106.151
11
217.425
21
-101.801
0
LINE
8
BLACK
6
CONTINUOUS
10
217.425
20
-101.801
11
214.075
21
-101.801
0
LINE
8
BLACK
6
CONTINUOUS
10
122.254
20
-99.275
11
122.265
21
-99.2761
0
LINE
8
BLACK
6
CONTINUOUS
10
122.265
20
-99.2761
11
122.279
21
-99.2804
0
LINE
8
BLACK
6
CONTINUOUS
10
122.279
20
-99.2804
11
122.292
21
-99.2873
0
LINE
8
BLACK
6
CONTINUOUS
10
122.292
20
-99.2873
11
122.303
21
-99.2967
0
LINE
8
BLACK
6
CONTINUOUS
10
122.303
20
-99.2967
11
122.313
21
-99.3081
0
LINE
8
BLACK
6
CONTINUOUS
10
122.313
20
-99.3081
11
122.32
21
-99.3212
0
LINE
8
BLACK
6
CONTINUOUS
10
122.32
20
-99.3212
11
122.324
21
-99.3353
0
LINE
8
BLACK
6
CONTINUOUS
10
122.324
20
-99.3353
11
122.325
21
-99.35
0
LINE
8
BLACK
6
CONTINUOUS
10
122.325
20
-99.35
11
122.325
21
-99.3537
0
LINE
8
BLACK
6
CONTINUOUS
10
122.325
20
-99.3537
11
122.325
21
-103.846
0
LINE
8
BLACK
6
CONTINUOUS
10
122.325
20
-103.846
11
122.325
21
-103.85
0
LINE
8
BLACK
6
CONTINUOUS
10
122.325
20
-103.85
11
122.324
21
-103.865
0
LINE
8
BLACK
6
CONTINUOUS
10
122.324
20
-103.865
11
122.32
21
-103.879
0
LINE
8
BLACK
6
CONTINUOUS
10
122.32
20
-103.879
11
122.313
21
-103.892
0
LINE
8
BLACK
6
CONTINUOUS
10
122.313
20
-103.892
11
122.303
21
-103.903
0
LINE
8
BLACK
6
CONTINUOUS
10
122.303
20
-103.903
11
122.292
21
-103.913
0
LINE
8
BLACK
6
CONTINUOUS
10
122.292
20
-103.913
11
122.279
21
-103.92
0
LINE
8
BLACK
6
CONTINUOUS
10
122.279
20
-103.92
11
122.265
21
-103.924
0
LINE
8
BLACK
6
CONTINUOUS
10
122.265
20
-103.924
11
122.254
21
-103.925
0
LINE
8
BLACK
6
CONTINUOUS
10
122.254
20
-103.925
11
122.25
21
-103.925
0
LINE
8
BLACK
6
CONTINUOUS
10
122.25
20
-103.925
11
122.246
21
-103.925
0
LINE
8
BLACK
6
CONTINUOUS
10
122.246
20
-103.925
11
118.754
21
-103.925
0
LINE
8
BLACK
6
CONTINUOUS
10
118.754
20
-103.925
11
118.75
21
-103.925
0
LINE
8
BLACK
6
CONTINUOUS
10
118.75
20
-103.925
11
118.735
21
-103.924
0
LINE
8
BLACK
6
CONTINUOUS
10
118.735
20
-103.924
11
118.721
21
-103.92
0
LINE
8
BLACK
6
CONTINUOUS
10
118.721
20
-103.92
11
118.708
21
-103.913
0
LINE
8
BLACK
6
CONTINUOUS
10
118.708
20
-103.913
11
118.697
21
-103.903
0
LINE
8
BLACK
6
CONTINUOUS
10
118.697
20
-103.903
11
118.687
21
-103.892
0
LINE
8
BLACK
6
CONTINUOUS
10
118.687
20
-103.892
11
118.68
21
-103.879
0
LINE
8
BLACK
6
CONTINUOUS
10
118.68
20
-103.879
11
118.676
21
-103.865
0
LINE
8
BLACK
6
CONTINUOUS
10
118.676
20
-103.865
11
118.675
21
-103.85
0
LINE
8
BLACK
6
CONTINUOUS
10
118.675
20
-103.85
11
118.675
21
-103.846
0
LINE
8
BLACK
6
CONTINUOUS
10
118.675
20
-103.846
11
118.675
21
-99.3537
0
LINE
8
BLACK
6
CONTINUOUS
10
118.675
20
-99.3537
11
118.675
21
-99.35
0
LINE
8
BLACK
6
CONTINUOUS
10
118.675
20
-99.35
11
118.676
21
-99.3353
0
LINE
8
BLACK
6
CONTINUOUS
10
118.676
20
-99.3353
11
118.68
21
-99.3212
0
LINE
8
BLACK
6
CONTINUOUS
10
118.68
20
-99.3212
11
118.687
21
-99.3081
0
LINE
8
BLACK
6
CONTINUOUS
10
118.687
20
-99.3081
11
118.697
21
-99.2967
0
LINE
8
BLACK
6
CONTINUOUS
10
118.697
20
-99.2967
11
118.708
21
-99.2873
0
LINE
8
BLACK
6
CONTINUOUS
10
118.708
20
-99.2873
11
118.721
21
-99.2804
0
LINE
8
BLACK
6
CONTINUOUS
10
118.721
20
-99.2804
11
118.735
21
-99.2761
0
LINE
8
BLACK
6
CONTINUOUS
10
118.735
20
-99.2761
11
118.746
21
-99.275
0
LINE
8
BLACK
6
CONTINUOUS
10
118.746
20
-99.275
11
118.75
21
-99.2746
0
LINE
8
BLACK
6
CONTINUOUS
10
118.75
20
-99.2746
11
118.754
21
-99.275
0
LINE
8
BLACK
6
CONTINUOUS
10
118.754
20
-99.275
11
122.246
21
-99.275
0
LINE
8
BLACK
6
CONTINUOUS
10
122.246
20
-99.275
11
122.25
21
-99.2746
0
LINE
8
BLACK
6
CONTINUOUS
10
122.25
20
-99.2746
11
122.254
21
-99.275
0
LINE
8
BLACK
6
CONTINUOUS
10
118.825
20
-99.425
11
118.825
21
-103.775
0
LINE
8
BLACK
6
CONTINUOUS
10
118.825
20
-103.775
11
122.175
21
-103.775
0
LINE
8
BLACK
6
CONTINUOUS
10
122.175
20
-103.775
11
122.175
21
-99.425
0
LINE
8
BLACK
6
CONTINUOUS
10
122.175
20
-99.425
11
118.825
21
-99.425
0
LINE
8
BLACK
6
CONTINUOUS
10
141.254
20
-96.975
11
141.265
21
-96.9761
0
LINE
8
BLACK
6
CONTINUOUS
10
141.265
20
-96.9761
11
141.279
21
-96.9804
0
LINE
8
BLACK
6
CONTINUOUS
10
141.279
20
-96.9804
11
141.292
21
-96.9873
0
LINE
8
BLACK
6
CONTINUOUS
10
141.292
20
-96.9873
11
141.303
21
-96.9967
0
LINE
8
BLACK
6
CONTINUOUS
10
141.303
20
-96.9967
11
141.313
21
-97.0081
0
LINE
8
BLACK
6
CONTINUOUS
10
141.313
20
-97.0081
11
141.32
21
-97.0212
0
LINE
8
BLACK
6
CONTINUOUS
10
141.32
20
-97.0212
11
141.324
21
-97.0353
0
LINE
8
BLACK
6
CONTINUOUS
10
141.324
20
-97.0353
11
141.325
21
-97.05
0
LINE
8
BLACK
6
CONTINUOUS
10
141.325
20
-97.05
11
141.325
21
-97.0537
0
LINE
8
BLACK
6
CONTINUOUS
10
141.325
20
-97.0537
11
141.325
21
-101.546
0
LINE
8
BLACK
6
CONTINUOUS
10
141.325
20
-101.546
11
141.325
21
-101.55
0
LINE
8
BLACK
6
CONTINUOUS
10
141.325
20
-101.55
11
141.324
21
-101.565
0
LINE
8
BLACK
6
CONTINUOUS
10
141.324
20
-101.565
11
141.32
21
-101.579
0
LINE
8
BLACK
6
CONTINUOUS
10
141.32
20
-101.579
11
141.313
21
-101.592
0
LINE
8
BLACK
6
CONTINUOUS
10
141.313
20
-101.592
11
141.303
21
-101.603
0
LINE
8
BLACK
6
CONTINUOUS
10
141.303
20
-101.603
11
141.292
21
-101.613
0
LINE
8
BLACK
6
CONTINUOUS
10
141.292
20
-101.613
11
141.279
21
-101.62
0
LINE
8
BLACK
6
CONTINUOUS
10
141.279
20
-101.62
11
141.265
21
-101.624
0
LINE
8
BLACK
6
CONTINUOUS
10
141.265
20
-101.624
11
141.254
21
-101.625
0
LINE
8
BLACK
6
CONTINUOUS
10
141.254
20
-101.625
11
141.25
21
-101.625
0
LINE
8
BLACK
6
CONTINUOUS
10
141.25
20
-101.625
11
141.246
21
-101.625
0
LINE
8
BLACK
6
CONTINUOUS
10
141.246
20
-101.625
11
137.754
21
-101.625
0
LINE
8
BLACK
6
CONTINUOUS
10
137.754
20
-101.625
11
137.75
21
-101.625
0
LINE
8
BLACK
6
CONTINUOUS
10
137.75
20
-101.625
11
137.735
21
-101.624
0
LINE
8
BLACK
6
CONTINUOUS
10
137.735
20
-101.624
11
137.721
21
-101.62
0
LINE
8
BLACK
6
CONTINUOUS
10
137.721
20
-101.62
11
137.708
21
-101.613
0
LINE
8
BLACK
6
CONTINUOUS
10
137.708
20
-101.613
11
137.697
21
-101.603
0
LINE
8
BLACK
6
CONTINUOUS
10
137.697
20
-101.603
11
137.687
21
-101.592
0
LINE
8
BLACK
6
CONTINUOUS
10
137.687
20
-101.592
11
137.68
21
-101.579
0
LINE
8
BLACK
6
CONTINUOUS
10
137.68
20
-101.579
11
137.676
21
-101.565
0
LINE
8
BLACK
6
CONTINUOUS
10
137.676
20
-101.565
11
137.675
21
-101.55
0
LINE
8
BLACK
6
CONTINUOUS
10
137.675
20
-101.55
11
137.675
21
-101.546
0
LINE
8
BLACK
6
CONTINUOUS
10
137.675
20
-101.546
11
137.675
21
-97.0537
0
LINE
8
BLACK
6
CONTINUOUS
10
137.675
20
-97.0537
11
137.675
21
-97.05
0
LINE
8
BLACK
6
CONTINUOUS
10
137.675
20
-97.05
11
137.676
21
-97.0353
0
LINE
8
BLACK
6
CONTINUOUS
10
137.676
20
-97.0353
11
137.68
21
-97.0212
0
LINE
8
BLACK
6
CONTINUOUS
10
137.68
20
-97.0212
11
137.687
21
-97.0081
0
LINE
8
BLACK
6
CONTINUOUS
10
137.687
20
-97.0081
11
137.697
21
-96.9967
0
LINE
8
BLACK
6
CONTINUOUS
10
137.697
20
-96.9967
11
137.708
21
-96.9873
0
LINE
8
BLACK
6
CONTINUOUS
10
137.708
20
-96.9873
11
137.721
21
-96.9804
0
LINE
8
BLACK
6
CONTINUOUS
10
137.721
20
-96.9804
11
137.735
21
-96.9761
0
LINE
8
BLACK
6
CONTINUOUS
10
137.735
20
-96.9761
11
137.746
21
-96.975
0
LINE
8
BLACK
6
CONTINUOUS
10
137.746
20
-96.975
11
137.75
21
-96.9746
0
LINE
8
BLACK
6
CONTINUOUS
10
137.75
20
-96.9746
11
137.754
21
-96.975
0
LINE
8
BLACK
6
CONTINUOUS
10
137.754
20
-96.975
11
141.246
21
-96.975
0
LINE
8
BLACK
6
CONTINUOUS
10
141.246
20
-96.975
11
141.25
21
-96.9746
0
LINE
8
BLACK
6
CONTINUOUS
10
141.25
20
-96.9746
11
141.254
21
-96.975
0
LINE
8
BLACK
6
CONTINUOUS
10
137.825
20
-97.125
11
137.825
21
-101.475
0
LINE
8
BLACK
6
CONTINUOUS
10
137.825
20
-101.475
11
141.175
21
-101.475
0
LINE
8
BLACK
6
CONTINUOUS
10
141.175
20
-101.475
11
141.175
21
-97.125
0
LINE
8
BLACK
6
CONTINUOUS
10
141.175
20
-97.125
11
137.825
21
-97.125
0
LINE
8
BLACK
6
CONTINUOUS
10
179.354
20
-96.975
11
179.365
21
-96.9761
0
LINE
8
BLACK
6
CONTINUOUS
10
179.365
20
-96.9761
11
179.379
21
-96.9804
0
LINE
8
BLACK
6
CONTINUOUS
10
179.379
20
-96.9804
11
179.392
21
-96.9873
0
LINE
8
BLACK
6
CONTINUOUS
10
179.392
20
-96.9873
11
179.403
21
-96.9967
0
LINE
8
BLACK
6
CONTINUOUS
10
179.403
20
-96.9967
11
179.413
21
-97.0081
0
LINE
8
BLACK
6
CONTINUOUS
10
179.413
20
-97.0081
11
179.42
21
-97.0212
0
LINE
8
BLACK
6
CONTINUOUS
10
179.42
20
-97.0212
11
179.424
21
-97.0353
0
LINE
8
BLACK
6
CONTINUOUS
10
179.424
20
-97.0353
11
179.425
21
-97.05
0
LINE
8
BLACK
6
CONTINUOUS
10
179.425
20
-97.05
11
179.425
21
-97.0537
0
LINE
8
BLACK
6
CONTINUOUS
10
179.425
20
-97.0537
11
179.425
21
-101.546
0
LINE
8
BLACK
6
CONTINUOUS
10
179.425
20
-101.546
11
179.425
21
-101.55
0
LINE
8
BLACK
6
CONTINUOUS
10
179.425
20
-101.55
11
179.424
21
-101.565
0
LINE
8
BLACK
6
CONTINUOUS
10
179.424
20
-101.565
11
179.42
21
-101.579
0
LINE
8
BLACK
6
CONTINUOUS
10
179.42
20
-101.579
11
179.413
21
-101.592
0
LINE
8
BLACK
6
CONTINUOUS
10
179.413
20
-101.592
11
179.403
21
-101.603
0
LINE
8
BLACK
6
CONTINUOUS
10
179.403
20
-101.603
11
179.392
21
-101.613
0
LINE
8
BLACK
6
CONTINUOUS
10
179.392
20
-101.613
11
179.379
21
-101.62
0
LINE
8
BLACK
6
CONTINUOUS
10
179.379
20
-101.62
11
179.365
21
-101.624
0
LINE
8
BLACK
6
CONTINUOUS
10
179.365
20
-101.624
11
179.354
21
-101.625
0
LINE
8
BLACK
6
CONTINUOUS
10
179.354
20
-101.625
11
179.35
21
-101.625
0
LINE
8
BLACK
6
CONTINUOUS
10
179.35
20
-101.625
11
179.346
21
-101.625
0
LINE
8
BLACK
6
CONTINUOUS
10
179.346
20
-101.625
11
175.854
21
-101.625
0
LINE
8
BLACK
6
CONTINUOUS
10
175.854
20
-101.625
11
175.85
21
-101.625
0
LINE
8
BLACK
6
CONTINUOUS
10
175.85
20
-101.625
11
175.835
21
-101.624
0
LINE
8
BLACK
6
CONTINUOUS
10
175.835
20
-101.624
11
175.821
21
-101.62
0
LINE
8
BLACK
6
CONTINUOUS
10
175.821
20
-101.62
11
175.808
21
-101.613
0
LINE
8
BLACK
6
CONTINUOUS
10
175.808
20
-101.613
11
175.797
21
-101.603
0
LINE
8
BLACK
6
CONTINUOUS
10
175.797
20
-101.603
11
175.787
21
-101.592
0
LINE
8
BLACK
6
CONTINUOUS
10
175.787
20
-101.592
11
175.78
21
-101.579
0
LINE
8
BLACK
6
CONTINUOUS
10
175.78
20
-101.579
11
175.776
21
-101.565
0
LINE
8
BLACK
6
CONTINUOUS
10
175.776
20
-101.565
11
175.775
21
-101.55
0
LINE
8
BLACK
6
CONTINUOUS
10
175.775
20
-101.55
11
175.775
21
-101.546
0
LINE
8
BLACK
6
CONTINUOUS
10
175.775
20
-101.546
11
175.775
21
-97.0537
0
LINE
8
BLACK
6
CONTINUOUS
10
175.775
20
-97.0537
11
175.775
21
-97.05
0
LINE
8
BLACK
6
CONTINUOUS
10
175.775
20
-97.05
11
175.776
21
-97.0353
0
LINE
8
BLACK
6
CONTINUOUS
10
175.776
20
-97.0353
11
175.78
21
-97.0212
0
LINE
8
BLACK
6
CONTINUOUS
10
175.78
20
-97.0212
11
175.787
21
-97.0081
0
LINE
8
BLACK
6
CONTINUOUS
10
175.787
20
-97.0081
11
175.797
21
-96.9967
0
LINE
8
BLACK
6
CONTINUOUS
10
175.797
20
-96.9967
11
175.808
21
-96.9873
0
LINE
8
BLACK
6
CONTINUOUS
10
175.808
20
-96.9873
11
175.821
21
-96.9804
0
LINE
8
BLACK
6
CONTINUOUS
10
175.821
20
-96.9804
11
175.835
21
-96.9761
0
LINE
8
BLACK
6
CONTINUOUS
10
175.835
20
-96.9761
11
175.846
21
-96.975
0
LINE
8
BLACK
6
CONTINUOUS
10
175.846
20
-96.975
11
175.85
21
-96.9746
0
LINE
8
BLACK
6
CONTINUOUS
10
175.85
20
-96.9746
11
175.854
21
-96.975
0
LINE
8
BLACK
6
CONTINUOUS
10
175.854
20
-96.975
11
179.346
21
-96.975
0
LINE
8
BLACK
6
CONTINUOUS
10
179.346
20
-96.975
11
179.35
21
-96.9746
0
LINE
8
BLACK
6
CONTINUOUS
10
179.35
20
-96.9746
11
179.354
21
-96.975
0
LINE
8
BLACK
6
CONTINUOUS
10
175.925
20
-97.125
11
175.925
21
-101.475
0
LINE
8
BLACK
6
CONTINUOUS
10
175.925
20
-101.475
11
179.275
21
-101.475
0
LINE
8
BLACK
6
CONTINUOUS
10
179.275
20
-101.475
11
179.275
21
-97.125
0
LINE
8
BLACK
6
CONTINUOUS
10
179.275
20
-97.125
11
175.925
21
-97.125
0
LINE
8
BLACK
6
CONTINUOUS
10
160.354
20
-94.3558
11
160.365
21
-94.3569
0
LINE
8
BLACK
6
CONTINUOUS
10
160.365
20
-94.3569
11
160.379
21
-94.3612
0
LINE
8
BLACK
6
CONTINUOUS
10
160.379
20
-94.3612
11
160.392
21
-94.3681
0
LINE
8
BLACK
6
CONTINUOUS
10
160.392
20
-94.3681
11
160.403
21
-94.3775
0
LINE
8
BLACK
6
CONTINUOUS
10
160.403
20
-94.3775
11
160.413
21
-94.3889
0
LINE
8
BLACK
6
CONTINUOUS
10
160.413
20
-94.3889
11
160.42
21
-94.402
0
LINE
8
BLACK
6
CONTINUOUS
10
160.42
20
-94.402
11
160.424
21
-94.4161
0
LINE
8
BLACK
6
CONTINUOUS
10
160.424
20
-94.4161
11
160.425
21
-94.4308
0
LINE
8
BLACK
6
CONTINUOUS
10
160.425
20
-94.4308
11
160.425
21
-94.4345
0
LINE
8
BLACK
6
CONTINUOUS
10
160.425
20
-94.4345
11
160.425
21
-98.9271
0
LINE
8
BLACK
6
CONTINUOUS
10
160.425
20
-98.9271
11
160.425
21
-98.9308
0
LINE
8
BLACK
6
CONTINUOUS
10
160.425
20
-98.9308
11
160.424
21
-98.9455
0
LINE
8
BLACK
6
CONTINUOUS
10
160.424
20
-98.9455
11
160.42
21
-98.9596
0
LINE
8
BLACK
6
CONTINUOUS
10
160.42
20
-98.9596
11
160.413
21
-98.9727
0
LINE
8
BLACK
6
CONTINUOUS
10
160.413
20
-98.9727
11
160.403
21
-98.9841
0
LINE
8
BLACK
6
CONTINUOUS
10
160.403
20
-98.9841
11
160.392
21
-98.9935
0
LINE
8
BLACK
6
CONTINUOUS
10
160.392
20
-98.9935
11
160.379
21
-99.0004
0
LINE
8
BLACK
6
CONTINUOUS
10
160.379
20
-99.0004
11
160.365
21
-99.0047
0
LINE
8
BLACK
6
CONTINUOUS
10
160.365
20
-99.0047
11
160.354
21
-99.0058
0
LINE
8
BLACK
6
CONTINUOUS
10
160.354
20
-99.0058
11
160.35
21
-99.0062
0
LINE
8
BLACK
6
CONTINUOUS
10
160.35
20
-99.0062
11
160.346
21
-99.0058
0
LINE
8
BLACK
6
CONTINUOUS
10
160.346
20
-99.0058
11
156.854
21
-99.0058
0
LINE
8
BLACK
6
CONTINUOUS
10
156.854
20
-99.0058
11
156.85
21
-99.0062
0
LINE
8
BLACK
6
CONTINUOUS
10
156.85
20
-99.0062
11
156.835
21
-99.0047
0
LINE
8
BLACK
6
CONTINUOUS
10
156.835
20
-99.0047
11
156.821
21
-99.0004
0
LINE
8
BLACK
6
CONTINUOUS
10
156.821
20
-99.0004
11
156.808
21
-98.9935
0
LINE
8
BLACK
6
CONTINUOUS
10
156.808
20
-98.9935
11
156.797
21
-98.9841
0
LINE
8
BLACK
6
CONTINUOUS
10
156.797
20
-98.9841
11
156.787
21
-98.9727
0
LINE
8
BLACK
6
CONTINUOUS
10
156.787
20
-98.9727
11
156.78
21
-98.9596
0
LINE
8
BLACK
6
CONTINUOUS
10
156.78
20
-98.9596
11
156.776
21
-98.9455
0
LINE
8
BLACK
6
CONTINUOUS
10
156.776
20
-98.9455
11
156.775
21
-98.9308
0
LINE
8
BLACK
6
CONTINUOUS
10
156.775
20
-98.9308
11
156.775
21
-98.9271
0
LINE
8
BLACK
6
CONTINUOUS
10
156.775
20
-98.9271
11
156.775
21
-94.4345
0
LINE
8
BLACK
6
CONTINUOUS
10
156.775
20
-94.4345
11
156.775
21
-94.4308
0
LINE
8
BLACK
6
CONTINUOUS
10
156.775
20
-94.4308
11
156.776
21
-94.4161
0
LINE
8
BLACK
6
CONTINUOUS
10
156.776
20
-94.4161
11
156.78
21
-94.402
0
LINE
8
BLACK
6
CONTINUOUS
10
156.78
20
-94.402
11
156.787
21
-94.3889
0
LINE
8
BLACK
6
CONTINUOUS
10
156.787
20
-94.3889
11
156.797
21
-94.3775
0
LINE
8
BLACK
6
CONTINUOUS
10
156.797
20
-94.3775
11
156.808
21
-94.3681
0
LINE
8
BLACK
6
CONTINUOUS
10
156.808
20
-94.3681
11
156.821
21
-94.3612
0
LINE
8
BLACK
6
CONTINUOUS
10
156.821
20
-94.3612
11
156.835
21
-94.3569
0
LINE
8
BLACK
6
CONTINUOUS
10
156.835
20
-94.3569
11
156.846
21
-94.3558
0
LINE
8
BLACK
6
CONTINUOUS
10
156.846
20
-94.3558
11
156.85
21
-94.3554
0
LINE
8
BLACK
6
CONTINUOUS
10
156.85
20
-94.3554
11
156.854
21
-94.3558
0
LINE
8
BLACK
6
CONTINUOUS
10
156.854
20
-94.3558
11
160.346
21
-94.3558
0
LINE
8
BLACK
6
CONTINUOUS
10
160.346
20
-94.3558
11
160.35
21
-94.3554
0
LINE
8
BLACK
6
CONTINUOUS
10
160.35
20
-94.3554
11
160.354
21
-94.3558
0
LINE
8
BLACK
6
CONTINUOUS
10
156.925
20
-94.5058
11
156.925
21
-98.8558
0
LINE
8
BLACK
6
CONTINUOUS
10
156.925
20
-98.8558
11
160.275
21
-98.8558
0
LINE
8
BLACK
6
CONTINUOUS
10
160.275
20
-98.8558
11
160.275
21
-94.5058
0
LINE
8
BLACK
6
CONTINUOUS
10
160.275
20
-94.5058
11
156.925
21
-94.5058
0
LINE
8
BLACK
6
CONTINUOUS
10
217.454
20
-82.7145
11
217.465
21
-82.7156
0
LINE
8
BLACK
6
CONTINUOUS
10
217.465
20
-82.7156
11
217.479
21
-82.7199
0
LINE
8
BLACK
6
CONTINUOUS
10
217.479
20
-82.7199
11
217.492
21
-82.7268
0
LINE
8
BLACK
6
CONTINUOUS
10
217.492
20
-82.7268
11
217.503
21
-82.7362
0
LINE
8
BLACK
6
CONTINUOUS
10
217.503
20
-82.7362
11
217.513
21
-82.7476
0
LINE
8
BLACK
6
CONTINUOUS
10
217.513
20
-82.7476
11
217.52
21
-82.7607
0
LINE
8
BLACK
6
CONTINUOUS
10
217.52
20
-82.7607
11
217.524
21
-82.7748
0
LINE
8
BLACK
6
CONTINUOUS
10
217.524
20
-82.7748
11
217.525
21
-82.7895
0
LINE
8
BLACK
6
CONTINUOUS
10
217.525
20
-82.7895
11
217.525
21
-82.7932
0
LINE
8
BLACK
6
CONTINUOUS
10
217.525
20
-82.7932
11
217.525
21
-87.2858
0
LINE
8
BLACK
6
CONTINUOUS
10
217.525
20
-87.2858
11
217.525
21
-87.2895
0
LINE
8
BLACK
6
CONTINUOUS
10
217.525
20
-87.2895
11
217.524
21
-87.3042
0
LINE
8
BLACK
6
CONTINUOUS
10
217.524
20
-87.3042
11
217.52
21
-87.3183
0
LINE
8
BLACK
6
CONTINUOUS
10
217.52
20
-87.3183
11
217.513
21
-87.3314
0
LINE
8
BLACK
6
CONTINUOUS
10
217.513
20
-87.3314
11
217.503
21
-87.3428
0
LINE
8
BLACK
6
CONTINUOUS
10
217.503
20
-87.3428
11
217.492
21
-87.3522
0
LINE
8
BLACK
6
CONTINUOUS
10
217.492
20
-87.3522
11
217.479
21
-87.3591
0
LINE
8
BLACK
6
CONTINUOUS
10
217.479
20
-87.3591
11
217.465
21
-87.3634
0
LINE
8
BLACK
6
CONTINUOUS
10
217.465
20
-87.3634
11
217.454
21
-87.3645
0
LINE
8
BLACK
6
CONTINUOUS
10
217.454
20
-87.3645
11
217.45
21
-87.3649
0
LINE
8
BLACK
6
CONTINUOUS
10
217.45
20
-87.3649
11
217.446
21
-87.3645
0
LINE
8
BLACK
6
CONTINUOUS
10
217.446
20
-87.3645
11
213.954
21
-87.3645
0
LINE
8
BLACK
6
CONTINUOUS
10
213.954
20
-87.3645
11
213.95
21
-87.3649
0
LINE
8
BLACK
6
CONTINUOUS
10
213.95
20
-87.3649
11
213.935
21
-87.3634
0
LINE
8
BLACK
6
CONTINUOUS
10
213.935
20
-87.3634
11
213.921
21
-87.3591
0
LINE
8
BLACK
6
CONTINUOUS
10
213.921
20
-87.3591
11
213.908
21
-87.3522
0
LINE
8
BLACK
6
CONTINUOUS
10
213.908
20
-87.3522
11
213.897
21
-87.3428
0
LINE
8
BLACK
6
CONTINUOUS
10
213.897
20
-87.3428
11
213.887
21
-87.3314
0
LINE
8
BLACK
6
CONTINUOUS
10
213.887
20
-87.3314
11
213.88
21
-87.3183
0
LINE
8
BLACK
6
CONTINUOUS
10
213.88
20
-87.3183
11
213.876
21
-87.3042
0
LINE
8
BLACK
6
CONTINUOUS
10
213.876
20
-87.3042
11
213.875
21
-87.2895
0
LINE
8
BLACK
6
CONTINUOUS
10
213.875
20
-87.2895
11
213.875
21
-87.2858
0
LINE
8
BLACK
6
CONTINUOUS
10
213.875
20
-87.2858
11
213.875
21
-82.7932
0
LINE
8
BLACK
6
CONTINUOUS
10
213.875
20
-82.7932
11
213.875
21
-82.7895
0
LINE
8
BLACK
6
CONTINUOUS
10
213.875
20
-82.7895
11
213.876
21
-82.7748
0
LINE
8
BLACK
6
CONTINUOUS
10
213.876
20
-82.7748
11
213.88
21
-82.7607
0
LINE
8
BLACK
6
CONTINUOUS
10
213.88
20
-82.7607
11
213.887
21
-82.7476
0
LINE
8
BLACK
6
CONTINUOUS
10
213.887
20
-82.7476
11
213.897
21
-82.7362
0
LINE
8
BLACK
6
CONTINUOUS
10
213.897
20
-82.7362
11
213.908
21
-82.7268
0
LINE
8
BLACK
6
CONTINUOUS
10
213.908
20
-82.7268
11
213.921
21
-82.7199
0
LINE
8
BLACK
6
CONTINUOUS
10
213.921
20
-82.7199
11
213.935
21
-82.7156
0
LINE
8
BLACK
6
CONTINUOUS
10
213.935
20
-82.7156
11
213.946
21
-82.7145
0
LINE
8
BLACK
6
CONTINUOUS
10
213.946
20
-82.7145
11
213.95
21
-82.7141
0
LINE
8
BLACK
6
CONTINUOUS
10
213.95
20
-82.7141
11
213.954
21
-82.7145
0
LINE
8
BLACK
6
CONTINUOUS
10
213.954
20
-82.7145
11
217.446
21
-82.7145
0
LINE
8
BLACK
6
CONTINUOUS
10
217.446
20
-82.7145
11
217.45
21
-82.7141
0
LINE
8
BLACK
6
CONTINUOUS
10
217.45
20
-82.7141
11
217.454
21
-82.7145
0
LINE
8
BLACK
6
CONTINUOUS
10
214.025
20
-82.8645
11
214.025
21
-87.2145
0
LINE
8
BLACK
6
CONTINUOUS
10
214.025
20
-87.2145
11
217.375
21
-87.2145
0
LINE
8
BLACK
6
CONTINUOUS
10
217.375
20
-87.2145
11
217.375
21
-82.8645
0
LINE
8
BLACK
6
CONTINUOUS
10
217.375
20
-82.8645
11
214.025
21
-82.8645
0
LINE
8
BLACK
6
CONTINUOUS
10
198.454
20
-82.675
11
198.465
21
-82.6761
0
LINE
8
BLACK
6
CONTINUOUS
10
198.465
20
-82.6761
11
198.479
21
-82.6804
0
LINE
8
BLACK
6
CONTINUOUS
10
198.479
20
-82.6804
11
198.492
21
-82.6873
0
LINE
8
BLACK
6
CONTINUOUS
10
198.492
20
-82.6873
11
198.503
21
-82.6967
0
LINE
8
BLACK
6
CONTINUOUS
10
198.503
20
-82.6967
11
198.513
21
-82.7081
0
LINE
8
BLACK
6
CONTINUOUS
10
198.513
20
-82.7081
11
198.52
21
-82.7212
0
LINE
8
BLACK
6
CONTINUOUS
10
198.52
20
-82.7212
11
198.524
21
-82.7353
0
LINE
8
BLACK
6
CONTINUOUS
10
198.524
20
-82.7353
11
198.525
21
-82.75
0
LINE
8
BLACK
6
CONTINUOUS
10
198.525
20
-82.75
11
198.525
21
-82.7537
0
LINE
8
BLACK
6
CONTINUOUS
10
198.525
20
-82.7537
11
198.525
21
-87.2463
0
LINE
8
BLACK
6
CONTINUOUS
10
198.525
20
-87.2463
11
198.525
21
-87.25
0
LINE
8
BLACK
6
CONTINUOUS
10
198.525
20
-87.25
11
198.524
21
-87.2647
0
LINE
8
BLACK
6
CONTINUOUS
10
198.524
20
-87.2647
11
198.52
21
-87.2788
0
LINE
8
BLACK
6
CONTINUOUS
10
198.52
20
-87.2788
11
198.513
21
-87.2919
0
LINE
8
BLACK
6
CONTINUOUS
10
198.513
20
-87.2919
11
198.503
21
-87.3033
0
LINE
8
BLACK
6
CONTINUOUS
10
198.503
20
-87.3033
11
198.492
21
-87.3127
0
LINE
8
BLACK
6
CONTINUOUS
10
198.492
20
-87.3127
11
198.479
21
-87.3196
0
LINE
8
BLACK
6
CONTINUOUS
10
198.479
20
-87.3196
11
198.465
21
-87.3239
0
LINE
8
BLACK
6
CONTINUOUS
10
198.465
20
-87.3239
11
198.454
21
-87.325
0
LINE
8
BLACK
6
CONTINUOUS
10
198.454
20
-87.325
11
198.45
21
-87.3254
0
LINE
8
BLACK
6
CONTINUOUS
10
198.45
20
-87.3254
11
198.446
21
-87.325
0
LINE
8
BLACK
6
CONTINUOUS
10
198.446
20
-87.325
11
194.954
21
-87.325
0
LINE
8
BLACK
6
CONTINUOUS
10
194.954
20
-87.325
11
194.95
21
-87.3254
0
LINE
8
BLACK
6
CONTINUOUS
10
194.95
20
-87.3254
11
194.935
21
-87.3239
0
LINE
8
BLACK
6
CONTINUOUS
10
194.935
20
-87.3239
11
194.921
21
-87.3196
0
LINE
8
BLACK
6
CONTINUOUS
10
194.921
20
-87.3196
11
194.908
21
-87.3127
0
LINE
8
BLACK
6
CONTINUOUS
10
194.908
20
-87.3127
11
194.897
21
-87.3033
0
LINE
8
BLACK
6
CONTINUOUS
10
194.897
20
-87.3033
11
194.887
21
-87.2919
0
LINE
8
BLACK
6
CONTINUOUS
10
194.887
20
-87.2919
11
194.88
21
-87.2788
0
LINE
8
BLACK
6
CONTINUOUS
10
194.88
20
-87.2788
11
194.876
21
-87.2647
0
LINE
8
BLACK
6
CONTINUOUS
10
194.876
20
-87.2647
11
194.875
21
-87.25
0
LINE
8
BLACK
6
CONTINUOUS
10
194.875
20
-87.25
11
194.875
21
-87.2463
0
LINE
8
BLACK
6
CONTINUOUS
10
194.875
20
-87.2463
11
194.875
21
-82.7537
0
LINE
8
BLACK
6
CONTINUOUS
10
194.875
20
-82.7537
11
194.875
21
-82.75
0
LINE
8
BLACK
6
CONTINUOUS
10
194.875
20
-82.75
11
194.876
21
-82.7353
0
LINE
8
BLACK
6
CONTINUOUS
10
194.876
20
-82.7353
11
194.88
21
-82.7212
0
LINE
8
BLACK
6
CONTINUOUS
10
194.88
20
-82.7212
11
194.887
21
-82.7081
0
LINE
8
BLACK
6
CONTINUOUS
10
194.887
20
-82.7081
11
194.897
21
-82.6967
0
LINE
8
BLACK
6
CONTINUOUS
10
194.897
20
-82.6967
11
194.908
21
-82.6873
0
LINE
8
BLACK
6
CONTINUOUS
10
194.908
20
-82.6873
11
194.921
21
-82.6804
0
LINE
8
BLACK
6
CONTINUOUS
10
194.921
20
-82.6804
11
194.935
21
-82.6761
0
LINE
8
BLACK
6
CONTINUOUS
10
194.935
20
-82.6761
11
194.946
21
-82.675
0
LINE
8
BLACK
6
CONTINUOUS
10
194.946
20
-82.675
11
194.95
21
-82.6746
0
LINE
8
BLACK
6
CONTINUOUS
10
194.95
20
-82.6746
11
194.954
21
-82.675
0
LINE
8
BLACK
6
CONTINUOUS
10
194.954
20
-82.675
11
198.446
21
-82.675
0
LINE
8
BLACK
6
CONTINUOUS
10
198.446
20
-82.675
11
198.45
21
-82.6746
0
LINE
8
BLACK
6
CONTINUOUS
10
198.45
20
-82.6746
11
198.454
21
-82.675
0
LINE
8
BLACK
6
CONTINUOUS
10
195.025
20
-82.825
11
195.025
21
-87.175
0
LINE
8
BLACK
6
CONTINUOUS
10
195.025
20
-87.175
11
198.375
21
-87.175
0
LINE
8
BLACK
6
CONTINUOUS
10
198.375
20
-87.175
11
198.375
21
-82.825
0
LINE
8
BLACK
6
CONTINUOUS
10
198.375
20
-82.825
11
195.025
21
-82.825
0
LINE
8
BLACK
6
CONTINUOUS
10
122.254
20
-80.275
11
122.265
21
-80.2761
0
LINE
8
BLACK
6
CONTINUOUS
10
122.265
20
-80.2761
11
122.279
21
-80.2804
0
LINE
8
BLACK
6
CONTINUOUS
10
122.279
20
-80.2804
11
122.292
21
-80.2873
0
LINE
8
BLACK
6
CONTINUOUS
10
122.292
20
-80.2873
11
122.303
21
-80.2967
0
LINE
8
BLACK
6
CONTINUOUS
10
122.303
20
-80.2967
11
122.313
21
-80.3081
0
LINE
8
BLACK
6
CONTINUOUS
10
122.313
20
-80.3081
11
122.32
21
-80.3212
0
LINE
8
BLACK
6
CONTINUOUS
10
122.32
20
-80.3212
11
122.324
21
-80.3353
0
LINE
8
BLACK
6
CONTINUOUS
10
122.324
20
-80.3353
11
122.325
21
-80.35
0
LINE
8
BLACK
6
CONTINUOUS
10
122.325
20
-80.35
11
122.325
21
-80.3537
0
LINE
8
BLACK
6
CONTINUOUS
10
122.325
20
-80.3537
11
122.325
21
-84.8463
0
LINE
8
BLACK
6
CONTINUOUS
10
122.325
20
-84.8463
11
122.325
21
-84.85
0
LINE
8
BLACK
6
CONTINUOUS
10
122.325
20
-84.85
11
122.324
21
-84.8647
0
LINE
8
BLACK
6
CONTINUOUS
10
122.324
20
-84.8647
11
122.32
21
-84.8788
0
LINE
8
BLACK
6
CONTINUOUS
10
122.32
20
-84.8788
11
122.313
21
-84.8919
0
LINE
8
BLACK
6
CONTINUOUS
10
122.313
20
-84.8919
11
122.303
21
-84.9033
0
LINE
8
BLACK
6
CONTINUOUS
10
122.303
20
-84.9033
11
122.292
21
-84.9127
0
LINE
8
BLACK
6
CONTINUOUS
10
122.292
20
-84.9127
11
122.279
21
-84.9196
0
LINE
8
BLACK
6
CONTINUOUS
10
122.279
20
-84.9196
11
122.265
21
-84.9239
0
LINE
8
BLACK
6
CONTINUOUS
10
122.265
20
-84.9239
11
122.254
21
-84.925
0
LINE
8
BLACK
6
CONTINUOUS
10
122.254
20
-84.925
11
122.25
21
-84.9254
0
LINE
8
BLACK
6
CONTINUOUS
10
122.25
20
-84.9254
11
122.246
21
-84.925
0
LINE
8
BLACK
6
CONTINUOUS
10
122.246
20
-84.925
11
118.754
21
-84.925
0
LINE
8
BLACK
6
CONTINUOUS
10
118.754
20
-84.925
11
118.75
21
-84.9254
0
LINE
8
BLACK
6
CONTINUOUS
10
118.75
20
-84.9254
11
118.735
21
-84.9239
0
LINE
8
BLACK
6
CONTINUOUS
10
118.735
20
-84.9239
11
118.721
21
-84.9196
0
LINE
8
BLACK
6
CONTINUOUS
10
118.721
20
-84.9196
11
118.708
21
-84.9127
0
LINE
8
BLACK
6
CONTINUOUS
10
118.708
20
-84.9127
11
118.697
21
-84.9033
0
LINE
8
BLACK
6
CONTINUOUS
10
118.697
20
-84.9033
11
118.687
21
-84.8919
0
LINE
8
BLACK
6
CONTINUOUS
10
118.687
20
-84.8919
11
118.68
21
-84.8788
0
LINE
8
BLACK
6
CONTINUOUS
10
118.68
20
-84.8788
11
118.676
21
-84.8647
0
LINE
8
BLACK
6
CONTINUOUS
10
118.676
20
-84.8647
11
118.675
21
-84.85
0
LINE
8
BLACK
6
CONTINUOUS
10
118.675
20
-84.85
11
118.675
21
-84.8463
0
LINE
8
BLACK
6
CONTINUOUS
10
118.675
20
-84.8463
11
118.675
21
-80.3537
0
LINE
8
BLACK
6
CONTINUOUS
10
118.675
20
-80.3537
11
118.675
21
-80.35
0
LINE
8
BLACK
6
CONTINUOUS
10
118.675
20
-80.35
11
118.676
21
-80.3353
0
LINE
8
BLACK
6
CONTINUOUS
10
118.676
20
-80.3353
11
118.68
21
-80.3212
0
LINE
8
BLACK
6
CONTINUOUS
10
118.68
20
-80.3212
11
118.687
21
-80.3081
0
LINE
8
BLACK
6
CONTINUOUS
10
118.687
20
-80.3081
11
118.697
21
-80.2967
0
LINE
8
BLACK
6
CONTINUOUS
10
118.697
20
-80.2967
11
118.708
21
-80.2873
0
LINE
8
BLACK
6
CONTINUOUS
10
118.708
20
-80.2873
11
118.721
21
-80.2804
0
LINE
8
BLACK
6
CONTINUOUS
10
118.721
20
-80.2804
11
118.735
21
-80.2761
0
LINE
8
BLACK
6
CONTINUOUS
10
118.735
20
-80.2761
11
118.746
21
-80.275
0
LINE
8
BLACK
6
CONTINUOUS
10
118.746
20
-80.275
11
118.75
21
-80.2746
0
LINE
8
BLACK
6
CONTINUOUS
10
118.75
20
-80.2746
11
118.754
21
-80.275
0
LINE
8
BLACK
6
CONTINUOUS
10
118.754
20
-80.275
11
122.246
21
-80.275
0
LINE
8
BLACK
6
CONTINUOUS
10
122.246
20
-80.275
11
122.25
21
-80.2746
0
LINE
8
BLACK
6
CONTINUOUS
10
122.25
20
-80.2746
11
122.254
21
-80.275
0
LINE
8
BLACK
6
CONTINUOUS
10
118.825
20
-80.425
11
118.825
21
-84.775
0
LINE
8
BLACK
6
CONTINUOUS
10
118.825
20
-84.775
11
122.175
21
-84.775
0
LINE
8
BLACK
6
CONTINUOUS
10
122.175
20
-84.775
11
122.175
21
-80.425
0
LINE
8
BLACK
6
CONTINUOUS
10
122.175
20
-80.425
11
118.825
21
-80.425
0
LINE
8
BLACK
6
CONTINUOUS
10
141.254
20
-77.875
11
141.265
21
-77.8761
0
LINE
8
BLACK
6
CONTINUOUS
10
141.265
20
-77.8761
11
141.279
21
-77.8804
0
LINE
8
BLACK
6
CONTINUOUS
10
141.279
20
-77.8804
11
141.292
21
-77.8873
0
LINE
8
BLACK
6
CONTINUOUS
10
141.292
20
-77.8873
11
141.303
21
-77.8967
0
LINE
8
BLACK
6
CONTINUOUS
10
141.303
20
-77.8967
11
141.313
21
-77.9081
0
LINE
8
BLACK
6
CONTINUOUS
10
141.313
20
-77.9081
11
141.32
21
-77.9212
0
LINE
8
BLACK
6
CONTINUOUS
10
141.32
20
-77.9212
11
141.324
21
-77.9353
0
LINE
8
BLACK
6
CONTINUOUS
10
141.324
20
-77.9353
11
141.325
21
-77.95
0
LINE
8
BLACK
6
CONTINUOUS
10
141.325
20
-77.95
11
141.325
21
-77.9537
0
LINE
8
BLACK
6
CONTINUOUS
10
141.325
20
-77.9537
11
141.325
21
-82.4463
0
LINE
8
BLACK
6
CONTINUOUS
10
141.325
20
-82.4463
11
141.325
21
-82.45
0
LINE
8
BLACK
6
CONTINUOUS
10
141.325
20
-82.45
11
141.324
21
-82.4647
0
LINE
8
BLACK
6
CONTINUOUS
10
141.324
20
-82.4647
11
141.32
21
-82.4788
0
LINE
8
BLACK
6
CONTINUOUS
10
141.32
20
-82.4788
11
141.313
21
-82.4919
0
LINE
8
BLACK
6
CONTINUOUS
10
141.313
20
-82.4919
11
141.303
21
-82.5033
0
LINE
8
BLACK
6
CONTINUOUS
10
141.303
20
-82.5033
11
141.292
21
-82.5127
0
LINE
8
BLACK
6
CONTINUOUS
10
141.292
20
-82.5127
11
141.279
21
-82.5196
0
LINE
8
BLACK
6
CONTINUOUS
10
141.279
20
-82.5196
11
141.265
21
-82.5239
0
LINE
8
BLACK
6
CONTINUOUS
10
141.265
20
-82.5239
11
141.254
21
-82.525
0
LINE
8
BLACK
6
CONTINUOUS
10
141.254
20
-82.525
11
141.25
21
-82.5254
0
LINE
8
BLACK
6
CONTINUOUS
10
141.25
20
-82.5254
11
141.246
21
-82.525
0
LINE
8
BLACK
6
CONTINUOUS
10
141.246
20
-82.525
11
137.754
21
-82.525
0
LINE
8
BLACK
6
CONTINUOUS
10
137.754
20
-82.525
11
137.75
21
-82.5254
0
LINE
8
BLACK
6
CONTINUOUS
10
137.75
20
-82.5254
11
137.735
21
-82.5239
0
LINE
8
BLACK
6
CONTINUOUS
10
137.735
20
-82.5239
11
137.721
21
-82.5196
0
LINE
8
BLACK
6
CONTINUOUS
10
137.721
20
-82.5196
11
137.708
21
-82.5127
0
LINE
8
BLACK
6
CONTINUOUS
10
137.708
20
-82.5127
11
137.697
21
-82.5033
0
LINE
8
BLACK
6
CONTINUOUS
10
137.697
20
-82.5033
11
137.687
21
-82.4919
0
LINE
8
BLACK
6
CONTINUOUS
10
137.687
20
-82.4919
11
137.68
21
-82.4788
0
LINE
8
BLACK
6
CONTINUOUS
10
137.68
20
-82.4788
11
137.676
21
-82.4647
0
LINE
8
BLACK
6
CONTINUOUS
10
137.676
20
-82.4647
11
137.675
21
-82.45
0
LINE
8
BLACK
6
CONTINUOUS
10
137.675
20
-82.45
11
137.675
21
-82.4463
0
LINE
8
BLACK
6
CONTINUOUS
10
137.675
20
-82.4463
11
137.675
21
-77.9537
0
LINE
8
BLACK
6
CONTINUOUS
10
137.675
20
-77.9537
11
137.675
21
-77.95
0
LINE
8
BLACK
6
CONTINUOUS
10
137.675
20
-77.95
11
137.676
21
-77.9353
0
LINE
8
BLACK
6
CONTINUOUS
10
137.676
20
-77.9353
11
137.68
21
-77.9212
0
LINE
8
BLACK
6
CONTINUOUS
10
137.68
20
-77.9212
11
137.687
21
-77.9081
0
LINE
8
BLACK
6
CONTINUOUS
10
137.687
20
-77.9081
11
137.697
21
-77.8967
0
LINE
8
BLACK
6
CONTINUOUS
10
137.697
20
-77.8967
11
137.708
21
-77.8873
0
LINE
8
BLACK
6
CONTINUOUS
10
137.708
20
-77.8873
11
137.721
21
-77.8804
0
LINE
8
BLACK
6
CONTINUOUS
10
137.721
20
-77.8804
11
137.735
21
-77.8761
0
LINE
8
BLACK
6
CONTINUOUS
10
137.735
20
-77.8761
11
137.746
21
-77.875
0
LINE
8
BLACK
6
CONTINUOUS
10
137.746
20
-77.875
11
137.75
21
-77.8746
0
LINE
8
BLACK
6
CONTINUOUS
10
137.75
20
-77.8746
11
137.754
21
-77.875
0
LINE
8
BLACK
6
CONTINUOUS
10
137.754
20
-77.875
11
141.246
21
-77.875
0
LINE
8
BLACK
6
CONTINUOUS
10
141.246
20
-77.875
11
141.25
21
-77.8746
0
LINE
8
BLACK
6
CONTINUOUS
10
141.25
20
-77.8746
11
141.254
21
-77.875
0
LINE
8
BLACK
6
CONTINUOUS
10
137.825
20
-78.025
11
137.825
21
-82.375
0
LINE
8
BLACK
6
CONTINUOUS
10
137.825
20
-82.375
11
141.175
21
-82.375
0
LINE
8
BLACK
6
CONTINUOUS
10
141.175
20
-82.375
11
141.175
21
-78.025
0
LINE
8
BLACK
6
CONTINUOUS
10
141.175
20
-78.025
11
137.825
21
-78.025
0
LINE
8
BLACK
6
CONTINUOUS
10
179.354
20
-77.875
11
179.365
21
-77.8761
0
LINE
8
BLACK
6
CONTINUOUS
10
179.365
20
-77.8761
11
179.379
21
-77.8804
0
LINE
8
BLACK
6
CONTINUOUS
10
179.379
20
-77.8804
11
179.392
21
-77.8873
0
LINE
8
BLACK
6
CONTINUOUS
10
179.392
20
-77.8873
11
179.403
21
-77.8967
0
LINE
8
BLACK
6
CONTINUOUS
10
179.403
20
-77.8967
11
179.413
21
-77.9081
0
LINE
8
BLACK
6
CONTINUOUS
10
179.413
20
-77.9081
11
179.42
21
-77.9212
0
LINE
8
BLACK
6
CONTINUOUS
10
179.42
20
-77.9212
11
179.424
21
-77.9353
0
LINE
8
BLACK
6
CONTINUOUS
10
179.424
20
-77.9353
11
179.425
21
-77.95
0
LINE
8
BLACK
6
CONTINUOUS
10
179.425
20
-77.95
11
179.425
21
-77.9537
0
LINE
8
BLACK
6
CONTINUOUS
10
179.425
20
-77.9537
11
179.425
21
-82.4463
0
LINE
8
BLACK
6
CONTINUOUS
10
179.425
20
-82.4463
11
179.425
21
-82.45
0
LINE
8
BLACK
6
CONTINUOUS
10
179.425
20
-82.45
11
179.424
21
-82.4647
0
LINE
8
BLACK
6
CONTINUOUS
10
179.424
20
-82.4647
11
179.42
21
-82.4788
0
LINE
8
BLACK
6
CONTINUOUS
10
179.42
20
-82.4788
11
179.413
21
-82.4919
0
LINE
8
BLACK
6
CONTINUOUS
10
179.413
20
-82.4919
11
179.403
21
-82.5033
0
LINE
8
BLACK
6
CONTINUOUS
10
179.403
20
-82.5033
11
179.392
21
-82.5127
0
LINE
8
BLACK
6
CONTINUOUS
10
179.392
20
-82.5127
11
179.379
21
-82.5196
0
LINE
8
BLACK
6
CONTINUOUS
10
179.379
20
-82.5196
11
179.365
21
-82.5239
0
LINE
8
BLACK
6
CONTINUOUS
10
179.365
20
-82.5239
11
179.354
21
-82.525
0
LINE
8
BLACK
6
CONTINUOUS
10
179.354
20
-82.525
11
179.35
21
-82.5254
0
LINE
8
BLACK
6
CONTINUOUS
10
179.35
20
-82.5254
11
179.346
21
-82.525
0
LINE
8
BLACK
6
CONTINUOUS
10
179.346
20
-82.525
11
175.854
21
-82.525
0
LINE
8
BLACK
6
CONTINUOUS
10
175.854
20
-82.525
11
175.85
21
-82.5254
0
LINE
8
BLACK
6
CONTINUOUS
10
175.85
20
-82.5254
11
175.835
21
-82.5239
0
LINE
8
BLACK
6
CONTINUOUS
10
175.835
20
-82.5239
11
175.821
21
-82.5196
0
LINE
8
BLACK
6
CONTINUOUS
10
175.821
20
-82.5196
11
175.808
21
-82.5127
0
LINE
8
BLACK
6
CONTINUOUS
10
175.808
20
-82.5127
11
175.797
21
-82.5033
0
LINE
8
BLACK
6
CONTINUOUS
10
175.797
20
-82.5033
11
175.787
21
-82.4919
0
LINE
8
BLACK
6
CONTINUOUS
10
175.787
20
-82.4919
11
175.78
21
-82.4788
0
LINE
8
BLACK
6
CONTINUOUS
10
175.78
20
-82.4788
11
175.776
21
-82.4647
0
LINE
8
BLACK
6
CONTINUOUS
10
175.776
20
-82.4647
11
175.775
21
-82.45
0
LINE
8
BLACK
6
CONTINUOUS
10
175.775
20
-82.45
11
175.775
21
-82.4463
0
LINE
8
BLACK
6
CONTINUOUS
10
175.775
20
-82.4463
11
175.775
21
-77.9537
0
LINE
8
BLACK
6
CONTINUOUS
10
175.775
20
-77.9537
11
175.775
21
-77.95
0
LINE
8
BLACK
6
CONTINUOUS
10
175.775
20
-77.95
11
175.776
21
-77.9353
0
LINE
8
BLACK
6
CONTINUOUS
10
175.776
20
-77.9353
11
175.78
21
-77.9212
0
LINE
8
BLACK
6
CONTINUOUS
10
175.78
20
-77.9212
11
175.787
21
-77.9081
0
LINE
8
BLACK
6
CONTINUOUS
10
175.787
20
-77.9081
11
175.797
21
-77.8967
0
LINE
8
BLACK
6
CONTINUOUS
10
175.797
20
-77.8967
11
175.808
21
-77.8873
0
LINE
8
BLACK
6
CONTINUOUS
10
175.808
20
-77.8873
11
175.821
21
-77.8804
0
LINE
8
BLACK
6
CONTINUOUS
10
175.821
20
-77.8804
11
175.835
21
-77.8761
0
LINE
8
BLACK
6
CONTINUOUS
10
175.835
20
-77.8761
11
175.846
21
-77.875
0
LINE
8
BLACK
6
CONTINUOUS
10
175.846
20
-77.875
11
175.85
21
-77.8746
0
LINE
8
BLACK
6
CONTINUOUS
10
175.85
20
-77.8746
11
175.854
21
-77.875
0
LINE
8
BLACK
6
CONTINUOUS
10
175.854
20
-77.875
11
179.346
21
-77.875
0
LINE
8
BLACK
6
CONTINUOUS
10
179.346
20
-77.875
11
179.35
21
-77.8746
0
LINE
8
BLACK
6
CONTINUOUS
10
179.35
20
-77.8746
11
179.354
21
-77.875
0
LINE
8
BLACK
6
CONTINUOUS
10
175.925
20
-78.025
11
175.925
21
-82.375
0
LINE
8
BLACK
6
CONTINUOUS
10
175.925
20
-82.375
11
179.275
21
-82.375
0
LINE
8
BLACK
6
CONTINUOUS
10
179.275
20
-82.375
11
179.275
21
-78.025
0
LINE
8
BLACK
6
CONTINUOUS
10
179.275
20
-78.025
11
175.925
21
-78.025
0
LINE
8
BLACK
6
CONTINUOUS
10
160.354
20
-75.3812
11
160.365
21
-75.3823
0
LINE
8
BLACK
6
CONTINUOUS
10
160.365
20
-75.3823
11
160.379
21
-75.3866
0
LINE
8
BLACK
6
CONTINUOUS
10
160.379
20
-75.3866
11
160.392
21
-75.3935
0
LINE
8
BLACK
6
CONTINUOUS
10
160.392
20
-75.3935
11
160.403
21
-75.4029
0
LINE
8
BLACK
6
CONTINUOUS
10
160.403
20
-75.4029
11
160.413
21
-75.4143
0
LINE
8
BLACK
6
CONTINUOUS
10
160.413
20
-75.4143
11
160.42
21
-75.4274
0
LINE
8
BLACK
6
CONTINUOUS
10
160.42
20
-75.4274
11
160.424
21
-75.4415
0
LINE
8
BLACK
6
CONTINUOUS
10
160.424
20
-75.4415
11
160.425
21
-75.4562
0
LINE
8
BLACK
6
CONTINUOUS
10
160.425
20
-75.4562
11
160.425
21
-75.4599
0
LINE
8
BLACK
6
CONTINUOUS
10
160.425
20
-75.4599
11
160.425
21
-79.9525
0
LINE
8
BLACK
6
CONTINUOUS
10
160.425
20
-79.9525
11
160.425
21
-79.9562
0
LINE
8
BLACK
6
CONTINUOUS
10
160.425
20
-79.9562
11
160.424
21
-79.9709
0
LINE
8
BLACK
6
CONTINUOUS
10
160.424
20
-79.9709
11
160.42
21
-79.985
0
LINE
8
BLACK
6
CONTINUOUS
10
160.42
20
-79.985
11
160.413
21
-79.9981
0
LINE
8
BLACK
6
CONTINUOUS
10
160.413
20
-79.9981
11
160.403
21
-80.0095
0
LINE
8
BLACK
6
CONTINUOUS
10
160.403
20
-80.0095
11
160.392
21
-80.0189
0
LINE
8
BLACK
6
CONTINUOUS
10
160.392
20
-80.0189
11
160.379
21
-80.0258
0
LINE
8
BLACK
6
CONTINUOUS
10
160.379
20
-80.0258
11
160.365
21
-80.0301
0
LINE
8
BLACK
6
CONTINUOUS
10
160.365
20
-80.0301
11
160.354
21
-80.0312
0
LINE
8
BLACK
6
CONTINUOUS
10
160.354
20
-80.0312
11
160.35
21
-80.0316
0
LINE
8
BLACK
6
CONTINUOUS
10
160.35
20
-80.0316
11
160.346
21
-80.0312
0
LINE
8
BLACK
6
CONTINUOUS
10
160.346
20
-80.0312
11
156.854
21
-80.0312
0
LINE
8
BLACK
6
CONTINUOUS
10
156.854
20
-80.0312
11
156.85
21
-80.0316
0
LINE
8
BLACK
6
CONTINUOUS
10
156.85
20
-80.0316
11
156.835
21
-80.0301
0
LINE
8
BLACK
6
CONTINUOUS
10
156.835
20
-80.0301
11
156.821
21
-80.0258
0
LINE
8
BLACK
6
CONTINUOUS
10
156.821
20
-80.0258
11
156.808
21
-80.0189
0
LINE
8
BLACK
6
CONTINUOUS
10
156.808
20
-80.0189
11
156.797
21
-80.0095
0
LINE
8
BLACK
6
CONTINUOUS
10
156.797
20
-80.0095
11
156.787
21
-79.9981
0
LINE
8
BLACK
6
CONTINUOUS
10
156.787
20
-79.9981
11
156.78
21
-79.985
0
LINE
8
BLACK
6
CONTINUOUS
10
156.78
20
-79.985
11
156.776
21
-79.9709
0
LINE
8
BLACK
6
CONTINUOUS
10
156.776
20
-79.9709
11
156.775
21
-79.9562
0
LINE
8
BLACK
6
CONTINUOUS
10
156.775
20
-79.9562
11
156.775
21
-79.9525
0
LINE
8
BLACK
6
CONTINUOUS
10
156.775
20
-79.9525
11
156.775
21
-75.4599
0
LINE
8
BLACK
6
CONTINUOUS
10
156.775
20
-75.4599
11
156.775
21
-75.4562
0
LINE
8
BLACK
6
CONTINUOUS
10
156.775
20
-75.4562
11
156.776
21
-75.4415
0
LINE
8
BLACK
6
CONTINUOUS
10
156.776
20
-75.4415
11
156.78
21
-75.4274
0
LINE
8
BLACK
6
CONTINUOUS
10
156.78
20
-75.4274
11
156.787
21
-75.4143
0
LINE
8
BLACK
6
CONTINUOUS
10
156.787
20
-75.4143
11
156.797
21
-75.4029
0
LINE
8
BLACK
6
CONTINUOUS
10
156.797
20
-75.4029
11
156.808
21
-75.3935
0
LINE
8
BLACK
6
CONTINUOUS
10
156.808
20
-75.3935
11
156.821
21
-75.3866
0
LINE
8
BLACK
6
CONTINUOUS
10
156.821
20
-75.3866
11
156.835
21
-75.3823
0
LINE
8
BLACK
6
CONTINUOUS
10
156.835
20
-75.3823
11
156.846
21
-75.3812
0
LINE
8
BLACK
6
CONTINUOUS
10
156.846
20
-75.3812
11
156.85
21
-75.3808
0
LINE
8
BLACK
6
CONTINUOUS
10
156.85
20
-75.3808
11
156.854
21
-75.3812
0
LINE
8
BLACK
6
CONTINUOUS
10
156.854
20
-75.3812
11
160.346
21
-75.3812
0
LINE
8
BLACK
6
CONTINUOUS
10
160.346
20
-75.3812
11
160.35
21
-75.3808
0
LINE
8
BLACK
6
CONTINUOUS
10
160.35
20
-75.3808
11
160.354
21
-75.3812
0
LINE
8
BLACK
6
CONTINUOUS
10
156.925
20
-75.5312
11
156.925
21
-79.8812
0
LINE
8
BLACK
6
CONTINUOUS
10
156.925
20
-79.8812
11
160.275
21
-79.8812
0
LINE
8
BLACK
6
CONTINUOUS
10
160.275
20
-79.8812
11
160.275
21
-75.5312
0
LINE
8
BLACK
6
CONTINUOUS
10
160.275
20
-75.5312
11
156.925
21
-75.5312
0
LINE
8
BLACK
6
CONTINUOUS
10
198.454
20
-63.475
11
198.465
21
-63.4761
0
LINE
8
BLACK
6
CONTINUOUS
10
198.465
20
-63.4761
11
198.479
21
-63.4804
0
LINE
8
BLACK
6
CONTINUOUS
10
198.479
20
-63.4804
11
198.492
21
-63.4873
0
LINE
8
BLACK
6
CONTINUOUS
10
198.492
20
-63.4873
11
198.503
21
-63.4967
0
LINE
8
BLACK
6
CONTINUOUS
10
198.503
20
-63.4967
11
198.513
21
-63.5081
0
LINE
8
BLACK
6
CONTINUOUS
10
198.513
20
-63.5081
11
198.52
21
-63.5212
0
LINE
8
BLACK
6
CONTINUOUS
10
198.52
20
-63.5212
11
198.524
21
-63.5353
0
LINE
8
BLACK
6
CONTINUOUS
10
198.524
20
-63.5353
11
198.525
21
-63.55
0
LINE
8
BLACK
6
CONTINUOUS
10
198.525
20
-63.55
11
198.525
21
-63.5537
0
LINE
8
BLACK
6
CONTINUOUS
10
198.525
20
-63.5537
11
198.525
21
-68.0463
0
LINE
8
BLACK
6
CONTINUOUS
10
198.525
20
-68.0463
11
198.525
21
-68.05
0
LINE
8
BLACK
6
CONTINUOUS
10
198.525
20
-68.05
11
198.524
21
-68.0647
0
LINE
8
BLACK
6
CONTINUOUS
10
198.524
20
-68.0647
11
198.52
21
-68.0788
0
LINE
8
BLACK
6
CONTINUOUS
10
198.52
20
-68.0788
11
198.513
21
-68.0919
0
LINE
8
BLACK
6
CONTINUOUS
10
198.513
20
-68.0919
11
198.503
21
-68.1033
0
LINE
8
BLACK
6
CONTINUOUS
10
198.503
20
-68.1033
11
198.492
21
-68.1127
0
LINE
8
BLACK
6
CONTINUOUS
10
198.492
20
-68.1127
11
198.479
21
-68.1196
0
LINE
8
BLACK
6
CONTINUOUS
10
198.479
20
-68.1196
11
198.465
21
-68.1239
0
LINE
8
BLACK
6
CONTINUOUS
10
198.465
20
-68.1239
11
198.454
21
-68.125
0
LINE
8
BLACK
6
CONTINUOUS
10
198.454
20
-68.125
11
198.45
21
-68.1254
0
LINE
8
BLACK
6
CONTINUOUS
10
198.45
20
-68.1254
11
198.446
21
-68.125
0
LINE
8
BLACK
6
CONTINUOUS
10
198.446
20
-68.125
11
194.954
21
-68.125
0
LINE
8
BLACK
6
CONTINUOUS
10
194.954
20
-68.125
11
194.95
21
-68.1254
0
LINE
8
BLACK
6
CONTINUOUS
10
194.95
20
-68.1254
11
194.935
21
-68.1239
0
LINE
8
BLACK
6
CONTINUOUS
10
194.935
20
-68.1239
11
194.921
21
-68.1196
0
LINE
8
BLACK
6
CONTINUOUS
10
194.921
20
-68.1196
11
194.908
21
-68.1127
0
LINE
8
BLACK
6
CONTINUOUS
10
194.908
20
-68.1127
11
194.897
21
-68.1033
0
LINE
8
BLACK
6
CONTINUOUS
10
194.897
20
-68.1033
11
194.895
21
-68.1014
0
LINE
8
BLACK
6
CONTINUOUS
10
194.895
20
-68.1014
11
194.887
21
-68.0919
0
LINE
8
BLACK
6
CONTINUOUS
10
194.887
20
-68.0919
11
194.88
21
-68.0788
0
LINE
8
BLACK
6
CONTINUOUS
10
194.88
20
-68.0788
11
194.876
21
-68.0647
0
LINE
8
BLACK
6
CONTINUOUS
10
194.876
20
-68.0647
11
194.875
21
-68.05
0
LINE
8
BLACK
6
CONTINUOUS
10
194.875
20
-68.05
11
194.875
21
-68.0463
0
LINE
8
BLACK
6
CONTINUOUS
10
194.875
20
-68.0463
11
194.875
21
-63.5537
0
LINE
8
BLACK
6
CONTINUOUS
10
194.875
20
-63.5537
11
194.875
21
-63.55
0
LINE
8
BLACK
6
CONTINUOUS
10
194.875
20
-63.55
11
194.876
21
-63.5353
0
LINE
8
BLACK
6
CONTINUOUS
10
194.876
20
-63.5353
11
194.88
21
-63.5212
0
LINE
8
BLACK
6
CONTINUOUS
10
194.88
20
-63.5212
11
194.887
21
-63.5081
0
LINE
8
BLACK
6
CONTINUOUS
10
194.887
20
-63.5081
11
194.897
21
-63.4967
0
LINE
8
BLACK
6
CONTINUOUS
10
194.897
20
-63.4967
11
194.908
21
-63.4873
0
LINE
8
BLACK
6
CONTINUOUS
10
194.908
20
-63.4873
11
194.921
21
-63.4804
0
LINE
8
BLACK
6
CONTINUOUS
10
194.921
20
-63.4804
11
194.935
21
-63.4761
0
LINE
8
BLACK
6
CONTINUOUS
10
194.935
20
-63.4761
11
194.946
21
-63.475
0
LINE
8
BLACK
6
CONTINUOUS
10
194.946
20
-63.475
11
194.95
21
-63.4746
0
LINE
8
BLACK
6
CONTINUOUS
10
194.95
20
-63.4746
11
194.954
21
-63.475
0
LINE
8
BLACK
6
CONTINUOUS
10
194.954
20
-63.475
11
198.446
21
-63.475
0
LINE
8
BLACK
6
CONTINUOUS
10
198.446
20
-63.475
11
198.45
21
-63.4746
0
LINE
8
BLACK
6
CONTINUOUS
10
198.45
20
-63.4746
11
198.454
21
-63.475
0
LINE
8
BLACK
6
CONTINUOUS
10
195.025
20
-63.625
11
195.025
21
-67.975
0
LINE
8
BLACK
6
CONTINUOUS
10
195.025
20
-67.975
11
198.375
21
-67.975
0
LINE
8
BLACK
6
CONTINUOUS
10
198.375
20
-67.975
11
198.375
21
-63.625
0
LINE
8
BLACK
6
CONTINUOUS
10
198.375
20
-63.625
11
195.025
21
-63.625
0
LINE
8
BLACK
6
CONTINUOUS
10
217.454
20
-63.451
11
217.465
21
-63.4521
0
LINE
8
BLACK
6
CONTINUOUS
10
217.465
20
-63.4521
11
217.479
21
-63.4564
0
LINE
8
BLACK
6
CONTINUOUS
10
217.479
20
-63.4564
11
217.492
21
-63.4633
0
LINE
8
BLACK
6
CONTINUOUS
10
217.492
20
-63.4633
11
217.503
21
-63.4727
0
LINE
8
BLACK
6
CONTINUOUS
10
217.503
20
-63.4727
11
217.513
21
-63.4841
0
LINE
8
BLACK
6
CONTINUOUS
10
217.513
20
-63.4841
11
217.52
21
-63.4972
0
LINE
8
BLACK
6
CONTINUOUS
10
217.52
20
-63.4972
11
217.524
21
-63.5113
0
LINE
8
BLACK
6
CONTINUOUS
10
217.524
20
-63.5113
11
217.525
21
-63.526
0
LINE
8
BLACK
6
CONTINUOUS
10
217.525
20
-63.526
11
217.525
21
-63.5297
0
LINE
8
BLACK
6
CONTINUOUS
10
217.525
20
-63.5297
11
217.525
21
-68.0223
0
LINE
8
BLACK
6
CONTINUOUS
10
217.525
20
-68.0223
11
217.525
21
-68.026
0
LINE
8
BLACK
6
CONTINUOUS
10
217.525
20
-68.026
11
217.524
21
-68.0407
0
LINE
8
BLACK
6
CONTINUOUS
10
217.524
20
-68.0407
11
217.52
21
-68.0548
0
LINE
8
BLACK
6
CONTINUOUS
10
217.52
20
-68.0548
11
217.513
21
-68.0679
0
LINE
8
BLACK
6
CONTINUOUS
10
217.513
20
-68.0679
11
217.503
21
-68.0793
0
LINE
8
BLACK
6
CONTINUOUS
10
217.503
20
-68.0793
11
217.492
21
-68.0887
0
LINE
8
BLACK
6
CONTINUOUS
10
217.492
20
-68.0887
11
217.479
21
-68.0956
0
LINE
8
BLACK
6
CONTINUOUS
10
217.479
20
-68.0956
11
217.465
21
-68.0999
0
LINE
8
BLACK
6
CONTINUOUS
10
217.465
20
-68.0999
11
217.454
21
-68.101
0
LINE
8
BLACK
6
CONTINUOUS
10
217.454
20
-68.101
11
217.45
21
-68.1014
0
LINE
8
BLACK
6
CONTINUOUS
10
217.45
20
-68.1014
11
217.446
21
-68.101
0
LINE
8
BLACK
6
CONTINUOUS
10
217.446
20
-68.101
11
213.954
21
-68.101
0
LINE
8
BLACK
6
CONTINUOUS
10
213.954
20
-68.101
11
213.95
21
-68.1014
0
LINE
8
BLACK
6
CONTINUOUS
10
213.95
20
-68.1014
11
213.935
21
-68.0999
0
LINE
8
BLACK
6
CONTINUOUS
10
213.935
20
-68.0999
11
213.921
21
-68.0956
0
LINE
8
BLACK
6
CONTINUOUS
10
213.921
20
-68.0956
11
213.908
21
-68.0887
0
LINE
8
BLACK
6
CONTINUOUS
10
213.908
20
-68.0887
11
213.897
21
-68.0793
0
LINE
8
BLACK
6
CONTINUOUS
10
213.897
20
-68.0793
11
213.896
21
-68.0788
0
LINE
8
BLACK
6
CONTINUOUS
10
213.896
20
-68.0788
11
213.887
21
-68.0679
0
LINE
8
BLACK
6
CONTINUOUS
10
213.887
20
-68.0679
11
213.88
21
-68.0548
0
LINE
8
BLACK
6
CONTINUOUS
10
213.88
20
-68.0548
11
213.876
21
-68.0407
0
LINE
8
BLACK
6
CONTINUOUS
10
213.876
20
-68.0407
11
213.875
21
-68.026
0
LINE
8
BLACK
6
CONTINUOUS
10
213.875
20
-68.026
11
213.875
21
-68.0223
0
LINE
8
BLACK
6
CONTINUOUS
10
213.875
20
-68.0223
11
213.875
21
-63.5297
0
LINE
8
BLACK
6
CONTINUOUS
10
213.875
20
-63.5297
11
213.875
21
-63.526
0
LINE
8
BLACK
6
CONTINUOUS
10
213.875
20
-63.526
11
213.876
21
-63.5113
0
LINE
8
BLACK
6
CONTINUOUS
10
213.876
20
-63.5113
11
213.88
21
-63.4972
0
LINE
8
BLACK
6
CONTINUOUS
10
213.88
20
-63.4972
11
213.887
21
-63.4841
0
LINE
8
BLACK
6
CONTINUOUS
10
213.887
20
-63.4841
11
213.897
21
-63.4727
0
LINE
8
BLACK
6
CONTINUOUS
10
213.897
20
-63.4727
11
213.908
21
-63.4633
0
LINE
8
BLACK
6
CONTINUOUS
10
213.908
20
-63.4633
11
213.921
21
-63.4564
0
LINE
8
BLACK
6
CONTINUOUS
10
213.921
20
-63.4564
11
213.935
21
-63.4521
0
LINE
8
BLACK
6
CONTINUOUS
10
213.935
20
-63.4521
11
213.946
21
-63.451
0
LINE
8
BLACK
6
CONTINUOUS
10
213.946
20
-63.451
11
213.95
21
-63.4506
0
LINE
8
BLACK
6
CONTINUOUS
10
213.95
20
-63.4506
11
213.954
21
-63.451
0
LINE
8
BLACK
6
CONTINUOUS
10
213.954
20
-63.451
11
217.446
21
-63.451
0
LINE
8
BLACK
6
CONTINUOUS
10
217.446
20
-63.451
11
217.45
21
-63.4506
0
LINE
8
BLACK
6
CONTINUOUS
10
217.45
20
-63.4506
11
217.454
21
-63.451
0
LINE
8
BLACK
6
CONTINUOUS
10
214.025
20
-63.601
11
214.025
21
-67.951
0
LINE
8
BLACK
6
CONTINUOUS
10
214.025
20
-67.951
11
217.375
21
-67.951
0
LINE
8
BLACK
6
CONTINUOUS
10
217.375
20
-67.951
11
217.375
21
-63.601
0
LINE
8
BLACK
6
CONTINUOUS
10
217.375
20
-63.601
11
214.025
21
-63.601
0
LINE
8
BLACK
6
CONTINUOUS
10
122.254
20
-61.275
11
122.265
21
-61.2761
0
LINE
8
BLACK
6
CONTINUOUS
10
122.265
20
-61.2761
11
122.279
21
-61.2804
0
LINE
8
BLACK
6
CONTINUOUS
10
122.279
20
-61.2804
11
122.292
21
-61.2873
0
LINE
8
BLACK
6
CONTINUOUS
10
122.292
20
-61.2873
11
122.303
21
-61.2967
0
LINE
8
BLACK
6
CONTINUOUS
10
122.303
20
-61.2967
11
122.313
21
-61.3081
0
LINE
8
BLACK
6
CONTINUOUS
10
122.313
20
-61.3081
11
122.32
21
-61.3212
0
LINE
8
BLACK
6
CONTINUOUS
10
122.32
20
-61.3212
11
122.324
21
-61.3353
0
LINE
8
BLACK
6
CONTINUOUS
10
122.324
20
-61.3353
11
122.325
21
-61.35
0
LINE
8
BLACK
6
CONTINUOUS
10
122.325
20
-61.35
11
122.325
21
-61.3537
0
LINE
8
BLACK
6
CONTINUOUS
10
122.325
20
-61.3537
11
122.325
21
-65.8463
0
LINE
8
BLACK
6
CONTINUOUS
10
122.325
20
-65.8463
11
122.325
21
-65.85
0
LINE
8
BLACK
6
CONTINUOUS
10
122.325
20
-65.85
11
122.324
21
-65.8647
0
LINE
8
BLACK
6
CONTINUOUS
10
122.324
20
-65.8647
11
122.32
21
-65.8788
0
LINE
8
BLACK
6
CONTINUOUS
10
122.32
20
-65.8788
11
122.313
21
-65.8919
0
LINE
8
BLACK
6
CONTINUOUS
10
122.313
20
-65.8919
11
122.303
21
-65.9033
0
LINE
8
BLACK
6
CONTINUOUS
10
122.303
20
-65.9033
11
122.292
21
-65.9127
0
LINE
8
BLACK
6
CONTINUOUS
10
122.292
20
-65.9127
11
122.279
21
-65.9196
0
LINE
8
BLACK
6
CONTINUOUS
10
122.279
20
-65.9196
11
122.265
21
-65.9239
0
LINE
8
BLACK
6
CONTINUOUS
10
122.265
20
-65.9239
11
122.254
21
-65.925
0
LINE
8
BLACK
6
CONTINUOUS
10
122.254
20
-65.925
11
122.25
21
-65.9254
0
LINE
8
BLACK
6
CONTINUOUS
10
122.25
20
-65.9254
11
122.246
21
-65.925
0
LINE
8
BLACK
6
CONTINUOUS
10
122.246
20
-65.925
11
118.754
21
-65.925
0
LINE
8
BLACK
6
CONTINUOUS
10
118.754
20
-65.925
11
118.75
21
-65.9254
0
LINE
8
BLACK
6
CONTINUOUS
10
118.75
20
-65.9254
11
118.735
21
-65.9239
0
LINE
8
BLACK
6
CONTINUOUS
10
118.735
20
-65.9239
11
118.721
21
-65.9196
0
LINE
8
BLACK
6
CONTINUOUS
10
118.721
20
-65.9196
11
118.708
21
-65.9127
0
LINE
8
BLACK
6
CONTINUOUS
10
118.708
20
-65.9127
11
118.697
21
-65.9033
0
LINE
8
BLACK
6
CONTINUOUS
10
118.697
20
-65.9033
11
118.687
21
-65.8919
0
LINE
8
BLACK
6
CONTINUOUS
10
118.687
20
-65.8919
11
118.68
21
-65.8788
0
LINE
8
BLACK
6
CONTINUOUS
10
118.68
20
-65.8788
11
118.676
21
-65.8647
0
LINE
8
BLACK
6
CONTINUOUS
10
118.676
20
-65.8647
11
118.675
21
-65.85
0
LINE
8
BLACK
6
CONTINUOUS
10
118.675
20
-65.85
11
118.675
21
-65.8463
0
LINE
8
BLACK
6
CONTINUOUS
10
118.675
20
-65.8463
11
118.675
21
-61.3537
0
LINE
8
BLACK
6
CONTINUOUS
10
118.675
20
-61.3537
11
118.675
21
-61.35
0
LINE
8
BLACK
6
CONTINUOUS
10
118.675
20
-61.35
11
118.676
21
-61.3353
0
LINE
8
BLACK
6
CONTINUOUS
10
118.676
20
-61.3353
11
118.68
21
-61.3212
0
LINE
8
BLACK
6
CONTINUOUS
10
118.68
20
-61.3212
11
118.687
21
-61.3081
0
LINE
8
BLACK
6
CONTINUOUS
10
118.687
20
-61.3081
11
118.697
21
-61.2967
0
LINE
8
BLACK
6
CONTINUOUS
10
118.697
20
-61.2967
11
118.708
21
-61.2873
0
LINE
8
BLACK
6
CONTINUOUS
10
118.708
20
-61.2873
11
118.721
21
-61.2804
0
LINE
8
BLACK
6
CONTINUOUS
10
118.721
20
-61.2804
11
118.735
21
-61.2761
0
LINE
8
BLACK
6
CONTINUOUS
10
118.735
20
-61.2761
11
118.746
21
-61.275
0
LINE
8
BLACK
6
CONTINUOUS
10
118.746
20
-61.275
11
118.75
21
-61.2746
0
LINE
8
BLACK
6
CONTINUOUS
10
118.75
20
-61.2746
11
118.754
21
-61.275
0
LINE
8
BLACK
6
CONTINUOUS
10
118.754
20
-61.275
11
122.246
21
-61.275
0
LINE
8
BLACK
6
CONTINUOUS
10
122.246
20
-61.275
11
122.25
21
-61.2746
0
LINE
8
BLACK
6
CONTINUOUS
10
122.25
20
-61.2746
11
122.254
21
-61.275
0
LINE
8
BLACK
6
CONTINUOUS
10
118.825
20
-61.425
11
118.825
21
-65.775
0
LINE
8
BLACK
6
CONTINUOUS
10
118.825
20
-65.775
11
122.175
21
-65.775
0
LINE
8
BLACK
6
CONTINUOUS
10
122.175
20
-65.775
11
122.175
21
-61.425
0
LINE
8
BLACK
6
CONTINUOUS
10
122.175
20
-61.425
11
118.825
21
-61.425
0
LINE
8
BLACK
6
CONTINUOUS
10
141.254
20
-58.875
11
141.265
21
-58.8761
0
LINE
8
BLACK
6
CONTINUOUS
10
141.265
20
-58.8761
11
141.279
21
-58.8804
0
LINE
8
BLACK
6
CONTINUOUS
10
141.279
20
-58.8804
11
141.292
21
-58.8873
0
LINE
8
BLACK
6
CONTINUOUS
10
141.292
20
-58.8873
11
141.303
21
-58.8967
0
LINE
8
BLACK
6
CONTINUOUS
10
141.303
20
-58.8967
11
141.313
21
-58.9081
0
LINE
8
BLACK
6
CONTINUOUS
10
141.313
20
-58.9081
11
141.32
21
-58.9212
0
LINE
8
BLACK
6
CONTINUOUS
10
141.32
20
-58.9212
11
141.324
21
-58.9353
0
LINE
8
BLACK
6
CONTINUOUS
10
141.324
20
-58.9353
11
141.325
21
-58.95
0
LINE
8
BLACK
6
CONTINUOUS
10
141.325
20
-58.95
11
141.325
21
-58.9537
0
LINE
8
BLACK
6
CONTINUOUS
10
141.325
20
-58.9537
11
141.325
21
-63.4463
0
LINE
8
BLACK
6
CONTINUOUS
10
141.325
20
-63.4463
11
141.325
21
-63.45
0
LINE
8
BLACK
6
CONTINUOUS
10
141.325
20
-63.45
11
141.324
21
-63.4647
0
LINE
8
BLACK
6
CONTINUOUS
10
141.324
20
-63.4647
11
141.32
21
-63.4788
0
LINE
8
BLACK
6
CONTINUOUS
10
141.32
20
-63.4788
11
141.313
21
-63.4919
0
LINE
8
BLACK
6
CONTINUOUS
10
141.313
20
-63.4919
11
141.303
21
-63.5033
0
LINE
8
BLACK
6
CONTINUOUS
10
141.303
20
-63.5033
11
141.292
21
-63.5127
0
LINE
8
BLACK
6
CONTINUOUS
10
141.292
20
-63.5127
11
141.279
21
-63.5196
0
LINE
8
BLACK
6
CONTINUOUS
10
141.279
20
-63.5196
11
141.265
21
-63.5239
0
LINE
8
BLACK
6
CONTINUOUS
10
141.265
20
-63.5239
11
141.254
21
-63.525
0
LINE
8
BLACK
6
CONTINUOUS
10
141.254
20
-63.525
11
141.25
21
-63.5254
0
LINE
8
BLACK
6
CONTINUOUS
10
141.25
20
-63.5254
11
141.246
21
-63.525
0
LINE
8
BLACK
6
CONTINUOUS
10
141.246
20
-63.525
11
137.754
21
-63.525
0
LINE
8
BLACK
6
CONTINUOUS
10
137.754
20
-63.525
11
137.75
21
-63.5254
0
LINE
8
BLACK
6
CONTINUOUS
10
137.75
20
-63.5254
11
137.735
21
-63.5239
0
LINE
8
BLACK
6
CONTINUOUS
10
137.735
20
-63.5239
11
137.721
21
-63.5196
0
LINE
8
BLACK
6
CONTINUOUS
10
137.721
20
-63.5196
11
137.708
21
-63.5127
0
LINE
8
BLACK
6
CONTINUOUS
10
137.708
20
-63.5127
11
137.697
21
-63.5033
0
LINE
8
BLACK
6
CONTINUOUS
10
137.697
20
-63.5033
11
137.692
21
-63.4972
0
LINE
8
BLACK
6
CONTINUOUS
10
137.692
20
-63.4972
11
137.687
21
-63.4919
0
LINE
8
BLACK
6
CONTINUOUS
10
137.687
20
-63.4919
11
137.68
21
-63.4788
0
LINE
8
BLACK
6
CONTINUOUS
10
137.68
20
-63.4788
11
137.676
21
-63.4647
0
LINE
8
BLACK
6
CONTINUOUS
10
137.676
20
-63.4647
11
137.675
21
-63.45
0
LINE
8
BLACK
6
CONTINUOUS
10
137.675
20
-63.45
11
137.675
21
-63.4463
0
LINE
8
BLACK
6
CONTINUOUS
10
137.675
20
-63.4463
11
137.675
21
-58.9537
0
LINE
8
BLACK
6
CONTINUOUS
10
137.675
20
-58.9537
11
137.675
21
-58.95
0
LINE
8
BLACK
6
CONTINUOUS
10
137.675
20
-58.95
11
137.676
21
-58.9353
0
LINE
8
BLACK
6
CONTINUOUS
10
137.676
20
-58.9353
11
137.68
21
-58.9212
0
LINE
8
BLACK
6
CONTINUOUS
10
137.68
20
-58.9212
11
137.687
21
-58.9081
0
LINE
8
BLACK
6
CONTINUOUS
10
137.687
20
-58.9081
11
137.697
21
-58.8967
0
LINE
8
BLACK
6
CONTINUOUS
10
137.697
20
-58.8967
11
137.708
21
-58.8873
0
LINE
8
BLACK
6
CONTINUOUS
10
137.708
20
-58.8873
11
137.721
21
-58.8804
0
LINE
8
BLACK
6
CONTINUOUS
10
137.721
20
-58.8804
11
137.735
21
-58.8761
0
LINE
8
BLACK
6
CONTINUOUS
10
137.735
20
-58.8761
11
137.746
21
-58.875
0
LINE
8
BLACK
6
CONTINUOUS
10
137.746
20
-58.875
11
137.75
21
-58.8746
0
LINE
8
BLACK
6
CONTINUOUS
10
137.75
20
-58.8746
11
137.754
21
-58.875
0
LINE
8
BLACK
6
CONTINUOUS
10
137.754
20
-58.875
11
141.246
21
-58.875
0
LINE
8
BLACK
6
CONTINUOUS
10
141.246
20
-58.875
11
141.25
21
-58.8746
0
LINE
8
BLACK
6
CONTINUOUS
10
141.25
20
-58.8746
11
141.254
21
-58.875
0
LINE
8
BLACK
6
CONTINUOUS
10
137.825
20
-59.025
11
137.825
21
-63.375
0
LINE
8
BLACK
6
CONTINUOUS
10
137.825
20
-63.375
11
141.175
21
-63.375
0
LINE
8
BLACK
6
CONTINUOUS
10
141.175
20
-63.375
11
141.175
21
-59.025
0
LINE
8
BLACK
6
CONTINUOUS
10
141.175
20
-59.025
11
137.825
21
-59.025
0
LINE
8
BLACK
6
CONTINUOUS
10
179.354
20
-58.6734
11
179.365
21
-58.6745
0
LINE
8
BLACK
6
CONTINUOUS
10
179.365
20
-58.6745
11
179.379
21
-58.6788
0
LINE
8
BLACK
6
CONTINUOUS
10
179.379
20
-58.6788
11
179.392
21
-58.6857
0
LINE
8
BLACK
6
CONTINUOUS
10
179.392
20
-58.6857
11
179.403
21
-58.6951
0
LINE
8
BLACK
6
CONTINUOUS
10
179.403
20
-58.6951
11
179.413
21
-58.7065
0
LINE
8
BLACK
6
CONTINUOUS
10
179.413
20
-58.7065
11
179.42
21
-58.7196
0
LINE
8
BLACK
6
CONTINUOUS
10
179.42
20
-58.7196
11
179.424
21
-58.7337
0
LINE
8
BLACK
6
CONTINUOUS
10
179.424
20
-58.7337
11
179.425
21
-58.7484
0
LINE
8
BLACK
6
CONTINUOUS
10
179.425
20
-58.7484
11
179.425
21
-58.7521
0
LINE
8
BLACK
6
CONTINUOUS
10
179.425
20
-58.7521
11
179.425
21
-63.2447
0
LINE
8
BLACK
6
CONTINUOUS
10
179.425
20
-63.2447
11
179.425
21
-63.2484
0
LINE
8
BLACK
6
CONTINUOUS
10
179.425
20
-63.2484
11
179.424
21
-63.2631
0
LINE
8
BLACK
6
CONTINUOUS
10
179.424
20
-63.2631
11
179.42
21
-63.2772
0
LINE
8
BLACK
6
CONTINUOUS
10
179.42
20
-63.2772
11
179.413
21
-63.2903
0
LINE
8
BLACK
6
CONTINUOUS
10
179.413
20
-63.2903
11
179.403
21
-63.3017
0
LINE
8
BLACK
6
CONTINUOUS
10
179.403
20
-63.3017
11
179.392
21
-63.3111
0
LINE
8
BLACK
6
CONTINUOUS
10
179.392
20
-63.3111
11
179.379
21
-63.318
0
LINE
8
BLACK
6
CONTINUOUS
10
179.379
20
-63.318
11
179.365
21
-63.3223
0
LINE
8
BLACK
6
CONTINUOUS
10
179.365
20
-63.3223
11
179.354
21
-63.3234
0
LINE
8
BLACK
6
CONTINUOUS
10
179.354
20
-63.3234
11
179.35
21
-63.3238
0
LINE
8
BLACK
6
CONTINUOUS
10
179.35
20
-63.3238
11
179.346
21
-63.3234
0
LINE
8
BLACK
6
CONTINUOUS
10
179.346
20
-63.3234
11
175.854
21
-63.3234
0
LINE
8
BLACK
6
CONTINUOUS
10
175.854
20
-63.3234
11
175.85
21
-63.3238
0
LINE
8
BLACK
6
CONTINUOUS
10
175.85
20
-63.3238
11
175.835
21
-63.3223
0
LINE
8
BLACK
6
CONTINUOUS
10
175.835
20
-63.3223
11
175.821
21
-63.318
0
LINE
8
BLACK
6
CONTINUOUS
10
175.821
20
-63.318
11
175.808
21
-63.3111
0
LINE
8
BLACK
6
CONTINUOUS
10
175.808
20
-63.3111
11
175.797
21
-63.3017
0
LINE
8
BLACK
6
CONTINUOUS
10
175.797
20
-63.3017
11
175.787
21
-63.2903
0
LINE
8
BLACK
6
CONTINUOUS
10
175.787
20
-63.2903
11
175.78
21
-63.2772
0
LINE
8
BLACK
6
CONTINUOUS
10
175.78
20
-63.2772
11
175.776
21
-63.2631
0
LINE
8
BLACK
6
CONTINUOUS
10
175.776
20
-63.2631
11
175.775
21
-63.2484
0
LINE
8
BLACK
6
CONTINUOUS
10
175.775
20
-63.2484
11
175.775
21
-63.2447
0
LINE
8
BLACK
6
CONTINUOUS
10
175.775
20
-63.2447
11
175.775
21
-58.7521
0
LINE
8
BLACK
6
CONTINUOUS
10
175.775
20
-58.7521
11
175.775
21
-58.7484
0
LINE
8
BLACK
6
CONTINUOUS
10
175.775
20
-58.7484
11
175.776
21
-58.7337
0
LINE
8
BLACK
6
CONTINUOUS
10
175.776
20
-58.7337
11
175.78
21
-58.7196
0
LINE
8
BLACK
6
CONTINUOUS
10
175.78
20
-58.7196
11
175.787
21
-58.7065
0
LINE
8
BLACK
6
CONTINUOUS
10
175.787
20
-58.7065
11
175.797
21
-58.6951
0
LINE
8
BLACK
6
CONTINUOUS
10
175.797
20
-58.6951
11
175.808
21
-58.6857
0
LINE
8
BLACK
6
CONTINUOUS
10
175.808
20
-58.6857
11
175.821
21
-58.6788
0
LINE
8
BLACK
6
CONTINUOUS
10
175.821
20
-58.6788
11
175.835
21
-58.6745
0
LINE
8
BLACK
6
CONTINUOUS
10
175.835
20
-58.6745
11
175.846
21
-58.6734
0
LINE
8
BLACK
6
CONTINUOUS
10
175.846
20
-58.6734
11
175.85
21
-58.673
0
LINE
8
BLACK
6
CONTINUOUS
10
175.85
20
-58.673
11
175.854
21
-58.6734
0
LINE
8
BLACK
6
CONTINUOUS
10
175.854
20
-58.6734
11
179.346
21
-58.6734
0
LINE
8
BLACK
6
CONTINUOUS
10
179.346
20
-58.6734
11
179.35
21
-58.673
0
LINE
8
BLACK
6
CONTINUOUS
10
179.35
20
-58.673
11
179.354
21
-58.6734
0
LINE
8
BLACK
6
CONTINUOUS
10
175.925
20
-58.8234
11
175.925
21
-63.1734
0
LINE
8
BLACK
6
CONTINUOUS
10
175.925
20
-63.1734
11
179.275
21
-63.1734
0
LINE
8
BLACK
6
CONTINUOUS
10
179.275
20
-63.1734
11
179.275
21
-58.8234
0
LINE
8
BLACK
6
CONTINUOUS
10
179.275
20
-58.8234
11
175.925
21
-58.8234
0
LINE
8
BLACK
6
CONTINUOUS
10
160.354
20
-56.2558
11
160.365
21
-56.2569
0
LINE
8
BLACK
6
CONTINUOUS
10
160.365
20
-56.2569
11
160.379
21
-56.2612
0
LINE
8
BLACK
6
CONTINUOUS
10
160.379
20
-56.2612
11
160.392
21
-56.2681
0
LINE
8
BLACK
6
CONTINUOUS
10
160.392
20
-56.2681
11
160.403
21
-56.2775
0
LINE
8
BLACK
6
CONTINUOUS
10
160.403
20
-56.2775
11
160.413
21
-56.2889
0
LINE
8
BLACK
6
CONTINUOUS
10
160.413
20
-56.2889
11
160.42
21
-56.302
0
LINE
8
BLACK
6
CONTINUOUS
10
160.42
20
-56.302
11
160.424
21
-56.3161
0
LINE
8
BLACK
6
CONTINUOUS
10
160.424
20
-56.3161
11
160.425
21
-56.3308
0
LINE
8
BLACK
6
CONTINUOUS
10
160.425
20
-56.3308
11
160.425
21
-56.3345
0
LINE
8
BLACK
6
CONTINUOUS
10
160.425
20
-56.3345
11
160.425
21
-60.8271
0
LINE
8
BLACK
6
CONTINUOUS
10
160.425
20
-60.8271
11
160.425
21
-60.8308
0
LINE
8
BLACK
6
CONTINUOUS
10
160.425
20
-60.8308
11
160.424
21
-60.8455
0
LINE
8
BLACK
6
CONTINUOUS
10
160.424
20
-60.8455
11
160.42
21
-60.8596
0
LINE
8
BLACK
6
CONTINUOUS
10
160.42
20
-60.8596
11
160.413
21
-60.8727
0
LINE
8
BLACK
6
CONTINUOUS
10
160.413
20
-60.8727
11
160.403
21
-60.8841
0
LINE
8
BLACK
6
CONTINUOUS
10
160.403
20
-60.8841
11
160.392
21
-60.8935
0
LINE
8
BLACK
6
CONTINUOUS
10
160.392
20
-60.8935
11
160.379
21
-60.9004
0
LINE
8
BLACK
6
CONTINUOUS
10
160.379
20
-60.9004
11
160.365
21
-60.9047
0
LINE
8
BLACK
6
CONTINUOUS
10
160.365
20
-60.9047
11
160.354
21
-60.9058
0
LINE
8
BLACK
6
CONTINUOUS
10
160.354
20
-60.9058
11
160.35
21
-60.9062
0
LINE
8
BLACK
6
CONTINUOUS
10
160.35
20
-60.9062
11
160.346
21
-60.9058
0
LINE
8
BLACK
6
CONTINUOUS
10
160.346
20
-60.9058
11
156.854
21
-60.9058
0
LINE
8
BLACK
6
CONTINUOUS
10
156.854
20
-60.9058
11
156.85
21
-60.9062
0
LINE
8
BLACK
6
CONTINUOUS
10
156.85
20
-60.9062
11
156.835
21
-60.9047
0
LINE
8
BLACK
6
CONTINUOUS
10
156.835
20
-60.9047
11
156.821
21
-60.9004
0
LINE
8
BLACK
6
CONTINUOUS
10
156.821
20
-60.9004
11
156.808
21
-60.8935
0
LINE
8
BLACK
6
CONTINUOUS
10
156.808
20
-60.8935
11
156.797
21
-60.8841
0
LINE
8
BLACK
6
CONTINUOUS
10
156.797
20
-60.8841
11
156.787
21
-60.8727
0
LINE
8
BLACK
6
CONTINUOUS
10
156.787
20
-60.8727
11
156.78
21
-60.8596
0
LINE
8
BLACK
6
CONTINUOUS
10
156.78
20
-60.8596
11
156.776
21
-60.8455
0
LINE
8
BLACK
6
CONTINUOUS
10
156.776
20
-60.8455
11
156.775
21
-60.8308
0
LINE
8
BLACK
6
CONTINUOUS
10
156.775
20
-60.8308
11
156.775
21
-60.8271
0
LINE
8
BLACK
6
CONTINUOUS
10
156.775
20
-60.8271
11
156.775
21
-56.3345
0
LINE
8
BLACK
6
CONTINUOUS
10
156.775
20
-56.3345
11
156.775
21
-56.3308
0
LINE
8
BLACK
6
CONTINUOUS
10
156.775
20
-56.3308
11
156.776
21
-56.3161
0
LINE
8
BLACK
6
CONTINUOUS
10
156.776
20
-56.3161
11
156.78
21
-56.302
0
LINE
8
BLACK
6
CONTINUOUS
10
156.78
20
-56.302
11
156.787
21
-56.2889
0
LINE
8
BLACK
6
CONTINUOUS
10
156.787
20
-56.2889
11
156.797
21
-56.2775
0
LINE
8
BLACK
6
CONTINUOUS
10
156.797
20
-56.2775
11
156.808
21
-56.2681
0
LINE
8
BLACK
6
CONTINUOUS
10
156.808
20
-56.2681
11
156.821
21
-56.2612
0
LINE
8
BLACK
6
CONTINUOUS
10
156.821
20
-56.2612
11
156.835
21
-56.2569
0
LINE
8
BLACK
6
CONTINUOUS
10
156.835
20
-56.2569
11
156.846
21
-56.2558
0
LINE
8
BLACK
6
CONTINUOUS
10
156.846
20
-56.2558
11
156.85
21
-56.2554
0
LINE
8
BLACK
6
CONTINUOUS
10
156.85
20
-56.2554
11
156.854
21
-56.2558
0
LINE
8
BLACK
6
CONTINUOUS
10
156.854
20
-56.2558
11
160.346
21
-56.2558
0
LINE
8
BLACK
6
CONTINUOUS
10
160.346
20
-56.2558
11
160.35
21
-56.2554
0
LINE
8
BLACK
6
CONTINUOUS
10
160.35
20
-56.2554
11
160.354
21
-56.2558
0
LINE
8
BLACK
6
CONTINUOUS
10
156.925
20
-56.4058
11
156.925
21
-60.7558
0
LINE
8
BLACK
6
CONTINUOUS
10
156.925
20
-60.7558
11
160.275
21
-60.7558
0
LINE
8
BLACK
6
CONTINUOUS
10
160.275
20
-60.7558
11
160.275
21
-56.4058
0
LINE
8
BLACK
6
CONTINUOUS
10
160.275
20
-56.4058
11
156.925
21
-56.4058
0
LINE
8
BLACK
6
CONTINUOUS
10
217.454
20
-44.5764
11
217.465
21
-44.5775
0
LINE
8
BLACK
6
CONTINUOUS
10
217.465
20
-44.5775
11
217.479
21
-44.5818
0
LINE
8
BLACK
6
CONTINUOUS
10
217.479
20
-44.5818
11
217.492
21
-44.5887
0
LINE
8
BLACK
6
CONTINUOUS
10
217.492
20
-44.5887
11
217.503
21
-44.5981
0
LINE
8
BLACK
6
CONTINUOUS
10
217.503
20
-44.5981
11
217.513
21
-44.6095
0
LINE
8
BLACK
6
CONTINUOUS
10
217.513
20
-44.6095
11
217.52
21
-44.6226
0
LINE
8
BLACK
6
CONTINUOUS
10
217.52
20
-44.6226
11
217.524
21
-44.6367
0
LINE
8
BLACK
6
CONTINUOUS
10
217.524
20
-44.6367
11
217.525
21
-44.6514
0
LINE
8
BLACK
6
CONTINUOUS
10
217.525
20
-44.6514
11
217.525
21
-44.6551
0
LINE
8
BLACK
6
CONTINUOUS
10
217.525
20
-44.6551
11
217.525
21
-49.1477
0
LINE
8
BLACK
6
CONTINUOUS
10
217.525
20
-49.1477
11
217.525
21
-49.1514
0
LINE
8
BLACK
6
CONTINUOUS
10
217.525
20
-49.1514
11
217.524
21
-49.1661
0
LINE
8
BLACK
6
CONTINUOUS
10
217.524
20
-49.1661
11
217.52
21
-49.1802
0
LINE
8
BLACK
6
CONTINUOUS
10
217.52
20
-49.1802
11
217.513
21
-49.1933
0
LINE
8
BLACK
6
CONTINUOUS
10
217.513
20
-49.1933
11
217.503
21
-49.2047
0
LINE
8
BLACK
6
CONTINUOUS
10
217.503
20
-49.2047
11
217.492
21
-49.2141
0
LINE
8
BLACK
6
CONTINUOUS
10
217.492
20
-49.2141
11
217.479
21
-49.221
0
LINE
8
BLACK
6
CONTINUOUS
10
217.479
20
-49.221
11
217.465
21
-49.2253
0
LINE
8
BLACK
6
CONTINUOUS
10
217.465
20
-49.2253
11
217.454
21
-49.2264
0
LINE
8
BLACK
6
CONTINUOUS
10
217.454
20
-49.2264
11
217.45
21
-49.2268
0
LINE
8
BLACK
6
CONTINUOUS
10
217.45
20
-49.2268
11
217.446
21
-49.2264
0
LINE
8
BLACK
6
CONTINUOUS
10
217.446
20
-49.2264
11
213.954
21
-49.2264
0
LINE
8
BLACK
6
CONTINUOUS
10
213.954
20
-49.2264
11
213.95
21
-49.2268
0
LINE
8
BLACK
6
CONTINUOUS
10
213.95
20
-49.2268
11
213.935
21
-49.2253
0
LINE
8
BLACK
6
CONTINUOUS
10
213.935
20
-49.2253
11
213.921
21
-49.221
0
LINE
8
BLACK
6
CONTINUOUS
10
213.921
20
-49.221
11
213.908
21
-49.2141
0
LINE
8
BLACK
6
CONTINUOUS
10
213.908
20
-49.2141
11
213.897
21
-49.2047
0
LINE
8
BLACK
6
CONTINUOUS
10
213.897
20
-49.2047
11
213.896
21
-49.2033
0
LINE
8
BLACK
6
CONTINUOUS
10
213.896
20
-49.2033
11
213.887
21
-49.1933
0
LINE
8
BLACK
6
CONTINUOUS
10
213.887
20
-49.1933
11
213.88
21
-49.1802
0
LINE
8
BLACK
6
CONTINUOUS
10
213.88
20
-49.1802
11
213.876
21
-49.1661
0
LINE
8
BLACK
6
CONTINUOUS
10
213.876
20
-49.1661
11
213.875
21
-49.1514
0
LINE
8
BLACK
6
CONTINUOUS
10
213.875
20
-49.1514
11
213.875
21
-49.1477
0
LINE
8
BLACK
6
CONTINUOUS
10
213.875
20
-49.1477
11
213.875
21
-44.6551
0
LINE
8
BLACK
6
CONTINUOUS
10
213.875
20
-44.6551
11
213.875
21
-44.6514
0
LINE
8
BLACK
6
CONTINUOUS
10
213.875
20
-44.6514
11
213.876
21
-44.6367
0
LINE
8
BLACK
6
CONTINUOUS
10
213.876
20
-44.6367
11
213.88
21
-44.6226
0
LINE
8
BLACK
6
CONTINUOUS
10
213.88
20
-44.6226
11
213.887
21
-44.6095
0
LINE
8
BLACK
6
CONTINUOUS
10
213.887
20
-44.6095
11
213.897
21
-44.5981
0
LINE
8
BLACK
6
CONTINUOUS
10
213.897
20
-44.5981
11
213.908
21
-44.5887
0
LINE
8
BLACK
6
CONTINUOUS
10
213.908
20
-44.5887
11
213.921
21
-44.5818
0
LINE
8
BLACK
6
CONTINUOUS
10
213.921
20
-44.5818
11
213.935
21
-44.5775
0
LINE
8
BLACK
6
CONTINUOUS
10
213.935
20
-44.5775
11
213.946
21
-44.5764
0
LINE
8
BLACK
6
CONTINUOUS
10
213.946
20
-44.5764
11
213.95
21
-44.576
0
LINE
8
BLACK
6
CONTINUOUS
10
213.95
20
-44.576
11
213.954
21
-44.5764
0
LINE
8
BLACK
6
CONTINUOUS
10
213.954
20
-44.5764
11
217.446
21
-44.5764
0
LINE
8
BLACK
6
CONTINUOUS
10
217.446
20
-44.5764
11
217.45
21
-44.576
0
LINE
8
BLACK
6
CONTINUOUS
10
217.45
20
-44.576
11
217.454
21
-44.5764
0
LINE
8
BLACK
6
CONTINUOUS
10
214.025
20
-44.7264
11
214.025
21
-49.0764
0
LINE
8
BLACK
6
CONTINUOUS
10
214.025
20
-49.0764
11
217.375
21
-49.0764
0
LINE
8
BLACK
6
CONTINUOUS
10
217.375
20
-49.0764
11
217.375
21
-44.7264
0
LINE
8
BLACK
6
CONTINUOUS
10
217.375
20
-44.7264
11
214.025
21
-44.7264
0
LINE
8
BLACK
6
CONTINUOUS
10
198.454
20
-44.575
11
198.465
21
-44.5761
0
LINE
8
BLACK
6
CONTINUOUS
10
198.465
20
-44.5761
11
198.479
21
-44.5804
0
LINE
8
BLACK
6
CONTINUOUS
10
198.479
20
-44.5804
11
198.492
21
-44.5873
0
LINE
8
BLACK
6
CONTINUOUS
10
198.492
20
-44.5873
11
198.503
21
-44.5967
0
LINE
8
BLACK
6
CONTINUOUS
10
198.503
20
-44.5967
11
198.513
21
-44.6081
0
LINE
8
BLACK
6
CONTINUOUS
10
198.513
20
-44.6081
11
198.52
21
-44.6212
0
LINE
8
BLACK
6
CONTINUOUS
10
198.52
20
-44.6212
11
198.524
21
-44.6353
0
LINE
8
BLACK
6
CONTINUOUS
10
198.524
20
-44.6353
11
198.525
21
-44.65
0
LINE
8
BLACK
6
CONTINUOUS
10
198.525
20
-44.65
11
198.525
21
-44.6537
0
LINE
8
BLACK
6
CONTINUOUS
10
198.525
20
-44.6537
11
198.525
21
-49.1463
0
LINE
8
BLACK
6
CONTINUOUS
10
198.525
20
-49.1463
11
198.525
21
-49.15
0
LINE
8
BLACK
6
CONTINUOUS
10
198.525
20
-49.15
11
198.524
21
-49.1647
0
LINE
8
BLACK
6
CONTINUOUS
10
198.524
20
-49.1647
11
198.52
21
-49.1788
0
LINE
8
BLACK
6
CONTINUOUS
10
198.52
20
-49.1788
11
198.513
21
-49.1919
0
LINE
8
BLACK
6
CONTINUOUS
10
198.513
20
-49.1919
11
198.503
21
-49.2033
0
LINE
8
BLACK
6
CONTINUOUS
10
198.503
20
-49.2033
11
198.492
21
-49.2127
0
LINE
8
BLACK
6
CONTINUOUS
10
198.492
20
-49.2127
11
198.479
21
-49.2196
0
LINE
8
BLACK
6
CONTINUOUS
10
198.479
20
-49.2196
11
198.465
21
-49.2239
0
LINE
8
BLACK
6
CONTINUOUS
10
198.465
20
-49.2239
11
198.454
21
-49.225
0
LINE
8
BLACK
6
CONTINUOUS
10
198.454
20
-49.225
11
198.45
21
-49.2254
0
LINE
8
BLACK
6
CONTINUOUS
10
198.45
20
-49.2254
11
198.446
21
-49.225
0
LINE
8
BLACK
6
CONTINUOUS
10
198.446
20
-49.225
11
194.954
21
-49.225
0
LINE
8
BLACK
6
CONTINUOUS
10
194.954
20
-49.225
11
194.95
21
-49.2254
0
LINE
8
BLACK
6
CONTINUOUS
10
194.95
20
-49.2254
11
194.935
21
-49.2239
0
LINE
8
BLACK
6
CONTINUOUS
10
194.935
20
-49.2239
11
194.921
21
-49.2196
0
LINE
8
BLACK
6
CONTINUOUS
10
194.921
20
-49.2196
11
194.908
21
-49.2127
0
LINE
8
BLACK
6
CONTINUOUS
10
194.908
20
-49.2127
11
194.897
21
-49.2033
0
LINE
8
BLACK
6
CONTINUOUS
10
194.897
20
-49.2033
11
194.887
21
-49.1919
0
LINE
8
BLACK
6
CONTINUOUS
10
194.887
20
-49.1919
11
194.88
21
-49.1788
0
LINE
8
BLACK
6
CONTINUOUS
10
194.88
20
-49.1788
11
194.876
21
-49.1647
0
LINE
8
BLACK
6
CONTINUOUS
10
194.876
20
-49.1647
11
194.875
21
-49.15
0
LINE
8
BLACK
6
CONTINUOUS
10
194.875
20
-49.15
11
194.875
21
-49.1463
0
LINE
8
BLACK
6
CONTINUOUS
10
194.875
20
-49.1463
11
194.875
21
-44.6537
0
LINE
8
BLACK
6
CONTINUOUS
10
194.875
20
-44.6537
11
194.875
21
-44.65
0
LINE
8
BLACK
6
CONTINUOUS
10
194.875
20
-44.65
11
194.876
21
-44.6353
0
LINE
8
BLACK
6
CONTINUOUS
10
194.876
20
-44.6353
11
194.88
21
-44.6212
0
LINE
8
BLACK
6
CONTINUOUS
10
194.88
20
-44.6212
11
194.887
21
-44.6081
0
LINE
8
BLACK
6
CONTINUOUS
10
194.887
20
-44.6081
11
194.897
21
-44.5967
0
LINE
8
BLACK
6
CONTINUOUS
10
194.897
20
-44.5967
11
194.908
21
-44.5873
0
LINE
8
BLACK
6
CONTINUOUS
10
194.908
20
-44.5873
11
194.921
21
-44.5804
0
LINE
8
BLACK
6
CONTINUOUS
10
194.921
20
-44.5804
11
194.935
21
-44.5761
0
LINE
8
BLACK
6
CONTINUOUS
10
194.935
20
-44.5761
11
194.946
21
-44.575
0
LINE
8
BLACK
6
CONTINUOUS
10
194.946
20
-44.575
11
194.95
21
-44.5746
0
LINE
8
BLACK
6
CONTINUOUS
10
194.95
20
-44.5746
11
194.954
21
-44.575
0
LINE
8
BLACK
6
CONTINUOUS
10
194.954
20
-44.575
11
198.446
21
-44.575
0
LINE
8
BLACK
6
CONTINUOUS
10
198.446
20
-44.575
11
198.45
21
-44.5746
0
LINE
8
BLACK
6
CONTINUOUS
10
198.45
20
-44.5746
11
198.454
21
-44.575
0
LINE
8
BLACK
6
CONTINUOUS
10
195.025
20
-44.725
11
195.025
21
-49.075
0
LINE
8
BLACK
6
CONTINUOUS
10
195.025
20
-49.075
11
198.375
21
-49.075
0
LINE
8
BLACK
6
CONTINUOUS
10
198.375
20
-49.075
11
198.375
21
-44.725
0
LINE
8
BLACK
6
CONTINUOUS
10
198.375
20
-44.725
11
195.025
21
-44.725
0
LINE
8
BLACK
6
CONTINUOUS
10
122.254
20
-42.175
11
122.265
21
-42.1761
0
LINE
8
BLACK
6
CONTINUOUS
10
122.265
20
-42.1761
11
122.279
21
-42.1804
0
LINE
8
BLACK
6
CONTINUOUS
10
122.279
20
-42.1804
11
122.292
21
-42.1873
0
LINE
8
BLACK
6
CONTINUOUS
10
122.292
20
-42.1873
11
122.303
21
-42.1967
0
LINE
8
BLACK
6
CONTINUOUS
10
122.303
20
-42.1967
11
122.313
21
-42.2081
0
LINE
8
BLACK
6
CONTINUOUS
10
122.313
20
-42.2081
11
122.32
21
-42.2212
0
LINE
8
BLACK
6
CONTINUOUS
10
122.32
20
-42.2212
11
122.324
21
-42.2353
0
LINE
8
BLACK
6
CONTINUOUS
10
122.324
20
-42.2353
11
122.325
21
-42.25
0
LINE
8
BLACK
6
CONTINUOUS
10
122.325
20
-42.25
11
122.325
21
-42.2537
0
LINE
8
BLACK
6
CONTINUOUS
10
122.325
20
-42.2537
11
122.325
21
-46.7463
0
LINE
8
BLACK
6
CONTINUOUS
10
122.325
20
-46.7463
11
122.325
21
-46.75
0
LINE
8
BLACK
6
CONTINUOUS
10
122.325
20
-46.75
11
122.324
21
-46.7647
0
LINE
8
BLACK
6
CONTINUOUS
10
122.324
20
-46.7647
11
122.32
21
-46.7788
0
LINE
8
BLACK
6
CONTINUOUS
10
122.32
20
-46.7788
11
122.313
21
-46.7919
0
LINE
8
BLACK
6
CONTINUOUS
10
122.313
20
-46.7919
11
122.303
21
-46.8033
0
LINE
8
BLACK
6
CONTINUOUS
10
122.303
20
-46.8033
11
122.292
21
-46.8127
0
LINE
8
BLACK
6
CONTINUOUS
10
122.292
20
-46.8127
11
122.279
21
-46.8196
0
LINE
8
BLACK
6
CONTINUOUS
10
122.279
20
-46.8196
11
122.265
21
-46.8239
0
LINE
8
BLACK
6
CONTINUOUS
10
122.265
20
-46.8239
11
122.254
21
-46.825
0
LINE
8
BLACK
6
CONTINUOUS
10
122.254
20
-46.825
11
122.25
21
-46.8254
0
LINE
8
BLACK
6
CONTINUOUS
10
122.25
20
-46.8254
11
122.246
21
-46.825
0
LINE
8
BLACK
6
CONTINUOUS
10
122.246
20
-46.825
11
118.754
21
-46.825
0
LINE
8
BLACK
6
CONTINUOUS
10
118.754
20
-46.825
11
118.75
21
-46.8254
0
LINE
8
BLACK
6
CONTINUOUS
10
118.75
20
-46.8254
11
118.735
21
-46.8239
0
LINE
8
BLACK
6
CONTINUOUS
10
118.735
20
-46.8239
11
118.721
21
-46.8196
0
LINE
8
BLACK
6
CONTINUOUS
10
118.721
20
-46.8196
11
118.708
21
-46.8127
0
LINE
8
BLACK
6
CONTINUOUS
10
118.708
20
-46.8127
11
118.697
21
-46.8033
0
LINE
8
BLACK
6
CONTINUOUS
10
118.697
20
-46.8033
11
118.687
21
-46.7919
0
LINE
8
BLACK
6
CONTINUOUS
10
118.687
20
-46.7919
11
118.68
21
-46.7788
0
LINE
8
BLACK
6
CONTINUOUS
10
118.68
20
-46.7788
11
118.676
21
-46.7647
0
LINE
8
BLACK
6
CONTINUOUS
10
118.676
20
-46.7647
11
118.675
21
-46.75
0
LINE
8
BLACK
6
CONTINUOUS
10
118.675
20
-46.75
11
118.675
21
-46.7463
0
LINE
8
BLACK
6
CONTINUOUS
10
118.675
20
-46.7463
11
118.675
21
-42.2537
0
LINE
8
BLACK
6
CONTINUOUS
10
118.675
20
-42.2537
11
118.675
21
-42.25
0
LINE
8
BLACK
6
CONTINUOUS
10
118.675
20
-42.25
11
118.676
21
-42.2353
0
LINE
8
BLACK
6
CONTINUOUS
10
118.676
20
-42.2353
11
118.68
21
-42.2212
0
LINE
8
BLACK
6
CONTINUOUS
10
118.68
20
-42.2212
11
118.687
21
-42.2081
0
LINE
8
BLACK
6
CONTINUOUS
10
118.687
20
-42.2081
11
118.697
21
-42.1967
0
LINE
8
BLACK
6
CONTINUOUS
10
118.697
20
-42.1967
11
118.708
21
-42.1873
0
LINE
8
BLACK
6
CONTINUOUS
10
118.708
20
-42.1873
11
118.721
21
-42.1804
0
LINE
8
BLACK
6
CONTINUOUS
10
118.721
20
-42.1804
11
118.735
21
-42.1761
0
LINE
8
BLACK
6
CONTINUOUS
10
118.735
20
-42.1761
11
118.746
21
-42.175
0
LINE
8
BLACK
6
CONTINUOUS
10
118.746
20
-42.175
11
118.75
21
-42.1746
0
LINE
8
BLACK
6
CONTINUOUS
10
118.75
20
-42.1746
11
118.754
21
-42.175
0
LINE
8
BLACK
6
CONTINUOUS
10
118.754
20
-42.175
11
122.246
21
-42.175
0
LINE
8
BLACK
6
CONTINUOUS
10
122.246
20
-42.175
11
122.25
21
-42.1746
0
LINE
8
BLACK
6
CONTINUOUS
10
122.25
20
-42.1746
11
122.254
21
-42.175
0
LINE
8
BLACK
6
CONTINUOUS
10
118.825
20
-42.325
11
118.825
21
-46.675
0
LINE
8
BLACK
6
CONTINUOUS
10
118.825
20
-46.675
11
122.175
21
-46.675
0
LINE
8
BLACK
6
CONTINUOUS
10
122.175
20
-46.675
11
122.175
21
-42.325
0
LINE
8
BLACK
6
CONTINUOUS
10
122.175
20
-42.325
11
118.825
21
-42.325
0
LINE
8
BLACK
6
CONTINUOUS
10
179.354
20
-39.775
11
179.365
21
-39.7761
0
LINE
8
BLACK
6
CONTINUOUS
10
179.365
20
-39.7761
11
179.379
21
-39.7804
0
LINE
8
BLACK
6
CONTINUOUS
10
179.379
20
-39.7804
11
179.392
21
-39.7873
0
LINE
8
BLACK
6
CONTINUOUS
10
179.392
20
-39.7873
11
179.403
21
-39.7967
0
LINE
8
BLACK
6
CONTINUOUS
10
179.403
20
-39.7967
11
179.413
21
-39.8081
0
LINE
8
BLACK
6
CONTINUOUS
10
179.413
20
-39.8081
11
179.42
21
-39.8212
0
LINE
8
BLACK
6
CONTINUOUS
10
179.42
20
-39.8212
11
179.424
21
-39.8353
0
LINE
8
BLACK
6
CONTINUOUS
10
179.424
20
-39.8353
11
179.425
21
-39.85
0
LINE
8
BLACK
6
CONTINUOUS
10
179.425
20
-39.85
11
179.425
21
-39.8537
0
LINE
8
BLACK
6
CONTINUOUS
10
179.425
20
-39.8537
11
179.425
21
-44.3463
0
LINE
8
BLACK
6
CONTINUOUS
10
179.425
20
-44.3463
11
179.425
21
-44.35
0
LINE
8
BLACK
6
CONTINUOUS
10
179.425
20
-44.35
11
179.425
21
-44.3537
0
LINE
8
BLACK
6
CONTINUOUS
10
179.425
20
-44.3537
11
179.425
21
-44.3537
0
LINE
8
BLACK
6
CONTINUOUS
10
179.425
20
-44.3537
11
179.424
21
-44.3647
0
LINE
8
BLACK
6
CONTINUOUS
10
179.424
20
-44.3647
11
179.42
21
-44.3788
0
LINE
8
BLACK
6
CONTINUOUS
10
179.42
20
-44.3788
11
179.413
21
-44.3919
0
LINE
8
BLACK
6
CONTINUOUS
10
179.413
20
-44.3919
11
179.403
21
-44.4033
0
LINE
8
BLACK
6
CONTINUOUS
10
179.403
20
-44.4033
11
179.392
21
-44.4127
0
LINE
8
BLACK
6
CONTINUOUS
10
179.392
20
-44.4127
11
179.379
21
-44.4196
0
LINE
8
BLACK
6
CONTINUOUS
10
179.379
20
-44.4196
11
179.365
21
-44.4239
0
LINE
8
BLACK
6
CONTINUOUS
10
179.365
20
-44.4239
11
179.359
21
-44.4244
0
LINE
8
BLACK
6
CONTINUOUS
10
179.359
20
-44.4244
11
179.354
21
-44.425
0
LINE
8
BLACK
6
CONTINUOUS
10
179.354
20
-44.425
11
179.35
21
-44.4254
0
LINE
8
BLACK
6
CONTINUOUS
10
179.35
20
-44.4254
11
179.346
21
-44.425
0
LINE
8
BLACK
6
CONTINUOUS
10
179.346
20
-44.425
11
175.854
21
-44.425
0
LINE
8
BLACK
6
CONTINUOUS
10
175.854
20
-44.425
11
175.85
21
-44.4254
0
LINE
8
BLACK
6
CONTINUOUS
10
175.85
20
-44.4254
11
175.835
21
-44.4239
0
LINE
8
BLACK
6
CONTINUOUS
10
175.835
20
-44.4239
11
175.821
21
-44.4196
0
LINE
8
BLACK
6
CONTINUOUS
10
175.821
20
-44.4196
11
175.808
21
-44.4127
0
LINE
8
BLACK
6
CONTINUOUS
10
175.808
20
-44.4127
11
175.797
21
-44.4033
0
LINE
8
BLACK
6
CONTINUOUS
10
175.797
20
-44.4033
11
175.793
21
-44.3994
0
LINE
8
BLACK
6
CONTINUOUS
10
175.793
20
-44.3994
11
175.787
21
-44.3919
0
LINE
8
BLACK
6
CONTINUOUS
10
175.787
20
-44.3919
11
175.78
21
-44.3788
0
LINE
8
BLACK
6
CONTINUOUS
10
175.78
20
-44.3788
11
175.776
21
-44.3647
0
LINE
8
BLACK
6
CONTINUOUS
10
175.776
20
-44.3647
11
175.775
21
-44.35
0
LINE
8
BLACK
6
CONTINUOUS
10
175.775
20
-44.35
11
175.775
21
-44.3463
0
LINE
8
BLACK
6
CONTINUOUS
10
175.775
20
-44.3463
11
175.775
21
-39.8537
0
LINE
8
BLACK
6
CONTINUOUS
10
175.775
20
-39.8537
11
175.775
21
-39.85
0
LINE
8
BLACK
6
CONTINUOUS
10
175.775
20
-39.85
11
175.776
21
-39.8353
0
LINE
8
BLACK
6
CONTINUOUS
10
175.776
20
-39.8353
11
175.78
21
-39.8212
0
LINE
8
BLACK
6
CONTINUOUS
10
175.78
20
-39.8212
11
175.787
21
-39.8081
0
LINE
8
BLACK
6
CONTINUOUS
10
175.787
20
-39.8081
11
175.797
21
-39.7967
0
LINE
8
BLACK
6
CONTINUOUS
10
175.797
20
-39.7967
11
175.808
21
-39.7873
0
LINE
8
BLACK
6
CONTINUOUS
10
175.808
20
-39.7873
11
175.821
21
-39.7804
0
LINE
8
BLACK
6
CONTINUOUS
10
175.821
20
-39.7804
11
175.835
21
-39.7761
0
LINE
8
BLACK
6
CONTINUOUS
10
175.835
20
-39.7761
11
175.846
21
-39.775
0
LINE
8
BLACK
6
CONTINUOUS
10
175.846
20
-39.775
11
175.85
21
-39.7746
0
LINE
8
BLACK
6
CONTINUOUS
10
175.85
20
-39.7746
11
175.854
21
-39.775
0
LINE
8
BLACK
6
CONTINUOUS
10
175.854
20
-39.775
11
179.346
21
-39.775
0
LINE
8
BLACK
6
CONTINUOUS
10
179.346
20
-39.775
11
179.35
21
-39.7746
0
LINE
8
BLACK
6
CONTINUOUS
10
179.35
20
-39.7746
11
179.354
21
-39.775
0
LINE
8
BLACK
6
CONTINUOUS
10
175.925
20
-39.925
11
175.925
21
-44.275
0
LINE
8
BLACK
6
CONTINUOUS
10
175.925
20
-44.275
11
179.275
21
-44.275
0
LINE
8
BLACK
6
CONTINUOUS
10
179.275
20
-44.275
11
179.275
21
-39.925
0
LINE
8
BLACK
6
CONTINUOUS
10
179.275
20
-39.925
11
175.925
21
-39.925
0
LINE
8
BLACK
6
CONTINUOUS
10
141.254
20
-39.6734
11
141.265
21
-39.6745
0
LINE
8
BLACK
6
CONTINUOUS
10
141.265
20
-39.6745
11
141.279
21
-39.6788
0
LINE
8
BLACK
6
CONTINUOUS
10
141.279
20
-39.6788
11
141.292
21
-39.6857
0
LINE
8
BLACK
6
CONTINUOUS
10
141.292
20
-39.6857
11
141.303
21
-39.6951
0
LINE
8
BLACK
6
CONTINUOUS
10
141.303
20
-39.6951
11
141.313
21
-39.7065
0
LINE
8
BLACK
6
CONTINUOUS
10
141.313
20
-39.7065
11
141.32
21
-39.7196
0
LINE
8
BLACK
6
CONTINUOUS
10
141.32
20
-39.7196
11
141.324
21
-39.7337
0
LINE
8
BLACK
6
CONTINUOUS
10
141.324
20
-39.7337
11
141.325
21
-39.7484
0
LINE
8
BLACK
6
CONTINUOUS
10
141.325
20
-39.7484
11
141.325
21
-39.7521
0
LINE
8
BLACK
6
CONTINUOUS
10
141.325
20
-39.7521
11
141.325
21
-44.2447
0
LINE
8
BLACK
6
CONTINUOUS
10
141.325
20
-44.2447
11
141.325
21
-44.2484
0
LINE
8
BLACK
6
CONTINUOUS
10
141.325
20
-44.2484
11
141.324
21
-44.2631
0
LINE
8
BLACK
6
CONTINUOUS
10
141.324
20
-44.2631
11
141.32
21
-44.2772
0
LINE
8
BLACK
6
CONTINUOUS
10
141.32
20
-44.2772
11
141.313
21
-44.2903
0
LINE
8
BLACK
6
CONTINUOUS
10
141.313
20
-44.2903
11
141.303
21
-44.3017
0
LINE
8
BLACK
6
CONTINUOUS
10
141.303
20
-44.3017
11
141.292
21
-44.3111
0
LINE
8
BLACK
6
CONTINUOUS
10
141.292
20
-44.3111
11
141.279
21
-44.318
0
LINE
8
BLACK
6
CONTINUOUS
10
141.279
20
-44.318
11
141.265
21
-44.3223
0
LINE
8
BLACK
6
CONTINUOUS
10
141.265
20
-44.3223
11
141.254
21
-44.3234
0
LINE
8
BLACK
6
CONTINUOUS
10
141.254
20
-44.3234
11
141.25
21
-44.3238
0
LINE
8
BLACK
6
CONTINUOUS
10
141.25
20
-44.3238
11
141.246
21
-44.3234
0
LINE
8
BLACK
6
CONTINUOUS
10
141.246
20
-44.3234
11
137.754
21
-44.3234
0
LINE
8
BLACK
6
CONTINUOUS
10
137.754
20
-44.3234
11
137.75
21
-44.3238
0
LINE
8
BLACK
6
CONTINUOUS
10
137.75
20
-44.3238
11
137.735
21
-44.3223
0
LINE
8
BLACK
6
CONTINUOUS
10
137.735
20
-44.3223
11
137.721
21
-44.318
0
LINE
8
BLACK
6
CONTINUOUS
10
137.721
20
-44.318
11
137.708
21
-44.3111
0
LINE
8
BLACK
6
CONTINUOUS
10
137.708
20
-44.3111
11
137.697
21
-44.3017
0
LINE
8
BLACK
6
CONTINUOUS
10
137.697
20
-44.3017
11
137.693
21
-44.2967
0
LINE
8
BLACK
6
CONTINUOUS
10
137.693
20
-44.2967
11
137.687
21
-44.2903
0
LINE
8
BLACK
6
CONTINUOUS
10
137.687
20
-44.2903
11
137.68
21
-44.2772
0
LINE
8
BLACK
6
CONTINUOUS
10
137.68
20
-44.2772
11
137.676
21
-44.2631
0
LINE
8
BLACK
6
CONTINUOUS
10
137.676
20
-44.2631
11
137.675
21
-44.2484
0
LINE
8
BLACK
6
CONTINUOUS
10
137.675
20
-44.2484
11
137.675
21
-44.2447
0
LINE
8
BLACK
6
CONTINUOUS
10
137.675
20
-44.2447
11
137.675
21
-39.7521
0
LINE
8
BLACK
6
CONTINUOUS
10
137.675
20
-39.7521
11
137.675
21
-39.7484
0
LINE
8
BLACK
6
CONTINUOUS
10
137.675
20
-39.7484
11
137.676
21
-39.7337
0
LINE
8
BLACK
6
CONTINUOUS
10
137.676
20
-39.7337
11
137.68
21
-39.7196
0
LINE
8
BLACK
6
CONTINUOUS
10
137.68
20
-39.7196
11
137.687
21
-39.7065
0
LINE
8
BLACK
6
CONTINUOUS
10
137.687
20
-39.7065
11
137.697
21
-39.6951
0
LINE
8
BLACK
6
CONTINUOUS
10
137.697
20
-39.6951
11
137.708
21
-39.6857
0
LINE
8
BLACK
6
CONTINUOUS
10
137.708
20
-39.6857
11
137.721
21
-39.6788
0
LINE
8
BLACK
6
CONTINUOUS
10
137.721
20
-39.6788
11
137.735
21
-39.6745
0
LINE
8
BLACK
6
CONTINUOUS
10
137.735
20
-39.6745
11
137.746
21
-39.6734
0
LINE
8
BLACK
6
CONTINUOUS
10
137.746
20
-39.6734
11
137.75
21
-39.673
0
LINE
8
BLACK
6
CONTINUOUS
10
137.75
20
-39.673
11
137.754
21
-39.6734
0
LINE
8
BLACK
6
CONTINUOUS
10
137.754
20
-39.6734
11
141.246
21
-39.6734
0
LINE
8
BLACK
6
CONTINUOUS
10
141.246
20
-39.6734
11
141.25
21
-39.673
0
LINE
8
BLACK
6
CONTINUOUS
10
141.25
20
-39.673
11
141.254
21
-39.6734
0
LINE
8
BLACK
6
CONTINUOUS
10
137.825
20
-39.8234
11
137.825
21
-44.1734
0
LINE
8
BLACK
6
CONTINUOUS
10
137.825
20
-44.1734
11
141.175
21
-44.1734
0
LINE
8
BLACK
6
CONTINUOUS
10
141.175
20
-44.1734
11
141.175
21
-39.8234
0
LINE
8
BLACK
6
CONTINUOUS
10
141.175
20
-39.8234
11
137.825
21
-39.8234
0
LINE
8
BLACK
6
CONTINUOUS
10
160.354
20
-37.1558
11
160.365
21
-37.1569
0
LINE
8
BLACK
6
CONTINUOUS
10
160.365
20
-37.1569
11
160.379
21
-37.1612
0
LINE
8
BLACK
6
CONTINUOUS
10
160.379
20
-37.1612
11
160.392
21
-37.1681
0
LINE
8
BLACK
6
CONTINUOUS
10
160.392
20
-37.1681
11
160.403
21
-37.1775
0
LINE
8
BLACK
6
CONTINUOUS
10
160.403
20
-37.1775
11
160.413
21
-37.1889
0
LINE
8
BLACK
6
CONTINUOUS
10
160.413
20
-37.1889
11
160.42
21
-37.202
0
LINE
8
BLACK
6
CONTINUOUS
10
160.42
20
-37.202
11
160.424
21
-37.2161
0
LINE
8
BLACK
6
CONTINUOUS
10
160.424
20
-37.2161
11
160.425
21
-37.2308
0
LINE
8
BLACK
6
CONTINUOUS
10
160.425
20
-37.2308
11
160.425
21
-37.2345
0
LINE
8
BLACK
6
CONTINUOUS
10
160.425
20
-37.2345
11
160.425
21
-41.7271
0
LINE
8
BLACK
6
CONTINUOUS
10
160.425
20
-41.7271
11
160.425
21
-41.7308
0
LINE
8
BLACK
6
CONTINUOUS
10
160.425
20
-41.7308
11
160.424
21
-41.7455
0
LINE
8
BLACK
6
CONTINUOUS
10
160.424
20
-41.7455
11
160.42
21
-41.7596
0
LINE
8
BLACK
6
CONTINUOUS
10
160.42
20
-41.7596
11
160.413
21
-41.7727
0
LINE
8
BLACK
6
CONTINUOUS
10
160.413
20
-41.7727
11
160.403
21
-41.7841
0
LINE
8
BLACK
6
CONTINUOUS
10
160.403
20
-41.7841
11
160.392
21
-41.7935
0
LINE
8
BLACK
6
CONTINUOUS
10
160.392
20
-41.7935
11
160.379
21
-41.8004
0
LINE
8
BLACK
6
CONTINUOUS
10
160.379
20
-41.8004
11
160.365
21
-41.8047
0
LINE
8
BLACK
6
CONTINUOUS
10
160.365
20
-41.8047
11
160.354
21
-41.8058
0
LINE
8
BLACK
6
CONTINUOUS
10
160.354
20
-41.8058
11
160.35
21
-41.8062
0
LINE
8
BLACK
6
CONTINUOUS
10
160.35
20
-41.8062
11
160.346
21
-41.8058
0
LINE
8
BLACK
6
CONTINUOUS
10
160.346
20
-41.8058
11
156.854
21
-41.8058
0
LINE
8
BLACK
6
CONTINUOUS
10
156.854
20
-41.8058
11
156.85
21
-41.8062
0
LINE
8
BLACK
6
CONTINUOUS
10
156.85
20
-41.8062
11
156.835
21
-41.8047
0
LINE
8
BLACK
6
CONTINUOUS
10
156.835
20
-41.8047
11
156.821
21
-41.8004
0
LINE
8
BLACK
6
CONTINUOUS
10
156.821
20
-41.8004
11
156.808
21
-41.7935
0
LINE
8
BLACK
6
CONTINUOUS
10
156.808
20
-41.7935
11
156.797
21
-41.7841
0
LINE
8
BLACK
6
CONTINUOUS
10
156.797
20
-41.7841
11
156.787
21
-41.7727
0
LINE
8
BLACK
6
CONTINUOUS
10
156.787
20
-41.7727
11
156.78
21
-41.7596
0
LINE
8
BLACK
6
CONTINUOUS
10
156.78
20
-41.7596
11
156.776
21
-41.7455
0
LINE
8
BLACK
6
CONTINUOUS
10
156.776
20
-41.7455
11
156.775
21
-41.7308
0
LINE
8
BLACK
6
CONTINUOUS
10
156.775
20
-41.7308
11
156.775
21
-41.7271
0
LINE
8
BLACK
6
CONTINUOUS
10
156.775
20
-41.7271
11
156.775
21
-37.2345
0
LINE
8
BLACK
6
CONTINUOUS
10
156.775
20
-37.2345
11
156.775
21
-37.2308
0
LINE
8
BLACK
6
CONTINUOUS
10
156.775
20
-37.2308
11
156.776
21
-37.2161
0
LINE
8
BLACK
6
CONTINUOUS
10
156.776
20
-37.2161
11
156.78
21
-37.202
0
LINE
8
BLACK
6
CONTINUOUS
10
156.78
20
-37.202
11
156.787
21
-37.1889
0
LINE
8
BLACK
6
CONTINUOUS
10
156.787
20
-37.1889
11
156.797
21
-37.1775
0
LINE
8
BLACK
6
CONTINUOUS
10
156.797
20
-37.1775
11
156.808
21
-37.1681
0
LINE
8
BLACK
6
CONTINUOUS
10
156.808
20
-37.1681
11
156.821
21
-37.1612
0
LINE
8
BLACK
6
CONTINUOUS
10
156.821
20
-37.1612
11
156.835
21
-37.1569
0
LINE
8
BLACK
6
CONTINUOUS
10
156.835
20
-37.1569
11
156.846
21
-37.1558
0
LINE
8
BLACK
6
CONTINUOUS
10
156.846
20
-37.1558
11
156.85
21
-37.1554
0
LINE
8
BLACK
6
CONTINUOUS
10
156.85
20
-37.1554
11
156.854
21
-37.1558
0
LINE
8
BLACK
6
CONTINUOUS
10
156.854
20
-37.1558
11
160.346
21
-37.1558
0
LINE
8
BLACK
6
CONTINUOUS
10
160.346
20
-37.1558
11
160.35
21
-37.1554
0
LINE
8
BLACK
6
CONTINUOUS
10
160.35
20
-37.1554
11
160.354
21
-37.1558
0
LINE
8
BLACK
6
CONTINUOUS
10
156.925
20
-37.3058
11
156.925
21
-41.6558
0
LINE
8
BLACK
6
CONTINUOUS
10
156.925
20
-41.6558
11
160.275
21
-41.6558
0
LINE
8
BLACK
6
CONTINUOUS
10
160.275
20
-41.6558
11
160.275
21
-37.3058
0
LINE
8
BLACK
6
CONTINUOUS
10
160.275
20
-37.3058
11
156.925
21
-37.3058
  0
ENDSEC
  0
EOF
